<svg width="71" height="36" viewBox="0 0 71 36" fill="none" xmlns="http://www.w3.org/2000/svg">
<g clip-path="url(#clip0)">
<path d="M12.5896 0.769646C13.1002 -0.256549 13.9325 -0.256549 14.4431 0.769646L17.073 6.05316C17.3892 6.60593 17.8213 7.08507 18.3401 7.45825C18.8589 7.83144 19.4524 8.08999 20.0806 8.21649L25.9559 9.0624C27.103 9.22881 27.3548 10.0123 26.5364 10.8166L22.2768 14.9284C21.8487 15.3926 21.525 15.9418 21.3273 16.5395C21.1295 17.1372 21.0622 17.7698 21.1298 18.3952L22.123 24.2681C22.3188 25.3983 21.6404 25.8837 20.6192 25.3498L15.3874 22.5763C14.8045 22.3123 14.1712 22.1757 13.5304 22.1757C12.8896 22.1757 12.2562 22.3123 11.6734 22.5763L6.3856 25.3151C5.36442 25.849 4.68597 25.3636 4.8958 24.2681L5.90299 18.4646C5.97058 17.8391 5.90326 17.2066 5.7055 16.6089C5.50774 16.0111 5.18405 15.462 4.75591 14.9977L0.48234 10.8166C-0.342998 10.0123 -0.0842057 9.22881 1.05588 9.0624L6.93816 8.21649C7.56601 8.08914 8.15916 7.83024 8.67787 7.45715C9.19657 7.08405 9.62885 6.60536 9.94574 6.05316L12.5896 0.769646Z" fill="url(#paint0_linear)"/>
<path d="M56.5704 0.769646C57.081 -0.256549 57.9203 -0.256549 58.4309 0.769646L61.0608 6.05316C61.3762 6.60516 61.8072 7.08382 62.3247 7.45696C62.8423 7.8301 63.4344 8.08908 64.0614 8.21649L69.9436 9.0624C71.0837 9.22881 71.3425 10.0123 70.5172 10.8166L66.2646 14.9284C65.8364 15.3926 65.5128 15.9418 65.315 16.5395C65.1172 17.1372 65.0499 17.7698 65.1175 18.3952L66.1177 24.2681C66.3136 25.3983 65.6351 25.8837 64.6139 25.3498L59.3541 22.6109C58.7713 22.347 58.1379 22.2104 57.4971 22.2104C56.8563 22.2104 56.223 22.347 55.6401 22.6109L50.3594 25.3151C49.3382 25.849 48.6667 25.3636 48.8626 24.2334L49.8628 18.4299C49.9304 17.8044 49.863 17.1719 49.6653 16.5742C49.4675 15.9765 49.1438 15.4273 48.7157 14.963L44.4841 10.8166C43.6587 10.0123 43.9105 9.22881 45.0576 9.0624L50.9329 8.21649C51.5611 8.08999 52.1546 7.83144 52.6734 7.45825C53.1922 7.08507 53.6243 6.60593 53.9405 6.05316L56.5704 0.769646Z" fill="url(#paint1_linear)"/>
<path d="M34.5732 1.46301C35.0838 0.436811 35.9161 0.436811 36.4267 1.46301L40.6583 9.96378C40.9752 10.516 41.4075 10.9947 41.9262 11.3678C42.4449 11.7409 43.0381 11.9998 43.6659 12.1271L53.1293 13.5139C54.2694 13.6733 54.5282 14.4638 53.7029 15.2612L46.8624 21.8551C46.4299 22.3237 46.1038 22.8786 45.9059 23.4826C45.708 24.0867 45.643 24.7257 45.7153 25.3567L47.331 34.7034C47.5268 35.8266 46.8484 36.3189 45.8272 35.785L37.364 31.3752C36.7811 31.1112 36.1478 30.9746 35.507 30.9746C34.8662 30.9746 34.2328 31.1112 33.65 31.3752L25.1798 35.785C24.1586 36.3189 23.4801 35.8266 23.676 34.7034L25.2917 25.3567C25.3639 24.7257 25.2989 24.0867 25.1011 23.4826C24.9032 22.8786 24.577 22.3237 24.1446 21.8551L17.2971 15.2542C16.4718 14.4568 16.7305 13.6664 17.8776 13.5069L27.334 12.1202C27.9622 11.9937 28.5557 11.7351 29.0746 11.3619C29.5934 10.9887 30.0254 10.5096 30.3416 9.95684L34.5732 1.46301Z" fill="url(#paint2_linear)"/>
</g>
<defs>
<linearGradient id="paint0_linear" x1="13.1024" y1="-3.19585" x2="10.0982" y2="32.677" gradientUnits="userSpaceOnUse">
<stop stop-color="#9b0030"/>
<stop offset="1" stop-color="#cf0040"/>
</linearGradient>
<linearGradient id="paint1_linear" x1="57.4996" y1="0" x2="57.4996" y2="25.5668" gradientUnits="userSpaceOnUse">
<stop stop-color="#9b0030"/>
<stop offset="1" stop-color="#cf0040"/>
</linearGradient>
<linearGradient id="paint2_linear" x1="35.5002" y1="0.693359" x2="35.5002" y2="36.0009" gradientUnits="userSpaceOnUse">
<stop stop-color="#cf0040"/>
<stop offset="1" stop-color="#9b0030"/>
</linearGradient>
<clipPath id="clip0">
<rect width="71" height="36" fill="white"/>
</clipPath>
</defs>
</svg>
