<svg width="54" height="47" viewBox="0 0 54 47" fill="none" xmlns="http://www.w3.org/2000/svg">
<g clip-path="url(#clip0)">
<path d="M44.9691 16.4019V45.1245H9.0127V16.4019" stroke="url(#paint0_linear)" stroke-width="4" stroke-linecap="round" stroke-linejoin="round"/>
<path d="M29.0957 40.7178C29.2601 40.7179 29.4228 40.6842 29.5742 40.6186C29.7255 40.5531 29.8624 40.457 29.9766 40.3363C30.0908 40.2155 30.1801 40.0725 30.239 39.9157C30.2979 39.759 30.3253 39.5917 30.3195 39.4239V21.6277C30.3147 21.3154 30.2418 21.0081 30.1064 20.7281C29.9709 20.4481 29.7762 20.2024 29.5363 20.0087C29.1609 19.7487 28.8484 19.4047 28.6226 19.0029C28.3967 18.601 28.2635 18.1519 28.2329 17.6896V14.1267L28.3675 13.8704C28.3675 13.8704 28.3675 13.3953 28.3675 12.5765C28.3675 11.7576 25.7975 11.7513 25.7363 12.5765C25.7093 13.0073 25.7093 13.4395 25.7363 13.8704L25.8648 14.1267V17.6896C25.8367 18.1518 25.7051 18.6013 25.4802 19.0033C25.2553 19.4054 24.9431 19.7494 24.5675 20.0087C24.3221 20.1796 24.1209 20.4089 23.9813 20.6767C23.8417 20.9445 23.7677 21.243 23.7659 21.5464V39.4239C23.7641 39.76 23.8912 40.0836 24.1199 40.3254C24.3486 40.5672 24.6607 40.708 24.9897 40.7178C24.9897 40.7178 25.7791 40.7928 27.0397 40.7928C28.3798 40.7928 29.0957 40.7178 29.0957 40.7178Z" fill="url(#paint1_linear)"/>
<path d="M5.05957 17.096L26.9969 4.12549L48.9404 17.096" stroke="url(#paint2_linear)" stroke-width="7" stroke-linecap="round" stroke-linejoin="round"/>
</g>
<defs>
<linearGradient id="paint0_linear" x1="26.4516" y1="12.8115" x2="23.5969" y2="53.1932" gradientUnits="userSpaceOnUse">
<stop stop-color="#009CB4"/>
<stop offset="1" stop-color="#006774"/>
</linearGradient>
<linearGradient id="paint1_linear" x1="27.0431" y1="11.96" x2="27.0431" y2="40.7928" gradientUnits="userSpaceOnUse">
<stop stop-color="#198391"/>
<stop offset="1" stop-color="#094C54"/>
</linearGradient>
<linearGradient id="paint2_linear" x1="27" y1="4.12549" x2="27" y2="17.096" gradientUnits="userSpaceOnUse">
<stop stop-color="#028EA4"/>
<stop offset="1" stop-color="#3DBBCE"/>
</linearGradient>
<clipPath id="clip0">
<rect width="54" height="47" fill="white"/>
</clipPath>
</defs>
</svg>
