<svg width="80" height="41" viewBox="0 0 80 41" fill="none" xmlns="http://www.w3.org/2000/svg">
<path opacity="0.38" d="M1.11516 23.8431C1.20286 21.9712 1.09871 20.0951 0.804393 18.2449C0.324111 15.6412 0.253481 13.0424 2.35354 13.8292C4.4536 14.616 6.9021 18.0064 8.25819 17.5868C9.61428 17.1672 14.0451 15.1358 15.0151 14.9641C15.9851 14.7924 17.5907 14.3966 18.2217 14.3346C18.8527 14.2727 19.8886 13.0471 19.8321 11.9981C19.7756 10.949 19.6814 6.89571 21.0139 8.11169C22.3465 9.32767 23.1893 10.0954 24.0651 10.0191C24.9409 9.94281 25.7226 7.02923 27.2341 7.2295C28.7455 7.42978 29.6731 6.58575 29.7579 5.82278C29.8427 5.05981 30.6384 3.36221 31.825 3.33837C33.0116 3.31452 35.785 2.3179 36.5384 1.06377C37.2917 -0.190359 39.6084 -0.509852 40.8844 1.06377C42.1605 2.63739 41.6755 6.55237 42.5419 7.41548C43.4083 8.27859 44.1617 8.43595 47.6602 7.8065C51.1587 7.17705 49.5437 10.6676 50.9233 11.4306C52.3029 12.1936 55.6602 11.0968 56.1687 9.69008C56.6773 8.28335 60.2982 10.1431 61.659 11.1206C63.0198 12.0982 66.1322 13.1425 67.5684 13.5478C69.0045 13.9532 76.463 14.0724 78.3983 15.8749C80.3335 17.6774 79.4342 20.8151 77.3106 20.3478C75.187 19.8805 74.363 22.7321 73.1905 23.6429C72.0181 24.5536 68.3594 25.4024 67.9545 27.6723C67.5495 29.9421 64.5077 33.3325 64.0793 33.2706C63.6508 33.2086 63.081 31.1152 63.9474 28.6784C64.8138 26.2417 66.9139 23.1374 64.084 24.4249C61.2541 25.7124 56.1734 26.4468 55.6084 28.2397C55.0434 30.0327 56.0793 32.808 56.0793 33.9191C56.0793 35.0302 54.1958 40.4282 52.7032 40.1182C51.2105 39.8082 50.9939 35.3496 50.9939 35.3496C50.9939 35.3496 47.6461 29.904 46.2429 31.902C44.8397 33.9 38.7514 36.8136 33.1293 34.1098C33.1293 34.1098 32.6584 33.4899 31.679 34.1098C30.6996 34.7297 26.6643 34.0145 24.795 32.4456C22.9256 30.8767 17.812 30.1519 16.7243 31.8209C15.6366 33.4899 14.2005 34.3673 13.3718 33.8571C12.5431 33.3469 9.27526 33.9048 9.64724 36.2128C10.0192 38.5207 10.9986 40.9813 9.61899 40.5807C8.23936 40.1802 4.5101 38.8736 4.48185 37.9867C4.4536 37.0997 6.12046 35.1637 4.95272 34.4055C3.78497 33.6473 0.164016 31.1819 -0.000786403 28.3923C-0.11262 26.7946 0.27804 25.2021 1.11516 23.8431Z" fill="url(#paint0_linear)"/>
<path d="M34.9101 3.6626C34.4352 3.66386 33.9801 3.85583 33.6446 4.19641C33.3092 4.537 33.1208 4.99839 33.1208 5.47942C33.1208 6.48081 34.2603 8.11642 34.9101 8.76971C35.6211 8.04966 36.6994 6.48081 36.6994 5.47942C36.6994 4.99839 36.5111 4.537 36.1756 4.19641C35.8402 3.85583 35.3851 3.66386 34.9101 3.6626Z" fill="url(#paint1_linear)"/>
<path d="M40.3203 3.6626C39.8453 3.66386 39.3902 3.85583 39.0548 4.19641C38.7194 4.537 38.531 4.99839 38.531 5.47942C38.531 6.48081 39.6752 8.11642 40.3203 8.76971C41.0313 8.04966 42.1096 6.48081 42.1096 5.47942C42.1096 4.99839 41.9212 4.537 41.5858 4.19641C41.2504 3.85583 40.7953 3.66386 40.3203 3.6626Z" fill="url(#paint2_linear)"/>
<path d="M24.0848 10.1095C23.6098 10.1095 23.1542 10.3003 22.8179 10.64C22.4816 10.9797 22.292 11.4406 22.2908 11.9216C22.2908 12.923 23.435 14.5586 24.0848 15.2167C24.7958 14.4966 25.8976 12.923 25.8976 11.9216C25.8976 11.6816 25.8506 11.444 25.7592 11.2226C25.6678 11.0012 25.5339 10.8003 25.3652 10.6318C25.1966 10.4632 24.9965 10.3302 24.7767 10.2406C24.5569 10.1509 24.3217 10.1064 24.0848 10.1095Z" fill="url(#paint3_linear)"/>
<path d="M29.4951 10.1099C29.0205 10.1099 28.5654 10.3008 28.2299 10.6406C27.8943 10.9804 27.7058 11.4413 27.7058 11.9219C27.7058 12.9233 28.85 14.5589 29.4951 15.217C30.2061 14.4969 31.2844 12.9233 31.2844 11.9219C31.2844 11.4413 31.0959 10.9804 30.7603 10.6406C30.4248 10.3008 29.9696 10.1099 29.4951 10.1099Z" fill="url(#paint4_linear)"/>
<path d="M34.9101 10.1099C34.4356 10.1099 33.9805 10.3008 33.6449 10.6406C33.3094 10.9804 33.1208 11.4413 33.1208 11.9219C33.1208 12.9233 34.2603 14.5589 34.9101 15.217C35.6211 14.4969 36.6994 12.9233 36.6994 11.9219C36.6994 11.4413 36.5109 10.9804 36.1754 10.6406C35.8398 10.3008 35.3847 10.1099 34.9101 10.1099Z" fill="url(#paint5_linear)"/>
<path d="M40.3203 10.1099C39.8457 10.1099 39.3906 10.3008 39.0551 10.6406C38.7195 10.9804 38.531 11.4413 38.531 11.9219C38.531 12.9233 39.6752 14.5589 40.3203 15.217C41.0313 14.4969 42.1096 12.9233 42.1096 11.9219C42.1096 11.4413 41.9211 10.9804 41.5855 10.6406C41.25 10.3008 40.7948 10.1099 40.3203 10.1099Z" fill="url(#paint6_linear)"/>
<path d="M45.7353 10.1099C45.2608 10.1099 44.8057 10.3008 44.4701 10.6406C44.1346 10.9804 43.946 11.4413 43.946 11.9219C43.946 12.9233 45.0902 14.5589 45.7353 15.217C46.4463 14.4969 47.5246 12.9233 47.5246 11.9219C47.5246 11.4413 47.3361 10.9804 47.0006 10.6406C46.665 10.3008 46.2099 10.1099 45.7353 10.1099Z" fill="url(#paint7_linear)"/>
<path d="M51.1455 10.1099C50.6709 10.1099 50.2158 10.3008 49.8803 10.6406C49.5447 10.9804 49.3562 11.4413 49.3562 11.9219C49.3562 12.9233 50.5004 14.5589 51.1455 15.217C51.8565 14.4969 52.9395 12.9233 52.9395 11.9219C52.9382 11.4409 52.7487 10.98 52.4124 10.6403C52.0761 10.3006 51.6205 10.1099 51.1455 10.1099Z" fill="url(#paint8_linear)"/>
<path d="M56.5603 10.1099C56.0857 10.1099 55.6306 10.3008 55.2951 10.6406C54.9595 10.9804 54.771 11.4413 54.771 11.9219C54.771 12.9233 55.9152 14.5589 56.5603 15.217C57.2713 14.4969 58.3496 12.9233 58.3496 11.9219C58.3496 11.4413 58.1611 10.9804 57.8255 10.6406C57.4899 10.3008 57.0348 10.1099 56.5603 10.1099Z" fill="url(#paint9_linear)"/>
<path d="M2.42967 16.5567C1.95512 16.5567 1.50001 16.7476 1.16445 17.0874C0.828895 17.4273 0.640381 17.8882 0.640381 18.3687C0.640381 19.3701 1.78458 21.0058 2.42967 21.6638C3.14068 20.9438 4.23779 19.3701 4.23779 18.3687C4.23718 18.1294 4.18985 17.8924 4.09854 17.6716C4.00722 17.4508 3.87371 17.2505 3.70569 17.0821C3.53766 16.9137 3.33843 16.7806 3.11945 16.6904C2.90047 16.6003 2.66605 16.5548 2.42967 16.5567Z" fill="url(#paint10_linear)"/>
<path d="M7.84471 16.5566C7.37016 16.5566 6.91505 16.7476 6.57949 17.0874C6.24393 17.4272 6.05542 17.8881 6.05542 18.3687C6.05542 19.3701 7.19962 21.0057 7.84471 21.6638C8.55571 20.9437 9.634 19.3701 9.634 18.3687C9.634 17.8881 9.44548 17.4272 9.10993 17.0874C8.77437 16.7476 8.31926 16.5566 7.84471 16.5566Z" fill="url(#paint11_linear)"/>
<path d="M13.2549 16.5567C12.7803 16.5567 12.3252 16.7477 11.9896 17.0875C11.6541 17.4273 11.4656 17.8882 11.4656 18.3688C11.4656 19.3702 12.6098 21.0058 13.2549 21.6639C13.9659 20.9438 15.0677 19.3702 15.0677 18.3688C15.0671 18.129 15.0196 17.8917 14.928 17.6706C14.8364 17.4494 14.7025 17.2489 14.5339 17.0804C14.3654 16.912 14.1656 16.779 13.9461 16.6891C13.7266 16.5992 13.4916 16.5542 13.2549 16.5567Z" fill="url(#paint12_linear)"/>
<path d="M18.6699 16.5566C18.1954 16.5566 17.7402 16.7476 17.4047 17.0874C17.0691 17.4272 16.8806 17.8881 16.8806 18.3687C16.8806 19.3701 18.0248 21.0057 18.6699 21.6638C19.3809 20.9437 20.4592 19.3701 20.4592 18.3687C20.4592 17.8881 20.2707 17.4272 19.9351 17.0874C19.5996 16.7476 19.1445 16.5566 18.6699 16.5566Z" fill="url(#paint13_linear)"/>
<path d="M24.0848 16.5566C23.6098 16.5566 23.1542 16.7474 22.8179 17.0871C22.4816 17.4268 22.292 17.8877 22.2908 18.3687C22.2908 19.3701 23.435 21.0057 24.0848 21.6638C24.7958 20.9437 25.8741 19.3701 25.8741 18.3687C25.8741 17.8881 25.6855 17.4272 25.35 17.0874C25.0144 16.7476 24.5593 16.5566 24.0848 16.5566Z" fill="url(#paint14_linear)"/>
<path d="M29.4951 16.5566C29.0205 16.5566 28.5654 16.7476 28.2299 17.0874C27.8943 17.4272 27.7058 17.8881 27.7058 18.3687C27.7058 19.3701 28.85 21.0057 29.4951 21.6638C30.2061 20.9437 31.2844 19.3701 31.2844 18.3687C31.2844 17.8881 31.0959 17.4272 30.7603 17.0874C30.4248 16.7476 29.9696 16.5566 29.4951 16.5566Z" fill="url(#paint15_linear)"/>
<path d="M34.9101 16.5566C34.4356 16.5566 33.9805 16.7476 33.6449 17.0874C33.3094 17.4272 33.1208 17.8881 33.1208 18.3687C33.1208 19.3701 34.2603 21.0057 34.9101 21.6638C35.6211 20.9437 36.6994 19.3701 36.6994 18.3687C36.6994 17.8881 36.5109 17.4272 36.1754 17.0874C35.8398 16.7476 35.3847 16.5566 34.9101 16.5566Z" fill="url(#paint16_linear)"/>
<path d="M40.3203 16.5566C39.8457 16.5566 39.3906 16.7476 39.0551 17.0874C38.7195 17.4272 38.531 17.8881 38.531 18.3687C38.531 19.3701 39.6752 21.0057 40.3203 21.6638C41.0313 20.9437 42.1096 19.3701 42.1096 18.3687C42.1096 17.8881 41.9211 17.4272 41.5855 17.0874C41.25 16.7476 40.7948 16.5566 40.3203 16.5566Z" fill="url(#paint17_linear)"/>
<path d="M45.7353 16.5566C45.2608 16.5566 44.8057 16.7476 44.4701 17.0874C44.1346 17.4272 43.946 17.8881 43.946 18.3687C43.946 19.3701 45.0902 21.0057 45.7353 21.6638C46.4463 20.9437 47.5246 19.3701 47.5246 18.3687C47.5246 17.8881 47.3361 17.4272 47.0006 17.0874C46.665 16.7476 46.2099 16.5566 45.7353 16.5566Z" fill="url(#paint18_linear)"/>
<path d="M51.1455 16.5566C50.6709 16.5566 50.2158 16.7476 49.8803 17.0874C49.5447 17.4272 49.3562 17.8881 49.3562 18.3687C49.3562 19.3701 50.5004 21.0057 51.1455 21.6638C51.8565 20.9437 52.9395 19.3701 52.9395 18.3687C52.9382 17.8877 52.7487 17.4268 52.4124 17.0871C52.0761 16.7474 51.6205 16.5566 51.1455 16.5566Z" fill="url(#paint19_linear)"/>
<path d="M56.5603 16.5566C56.0857 16.5566 55.6306 16.7476 55.2951 17.0874C54.9595 17.4272 54.771 17.8881 54.771 18.3687C54.771 19.3701 55.9152 21.0057 56.5603 21.6638C57.2713 20.9437 58.3496 19.3701 58.3496 18.3687C58.3496 17.8881 58.1611 17.4272 57.8255 17.0874C57.4899 16.7476 57.0348 16.5566 56.5603 16.5566Z" fill="url(#paint20_linear)"/>
<path d="M61.9707 16.5566C61.4961 16.5566 61.041 16.7476 60.7055 17.0874C60.3699 17.4272 60.1814 17.8881 60.1814 18.3687C60.1814 19.3701 61.3256 21.0057 61.9707 21.6638C62.6817 20.9437 63.7647 19.3701 63.7647 18.3687C63.7634 17.8877 63.5739 17.4268 63.2376 17.0871C62.9013 16.7474 62.4457 16.5566 61.9707 16.5566Z" fill="url(#paint21_linear)"/>
<path d="M67.3857 16.5566C66.9112 16.5566 66.4561 16.7476 66.1205 17.0874C65.7849 17.4272 65.5964 17.8881 65.5964 18.3687C65.5964 19.3701 66.7406 21.0057 67.3857 21.6638C68.0967 20.9437 69.175 19.3701 69.175 18.3687C69.175 17.8881 68.9865 17.4272 68.6509 17.0874C68.3154 16.7476 67.8603 16.5566 67.3857 16.5566Z" fill="url(#paint22_linear)"/>
<path d="M72.8006 16.5566C72.3256 16.5566 71.87 16.7474 71.5337 17.0871C71.1974 17.4268 71.0078 17.8877 71.0066 18.3687C71.0066 19.3701 72.1508 21.0057 72.8006 21.6638C73.5069 20.9437 74.5899 19.3701 74.5899 18.3687C74.5899 17.8881 74.4014 17.4272 74.0658 17.0874C73.7303 16.7476 73.2751 16.5566 72.8006 16.5566Z" fill="url(#paint23_linear)"/>
<path d="M2.42967 23.004C1.95837 23.0039 1.50608 23.1922 1.17106 23.5279C0.836044 23.8636 0.645342 24.3197 0.640381 24.7969C0.640381 25.7983 1.78458 27.434 2.42967 28.0872C3.14068 27.3863 4.23779 25.8174 4.23779 24.7969C4.23158 24.3167 4.0379 23.8586 3.69907 23.5226C3.36025 23.1866 2.90386 23.0001 2.42967 23.004Z" fill="url(#paint24_linear)"/>
<path d="M7.84471 23.0039C7.37016 23.0039 6.91505 23.1948 6.57949 23.5346C6.24393 23.8745 6.05542 24.3354 6.05542 24.816C6.05542 25.8173 7.19962 27.453 7.84471 28.1062C8.55571 27.3862 9.634 25.8173 9.634 24.816C9.634 24.3354 9.44548 23.8745 9.10993 23.5346C8.77437 23.1948 8.31926 23.0039 7.84471 23.0039Z" fill="url(#paint25_linear)"/>
<path d="M13.2549 23.004C12.7803 23.004 12.3252 23.1949 11.9896 23.5347C11.6541 23.8746 11.4656 24.3355 11.4656 24.8161C11.4656 25.8175 12.6098 27.4531 13.2549 28.1064C13.9659 27.3863 15.0677 25.8175 15.0677 24.797C15.0615 24.316 14.8671 23.8571 14.5273 23.5209C14.1875 23.1848 13.7299 22.9989 13.2549 23.004Z" fill="url(#paint26_linear)"/>
<path d="M18.6699 23.0039C18.1954 23.0039 17.7402 23.1948 17.4047 23.5346C17.0691 23.8745 16.8806 24.3354 16.8806 24.816C16.8806 25.8173 18.0248 27.453 18.6699 28.1062C19.3809 27.3862 20.4592 25.8173 20.4592 24.816C20.4592 24.3354 20.2707 23.8745 19.9351 23.5346C19.5996 23.1948 19.1445 23.0039 18.6699 23.0039Z" fill="url(#paint27_linear)"/>
<path d="M24.0848 23.0039C23.613 23.0039 23.1602 23.192 22.8245 23.5276C22.4887 23.8632 22.297 24.3192 22.2908 24.7969C22.2908 25.7983 23.435 27.4339 24.0848 28.0872C24.7958 27.3671 25.8741 25.7983 25.8741 24.7969C25.8691 24.3196 25.6784 23.8636 25.3434 23.5279C25.0084 23.1922 24.5561 23.0039 24.0848 23.0039Z" fill="url(#paint28_linear)"/>
<path d="M29.4951 23.0039C29.0205 23.0039 28.5654 23.1948 28.2299 23.5346C27.8943 23.8745 27.7058 24.3354 27.7058 24.816C27.7058 25.8173 28.85 27.453 29.4951 28.1062C30.2061 27.3862 31.2844 25.8173 31.2844 24.816C31.2844 24.3354 31.0959 23.8745 30.7603 23.5346C30.4248 23.1948 29.9696 23.0039 29.4951 23.0039Z" fill="url(#paint29_linear)"/>
<path d="M34.9101 23.0039C34.4356 23.0039 33.9805 23.1948 33.6449 23.5346C33.3094 23.8745 33.1208 24.3354 33.1208 24.816C33.1208 25.8173 34.2603 27.453 34.9101 28.1062C35.6211 27.3862 36.6994 25.8173 36.6994 24.816C36.6994 24.3354 36.5109 23.8745 36.1754 23.5346C35.8398 23.1948 35.3847 23.0039 34.9101 23.0039Z" fill="url(#paint30_linear)"/>
<path d="M40.3203 23.0039C39.8457 23.0039 39.3906 23.1948 39.0551 23.5346C38.7195 23.8745 38.531 24.3354 38.531 24.816C38.531 25.8173 39.6752 27.453 40.3203 28.1062C41.0313 27.3862 42.1096 25.8173 42.1096 24.816C42.1096 24.3354 41.9211 23.8745 41.5855 23.5346C41.25 23.1948 40.7948 23.0039 40.3203 23.0039Z" fill="url(#paint31_linear)"/>
<path d="M45.7353 23.0039C45.2608 23.0039 44.8057 23.1948 44.4701 23.5346C44.1346 23.8745 43.946 24.3354 43.946 24.816C43.946 25.8173 45.0902 27.453 45.7353 28.1062C46.4463 27.3862 47.5246 25.8173 47.5246 24.816C47.5246 24.3354 47.3361 23.8745 47.0006 23.5346C46.665 23.1948 46.2099 23.0039 45.7353 23.0039Z" fill="url(#paint32_linear)"/>
<path d="M51.1455 23.0039C50.6709 23.0039 50.2158 23.1948 49.8803 23.5346C49.5447 23.8745 49.3562 24.3354 49.3562 24.816C49.3562 25.8173 50.5004 27.453 51.1455 28.1062C51.8565 27.3862 52.9395 25.8173 52.9395 24.816C52.9382 24.3349 52.7487 23.874 52.4124 23.5344C52.0761 23.1947 51.6205 23.0039 51.1455 23.0039Z" fill="url(#paint33_linear)"/>
<path d="M67.3857 23.0039C66.9112 23.0039 66.4561 23.1948 66.1205 23.5346C65.7849 23.8745 65.5964 24.3354 65.5964 24.816C65.5964 25.8173 66.7406 27.453 67.3857 28.1062C68.0967 27.3862 69.175 25.8173 69.175 24.816C69.175 24.3354 68.9865 23.8745 68.6509 23.5346C68.3154 23.1948 67.8603 23.0039 67.3857 23.0039Z" fill="url(#paint34_linear)"/>
<path d="M7.84471 29.4512C7.60974 29.4512 7.37706 29.498 7.15998 29.5891C6.94289 29.6802 6.74564 29.8136 6.57949 29.9819C6.41334 30.1502 6.28154 30.3499 6.19162 30.5698C6.1017 30.7896 6.05542 31.0253 6.05542 31.2632C6.05542 32.2646 7.19962 33.9002 7.84471 34.5535C8.55571 33.8335 9.634 32.2646 9.634 31.2632C9.634 31.0253 9.58772 30.7896 9.49779 30.5698C9.40787 30.3499 9.27608 30.1502 9.10993 29.9819C8.94378 29.8136 8.74653 29.6802 8.52944 29.5891C8.31235 29.498 8.07968 29.4512 7.84471 29.4512Z" fill="url(#paint35_linear)"/>
<path d="M13.2549 29.4508C13.0199 29.4508 12.7872 29.4977 12.5701 29.5887C12.353 29.6798 12.1558 29.8133 11.9896 29.9815C11.8235 30.1498 11.6917 30.3495 11.6018 30.5694C11.5119 30.7892 11.4656 31.0249 11.4656 31.2628C11.4656 32.2642 12.6098 33.8998 13.2549 34.5531C13.9659 33.8569 15.0677 32.2642 15.0677 31.2628C15.0671 31.023 15.0196 30.7857 14.928 30.5646C14.8364 30.3435 14.7025 30.1429 14.5339 29.9744C14.3654 29.806 14.1656 29.673 13.9461 29.5831C13.7266 29.4932 13.4916 29.4483 13.2549 29.4508Z" fill="url(#paint36_linear)"/>
<path d="M34.9101 29.4512C34.6752 29.4512 34.4425 29.498 34.2254 29.5891C34.0083 29.6802 33.8111 29.8136 33.6449 29.9819C33.4788 30.1502 33.347 30.3499 33.2571 30.5698C33.1671 30.7896 33.1208 31.0253 33.1208 31.2632C33.1208 32.2646 34.2603 33.9002 34.9101 34.5535C35.6211 33.8335 36.6994 32.2646 36.6994 31.2632C36.6994 31.0253 36.6531 30.7896 36.5632 30.5698C36.4733 30.3499 36.3415 30.1502 36.1754 29.9819C36.0092 29.8136 35.812 29.6802 35.5949 29.5891C35.3778 29.498 35.1451 29.4512 34.9101 29.4512Z" fill="url(#paint37_linear)"/>
<path d="M40.3203 29.4512C39.8457 29.4512 39.3906 29.6421 39.0551 29.9819C38.7195 30.3217 38.531 30.7826 38.531 31.2632C38.531 32.2646 39.6752 33.9002 40.3203 34.5535C41.0313 33.8335 42.1096 32.2646 42.1096 31.2632C42.1096 31.0253 42.0633 30.7896 41.9734 30.5698C41.8835 30.3499 41.7517 30.1502 41.5855 29.9819C41.4194 29.8136 41.2221 29.6802 41.005 29.5891C40.7879 29.498 40.5553 29.4512 40.3203 29.4512Z" fill="url(#paint38_linear)"/>
<path d="M51.1455 29.4512C50.9105 29.4512 50.6778 29.498 50.4608 29.5891C50.2437 29.6802 50.0464 29.8136 49.8803 29.9819C49.7141 30.1502 49.5823 30.3499 49.4924 30.5698C49.4025 30.7896 49.3562 31.0253 49.3562 31.2632C49.3562 32.2646 50.5004 33.9002 51.1455 34.5535C51.8565 33.8335 52.9395 32.2646 52.9395 31.2632C52.9382 30.7822 52.7487 30.3213 52.4124 29.9816C52.0761 29.6419 51.6205 29.4512 51.1455 29.4512Z" fill="url(#paint39_linear)"/>
<path d="M7.84471 35.8931C7.36973 35.8943 6.91463 36.0863 6.5792 36.4269C6.24378 36.7675 6.05542 37.2289 6.05542 37.7099C6.05542 38.7113 7.19962 40.3469 7.84471 41.0002C8.55571 40.2801 9.634 38.7113 9.634 37.7099C9.634 37.2289 9.44563 36.7675 9.11021 36.4269C8.77479 36.0863 8.31969 35.8943 7.84471 35.8931Z" fill="url(#paint40_linear)"/>
<defs>
<linearGradient id="paint0_linear" x1="39.7227" y1="0" x2="39.7227" y2="40.6239" gradientUnits="userSpaceOnUse">
<stop stop-color="#028EA4"/>
<stop offset="1" stop-color="#3DBBCE"/>
</linearGradient>
<linearGradient id="paint1_linear" x1="34.9101" y1="3.6626" x2="34.9101" y2="8.76971" gradientUnits="userSpaceOnUse">
<stop stop-color="#198391"/>
<stop offset="1" stop-color="#094C54"/>
</linearGradient>
<linearGradient id="paint2_linear" x1="40.3203" y1="3.6626" x2="40.3203" y2="8.76971" gradientUnits="userSpaceOnUse">
<stop stop-color="#198391"/>
<stop offset="1" stop-color="#094C54"/>
</linearGradient>
<linearGradient id="paint3_linear" x1="24.0942" y1="10.1094" x2="24.0942" y2="15.2167" gradientUnits="userSpaceOnUse">
<stop stop-color="#494949"/>
<stop offset="1" stop-color="#262626"/>
</linearGradient>
<linearGradient id="paint4_linear" x1="29.4951" y1="10.1099" x2="29.4951" y2="15.217" gradientUnits="userSpaceOnUse">
<stop stop-color="#198391"/>
<stop offset="1" stop-color="#094C54"/>
</linearGradient>
<linearGradient id="paint5_linear" x1="34.9101" y1="10.1099" x2="34.9101" y2="15.217" gradientUnits="userSpaceOnUse">
<stop stop-color="#198391"/>
<stop offset="1" stop-color="#094C54"/>
</linearGradient>
<linearGradient id="paint6_linear" x1="40.3203" y1="10.1099" x2="40.3203" y2="15.217" gradientUnits="userSpaceOnUse">
<stop stop-color="#198391"/>
<stop offset="1" stop-color="#094C54"/>
</linearGradient>
<linearGradient id="paint7_linear" x1="45.7353" y1="10.1099" x2="45.7353" y2="15.217" gradientUnits="userSpaceOnUse">
<stop stop-color="#198391"/>
<stop offset="1" stop-color="#094C54"/>
</linearGradient>
<linearGradient id="paint8_linear" x1="51.1478" y1="10.1099" x2="51.1478" y2="15.217" gradientUnits="userSpaceOnUse">
<stop stop-color="#198391"/>
<stop offset="1" stop-color="#094C54"/>
</linearGradient>
<linearGradient id="paint9_linear" x1="56.5603" y1="10.1099" x2="56.5603" y2="15.217" gradientUnits="userSpaceOnUse">
<stop stop-color="#198391"/>
<stop offset="1" stop-color="#094C54"/>
</linearGradient>
<linearGradient id="paint10_linear" x1="2.43909" y1="16.5566" x2="2.43909" y2="21.6638" gradientUnits="userSpaceOnUse">
<stop stop-color="#198391"/>
<stop offset="1" stop-color="#094C54"/>
</linearGradient>
<linearGradient id="paint11_linear" x1="7.84471" y1="16.5566" x2="7.84471" y2="21.6638" gradientUnits="userSpaceOnUse">
<stop stop-color="#494949"/>
<stop offset="1" stop-color="#262626"/>
</linearGradient>
<linearGradient id="paint12_linear" x1="13.2666" y1="16.5566" x2="13.2666" y2="21.6639" gradientUnits="userSpaceOnUse">
<stop stop-color="#198391"/>
<stop offset="1" stop-color="#094C54"/>
</linearGradient>
<linearGradient id="paint13_linear" x1="18.6699" y1="16.5566" x2="18.6699" y2="21.6638" gradientUnits="userSpaceOnUse">
<stop stop-color="#198391"/>
<stop offset="1" stop-color="#094C54"/>
</linearGradient>
<linearGradient id="paint14_linear" x1="24.0824" y1="16.5566" x2="24.0824" y2="21.6638" gradientUnits="userSpaceOnUse">
<stop stop-color="#198391"/>
<stop offset="1" stop-color="#094C54"/>
</linearGradient>
<linearGradient id="paint15_linear" x1="29.4951" y1="16.5566" x2="29.4951" y2="21.6638" gradientUnits="userSpaceOnUse">
<stop stop-color="#198391"/>
<stop offset="1" stop-color="#094C54"/>
</linearGradient>
<linearGradient id="paint16_linear" x1="34.9101" y1="16.5566" x2="34.9101" y2="21.6638" gradientUnits="userSpaceOnUse">
<stop stop-color="#198391"/>
<stop offset="1" stop-color="#094C54"/>
</linearGradient>
<linearGradient id="paint17_linear" x1="40.3203" y1="16.5566" x2="40.3203" y2="21.6638" gradientUnits="userSpaceOnUse">
<stop stop-color="#494949"/>
<stop offset="1" stop-color="#262626"/>
</linearGradient>
<linearGradient id="paint18_linear" x1="45.7353" y1="16.5566" x2="45.7353" y2="21.6638" gradientUnits="userSpaceOnUse">
<stop stop-color="#198391"/>
<stop offset="1" stop-color="#094C54"/>
</linearGradient>
<linearGradient id="paint19_linear" x1="51.1478" y1="16.5566" x2="51.1478" y2="21.6638" gradientUnits="userSpaceOnUse">
<stop stop-color="#494949"/>
<stop offset="1" stop-color="#262626"/>
</linearGradient>
<linearGradient id="paint20_linear" x1="56.5603" y1="16.5566" x2="56.5603" y2="21.6638" gradientUnits="userSpaceOnUse">
<stop stop-color="#198391"/>
<stop offset="1" stop-color="#094C54"/>
</linearGradient>
<linearGradient id="paint21_linear" x1="61.973" y1="16.5566" x2="61.973" y2="21.6638" gradientUnits="userSpaceOnUse">
<stop stop-color="#494949"/>
<stop offset="1" stop-color="#262626"/>
</linearGradient>
<linearGradient id="paint22_linear" x1="67.3857" y1="16.5566" x2="67.3857" y2="21.6638" gradientUnits="userSpaceOnUse">
<stop stop-color="#198391"/>
<stop offset="1" stop-color="#094C54"/>
</linearGradient>
<linearGradient id="paint23_linear" x1="72.7982" y1="16.5566" x2="72.7982" y2="21.6638" gradientUnits="userSpaceOnUse">
<stop stop-color="#198391"/>
<stop offset="1" stop-color="#094C54"/>
</linearGradient>
<linearGradient id="paint24_linear" x1="2.43909" y1="23.0039" x2="2.43909" y2="28.0872" gradientUnits="userSpaceOnUse">
<stop stop-color="#198391"/>
<stop offset="1" stop-color="#094C54"/>
</linearGradient>
<linearGradient id="paint25_linear" x1="7.84471" y1="23.0039" x2="7.84471" y2="28.1062" gradientUnits="userSpaceOnUse">
<stop stop-color="#198391"/>
<stop offset="1" stop-color="#094C54"/>
</linearGradient>
<linearGradient id="paint26_linear" x1="13.2666" y1="23.0039" x2="13.2666" y2="28.1064" gradientUnits="userSpaceOnUse">
<stop stop-color="#198391"/>
<stop offset="1" stop-color="#094C54"/>
</linearGradient>
<linearGradient id="paint27_linear" x1="18.6699" y1="23.0039" x2="18.6699" y2="28.1062" gradientUnits="userSpaceOnUse">
<stop stop-color="#494949"/>
<stop offset="1" stop-color="#262626"/>
</linearGradient>
<linearGradient id="paint28_linear" x1="24.0824" y1="23.0039" x2="24.0824" y2="28.0872" gradientUnits="userSpaceOnUse">
<stop stop-color="#198391"/>
<stop offset="1" stop-color="#094C54"/>
</linearGradient>
<linearGradient id="paint29_linear" x1="29.4951" y1="23.0039" x2="29.4951" y2="28.1062" gradientUnits="userSpaceOnUse">
<stop stop-color="#494949"/>
<stop offset="1" stop-color="#262626"/>
</linearGradient>
<linearGradient id="paint30_linear" x1="34.9101" y1="23.0039" x2="34.9101" y2="28.1062" gradientUnits="userSpaceOnUse">
<stop stop-color="#198391"/>
<stop offset="1" stop-color="#094C54"/>
</linearGradient>
<linearGradient id="paint31_linear" x1="40.3203" y1="23.0039" x2="40.3203" y2="28.1062" gradientUnits="userSpaceOnUse">
<stop stop-color="#198391"/>
<stop offset="1" stop-color="#094C54"/>
</linearGradient>
<linearGradient id="paint32_linear" x1="45.7353" y1="23.0039" x2="45.7353" y2="28.1062" gradientUnits="userSpaceOnUse">
<stop stop-color="#198391"/>
<stop offset="1" stop-color="#094C54"/>
</linearGradient>
<linearGradient id="paint33_linear" x1="51.1478" y1="23.0039" x2="51.1478" y2="28.1062" gradientUnits="userSpaceOnUse">
<stop stop-color="#198391"/>
<stop offset="1" stop-color="#094C54"/>
</linearGradient>
<linearGradient id="paint34_linear" x1="67.3857" y1="23.0039" x2="67.3857" y2="28.1062" gradientUnits="userSpaceOnUse">
<stop stop-color="#198391"/>
<stop offset="1" stop-color="#094C54"/>
</linearGradient>
<linearGradient id="paint35_linear" x1="7.84471" y1="29.4512" x2="7.84471" y2="34.5535" gradientUnits="userSpaceOnUse">
<stop stop-color="#494949"/>
<stop offset="1" stop-color="#262626"/>
</linearGradient>
<linearGradient id="paint36_linear" x1="13.2666" y1="29.4507" x2="13.2666" y2="34.5531" gradientUnits="userSpaceOnUse">
<stop stop-color="#198391"/>
<stop offset="1" stop-color="#094C54"/>
</linearGradient>
<linearGradient id="paint37_linear" x1="34.9101" y1="29.4512" x2="34.9101" y2="34.5535" gradientUnits="userSpaceOnUse">
<stop stop-color="#494949"/>
<stop offset="1" stop-color="#262626"/>
</linearGradient>
<linearGradient id="paint38_linear" x1="40.3203" y1="29.4512" x2="40.3203" y2="34.5535" gradientUnits="userSpaceOnUse">
<stop stop-color="#198391"/>
<stop offset="1" stop-color="#094C54"/>
</linearGradient>
<linearGradient id="paint39_linear" x1="51.1478" y1="29.4512" x2="51.1478" y2="34.5535" gradientUnits="userSpaceOnUse">
<stop stop-color="#198391"/>
<stop offset="1" stop-color="#094C54"/>
</linearGradient>
<linearGradient id="paint40_linear" x1="7.84471" y1="35.8931" x2="7.84471" y2="41.0002" gradientUnits="userSpaceOnUse">
<stop stop-color="#198391"/>
<stop offset="1" stop-color="#094C54"/>
</linearGradient>
</defs>
</svg>
