<svg width="40" height="52" viewBox="0 0 40 52" fill="none" xmlns="http://www.w3.org/2000/svg">
<g clip-path="url(#clip0)">
<path opacity="0.6" d="M19.6531 52.0003C30.5072 52.0003 39.3062 43.1268 39.3062 32.1808C39.3062 21.2348 30.5072 12.3613 19.6531 12.3613C8.79899 12.3613 0 21.2348 0 32.1808C0 43.1268 8.79899 52.0003 19.6531 52.0003Z" fill="url(#paint0_linear)"/>
<path d="M1.48877 22.8856C2.88793 25.7782 4.96909 28.2807 7.54996 30.1739C7.76478 30.3048 7.94628 30.4845 8.07996 30.6987C8.20245 31.1248 8.18726 31.5792 8.03659 31.996C7.89807 32.7845 8.05982 33.5966 8.4895 34.27C8.94722 34.9842 9.63621 35.4701 10.2192 36.0678C10.8022 36.6654 11.2262 37.5254 10.9467 38.3369C10.7926 38.7839 10.4264 39.158 10.4071 39.6245C10.3782 40.329 11.0816 40.776 11.5635 41.3008C12.0874 42.0388 12.3931 42.9116 12.4452 43.8177C12.4937 44.3722 12.6303 44.9153 12.8499 45.426C12.9641 45.6798 13.1411 45.8998 13.3638 46.0648C13.5865 46.2299 13.8476 46.3345 14.1219 46.3686C14.4423 46.3533 14.7509 46.2421 15.0084 46.0491C15.2658 45.8561 15.4604 45.5901 15.5673 45.2851C15.7715 44.6708 15.8517 44.0216 15.8034 43.3756C15.7924 43.2014 15.8136 43.0268 15.866 42.8605C16.0732 42.326 16.7911 42.2726 17.3452 42.2726C17.8993 42.2726 18.6509 42.0977 18.7521 41.5243C18.8292 41.1064 18.4967 40.7323 18.3377 40.3339C17.9089 39.2455 18.7906 38.1134 19.6097 37.2825L22.2308 34.6101C22.7704 34.061 23.3486 33.4148 23.31 32.6422C23.2612 32.3028 23.1325 31.9801 22.9347 31.7012C22.7369 31.4222 22.4757 31.1951 22.173 31.0388C21.4136 30.5801 20.5302 30.3744 19.6483 30.4509C18.5353 30.548 17.2681 31.0582 16.396 30.3537C15.601 29.7075 15.6733 28.4393 15.0518 27.6278C14.3483 26.7095 13.0378 26.6561 11.9007 26.4909C10.4344 26.2867 9.02271 25.7913 7.7475 25.0332C7.33796 24.7902 6.88506 24.3384 7.09224 23.9059C7.20546 23.7248 7.37484 23.5864 7.57405 23.5123C8.4335 23.0959 9.37655 22.8847 10.33 22.8953C11.1684 22.8953 12.1994 23.0119 12.6668 22.3073C12.7627 22.1027 12.8824 21.9102 13.0233 21.734C13.3895 21.3793 13.9725 21.5542 14.4543 21.5736C14.8397 21.5697 15.218 21.4685 15.5547 21.2792C15.8913 21.0899 16.1756 20.8186 16.3816 20.4901C16.7848 19.8277 16.9998 19.0663 17.0031 18.289C17.0376 17.206 16.8359 16.1285 16.4121 15.1328C15.9883 14.137 15.3529 13.2473 14.5507 12.5264C12.0886 13.4981 9.44348 14.5963 7.41505 16.3163C6.5997 17.0373 5.82896 17.8081 5.10718 18.6243L3.24256 20.6456C2.56022 21.3088 1.97024 22.0624 1.48877 22.8856Z" fill="#9b0030"/>
<path d="M19.3157 14.6497C19.5276 15.1121 19.8253 15.5294 20.1926 15.879C20.3755 16.0542 20.5953 16.1855 20.8356 16.2629C21.0759 16.3403 21.3305 16.3619 21.5802 16.326C22.042 16.207 22.4437 15.9196 22.7077 15.5194C23.3018 14.6001 23.661 13.5468 23.7532 12.4535C22.3897 12.2931 20.8623 11.9919 19.4651 12.1231C18.7038 12.1959 18.6604 12.0988 18.7086 12.9539C18.7986 13.5539 19.0049 14.1301 19.3157 14.6497Z" fill="#9b0030"/>
<path d="M24.77 17.711C24.4682 17.971 24.2683 18.3311 24.2063 18.7265C24.2386 18.9915 24.3471 19.2413 24.5183 19.445C24.6895 19.6487 24.916 19.7976 25.1699 19.8732C25.8846 20.1747 26.6796 20.2227 27.4248 20.0093C27.8536 19.8829 28.2583 19.6691 28.692 19.5574C29.6556 19.3096 30.7059 19.5962 31.7226 19.6351C32.7392 19.674 33.9244 19.3241 34.2617 18.3572C34.4352 17.8713 29.8435 14.6936 29.275 14.4701C27.7428 13.8336 25.7433 16.6469 24.77 17.711Z" fill="#9b0030"/>
<path d="M33.7653 26.5978C32.7053 26.3694 31.6453 26.0001 30.5709 26.141C29.8178 26.2612 29.1078 26.5741 28.5087 27.0497C27.5066 27.8125 26.7019 29.0272 26.8947 30.2808C27.0778 31.4421 28.0655 32.3167 29.1062 32.8512C30.1469 33.3857 31.3032 33.6821 32.3054 34.3089C32.7908 34.5495 33.1702 34.9634 33.3702 35.4701C33.4481 35.9116 33.4167 36.3656 33.2787 36.7918C32.89 38.2474 32.816 39.7702 33.0619 41.2571C33.1907 41.998 33.4931 42.6971 33.944 43.2964C34.3949 43.8956 34.9811 44.3775 35.654 44.7021C37.4271 42.6127 40.7998 35.99 39.8024 30.3829C39.6241 29.3771 39.494 27.5598 38.4871 26.9816C37.9185 26.6561 37.1621 26.8553 36.5598 26.865C35.6214 26.8805 34.6841 26.7909 33.7653 26.5978Z" fill="#9b0030"/>
<path d="M11.2263 6.08323C10.8824 5.6834 10.4544 5.366 9.97347 5.15417C9.49253 4.94234 8.97077 4.84143 8.44623 4.85879C7.92284 4.83963 7.40178 4.93827 6.92091 5.14755C6.44004 5.35682 6.01142 5.67147 5.66618 6.06865C4.11475 7.91018 4.59656 11.1754 4.61583 11.3017C4.63197 11.4067 4.66844 11.5074 4.72318 11.5981C4.77792 11.6889 4.84984 11.7679 4.93485 11.8306C5.01986 11.8933 5.11628 11.9385 5.21861 11.9637C5.32095 11.9888 5.42719 11.9934 5.53127 11.9771C5.63536 11.9608 5.73524 11.924 5.82523 11.8688C5.91521 11.8136 5.99354 11.7411 6.05573 11.6554C6.11792 11.5696 6.16275 11.4724 6.18768 11.3692C6.2126 11.266 6.21713 11.1589 6.20099 11.0539C6.09981 10.3931 6.01309 8.60014 6.64426 7.48259V18.6046C6.64426 18.8185 6.72852 19.0237 6.87852 19.175C7.02851 19.3262 7.23194 19.4112 7.44407 19.4112C7.65619 19.4112 7.85962 19.3262 8.00961 19.175C8.15961 19.0237 8.24387 18.8185 8.24387 18.6046V12.8808C8.24387 12.8808 8.24387 12.7885 8.4366 12.7885C8.62932 12.7885 8.65341 12.8808 8.65341 12.8808V18.6046C8.65341 18.8185 8.73768 19.0237 8.88767 19.175C9.03766 19.3262 9.2411 19.4112 9.45322 19.4112C9.66534 19.4112 9.86878 19.3262 10.0188 19.175C10.1688 19.0237 10.253 18.8185 10.253 18.6046V7.48259C10.8794 8.60014 10.7975 10.3979 10.6963 11.0539C10.6798 11.1585 10.6839 11.2654 10.7084 11.3685C10.7329 11.4715 10.7773 11.5687 10.8391 11.6544C10.9008 11.7401 10.9787 11.8128 11.0683 11.8681C11.1579 11.9235 11.2574 11.9605 11.3612 11.9771H11.4865C11.6776 11.977 11.8624 11.9078 12.0074 11.7821C12.1523 11.6564 12.2478 11.4826 12.2766 11.292C12.2959 11.1754 12.7777 7.91018 11.2263 6.08323Z" fill="url(#paint1_linear)"/>
<path d="M6.48515 2.99815H7.1115C7.1115 3.3564 7.25262 3.69998 7.50382 3.95329C7.75501 4.20661 8.0957 4.34893 8.45094 4.34893C8.80618 4.34893 9.14687 4.20661 9.39806 3.95329C9.64926 3.69998 9.79038 3.3564 9.79038 2.99815H10.4071C10.4492 3.00358 10.4919 2.9999 10.5325 2.98736C10.5731 2.97482 10.6105 2.95372 10.6423 2.92544C10.6742 2.89717 10.6997 2.86239 10.7172 2.8234C10.7346 2.78441 10.7437 2.74212 10.7437 2.69933C10.7437 2.65655 10.7346 2.61425 10.7172 2.57526C10.6997 2.53627 10.6742 2.50149 10.6423 2.47322C10.6105 2.44494 10.5731 2.42384 10.5325 2.4113C10.4919 2.39876 10.4492 2.39508 10.4071 2.40051H9.92528C9.82405 2.08188 9.62507 1.80392 9.35706 1.60671C9.08905 1.40949 8.76585 1.30322 8.43408 1.30322C8.1023 1.30322 7.7791 1.40949 7.51109 1.60671C7.24308 1.80392 7.04411 2.08188 6.94287 2.40051H6.46106C6.38897 2.4098 6.32272 2.44526 6.2747 2.50027C6.22668 2.55528 6.2002 2.62605 6.2002 2.69933C6.2002 2.77261 6.22668 2.84339 6.2747 2.89839C6.32272 2.9534 6.38897 2.98886 6.46106 2.99815H6.48515Z" fill="url(#paint2_linear)"/>
<path d="M33.245 4.77664C32.8853 4.39893 32.4536 4.09842 31.9759 3.89313C31.4982 3.68785 30.9842 3.58203 30.4649 3.58203C29.9456 3.58203 29.4317 3.68785 28.954 3.89313C28.4762 4.09842 28.0446 4.39893 27.6849 4.77664C26.1334 6.60359 26.6104 9.85906 26.6345 9.99997C26.6706 10.2081 26.7862 10.3936 26.9565 10.5167C27.1269 10.6398 27.3382 10.6905 27.5453 10.6581C27.7523 10.6256 27.9384 10.5125 28.0636 10.3431C28.1889 10.1737 28.2432 9.96152 28.2149 9.75216C28.1137 9.09135 28.0318 7.29841 28.6581 6.18087V17.3029C28.6581 17.5168 28.7424 17.722 28.8924 17.8732C29.0424 18.0245 29.2458 18.1095 29.4579 18.1095C29.6701 18.1095 29.8735 18.0245 30.0235 17.8732C30.1735 17.722 30.2578 17.5168 30.2578 17.3029V11.5743C30.2578 11.5743 30.2578 11.4868 30.4553 11.4868C30.6528 11.4868 30.6673 11.5743 30.6673 11.5743V17.3029C30.6673 17.5168 30.7516 17.722 30.9016 17.8732C31.0515 18.0245 31.255 18.1095 31.4671 18.1095C31.6792 18.1095 31.8827 18.0245 32.0326 17.8732C32.1826 17.722 32.2669 17.5168 32.2669 17.3029V6.18087C32.8933 7.29841 32.8114 9.09621 32.7102 9.75216C32.6917 9.8586 32.6946 9.9677 32.7187 10.073C32.7428 10.1783 32.7876 10.2776 32.8505 10.3651C32.9135 10.4526 32.9932 10.5264 33.0849 10.5822C33.1767 10.638 33.2786 10.6746 33.3847 10.6899H33.51C33.7001 10.6908 33.8843 10.6225 34.0285 10.4976C34.1728 10.3726 34.2675 10.1994 34.2953 10.0097C34.3194 9.85906 34.8012 6.60359 33.245 4.77664Z" fill="url(#paint3_linear)"/>
<path d="M28.5039 1.69105H29.1302C29.1302 2.0493 29.2713 2.39287 29.5225 2.64619C29.7737 2.89951 30.1144 3.04182 30.4696 3.04182C30.8249 3.04182 31.1656 2.89951 31.4168 2.64619C31.668 2.39287 31.8091 2.0493 31.8091 1.69105H32.4306C32.5086 1.69105 32.5833 1.65982 32.6384 1.60424C32.6936 1.54865 32.7245 1.47326 32.7245 1.39465C32.7245 1.31605 32.6936 1.24066 32.6384 1.18507C32.5833 1.12949 32.5086 1.09826 32.4306 1.09826H31.9488C31.8476 0.779637 31.6486 0.501673 31.3806 0.30446C31.1126 0.107247 30.7894 0.000976563 30.4576 0.000976562C30.1258 0.000976563 29.8026 0.107247 29.5346 0.30446C29.2666 0.501673 29.0676 0.779637 28.9664 1.09826H28.4846C28.446 1.09826 28.4078 1.10593 28.3721 1.12082C28.3364 1.13572 28.304 1.15755 28.2768 1.18507C28.2495 1.2126 28.2278 1.24527 28.213 1.28123C28.1983 1.31719 28.1907 1.35573 28.1907 1.39465C28.1907 1.43358 28.1983 1.47212 28.213 1.50808C28.2278 1.54404 28.2495 1.57671 28.2768 1.60424C28.304 1.63176 28.3364 1.65359 28.3721 1.66849C28.4078 1.68338 28.446 1.69105 28.4846 1.69105H28.5039Z" fill="url(#paint4_linear)"/>
<path d="M17.3983 24.1879C17.0523 23.7919 16.6235 23.4783 16.1427 23.2699C15.6619 23.0615 15.1412 22.9635 14.6182 22.9829C14.096 22.9639 13.5761 23.0621 13.0961 23.2705C12.6162 23.4789 12.1881 23.7922 11.843 24.1879C10.2867 26.0148 10.7685 29.2703 10.7926 29.4112C10.8265 29.6226 10.9422 29.8117 11.1143 29.937C11.2865 30.0623 11.5009 30.1135 11.7105 30.0793C11.92 30.0452 12.1076 29.9285 12.2318 29.7549C12.356 29.5813 12.4068 29.365 12.373 29.1537C12.2718 28.4929 12.1899 26.6999 12.8162 25.5824V36.7093C12.8162 36.9232 12.9005 37.1284 13.0505 37.2796C13.2005 37.4309 13.4039 37.5159 13.616 37.5159C13.8282 37.5159 14.0316 37.4309 14.1816 37.2796C14.3316 37.1284 14.4158 36.9232 14.4158 36.7093V30.9855C14.4158 30.9855 14.4158 30.898 14.6134 30.898C14.8109 30.898 14.8254 30.9855 14.8254 30.9855V36.7093C14.8254 36.9232 14.9096 37.1284 15.0596 37.2796C15.2096 37.4309 15.4131 37.5159 15.6252 37.5159C15.8373 37.5159 16.0407 37.4309 16.1907 37.2796C16.3407 37.1284 16.425 36.9232 16.425 36.7093V25.5921C17.0513 26.7097 16.9694 28.5075 16.8683 29.1634C16.8365 29.3747 16.8891 29.5901 17.0147 29.7623C17.1403 29.9345 17.3285 30.0494 17.538 30.0817H17.6584C17.8492 30.0828 18.0339 30.0147 18.1789 29.8898C18.324 29.7649 18.4197 29.5916 18.4486 29.4015C18.4727 29.2703 18.9497 26.0148 17.3983 24.1879Z" fill="url(#paint5_linear)"/>
<path d="M12.6572 21.1022H13.2835C13.2835 21.4604 13.4246 21.804 13.6758 22.0573C13.927 22.3106 14.2677 22.453 14.623 22.453C14.9782 22.453 15.3189 22.3106 15.5701 22.0573C15.8213 21.804 15.9624 21.4604 15.9624 21.1022H16.5839C16.6619 21.1022 16.7366 21.071 16.7918 21.0154C16.8469 20.9598 16.8778 20.8844 16.8778 20.8058C16.8778 20.7272 16.8469 20.6518 16.7918 20.5962C16.7366 20.5406 16.6619 20.5094 16.5839 20.5094H16.1021C16.0009 20.1908 15.8019 19.9128 15.5339 19.7156C15.2659 19.5184 14.9427 19.4121 14.6109 19.4121C14.2791 19.4121 13.9559 19.5184 13.6879 19.7156C13.4199 19.9128 13.2209 20.1908 13.1197 20.5094H12.6379C12.56 20.5094 12.4852 20.5406 12.4301 20.5962C12.375 20.6518 12.344 20.7272 12.344 20.8058C12.344 20.8844 12.375 20.9598 12.4301 21.0154C12.4852 21.071 12.56 21.1022 12.6379 21.1022H12.6572Z" fill="url(#paint6_linear)"/>
<path d="M37.162 26.5347C36.8046 26.1541 36.3739 25.8509 35.8963 25.6437C35.4187 25.4365 34.9043 25.3296 34.3844 25.3296C33.8645 25.3296 33.3501 25.4365 32.8725 25.6437C32.3949 25.8509 31.9642 26.1541 31.6068 26.5347C30.0553 28.3617 30.5323 31.6172 30.5564 31.7581C30.5925 31.9662 30.7081 32.1517 30.8784 32.2748C31.0487 32.3979 31.2601 32.4486 31.4672 32.4162C31.6742 32.3837 31.8603 32.2706 31.9855 32.1012C32.1107 31.9318 32.165 31.7196 32.1367 31.5103C32.0356 30.8494 31.9537 29.0808 32.58 27.939V39.061C32.58 39.1669 32.6007 39.2718 32.6409 39.3697C32.6811 39.4675 32.74 39.5564 32.8143 39.6313C32.8885 39.7062 32.9767 39.7656 33.0737 39.8062C33.1708 39.8467 33.2748 39.8676 33.3798 39.8676C33.4849 39.8676 33.5889 39.8467 33.6859 39.8062C33.7829 39.7656 33.8711 39.7062 33.9454 39.6313C34.0196 39.5564 34.0786 39.4675 34.1187 39.3697C34.1589 39.2718 34.1796 39.1669 34.1796 39.061V33.3323C34.1796 33.3323 34.1796 33.2449 34.3772 33.2449C34.5747 33.2449 34.5892 33.3323 34.5892 33.3323V39.061C34.5892 39.2749 34.6734 39.4801 34.8234 39.6313C34.9734 39.7826 35.1769 39.8676 35.389 39.8676C35.6011 39.8676 35.8045 39.7826 35.9545 39.6313C36.1045 39.4801 36.1888 39.2749 36.1888 39.061V27.939C36.8151 29.0565 36.7332 30.8543 36.6321 31.5103C36.6002 31.7216 36.6529 31.937 36.7785 32.1092C36.9041 32.2814 37.0923 32.3962 37.3018 32.4286C37.3418 32.4334 37.3822 32.4334 37.4222 32.4286C37.6129 32.4296 37.7977 32.3615 37.9427 32.2366C38.0878 32.1118 38.1835 31.9385 38.2124 31.7483C38.2365 31.6172 38.7135 28.3617 37.162 26.5347Z" fill="url(#paint7_linear)"/>
<path d="M32.4211 23.4493H33.0474C33.0474 23.8076 33.1886 24.1512 33.4398 24.4045C33.6909 24.6578 34.0316 24.8001 34.3869 24.8001C34.7421 24.8001 35.0828 24.6578 35.334 24.4045C35.5852 24.1512 35.7263 23.8076 35.7263 23.4493H36.3478C36.4258 23.4493 36.5006 23.4181 36.5557 23.3625C36.6108 23.307 36.6418 23.2316 36.6418 23.153C36.6418 23.0743 36.6108 22.999 36.5557 22.9434C36.5006 22.8878 36.4258 22.8566 36.3478 22.8566H35.866C35.7648 22.5379 35.5658 22.26 35.2978 22.0628C35.0298 21.8655 34.7066 21.7593 34.3748 21.7593C34.0431 21.7593 33.7199 21.8655 33.4518 22.0628C33.1838 22.26 32.9849 22.5379 32.8836 22.8566H32.4018C32.3239 22.8566 32.2491 22.8878 32.194 22.9434C32.1389 22.999 32.1079 23.0743 32.1079 23.153C32.1079 23.2316 32.1389 23.307 32.194 23.3625C32.2491 23.4181 32.3239 23.4493 32.4018 23.4493H32.4211Z" fill="url(#paint8_linear)"/>
</g>
<defs>
<linearGradient id="paint0_linear" x1="19.6531" y1="12.3613" x2="19.6531" y2="52.0003" gradientUnits="userSpaceOnUse">
<stop stop-color="#9b0030"/>
<stop offset="1" stop-color="#cf0040"/>
</linearGradient>
<linearGradient id="paint1_linear" x1="8.44623" y1="4.85645" x2="8.44623" y2="19.4112" gradientUnits="userSpaceOnUse">
<stop stop-color="#cf0040"/>
<stop offset="1" stop-color="#9b0030"/>
</linearGradient>
<linearGradient id="paint2_linear" x1="8.47194" y1="1.30322" x2="8.47194" y2="4.34893" gradientUnits="userSpaceOnUse">
<stop stop-color="#cf0040"/>
<stop offset="1" stop-color="#9b0030"/>
</linearGradient>
<linearGradient id="paint3_linear" x1="30.4656" y1="3.58203" x2="30.4656" y2="18.1095" gradientUnits="userSpaceOnUse">
<stop stop-color="#cf0040"/>
<stop offset="1" stop-color="#9b0030"/>
</linearGradient>
<linearGradient id="paint4_linear" x1="30.4576" y1="0.000976562" x2="30.4576" y2="3.04182" gradientUnits="userSpaceOnUse">
<stop stop-color="#cf0040"/>
<stop offset="1" stop-color="#9b0030"/>
</linearGradient>
<linearGradient id="paint5_linear" x1="14.6199" y1="22.9805" x2="14.6199" y2="37.5159" gradientUnits="userSpaceOnUse">
<stop stop-color="#cf0040"/>
<stop offset="1" stop-color="#9b0030"/>
</linearGradient>
<linearGradient id="paint6_linear" x1="14.6109" y1="19.4121" x2="14.6109" y2="22.453" gradientUnits="userSpaceOnUse">
<stop stop-color="#cf0040"/>
<stop offset="1" stop-color="#9b0030"/>
</linearGradient>
<linearGradient id="paint7_linear" x1="34.3844" y1="25.3296" x2="34.3844" y2="39.8676" gradientUnits="userSpaceOnUse">
<stop stop-color="#cf0040"/>
<stop offset="1" stop-color="#9b0030"/>
</linearGradient>
<linearGradient id="paint8_linear" x1="34.3748" y1="21.7593" x2="34.3748" y2="24.8001" gradientUnits="userSpaceOnUse">
<stop stop-color="#cf0040"/>
<stop offset="1" stop-color="#9b0030"/>
</linearGradient>
<clipPath id="clip0">
<rect width="40" height="52" fill="white"/>
</clipPath>
</defs>
</svg>
