<svg width="52" height="44" viewBox="0 0 52 44" fill="none" xmlns="http://www.w3.org/2000/svg">
<g opacity="0.6">
<path d="M6.18561 43.9162C6.55887 43.9052 6.9128 43.7455 7.17049 43.4716C7.42819 43.1978 7.56885 42.832 7.5619 42.4537V22.3392C7.55207 21.9875 7.4651 21.6423 7.3073 21.3288C7.14949 21.0153 6.9248 20.7414 6.64953 20.5268C5.10314 19.2785 5.17015 17.9152 5.17015 17.9152V13.8934L5.31963 13.6061C5.31963 13.6061 5.31963 13.0838 5.28355 12.1436C5.24747 11.2034 2.36087 11.2139 2.2887 12.1436C2.2482 12.6299 2.23615 13.1183 2.25262 13.6061L2.40211 13.8934V17.9048C2.40211 17.9048 2.46912 19.2785 0.922724 20.5163C0.639324 20.7067 0.406777 20.9651 0.245794 21.2686C0.0848114 21.572 0.000388608 21.9111 4.41e-05 22.2557V42.4537C-0.00288095 42.8317 0.139805 43.196 0.397773 43.4691C0.65574 43.7422 1.00865 43.9026 1.38149 43.9162C1.38149 43.9162 2.27839 43.9997 3.71654 43.9997C5.36087 43.9997 6.18561 43.9162 6.18561 43.9162Z" fill="url(#paint0_linear)"/>
<path d="M16.4641 43.9162C16.8373 43.9052 17.1912 43.7455 17.4489 43.4716C17.7066 43.1978 17.8473 42.832 17.8403 42.4537V22.3392C17.8305 21.9875 17.7435 21.6423 17.5857 21.3288C17.4279 21.0153 17.2032 20.7414 16.928 20.5268C15.3816 19.2785 15.4486 17.9152 15.4486 17.9152V13.8934L15.5981 13.6061C15.5981 13.6061 15.5981 13.0838 15.562 12.1436C15.5259 11.2034 12.6393 11.2139 12.5671 12.1436C12.5266 12.6299 12.5146 13.1183 12.5311 13.6061L12.6805 13.8934V17.9048C12.6805 17.9048 12.7476 19.2785 11.2012 20.5163C10.9235 20.7103 10.697 20.9702 10.5415 21.2735C10.386 21.5767 10.3063 21.914 10.3094 22.2557V42.4537C10.3064 42.8308 10.4484 43.1944 10.7053 43.4673C10.9622 43.7403 11.3138 43.9012 11.6857 43.9162C11.6857 43.9162 12.5878 43.9997 14.0208 43.9997C15.6496 43.9997 16.4641 43.9162 16.4641 43.9162Z" fill="url(#paint1_linear)"/>
<path d="M26.7475 43.9162C27.1213 43.9052 27.4757 43.7457 27.7342 43.472C27.9927 43.1983 28.1346 42.8325 28.129 42.4537V22.3392C28.1192 21.9875 28.0322 21.6423 27.8744 21.3288C27.7166 21.0153 27.4919 20.7414 27.2166 20.5268C25.6702 19.2785 25.7372 17.9152 25.7372 17.9152V13.8934L25.8867 13.6061C25.8867 13.6061 25.8867 13.0838 25.8506 12.1436C25.8146 11.2034 22.928 11.2139 22.8558 12.1436C22.8153 12.6299 22.8032 13.1183 22.8197 13.6061L22.9692 13.8934V17.9048C22.9692 17.9048 23.0362 19.2785 21.4898 20.5163C21.2098 20.7069 20.9801 20.9642 20.8211 21.2656C20.662 21.567 20.5783 21.9034 20.5774 22.2452V42.4537C20.5745 42.8308 20.7164 43.1944 20.9733 43.4673C21.2302 43.7403 21.5818 43.9012 21.9537 43.9162C21.9537 43.9162 22.8558 43.9997 24.2888 43.9997C25.9331 43.9997 26.7475 43.9162 26.7475 43.9162Z" fill="url(#paint2_linear)"/>
<path d="M37.0362 43.9162C37.4094 43.9039 37.7631 43.7439 38.0214 43.4705C38.2796 43.1971 38.4218 42.8321 38.4176 42.4537V22.3392C38.4078 21.9875 38.3208 21.6423 38.163 21.3288C38.0052 21.0153 37.7805 20.7414 37.5052 20.5268C35.9588 19.2785 36.0259 17.9152 36.0259 17.9152V13.8934L36.1753 13.6061C36.1753 13.6061 36.1753 13.0838 36.1341 12.1436C36.0929 11.2034 33.2166 11.2139 33.1444 12.1436C33.1039 12.6299 33.0919 13.1183 33.1083 13.6061L33.2578 13.8934V17.9048C33.2578 17.9048 33.3248 19.2785 31.7784 20.5163C31.4984 20.7069 31.2688 20.9642 31.1097 21.2656C30.9506 21.567 30.867 21.9034 30.8661 22.2452V42.4537C30.8618 42.8312 31.0033 43.1955 31.2605 43.4687C31.5176 43.742 31.87 43.9026 32.2423 43.9162C32.2423 43.9162 33.1444 43.9997 34.5774 43.9997C36.2217 43.9997 37.0362 43.9162 37.0362 43.9162Z" fill="url(#paint3_linear)"/>
</g>
<path d="M50.1342 43.8743C52.0981 43.5923 52.0001 41.8895 52.0001 41.8895V14.729C51.9866 14.2532 51.8685 13.7864 51.6545 13.3626C51.4405 12.9389 51.136 12.5688 50.763 12.2793C48.7012 10.5975 48.763 8.73281 48.763 8.73281V3.31115L48.9692 2.91942C48.9692 2.91942 48.9692 2.1934 48.9177 0.945058C48.8661 -0.30328 44.9692 -0.313727 44.8764 0.945058C44.8273 1.60197 44.817 2.26126 44.8455 2.91942L45.0465 3.31115V8.72758C45.0465 8.72758 45.1342 10.5923 43.0465 12.2741C42.6646 12.5328 42.3508 12.8822 42.1325 13.2919C41.9141 13.7015 41.7979 14.159 41.7939 14.6245V41.9052C41.7935 42.4133 41.9869 42.9019 42.3337 43.2688C42.6805 43.6358 43.1538 43.8527 43.6548 43.8743C43.6548 43.8743 44.8764 43.984 46.8094 43.984C49.0362 43.9997 50.1342 43.8743 50.1342 43.8743Z" fill="url(#paint4_linear)"/>
<defs>
<linearGradient id="paint0_linear" x1="3.60825" y1="12.5355" x2="-6.79872" y2="39.9195" gradientUnits="userSpaceOnUse">
<stop stop-color="#9b0030"/>
<stop offset="1" stop-color="#cf0040"/>
</linearGradient>
<linearGradient id="paint1_linear" x1="14.075" y1="11.4424" x2="14.075" y2="43.9997" gradientUnits="userSpaceOnUse">
<stop stop-color="#9b0030"/>
<stop offset="1" stop-color="#cf0040"/>
</linearGradient>
<linearGradient id="paint2_linear" x1="24.3533" y1="11.4424" x2="24.3533" y2="43.9997" gradientUnits="userSpaceOnUse">
<stop stop-color="#9b0030"/>
<stop offset="1" stop-color="#cf0040"/>
</linearGradient>
<linearGradient id="paint3_linear" x1="34.6418" y1="11.4424" x2="34.6418" y2="43.9997" gradientUnits="userSpaceOnUse">
<stop stop-color="#9b0030"/>
<stop offset="1" stop-color="#cf0040"/>
</linearGradient>
<linearGradient id="paint4_linear" x1="46.8974" y1="0.00488281" x2="46.8974" y2="43.9853" gradientUnits="userSpaceOnUse">
<stop stop-color="#cf0040"/>
<stop offset="1" stop-color="#9b0030"/>
</linearGradient>
</defs>
</svg>
