<svg width="43" height="52" viewBox="0 0 43 52" fill="none" xmlns="http://www.w3.org/2000/svg">
<path d="M24.6952 27.9618H20.9236V17.6615L20.9569 15.9592L21.0169 14.104C20.3905 14.729 19.9574 15.1413 19.6842 15.3408L17.6385 16.9833L15.8193 14.7157L21.57 10.1475H24.6686L24.6952 27.9618Z" fill="url(#paint0_linear)"/>
<path d="M27.0141 37.3643C26.7276 37.3111 26.2944 37.2513 25.8746 37.1382C25.6318 37.0519 25.3699 37.0335 25.1174 37.0851C24.8649 37.1367 24.6313 37.2562 24.442 37.4308C23.6054 38.0855 22.5731 38.4413 21.51 38.4413C20.4469 38.4413 19.4145 38.0855 18.578 37.4308C18.398 37.2545 18.1716 37.1329 17.9251 37.0799C17.6786 37.0269 17.4221 37.0448 17.1853 37.1316C16.1619 37.4613 15.0538 37.4131 14.063 36.9956C13.0722 36.5782 12.2648 35.8193 11.7878 34.8574C11.666 34.6222 11.48 34.4262 11.2512 34.2921C11.0224 34.1579 10.7603 34.0911 10.4951 34.0993C9.49961 33.9964 8.56819 33.5607 7.85207 32.863C7.13596 32.1653 6.6772 31.2465 6.55028 30.2559C6.5352 29.9514 6.43973 29.6564 6.27356 29.4007C6.10739 29.1449 5.87642 28.9376 5.60406 28.7996C4.7187 28.3154 4.02622 27.5433 3.64189 26.6117C3.25756 25.6801 3.20455 24.6452 3.49171 23.6794C3.58436 23.4039 3.60421 23.1092 3.54935 22.8238C3.49449 22.5384 3.36676 22.272 3.17852 22.0502C2.52872 21.2686 2.16975 20.2867 2.16247 19.2712C2.15518 18.2556 2.50002 17.2687 3.13854 16.4779C3.32743 16.2485 3.45568 15.9756 3.51156 15.684C3.56744 15.3924 3.54916 15.0915 3.45839 14.8088C3.17374 13.8346 3.23515 12.7921 3.63223 11.8578C4.0293 10.9236 4.73764 10.1549 5.63738 9.68195C5.8993 9.55497 6.12151 9.35905 6.28004 9.11531C6.43857 8.87156 6.5274 8.58925 6.53696 8.29883C6.64591 7.32123 7.07646 6.40724 7.76128 5.69979C8.4461 4.99234 9.34658 4.53132 10.3219 4.38885C10.659 4.36882 10.9847 4.25975 11.2657 4.07281C11.5468 3.88586 11.7729 3.62776 11.9211 3.32491C12.4248 2.49671 13.1847 1.85431 14.0861 1.4945C14.9875 1.13469 15.9817 1.07697 16.9188 1.33003C17.2332 1.43708 17.571 1.45587 17.8953 1.38433C18.2197 1.3128 18.5181 1.1537 18.7579 0.924402C19.5543 0.347992 20.5129 0.0375977 21.4967 0.0375977C22.4804 0.0375977 23.439 0.347992 24.2354 0.924402C24.4845 1.15215 24.7897 1.30973 25.1199 1.38101C25.4501 1.45228 25.7934 1.43469 26.1145 1.33003C26.8427 1.12472 27.612 1.11305 28.3461 1.29619C29.0802 1.47933 29.7535 1.8509 30.2992 2.37402C30.6271 2.65515 30.9044 2.99026 31.1189 3.36481C31.2642 3.65173 31.482 3.89587 31.7508 4.07312C32.0195 4.25037 32.33 4.35461 32.6515 4.37555C33.5715 4.50307 34.4298 4.91049 35.1095 5.54232C35.7892 6.17416 36.2571 6.99969 36.4497 7.9065C36.4497 8.07274 36.4897 8.23898 36.5097 8.41187C36.5359 8.68078 36.6313 8.93838 36.7866 9.15972C36.9418 9.38106 37.1517 9.55865 37.3959 9.6753C38.2994 10.1546 39.0091 10.9307 39.405 11.8723C39.8009 12.8138 39.8585 13.8629 39.5683 14.842C39.478 15.1115 39.4581 15.3996 39.5106 15.6788C39.5631 15.9581 39.6861 16.2194 39.8681 16.438C40.527 17.2304 40.8877 18.2277 40.8877 19.2574C40.8877 20.2871 40.527 21.2844 39.8681 22.0768C39.6873 22.2867 39.564 22.5397 39.5103 22.8112C39.4566 23.0827 39.4743 23.3635 39.5616 23.6262C39.8629 24.5954 39.82 25.6386 39.44 26.5799C39.0601 27.5212 38.3663 28.3028 37.4759 28.7929C37.1986 28.9337 36.9633 29.1449 36.7937 29.4052C36.6241 29.6655 36.5261 29.9658 36.5097 30.2758C36.3807 31.2471 35.9315 32.148 35.233 32.8367C34.5345 33.5253 33.6263 33.9625 32.6515 34.0794C32.3201 34.0952 31.9988 34.1982 31.7202 34.3781C31.4416 34.558 31.2158 34.8082 31.0655 35.1034C30.2259 36.6062 28.8599 37.2712 27.0141 37.3643ZM21.3701 34.2589C24.3387 34.2723 27.2452 33.411 29.7253 31.783C32.2055 30.155 34.149 27.8327 35.3121 25.1072C36.4753 22.3816 36.8064 19.3741 36.264 16.4616C35.7216 13.549 34.3298 10.861 32.2631 8.73447C30.1963 6.60792 27.5465 5.13742 24.6458 4.50729C21.7451 3.87715 18.7226 4.11541 15.957 5.1922C13.1914 6.26899 10.8059 8.13641 9.09932 10.5604C7.39276 12.9844 6.44113 15.8571 6.36371 18.8185C6.30768 20.8222 6.65409 22.8169 7.38252 24.6849C8.11095 26.5529 9.20668 28.2566 10.6051 29.6955C12.0036 31.1344 13.6765 32.2795 15.5253 33.0632C17.3741 33.8469 19.3614 34.2535 21.3701 34.2589Z" fill="url(#paint1_linear)"/>
<path d="M23.7087 40.0704C24.2885 39.7313 24.8349 39.4055 25.388 39.0929C25.489 39.0558 25.6001 39.0558 25.7011 39.0929C26.7487 39.3434 27.8427 39.3248 28.881 39.0387C29.9194 38.7526 30.868 38.2085 31.6384 37.4571C31.9586 37.099 32.2505 36.7166 32.5113 36.3134C32.6215 36.1557 32.7808 36.0388 32.9644 35.9809C34.58 35.7158 36.0399 34.863 37.0625 33.587L37.1825 33.4873C37.2491 33.6003 37.3157 33.7001 37.3691 33.7998C39.1727 37.3463 40.9763 40.9083 42.7799 44.4858C42.8852 44.6697 42.9595 44.8696 42.9998 45.0776C43.0597 45.6162 42.5866 46.0085 41.9536 45.942C40.6209 45.7891 39.2482 45.6229 37.8955 45.4633C36.9293 45.3436 35.9564 45.2305 34.9835 45.0909C34.7103 45.051 34.6437 45.2039 34.5437 45.3768C33.4065 47.3628 32.2603 49.3577 31.1053 51.3615C31.0059 51.5635 30.8652 51.7424 30.6922 51.8868C30.2657 52.1927 29.7326 51.9865 29.4394 51.4213C28.873 50.3175 28.3133 49.207 27.7469 48.0965L23.7887 40.2566C23.7565 40.1971 23.7297 40.1348 23.7087 40.0704Z" fill="url(#paint2_linear)"/>
<path d="M5.83717 33.4678C5.93046 33.5609 6.01708 33.654 6.09705 33.7471C7.10246 34.9144 8.47819 35.7029 9.99523 35.9813C10.2552 36.0689 10.472 36.252 10.6016 36.4933C11.0248 37.1511 11.5761 37.7173 12.2229 38.1583C12.8696 38.5992 13.5986 38.9059 14.3665 39.0601C15.3086 39.283 16.2898 39.283 17.2319 39.0601C17.3599 39.0206 17.497 39.0206 17.625 39.0601C18.1648 39.3593 18.6979 39.6852 19.2709 40.0243C19.2376 40.0974 19.191 40.2238 19.131 40.3435L13.6669 51.2023C13.6202 51.2887 13.5802 51.3818 13.5269 51.4683C13.4721 51.6251 13.3707 51.7615 13.2363 51.8595C13.1019 51.9574 12.9408 52.0122 12.7744 52.0165C12.6081 52.0208 12.4443 51.9745 12.3049 51.8837C12.1656 51.7929 12.0572 51.6619 11.9943 51.5082C11.2813 50.298 10.5883 49.0811 9.88862 47.8642C9.40884 47.033 8.91574 46.2018 8.45595 45.3573C8.4117 45.2559 8.33126 45.1746 8.23028 45.1291C8.12929 45.0837 8.01497 45.0773 7.90954 45.1112C5.6306 45.3994 3.34944 45.6743 1.06605 45.9358C0.213116 46.0355 -0.26666 45.4105 0.133154 44.6591C1.99895 40.9708 3.86919 37.2847 5.74388 33.6008C5.74388 33.6008 5.79719 33.521 5.83717 33.4678Z" fill="url(#paint3_linear)"/>
<defs>
<linearGradient id="paint0_linear" x1="20.2573" y1="10.1475" x2="20.2573" y2="27.9618" gradientUnits="userSpaceOnUse">
<stop stop-color="#cf0040"/>
<stop offset="1" stop-color="#cf0040"/>
</linearGradient>
<linearGradient id="paint1_linear" x1="21.525" y1="0.0375977" x2="21.525" y2="38.4413" gradientUnits="userSpaceOnUse">
<stop stop-color="#9b0030"/>
<stop offset="1" stop-color="#cf0040"/>
</linearGradient>
<linearGradient id="paint2_linear" x1="33.3568" y1="33.4873" x2="33.3568" y2="52.0282" gradientUnits="userSpaceOnUse">
<stop stop-color="#cf0040"/>
<stop offset="1" stop-color="#9b0030"/>
</linearGradient>
<linearGradient id="paint3_linear" x1="9.63058" y1="33.4678" x2="9.63058" y2="52.0168" gradientUnits="userSpaceOnUse">
<stop stop-color="#9b0030"/>
<stop offset="1" stop-color="#cf0040"/>
</linearGradient>
</defs>
</svg>
