<svg width="42" height="52" viewBox="0 0 42 52" fill="none" xmlns="http://www.w3.org/2000/svg">
<path d="M27.1994 27.9615H15.0088V25.3482L19.3891 20.8265C20.6908 19.47 21.5369 18.5302 21.9274 18.0071C22.2745 17.5631 22.5613 17.0732 22.78 16.5508C22.9507 16.1081 23.039 15.6368 23.0404 15.161C23.0619 14.8681 23.0213 14.5739 22.9213 14.2984C22.8214 14.023 22.6644 13.7729 22.4611 13.5651C22.0289 13.1998 21.4789 13.0125 20.9186 13.0398C20.2402 13.043 19.5719 13.2069 18.966 13.5186C18.2519 13.8779 17.5831 14.3245 16.9744 14.8485L14.9697 12.4413C15.6286 11.8432 16.3437 11.3131 17.1045 10.8587C17.6887 10.5426 18.3099 10.3035 18.953 10.1472C19.687 9.97425 20.4387 9.89165 21.1919 9.90117C22.1875 9.87799 23.1754 10.0848 24.0818 10.5063C24.8797 10.8726 25.5576 11.4659 26.0343 12.2152C26.487 12.9677 26.7133 13.8394 26.6852 14.7221C26.6928 15.5121 26.5491 16.296 26.2621 17.0296C25.9366 17.8288 25.4981 18.5748 24.9604 19.2439C23.9908 20.3912 22.9448 21.4688 21.8298 22.4689L19.6039 24.6035V24.7764H27.1994V27.9615Z" fill="url(#paint0_linear)"/>
<path d="M26.3859 37.3643C26.106 37.3111 25.6829 37.2513 25.2729 37.1382C25.0357 37.0519 24.7799 37.0335 24.5333 37.0851C24.2866 37.1367 24.0585 37.2562 23.8735 37.4308C23.0565 38.0855 22.0481 38.4412 21.0098 38.4412C19.9714 38.4412 18.963 38.0855 18.146 37.4308C17.9702 37.2545 17.749 37.1329 17.5082 37.0799C17.2675 37.0269 17.0169 37.0448 16.7857 37.1316C15.786 37.4613 14.7037 37.4131 13.7359 36.9956C12.7682 36.5782 11.9795 35.8193 11.5137 34.8574C11.3947 34.6222 11.213 34.4262 10.9895 34.2921C10.7661 34.1579 10.5101 34.0911 10.251 34.0993C9.27868 33.9964 8.36892 33.5607 7.66946 32.863C6.97 32.1653 6.52191 31.2465 6.39795 30.2559C6.38321 29.9514 6.28996 29.6564 6.12766 29.4007C5.96535 29.1449 5.73975 28.9376 5.47373 28.7996C4.60896 28.3154 3.93259 27.5433 3.55719 26.6117C3.18179 25.6801 3.13002 24.6452 3.4105 23.6794C3.501 23.4039 3.52039 23.1092 3.4668 22.8238C3.41321 22.5384 3.28846 22.272 3.1046 22.0502C2.46991 21.2686 2.11929 20.2867 2.11217 19.2712C2.10505 18.2556 2.44187 17.2687 3.06554 16.4779C3.25004 16.2485 3.37531 15.9756 3.42989 15.684C3.48447 15.3924 3.46661 15.0915 3.37796 14.8088C3.09993 13.8346 3.15991 12.7921 3.54775 11.8578C3.93559 10.9236 4.62746 10.1549 5.50627 9.68195C5.7621 9.55497 5.97914 9.35905 6.13399 9.1153C6.28883 8.87156 6.3756 8.58925 6.38493 8.29883C6.49134 7.32123 6.91189 6.40724 7.58078 5.69979C8.24968 4.99234 9.12921 4.53132 10.0818 4.38885C10.4111 4.36882 10.7293 4.25975 11.0037 4.07281C11.2782 3.88586 11.4991 3.62776 11.6439 3.32491C12.1359 2.49671 12.878 1.85431 13.7585 1.4945C14.6389 1.13469 15.61 1.07697 16.5253 1.33003C16.8324 1.43708 17.1623 1.45587 17.4791 1.38433C17.7959 1.3128 18.0874 1.1537 18.3217 0.924402C19.0995 0.347992 20.0358 0.0375977 20.9967 0.0375977C21.9576 0.0375977 22.8939 0.347992 23.6718 0.924402C23.9151 1.15215 24.2132 1.30973 24.5358 1.38101C24.8583 1.45228 25.1935 1.43469 25.5072 1.33003C26.2184 1.12472 26.9699 1.11305 27.6869 1.29619C28.4039 1.47933 29.0616 1.8509 29.5946 2.37402C29.9149 2.65515 30.1856 2.99026 30.3952 3.36481C30.5371 3.65173 30.7499 3.89587 31.0124 4.07312C31.2749 4.25037 31.5781 4.35461 31.8921 4.37555C32.7908 4.50307 33.6291 4.91049 34.293 5.54232C34.9569 6.17416 35.414 6.99969 35.602 7.9065C35.602 8.07274 35.6411 8.23898 35.6606 8.41187C35.6862 8.68078 35.7794 8.93838 35.931 9.15972C36.0827 9.38106 36.2877 9.55865 36.5263 9.6753C37.4087 10.1546 38.1019 10.9307 38.4886 11.8723C38.8753 12.8138 38.9316 13.8629 38.6481 14.842C38.5599 15.1115 38.5405 15.3996 38.5918 15.6788C38.643 15.9581 38.7632 16.2194 38.941 16.438C39.5845 17.2304 39.9368 18.2277 39.9368 19.2574C39.9368 20.2871 39.5845 21.2844 38.941 22.0768C38.7643 22.2867 38.6439 22.5397 38.5915 22.8112C38.539 23.0827 38.5563 23.3635 38.6416 23.6262C38.9359 24.5954 38.8939 25.6386 38.5228 26.5799C38.1517 27.5212 37.4741 28.3028 36.6044 28.7929C36.3335 28.9337 36.1037 29.1449 35.938 29.4052C35.7724 29.6655 35.6767 29.9658 35.6606 30.2758C35.5346 31.2471 35.0959 32.148 34.4137 32.8366C33.7314 33.5253 32.8443 33.9625 31.8921 34.0794C31.5684 34.0952 31.2546 34.1982 30.9825 34.3781C30.7104 34.558 30.4898 34.8082 30.3431 35.1034C29.523 36.6062 28.1887 37.2712 26.3859 37.3643ZM20.8731 34.2589C23.7726 34.2723 26.6116 33.411 29.034 31.783C31.4565 30.155 33.3548 27.8327 34.4909 25.1072C35.627 22.3816 35.9505 19.3741 35.4207 16.4616C34.8909 13.549 33.5315 10.861 31.5128 8.73447C29.4941 6.60792 26.9059 5.13742 24.0727 4.50729C21.2394 3.87715 18.2872 4.11541 15.5859 5.1922C12.8847 6.26899 10.5546 8.13641 8.8877 10.5604C7.22083 12.9844 6.29133 15.8571 6.21571 18.8185C6.16098 20.8222 6.49933 22.8169 7.21083 24.6849C7.92232 26.5529 8.99256 28.2566 10.3585 29.6955C11.7244 31.1344 13.3584 32.2795 15.1642 33.0632C16.97 33.8469 18.9111 34.2535 20.8731 34.2589Z" fill="url(#paint1_linear)"/>
<path d="M23.1575 40.0709C23.7237 39.7318 24.2574 39.406 24.7976 39.0934C24.8964 39.0563 25.0048 39.0563 25.1035 39.0934C26.1267 39.3439 27.1953 39.3252 28.2095 39.0392C29.2237 38.7531 30.1503 38.209 30.9027 37.4576C31.2155 37.0995 31.5006 36.7171 31.7553 36.3139C31.8629 36.1562 32.0185 36.0393 32.1979 35.9814C33.7759 35.7163 35.2019 34.8635 36.2007 33.5875L36.3179 33.4878C36.3829 33.6008 36.448 33.7006 36.5001 33.8003C38.2618 37.3468 40.0234 40.9088 41.7851 44.4863C41.888 44.6701 41.9606 44.8701 41.9999 45.0781C42.0584 45.6167 41.5963 46.009 40.978 45.9425C39.6763 45.7896 38.3355 45.6233 37.0143 45.4638C36.0705 45.3441 35.1203 45.231 34.17 45.0914C33.9032 45.0515 33.8381 45.2044 33.7405 45.3773C32.6297 47.3633 31.5102 49.3582 30.382 51.362C30.2849 51.564 30.1475 51.7429 29.9785 51.8873C29.5619 52.1932 29.0412 51.987 28.7549 51.4218C28.2016 50.318 27.6549 49.2075 27.1017 48.097L23.2356 40.2571C23.2041 40.1976 23.178 40.1352 23.1575 40.0709Z" fill="url(#paint2_linear)"/>
<path d="M5.70144 33.4678C5.79256 33.5609 5.87717 33.654 5.95527 33.7471C6.93731 34.9144 8.28104 35.7029 9.7628 35.9813C10.0168 36.0689 10.2285 36.252 10.3551 36.4933C10.7684 37.1511 11.3069 37.7173 11.9386 38.1583C12.5704 38.5992 13.2824 38.9059 14.0324 39.0601C14.9526 39.283 15.911 39.283 16.8311 39.0601C16.9562 39.0206 17.0901 39.0206 17.2152 39.0601C17.7423 39.3593 18.263 39.6852 18.8228 40.0243C18.7902 40.0974 18.7447 40.2238 18.6861 40.3435L13.349 51.2023C13.3035 51.2887 13.2644 51.3818 13.2124 51.4683C13.1588 51.6251 13.0598 51.7615 12.9285 51.8595C12.7972 51.9574 12.6399 52.0122 12.4774 52.0165C12.3149 52.0208 12.1549 51.9745 12.0188 51.8837C11.8827 51.7929 11.7769 51.6619 11.7154 51.5082C11.019 50.298 10.3421 49.0811 9.65867 47.8642C9.19005 47.033 8.70841 46.2018 8.25932 45.3573C8.21609 45.2559 8.13753 45.1746 8.03889 45.1291C7.94026 45.0837 7.82859 45.0773 7.72561 45.1112C5.49967 45.3994 3.27156 45.6743 1.04128 45.9358C0.208177 46.0355 -0.260442 45.4105 0.130074 44.6591C1.95248 40.9708 3.77923 37.2847 5.61032 33.6008C5.61032 33.6008 5.66239 33.521 5.70144 33.4678Z" fill="url(#paint3_linear)"/>
<defs>
<linearGradient id="paint0_linear" x1="21.0846" y1="9.89941" x2="21.0846" y2="27.9615" gradientUnits="userSpaceOnUse">
<stop stop-color="#494949"/>
<stop offset="1" stop-color="#262626"/>
</linearGradient>
<linearGradient id="paint1_linear" x1="21.0244" y1="0.0375977" x2="21.0244" y2="38.4412" gradientUnits="userSpaceOnUse">
<stop stop-color="#028EA4"/>
<stop offset="1" stop-color="#3DBBCE"/>
</linearGradient>
<linearGradient id="paint2_linear" x1="32.5812" y1="33.4878" x2="32.5812" y2="52.0287" gradientUnits="userSpaceOnUse">
<stop stop-color="#198391"/>
<stop offset="1" stop-color="#094C54"/>
</linearGradient>
<linearGradient id="paint3_linear" x1="9.40663" y1="33.4678" x2="9.40663" y2="52.0168" gradientUnits="userSpaceOnUse">
<stop stop-color="#028EA4"/>
<stop offset="1" stop-color="#3DBBCE"/>
</linearGradient>
</defs>
</svg>
