<svg width="32" height="57" fill="none" xmlns="http://www.w3.org/2000/svg"><path fill-rule="evenodd" clip-rule="evenodd" d="M1.616 57.171c.212-.014.41-.217.623-.203 1.874-.135 3.717-.444 5.389-1.304a4.871 4.871 0 002.63-3.204.697.697 0 010-.263 11.17 11.17 0 00.188-3.28c-.18-1.838-.318-4.439-.413-6.293a55.607 55.607 0 01-.113-2.374 6.41 6.41 0 01-1.09 1.733 10.142 10.142 0 01-3.306 2.548c0-.505-.053-.867-.076-1.093a8.353 8.353 0 00-.15-1.168 24.845 24.845 0 002.18-1.583 10.418 10.418 0 001.728-2.073 3.13 3.13 0 00.376-1.168c.075-.377.12-.709.15-.98v-.075l-.225-5.842a17.055 17.055 0 010-2.563c0-.279.037-.527.037-.753a8.05 8.05 0 001.165-.604c.477-.29.929-.617 1.353-.98a24.085 24.085 0 012.292-1.77c.797-.581 1.601-1.169 2.405-1.772v.038a587.964 587.964 0 015.261-3.92c.41-.309.85-.574 1.315-.791a8.266 8.266 0 003.33-2.3v-.075a6.034 6.034 0 001.052-1.808c.3-.58.571-1.161.827-1.734a85.269 85.269 0 001.578-3.279c.044-.17.107-.334.188-.49v-.037a3.77 3.77 0 01.188-.415c.54-1.206 1-2.502 1.427-3.754a.453.453 0 00-.075-.414 2.016 2.016 0 00-.263-.49 2.758 2.758 0 01-.225-.377A4.415 4.415 0 0030.174.814a2.664 2.664 0 00-1.54-.701h-.338a.315.315 0 00-.264 0 .752.752 0 00-.263.226c-.255.4-.526.829-.826 1.281a7.7 7.7 0 01-.752.905c-.105.098-.09.173 0 .226.238.114.491.19.752.226.426.088.817.297 1.127.603a.414.414 0 00-.113.15c-.278.528-.751 1.508-1.503 2.94-.631 1.206-1.052 2.073-1.277 2.6a9.797 9.797 0 01-2.33 3.091 33.829 33.829 0 01-3.533 3.015 72.863 72.863 0 01-9.183 5.789c-1.353.754-3.996 2.073-7.93 3.957l-.488.226a1.92 1.92 0 000 .377c.003.04.016.08.038.113v.113a6.207 6.207 0 00-.677.942 7.555 7.555 0 00-.901 3.58 33.684 33.684 0 00.187 4.712c0 .173.046.346.076.527.27 1.93.413 3.015.413 3.279a35.582 35.582 0 00.113 4.9v.15c.15 1.96.285 4.643.413 6.558.048.463.073.928.075 1.394.135 1.771.166 3.467.166 5.178z" fill="#132146"/></svg>