<svg width="500" height="339" fill="none" xmlns="http://www.w3.org/2000/svg"><path d="M149.95 59.434l-3.251-1.89.219 133.412 3.251 1.888-.219-133.41zm-16.144.909L158.92 2.977A5.517 5.517 0 01161.057.44c.664-.384 1.331-.478 1.827-.185l3.251 1.89c-.503-.292-1.167-.199-1.827.185a5.517 5.517 0 00-2.137 2.539l-25.114 57.366c-.742 1.698-.498 3.112.322 3.589l-3.251-1.897c-.82-.457-1.066-1.884-.322-3.583z" fill="#2E77BF"/><path d="M164.31 2.328a5.517 5.517 0 00-2.137 2.54l-25.114 57.365c-1.157 2.644.082 4.598 2.153 3.402l10.731-6.2.228 133.409 28.995-16.741-.228-133.41 10.731-6.199c2.073-1.198 3.296-4.566 2.128-5.874L166.454 2.397c-.516-.57-1.329-.539-2.144-.069z" fill="#4AAEFF"/><path d="M188.778 1.897a5.517 5.517 0 00-2.137 2.539l-25.114 57.366c-1.16 2.644.08 4.598 2.151 3.402l10.731-6.201.228 118.442 28.995-16.741-.228-118.443 10.751-6.189c2.073-1.199 3.297-4.566 2.128-5.874L190.922 1.966c-.511-.573-1.329-.54-2.144-.069zM146.936 183.79l3.254 1.891-.192-91.576-3.256-1.938.194 91.623z" fill="#D9D9D9"/><path d="M118.646 139.033l-3.251-1.89.219 83.682 3.254 1.891-.222-83.683zm-16.135.918l25.115-57.366a5.511 5.511 0 012.137-2.539c.666-.384 1.331-.477 1.826-.185l3.251 1.872c-.502-.292-1.166-.199-1.826.185a5.517 5.517 0 00-2.137 2.539l-25.114 57.366c-.745 1.699-.5 3.112.319 3.589l-3.251-1.89c-.826-.466-1.073-1.882-.32-3.571z" fill="#BF3F2E"/><path d="M133.006 81.928a5.517 5.517 0 00-2.137 2.539l-25.114 57.366c-1.16 2.644.08 4.598 2.151 3.402l10.731-6.201.228 83.683 28.995-16.742-.228-83.683 10.731-6.201c2.073-1.196 3.296-4.566 2.128-5.872l-25.332-28.223c-.525-.573-1.337-.538-2.153-.068z" fill="#FF5C4A"/><path d="M187.096 174.302l3.251 1.891-.189-91.576-3.256-3.502.194 93.187z" fill="#898989"/><path d="M190.128 70.59l-3.252-1.891.22 105.602 3.251 1.89-.219-105.602zm-16.144.909l25.114-57.367a5.477 5.477 0 012.14-2.536c.664-.386 1.331-.48 1.826-.187l3.251 1.89c-.502-.292-1.169-.198-1.826.185a5.517 5.517 0 00-2.137 2.539l-25.114 57.366c-.745 1.699-.498 3.114.321 3.589l-3.251-1.888c-.824-.477-1.068-1.89-.324-3.591z" fill="#941A3A"/><path d="M204.488 13.483a5.517 5.517 0 00-2.137 2.539l-25.114 57.366c-1.157 2.646.082 4.598 2.153 3.402l10.731-6.201.228 105.602 28.996-16.741-.229-105.603 10.731-6.198c2.075-1.199 3.299-4.566 2.13-5.874l-25.345-28.223c-.516-.573-1.331-.54-2.144-.069z" fill="#C51341"/><path d="M219.155 67.713l-28.998 16.851.19 91.628 29-16.742-.192-91.737zM115.641 249.754l3.251 1.89-.189-91.575-3.256-1.939.194 91.624z" fill="#D9D9D9"/><path d="M119.242 251.727a40.332 40.332 0 01-7.012 2.63l.263-1.906a28.563 28.563 0 01-5.954.938l-.772 1.986a23.016 23.016 0 01-6.164-.546l.767-1.984a18.818 18.818 0 01-4.857-1.878l-1.182 1.826a19.606 19.606 0 01-4.594-3.616l1.183-1.827a21.846 21.846 0 01-3.197-4.459l-1.451 1.448a29.382 29.382 0 01-2.462-6.274l1.452-1.445a38.139 38.139 0 01-1.116-6.534l-1.546.892a48.975 48.975 0 01-.171-3.995 54.57 54.57 0 01.148-4.18l1.546-.893c.198-2.62.557-5.225 1.075-7.801l-1.454.228a79.677 79.677 0 012.42-9.091l1.454-.228a88.838 88.838 0 013.158-8.125l-1.187-.457a96.987 96.987 0 014.566-8.904l1.187.457a95.056 95.056 0 014.831-7.477l-.776-1.092a91.32 91.32 0 016.144-7.648l.778 1.092a78.04 78.04 0 015.936-5.936l-.273-1.599a67.218 67.218 0 017.004-5.463l.272 1.598c1.045-.698 2.1-1.37 3.166-1.977a54.529 54.529 0 013.167-1.678l.263-1.902a40.26 40.26 0 017.013-2.63l-.264 1.902a28.846 28.846 0 015.956-.936l.77-1.986a23.222 23.222 0 016.164.543l-.767 1.982a19.005 19.005 0 014.858 1.883l1.181-1.826a19.522 19.522 0 014.593 3.616l-1.18 1.827a21.768 21.768 0 013.196 4.456l1.45-1.445a29.358 29.358 0 012.463 6.269l-1.452 1.445a38.02 38.02 0 011.115 6.539l1.545-.893c.11 1.287.168 2.618.174 3.993 0 1.37-.048 2.774-.149 4.181l-1.548.892a63.795 63.795 0 01-1.073 7.799l1.455-.228a79.917 79.917 0 01-2.418 9.091l-1.454.228a89.04 89.04 0 01-3.16 8.123l1.189.457a97.745 97.745 0 01-4.566 8.904l-1.187-.457a93.605 93.605 0 01-4.831 7.473l.776 1.091a90.817 90.817 0 01-6.142 7.651l-.778-1.09a76.428 76.428 0 01-5.936 5.936l.274 1.599a66.856 66.856 0 01-7.005 5.463l-.274-1.598a58.724 58.724 0 01-3.164 1.975 50.317 50.317 0 01-3.167 1.68l-.269 1.911zm67.854-77.425l3.251 1.891-.189-91.576-3.256-1.872.194 91.557z" fill="#D9D9D9"/><path d="M338.561 237.725l-67.326 39.125-95.591-55.188 67.326-39.125 95.591 55.188z" fill="#DCDCDC"/><path d="M273.372 197.882c-8.876-5.281-15.902-17.863-15.872-28.064.057-20.396.174-61.185.228-81.591.016-5.42-2.093-11.778-5.744-17.31a9120.913 9120.913 0 00-4.132-6.265 1.573 1.573 0 00-.505-.5.572.572 0 00-.568-.057l-66.249 38.501a.569.569 0 01.566.058c.204.125.378.295.507.497l4.132 6.267c3.653 5.532 5.758 11.89 5.742 17.31l-.228 81.592c-.03 10.2 6.995 22.782 15.872 28.063 4.649 2.683 8.811 2.943 11.788 1.212l66.251-38.501c-2.968 1.731-7.142 1.473-11.788-1.212z" fill="#fff"/><path d="M257.5 169.818l-.073-23.192.016-23.189.016-23.191V88.653c.053-3.838-.881-7.628-2.329-11.171a38.553 38.553 0 00-2.58-5.14c-.993-1.632-2.1-3.234-3.146-4.855l-1.598-2.422a3.06 3.06 0 00-.395-.537.722.722 0 00-.457-.228.178.178 0 00-.066.016l-.15.086-.313.183-.628.363-5.023 2.902-20.048 11.6-20.075 11.607-20.121 11.532 19.979-11.772 20.039-11.689 20.025-11.694 5.007-2.922.626-.365.312-.185.165-.094a.655.655 0 01.278-.078c.733.03 1.051.628 1.299.994l1.599 2.415c1.059 1.623 2.157 3.196 3.18 4.86a38.69 38.69 0 012.637 5.206c1.454 3.603 2.393 7.475 2.324 11.388l-.057 11.596-.114 23.188-.117 23.192-.212 23.189z" fill="#DBDBDB"/><path d="M202.093 110.272c-.401-2.605-.536-3.032-.856-4.057.423.326.685.785 1.051 1.173.826.913.952 1.05 1.598 1.827l-1.804 1.048.011.009zm-.844-5.19l-.914.535a40.911 40.911 0 011.37 8.748l.797-.456a42.296 42.296 0 00-.246-2.767l2.114-1.229c.698.914.844 1.098 1.502 2.037l.824-.477a43.122 43.122 0 00-5.443-6.393l-.004.002zm5.6-3.363c-3.778 2.459-.886 7.788 1.212 8.262 1.512.343 3.101-1.054 3.802-1.933a36.488 36.488 0 00-1.443-3.671l-1.964 1.141.35.788 1.201-.699c.456 1.087.532 1.283.89 2.283-1.299 1.936-4.272 1.509-4.911-2.322-.431-2.589 1.742-3.477 2.802-3.484a109.43 109.43 0 01-.247-.895 3.841 3.841 0 00-1.692.532v-.002zm5.495 1.475a41.448 41.448 0 00-1.392-2.74c.15-.159 1.141-.981 1.89-.767.856.245 1.142 1.206 1.142 1.633a1.647 1.647 0 01-.859 1.418l-.787.456h.006zm-1.157-3.972a8.451 8.451 0 00-1.388 1.011 37.424 37.424 0 013.349 7.468l.772-.457c-.443-1.326-.614-1.826-1.244-3.315 1.038-.602 1.285-.746 1.785-.47.97.536 1.091 1.692 1.776 2.438l.795-.456c-.658-.724-.968-1.688-1.644-2.4a1.276 1.276 0 00-1.066-.456c1.427-2.987-1.032-4.183-2.409-3.697a4.406 4.406 0 00-.726.343v-.01zm6.534-3.715l-3.228 1.876a37.083 37.083 0 013.407 7.567l3.363-1.955-.277-.829-2.582 1.503c-.278-.765-.591-1.633-1.087-2.756l2.311-1.342-.37-.81-2.31 1.339a41.59 41.59 0 00-1.217-2.37l2.449-1.424-.456-.8h-.003zm4.354-2.53l-3.23 1.877a37.159 37.159 0 013.408 7.566l3.361-1.955-.274-.828-2.584 1.502c-.277-.767-.589-1.632-1.085-2.756l2.311-1.342-.37-.813-2.311 1.343a39.66 39.66 0 00-1.219-2.37l2.452-1.425-.456-.799h-.003zm6.692-3.886l-.982.571c.564 2.395.578 2.484 1.24 7.178-.596-.708-1.075-1.505-1.674-2.212-.833-.934-1.552-1.742-2.902-3.028l-.981.571a37.108 37.108 0 012.991 7.806l.735-.427a32.478 32.478 0 00-2.589-6.77c.102.099.26.25 2.157 2.512a39.694 39.694 0 012.363 3.075l.585-.34c-.162-3.653-.518-5.625-1.044-7.614.265.382 1.208 2.146 1.717 3.197.624 1.321.829 1.771 1.402 3.276l.763-.441a37.233 37.233 0 00-3.781-7.354zm4.774-2.776l-3.229 1.877a37.144 37.144 0 013.407 7.564l3.361-1.954-.274-.827-2.585 1.5a39.95 39.95 0 00-1.084-2.756l2.308-1.342-.37-.81-2.308 1.342c-.521-1.069-.628-1.292-1.219-2.372L234 87.112l-.457-.797h-.002zm5.608-3.259l-.724.422c1.201 2.094 1.269 2.247 3.05 6.206-.767-.532-1.354-1.268-2.089-1.838-1.269-.941-2.164-1.599-3.863-2.683l-.852.496a37.142 37.142 0 013.409 7.563l.726-.422c-.635-1.897-1.461-4.137-2.788-6.347.875.507 1.576 1.237 2.377 1.842 1.297 1.003 2.055 1.599 3.384 2.779l.778-.457a36.953 36.953 0 00-3.408-7.566v.005zm5.079-2.953l-4.416 2.566.457.81 1.813-1.054a37.204 37.204 0 012.943 6.755l.778-.457a37.05 37.05 0 00-2.943-6.755l1.827-1.06-.457-.81-.002.005z" fill="#FF695C"/><path d="M217.972 117.578a.591.591 0 00-.888-.512l-17.997 10.427c-.884.628-.816 1.826-.268 1.849a.737.737 0 00.263-.084l18.265-10.569a1.265 1.265 0 00.637-1.105l-.012-.006zm30.633-18.75l-23.861 13.811a1.28 1.28 0 00-.637 1.105.591.591 0 00.889.513l23.605-13.664a1.65 1.65 0 00.685-1.283c-.044-.504-.272-.666-.681-.482zm.646 11.069c-.057-.84-.491-.714-.685-.621l-49.569 28.68c-.872.637-.819 2.075-.269 2.114a.566.566 0 00.263-.071l49.57-28.679a1.818 1.818 0 00.685-1.423h.005zm-14.758 20.383c-.055-.914-.472-.779-.673-.71l-34.277 19.917c-.984.813-.703 2.226-.269 2.283a.531.531 0 00.262-.066l34.274-19.918a1.944 1.944 0 00.685-1.5l-.002-.006zm14.724-8.556c-.018-.637-.276-.914-.685-.71l-8.183 4.755c-.829.548-.879 2.208-.269 2.283a.43.43 0 00.262-.064l8.183-4.755c.498-.331.685-1.078.685-1.5l.007-.009zm-39.144 35.16c-.018-.644-.281-.934-.674-.74l-9.89 5.747c-.829.552-.879 2.253-.27 2.331a.455.455 0 00.265-.064l9.888-5.749c.498-.331.685-1.093.685-1.525h-.004zm14.788-8.594c-.019-.643-.283-.933-.685-.739l-10.477 6.098c-.831.552-.879 2.253-.27 2.331a.436.436 0 00.263-.064l10.488-6.096c.498-.331.685-1.096.685-1.527l-.004-.003zm24.321-14.134c-.011-.374-.111-.97-.684-.74l-19.715 11.459c-.881.66-.827 2.258-.272 2.329a.582.582 0 00.265-.064l19.717-11.457c.646-.484.685-1.356.685-1.527h.004zm-33.027 31.594c0-.365-.114-.945-.685-.71l-16.004 9.301c-.884.658-.827 2.212-.27 2.272a.607.607 0 00.263-.067l16.004-9.301c.646-.479.685-1.328.685-1.495h.007zm25.235-14.663c-.018-.618-.29-.913-.685-.712l-20.708 12.034c-.833.623-.835 2.11-.328 2.263a.426.426 0 00.322-.058l20.707-12.033c.644-.48.685-1.329.685-1.494h.007zm7.756-4.516c-.016-.625-.281-.913-.685-.71l-2.765 1.599c-.769.511-.885 2.091-.326 2.26.11.023.225.004.322-.055l2.762-1.598c.498-.329.685-1.076.685-1.496h.007zm-43.012 36.774c-.018-.58-.283-.826-.673-.63l-6.021 3.5c-.774.507-.888 1.972-.328 2.1a.49.49 0 00.324-.066l6.018-3.5c.498-.326.685-1.018.685-1.404h-.005zm42.98-24.977c-.018-.57-.29-.824-.685-.627l-12.128 7.047c-.833.548-.881 2.078-.269 2.11a.521.521 0 00.263-.073l12.132-7.05c.498-.327.685-1.021.685-1.407h.002zm-17.048 9.907c-.039-.601-.26-.806-.685-.628l-21.856 12.714c-.886.648-.829 2.08-.27 2.107a.672.672 0 00.263-.073l21.868-12.707a1.809 1.809 0 00.684-1.407l-.004-.006zm-19.847 22.047c-.018-.5-.283-.685-.685-.491l-12.134 7.052c-.736.475-.891 1.681-.384 1.827a.52.52 0 00.379-.073l12.135-7.05a1.607 1.607 0 00.685-1.263l.004-.002zm23.998-13.945c-.039-.516-.26-.685-.685-.491l-20.007 11.627c-.792.566-.847 1.694-.383 1.827a.59.59 0 00.379-.073l20.009-11.63a1.601 1.601 0 00.685-1.26h.002zm12.87-7.477c-.019-.5-.283-.685-.685-.491l-7.795 4.53c-.737.477-.89 1.682-.383 1.826.131.026.267 0 .379-.073l7.794-4.53a1.61 1.61 0 00.685-1.262h.005zm-27.457 26.26c-.128-.63-.456-.9-.842-.706l-21.19 12.315c-.845.642-.582 2.108.021 2.263a.46.46 0 00.351-.053l21.192-12.314c.607-.471.496-1.336.457-1.505h.011zm27.806-16.169c-.153-.653-.42-.879-.84-.706l-22.968 13.347c-.898.685-.557 2.214.089 2.283a.66.66 0 00.283-.066l22.968-13.347c.607-.47.495-1.336.456-1.504l.012-.007zm-32.541 33.737c-.377-.603-.866-.856-1.272-.66l-11.902 6.916c-.751.518-.025 2.018.82 2.15a.608.608 0 00.399-.064l11.902-6.917c.5-.345.254-1.082.053-1.425zm25.858-15.017c-.228-.344-.671-.892-1.272-.657l-22.025 12.785c-.824.667.121 2.132.913 2.16a.935.935 0 00.313-.073l22.012-12.799c.573-.457.144-1.269.052-1.427l.007.011zm11.24-6.543c-.377-.602-.865-.853-1.271-.657l-6.094 3.539c-.749.518-.023 2.018.822 2.15a.608.608 0 00.399-.064l6.092-3.541c.5-.344.253-1.084.052-1.427zm-30.221 34.325c-.56-.35-1.163-.441-1.576-.229l-8.831 5.133c-.6.406.076 1.159.955 1.305.288.064.589.03.856-.098l8.831-5.132c.481-.322.08-.763-.229-.973l-.006-.006zm31.022-18.026c-.552-.345-1.171-.436-1.577-.228l-19.692 11.442c-.685.532.31 1.251 1.062 1.322a1.27 1.27 0 00.748-.114l19.688-11.447c.527-.404-.046-.847-.229-.973v-.002zm9.144-5.316c-.559-.35-1.162-.441-1.575-.229l-4.388 2.553c-.601.404.073 1.157.954 1.304.288.066.591.031.856-.099l4.389-2.55c.481-.322.079-.762-.229-.972l-.007-.007zm-18.144 18.956a4.123 4.123 0 00-1.433.443l-21.348 12.404a1.604 1.604 0 00-.228.185v.127c.537.174 1.703-.456 1.715-.456l21.347-12.406c.079-.053.156-.11.228-.171l-.055-.119a1.735 1.735 0 00-.228 0l.002-.007zm27.651-16.068c-.5.06-.986.209-1.434.441l-23.356 13.572a1.691 1.691 0 00-.228.185v.128c.536.126 1.37-.283 1.712-.456l23.356-13.573c.073-.048.169-.117.229-.171l-.055-.121h-.229l.005-.005z" fill="#C9C9C9"/><path d="M219.847 236.951c-3.009 2.402-7.569 2.411-12.728-.568-8.877-5.281-15.902-17.863-15.872-28.063.059-20.397.173-61.186.228-81.592.016-5.42-2.094-11.778-5.742-17.31l-4.133-6.267a1.594 1.594 0 00-.506-.498.538.538 0 00-.621-.018c-.279.228-.229.843.111 1.37l4.133 6.265c3.292 4.988 5.171 10.655 5.157 15.543-.057 20.467-.173 61.414-.228 81.877-.032 11.262 7.918 25.029 17.995 30.846 5.32 2.968 10.046 2.881 13.256.358l-1.05-1.943z" fill="#D1D1D1"/><path d="M191.269 200.71c.032-11.476.073-26.428.114-40.649l-1.598-.914-.118 41.575 1.602-.012z" fill="#D9D9D9"/><g style="mix-blend-mode:multiply" fill="#CCC"><path d="M255.557 148.977c.655 0 1.306-.034 1.948-.092a10.063 10.063 0 001.879-.315l.228-.068c.065-.025.128-.054.189-.087.137-.066.279-.148.421-.228.285-.149.566-.311.858-.457.58-.308 1.18-.575 1.797-.799-.485.447-1.008.849-1.564 1.203a12.8 12.8 0 01-.843.507c-.146.08-.292.153-.456.229-.085.04-.172.075-.261.105l-.248.061a7.705 7.705 0 01-1.991.176 10.064 10.064 0 01-1.957-.235z"/><path d="M256.094 149.91c.456-.456.886-.959 1.29-1.465a9.825 9.825 0 001.054-1.615l.103-.214c.028-.075.051-.151.069-.228.041-.153.075-.313.112-.471l.228-.949c.144-.635.297-1.268.477-1.898-.05.653-.139 1.299-.251 1.943-.112.644-.192 1.292-.516 1.913a7.938 7.938 0 01-1.142 1.61c-.435.497-.911.957-1.424 1.374zm11.591-.644a5.77 5.77 0 00-.746-3.792 9.35 9.35 0 00-1.279-1.541 18.454 18.454 0 00-1.495-1.37l.025-.032a13.268 13.268 0 013.036 2.74c.431.567.698 1.241.77 1.95a4.286 4.286 0 01-.274 2.054l-.037-.009zm-14.429 24.703c-.304.609-1.498.632-2.665.05-1.166-.582-2.511-1.902-2.214-2.512.296-.609 2.15-.278 3.317.304 1.167.582 1.868 1.541 1.562 2.158zm-12.457-5.29c.352 1.598-1.142 3.395-3.356 3.881-2.215.487-4.247-1.2-4.596-2.799-.349-1.598.763-2.646 2.968-3.13s4.635.45 4.984 2.048z"/><path d="M240.345 168.912c.354 1.61-1.16 3.425-3.379 3.904-2.219.48-4.279-1.21-4.63-2.819-.352-1.61.767-2.665 2.988-3.151 2.222-.486 4.669.457 5.021 2.066z"/><path d="M239.598 170.733c-.347.959-1.847 1.552-3.226 1.066s-2.58-1.196-1.929-2.874c.32-.831 5.459.97 5.155 1.808zm19.078-17.214c.749.325.947 1.802 1.915 4.446 1.142 3.136 1.937 4.356 1.772 5.155-.146.71-1.756 2.835-2.74 3.013-.984.178-1.71.589-2.584.076-.384-.229-6.233-6.525-6.674-9.153-.689-4.174 6.731-4.221 8.311-3.537z"/><path d="M256.93 162.05c.993.789 1.013 2.132 1.141 4.876.053 1.167 0 1.642-.194 2.043-.288.589-2.329 1.941-2.845 1.827-2.347-.518-4.63-6.552-2.491-8.619 1.055-1.013 3.208-1.066 4.389-.127z"/><path d="M254.662 167.764a8.12 8.12 0 01-.098.879c-.018.143-.045.285-.055.42a.926.926 0 00.026.37c.153.56.276 1.127.369 1.7a4.042 4.042 0 01-.456-.771 4.143 4.143 0 01-.299-.852 1.204 1.204 0 010-.5 3.92 3.92 0 01.513-1.246zm2.753-6.204c-.123.417-.224.84-.303 1.267a4.399 4.399 0 00-.071 1.249c.032.195.096.383.19.557l.271.582c.19.397.357.804.5 1.219a6.156 6.156 0 01-.806-1.054 5.694 5.694 0 01-.317-.585 2.666 2.666 0 01-.13-.319 1.12 1.12 0 01-.073-.366 3.671 3.671 0 01.189-1.344c.134-.423.319-.828.55-1.206zm1.718-7.984c.041.651.111 1.299.212 1.938a9.69 9.69 0 00.456 1.861l.087.228c.031.066.065.13.103.192.08.133.171.267.26.402l.532.815c.352.546.685 1.107.993 1.692a14.205 14.205 0 01-1.281-1.491c-.2-.26-.385-.53-.57-.801-.089-.14-.178-.277-.263-.425a1.951 1.951 0 01-.121-.242l-.084-.24a8.113 8.113 0 01-.359-1.954 11.53 11.53 0 01.035-1.975zm-.736-2.113a29.27 29.27 0 00-.744-1.188 7.86 7.86 0 00-.833-1.073l-.117-.116c-.025-.025-.023 0-.032-.021a.512.512 0 00-.052-.027c-.085-.041-.194-.08-.297-.119l-.644-.244a8 8 0 01-1.283-.607c.479-.009.957.045 1.422.16.232.054.461.122.685.203.12.045.237.098.35.157.034.018.068.038.1.06a.577.577 0 01.103.089l.123.141c.309.376.565.791.763 1.235.201.432.354.884.456 1.35zm-.863 7.611c-.228-.416-.456-.82-.708-1.21a7.346 7.346 0 00-.824-1.091l-.116-.119a.32.32 0 00-.101-.062 2.745 2.745 0 00-.303-.123l-.649-.228c-.444-.156-.878-.34-1.299-.551a6.94 6.94 0 011.404.215c.229.055.457.13.685.208.117.044.231.095.343.153a.738.738 0 01.187.137l.123.137c.308.37.567.778.77 1.214.205.423.369.865.488 1.32zm-2.881 5.991a8.547 8.547 0 00-1.217-1.902l-.096-.098a.332.332 0 00-.091-.057 2.378 2.378 0 00-.251-.105l-.532-.192a17.432 17.432 0 01-1.071-.409c.385.042.767.113 1.142.213.187.047.369.107.552.173.094.035.185.075.274.121a.513.513 0 01.144.101l.098.111c.251.298.464.625.633.975.169.344.308.701.415 1.069zm-5.548 4.763a7.207 7.207 0 001.767-.514l.101-.052a.341.341 0 00.066-.06c.045-.052.091-.114.137-.175.093-.119.182-.245.271-.373.181-.251.363-.502.564-.744-.119.29-.262.569-.427.836a7.188 7.188 0 01-.26.392 1.406 1.406 0 01-.16.185.42.42 0 01-.112.089l-.107.053a3.642 3.642 0 01-.913.274 5.063 5.063 0 01-.927.089zm1.256 2.523c.826.949-.685 2.6-2.331 3.148s-3.347-.571-3.744-1.765c-.398-1.194.548-2.413 2.223-2.858 1.162-.308 3.035.525 3.852 1.475z"/><path d="M250.034 172.69c.827.948-.685 2.598-2.331 3.149-1.646.55-3.347-.573-3.744-1.767-.397-1.194.546-2.414 2.224-2.859 1.162-.306 3.023.528 3.851 1.477z"/><path d="M248.242 175.208c-.203.553-1.217.842-2.192.5-.975-.342-1.826-.813-1.454-1.781.094-.228-.26.359 1.509 1.155 1.418.64 2.224-.116 2.137.126z"/><path d="M246.064 171.345c.5 1.5-.728 3.619-2.815 4.26-1.555.477-4.874-1.002-5.146-2.023-.407-1.529.728-2.904 2.797-3.596 2.068-.691 4.664-.143 5.164 1.359z"/><path d="M245.708 171.556c.502 1.502-.728 3.621-2.813 4.262-1.557.478-4.874-1.004-5.146-2.025-.409-1.527.726-2.904 2.797-3.593 2.071-.69 4.66-.144 5.162 1.356z"/><path d="M244.925 173.535c-.331.913-1.774 1.491-3.099 1.025-1.324-.466-2.477-1.142-1.851-2.762.308-.797 5.242.933 4.95 1.737zm18.826-14.67c.245-.379.469-.772.669-1.176.196-.398.36-.81.494-1.233.13-.429.22-.869.269-1.315.055-.456.098-.913.11-1.356h.027a10.15 10.15 0 01-.148 2.74 4.468 4.468 0 01-.542 1.281 4.93 4.93 0 01-.858 1.077l-.021-.018zm-3.678 6.293a6.054 6.054 0 001.044-1.283 6.569 6.569 0 00.609-1.55h.016a6.282 6.282 0 01-.479 1.626 3.125 3.125 0 01-1.178 1.217l-.012-.01zm24.21-27.739a.962.962 0 01-.408.16c-.51.057-.768-.486-.576-1.217.127-.51.431-.959.856-1.267a.941.941 0 01.409-.157c.509-.06.767.486.576 1.216-.127.51-.431.958-.857 1.265zm-2.548 2.772a.934.934 0 01-.406.158c-.509.057-.767-.487-.578-1.217.129-.51.433-.958.859-1.267a.977.977 0 01.406-.158c.511-.057.769.487.578 1.217a2.229 2.229 0 01-.859 1.267zm-2.438 2.881a.934.934 0 01-.406.158c-.509.057-.767-.487-.578-1.217.129-.51.433-.959.859-1.267a.964.964 0 01.406-.158c.509-.057.767.486.58 1.217-.13.51-.435.958-.861 1.267zm-58.765 34.47a.904.904 0 00.046.379c.125.354.479.436.87.247.139-.07.267-.159.381-.265.381-.347.624-.819.685-1.331a.92.92 0 00-.046-.379c-.125-.354-.477-.436-.87-.247a1.605 1.605 0 00-.379.265 2.132 2.132 0 00-.687 1.331zm-3.296 1.176a.906.906 0 00.045.376c.128.357.48.436.87.247.139-.069.267-.157.381-.263.383-.346.627-.82.685-1.333a.972.972 0 00-.043-.379c-.128-.354-.48-.434-.872-.246-.138.07-.266.159-.379.264a2.135 2.135 0 00-.687 1.334zm6.593-2.35a.972.972 0 00.043.379c.128.354.479.434.872.247.139-.07.267-.159.381-.265.382-.347.625-.821.685-1.333a.92.92 0 00-.045-.379c-.126-.354-.48-.434-.87-.244a1.634 1.634 0 00-.381.262 2.14 2.14 0 00-.685 1.333z"/><g style="mix-blend-mode:multiply"><path d="M260.046 129.417a49.601 49.601 0 01-6.281 5.911l-5.164 11.836c.545-.331 1.662-.777 4.433.013 6.592 1.879 8.777 8.406 10.882 7.327.125-.064 1.858-1.544 2.429-2.338 1.79-2.487.924-2.808 2.397-4.708 1.509-1.945 5.801-4.641 7.676-6.164-3.395-2.292-14.722-10.043-16.372-11.877zm-30.539 17.904c1.011-.685 3.402-4.918 5.208-6.783 1.226-1.267 7.666-2.144 8.922-2.267 4.92-.486 5.185.578 5.411 2.703.126 1.203-1.646 4.934-3.233 5.97-9.075 5.936-12.007 9.639-14.447 8.263-1.003-.569-2.297-2.21-1.861-7.886z"/><path d="M254.692 168.195c-.02.734.028 1.468.141 2.194.197 1.217.427 1.37.338 1.886-.201 1.162-2.201 2.166-2.968 2.157-1.625-.02-1.246-.913-2.68-1.561a5.735 5.735 0 00-2.833-.548c-1.843.194-5.82-1.032-13.699-3.489-2.932 1.786-17.658 5.895-18.406 5.644-1.402-.475-7.793-13.171-1.044-20.988.991-1.142 14.455-5.169 15.822-6.075 5.836-3.868 15.395-4.381 20.025-.309.007 0 5.213 4.578 5.304 21.089z"/><path d="M243.669 146.965c1.425-2.018 7.11-1.977 11.525-.413 3.544 1.255 5.301 2.653 7.379 4.077 1.247.856 3.454 1.998 3.653 2.71.603 2.217-.952 5.861-1.71 6.646-.685.703-4.66 1.059-5.333.628-.315-.201-.229-2.635-.267-2.769-1.37-3.845-6.927-2.528-12.329-7.041-2.751-2.304-4.028-2.267-2.918-3.838z"/><path d="M245.434 149.997c1.077-2.265.858-4.11 3.632-4.566a14.807 14.807 0 00-1.86.066c1.075-1.532 1.94-3.653 1.851-4.509-.228-2.126.19-2.454-4.728-1.968l-.201.021c-.523.863-1.642 1.344-2.612 3.082-1.142 2.029-1.957 2.029-2.678 3.831-.721 1.801-1.938 5.986-.498 7.91 1.041 1.388 3.053.943 3.386.884 2.756-.5 3.199-3.715 3.708-4.751z"/><path d="M244.694 137.292c-.879.79-1.37 2.13-2.813 4.248-1.31 1.92-2.623 2.77-3.379 4.957-.639 1.847-1.863 4.705-.838 6.452.879 1.498 2.955 1.212 3.293 1.185 2.796-.229 3.534-3.425 4.125-4.413 1.388-2.347 1.683-4.226 4.594-4.309l4.087-10.084c-1.82 1.185-6.699-.171-9.069 1.964z"/><path d="M242.964 150.424c-.3.975-1.649 3.032-4.124 2.173-1.306-.456-1.477-1.851-.497-3.354.926-1.413 5.036-.159 4.621 1.181zm92.931-66.129L276.546 148.7c2.92-7.911-15.783-20.776-20.343-18.095l74.066-83.402 5.626 37.092zM187.443 188.852l-8.422-23.378 42.977-15.623c4.555-.626 10.208 18.634 7.655 23.549l-42.21 15.452z"/><path d="M136.813 210.194l-10.101-26.981 90.498-32.387c4.448-.021 14.352 23.504 10.107 26.981l-90.504 32.387zm109.74-63.131a3.302 3.302 0 012.187-1.692 7.495 7.495 0 012.84 0c.928.173 1.843.406 2.74.699.9.28 1.783.61 2.646.989a24.672 24.672 0 014.842 2.883c.379.272.756.553 1.142.813l1.173.767c.391.258.781.52 1.156.804.189.14.37.293.541.456.179.155.318.352.402.573a1.38 1.38 0 00-.439-.534 6.862 6.862 0 00-.559-.416c-.388-.258-.79-.495-1.192-.732a30.968 30.968 0 01-2.381-1.498 41.5 41.5 0 00-2.352-1.511 21.448 21.448 0 00-2.482-1.254c-1.714-.701-3.479-1.351-5.294-1.708a7.181 7.181 0 00-2.74-.109 3.46 3.46 0 00-1.267.5c-.38.259-.707.588-.963.97zm89.006-63.094L276.546 148.7c-5.649 3.068-22.272-15.739-20.343-18.095l74.308-83.071 5.048 36.435z"/><path d="M293.55 127.148l-21.335 22.641c-3.197 3.9-19.601-13.623-17.859-15.753l24.133-27.684 15.061 20.796z"/><path d="M278.505 106.178l15.169 21.523-18.672 19.218c-1.262-7.063-12.979-16.141-18.205-16.209l21.708-24.532z"/><path d="M255.174 134.191c1.038-1.054 2.15-2.198 3.038-3.063a1012.202 1012.202 0 0112.715-12.117l14.233 15.19-15.708 11.609c-3.265-5.402-10.637-11.728-14.278-11.619z"/><path d="M293.674 127.701l-21.462 22.088c1.688-5.301-13.737-18.178-17.858-15.753l24.132-27.684 15.188 21.349z"/><path d="M270.039 146.116c1.936-1.713 4.902-3.635 6.377-4.834-3.393-2.283-14.72-10.045-16.373-11.871a46.46 46.46 0 01-4.392 4.337c3.938.313 11.495 7.003 14.388 12.368z"/></g></g><path d="M138.484 240.522l-4.237-28.497s75.292-7.746 99.641-14.068c25.048-6.505 96.576-37.228 96.576-37.228 4.353.914 9.116 25.988 4.237 28.5 0 0-71.58 30.734-96.642 37.241-24.326 6.317-99.575 14.052-99.575 14.052z" fill="#E6E6E6"/><path d="M330.552 103.078l-58.975 64.765c-5.646 3.071-22.281-15.725-20.354-18.081l74.261-83.117 5.068 36.433z" fill="#303030"/><path d="M288.568 146.28l-21.319 22.666c-3.197 3.899-19.61-13.614-17.87-15.753l24.116-27.696 15.073 20.783z" fill="#D4D4D4"/><path d="M250.199 153.346c1.036-1.054 2.148-2.198 3.034-3.063 6.34-6.178 12.708-12.123 12.708-12.123l14.244 15.18-15.703 11.618c-3.267-5.402-10.644-11.721-14.283-11.612z" fill="#E6E6E6"/><path d="M255.066 148.57a49.713 49.713 0 01-6.281 5.916l-5.158 11.837c.546-.331 1.663-.776 4.437 0 6.591 1.875 8.78 8.402 10.885 7.322.124-.064 1.859-1.546 2.43-2.34 1.787-2.486.913-2.811 2.392-4.71 1.507-1.945 5.797-4.646 7.672-6.164-3.393-2.283-14.724-10.027-16.377-11.861z" fill="#DBAF85"/><path d="M250.589 168.131c.657 0 1.306-.035 1.95-.092a10.33 10.33 0 001.879-.315l.228-.071c.065-.024.128-.052.189-.084l.421-.228c.285-.149.566-.311.856-.457.58-.308 1.181-.575 1.799-.799-.485.447-1.008.849-1.564 1.203-.272.183-.557.345-.843.509a8.795 8.795 0 01-.456.229 1.975 1.975 0 01-.261.105l-.246.061a7.674 7.674 0 01-1.993.178 10.089 10.089 0 01-1.959-.239z" fill="#CFCFCF"/><path d="M251.128 169.064c.457-.456.883-.958 1.288-1.465a9.925 9.925 0 001.054-1.614c.139-.289.234-.597.281-.914l.229-.949c.141-.635.294-1.27.474-1.9-.05.653-.139 1.301-.251 1.945-.112.644-.191 1.292-.513 1.911a7.884 7.884 0 01-1.142 1.612c-.434.497-.909.957-1.42 1.374zm11.589-.65a5.777 5.777 0 00-.749-3.792 9.327 9.327 0 00-1.279-1.539c-.473-.483-.973-.94-1.495-1.369l.023-.032a13.273 13.273 0 013.038 2.739 3.87 3.87 0 01.772 1.95 4.266 4.266 0 01-.274 2.055l-.036-.012z" fill="#CFCFCF"/><path d="M248.304 193.121c-.304.609-1.498.634-2.665.052-1.166-.582-2.511-1.902-2.217-2.511.295-.61 2.151-.283 3.32.299s1.865 1.548 1.562 2.16z" fill="#C9A17A"/><path d="M224.536 166.492c1.014-.685 3.402-4.92 5.206-6.786 1.226-1.267 7.666-2.148 8.922-2.283 4.918-.488 5.185.576 5.411 2.704.128 1.2-1.641 4.933-3.228 5.97-9.073 5.936-12.003 9.646-14.445 8.269-1.007-.557-2.297-2.196-1.866-7.874z" fill="#F2C193"/><path d="M249.735 187.351c-.019.735.028 1.469.142 2.194.198 1.215.429 1.37.34 1.886-.201 1.162-2.199 2.167-2.968 2.158-1.626-.019-1.249-.913-2.68-1.56a5.759 5.759 0 00-2.836-.547c-1.842.196-5.82-1.026-13.699-3.478-2.929 1.786-17.653 5.904-18.401 5.653-1.402-.472-7.802-13.166-1.058-20.988.991-1.141 14.453-5.178 15.82-6.084 5.831-3.881 15.391-4.39 20.023-.32.007 0 5.217 4.575 5.317 21.086z" fill="#F2C193"/><path d="M235.845 187.842c.349 1.598-1.142 3.395-3.354 3.881-2.212.487-4.249-1.198-4.6-2.796-.352-1.598.762-2.646 2.968-3.13 2.205-.484 4.634.447 4.986 2.045z" fill="#D1D1D1"/><path d="M235.388 188.075c.352 1.599-1.16 3.425-3.379 3.909-2.219.484-4.278-1.21-4.632-2.817-.354-1.608.767-2.667 2.986-3.153 2.219-.487 4.674.452 5.025 2.061z" fill="#DBAF85"/><path d="M234.644 189.898c-.347.959-1.847 1.554-3.226 1.07s-2.58-1.196-1.932-2.874c.322-.831 5.459.966 5.158 1.804z" fill="#E8D2BC"/><path d="M238.701 166.126c1.422-2.018 7.107-1.979 11.525-.417 3.543 1.251 5.303 2.648 7.381 4.073 1.247.856 3.454 1.995 3.653 2.705.605 2.219-.948 5.863-1.706 6.648-.684.703-4.659 1.062-5.333.63-.315-.201-.228-2.632-.267-2.769-1.37-3.842-6.929-2.511-12.329-7.032-2.762-2.301-4.034-2.265-2.924-3.838z" fill="#F2C193"/><path d="M253.717 172.671c.749.325.947 1.804 1.918 4.445 1.141 3.137 1.936 4.356 1.774 5.156-.147.71-1.754 2.835-2.74 3.013-.986.178-1.71.592-2.587.078-.383-.228-6.235-6.521-6.676-9.148-.696-4.176 6.726-4.226 8.311-3.544z" fill="#F2C193"/><path d="M251.968 181.204c.995.787 1.016 2.132 1.141 4.876.057 1.167 0 1.642-.191 2.041-.286.592-2.327 1.945-2.843 1.827-2.347-.516-4.635-6.55-2.495-8.617 1.05-1.011 3.207-1.063 4.388-.127z" fill="#F2C193"/><path d="M249.705 186.92a8.813 8.813 0 01-.098.879c-.016.144-.046.283-.055.42a.916.916 0 00.028.368c.152.56.275 1.128.37 1.7a4.431 4.431 0 01-.754-1.621 1.248 1.248 0 010-.502c.031-.149.073-.296.126-.438.096-.283.225-.553.383-.806zm2.749-6.204c-.124.416-.225.839-.301 1.267a4.399 4.399 0 00-.071 1.249c.032.195.097.383.192.557l.271.582c.189.397.356.804.498 1.219a6.238 6.238 0 01-.803-1.055 5.6 5.6 0 01-.32-.584 1.787 1.787 0 01-.203-.685 3.68 3.68 0 01.189-1.345c.134-.422.318-.827.548-1.205zm1.715-7.987c.041.653.112 1.299.212 1.938.091.634.244 1.257.457 1.861l.086.228c.032.066.067.129.106.19.079.135.171.267.26.402l.529.815a22.2 22.2 0 01.996 1.691 14.093 14.093 0 01-1.281-1.49c-.201-.261-.386-.53-.571-.802a7.057 7.057 0 01-.262-.424 2.044 2.044 0 01-.124-.242l-.082-.229a7.986 7.986 0 01-.36-1.956 11.214 11.214 0 01.034-1.982z" fill="#CFCFCF"/><path d="M253.424 170.617a13.535 13.535 0 00-1.577-2.26l-.119-.114a.311.311 0 00-.084-.05c-.085-.041-.192-.08-.297-.119l-.644-.242a8.219 8.219 0 01-1.283-.607c.479-.01.957.044 1.422.16.232.054.461.121.685.2.119.046.235.099.347.16a.828.828 0 01.206.146l.121.142c.309.375.565.791.762 1.235.203.432.357.884.461 1.349zm-.863 7.612a19.436 19.436 0 00-.707-1.21 7.547 7.547 0 00-.825-1.091l-.118-.119a.337.337 0 00-.101-.061 3.342 3.342 0 00-.303-.124l-.649-.228a12.241 12.241 0 01-1.299-.55c.474.023.945.095 1.404.214.232.058.46.127.685.208.117.044.232.095.343.153.069.034.132.08.187.135l.123.137c.307.371.567.779.772 1.214.203.425.367.867.488 1.322zm-2.867 5.983a8.708 8.708 0 00-1.215-1.904l-.095-.099a.382.382 0 00-.094-.059c-.075-.036-.167-.068-.253-.1a9.256 9.256 0 00-.53-.192 16.227 16.227 0 01-1.071-.409 7.608 7.608 0 011.683.386c.093.035.183.077.271.123a.64.64 0 01.144.103l.098.11c.253.295.467.622.635.972.175.343.318.7.427 1.069zm-5.546 4.775a7.065 7.065 0 001.768-.516l.1-.053a.266.266 0 00.066-.059c.049-.055.095-.113.137-.174.094-.121.185-.246.272-.372.18-.253.365-.505.564-.747a5.81 5.81 0 01-.425.836c-.182.251-.297.566-.641.721a4.71 4.71 0 01-1.841.364z" fill="#E8E8E8"/><path d="M240.456 169.147c1.076-2.264.859-4.109 3.633-4.566a14.486 14.486 0 00-1.863.069c1.075-1.535 1.938-3.653 1.849-4.509-.228-2.128.19-2.457-4.731-1.968l-.2.023c-.521.863-1.64 1.344-2.608 3.082-1.141 2.032-1.956 2.032-2.676 3.833-.719 1.801-1.936 5.988-.493 7.911 1.041 1.388 3.051.94 3.386.881 2.765-.491 3.201-3.708 3.703-4.756z" fill="#D1D1D1"/><path d="M239.726 156.453c-.879.79-1.37 2.13-2.808 4.251-1.311 1.923-2.623 2.77-3.379 4.957-.637 1.849-1.859 4.708-.834 6.454.879 1.498 2.955 1.212 3.295 1.183 2.797-.229 3.532-3.425 4.11-4.416 1.385-2.347 1.682-4.228 4.591-4.31l4.08-10.087c-1.813 1.188-6.694-.164-9.055 1.968z" fill="#DBAF85"/><path d="M237.997 169.587c-.299.975-1.648 3.032-4.123 2.174-1.306-.457-1.477-1.847-.5-3.352.92-1.413 5.034-.148 4.623 1.178z" fill="#E8D2BC"/><path d="M243.101 164.608c.411-.506.799-1.029 1.157-1.568a9.823 9.823 0 00.929-1.676l.085-.228a2.44 2.44 0 00.052-.212c.032-.153.055-.313.083-.471l.162-.961c.109-.639.242-1.281.415-1.915.022.655-.001 1.311-.068 1.963-.03.327-.076.651-.124.975a9.032 9.032 0 01-.096.491 1.712 1.712 0 01-.075.26l-.1.228a8.042 8.042 0 01-1.062 1.681c-.41.517-.864.996-1.358 1.433z" fill="#CFCFCF"/><path d="M245.406 191.509c.829.947-.685 2.6-2.329 3.15-1.643.551-3.347-.57-3.744-1.764-.397-1.194.546-2.414 2.222-2.859 1.162-.315 3.022.523 3.851 1.473z" fill="#D1D1D1"/><path d="M245.08 191.85c.828.947-.685 2.598-2.329 3.148-1.644.55-3.347-.571-3.744-1.763-.398-1.191.543-2.415 2.221-2.86 1.162-.308 3.023.525 3.852 1.475z" fill="#DBAF85"/><path d="M243.29 194.368c-.201.552-1.217.844-2.192.502-.975-.343-1.826-.813-1.454-1.779.094-.228-.26.357 1.509 1.142 1.418.648 2.226-.107 2.137.135z" fill="#E8D2BC"/><path d="M241.11 190.508c.502 1.5-.726 3.618-2.813 4.26-1.555.479-4.875-1-5.146-2.018-.409-1.53.723-2.907 2.794-3.599 2.071-.691 4.662-.146 5.165 1.357z" fill="#D1D1D1"/><path d="M240.756 190.717c.5 1.5-.729 3.621-2.813 4.263-1.555.479-4.875-1-5.149-2.021-.406-1.527.726-2.904 2.797-3.596 2.071-.691 4.662-.146 5.165 1.354z" fill="#D6AB82"/><path d="M239.973 192.69c-.334.913-1.774 1.493-3.099 1.027-1.324-.465-2.477-1.141-1.853-2.76.308-.778 5.242.936 4.952 1.733z" fill="#E8D2BC"/><path d="M234.904 164.046a1.85 1.85 0 011.142-.228 6.12 6.12 0 011.141.196c.746.202 1.46.51 2.119.913-.76-.143-1.484-.363-2.212-.557a17.23 17.23 0 00-1.089-.264 2.674 2.674 0 00-1.101-.06zm23.886 13.968a9.797 9.797 0 001.16-2.408c.13-.429.221-.87.269-1.315.059-.45.095-.903.108-1.356h.027c.077.915.027 1.837-.146 2.739a4.454 4.454 0 01-.541 1.281 4.903 4.903 0 01-.856 1.078l-.021-.019zm-3.674 6.296a6.01 6.01 0 001.041-1.283 6.44 6.44 0 00.608-1.55h.018a6.284 6.284 0 01-.48 1.626 3.122 3.122 0 01-1.178 1.216l-.009-.009z" fill="#CFCFCF"/><path d="M265.068 165.273c1.934-1.714 4.9-3.639 6.373-4.838-3.393-2.283-14.724-10.031-16.377-11.872a46.459 46.459 0 01-4.391 4.338c3.948.313 11.5 7 14.395 12.372z" fill="#E6E6E6"/><path d="M288.694 146.834l-21.445 22.112c1.682-5.304-13.749-18.173-17.87-15.753l24.116-27.696 15.199 21.337z" fill="#F0F0F0"/><path d="M273.516 125.319l15.183 21.515-18.66 19.23c-1.267-7.063-12.989-16.134-18.215-16.193l21.692-24.552z" fill="#E6E6E6"/><path d="M330.888 103.404l-59.31 64.439c2.915-7.911-15.795-20.776-20.354-18.082l74.018-83.447 5.646 37.09z" fill="#4D4D4D"/><path d="M270.356 161.449c1.352 2.228 1.934 4.459 1.221 6.393l59.311-64.439-1.007-6.621-59.525 64.667z" fill="#404040"/><path d="M279.308 156.557a.949.949 0 01-.409.16c-.509.06-.767-.486-.575-1.217.126-.51.43-.959.856-1.267a.954.954 0 01.407-.157c.509-.06.767.486.577 1.214-.126.511-.43.96-.856 1.267zm-2.536 2.775a.98.98 0 01-.407.157c-.509.057-.767-.486-.577-1.217.128-.51.432-.959.858-1.267a.985.985 0 01.407-.16c.509-.057.767.489.577 1.22-.128.51-.432.958-.858 1.267zm-2.446 2.881a.962.962 0 01-.406.16c-.509.057-.767-.489-.578-1.217.128-.51.431-.96.857-1.269a.977.977 0 01.406-.158c.511-.057.769.486.58 1.217-.128.51-.432.959-.859 1.267z" fill="#E8BB46"/><path d="M182.505 208.048l-8.434-23.374 42.966-15.648c4.566-.628 10.219 18.627 7.671 23.545l-42.203 15.477z" fill="#F0F0F0"/><path d="M131.881 229.419l-10.123-26.974 90.477-32.442c4.45-.021 14.368 23.497 10.123 26.974l-90.477 32.442z" fill="#454545"/><path d="M131.881 229.419l-10.123-26.974 90.477-32.442c4.45-.021 14.368 23.497 10.123 26.974l-90.477 32.442z" fill="#454545"/><path d="M133.81 223.634l-8.447-22.486-3.612 1.297 10.123 26.974 90.477-32.442c1.026-.838 1.222-2.845.875-5.406l-89.416 32.063z" fill="#363636"/><path d="M215.582 196.719a.92.92 0 00.046.379c.125.354.479.434.87.244.139-.069.267-.158.379-.265.383-.345.626-.818.685-1.331a.955.955 0 00-.044-.379c-.128-.354-.479-.436-.872-.246-.138.07-.266.159-.379.264a2.12 2.12 0 00-.685 1.334zm-3.297 1.175a.938.938 0 00.046.379c.128.354.479.436.87.247.138-.071.267-.16.381-.265.382-.347.626-.821.685-1.334a.92.92 0 00-.046-.379c-.125-.353-.479-.433-.87-.246-.138.071-.266.16-.381.265a2.147 2.147 0 00-.685 1.333zm6.592-2.351a.906.906 0 00.045.376c.128.354.48.436.87.247.139-.07.267-.159.381-.265.383-.347.626-.82.685-1.333a.92.92 0 00-.045-.379c-.126-.354-.48-.434-.87-.245-.14.07-.268.159-.381.265a2.135 2.135 0 00-.685 1.334z" fill="#E8BB46"/><path d="M241.582 166.224a3.3 3.3 0 012.19-1.694 7.434 7.434 0 012.84-.011c.928.17 1.843.403 2.739.696a23.579 23.579 0 017.498 3.867c.754.56 1.523 1.071 2.315 1.578.391.258.781.52 1.155.804.375.283.779.573.943 1.022a1.383 1.383 0 00-.436-.532 6.882 6.882 0 00-.561-.415c-.386-.258-.79-.496-1.192-.731a30.956 30.956 0 01-2.381-1.497 40.43 40.43 0 00-2.354-1.509c-.8-.472-1.63-.89-2.484-1.254-1.713-.698-3.48-1.349-5.295-1.703a7.201 7.201 0 00-2.74-.11c-.45.083-.879.253-1.264.5-.385.264-.715.6-.973.989z" fill="#CFA57D"/><path d="M325.242 66.314l-15.425 17.383c4.585 12.41 4.389 30.013.119 42.464l20.945-22.757-5.639-37.09z" fill="#BFBFBF"/><g style="mix-blend-mode:multiply" fill="#E6E6E6"><path d="M395.301 168.046c11.187 6.456 3.489 21.429-17.182 33.442-20.672 12.013-46.496 16.518-57.678 10.061-11.183-6.456-3.487-21.424 17.187-33.437 20.673-12.014 46.495-16.52 57.673-10.066z"/><path d="M452.283 186.354a2.282 2.282 0 00-1.025-.27c-15.881-.75-28.603-3.899-38.164-9.447l-.343-.201.477-.276c.523-.304.518-.792 0-1.096l-6.445-3.721a2.08 2.08 0 00-1.895 0l-4.034 2.344-.749-.431a3.323 3.323 0 00-3.016 0l-5.046 2.933c-.828.482-.824 1.265.012 1.747l.749.432-4.035 2.344c-.522.304-.516.795 0 1.098l6.448 3.722a2.08 2.08 0 001.89 0l.477-.279c8.352 5.731 13.891 13.21 16.526 22.495a.933.933 0 00.456.527 2.558 2.558 0 002.338 0l13.799-8.018.913.532a3.323 3.323 0 003.016 0l5.048-2.933c.831-.484.822-1.265-.013-1.747l-.914-.532 13.532-7.865c.706-.404.608-1.009-.002-1.358z"/></g><path d="M382.683 170.455c.18-.112.424-.256.6-.372.212-.142.493-.333.685-.493.342-.276.79-.66 1.116-.957.183-.164.409-.404.578-.582a16.442 16.442 0 002.295-3.098 16.732 16.732 0 001.527-3.507c.066-.228.158-.525.208-.756.093-.429.208-1.004.274-1.438a11.3 11.3 0 00.109-1.623c0 .516-.36 1.05-1.075 1.463.011 3.569-2.511 7.927-5.612 9.719.009.82-.265 1.391-.705 1.644z" fill="#B365CA"/><path d="M328.516 201.728l5.415-3.127 5.418-3.128 5.416-3.128 5.417-3.125 5.416-3.128 5.418-3.128 5.415-3.128 5.418-3.128 5.416-3.127 5.417-3.128c.441-.254.715-.829.713-1.644l-54.167 31.278c-.005.822-.272 1.386-.712 1.641z" fill="#9353A6"/><path d="M318.374 196.66l.555.322c1.224.71 3.308.658 4.651-.119 0 3.573 2.543 5.023 5.648 3.22 0 .817-.272 1.39-.712 1.643-.249.14-.582.32-.84.439a9.613 9.613 0 01-.914.365 12.68 12.68 0 01-1.13.299 7.672 7.672 0 01-.956.114c-.344.02-.688.011-1.03-.025a8.978 8.978 0 01-.977-.18 3.93 3.93 0 01-.519-.169 11.86 11.86 0 01-.876-.416l-.553-.322a5.698 5.698 0 01-1.166-.89 9.064 9.064 0 01-.646-.753 6.17 6.17 0 01-.489-.783c-.159-.32-.302-.648-.427-.982a7.605 7.605 0 01-.251-.872 7.925 7.925 0 01-.146-.809 19.609 19.609 0 01-.085-1.312c.007.456.297.897.863 1.23z" fill="#B365CA"/><path d="M390.082 157.629l-.039-13.427-.036-13.429-.039-13.426-.039-13.427-.036-13.427-.039-13.426-.039-13.427-.037-13.426-.038-13.427-.039-13.427c0 .516-.361 1.05-1.076 1.464l.382 134.268c.719-.42 1.077-.947 1.075-1.463z" fill="#9353A6"/><path d="M379.543 16.625a8.68 8.68 0 01.914-.366 12.98 12.98 0 011.13-.299 7.95 7.95 0 01.956-.114 6.44 6.44 0 011.03.025c.329.042.655.102.977.18.177.044.35.1.519.17.15.061.324.141.495.228.131.056.258.12.381.192l.555.322c.425.244.817.544 1.164.89.23.24.446.49.649.753.182.248.344.51.486.783.16.32.303.648.429.982a8.25 8.25 0 01.395 1.68c.044.393.073.914.087 1.313 0 .516-.361 1.05-1.075 1.464 0-3.571-2.541-5.023-5.649-3.22 0-1.543-1-3.374-2.223-4.084l-.555-.322c-.578-.335-1.103-.363-1.496-.137.238-.141.573-.322.831-.44z" fill="#B365CA"/><path d="M317.995 62.392l.553.322c1.226.712 3.308.66 4.653-.117l.379 134.266c-1.343.776-3.425.829-4.651.119l-.555-.322c-.573-.333-.856-.776-.856-1.231l-.039-13.426-.039-13.427-.038-13.426-.037-13.427-.039-13.427-.039-13.426-.036-13.429-.039-13.427-.039-13.426-.036-13.427c0 .457.285.897.858 1.23zm60.708-45.33c.393-.229.913-.199 1.495.137l.555.322c1.224.71 2.219 2.54 2.224 4.084l-54.164 31.278c0-1.546-1.003-3.375-2.226-4.087l-.56-.326c-.577-.336-1.103-.363-1.495-.135l54.171-31.273z" fill="#9353A6"/><path d="M328.813 52.878c-3.108 1.79-5.624 6.15-5.612 9.719l.379 134.266c0 3.573 2.543 5.022 5.648 3.219l54.167-31.278c3.107-1.792 5.623-6.15 5.612-9.719l-.382-134.268c0-3.57-2.541-5.023-5.648-3.22l-54.164 31.28z" fill="#fff"/><path d="M317.244 59.538c.069-.434.18-1.01.276-1.438.051-.229.142-.53.206-.756a16.78 16.78 0 011.529-3.505 16.514 16.514 0 012.284-3.1c.171-.178.397-.418.579-.584.327-.295.772-.685 1.117-.955.199-.16.479-.351.685-.493.205-.141.422-.26.603-.372.392-.228.913-.2 1.495.135l.555.322c1.224.712 2.221 2.54 2.226 4.086-3.107 1.79-5.623 6.15-5.612 9.72-1.345.776-3.425.828-4.653.116l-.553-.322c-.573-.334-.858-.774-.858-1.23.003-.544.044-1.086.121-1.624z" fill="#B365CA"/><path d="M350.523 45.367c-.352.203-.635.041-.637-.36a1.399 1.399 0 01.632-1.097l11.16-6.442c.349-.201.635-.04.635.363a1.38 1.38 0 01-.63 1.093l-11.16 6.443z" fill="#A764A7"/><path d="M329.984 56.323c-2.103 1.215-3.808 4.167-3.801 6.584l.365 130.972c0 2.415 1.724 3.395 3.829 2.18l52.228-30.154c2.103-1.215 3.808-4.169 3.801-6.585l-.367-130.971c0-2.416-1.722-3.393-3.824-2.18l-12.507 7.22c0 1.96-1.34 4.288-3.005 5.252l-21.189 12.235c-1.665.96-3.019.19-3.023-1.724l-12.507 7.171z" fill="#40DFFF"/><path d="M356.735 43.378l30.845 17.073V26.94l-6.758-3.082-24.087 19.52zm-32.798 77.219l62.707 30.313 1.83-21.398-62.104-30.427-2.433 21.512zm2.069 13.01l59.537 29.67 2.183-4.409-61.356-30.674-.364 5.413z" fill="#616161"/><g style="mix-blend-mode:multiply" fill="#D9D9D9"><path d="M376.829 96.548c-1.914-4.294-3.226-8.365-6.528-8.447.254.381.592 1.285.9 2.546l-15.235-1.598c-.135-3.13-.457-4.955-1.007-4.338-1.413 1.566-3.845 3.94-5.573 4.443-4.92 1.431-8.482 2.111-9.667 7.376-1.276 5.653-3.084 55.188-3.084 55.188.684 5.327 29.054.085 34.666-11.125 6.578-13.146 10.331-33.264 5.528-44.045z"/><path d="M337.269 90.866c-2.883.306-7.972 1.242-7.972 1.242-5.213.258-4.706 11.835.881 12.737 0 0 5.936-.626 9.701-.954l-2.61-13.025zm34.338-1.717l-10.274 2.034s-5.666-7.365-4.246-9.653c-.793-1.678-3.569-6.123-3.569-6.123l13.265-6.417 4.824 20.159zm-17.381 61.784l-17.304.924c-2.616 5.313-2.739 12.539-2 17.947.664 7.846.385 23.409.385 23.409l6.245-3.606 5.594-3.196 6.604-3.881s2.225-24.663.476-31.597z"/><path d="M357.059 81.505c-1.481 3.781 6.733 8.623 8.888 8.587l-6.153 6.096s-5.684-7.932-4.974-11.258c.331-1.562 2.239-3.425 2.239-3.425zm-7.37-9.425c2.528 4.072 6.149 6.672 10.674 8.33 3.979 1.458 8.701 2.623 11.415 1.225 6.062-3.13 2.722-4.518 2.642-7.616-.105-3.922-1.153-8.735-3.808-13.013-1.971-3.174-4.781-6.706-7.886-7.829-4.384-1.598-10.425.092-13.308 2.59-4.975 4.31-4.482 8.663.271 16.314z"/><path d="M361.817 50.262c1.128.228 1.598.788 2.304 1.972.76 1.288 2.034 2.32 2.525 3.69-1.196-.623-3.196-2.42-3.881-1.103-.514.995-.441 1.142-1.781 2.105-2.482 1.267-4.717-.025-7.534 2.511-2.484 2.254-3.774 7.24.456 9.617.197 1.16 1.24 2.436 1.315 4.525-1.041-1.12-2.251-1.646-2.824-1.18-.625.508-.244 2.013.85 3.358a4.467 4.467 0 002.465 1.5c.178 1.269 1.783 1.575 1.989 2.013-3.635-1.157-6.089-3.397-7.368-5.634-3.114-5.448-5.792-10.404-4.356-14.495 1.706-4.845 12.699-9.493 15.84-8.88z"/></g><path d="M394.692 113.534c3.242 5.628 1.418 12.755 1.418 12.755s-7.078-2-10.322-7.627c-3.245-5.628-1.418-12.756-1.418-12.756s7.08 2 10.322 7.628z" fill="#CCC"/><g style="mix-blend-mode:multiply" fill="#D9D9D9"><path d="M367.506 99.957c-.58.554-1.529.664-2.586.646a50.187 50.187 0 00-.272-10.475l2.614-.068c.648 3.602.753 6.534.244 9.897z"/><path d="M370.659 85.307s-.196.867-.34 1.42c-.632 2.422-4.367 3.358-4.367 3.358l4.166 4.89s2.023-2.643 2.041-5.557c.005-.835-1.5-4.111-1.5-4.111z"/></g><path d="M388.584 115.481c-1.778-3.892 6.393-10.486 9.219-4.44 2.089 4.472 5.185 10.618 6.583 14.655.52 1.499-1.642 9.54-4.642 7.209-3-2.331-9.79-14.428-11.16-17.424z" fill="#F5BC98"/><path d="M401.575 117.806c1.059 4.073-7.991 7.6-9.852 5.436 0 0-8.732-14.655-8.856-17.374-.37-8.237 7.117-9.215 9.534-5.737 2.64 3.789 9.174 17.675 9.174 17.675z" fill="#C51341"/><path d="M411.022 107.46s-6.822 9.313-9.258 12.053c-.397 1.716-3.31 15.673.245 13.595 1.048-.612 15.249-23.844 15.249-23.844-1.096-3.363-3.345-3.278-6.236-1.804z" fill="#FFC49E"/><path d="M417.911 106.176c0 2.438-1.578 4.413-3.525 4.413-1.948 0-3.304-1.301-3.304-3.737s1.356-5.089 3.304-5.089c1.947 0 3.525 1.975 3.525 4.413zM304.847 75.683s10.922 21.69 17.02 23.822c1.664.58 4.795-3.697 2.995-9.36-.659-2.087-14.611-18.188-14.611-18.188-3.526-.148-5.768.503-5.404 3.726z" fill="#FFC49E"/><path d="M305.767 61.944c.045 1.073.822 2.64.655 3.004-.082.058-1.322-.977-2.326-2.7-1.188-2.055-1.507-2.788-1.877-2.991-1.731-1.612-5.226 2.593-5.525 3.148-1.11 2.069.066 5.566.913 7.15.947 1.775 3.525 3.852 4.774 4.338.822.327 2.934 3.067 3.358 3.603 1.694 2.14 6.137-3.023 5.35-4.381-.713-1.251-.872-2.11-.594-3.274.516-2.173-.648-5.089-1.068-5.516-.914-.931-1.637-3.089-1.77-3.997a.426.426 0 00-.166-.292.434.434 0 00-.325-.085c-.737.128-1.459.64-1.399 1.993z" fill="#FFC49E"/><path d="M385.714 94.945l-10.477.016s-4.139-8.322-2.306-10.292c-.456-1.8-2.322-6.694-2.322-6.694l14.254-3.742.851 20.712z" fill="#EDB693"/><path d="M373.744 144.558l-19.302 6.938c2.137 7.701 7.707 26.239 7.707 26.239l6.458-3.767 4.68-2.625 4.319-2.553s-2.302-18.726-3.862-24.232z" fill="#8C622B"/><path d="M368.41 150.263l-25.363-2.954c-2.561 5.338-3.299 15.1-2.511 20.502.835 8.83.512 22.093.512 22.093l3.814-2.238 8.905-5.136 5.719-3.311s.689-5.633.886-8.415c.616-8.708 5.05-16.899 8.038-20.541z" fill="#A37333"/><path d="M392.397 102.018c-.279-4.692-4.539-7.634-7.763-8.358.174.422.332 1.37.391 2.673l-14.639-4.51c.47-3.097.511-4.948-.153-4.45-1.69 1.264-4.53 3.125-6.325 3.285-5.102.456-8.728.436-10.908 5.374-2.34 5.301-3.455 23.166-4.587 30.796-1.543 10.411-6.409 15.297-6.066 21.004.324 5.363 27.242 6.466 32.703-.292 2.63-3.258-.393-9.452 1.664-15.347 6.24-17.885 16.046-24.079 15.683-30.175z" fill="#941A3A"/><path d="M379.609 104.762c-.685.429-1.63.356-2.664.135a50.116 50.116 0 001.751-10.331l2.58.436c-.059 3.66-.518 6.557-1.667 9.76z" fill="#A01D3F"/><path d="M372.913 84.648c-2.185 3.425 4.943 9.758 7.066 10.139l-7.214 4.794s-4.051-8.883-2.708-12.018c.623-1.46 2.856-2.915 2.856-2.915zm12.614 6.343s-.361.815-.607 1.329c-1.089 2.256-4.934 2.454-4.934 2.454l3.146 5.603s2.495-2.206 3.073-5.062c.164-.817-.678-4.324-.678-4.324z" fill="#C51341"/><path d="M367.497 73.97c1.697 4.482 4.747 7.733 8.868 10.23 3.623 2.199 8.032 4.251 10.959 3.402 6.552-1.904 3.543-3.909 4.059-6.966.655-3.867.553-8.791-1.228-13.497-1.322-3.493-3.397-7.5-6.231-9.2-3.993-2.4-10.244-1.918-13.557-.023-5.703 3.269-6.059 7.634-2.87 16.054z" fill="#FFC49E"/><path d="M383.605 54.9c1.064.434 1.42 1.083 1.879 2.382.497 1.408 1.548 2.666 1.767 4.11-1.055-.843-2.681-2.992-3.601-1.827-.685.876-.653 1.038-2.15 1.721-2.683.767-4.626-.931-7.872 1.027-2.873 1.733-5.099 6.375-1.409 9.523-.032 1.176.746 2.628.418 4.694-.804-1.3-1.893-2.055-2.541-1.703-.713.379-.631 1.929.185 3.459a4.47 4.47 0 002.13 1.947c-.071 1.279 1.445 1.888 1.561 2.36-3.34-1.837-5.319-4.508-6.141-6.951-2.007-5.936-3.678-11.324-1.482-15.068 2.6-4.438 14.292-6.881 17.256-5.674z" fill="#523C2F"/><path d="M351.856 90.388c-2.889-.256-8.22-.705-8.22-.705-5.164-.754-6.965 11.299-1.659 13.262 0 0 6.011-.066 9.771.338l.108-12.895z" fill="#BF2E4B"/><path d="M347.609 90.638c4.208.785 4.751 12.602-1.826 11.438-6.055-1.073-22.067-1.197-23.973-2.591-1.906-1.395 1.281-9.31 3.217-9.445 4.6-.316 18.995-.074 22.582.598z" fill="#FFC49E"/><path d="M341.97 102.945c3.715-.286 5.375-12.365 1.66-13.262 0 0 13.059.2 15.356 1.662 6.952 4.433-.593 12.837-4.931 12.397-4.598-.468-12.085-.797-12.085-.797z" fill="#C51341"/><path d="M414.931 107.776a.194.194 0 01.094-.025c.033 0 .065.009.094.025l.367.164a.318.318 0 00.308 0l-3.566 2.354a.318.318 0 01-.308 0l-.368-.167a.193.193 0 00-.187 0l3.566-2.351zm6.829 3.637l-3.566 2.354.066.705a.21.21 0 01-.007.111.207.207 0 01-.064.09l3.566-2.347a.2.2 0 00.071-.201l-.066-.712z" fill="#C23636"/><path d="M421.141 110.794l.329.183a.62.62 0 01.29.445l-3.566 2.354a.628.628 0 00-.092-.262.635.635 0 00-.198-.195l-.329-.182 3.566-2.343z" fill="#DB3C3C"/><path d="M416.929 110.219c-.155-2.854-.272-7.192-.279-7.42l3.567-2.345c0 .228.123 4.566.278 7.42.062 1.142.119 1.81.162 2.201a1.05 1.05 0 00.484.728l-3.561 2.345a1.04 1.04 0 01-.484-.728c-.048-.391-.105-1.062-.167-2.201z" fill="#C23636"/><path d="M411.271 110.942a.61.61 0 00.311.505l6.404 3.226c.167.084.292 0 .274-.192l-.066-.706a.624.624 0 00-.29-.456l-.329-.183a1.05 1.05 0 01-.484-.728c-.043-.39-.1-1.062-.162-2.201-.155-2.854-.272-7.191-.279-7.42l-5.794-2.92c.075.117 1.543 2.322 1.715 4.317.299 3.478-.115 4.847-.229 5.882-.025.228-.203.319-.427.228l-.367-.167c-.144-.064-.254 0-.258.155l-.019.66z" fill="#ED4343"/><path d="M416.65 102.799l3.567-2.354-5.795-2.92-3.566 2.354 5.794 2.92z" fill="#DBDBDB"/><path d="M419.121 104.058c.016.057.354 1.116.719 2.011.23.528.518 1.029.859 1.493.116.16.127.345.034.406l-1.409.932c.091-.062.08-.247-.036-.409a7.697 7.697 0 01-.859-1.491c-.365-.895-.701-1.956-.719-2.011l1.411-.931z" fill="#B53333"/><path d="M417.71 104.988l.192 3.57c.092.094.199.172.317.229.331.161.707.206 1.066.128.13-.035.133-.245 0-.425a7.805 7.805 0 01-.858-1.491c-.363-.895-.699-1.956-.717-2.011z" fill="#ED4343"/><path d="M418.493 102.281l.183.934a1.265 1.265 0 00.623.947l-9.525-4.833a1.262 1.262 0 01-.624-.947l-.182-.934 9.525 4.833z" fill="#696969"/><path d="M423.564 98.95l-9.525-4.833-5.078 3.33 9.525 4.834 5.078-3.331z" fill="#DCDCDC"/><path d="M418.493 102.281l.182.934c.206 1.055 1.08 1.37 2.055.726l3.023-1.982-.18-3.009-5.08 3.331z" fill="#525252"/><path d="M407.032 91.616l.1.057-.1-.057z" fill="#fff"/><path d="M405.808 87.92c.046-.203.091-.413.148-.585.028-.086.062-.203.094-.287.146-.38.146-.38.228-.567.085-.185.178-.367.281-.543.044-.082.11-.185.158-.262.048-.078.228-.331.358-.51a5.91 5.91 0 01.409-.472 4.48 4.48 0 01.456-.432c.067-.052.153-.123.229-.17.075-.049.212-.15.308-.204.211-.13.435-.238.669-.322a2.99 2.99 0 01.95-.173h.196a2.322 2.322 0 01.906.25c-.584-.296-1.369-.216-2.201.316-1.705 1.082-3.011 3.612-2.92 5.653.044.972.395 1.657.936 1.993l-.134-.083a2.366 2.366 0 01-.439-.383 2.663 2.663 0 01-.504-.827 3.308 3.308 0 01-.165-.568c-.02-.1-.038-.228-.052-.338-.014-.11-.014-.185-.018-.262a5.184 5.184 0 01.107-1.224z" fill="#F34545"/><path d="M409.004 83.964c.838-.532 1.617-.612 2.201-.315l2.769 1.404c-.586-.297-1.369-.215-2.2.317-1.706 1.08-3.012 3.612-2.92 5.653.045 1.036.442 1.749 1.047 2.055l-2.769-1.404c-.603-.309-1.002-1.019-1.048-2.055-.091-2.044 1.222-4.573 2.92-5.655z" fill="#F0F0F0"/><path d="M406.032 93.089v-.591c0-.179.018-.457.041-.667.043-.377.116-.88.182-1.251a8.92 8.92 0 01.151-.671c.108-.436.24-.866.393-1.288.073-.192.162-.457.242-.635.08-.178.187-.44.274-.628a15.5 15.5 0 01.301-.614 14.817 14.817 0 011.897-2.835c.128-.149.304-.343.439-.484.135-.142.349-.35.502-.498.185-.18.379-.35.582-.51.277-.214.649-.497.946-.684.18-.112.426-.256.614-.356.132-.071.315-.16.456-.228.263-.118.533-.218.809-.302.125-.034.289-.084.415-.11a8.42 8.42 0 01.644-.11c.312-.033.627-.037.941-.013a4.384 4.384 0 011.189.263 25.169 25.169 0 011.47.6c.624.274.836.377 1.222.564.319.153.609.308.845.434.31.164.488.272.842.486.144.087.327.208.457.302a8.13 8.13 0 011.011.808c.12.11.233.227.34.35.167.202.379.48.525.698.18.297.332.61.457.933.133.348.236.706.308 1.071.069.356.112.84.142 1.201a10.64 10.64 0 01-.103 1.954 13.485 13.485 0 01-.457 1.984c-.064.197-.141.457-.228.658-.087.2-.169.456-.249.65-.08.195-.187.457-.278.642-.092.185-.213.443-.309.63-.095.187-.228.432-.335.614-.107.183-.356.621-.747 1.176-.118.17-.283.393-.408.555-.126.162-.304.372-.432.53a7.882 7.882 0 01-.457.502c-.274.288-.664.641-.958.913a5.809 5.809 0 01-.514.402 8.92 8.92 0 01-.811.534c-.342.187-.694.355-1.054.505a4.213 4.213 0 01-.523.173c-.34.087-.684.151-1.032.192a4.221 4.221 0 01-.503.018 7.19 7.19 0 01-.803-.071 6.797 6.797 0 01-.571-.118c-.274-.073-.632-.19-.902-.281-.029 0-.322-.11-.897-.363a19.373 19.373 0 01-.858-.409s-.297-.146-.822-.434a25.166 25.166 0 01-.768-.433 26.499 26.499 0 01-1.479-.927 3.565 3.565 0 01-.269-.21 4.715 4.715 0 01-.975-1.153 5.669 5.669 0 01-.505-1.064 5.48 5.48 0 01-.135-.42c-.059-.228-.134-.55-.175-.788a9.031 9.031 0 01-.08-1.196zm12.758 6.62c3.381-2.143 5.975-7.163 5.792-11.214-.18-4.047-3.066-5.593-6.448-3.45-3.381 2.144-5.972 7.167-5.792 11.215.181 4.048 3.069 5.591 6.448 3.447v.003z" fill="#ED4343"/><path d="M421.155 97.714c-.13.157-.312.356-.456.502-.274.288-.665.642-.959.913a5.791 5.791 0 01-.514.402 8.955 8.955 0 01-.81.534c-.343.187-.695.355-1.055.505a4.391 4.391 0 01-.523.174 8.01 8.01 0 01-1.032.191 4.013 4.013 0 01-.502.019 7.455 7.455 0 01-.804-.071 6.884 6.884 0 01-.571-.119 15.132 15.132 0 01-.901-.281c-.03 0-.322-.109-.898-.363-.258-.114-.36-.164-.858-.408 0 0-.297-.147-.822-.434a23.642 23.642 0 01-.767-.434 26.21 26.21 0 01-1.48-.927 3.565 3.565 0 01-.269-.21 4.715 4.715 0 01-.975-1.153 5.796 5.796 0 01-.639-1.484c-.06-.228-.135-.55-.176-.787a9.154 9.154 0 01-.114-1.192V92.5c0-.179.018-.457.041-.667.043-.377.116-.88.183-1.251a8.45 8.45 0 01.15-.671c.062-.229.117-.434.167-.6l6.299 3.172a11.479 11.479 0 00-.527 3.777c.18 4.048 3.068 5.593 6.447 3.45a11.296 11.296 0 002.9-2.781l.061.032a6.784 6.784 0 01-.173.228 8.867 8.867 0 01-.423.525z" fill="#E6E6E6"/><path d="M418.135 85.043c1.614-1.023 3.114-1.205 4.262-.685 2.888 1.772 6.105 3.153 7.943 4 .548.242 1.281.564 1.849.756.336.11.779.262 1.119.356.388.107.913.246 1.301.315.268.046.624.112.893.141.349.047.701.075 1.053.083h.639c.183 0 .509-.041.728-.067a3.951 3.951 0 00.715-.164 6.332 6.332 0 00-.272.14c-.08.043-.176.102-.249.15-.538.354-1.047.752-1.52 1.19-.359.335-.815.805-1.153 1.162-.192.2-.427.488-.61.684.058-.07.109-.147.153-.228.025-.048.06-.107.087-.153a8.01 8.01 0 01-.751.973 35.534 35.534 0 00-5.413 10.664 8.217 8.217 0 01-.338 1.182.88.88 0 01.07-.164 2.32 2.32 0 00.092-.253c-.098.417-.217.975-.297 1.392a15.634 15.634 0 00-.224 1.831c-.016.309-.023.751-.011 1.076 0 .102.011.228.023.34.011.112.034.274.054.388a3.302 3.302 0 00-.166-.42c-.046-.103-.119-.228-.169-.333a5.541 5.541 0 00-.379-.61c-.24-.326-.573-.753-.843-1.057-.269-.304-.584-.598-.842-.847a13.99 13.99 0 00-1.498-1.217c-.621-.441-1.488-.968-2.141-1.356-1.768-.986-4.784-2.765-7.918-4.05-1.142-.635-1.891-2.025-1.98-4.023-.18-4.03 2.414-9.05 5.793-11.196z" fill="#fff"/><path d="M428.909 104.381a7.803 7.803 0 01-.336 1.172 1.51 1.51 0 01.068-.153c.036-.083.066-.168.092-.254-.098.418-.217.975-.297 1.393a15.766 15.766 0 00-.224 1.831c-.016.308-.023.751-.011 1.075a5.323 5.323 0 00.078.728 3.598 3.598 0 00-.167-.42c-.046-.102-.119-.228-.169-.333a5.381 5.381 0 00-.379-.609c-.24-.327-.573-.754-.843-1.058-.269-.303-.584-.598-.842-.847a13.98 13.98 0 00-1.498-1.216c-.621-.441-1.488-.968-2.141-1.357-1.767-.986-4.783-2.764-7.918-4.05-1.142-.634-1.891-2.025-1.98-4.022-.027-.854.049-1.708.229-2.544l17.059 8.596a28.166 28.166 0 00-.721 2.068z" fill="#E3E3E3"/><path d="M454.633 110.71c4.893-9.645 4.331-19.76-1.256-22.595-5.586-2.834-14.081 2.687-18.974 12.332-4.893 9.644-4.331 19.76 1.255 22.594 5.587 2.834 14.082-2.687 18.975-12.331z" fill="#D6D6D6"/><path d="M427.625 113.046c0-.432 0-1.007.012-1.441.011-.434.068-1.073.109-1.532.042-.459.112-1.062.197-1.511.166-.914.424-2.105.639-3a35.35 35.35 0 016.502-12.817c.178-.213.411-.503.594-.713.313-.358.735-.83 1.062-1.175a26.8 26.8 0 012.253-2.108c.365-.303.797-.62 1.142-.885a13.24 13.24 0 011.326-.898c.685-.395 1.598-.89 2.315-1.223a13.45 13.45 0 011.354-.514c.322-.107.76-.212 1.087-.304a10.63 10.63 0 011.388-.228 9.468 9.468 0 011.482-.057c.608.042 1.213.118 1.812.228.463.11.917.255 1.357.436.239.09.538.256.771.365.422.227.825.488 1.206.779.371.276.716.585 1.029.925.409.447.787.923 1.131 1.422.264.39.497.8.698 1.226.16.36.377.843.516 1.21.121.32.254.756.347 1.082.128.436.23.879.306 1.327.121.783.228 1.826.297 2.625.018.457.025 1.073.014 1.532-.012.459-.035 1.05-.085 1.498-.05.447-.093 1.039-.169 1.479-.075.441-.166 1.046-.255 1.489-.09.443-.229 1.068-.343 1.523a32.766 32.766 0 01-.913 2.995c-.169.443-.375 1.043-.564 1.477-.19.434-.434 1.025-.635 1.459a35.07 35.07 0 01-.701 1.431c-.44.847-1.089 1.941-1.582 2.758-.246.407-.616.913-.881 1.318-.265.404-1.206 1.662-1.92 2.477-.313.358-.726.84-1.062 1.175a51.446 51.446 0 01-2.167 2.035c-.347.306-.842.685-1.216.954-.375.269-.927.655-1.345.913-.665.4-1.585.875-2.283 1.206-.445.204-.902.379-1.37.522-.318.096-.74.229-1.064.295-.427.091-1.005.178-1.438.242a9.84 9.84 0 01-1.535.048 10.686 10.686 0 01-1.755-.228 7.906 7.906 0 01-1.37-.443 8.766 8.766 0 01-1.235-.633c-.215-.146-.51-.328-.71-.491a10.161 10.161 0 01-.982-.872 14.99 14.99 0 01-.614-.685 17.38 17.38 0 01-.736-1.048 14.626 14.626 0 01-.929-1.878 9.131 9.131 0 01-.438-1.318c-.096-.397-.228-.913-.311-1.326-.082-.413-.137-.913-.191-1.29a14.065 14.065 0 01-.147-1.833zm17.658 8.655c7.418-4.704 13.107-15.719 12.71-24.602-.395-8.884-6.731-12.274-14.155-7.569-7.425 4.706-13.107 15.719-12.71 24.602.397 8.884 6.728 12.272 14.144 7.569h.011z" fill="#F34545"/><path d="M439.603 93.075l-3.359-1.694c.167-.185.336-.368.484-.525.149-.157.393-.402.605-.612l3.395 1.712a27.39 27.39 0 00-1.125 1.12z" fill="#D9D9D9"/><path d="M430.189 113.411a.211.211 0 00.146-.066.211.211 0 00.06-.148c.132-8.135 4.283-16.52 8.313-20.598a.228.228 0 00-.171-.33.228.228 0 00-.14.024c-4.091 4.14-8.303 12.646-8.447 20.897a.226.226 0 00.214.228l.025-.007zm-18.13-14.938h.032a.135.135 0 00.077-.066.136.136 0 00.008-.101c-.879-2.74 0-6.26 1.253-8.532a.12.12 0 00.016-.048.13.13 0 00-.066-.13.132.132 0 00-.178.05c-1.286 2.322-2.178 5.923-1.274 8.742.009.027.028.05.052.065a.125.125 0 00.08.02zm-2.548-14.564c.128-.149.304-.343.438-.484.135-.142.35-.35.503-.498.185-.18.379-.35.582-.51.276-.214.648-.497.945-.684l.228-.132 6.35 3.196a8.572 8.572 0 00-.413.242 10.995 10.995 0 00-2.59 2.37l-6.312-3.165c.089-.118.178-.228.269-.335z" fill="#A3A3A3"/><path d="M429.589 92.444c1.37-.873 2.639-.962 3.559-.402.516.32 10.308 6.367 14.025 8.632-.742-.457-1.762-.379-2.867.322-2.121 1.345-3.749 4.495-3.635 7.036.059 1.37.612 2.283 1.438 2.619-4.02-1.662-14.685-5.993-15.246-6.221-1.025-.425-1.713-1.558-1.788-3.254-.139-3.153 1.879-7.064 4.514-8.733z" fill="#F7F7F7"/><path d="M444.306 100.996c1.105-.701 2.126-.774 2.868-.322a3.619 3.619 0 011.324 1.431c.087.166.164.338.228.514.053.15.098.302.135.457.027.103.05.207.066.312.025.194.052.457.068.649.011.252.006.504-.016.755-.02.243-.055.485-.102.724a7.435 7.435 0 01-.414 1.37c-.041.098-.093.228-.139.324a7.194 7.194 0 01-.155.317l-.169.311a5.628 5.628 0 01-.381.6s-.194.281-.441.567a6.66 6.66 0 01-1.093 1.016 5.286 5.286 0 01-.416.271 6.196 6.196 0 01-.573.295 3.95 3.95 0 01-.541.192c-.187.05-.377.09-.569.118-.137.016-.319.03-.456.035h-.277a4.107 4.107 0 01-.411-.048c-.082-.014-.187-.042-.267-.06a4.068 4.068 0 01-.456-.153c-.827-.342-1.37-1.253-1.439-2.618-.123-2.562 1.505-5.713 3.626-7.057zm1.945 8.068c1.219-.774 2.155-2.584 2.091-4.046-.063-1.461-1.107-2.018-2.326-1.244-1.219.774-2.155 2.585-2.091 4.046.064 1.461 1.107 2.018 2.326 1.244z" fill="#FF5E5E"/><path d="M448 107.221c.66-1.301.584-2.666-.169-3.048-.753-.382-1.899.363-2.559 1.664-.66 1.301-.585 2.665.169 3.047.753.383 1.899-.362 2.559-1.663z" fill="#FF5E5E"/><path d="M445.874 103.302c.662-.422 1.279-.486 1.742-.251.335.171.611.438.793.767.1.177.176.367.228.564a2.3 2.3 0 01.055.246c.018.121.034.286.043.409a3.89 3.89 0 01-.078.963 5.272 5.272 0 01-.73 1.797c-.039.06-.142.229-.283.402a4.278 4.278 0 01-.324.374 3.98 3.98 0 01-.726.601c-.238.157-.5.275-.774.349a2.08 2.08 0 01-1.11.007 2.346 2.346 0 01-.317-.125c-.48-.245-.795-.806-.831-1.628-.071-1.614.958-3.621 2.312-4.475zm.895 5.436c1.003-.637 1.77-2.123 1.715-3.322-.055-1.199-.913-1.655-1.909-1.02-.995.634-1.767 2.12-1.714 3.319.052 1.199.908 1.658 1.908 1.023z" fill="#fff"/><path d="M425.075 101.176a8.439 8.439 0 01.249-2.343l15.448 7.786a6.513 6.513 0 00-.101 1.415c.059 1.37.612 2.283 1.438 2.619-4.02-1.662-14.685-5.993-15.246-6.221-1.025-.427-1.712-1.56-1.788-3.256z" fill="#BFBFBF"/><path d="M448.737 115.319c.03-.002.06-.01.086-.023a.201.201 0 00.069-.057 29.702 29.702 0 003.53-5.377c2.212-4.278 3.333-8.773 3.16-12.657-.126-2.803-.945-5.022-2.306-6.255a4.525 4.525 0 00-3.425-1.128.229.229 0 00.025.436 4.11 4.11 0 013.105 1.016c1.274 1.141 2.042 3.265 2.163 5.95.168 3.808-.937 8.218-3.112 12.44a29.504 29.504 0 01-3.478 5.296.228.228 0 00.181.359h.002z" fill="#A3A3A3"/><path d="M443.835 89.53a20.79 20.79 0 00-2.415 1.8l-3.425-1.72c.315-.288.685-.612.982-.861.333-.276.797-.621 1.141-.886.345-.265.729-.53 1.096-.758a7.803 7.803 0 013.633 1.826c-.327.185-.671.384-1.012.599z" fill="#969696"/><path d="M422.084 107.008c0 2.644-.737 4.208-1.974 5.023-1.535 1.014-4.11-.829-4.11-3.473 0-2.643 2.511-4.047 3.842-4.632 1.163-.504 2.242.436 2.242 3.082z" fill="#FFC49E"/><g style="mix-blend-mode:multiply" fill="#E6E6E6"><path d="M106.724 272.158c7.881 5.283 8.447 12.986.867 17.949-2.87 1.879-6.532 3.115-10.502 3.71-11.737 1.761-18.199 4.856-14.075 17.701 2.255 7.025-.594 14.271-8.882 19.696-14.753 9.662-41.139 9.874-58.934.477a43.974 43.974 0 01-3.956-2.354c-14.123-9.463-15.135-23.26-1.557-32.15 7.646-5.004 18.427-7.465 29.511-7.374 22.167.178 26.21-4.11 27.114-11.271.345-2.706 2.085-5.311 5.316-7.425 8.237-5.393 22.956-5.516 32.892-.269a24.48 24.48 0 012.206 1.31z"/><path d="M144.064 266.807c-.19-.478-2.612-4.203-4.162-3.069-.318.13-.646.685-1.802 2.235-.972 1.297-2.073 2.014-2.134 1.961-.101-.31.685-1.502.815-2.363.178-1.089-.356-1.57-.939-1.735a.357.357 0 00-.433.256c-.192.722-.98 2.395-1.809 3.059-.365.295-1.502 2.382-1.401 4.144a2.354 2.354 0 00-1.119-.114l-1.105.47a2.055 2.055 0 00-1.468-.246s-7.909 4.226-19.608 7.6c-9.817 2.831-20.034 3.482-22.997 3.986-4.149.706-7.466 3.534-8.073 8.201-.302 2.301 1.497 5.201 4.582 5.071 4.025-.172 17.925-2.361 30.593-6.653 12.982-4.397 21.286-9.53 21.286-9.53a1.86 1.86 0 00.155-.532l1.37-.568c.386-.379.514-1.012.457-1.758.737-.706 1.687-1.555 2.127-1.674 1.055-.28 3.336-1.712 4.27-3.054.806-1.199 2.08-3.911 1.395-5.687z"/><path d="M98.687 272.142l16.879 9.81 47.982-27.702-16.881-9.808-47.98 27.7z"/><path d="M113.014 265.088c.145-.229.254-.479.324-.74l1.103-.516a1.714 1.714 0 00.65-1.48 3.159 3.159 0 011.158-.068c1.26.228 3.281-.484 3.71-.852.945-.81 3.374-1.685 4.228-1.826a.407.407 0 00.34-.309.398.398 0 00.007-.161c-.125-.685-.913-1.427-2.185-1.347-1.011.064-2.477.826-2.824.685-.055-.08.032-.482 1.68-1.487 1.884-1.141 3.813-.105 3.996-.456 1.488-1.662-1.37-4.064-2.391-4.772-1.911-1.32-3.881-1.235-5.479-.71-1.868.61-5.292 3.667-5.235 4.934.016.347-.42.616-.973.84-.685-.377-1.335-.537-1.856-.363l-1.231.427a2.663 2.663 0 00-1.452-.181s-18.395 6.028-23.664 8.621c-4.687 2.308-17.16 11.219-17.16 11.219-6.009 1.827-8.566 8.822-6.47 12.975 1.637 3.246 4.07 3.084 8.744 1.114a148.987 148.987 0 0120.88-14.178c7.444-4.182 17.081-6.803 24.1-11.369z"/></g><path d="M168.187 223.482l-10.603-6.162 1.19.461 10.603 6.162-1.19-.461z" fill="#AA8E23"/><path d="M153.434 248.599l-10.603-6.16-.778-1.091 10.602 6.162.779 1.089z" fill="#CEAC2B"/><path d="M173.765 206.268l-10.603-6.162 1.454-.231 10.603 6.16-1.454.233z" fill="#AA8E23"/><path d="M139.982 260.496l-10.603-6.162-.274-1.591 10.603 6.162.274 1.591z" fill="#CEAC2B"/><path d="M174.815 190.295l-10.603-6.162 1.548-.892 10.603 6.162-1.548.892z" fill="#AA8E23"/><path d="M126.103 267.092L115.5 260.93l.265-1.907 10.603 6.162-.265 1.907z" fill="#CEAC2B"/><path d="M171.239 177.488l-10.602-6.162 1.449-1.446 10.606 6.162-1.453 1.446z" fill="#B59726"/><path d="M113.475 267.564l-10.603-6.162.767-1.982 10.603 6.16-.767 1.984z" fill="#CEAC2B"/><path d="M154.224 161.535l10.603 6.164-.194-.112-10.603-6.164.194.112z" fill="#fff"/><path d="M164.633 167.576l-10.603-6.164.194.111 10.603 6.165-.194-.112z" fill="#999"/><path d="M163.452 169.409l-10.603-6.16 1.18-1.826 10.606 6.162-1.183 1.824z" fill="#CEAC2B"/><path d="M158.596 167.528l-10.603-6.164a18.986 18.986 0 014.856 1.881l10.603 6.164a18.899 18.899 0 00-4.856-1.881z" fill="#997F20"/><path d="M108.012 265.417l-10.603-6.164a19.681 19.681 0 01-4.4-3.505l10.603 6.164a19.583 19.583 0 004.4 3.505z" fill="#AA8E23"/><path d="M103.612 261.909l-10.603-6.159 1.18-1.829 10.603 6.162-1.18 1.826z" fill="#CCAA2C"/><path d="M104.795 260.083l-10.603-6.165a21.892 21.892 0 01-3.196-4.456l10.602 6.164a21.844 21.844 0 003.197 4.457z" fill="#997F20"/><path d="M152.427 166.987l-10.603-6.162.77-1.984 10.602 6.162-.769 1.984z" fill="#CEAC2B"/><path d="M153.196 165.003l-10.602-6.164a23.179 23.179 0 016.164.541l10.603 6.164a23.183 23.183 0 00-6.165-.541z" fill="#AA8E23"/><path d="M146.47 167.923l-10.602-6.164a28.779 28.779 0 015.956-.936l10.603 6.164a28.866 28.866 0 00-5.957.936z" fill="#997F20"/><path d="M100.146 257.072l-10.603-6.164a29.414 29.414 0 01-2.461-6.274l10.603 6.164a29.382 29.382 0 002.461 6.274z" fill="#B59725"/><path d="M97.685 250.797l-10.603-6.162 1.452-1.445 10.603 6.162-1.452 1.445z" fill="#CCAA2C"/><path d="M99.137 249.353l-10.602-6.165a37.812 37.812 0 01-1.115-6.534l10.603 6.165c.18 2.206.553 4.392 1.114 6.534z" fill="#997F20"/><path d="M139.459 170.553l-10.603-6.161.263-1.902 10.603 6.162-.263 1.901z" fill="#CEAC2B"/><path d="M139.726 168.651l-10.603-6.164a40.321 40.321 0 017.014-2.63l10.602 6.164a40.18 40.18 0 00-7.013 2.63z" fill="#B59725"/><path d="M133.126 174.211l-10.603-6.164c1.046-.7 2.101-1.36 3.167-1.979a48.506 48.506 0 013.166-1.678l10.603 6.164a49.015 49.015 0 00-3.167 1.678 57.619 57.619 0 00-3.166 1.979z" fill="#997F20"/><path d="M96.475 243.712l-10.603-6.165a48.95 48.95 0 01-.171-3.995 54.5 54.5 0 01.148-4.178l10.603 6.164a54.593 54.593 0 00-.148 4.181c.004 1.379.061 2.71.171 3.993z" fill="#C1A127"/><path d="M96.452 235.535l-10.603-6.162 1.546-.893 10.603 6.162-1.546.893z" fill="#A88C23"/><path d="M97.998 234.644l-10.603-6.165a63.84 63.84 0 011.075-7.801l10.603 6.164a63.855 63.855 0 00-1.075 7.802z" fill="#997F20"/><path d="M126.123 179.67l-10.602-6.16-.272-1.593 10.6 6.161.274 1.592z" fill="#D6B329"/><path d="M125.849 178.078l-10.602-6.164a67.41 67.41 0 017.004-5.461l10.603 6.164a67.802 67.802 0 00-7.005 5.461z" fill="#C1A127"/><path d="M120.182 185.612l-10.593-6.164a77.495 77.495 0 015.936-5.936l10.603 6.164a78.171 78.171 0 00-5.946 5.936z" fill="#997F20"/><path d="M97.619 227.072l-10.603-6.165a79.55 79.55 0 012.418-9.086l10.603 6.164a79.644 79.644 0 00-2.418 9.087z" fill="#D2B02B"/><path d="M100.036 217.988l-10.602-6.162 1.454-.233 10.603 6.162-1.455.233z" fill="#B09225"/><path d="M101.491 217.756l-10.603-6.165a89.027 89.027 0 013.158-8.123l10.602 6.164a87.3 87.3 0 00-3.157 8.124zm7.717-17.028l-10.603-6.164a94.099 94.099 0 014.829-7.477l10.602 6.164a96.232 96.232 0 00-4.828 7.477z" fill="#997F20"/><path d="M113.262 192.161l-10.602-6.165a91.286 91.286 0 016.141-7.648l10.603 6.164a91.352 91.352 0 00-6.142 7.649z" fill="#D2B02B"/><path d="M114.036 193.252l-10.602-6.162-.774-1.091 10.602 6.161.774 1.092z" fill="#B59724"/><path d="M103.461 209.171l-10.603-6.164a97.367 97.367 0 014.567-8.904l10.602 6.164a97.491 97.491 0 00-4.566 8.904z" fill="#DCB72D"/><path d="M133.105 264.462a40.325 40.325 0 01-7.011 2.631l.265-1.907a28.596 28.596 0 01-5.957.941l-.769 1.984a23.062 23.062 0 01-6.165-.546l.767-1.984a18.821 18.821 0 01-4.856-1.879l-1.182 1.827a19.547 19.547 0 01-4.592-3.617l1.181-1.826a21.83 21.83 0 01-3.197-4.459l-1.452 1.448a29.418 29.418 0 01-2.461-6.274l1.452-1.445a37.878 37.878 0 01-1.114-6.535l-1.548.893a48.994 48.994 0 01-.171-3.995 54.603 54.603 0 01.148-4.18l1.546-.893c.197-2.62.556-5.226 1.075-7.801l-1.454.228a79.616 79.616 0 012.418-9.084l1.454-.229a89.001 89.001 0 013.157-8.125l-1.187-.457a97.597 97.597 0 014.566-8.903l1.19.456a94.463 94.463 0 014.829-7.477l-.774-1.091a90.962 90.962 0 016.141-7.648l.779 1.091a77.857 77.857 0 015.936-5.936l-.274-1.598a67.82 67.82 0 017.005-5.463l.271 1.598a52.999 52.999 0 013.167-1.98 53.02 53.02 0 013.167-1.678l.262-1.902a40.24 40.24 0 017.014-2.63l-.265 1.902a28.855 28.855 0 015.957-.936l.769-1.984c2.07-.096 4.143.086 6.164.541l-.767 1.984a18.972 18.972 0 014.856 1.881l1.181-1.826a19.502 19.502 0 014.593 3.616l-1.18 1.827a21.768 21.768 0 013.196 4.456l1.452-1.445a29.428 29.428 0 012.462 6.269l-1.452 1.446c.56 2.143.933 4.33 1.114 6.538l1.548-.892a49.35 49.35 0 01.171 3.995 56.014 56.014 0 01-.149 4.178l-1.547.893a63.394 63.394 0 01-1.074 7.798l1.455-.228a79.709 79.709 0 01-2.418 9.091l-1.454.229a89.267 89.267 0 01-3.16 8.123l1.189.456a98.388 98.388 0 01-4.566 8.904l-1.189-.457a93.885 93.885 0 01-4.831 7.473l.776 1.091a91.017 91.017 0 01-6.142 7.651l-.778-1.089a76.958 76.958 0 01-5.936 5.936l.274 1.598a67.181 67.181 0 01-7.005 5.461l-.274-1.598a58.08 58.08 0 01-3.164 1.974 49.824 49.824 0 01-3.167 1.681l-.265 1.908z" fill="#FFE373"/><path d="M108.018 200.272l-10.603-6.162 1.188.456 10.605 6.162-1.19-.456z" fill="#AA8E23"/><path d="M160.028 230.232c12.433-21.465 12.432-44.704-.002-51.906-12.435-7.202-32.594 4.361-45.027 25.825-12.433 21.465-12.432 44.704.003 51.906 12.434 7.202 32.593-4.36 45.026-25.825z" fill="#ECC430"/><path d="M110.26 234.695l-.705-.411-.95-1.128.708.411.947 1.128z" fill="#AA8E23"/><path d="M110.246 229.693l-.705-.411 1.614-1.655.706.411-1.615 1.655z" fill="#D1AD2B"/><path d="M110.246 229.693l-.705-.411 1.614-1.655.706.411-1.615 1.655z" fill="#D1AD2B"/><path d="M110.246 229.693l-.705-.411 1.614-1.655.706.411-1.615 1.655zm-2.611 4.328l-.706-.411 1.092-2.18.705.411-1.091 2.18z" fill="#D1AD2B"/><path d="M108.626 229.907l-.708-.413 1.623-.212.706.411-1.621.214z" fill="#AA8E23"/><path d="M108.726 231.842l-.705-.411-.103-1.936.708.413.1 1.934z" fill="#D5B02B"/><path d="M108.626 229.907l-.708-.413 1.623-.212.706.411-1.621.214z" fill="#AA8E23"/><path d="M110.26 234.695l-.947-1.127-1.678.454 1.091-2.18-.1-1.934 1.621-.215 1.614-1.655-.087 2.043 1.101.918-1.676 1.48-.939 2.216z" fill="#FFE066"/><path d="M108.626 229.907l-.708-.413 1.623-.212.706.411-1.621.214zm9.287-21.056l-.708-.411-.947-1.13.705.411.95 1.13z" fill="#AA8E23"/><path d="M117.899 203.844l-.708-.411 1.615-1.65.707.408-1.614 1.653zm-2.611 4.329l-.706-.411 1.087-2.176.705.411-1.086 2.176z" fill="#D1AD2B"/><path d="M116.276 204.06l-.706-.411 1.621-.216.708.411-1.623.216z" fill="#AA8E23"/><path d="M116.374 205.998l-.706-.411-.098-1.936.706.411.098 1.936z" fill="#D5B02B"/><path d="M117.913 208.851l-.95-1.13-1.675.452 1.086-2.176-.098-1.936 1.623-.217 1.615-1.653-.087 2.046 1.096.913-1.674 1.482-.936 2.219z" fill="#FFE066"/><path d="M136.505 189.239l-.706-.411-.947-1.13.707.411.946 1.13z" fill="#AA8E23"/><path d="M136.491 184.233l-.706-.411 1.614-1.651.706.411-1.614 1.651zm-2.61 4.332l-.708-.411 1.092-2.18.705.411-1.089 2.18z" fill="#D1AD2B"/><path d="M134.872 184.447l-.708-.411 1.621-.215.706.411-1.619.215z" fill="#AA8E23"/><path d="M134.97 186.386l-.705-.411-.101-1.938.708.411.098 1.938z" fill="#D5B02B"/><path d="M136.505 189.239l-.946-1.13-1.678.457 1.089-2.18-.098-1.939 1.619-.214 1.614-1.651-.087 2.043 1.101.916-1.676 1.482-.938 2.216z" fill="#FFE066"/><path d="M155.148 187.353l-.708-.411-.945-1.13.706.409.947 1.132z" fill="#AA8E23"/><path d="M155.135 182.344l-.708-.408 1.618-1.653.706.411-1.616 1.65zm-2.608 4.328l-.708-.411 1.087-2.173.708.409-1.087 2.175z" fill="#D1AD2B"/><path d="M153.516 182.561l-.708-.411 1.619-.215.708.409-1.619.217z" fill="#AA8E23"/><path d="M153.614 184.498l-.708-.409-.098-1.938.708.411.098 1.936z" fill="#D1AD2B"/><path d="M155.148 187.353l-.947-1.132-1.674.452 1.087-2.176-.098-1.936 1.619-.217 1.616-1.651-.089 2.046 1.098.911-1.673 1.484-.939 2.219z" fill="#FFE066"/><path d="M162.922 204.292l-.708-.411-.945-1.13.706.411.947 1.13z" fill="#AA8E23"/><path d="M162.906 199.29l-.705-.411 1.618-1.657.706.411-1.619 1.657zm-2.609 4.328l-.708-.409 1.091-2.182.708.411-1.091 2.18z" fill="#D1AD2B"/><path d="M161.287 199.502l-.705-.411 1.619-.213.705.411-1.619.213z" fill="#AA8E23"/><path d="M161.388 201.439l-.708-.411-.098-1.936.705.411.101 1.936z" fill="#D5B02B"/><path d="M162.922 204.292l-.947-1.13-1.678.456 1.091-2.18-.1-1.936 1.618-.212 1.619-1.658-.091 2.046 1.1.918-1.675 1.479-.937 2.217z" fill="#FFE066"/><path d="M155.269 230.138l-.708-.411-.945-1.127.708.411.945 1.127z" fill="#AA8E23"/><path d="M155.256 225.134l-.708-.411 1.619-1.65.707.411-1.618 1.65zm-2.608 4.329l-.708-.411 1.087-2.176.708.411-1.087 2.176z" fill="#D1AD2B"/><path d="M153.637 225.35l-.708-.41 1.619-.217.708.411-1.619.216z" fill="#AA8E23"/><path d="M153.735 227.288l-.708-.411-.098-1.936.708.411.098 1.936z" fill="#D5B02B"/><path d="M155.269 230.138l-.945-1.127-1.676.452 1.087-2.176-.098-1.936 1.619-.217 1.618-1.651-.091 2.046 1.098.911-1.671 1.482-.941 2.216z" fill="#FFE066"/><path d="M136.676 249.75l-.706-.411-.945-1.132.705.41.946 1.133z" fill="#AA8E23"/><path d="M136.662 244.746l-.705-.411 1.614-1.651.707.411-1.616 1.651zm-2.61 4.33l-.707-.411 1.091-2.178.706.411-1.09 2.178z" fill="#D1AD2B"/><path d="M135.043 244.962l-.705-.411 1.619-.217.705.411-1.619.217z" fill="#AA8E23"/><path d="M135.142 246.898l-.706-.411-.098-1.936.705.411.099 1.936z" fill="#D5B02B"/><path d="M136.676 249.75l-.946-1.133-1.678.459 1.089-2.178-.098-1.936 1.619-.217 1.616-1.65-.089 2.043 1.101.913-1.676 1.48-.938 2.219z" fill="#FFE066"/><path d="M118.034 251.635l-.708-.411-.947-1.126.705.411.95 1.126z" fill="#AA8E23"/><path d="M118.02 246.63l-.708-.411 1.615-1.65.707.411-1.614 1.65zm-2.611 4.331l-.706-.411 1.087-2.176.708.411-1.089 2.176z" fill="#D1AD2B"/><path d="M116.397 246.849l-.706-.411 1.621-.219.708.411-1.623.219z" fill="#AA8E23"/><path d="M116.497 248.786l-.707-.411-.099-1.936.706.411.1 1.936z" fill="#D5B02B"/><path d="M118.034 251.635l-.95-1.126-1.675.452 1.089-2.175-.101-1.936 1.624-.219 1.614-1.651-.087 2.043 1.096.916-1.674 1.481-.936 2.215z" fill="#FFE066"/><path d="M137.609 253.815c17.555-10.137 31.793-34.819 31.736-55.021-.03-10.046-3.59-17.123-9.318-20.456l-2.361-1.37c5.731 3.331 9.29 10.408 9.318 20.456.057 20.207-14.178 44.891-31.735 55.021-8.825 5.094-16.834 5.56-22.626 2.194l2.361 1.37c5.792 3.363 13.801 2.9 22.625-2.194z" fill="#D1AD2B"/><path d="M145.603 203.81l3.089 1.796.116.069c2.546 1.561 3.333 3.979 3.849 5.221l-3.089-1.794c-.516-1.245-1.301-3.653-3.849-5.222l-.116-.07zm4.561-6.125l-3.086-1.797 3.468-5.854 3.089 1.797-3.471 5.854zm-26.484 44.311l-3.089-1.794 3.466-5.854 3.089 1.797-3.466 5.851z" fill="#80631A"/><path d="M127.144 244.124l-3.089-1.794-3.464-2.128 3.089 1.795 3.464 2.127z" fill="#7D611A"/><path d="M132.42 229.627l-3.089-1.794c1.253.728 2.564.783 3.722.116a5.225 5.225 0 001.826-1.918c1.386-2.342 1.142-4.513-.573-7.661-2.468-4.541-3.222-9.21.317-15.185 1.637-2.765 3.665-4.874 5.859-6.141 2.112-1.22 4.379-1.66 6.621-1.156l3.089 1.797c-2.231-.507-4.498-.066-6.621 1.142-2.197 1.267-4.222 3.379-5.859 6.141-3.538 5.977-2.785 10.644-.317 15.185 1.703 3.148 1.959 5.321.573 7.662a5.223 5.223 0 01-1.826 1.917c-1.169.678-2.48.628-3.722-.105zm-9.715.173l-3.089-1.794 5.331-6.557 3.089 1.794-5.331 6.557z" fill="#AA8E23"/><path d="M127.146 236.145l-3.089-1.796c-2.258-1.642-3.9-4.162-4.438-6.343l3.086 1.795c.541 2.18 2.181 4.703 4.441 6.344z" fill="#8F6F1E"/><path d="M153.634 191.831l3.462 2.13-3.215 5.42c2.258 1.641 3.338 3.481 3.92 5.184l-5.148 6.331c-.516-1.242-1.304-3.653-3.85-5.221-1.319-.813-2.461-.74-3.39-.203a4.912 4.912 0 00-1.692 1.783c-1.203 2.032-.735 4.089 1.103 7.906 2.676 5.173 2.365 9.605-.913 15.15-1.669 2.815-3.802 5.062-6.133 6.407-2.201 1.271-4.58 1.737-6.911 1.123l-3.721 6.283-3.464-2.128 3.466-5.851c-2.258-1.642-3.899-4.165-4.44-6.345l5.331-6.557c.646 2.331 1.965 4.906 4.262 6.317 1.286.79 2.639.87 3.831.183a5.22 5.22 0 001.827-1.918c1.386-2.34 1.141-4.513-.573-7.662-2.468-4.541-3.222-9.207.317-15.184 1.637-2.763 3.653-4.875 5.858-6.142 2.112-1.219 4.379-1.66 6.621-1.141l3.452-5.865z" fill="#FFE373"/><path d="M108.801 178.35a91.286 91.286 0 00-6.141 7.648l10.602 6.165a91.352 91.352 0 016.142-7.649l-10.603-6.164z" fill="#AA8E23"/><path d="M105.363 188.508c.221-.203.469-.375.737-.51l-3.44-1.999.774 1.091a94.099 94.099 0 00-4.829 7.477l-1.19-.457c-.187.324-.367.655-.55.982.72.495 1.427.721 1.758.418 1.012-.379 2.448-1.598 3.425-1.628 1.112-.023 2.712-.977 3.014-1.37.666-.854 2.586-2.016 3.29-2.283a.354.354 0 00.199-.185.356.356 0 00.013-.272c-.228-.566-1.018-1.059-2.094-.771-.849.228-1.968 1.141-2.283 1.061-.062-.057-.055-.415 1.176-1.554z" fill="#CCC"/><path d="M106.1 188.477c-.879.037-2.164.685-2.463.537-.048-.071.034-.42 1.486-1.26 1.658-.964 3.315-.023 3.482-.322 1.322-1.418-1.708-4.382-2.587-5.023-1.637-1.183-3.178-.9-4.589-.473-1.635.496-4.235 3.671-4.21 4.772.019.742-2.306 1.023-2.74 1.37-1.757 1.388 1.427 5.669 2.544 5.022 1.07-.148 2.74-1.032 3.703-.837 1.091.228 2.861-.361 3.24-.672.838-.685 2.968-1.404 3.708-1.511a.36.36 0 00.31-.404c-.105-.591-.769-1.244-1.884-1.199z" fill="#EBC3A9"/><path d="M95.434 186.349c2.365.195 5.299 4.699 2.63 6.964-7.283 2.082-20.468.205-28.016 1.826-12.315 2.662-21.664 8.406-21.664 8.406-4.567.457-.407-5.721 2.481-10.789 0 0 12.996-6.087 17.662-6.836 5.247-.828 26.907.429 26.907.429z" fill="#fff"/><path d="M60.532 191.091c-.212-4.164-1.217-4.372-.623-9.693 1.03-9.256 2.724-10.464 9.817-9.674 5.984.667 10.178 2.016 11.395 9.181.144.849-.514 2.075-.557 3.155-.025.577.81 2.527.8 3.141-.08 4.596-2.099 9.578-4.133 10.32-1.473.538-4.226.214-5.041.764-.66.432-11.61-6.237-11.658-7.194z" fill="#F0C7AD"/><path d="M72.185 198.274c-.573.199-1.044.585-1.701 1.624-.493.78-2.84 3.881-3.197 4.248l-6.301-7.945c-.228-.881.78-4.201 1.025-5.137 1.05-4.034 1.155-7.762 3.32-12.65.78 4.322 3.196 6.571 2.13 10.372-1.146 4.151 3.196 8.746 4.724 9.488z" fill="#D9B49C"/><path d="M62.998 310.538c-.868.913-8.067 4.023-10.42.635-.352-.507-.361-2.242-.361-2.242l10.895-.311-.114 1.918z" fill="#7D6958"/><path d="M53.158 310.417c2.264 2.409 5.48.53 10.589-.828 5.808-1.546 9.947-2.155 13.292-5.525 2.155-2.169 3.367-6.779 1.164-6.621-4.703.351-7.144 2.799-14.26 5.055-4.65 1.474-7.678.251-9.938 1.659-1.765 1.105-2.713 4.283-.847 6.26z" fill="#7D6958"/><path d="M53.653 310.494c3.174 1.416 5.8-.228 10.58-1.78 5.779-1.866 8.58-2.452 12.306-5.395 2.569-2.027 4.374-6.564 1.393-6.445-4.713.189-7.078 1.623-14.192 3.881-4.65 1.475-8.82 1.37-10.553 3.395-1.445 1.683-1.801 5.338.466 6.344z" fill="#2B2119"/><path d="M14.383 312.48c3.882-.086 4.544-1.273 8.6-5.136 4.229-4.028 6.165-5.55 7.674-9.235.65-1.576.954-3.064.85-4.489-.117-1.625-1.112-2.194-2.84-1.803-4.154.938-4.54 2.027-10.64 7.698-3.986 3.705-6.78 5.724-7.566 8.589-.644 2.39 1.157 4.445 3.922 4.376z" fill="#7D6958"/><path d="M21.107 309.011c-.011.393.027.416.023.87-1.81 3.735-9.94 4.363-11.329.164-.299-.913-.148-2.511-.148-2.511l11.618-.728-.164 2.205z" fill="#7D6958"/><path d="M13.365 311.369c3.868.244 5.61-1.628 9.733-5.418 4.226-3.881 5.409-4.84 7.306-8.564 1.66-3.248 1.658-7.26-1.671-7.162-3.491.101-4.539 2.028-10.64 7.699-3.983 3.705-7.534 5.831-8.314 8.694-.647 2.381.83 4.575 3.586 4.751z" fill="#2B2119"/><path d="M32.7 224.168l16.955 12.347s-28.817 68.797-29.365 69.53c-4.178 5.573-10.827 4.712-10.765.393.03-2.126 23.176-82.27 23.176-82.27z" fill="#6E4A34"/><path d="M66.233 303.771c-1.92 6.696-12.685 7.146-14.155 3.089-.31-.847 5.922-30.365 5.922-30.365-9.975-10.132-19.961-22.73-27.148-32.063l19.212-1.628s21.956 27.059 22.43 31.89c.29 3.036-6.15 28.684-6.261 29.077z" fill="#916343"/><path d="M32.3 229.977l17.177 12.266L32.3 229.977z" fill="#474747"/><path d="M48.436 194.107c-9.779 6.527-20.532 43.887-21.496 48.147-.639 2.831 9.882 9.789 17.489 9.232 6.258-.456 8.904-3.084 9.484-4.753-.31-4.408-1.763-3.991-.42-8.723 1.998-7.053 17.66-24.495 14.276-29.584-.927-1.397-.648-1.957-2.023-4.025-2.054-3.08-2.632-4.676-4.016-6.758-2.75-4.139-8.413-6.794-13.294-3.536z" fill="#4F6AD6"/><path d="M59.228 191.787c3.075 1.009 7.92 7.804 8.525 10.984.605 3.18.197 10.258-1.37 12.934-.577-2.74 1.475-11.018-3.956-14.502-3.81-2.446-5.45-5.811-5.936-7.27-.12-.36-.048-.737.328-.767.516-.043 1.857-1.559 2.41-1.379z" fill="#E6E6E6"/><path d="M119.913 190.653c-.149-.37-1.651-2.696-3.039-3.18a90.48 90.48 0 00-3.612 4.687l.774 1.091a94.564 94.564 0 00-4.829 7.477l-1.189-.457-3.815-2.216c-1.886 1.237-5.251 3.301-10.409 5.999a87.207 87.207 0 00-2.906 7.534l4.123 2.398.913-.5c11.955-6.703 16.525-11.021 16.525-11.021a2.703 2.703 0 00-.112-1.554c.701-.667 1.528-1.391 1.93-1.498 1.054-.285 3.331-1.726 4.26-3.073.82-1.196 2.091-3.913 1.386-5.687z" fill="#CCC"/><path d="M113.699 188.646c-.265.831-1.208 1.895-1.156 2.217.053.062 1.247-.484 2.402-1.623 1.37-1.352 1.776-1.865 2.11-1.945 1.701-.895 3.548 3.148 3.653 3.653.429 1.858-1.238 4.353-2.24 5.415-1.121 1.19-3.587 2.269-4.674 2.393-.714.08-2.954 1.778-3.401 2.109-1.786 1.315-4.169-3.68-3.263-4.58.827-.828 1.142-1.468 1.164-2.44.06-1.827 1.599-3.854 2.014-4.11.913-.536 1.945-2.077 2.242-2.76a.35.35 0 01.457-.189c.573.255 1.029.81.692 1.86z" fill="#E6BEA5"/><path d="M106.164 194.863c2.674-.809 6.434 4.232 5.384 6.621 0 0-5.171 3.575-18.002 8.392-12.514 4.701-26.336 7.34-30.366 7.641-3.08.229-5.068-1.78-4.842-4.091.456-4.682 4.447-6.593 8.573-7.433 2.943-.599 13.13-1.58 22.854-4.731 11.605-3.742 16.399-6.399 16.399-6.399z" fill="#fff"/><path d="M71.233 188.393l1.854-.56c1.011-2.872 2.596-7.161 4.844-6.657.19-1.141 3.019-3.281 3.252-1.655.045.326 1.027-.343 1.81 0 .254-1.648-3.922-6.673-10.329-8.701-6.18-1.954-13.164.5-14.776 10.731-.477 3.029 1.582 5.789 2.121 9.502.046.319.084.641.117.968 0 0 1.03 1.246 2.182 1.536 1.404.352 4.041-1.004 4.455-2.525.413-1.52 1.24-4.445 3.762-4 .548.094.708.706.708 1.361z" fill="#543300"/><path d="M356.886 252.916c1.415.815 1.552 2.114.319 3.02a62.876 62.876 0 01-5.367 3.528c-3.932 2.299-9.055 4.666-12.505 6.598l-.481.274a18.16 18.16 0 00-.373.212c-.182.103-.374.215-.575.331-4.26 2.468-12.642 7.509-16.21 9.36-9.6 4.989-16.162 7.85-16.507 7.991l-.333-.194-1.217.457a1.289 1.289 0 01-1.009-.062c-.27-.155-.315-.4-.11-.584l.786-.708-.334-.192c.258-.201 5.174-4.011 13.756-9.589 3.196-2.077 11.872-6.947 16.119-9.424l.57-.333c.128-.076.252-.147.366-.229l.47-.278c3.322-2.005 7.395-4.982 11.352-7.265a75.697 75.697 0 016.073-3.121c1.555-.685 3.803-.609 5.21.208z" fill="#D9D9D9"/><path d="M357.425 251.11a4.104 4.104 0 00-.199-.779 3.356 3.356 0 00-.141-.333 3.185 3.185 0 00-.165-.308c-.025-.046-.064-.105-.091-.151a3.888 3.888 0 00-.774-.867 3.945 3.945 0 00-1.05-.628 6.871 6.871 0 00-.503-.165 3.935 3.935 0 00-2.438.167c-.153.062-1.53.612-3.126 1.386a41.182 41.182 0 00-3.006 1.598c-3.955 2.283-8.181 5.589-11.523 7.635.456-.261 1.073-.229 1.76.155 1.404.781 2.559 2.739 2.58 4.365 0 .824-.274 1.406-.738 1.678 3.425-1.89 8.405-3.922 12.329-6.23a49.052 49.052 0 002.87-1.827 57.67 57.67 0 001.37-.97c1.057-.783 1.493-1.142 1.495-1.142.261-.224.491-.481.685-.765.046-.073.112-.166.153-.242.069-.123.156-.294.215-.424a3.814 3.814 0 00.317-1.361 4.111 4.111 0 00-.02-.792z" fill="#525252"/><path d="M333.925 258.95l.47-.285h.018c.457-.261 1.073-.229 1.761.155 1.404.781 2.559 2.739 2.58 4.365 0 .824-.274 1.406-.738 1.678l-.018.011-.48.268c.468-.27.756-.852.745-1.681-.019-1.625-1.172-3.573-2.573-4.354-.685-.385-1.315-.415-1.765-.148v-.009z" fill="#fff"/><path d="M333.562 259.163l.367-.228c.457-.267 1.074-.228 1.765.148 1.402.781 2.555 2.74 2.573 4.354 0 .829-.276 1.411-.744 1.681-.119.068-.244.137-.372.212.457-.27.749-.852.737-1.676-.018-1.621-1.169-3.568-2.568-4.338-.685-.383-1.308-.413-1.76-.15l.002-.003z" fill="#525252"/><path d="M333 259.494l.571-.334c.456-.262 1.071-.228 1.76.151 1.4.781 2.55 2.74 2.569 4.338.011.824-.274 1.406-.738 1.676l-.575.331c.456-.27.749-.852.74-1.676-.021-1.621-1.169-3.566-2.569-4.338-.687-.379-1.308-.408-1.758-.148z" fill="#fff"/><path d="M302.386 280.151c0-.707.481-1.006 1.093-.666a2.433 2.433 0 011.124 1.904c0 .71-.48 1.007-1.092.666a2.421 2.421 0 01-1.125-1.904zm.333.188a1.7 1.7 0 00.235.759 1.7 1.7 0 00.553.572c.427.228.769.029.762-.457a1.705 1.705 0 00-.785-1.331c-.429-.228-.772-.03-.765.468v-.011z" fill="#898989"/><path d="M302.635 279.471a107.466 107.466 0 012.582-2.082c1.025-.799 1.256-.975 2.071-1.598.559-.427 1.532-1.142 1.698-1.274 1.295-.955 1.295-.955 1.941-1.42.374-.272 1.142-.834 2.178-1.555.76-.537 1.37-.961 2.406-1.674a65.404 65.404 0 011.827-1.233 86.391 86.391 0 012.813-1.735c.883-.522 1.281-.76 2.577-1.516.315-.182 1.217-.705 2.772-1.598l1.859-1.061c.883-.505 1.771-1.007 2.655-1.514l1.598-.913 1.39-.806c.457-.26 1.071-.228 1.758.153 1.4.778 2.548 2.724 2.569 4.338 0 .824-.274 1.406-.74 1.675-.799.457-1.068.621-2.16 1.265l-.815.482-.849.502-1.781 1.055-2.767 1.635c-1.509.885-1.941 1.141-2.724 1.598a175.409 175.409 0 01-2.497 1.42c-1.343.746-1.98 1.075-2.094 1.141-.5.254-.774.393-1.982.977-1.125.546-1.799.866-2.646 1.263-1.142.532-2.041.947-2.429 1.123-.338.153-.79.359-1.142.509l-1.066.475c-.429.19-1.737.76-2.822 1.215-.53.228-1.418.596-2.79 1.141-.388.156-1.214.48-1.826.708.253-.091.413-.365.406-.772a2.444 2.444 0 00-1.123-1.904c-.345-.196-.649-.187-.847-.02z" fill="#525252"/><path d="M301.806 281.292a.788.788 0 01.235-.58.353.353 0 01.445 0 1.228 1.228 0 01.566.961c0 .228-.086.359-.228.397a.839.839 0 01-.158.025.73.73 0 01-.198 0 .803.803 0 01-.662-.783.397.397 0 000-.02z" fill="#6E6E6E"/><path d="M302.041 280.712l.082-.082.041-.042.085-.082.082-.084.041-.041.082-.083.082-.084.044-.041.082-.082.082-.082.041-.042.083-.084a.501.501 0 01.616-.014 1.706 1.706 0 01.785 1.331c0 .304-.121.498-.315.553l-.566.153-.564.155c.142-.039.228-.18.228-.397a1.228 1.228 0 00-.566-.961.357.357 0 00-.445.009zm49.493-32.446h.028l.504-.207c.226-.091.46-.161.699-.21.24-.047.484-.073.728-.078.25 0 .5.021.747.064.265.052.525.129.776.228.132.057.306.142.434.208a4.066 4.066 0 01.778.568c.185.183.185.183.274.284.082.091.158.187.228.287.133.194.133.194.192.295.114.203.114.203.165.308.098.228.098.228.141.336.15.419.227.86.228 1.305.003.191-.008.381-.034.569a4.23 4.23 0 01-.187.783 4.12 4.12 0 01-.315.685c-.125.21-.268.409-.427.594a4.077 4.077 0 01-.53.504l-.429.336-.023.018c.43-.333.685-.941.685-1.769-.023-1.806-1.303-3.973-2.86-4.843-.685-.383-1.318-.456-1.802-.246v-.019z" fill="#fff"/><path d="M306.329 277.411c-.443-.245-.836-.229-1.099-.032h-.013c-.377.294-.416.326-1.057.838a58.65 58.65 0 00-.788.634l-.511.42-.229.19c.199-.167.503-.176.845.014a2.43 2.43 0 011.123 1.904c0 .406-.153.685-.406.771l.279-.102.618-.229.941-.37 1.251-.504h.016c.32-.13.521-.486.514-1.011a3.23 3.23 0 00-1.484-2.523z" fill="#fff"/><path d="M347.043 256.106c1.882-1.087 4.398-2.208 5.962-3.03.239-.125.456-.248.671-.367.507-.295.929-.569 1.285-.806.356-.237.651-.438.913-.584.357-.206.635-.304.9-.249.205.041.205.643 0 .913a2.739 2.739 0 01-.897.792c-.256.146-.548.283-.914.457-.365.173-.778.386-1.287.685-.208.121-.429.253-.667.401-1.564.987-4.077 2.767-5.959 3.854-1.055.61-1.911 1-2.283.913-.272-.066-.274-.872 0-1.248.368-.525 1.222-1.121 2.276-1.731z" fill="#E6E6E6"/><path d="M347.135 255.829c1.883-1.087 4.397-2.207 5.963-3.029.229-.126.457-.249.669-.368.509-.294.929-.568 1.285-.806.357-.237.651-.438.914-.584.354-.206.632-.304.897-.249.206.043.208.644 0 .913a2.75 2.75 0 01-.899.79 12.89 12.89 0 01-.914.457c-.365.171-.781.388-1.29.684-.207.119-.429.252-.666.402-1.564.984-4.078 2.767-5.959 3.852-1.055.609-1.911 1-2.283.913-.272-.064-.274-.872 0-1.249.374-.52 1.23-1.116 2.283-1.726z" fill="#D1D1D1"/><path d="M356.644 251.686c-.187.091-.847.529-1.069.639-.429.208-.936.456-1.548.815a31.21 31.21 0 00-.797.482c-1.874 1.182-4.888 3.317-7.143 4.618-.279.162-.546.311-.799.443a8.624 8.624 0 001.853-.874c1.882-1.087 4.395-2.868 5.959-3.854.229-.149.457-.281.667-.402.509-.294.932-.505 1.29-.685.481-.222.94-.489 1.37-.799.281-.249.388-.477.217-.383z" fill="#D1D1D1"/><path d="M346.804 256.361c2.13-1.231 4.979-2.512 6.751-3.425.271-.142.523-.281.758-.416a26.122 26.122 0 001.456-.913c.404-.269.927-.516.891-.671-.016-.064-.295-.064-.649.142-.255.146-.548.347-.913.584s-.776.511-1.285.806c-.208.119-.432.242-.669.368-1.564.821-4.08 1.942-5.964 3.029-1.052.61-1.908 1.206-2.283 1.733a.681.681 0 00-.045.073c.613-.49 1.266-.929 1.952-1.31z" fill="#C2C2C2"/><path d="M227.956 219.287l66.252-38.501c-1.701.988-2.74 3.084-2.74 6.045v2.562c-.016 5.707-2.037 9.771-5.301 11.671l-66.254 38.499c3.267-1.897 5.288-5.964 5.304-11.669v-2.561c0-2.964 1.039-5.057 2.739-6.046z" fill="#BDBDBD"/><path d="M226.94 217.347l66.252-38.501c2.016-1.172 4.778-1.035 7.819.721 6.224 3.715 11.087 12.21 11.066 19.178 0 2.011-.018 6.031-.022 8.043-.021 7.353 5.169 16.36 11.568 20.075l13.135 7.607a1.768 1.768 0 01.797 1.383.57.57 0 01-.229.512l-66.265 38.515a.564.564 0 00.229-.512 1.758 1.758 0 00-.797-1.383l-13.123-7.621c-6.393-3.715-11.592-12.721-11.571-20.075 0-2.011.018-6.032.023-8.043.02-6.966-4.843-15.461-11.067-19.178-3.034-1.762-5.799-1.899-7.815-.721z" fill="#fff"/><path d="M312.08 198.735l.121 6.194c0 1.032.014 2.066.084 3.082.044.509.131 1.014.192 1.521l.315 1.5a27.6 27.6 0 005.541 10.833 21.633 21.633 0 004.464 4.15c.84.564 1.742 1.078 2.632 1.599l2.662 1.579 5.318 3.179 2.646 1.611.66.402c.231.133.426.322.566.55.142.222.236.472.274.733.032.249 0 .564-.242.701a.659.659 0 00.198-.685 1.764 1.764 0 00-.301-.685c-.276-.436-.792-.598-1.233-.87l-2.71-1.5-5.395-3.041-2.692-1.531c-.895-.514-1.792-1.014-2.673-1.599a22.042 22.042 0 01-4.612-4.219 28.23 28.23 0 01-3.397-5.235 25.16 25.16 0 01-2.133-5.86l-.28-1.539c-.051-.521-.126-1.037-.158-1.557-.046-1.046-.025-2.078 0-3.107l.153-6.206z" fill="#DEDEDE"/><path d="M270.498 272.975l-13.123-7.62c-6.393-3.715-11.592-12.722-11.571-20.075 0-2.012.018-6.032.023-8.043.02-6.966-4.843-15.461-11.067-19.178-3.155-1.826-6.013-1.899-8.045-.582-1.916 1.244-3.096 3.726-3.108 7.155v2.648c-.013 4.484-1.413 7.801-3.753 9.669l1.048 1.934c2.676-2.103 4.29-5.893 4.306-10.991v-2.561c0-2.284.63-4.067 1.701-5.21 1.744-1.861 4.678-2.055 8.068-.092 5.192 3.139 9.267 10.523 9.251 16.488 0 1.959-.018 5.877-.022 7.838-.023 8.365 5.879 18.609 13.157 22.831l13.133 7.623c.438.253.796.048.799-.457a1.752 1.752 0 00-.797-1.377z" fill="#D1D1D1"/><path d="M246.39 206.109c-.452.198-.891.427-1.312.685l-9.889 5.758a7.27 7.27 0 00-.273.162 9.672 9.672 0 001.598-.685l9.89-5.746c.095-.051.183-.115.26-.19l-.054-.05a2.086 2.086 0 00-.208.064l-.012.002zm14.797-8.593c-.453.199-.892.428-1.315.685l-10.489 6.096-.274.162a9.646 9.646 0 001.599-.685l10.488-6.096c.095-.05.183-.113.26-.187l-.054-.053c-.07.018-.139.039-.206.064l-.009.014zm24.313-14.134c-.452.199-.891.428-1.313.685l-19.716 11.459-.249.146a9.099 9.099 0 001.561-.665l19.717-11.458a1.64 1.64 0 00.229-.165.373.373 0 00-.229 0v-.002zm-23.836 21.702c-.523-.39-1.142-.504-1.575-.287l-16.005 9.301c-.705.552.457 1.438 1.242 1.513a.874.874 0 00.527-.089l16.005-9.301c.605-.482-.162-1.109-.194-1.141v.004zm25.235-14.663c-.513-.386-1.141-.503-1.575-.288l-20.708 12.032c-.71.559.457 1.388 1.142 1.5a.932.932 0 00.625-.076l20.71-12.034c.603-.481-.162-1.109-.196-1.141l.002.007zm7.759-4.51c-.523-.391-1.142-.505-1.576-.288l-2.765 1.598c-.666.457.297 1.37 1.142 1.5a.934.934 0 00.628-.075l2.765-1.598c.479-.327.134-.87-.194-1.142v.005zm-35.43 35.545c-.265-.619-.719-.9-1.141-.701l-6.021 3.498c-.708.486-.228 2.084.482 2.251a.52.52 0 00.367-.053l6.019-3.498c.495-.34.436-1.098.283-1.497h.011zm42.977-24.972c-.265-.619-.719-.899-1.13-.701l-12.13 7.05c-.705.484-.228 2.085.48 2.251.124.029.255.01.367-.052l12.133-7.05c.497-.34.44-1.082.28-1.498zm-17.045 9.903c-.261-.607-.726-.897-1.142-.701l-21.868 12.708c-.792.635-.102 2.119.48 2.253a.5.5 0 00.367-.055l21.868-12.707c.642-.505.322-1.397.283-1.498h.012zm-18.388 23.288c-.023-.778-.379-.883-.685-.735l-12.135 7.052c-.39.261-.658.859-.685 1.523.023.76.363.865.685.71l12.132-7.052c.457-.301.672-.97.685-1.498h.003zm23.995-13.945c-.016-.633-.288-.93-.674-.738l-20.002 11.628c-.564.422-.669 1.141-.685 1.523.019.628.283.913.685.71l20.009-11.628c.646-.479.685-1.331.685-1.498l-.018.003zm12.868-7.476c-.019-.644-.284-.932-.685-.738l-7.795 4.53c-.762.507-.886 2.132-.329 2.283a.433.433 0 00.322-.057l7.797-4.53c.537-.354.685-1.141.685-1.497l.005.009zm-25.952 27.954c-.206-.445-.569-.929-1.121-.712l-21.192 12.315c-.84.669-.103 2.216.632 2.267a.798.798 0 00.304-.069l21.192-12.315c.58-.456.255-1.319.185-1.486zm27.796-16.158c-.328-.655-.684-.881-1.12-.712l-22.969 13.349c-.84.668-.102 2.214.633 2.264a.772.772 0 00.303-.066l22.969-13.349c.563-.456.283-1.253.184-1.486z" fill="#C9C9C9"/><path d="M301.598 248.178a34.68 34.68 0 01-1.541-1.541c-.281-.303-.5-.557-.685-.799a4.396 4.396 0 01-.295-.42 1.64 1.64 0 01-.118-.228.641.641 0 01-.06-.258.272.272 0 01.151-.244c.098-.032.2-.051.304-.055h.143l.121.02c.128.029.254.064.377.105.117.037.228.078.336.119.436.171.849.363 1.23.543a55.5 55.5 0 012.055 1.041l.402.208c.33.174.664.345 1 .514.192.096.386.189.582.281.098.043.197.089.297.128.05.02.1.041.151.057a.709.709 0 00.121.038.235.235 0 00.091-.041v-.066a1.32 1.32 0 00-.185-.381 4.544 4.544 0 00-.294-.395 7.221 7.221 0 01-1.112-.327 13.204 13.204 0 01-1.265-.545 18.109 18.109 0 01-.996-.534l-.143-.085a19.502 19.502 0 01-2.026-1.37 16.026 16.026 0 01-.892-.737 12.851 12.851 0 01-.413-.386 8.86 8.86 0 01-.382-.397 4.448 4.448 0 01-.63-.85 1.483 1.483 0 01-.173-.488.676.676 0 01.013-.276l.023-.071a.302.302 0 01.098-.13.522.522 0 01.229-.096c.045-.003.091-.003.137 0h.075a1.496 1.496 0 01.459.123c.116.048.228.098.324.149.096.05.228.125.347.189l.228.132c.327.199.653.414 1.026.685a36.5 36.5 0 011.867 1.425c.601.486 1.18.984 1.724 1.477.545.49 1.066 1.006 1.559 1.548l.137.158a3.412 3.412 0 00.701.077c.076.005.152.005.228 0a1.215 1.215 0 00.494-.162c.132-.085.25-.192.347-.317.091-.116.168-.243.228-.377.11-.259.167-.536.169-.817a2.509 2.509 0 00-.576-1.612l-.077-.094-.128-.137-.139-.128a3.42 3.42 0 00-.439-.326l-.146-.089a5.655 5.655 0 00-.97-.434 10.72 10.72 0 00-1.331-.361 26.24 26.24 0 00-1.441-.251l-.39-.057c-.365-.055-.733-.107-1.105-.176a6.78 6.78 0 01-.758-.178 2.373 2.373 0 01-.372-.146l-.085-.043a.945.945 0 01-.228-.185.509.509 0 01-.148-.311v-.141a.488.488 0 01.016-.066.323.323 0 01.034-.096c.088-.177.214-.333.367-.457a4.798 4.798 0 011.114-.685 11.384 11.384 0 012.802-.833 12.351 12.351 0 011.559-.162h1.19c.091 0 .185 0 .276.02h.119c.251.025.518.057.78.108.096.013.19.034.286.054l.093.021.185.046a7.417 7.417 0 011.512.561c.116.057.228.114.342.174l.229.119c.181.094.37.17.566.228a1.335 1.335 0 00.582.046h.05a.604.604 0 00.096-.019c.131-.026.256-.075.37-.146a.72.72 0 00.253-.324c.051-.129.084-.264.099-.402a6.52 6.52 0 00.02-.815v-.052a7.284 7.284 0 01.126-1.799 3.908 3.908 0 01.886-1.749 6.626 6.626 0 011.881-1.436 13.074 13.074 0 011.826-.804l.053.132c-.023 0-2.242.968-3.425 2.268a3.315 3.315 0 00-.785 1.639 4.902 4.902 0 00-.094.863c0 .301 0 .607.016.879v.098c.018.268.018.537 0 .806a1.731 1.731 0 01-.107.475 1.03 1.03 0 01-.375.477c-.11.076-.23.135-.358.176l-.101.032-.1.025a1.031 1.031 0 01-.155.029h-.055a2.285 2.285 0 01-.32.023h-.15a2.108 2.108 0 01-.58-.125l-.046-.014-.176-.071c-.107-.045-.212-.096-.313-.144l-.228-.114-.354-.176a6.997 6.997 0 00-1.223-.456l-.165-.044-.169-.038-.098-.021c-.08-.016-.162-.034-.244-.048a11.12 11.12 0 00-.715-.091l-.365-.028h-1.101c-.484.02-.967.072-1.445.156a10.54 10.54 0 00-2.598.783c-.35.155-.678.357-.975.6-.11.091-.2.204-.265.331-.018.199 0 .229.035.256a.467.467 0 00.109.084c.102.055.209.099.32.131.216.063.437.114.66.15.344.064.701.117 1.061.169l.402.059c.413.062.954.147 1.496.258.487.099.969.229 1.44.389.38.129.747.293 1.096.49.057.032.11.067.164.101.178.111.347.235.505.372l.162.151.149.155.089.11c.113.137.214.285.301.44.032.053.059.112.087.169l.027.055.071.173.02.06c.108.3.16.617.156.936a2.47 2.47 0 01-.201.94 2.068 2.068 0 01-.272.457 1.87 1.87 0 01-.473.427c-.115.07-.237.128-.365.174l-.05.016a1.805 1.805 0 01-.176.043h-.036l-.076.014-.112.013a2.906 2.906 0 01-.349.021h-.306c.039.055.075.112.112.169.097.144.168.304.21.472a.478.478 0 010 .151.332.332 0 01-.078.176.48.48 0 01-.248.139c-.18.004-.358-.02-.53-.071a2.582 2.582 0 01-.169-.066c-.107-.046-.212-.091-.313-.139a24.883 24.883 0 01-.589-.292c-.386-.197-.762-.4-1.141-.601l-.277-.148c-.646-.347-1.31-.706-1.986-1.044-.37-.182-.769-.374-1.192-.545-.1-.041-.205-.08-.313-.117a1.846 1.846 0 00-.577-.125h-.039a.085.085 0 00-.05.02.102.102 0 00-.018.053.478.478 0 00.038.178c.029.069.062.136.098.201.082.14.171.275.268.404.214.292.456.58.65.794.4.457.852.936 1.466 1.555l-.13.114zm-3.272-7.228a.363.363 0 000 .114c.024.136.073.266.144.384.163.281.359.542.585.776a12.632 12.632 0 001.641 1.459c.632.48 1.292.921 1.977 1.322l.117.068c.317.185.648.361.984.528.388.191.786.363 1.191.513l.229.08a26.35 26.35 0 00-1.338-1.271 39.442 39.442 0 00-1.733-1.455 35.155 35.155 0 00-1.868-1.395 21.1 21.1 0 00-1.002-.655l-.169-.098a9.665 9.665 0 00-.363-.199 8.399 8.399 0 00-.276-.125l-.119-.046z" fill="#277ABA"/><g opacity=".5"><path opacity=".5" d="M452.849 101.342c-6.224 3.594-11.249 12.299-11.228 19.452.016 6.289 3.938 9.278 9.118 7.456 2.42-9.178 6.85-16.043 13.411-20.465-.018-7.151-5.08-10.034-11.301-6.443z" fill="#B8E7FF"/><path opacity=".5" d="M447.872 128.992a5.972 5.972 0 01-3.498-1.053c-1.913-1.351-2.968-3.881-2.981-7.152-.019-7.21 5.068-16.025 11.344-19.648 3.092-1.786 6.012-2.055 8.22-.797 2.207 1.258 3.408 3.904 3.424 7.436v.121l-.098.066c-6.422 4.338-10.904 11.173-13.32 20.335l-.029.116-.114.039a8.91 8.91 0 01-2.948.537zm5.096-27.454c-6.151 3.55-11.137 12.187-11.116 19.255 0 3.11.997 5.518 2.787 6.783 1.548 1.092 3.653 1.27 5.918.498 2.438-9.164 6.936-16.032 13.372-20.408-.036-3.304-1.167-5.76-3.196-6.925-2.055-1.187-4.824-.913-7.763.797h-.002z" fill="#3DBFFF"/><path opacity=".5" d="M465.543 106.643c-8.463 4.886-15.297 16.726-15.271 26.45.022 7.762 4.427 11.835 10.516 10.655 2.123-12.304 8.219-22.776 19.975-30.659-1.044-8.003-7.475-10.92-15.22-6.446z" fill="#B8E7FF"/><path opacity=".5" d="M458.758 144.177a7.902 7.902 0 01-5.137-1.765c-2.295-1.886-3.564-5.196-3.576-9.319-.027-9.779 6.875-21.733 15.384-26.646 3.964-2.283 7.763-2.739 10.678-1.306 2.653 1.311 4.386 4.121 4.879 7.918l.018.139-.116.078c-11.121 7.465-17.623 17.445-19.877 30.511l-.027.152-.153.03c-.683.136-1.377.206-2.073.208zm6.785-37.533l.112.196c-8.383 4.84-15.185 16.618-15.157 26.255.011 3.984 1.223 7.171 3.411 8.97 1.76 1.448 4.07 1.961 6.682 1.491 2.283-13.073 8.813-23.075 19.927-30.575-.495-3.57-2.132-6.207-4.612-7.433-2.785-1.37-6.424-.913-10.251 1.294l-.112-.198z" fill="#3DBFFF"/><path opacity=".5" d="M479.947 114.554c-10.794 6.23-19.513 21.335-19.479 33.739.034 12.403 8.813 17.401 19.607 11.168 10.795-6.232 19.512-21.333 19.475-33.732-.036-12.399-8.81-17.406-19.603-11.175z" fill="#B8E7FF"/><path opacity=".5" d="M471.304 162.439a10.39 10.39 0 01-5.251-1.345c-3.774-2.171-5.861-6.717-5.877-12.801-.037-12.475 8.767-27.723 19.623-33.99 5.329-3.078 10.356-3.568 14.155-1.37 3.799 2.199 5.863 6.719 5.882 12.806.034 12.472-8.767 27.716-19.621 33.983-3.135 1.801-6.169 2.717-8.911 2.717zm17.408-50.284c-2.637 0-5.573.888-8.618 2.648-10.699 6.164-19.372 21.198-19.336 33.49.016 5.867 2 10.237 5.587 12.301 3.587 2.064 8.447 1.598 13.587-1.383 10.694-6.165 19.365-21.194 19.331-33.481-.019-5.872-2.003-10.242-5.592-12.308a9.807 9.807 0 00-4.959-1.267z" fill="#3DBFFF"/></g></svg>