<svg width="224" height="168" viewBox="0 0 224 168" fill="none" xmlns="http://www.w3.org/2000/svg">
<path d="M55.3012 74.9751V100.58C55.3012 103.029 51.6633 105.004 47.1833 105.004C42.7033 105.004 39.0654 103.029 39.0654 100.58V74.9751H55.3012Z" fill="#F9B028"/>
<path d="M39.0654 74.975C39.0654 77.4148 42.7033 79.3987 47.1833 79.3987C51.6633 79.3987 55.3012 77.4148 55.3012 74.975C55.3012 72.5352 51.6633 70.5513 47.1833 70.5513C42.7033 70.5513 39.0654 72.5267 39.0654 74.975Z" fill="#F9DC32"/>
<path d="M47.1579 79.3988C42.6779 79.3988 39.04 77.4149 39.04 74.9751V100.58C39.04 103.029 42.6779 105.004 47.1579 105.004C48.0737 105.006 48.9875 104.918 49.8864 104.742V79.1371C48.9875 79.3127 48.0737 79.4003 47.1579 79.3988Z" fill="#F9C32A"/>
<path d="M55.3012 43.9668V74.975C55.3012 77.4148 51.6633 79.3988 47.1833 79.3988C42.7033 79.3988 39.0654 77.4148 39.0654 74.975V43.9668H55.3012Z" fill="#941A3A"/>
<path d="M39.0654 43.9672C39.0654 46.4154 42.7033 48.3909 47.1833 48.3909C51.6633 48.3909 55.3012 46.4154 55.3012 43.9672C55.3012 41.5189 51.6633 39.5435 47.1833 39.5435C42.7033 39.5435 39.0654 41.5274 39.0654 43.9672Z" fill="#C51341"/>
<path d="M47.1579 48.3905C42.6779 48.3905 39.04 46.415 39.04 43.9668V74.975C39.04 77.4148 42.6779 79.3988 47.1579 79.3988C48.0737 79.4003 48.9875 79.3126 49.8864 79.1371V48.1204C48.9878 48.2988 48.074 48.3892 47.1579 48.3905Z" fill="#C51341"/>
<path d="M42.3408 87.841V108.102C42.3408 110.542 38.7029 112.526 34.2229 112.526C29.7429 112.526 26.105 110.517 26.105 108.06V87.7988L42.3408 87.841Z" fill="#F9B028"/>
<path d="M26.105 87.8412C26.105 90.2895 29.7429 92.2649 34.2229 92.2649C38.7029 92.2649 42.3408 90.2895 42.3408 87.8412C42.3408 85.393 38.7029 83.4175 34.2229 83.4175C29.7429 83.4175 26.105 85.4014 26.105 87.8412Z" fill="#F9DC32"/>
<path d="M34.2229 92.2645C29.7429 92.2645 26.105 90.2891 26.105 87.8408V108.102C26.105 110.542 29.7429 112.526 34.2229 112.526C35.1359 112.527 36.0468 112.44 36.9429 112.264V92.0197C36.0463 92.1896 35.1353 92.2716 34.2229 92.2645Z" fill="#F9C32A"/>
<path d="M42.3408 67.6134V87.8747C42.3408 90.3229 38.7029 92.2984 34.2229 92.2984C29.7429 92.2984 26.105 90.3313 26.105 87.8409V67.5796L42.3408 67.6134Z" fill="#941A3A"/>
<path d="M26.105 67.6141C26.105 70.0539 29.7429 72.0379 34.2229 72.0379C38.7029 72.0379 42.3408 70.0539 42.3408 67.6141C42.3408 65.1743 38.7029 63.1904 34.2229 63.1904C29.7429 63.1904 26.105 65.1659 26.105 67.6141Z" fill="#C51341"/>
<path d="M34.2229 72.0375C29.7429 72.0375 26.105 70.0536 26.105 67.6138V87.8751C26.105 90.3233 29.7429 92.2988 34.2229 92.2988C35.1359 92.3003 36.0468 92.2126 36.9429 92.0371V71.7589C36.0468 71.936 35.1362 72.0292 34.2229 72.0375Z" fill="#C51341"/>
<path d="M29.3724 98.1914V115.565C29.3724 118.014 25.7429 119.989 21.2629 119.989C16.7829 119.989 13.145 118.014 13.145 115.565V98.1914H29.3724Z" fill="#F9B028"/>
<path d="M13.145 98.1913C13.145 100.64 16.7745 102.623 21.2629 102.623C25.7513 102.623 29.3724 100.64 29.3724 98.1913C29.3724 95.743 25.7429 93.7676 21.2629 93.7676C16.7829 93.7676 13.145 95.7515 13.145 98.1913Z" fill="#F9DC32"/>
<path d="M21.2629 102.624C16.7745 102.624 13.145 100.64 13.145 98.1914V115.565C13.145 118.014 16.7745 119.989 21.2629 119.989C22.1759 119.991 23.0869 119.903 23.9829 119.728V102.362C23.0863 102.533 22.1757 102.621 21.2629 102.624Z" fill="#F9C32A"/>
<path d="M29.3724 91.7246V98.1913C29.3724 100.64 25.7429 102.623 21.2629 102.623C16.7829 102.623 13.145 100.64 13.145 98.1913V91.7246H29.3724Z" fill="#C64453"/>
<path d="M13.145 91.7245C13.145 94.1643 16.7745 96.1482 21.2629 96.1482C25.7513 96.1482 29.3724 94.1643 29.3724 91.7245C29.3724 89.2847 25.7429 87.3008 21.2629 87.3008C16.7829 87.3008 13.145 89.2763 13.145 91.7245Z" fill="#C51341"/>
<path d="M21.2629 96.1483C16.7745 96.1483 13.145 94.1644 13.145 91.7246V98.1913C13.145 100.64 16.7745 102.623 21.2629 102.623C22.1757 102.621 23.0863 102.533 23.9829 102.362V95.8866C23.0863 96.058 22.1757 96.1456 21.2629 96.1483Z" fill="#C51341"/>
<path d="M16.4125 112.501V123.062C16.4125 125.502 12.7746 127.486 8.29465 127.486C3.81465 127.486 0.176758 125.502 0.176758 123.062V112.501H16.4125Z" fill="#F9B028"/>
<path d="M0.176758 112.501C0.176758 114.941 3.81465 116.925 8.29465 116.925C12.7746 116.925 16.4125 114.941 16.4125 112.501C16.4125 110.061 12.7746 108.061 8.29465 108.061C3.81465 108.061 0.176758 110.053 0.176758 112.501Z" fill="#F9DC32"/>
<path d="M8.29465 116.925C3.81465 116.925 0.176758 114.941 0.176758 112.501V123.062C0.176758 125.502 3.81465 127.486 8.29465 127.486C9.21043 127.487 10.1242 127.4 11.0231 127.224V116.663C10.1242 116.839 9.21043 116.926 8.29465 116.925Z" fill="#F9C32A"/>
<path d="M16.4125 101.94V112.501C16.4125 114.941 12.7746 116.925 8.29465 116.925C3.81465 116.925 0.176758 114.941 0.176758 112.501V101.94H16.4125Z" fill="#941A3A"/>
<path d="M0.176758 101.94C0.176758 104.38 3.81465 106.364 8.29465 106.364C12.7746 106.364 16.4125 104.38 16.4125 101.94C16.4125 99.5 12.7746 97.5161 8.29465 97.5161C3.81465 97.5161 0.176758 99.4916 0.176758 101.94Z" fill="#C51341"/>
<path d="M8.29465 106.372C3.81465 106.372 0.176758 104.388 0.176758 101.948V112.509C0.176758 114.949 3.81465 116.933 8.29465 116.933C9.21043 116.935 10.1242 116.847 11.0231 116.671V106.102C10.1245 106.28 9.2107 106.371 8.29465 106.372Z" fill="#C51341"/>
<path d="M5.9536 77.0352C7.17465 76.7229 8.74097 76.191 8.74939 78.2425C8.67207 79.1441 8.37816 80.0136 7.89276 80.7766C7.40737 81.5396 6.74491 82.1735 5.96202 82.624V83.6877L5.22939 84.1183V83.0377C3.67992 83.7806 2.54308 83.4935 2.47571 81.8304L4.56413 80.6232C4.56413 81.1466 4.8336 81.3408 5.22939 81.2563V79.1711C3.99992 79.5088 2.46729 80.0153 2.46729 77.9386C2.46729 76.2923 3.66308 74.6208 5.21255 73.5992V72.5271L5.94518 72.105V73.1687C7.51149 72.4173 8.52202 72.755 8.63149 74.3675L6.53465 75.5832C6.48413 75.1188 6.2736 74.9416 5.9536 74.9922V77.0352ZM5.9536 80.8764C6.16987 80.7178 6.34793 80.5126 6.47471 80.276C6.60149 80.0393 6.67377 79.7771 6.68623 79.5088C6.68623 79.0276 6.39149 78.9347 5.94518 79.0023V80.8764H5.9536ZM5.1957 77.1787V75.3552C4.98832 75.4979 4.81761 75.6878 4.69758 75.9094C4.57755 76.131 4.51162 76.3779 4.50518 76.63C4.50518 77.0943 4.78307 77.2125 5.1957 77.1787Z" fill="#F9DC32"/>
<path d="M42.6861 27.8597C43.9072 27.5473 45.4735 27.0154 45.4819 29.0669C45.4077 29.9672 45.1159 30.8359 44.6317 31.5978C44.1475 32.3598 43.4855 32.992 42.703 33.44V34.5121L41.9703 34.9342V33.8536C40.4125 34.5965 39.2756 34.3095 39.2167 32.6464L41.2967 31.4476C41.2967 31.9626 41.5746 32.1567 41.9619 32.0723V29.9955C40.7325 30.3332 39.1998 30.8398 39.1914 28.7545C39.1914 27.0661 40.3872 25.4368 41.9451 24.4152V23.3093L42.6777 22.8872V23.9594C44.244 23.1996 45.204 23.5373 45.364 25.1497L43.2672 26.3654C43.2167 25.9095 42.9977 25.7238 42.6777 25.7744L42.6861 27.8597ZM42.6861 31.6924C42.9035 31.5342 43.0829 31.3293 43.2111 31.0927C43.3393 30.8561 43.4132 30.5937 43.4272 30.3248C43.4272 29.852 43.1325 29.7592 42.6861 29.8183V31.6924ZM41.9451 27.9947V26.1712C41.7388 26.3143 41.5693 26.5045 41.4507 26.7262C41.3321 26.9478 41.2678 27.1945 41.263 27.446C41.263 27.9103 41.5409 28.0285 41.9535 27.9947" fill="#F9DC32"/>
<path d="M21.5324 50.02C22.4755 49.7752 23.6966 49.3699 23.705 50.9571C23.6394 51.6523 23.4087 52.3216 23.0322 52.9091C22.6557 53.4966 22.1443 53.9852 21.5408 54.334V55.1782L20.9766 55.5074V54.6632C19.764 55.2373 18.8797 55.0178 18.8292 53.7261L20.4545 52.789C20.4545 53.1858 20.665 53.3462 20.9682 53.2787V51.6578C20.0166 51.9195 18.8292 52.3078 18.8208 50.6954C18.8857 50.0031 19.1134 49.3361 19.4852 48.749C19.857 48.162 20.3623 47.6718 20.9597 47.3185V46.4743L21.524 46.145V46.9892C22.7366 46.3983 23.5197 46.66 23.604 47.9179L21.9787 48.8634C21.9787 48.5004 21.7682 48.3653 21.524 48.3991L21.5324 50.02ZM21.5324 52.9917C21.6999 52.8693 21.8382 52.7112 21.9372 52.5286C22.0362 52.3461 22.0936 52.1438 22.105 51.9364C22.105 51.5649 21.8692 51.4889 21.524 51.5396V52.9917H21.5324ZM20.9429 50.1297V48.7114C20.7813 48.8213 20.6481 48.9683 20.5544 49.14C20.4606 49.3118 20.4091 49.5035 20.404 49.6992C20.404 50.0538 20.6229 50.1466 20.9429 50.1297Z" fill="#F9DC32"/>
<path d="M9.01895 25.3263C9.97053 25.0815 11.1832 24.6762 11.1916 26.2634C11.126 26.9586 10.8953 27.6279 10.5188 28.2154C10.1422 28.8029 9.63084 29.2915 9.02737 29.6403V30.4845L8.45474 30.8137V29.9695C7.24211 30.552 6.35789 30.3325 6.30737 29.0409L7.93263 28.1038C7.93263 28.5006 8.14316 28.661 8.44631 28.5934V26.9641C7.48631 27.2258 6.29895 27.6141 6.29053 26.0017C6.35541 25.3094 6.58311 24.6423 6.95492 24.0553C7.32673 23.4683 7.83207 22.9781 8.42948 22.6248V21.7806L9.00211 21.4429V22.2871C10.2147 21.6961 10.9979 21.9578 11.0821 23.2157L9.45684 24.1528C9.45684 23.7982 9.25474 23.6632 9.00211 23.6969L9.01895 25.3263ZM9.01895 28.2979C9.18646 28.1756 9.32474 28.0174 9.42378 27.8349C9.52281 27.6524 9.58013 27.4501 9.59158 27.2427C9.59158 26.8712 9.36421 26.7952 9.01052 26.8459V28.2979H9.01895ZM8.42105 25.4192V24.0009C8.25942 24.1108 8.12623 24.2577 8.03251 24.4294C7.93879 24.6012 7.88723 24.7929 7.88211 24.9886C7.88211 25.3432 8.10105 25.436 8.42105 25.4192Z" fill="#F9DC32"/>
<path d="M105.339 104.929L121.137 95.7434C121.465 95.5504 121.838 95.4487 122.219 95.4487C122.599 95.4487 122.973 95.5504 123.301 95.7434L160.775 117.431C160.928 117.512 161.057 117.634 161.146 117.783C161.236 117.931 161.283 118.102 161.283 118.276C161.283 118.449 161.236 118.62 161.146 118.769C161.057 118.918 160.928 119.039 160.775 119.12L145.322 128.102C144.933 128.333 144.49 128.454 144.038 128.454C143.586 128.454 143.143 128.333 142.754 128.102L105.347 106.414C105.213 106.343 105.101 106.236 105.022 106.106C104.944 105.975 104.902 105.826 104.901 105.674C104.9 105.522 104.94 105.372 105.017 105.241C105.094 105.109 105.206 105.002 105.339 104.929Z" fill="white"/>
<path d="M105.347 106.414L142.762 128.068C143.151 128.299 143.594 128.42 144.046 128.42C144.498 128.42 144.941 128.299 145.33 128.068L160.783 119.086C160.929 119 161.05 118.877 161.133 118.728C161.216 118.58 161.258 118.412 161.254 118.242V120.167C161.262 120.336 161.222 120.505 161.141 120.654C161.059 120.802 160.938 120.926 160.791 121.011L145.33 130.01C144.941 130.24 144.498 130.362 144.046 130.362C143.594 130.362 143.151 130.24 142.762 130.01L105.347 108.347C105.215 108.273 105.105 108.163 105.029 108.031C104.953 107.899 104.915 107.749 104.918 107.596V105.68C104.918 105.829 104.958 105.976 105.033 106.105C105.109 106.234 105.217 106.341 105.347 106.414Z" fill="#A7BCCE"/>
<path d="M105.347 106.414L142.762 128.068C143.121 128.276 143.526 128.392 143.941 128.406V130.331C143.526 130.317 143.121 130.201 142.762 129.993L105.347 108.347C105.215 108.273 105.105 108.163 105.029 108.031C104.953 107.899 104.915 107.749 104.918 107.596V105.68C104.918 105.829 104.958 105.976 105.033 106.105C105.109 106.234 105.217 106.341 105.347 106.414Z" fill="#BBCEE1"/>
<path d="M87.082 20.6831L175.613 72.1637V137.473L87.082 85.7894V20.6831Z" fill="url(#paint0_linear)"/>
<path d="M175.613 72.1644L178.56 70.3662V135.684L175.613 137.473V72.1644Z" fill="#A7BCCE"/>
<path d="M87.082 20.6832L90.0968 18.9272L178.56 70.3656L175.613 72.1638L87.082 20.6832Z" fill="white"/>
<path d="M87.082 20.6831V85.7894L175.613 137.481V72.1637L87.082 20.6831ZM173.516 133.809L89.1789 84.5822V24.3301L173.516 73.3709V133.809Z" fill="#BBCEE1"/>
<path d="M187.368 37.6772L220.716 56.8917V96.8487L187.368 77.5076V37.6772Z" fill="#BBCEE1"/>
<path d="M220.716 56.8924L223.225 55.3896V95.3466L220.716 96.8494V56.8924Z" fill="#A7BCCE"/>
<path d="M187.368 37.6771L189.92 36.1997L223.225 55.3889L220.716 56.8916L187.368 37.6771Z" fill="white"/>
<path d="M190.181 42.6748L217.895 58.6475V91.8507L190.181 75.7767V42.6748Z" fill="#F4F7FF"/>
<path d="M192.202 65.2163V74.2073L197.221 77.1198V68.112L192.202 65.2163Z" fill="#F9AE40"/>
<path d="M189.667 71.9355V72.8135L191.242 73.7253V72.8473L189.667 71.9355Z" fill="#BBCEE1"/>
<path d="M189.667 68.6016V69.4711L191.242 70.3829V69.5049L189.667 68.6016Z" fill="#BBCEE1"/>
<path d="M189.667 65.2578V66.1274L191.242 67.0391V66.1611L189.667 65.2578Z" fill="#BBCEE1"/>
<path d="M189.667 61.9155V62.7935L191.242 63.7053V62.8273L189.667 61.9155Z" fill="#BBCEE1"/>
<path d="M189.667 58.5801V59.4496L191.242 60.3614V59.4834L189.667 58.5801Z" fill="#BBCEE1"/>
<path d="M189.667 55.2373V56.1069L191.242 57.0186V56.1406L189.667 55.2373Z" fill="#BBCEE1"/>
<path d="M189.667 51.894V52.7636L191.242 53.6838V52.8058L189.667 51.894Z" fill="#BBCEE1"/>
<path d="M189.667 48.5601V49.4296L191.242 50.3414V49.4634L189.667 48.5601Z" fill="#BBCEE1"/>
<path d="M198.425 61.3066V77.8281L203.444 80.7322V64.2023L198.425 61.3066Z" fill="#F9AE40"/>
<path d="M204.64 67.166V81.4418L209.659 84.3459V70.0617L204.64 67.166Z" fill="#F9AE40"/>
<path d="M210.854 62.126V85.055L215.873 87.9676V65.0132L210.854 62.126Z" fill="#F9AE40"/>
<path d="M146.594 1.89111L179.941 21.1056V61.0626L146.594 41.7215V1.89111Z" fill="#BBCEE1"/>
<path d="M179.941 21.1053L182.45 19.6025V59.5595L179.941 61.0622V21.1053Z" fill="#A7BCCE"/>
<path d="M146.594 1.89096L149.145 0.413574L182.451 19.6027L179.941 21.1054L146.594 1.89096Z" fill="white"/>
<path d="M149.415 6.88867L177.128 22.8529L177.12 56.0646L149.415 39.9906V6.88867Z" fill="#F4F7FF"/>
<path d="M148.893 36.1494V37.019L150.467 37.9307V37.0527L148.893 36.1494Z" fill="#BBCEE1"/>
<path d="M148.893 32.8071V33.6767L150.467 34.5969V33.7189L148.893 32.8071Z" fill="#BBCEE1"/>
<path d="M148.893 29.4717V30.3412L150.467 31.253V30.375L148.893 29.4717Z" fill="#BBCEE1"/>
<path d="M148.893 26.1279V26.9975L150.467 27.9092V27.0312L148.893 26.1279Z" fill="#BBCEE1"/>
<path d="M148.893 22.7856V23.6552L150.467 24.5754V23.6974L148.893 22.7856Z" fill="#BBCEE1"/>
<path d="M148.893 19.4429V20.3209L150.467 21.2326V20.3546L148.893 19.4429Z" fill="#BBCEE1"/>
<path d="M148.893 16.1079V16.9775L150.467 17.8892V17.0112L148.893 16.1079Z" fill="#BBCEE1"/>
<path d="M148.893 12.7642V13.6337L150.467 14.5455V13.6759L148.893 12.7642Z" fill="#BBCEE1"/>
<path d="M119.486 141.466V143.214C119.486 145.569 115.983 147.486 111.654 147.486C107.326 147.486 103.814 145.569 103.814 143.214V141.466H119.486Z" fill="#EF9D26"/>
<path d="M114.863 147.105C115.511 146.948 116.143 146.731 116.75 146.455V142.715H114.863V147.105Z" fill="#F9C32A"/>
<path d="M117.684 145.94C118.229 145.596 118.697 145.142 119.057 144.606V141.668H117.684V145.94Z" fill="#F9C32A"/>
<path d="M103.814 141.466C103.814 143.821 107.326 145.738 111.654 145.738C115.983 145.738 119.486 143.821 119.486 141.466C119.486 139.111 115.983 137.194 111.654 137.194C107.326 137.194 103.814 139.111 103.814 141.466Z" fill="#F9DC32"/>
<path d="M105.625 141.415C105.625 143.188 108.32 144.623 111.654 144.623C114.989 144.623 117.684 143.188 117.684 141.415C117.684 139.642 114.989 138.198 111.654 138.198C108.32 138.198 105.625 139.642 105.625 141.415Z" fill="#F9C32A"/>
<path d="M114.324 140.14L114.872 139.819L114.442 139.566L113.886 139.887C113.422 139.621 112.9 139.471 112.366 139.447C111.831 139.424 111.299 139.528 110.813 139.752C109.743 140.377 110.459 141.027 110.998 141.567L109.928 142.192C109.768 142.014 109.802 141.829 110.055 141.651L108.808 140.934C107.966 141.466 108.152 142.141 109.002 142.732L108.446 143.053L108.884 143.306L109.432 142.985C109.901 143.257 110.428 143.41 110.969 143.434C111.51 143.457 112.048 143.35 112.539 143.12C113.6 142.504 112.859 141.846 112.328 141.297L113.381 140.689C113.507 140.833 113.482 141.001 113.255 141.17L114.518 141.896C115.318 141.331 115.192 140.697 114.324 140.14ZM111.276 142.437C111.13 142.506 110.97 142.542 110.808 142.542C110.647 142.542 110.487 142.506 110.341 142.437L111.31 141.879C111.478 142.082 111.52 142.268 111.276 142.411V142.437ZM112 140.984C111.857 140.773 111.84 140.596 112.076 140.461C112.207 140.396 112.351 140.363 112.497 140.363C112.643 140.363 112.787 140.396 112.918 140.461L112 140.984Z" fill="#EF9D26"/>
<path d="M119.486 139.221V140.985C119.486 143.341 115.983 145.257 111.654 145.257C107.326 145.257 103.814 143.341 103.814 140.985V139.238L119.486 139.221Z" fill="#EF9D26"/>
<path d="M114.863 144.86C115.511 144.703 116.143 144.486 116.75 144.21V140.47H114.863V144.86Z" fill="#F9C32A"/>
<path d="M117.684 143.695C118.229 143.351 118.697 142.897 119.057 142.361V139.423H117.684V143.695Z" fill="#F9C32A"/>
<path d="M103.814 139.221C103.814 141.576 107.326 143.493 111.654 143.493C115.983 143.493 119.486 141.576 119.486 139.221C119.486 136.866 115.983 134.949 111.654 134.949C107.326 134.949 103.814 136.866 103.814 139.221Z" fill="#F9DC32"/>
<path d="M105.625 139.169C105.625 140.942 108.32 142.377 111.654 142.377C114.989 142.377 117.684 140.942 117.684 139.169C117.684 137.396 114.989 135.953 111.654 135.953C108.32 135.953 105.625 137.396 105.625 139.169Z" fill="#F9C32A"/>
<path d="M114.324 137.87L114.872 137.541L114.442 137.296L113.886 137.617C113.422 137.351 112.9 137.201 112.366 137.177C111.831 137.154 111.299 137.258 110.813 137.482C109.743 138.107 110.459 138.757 110.998 139.297L109.928 139.922C109.768 139.744 109.802 139.559 110.055 139.381L108.808 138.664C107.966 139.196 108.152 139.871 109.002 140.462L108.446 140.783L108.884 141.036L109.432 140.715C109.901 140.986 110.428 141.14 110.969 141.164C111.51 141.187 112.048 141.08 112.539 140.85C113.6 140.234 112.859 139.576 112.328 139.027L113.381 138.419C113.507 138.562 113.482 138.731 113.255 138.892L114.518 139.626C115.318 139.086 115.192 138.453 114.324 137.87ZM111.276 140.141C111.13 140.21 110.97 140.246 110.808 140.246C110.647 140.246 110.487 140.21 110.341 140.141L111.31 139.584C111.478 139.837 111.52 140.023 111.276 140.141ZM112.034 138.672C111.891 138.461 111.874 138.284 112.11 138.149C112.24 138.084 112.385 138.05 112.531 138.05C112.677 138.05 112.821 138.084 112.952 138.149L112.034 138.672Z" fill="#EF9D26"/>
<path d="M119.486 136.975V138.722C119.486 141.078 115.983 142.994 111.654 142.994C107.326 142.994 103.814 141.078 103.814 138.722V136.975H119.486Z" fill="#EF9D26"/>
<path d="M114.863 142.614C115.511 142.458 116.143 142.24 116.75 141.964V138.224H114.863V142.614Z" fill="#F9C32A"/>
<path d="M117.684 141.449C118.229 141.105 118.697 140.651 119.057 140.115V137.177H117.684V141.449Z" fill="#F9C32A"/>
<path d="M103.814 136.975C103.814 139.33 107.326 141.247 111.654 141.247C115.983 141.247 119.486 139.33 119.486 136.975C119.486 134.62 115.983 132.703 111.654 132.703C107.326 132.703 103.814 134.62 103.814 136.975Z" fill="#F9DC32"/>
<path d="M105.625 136.924C105.625 138.697 108.32 140.132 111.654 140.132C114.989 140.132 117.684 138.697 117.684 136.924C117.684 135.151 114.989 133.708 111.654 133.708C108.32 133.708 105.625 135.151 105.625 136.924Z" fill="#F9C32A"/>
<path d="M114.324 135.624L114.872 135.294L114.442 135.041L113.886 135.37C113.422 135.105 112.9 134.954 112.366 134.93C111.831 134.907 111.299 135.011 110.813 135.235C109.743 135.86 110.459 136.51 110.998 137.05L109.928 137.675C109.768 137.498 109.802 137.312 110.055 137.135L108.808 136.417C107.966 136.949 108.152 137.624 109.002 138.215L108.446 138.536L108.884 138.789L109.474 138.452C109.943 138.723 110.47 138.877 111.011 138.9C111.552 138.924 112.09 138.816 112.581 138.587C113.642 137.971 112.901 137.312 112.371 136.763L113.423 136.147C113.55 136.299 113.524 136.468 113.297 136.628L114.56 137.363C115.318 136.839 115.192 136.206 114.324 135.624ZM111.276 137.911C111.13 137.983 110.971 138.02 110.808 138.02C110.646 138.02 110.487 137.983 110.341 137.911L111.31 137.354C111.478 137.608 111.52 137.776 111.276 137.911ZM112.034 136.451C111.891 136.24 111.874 136.063 112.11 135.928C112.24 135.863 112.385 135.829 112.531 135.829C112.677 135.829 112.821 135.863 112.952 135.928L112.034 136.451Z" fill="#EF9D26"/>
<path d="M119.486 134.729V136.477C119.486 138.832 115.983 140.749 111.654 140.749C107.326 140.749 103.814 138.832 103.814 136.477V134.729H119.486Z" fill="#EF9D26"/>
<path d="M114.863 140.369C115.511 140.212 116.143 139.995 116.75 139.719V135.97H114.863V140.369Z" fill="#F9C32A"/>
<path d="M117.684 139.195C118.231 138.857 118.699 138.405 119.057 137.87V134.932H117.684V139.195Z" fill="#F9C32A"/>
<path d="M103.814 134.73C103.814 137.085 107.326 139.002 111.654 139.002C115.983 139.002 119.486 137.085 119.486 134.73C119.486 132.374 115.983 130.458 111.654 130.458C107.326 130.458 103.814 132.366 103.814 134.73Z" fill="#F9DC32"/>
<path d="M105.625 134.669C105.625 136.451 108.32 137.886 111.654 137.886C114.989 137.886 117.684 136.451 117.684 134.669C117.684 132.888 114.989 131.461 111.654 131.461C108.32 131.461 105.625 132.905 105.625 134.669Z" fill="#F9C32A"/>
<path d="M114.324 133.387L114.872 133.066L114.442 132.813L113.886 133.142C113.422 132.876 112.9 132.725 112.366 132.702C111.831 132.678 111.299 132.783 110.813 133.007C109.743 133.632 110.459 134.282 110.998 134.822L109.928 135.447C109.768 135.261 109.802 135.084 110.055 134.906L108.808 134.189C107.966 134.721 108.152 135.388 109.002 135.978L108.446 136.308L108.884 136.561L109.432 136.24C109.901 136.511 110.428 136.665 110.969 136.689C111.51 136.712 112.048 136.605 112.539 136.375C113.6 135.759 112.859 135.1 112.328 134.552L113.381 133.935C113.507 134.087 113.482 134.256 113.255 134.417L114.518 135.143C115.318 134.594 115.192 133.961 114.324 133.387ZM111.276 135.683C111.13 135.755 110.971 135.792 110.808 135.792C110.646 135.792 110.487 135.755 110.341 135.683L111.31 135.117C111.478 135.345 111.52 135.531 111.276 135.666V135.683ZM112 134.231C111.857 134.028 111.84 133.851 112.076 133.708C112.207 133.645 112.351 133.612 112.497 133.612C112.643 133.612 112.786 133.645 112.918 133.708L112 134.231Z" fill="#EF9D26"/>
<path d="M107.865 148.05V149.798C107.865 152.153 104.353 154.07 100.025 154.07C95.6965 154.07 92.1934 152.153 92.1934 149.798V148.05H107.865Z" fill="#EF9D26"/>
<path d="M103.233 153.691C103.882 153.536 104.513 153.318 105.12 153.041V149.301H103.233V153.691Z" fill="#F9C32A"/>
<path d="M106.105 152.526C106.646 152.18 107.11 151.726 107.469 151.192V148.254H106.105V152.526Z" fill="#F9C32A"/>
<path d="M92.1934 148.051C92.1934 150.406 95.6965 152.323 100.025 152.323C104.353 152.323 107.865 150.406 107.865 148.051C107.865 145.696 104.353 143.779 100.025 143.779C95.6965 143.779 92.1934 145.696 92.1934 148.051Z" fill="#F9DC32"/>
<path d="M100.025 151.209C103.355 151.209 106.055 149.772 106.055 148.001C106.055 146.229 103.355 144.792 100.025 144.792C96.6951 144.792 93.9956 146.229 93.9956 148.001C93.9956 149.772 96.6951 151.209 100.025 151.209Z" fill="#F9C32A"/>
<path d="M102.737 146.701L103.292 146.38L102.855 146.127L102.299 146.447C101.835 146.183 101.315 146.033 100.782 146.01C100.249 145.986 99.7186 146.09 99.2335 146.312C98.164 146.937 98.8714 147.587 99.4187 148.127L98.3408 148.752C98.1808 148.575 98.2145 148.389 98.4671 148.212L97.2208 147.494C96.3787 148.026 96.564 148.701 97.4229 149.292L96.8587 149.613L97.2966 149.866L97.8524 149.546C98.3214 149.817 98.8487 149.971 99.3896 149.994C99.9305 150.018 100.469 149.91 100.96 149.681C102.012 149.064 101.271 148.406 100.741 147.866L101.802 147.249C101.928 147.393 101.895 147.562 101.676 147.722L102.93 148.457C103.688 147.916 103.579 147.283 102.737 146.701ZM99.6882 148.997C99.5435 149.066 99.3853 149.102 99.225 149.102C99.0648 149.102 98.9066 149.066 98.7619 148.997L99.7219 148.44C99.8482 148.668 99.8903 148.853 99.6461 148.997H99.6882ZM100.446 147.528C100.303 147.317 100.286 147.14 100.53 147.005C100.661 146.94 100.805 146.906 100.951 146.906C101.097 146.906 101.241 146.94 101.372 147.005L100.446 147.528Z" fill="#EF9D26"/>
<path d="M107.865 145.805V147.553C107.865 149.908 104.353 151.824 100.025 151.824C95.6965 151.824 92.1934 149.908 92.1934 147.553V145.805H107.865Z" fill="#EF9D26"/>
<path d="M103.233 151.445C103.882 151.29 104.513 151.072 105.12 150.795V147.055H103.233V151.445Z" fill="#F9C32A"/>
<path d="M106.105 150.271C106.646 149.925 107.11 149.471 107.469 148.938V146.05H106.105V150.271Z" fill="#F9C32A"/>
<path d="M92.1934 145.805C92.1934 148.16 95.6965 150.077 100.025 150.077C104.353 150.077 107.865 148.16 107.865 145.805C107.865 143.45 104.353 141.533 100.025 141.533C95.6965 141.533 92.1934 143.45 92.1934 145.805Z" fill="#F9DC32"/>
<path d="M100.025 148.963C103.355 148.963 106.055 147.527 106.055 145.755C106.055 143.983 103.355 142.547 100.025 142.547C96.6951 142.547 93.9956 143.983 93.9956 145.755C93.9956 147.527 96.6951 148.963 100.025 148.963Z" fill="#F9C32A"/>
<path d="M102.737 144.455L103.292 144.126L102.855 143.881L102.299 144.202C101.835 143.938 101.315 143.787 100.782 143.764C100.249 143.741 99.7186 143.844 99.2335 144.067C98.164 144.691 98.8714 145.341 99.4187 145.882L98.3408 146.506C98.1808 146.329 98.2145 146.143 98.4671 145.966L97.2208 145.249C96.3787 145.78 96.564 146.456 97.4229 147.047L96.8587 147.368L97.2966 147.621L97.8524 147.3C98.3214 147.571 98.8487 147.725 99.3896 147.749C99.9305 147.772 100.469 147.665 100.96 147.435C102.012 146.819 101.271 146.16 100.741 145.612L101.802 145.004C101.928 145.147 101.895 145.316 101.676 145.477L102.93 146.211C103.688 145.671 103.579 145.038 102.737 144.455ZM99.6882 146.751C99.5435 146.82 99.3853 146.856 99.225 146.856C99.0648 146.856 98.9066 146.82 98.7619 146.751L99.7219 146.194C99.8482 146.422 99.8903 146.608 99.6461 146.751H99.6882ZM100.446 145.282C100.303 145.071 100.286 144.894 100.53 144.759C100.661 144.694 100.805 144.66 100.951 144.66C101.097 144.66 101.241 144.694 101.372 144.759L100.446 145.282Z" fill="#EF9D26"/>
<path d="M107.865 143.56V145.307C107.865 147.662 104.353 149.579 100.025 149.579C95.6965 149.579 92.1934 147.662 92.1934 145.307V143.56H107.865Z" fill="#EF9D26"/>
<path d="M103.233 149.2C103.882 149.045 104.513 148.827 105.12 148.55V144.801H103.233V149.2Z" fill="#F9C32A"/>
<path d="M106.105 148.034C106.646 147.687 107.11 147.233 107.469 146.7V143.762H106.105V148.034Z" fill="#F9C32A"/>
<path d="M92.1934 143.56C92.1934 145.915 95.6965 147.832 100.025 147.832C104.353 147.832 107.865 145.915 107.865 143.56C107.865 141.204 104.353 139.288 100.025 139.288C95.6965 139.288 92.1934 141.204 92.1934 143.56Z" fill="#F9DC32"/>
<path d="M100.025 146.717C103.355 146.717 106.055 145.281 106.055 143.509C106.055 141.738 103.355 140.301 100.025 140.301C96.6951 140.301 93.9956 141.738 93.9956 143.509C93.9956 145.281 96.6951 146.717 100.025 146.717Z" fill="#F9C32A"/>
<path d="M102.737 142.201L103.292 141.88L102.855 141.627L102.299 141.956C101.835 141.692 101.315 141.542 100.782 141.518C100.249 141.495 99.7186 141.599 99.2335 141.821C98.164 142.446 98.8714 143.096 99.4187 143.636L98.3408 144.261C98.1808 144.084 98.2145 143.898 98.4671 143.721L97.2208 143.003C96.3787 143.535 96.564 144.202 97.4229 144.801L96.8587 145.122L97.2966 145.375L97.8524 145.054C98.3214 145.326 98.8487 145.48 99.3896 145.503C99.9305 145.527 100.469 145.419 100.96 145.19C102.012 144.573 101.271 143.915 100.741 143.366L101.802 142.75C101.928 142.902 101.895 143.071 101.676 143.231L102.93 143.965C103.688 143.425 103.579 142.792 102.737 142.201ZM99.6882 144.506C99.5435 144.575 99.3853 144.611 99.225 144.611C99.0648 144.611 98.9066 144.575 98.7619 144.506L99.7219 143.949C99.8482 144.176 99.8903 144.362 99.6461 144.506H99.6882ZM100.446 143.037C100.303 142.826 100.286 142.648 100.53 142.513C100.661 142.449 100.805 142.415 100.951 142.415C101.097 142.415 101.241 142.449 101.372 142.513L100.446 143.037Z" fill="#EF9D26"/>
<path d="M96.2355 154.636V156.383C96.2355 158.739 92.7324 160.655 88.404 160.655C84.0755 160.655 80.564 158.739 80.564 156.383V154.636H96.2355Z" fill="#EF9D26"/>
<path d="M91.604 160.275C92.2546 160.119 92.889 159.901 93.4987 159.625V155.885H91.604V160.275Z" fill="#F9C32A"/>
<path d="M94.4336 159.11C94.9783 158.769 95.4435 158.314 95.7978 157.776V154.838H94.4336V159.11Z" fill="#F9C32A"/>
<path d="M80.564 154.636C80.564 156.991 84.0755 158.908 88.404 158.908C92.7324 158.908 96.2355 156.991 96.2355 154.636C96.2355 152.281 92.7324 150.364 88.404 150.364C84.0755 150.364 80.564 152.281 80.564 154.636Z" fill="#F9DC32"/>
<path d="M82.3662 154.585C82.3662 156.358 85.0694 157.793 88.4041 157.793C91.7388 157.793 94.4336 156.358 94.4336 154.585C94.4336 152.812 91.7304 151.369 88.4041 151.369C85.0778 151.369 82.3662 152.804 82.3662 154.585Z" fill="#F9C32A"/>
<path d="M91.0733 153.285L91.6207 152.964L91.1828 152.711L90.6355 153.032C90.1706 152.766 89.6494 152.615 89.1149 152.592C88.5804 152.568 88.048 152.673 87.5618 152.896C86.4923 153.521 87.2081 154.171 87.747 154.711L86.6691 155.336C86.5091 155.159 86.5428 154.973 86.8039 154.796L85.5491 154.078C84.707 154.61 84.9007 155.286 85.7512 155.877L85.1954 156.197L85.6249 156.451L86.1807 156.13C86.6497 156.401 87.177 156.555 87.7179 156.578C88.2588 156.602 88.7974 156.494 89.2881 156.265C90.3491 155.649 89.5997 154.99 89.0691 154.441L90.1302 153.834C90.2565 153.977 90.2312 154.146 90.0039 154.315L91.267 155.041C92.067 154.492 91.9407 153.867 91.0733 153.285ZM88.0165 155.581C87.8718 155.65 87.7136 155.686 87.5533 155.686C87.3931 155.686 87.2349 155.65 87.0902 155.581L88.0586 155.024C88.2186 155.252 88.2607 155.438 88.0165 155.581ZM88.7828 154.112C88.6396 153.901 88.6228 153.724 88.8586 153.589C88.9896 153.524 89.1336 153.49 89.2797 153.49C89.4257 153.49 89.5698 153.524 89.7007 153.589L88.7828 154.112Z" fill="#EF9D26"/>
<path d="M96.2355 152.391V154.138C96.2355 156.494 92.7324 158.41 88.404 158.41C84.0755 158.41 80.564 156.494 80.564 154.138V152.391H96.2355Z" fill="#EF9D26"/>
<path d="M91.604 158.03C92.2546 157.873 92.889 157.656 93.4987 157.38V153.648H91.604V158.03Z" fill="#F9C32A"/>
<path d="M94.4336 156.865C94.9766 156.521 95.4414 156.067 95.7978 155.531V152.593H94.4336V156.865Z" fill="#F9C32A"/>
<path d="M80.564 152.39C80.564 154.745 84.0755 156.662 88.404 156.662C92.7324 156.662 96.2355 154.745 96.2355 152.39C96.2355 150.035 92.7324 148.118 88.404 148.118C84.0755 148.118 80.564 150.035 80.564 152.39Z" fill="#F9DC32"/>
<path d="M82.3662 152.339C82.3662 154.112 85.0694 155.547 88.4041 155.547C91.7388 155.547 94.4336 154.112 94.4336 152.339C94.4336 150.566 91.7304 149.123 88.4041 149.123C85.0778 149.123 82.3662 150.566 82.3662 152.339Z" fill="#F9C32A"/>
<path d="M91.0733 151.039L91.6207 150.71L91.1828 150.465L90.6355 150.786C90.1706 150.52 89.6494 150.37 89.1149 150.346C88.5804 150.323 88.048 150.427 87.5618 150.651C86.4923 151.276 87.2081 151.926 87.747 152.466L86.6691 153.091C86.5091 152.913 86.5428 152.728 86.8039 152.55L85.5491 151.833C84.707 152.365 84.9007 153.04 85.7512 153.631L85.1954 153.952L85.6249 154.205L86.1807 153.884C86.6497 154.155 87.177 154.309 87.7179 154.333C88.2588 154.356 88.7974 154.249 89.2881 154.019C90.3491 153.403 89.5997 152.744 89.0691 152.196L90.1302 151.588C90.2565 151.731 90.2312 151.9 90.0039 152.061L91.267 152.795C92.067 152.255 91.9407 151.622 91.0733 151.039ZM88.0165 153.335C87.8718 153.404 87.7136 153.44 87.5533 153.44C87.3931 153.44 87.2349 153.404 87.0902 153.335L88.0586 152.778C88.2186 153.006 88.2607 153.192 88.0165 153.335ZM88.7828 151.867C88.6396 151.655 88.6228 151.478 88.8586 151.343C88.9896 151.278 89.1336 151.245 89.2797 151.245C89.4257 151.245 89.5698 151.278 89.7007 151.343L88.7828 151.867Z" fill="#EF9D26"/>
<path d="M84.6145 161.246V162.935C84.6145 165.29 81.1029 167.206 76.7745 167.206C72.446 167.206 68.9429 165.29 68.9429 162.935V161.246H84.6145Z" fill="#EF9D26"/>
<path d="M80 166.86C80.6482 166.704 81.28 166.487 81.8863 166.21V162.47H80V166.86Z" fill="#F9C32A"/>
<path d="M82.8125 165.695C83.3555 165.351 83.8203 164.897 84.1767 164.361V161.423H82.8125V165.695Z" fill="#F9C32A"/>
<path d="M68.9429 161.246C68.9429 163.602 72.446 165.518 76.7745 165.518C81.1029 165.518 84.6145 163.602 84.6145 161.246C84.6145 158.891 81.1029 156.975 76.7745 156.975C72.446 156.975 68.9429 158.866 68.9429 161.246Z" fill="#F9DC32"/>
<path d="M70.7368 161.17C70.7368 162.943 73.44 164.378 76.7663 164.378C80.0926 164.378 82.8042 162.943 82.8042 161.17C82.8042 159.397 80.101 157.954 76.7663 157.954C73.4316 157.954 70.7368 159.397 70.7368 161.17Z" fill="#F9C32A"/>
<path d="M79.4444 159.87L80.0002 159.558L79.5623 159.313L79.0065 159.634C78.5427 159.37 78.023 159.22 77.4901 159.196C76.9572 159.173 76.4263 159.276 75.9412 159.499C74.8633 160.123 75.5791 160.774 76.1265 161.314L75.0486 161.939C74.8886 161.761 74.9223 161.576 75.1749 161.398L73.9286 160.681C73.0865 161.213 73.2718 161.888 74.1223 162.479L73.5665 162.8L74.0044 163.053L74.5518 162.732C75.0218 163.005 75.5506 163.159 76.0931 163.183C76.6356 163.206 77.1758 163.098 77.6675 162.867C78.7202 162.251 77.9791 161.592 77.4486 161.044L78.5012 160.436C78.6275 160.579 78.6023 160.748 78.3833 160.917L79.6381 161.643C80.4381 161.086 80.3117 160.453 79.4444 159.87ZM76.396 162.167C76.2498 162.236 76.0902 162.272 75.9286 162.272C75.767 162.272 75.6074 162.236 75.4612 162.167L76.4296 161.609C76.6317 161.837 76.6318 162.023 76.396 162.167ZM77.1539 160.698C77.0107 160.487 76.9939 160.309 77.2296 160.174C77.361 160.111 77.5049 160.078 77.6507 160.078C77.7965 160.078 77.9404 160.111 78.0718 160.174L77.1539 160.698Z" fill="#EF9D26"/>
<path d="M197.322 128.744L187.259 122.893V134.653L197.322 140.495V128.744Z" fill="#BBCEE1"/>
<path d="M197.659 116.899L187.259 122.893L197.322 128.743L207.739 122.749L197.659 116.899Z" fill="white"/>
<path d="M207.739 122.75L197.322 128.743V140.495L207.739 134.45V122.75Z" fill="#A7BCCE"/>
<path d="M172.286 27.9863C171.225 27.3784 170.366 27.8681 170.366 29.0837C170.388 29.7098 170.561 30.3212 170.871 30.8651L163.158 38.2098C162.884 37.8503 162.548 37.5441 162.164 37.3065C161.964 37.159 161.727 37.0712 161.48 37.0533C161.232 37.0354 160.985 37.088 160.766 37.2052L156.556 31.6839C156.601 31.5162 156.624 31.3429 156.623 31.169C156.588 30.5062 156.397 29.8611 156.066 29.2861C155.735 28.7111 155.274 28.2224 154.72 27.8596C153.667 27.2433 152.808 27.7414 152.8 28.9487C152.835 29.6114 153.026 30.2565 153.357 30.8315C153.687 31.4065 154.149 31.8952 154.703 32.258C154.88 32.3776 155.081 32.457 155.292 32.4905C155.503 32.5241 155.719 32.511 155.924 32.4522L160.244 38.1422C160.24 38.2294 160.24 38.3168 160.244 38.4039C160.28 39.0675 160.472 39.713 160.805 40.2881C161.137 40.8631 161.6 41.3515 162.156 41.7133C163.208 42.3211 164.067 41.8315 164.067 40.6158C164.052 40.0723 163.916 39.539 163.671 39.054L171.427 31.6586C171.664 31.9478 171.949 32.1934 172.269 32.3847C173.33 33.0009 174.189 32.5113 174.189 31.2956C174.154 30.6328 173.963 29.9878 173.632 29.4128C173.302 28.8378 172.841 28.349 172.286 27.9863Z" fill="#C51341"/>
<path d="M72.6482 43.6885L47.4019 58.2344V88.4744L72.6482 73.8356V43.6885Z" fill="#BBCEE1"/>
<path d="M47.4021 58.2339L45.5073 57.0942V87.3427L47.4021 88.4739V58.2339Z" fill="#A7BCCE"/>
<path d="M72.6484 43.6887L70.7115 42.5659L45.5073 57.095L47.4021 58.2346L72.6484 43.6887Z" fill="white"/>
<path d="M70.5179 47.4702L49.541 59.5595V84.6919L70.5179 72.5267V47.4702Z" fill="#F4F7FF"/>
<path d="M50.3578 81.3237V81.9822L49.1704 82.6745V82.0075L50.3578 81.3237Z" fill="#BBCEE1"/>
<path d="M50.3578 78.7998V79.4583L49.1704 80.1506V79.4836L50.3578 78.7998Z" fill="#BBCEE1"/>
<path d="M50.3578 76.2671V76.9256L49.1704 77.6179V76.9509L50.3578 76.2671Z" fill="#BBCEE1"/>
<path d="M50.3578 73.7432V74.4017L49.1704 75.0855V74.427L50.3578 73.7432Z" fill="#BBCEE1"/>
<path d="M50.3578 71.21V71.8685L49.1704 72.5607V71.8938L50.3578 71.21Z" fill="#BBCEE1"/>
<path d="M50.3578 68.686V69.3445L49.1704 70.0368V69.3699L50.3578 68.686Z" fill="#BBCEE1"/>
<path d="M50.3578 66.1533V66.8118L49.1704 67.5041V66.8371L50.3578 66.1533Z" fill="#BBCEE1"/>
<path d="M50.3578 63.6284V64.2869L49.1704 64.9792V64.3122L50.3578 63.6284Z" fill="#BBCEE1"/>
<path d="M51.5117 81.383L69.0022 71.2354V56.5122L51.5117 81.383Z" fill="#F9AE40"/>
<path d="M54.2907 58.9346V63.9155L51.5117 65.5279V60.5301L54.2907 58.9346Z" fill="#F9AE40"/>
<path d="M51.5117 81.3823L69.0022 56.5116V50.3994L51.5117 81.3823Z" fill="#C51341"/>
<g style="mix-blend-mode:overlay">
<path d="M104.842 36.2841L91.3433 28.4497V29.7667L104.842 37.6011V36.2841Z" fill="#F4F7FF"/>
</g>
<g style="mix-blend-mode:overlay">
<path d="M104.842 38.5053L91.3433 30.6709V31.9794L104.842 39.8223V38.5053Z" fill="#F4F7FF"/>
</g>
<g style="mix-blend-mode:overlay">
<path d="M171.284 125.434L157.785 117.591V118.908L171.284 126.743V125.434Z" fill="#F4F7FF"/>
</g>
<g style="mix-blend-mode:overlay">
<path d="M171.284 127.646L157.785 119.812V121.129L171.284 128.963V127.646Z" fill="#F4F7FF"/>
</g>
<g style="mix-blend-mode:overlay">
<path d="M155.747 116.418L142.24 108.576V109.893L155.747 117.735V116.418Z" fill="#F4F7FF"/>
</g>
<g style="mix-blend-mode:overlay">
<path d="M155.747 118.638L142.24 110.795V112.112L155.747 119.955V118.638Z" fill="#F4F7FF"/>
</g>
<g style="mix-blend-mode:overlay">
<path d="M140.202 107.402L126.703 99.5674V100.884L140.202 108.719V107.402Z" fill="#F4F7FF"/>
</g>
<g style="mix-blend-mode:overlay">
<path d="M140.202 109.622L126.703 101.779V103.096L140.202 110.939V109.622Z" fill="#F4F7FF"/>
</g>
<g style="mix-blend-mode:overlay">
<path d="M124.665 98.3941L111.158 90.5513V91.8683L124.665 99.7026V98.3941Z" fill="#F4F7FF"/>
</g>
<g style="mix-blend-mode:overlay">
<path d="M124.665 100.606L111.158 92.7715V94.0885L124.665 101.923V100.606Z" fill="#F4F7FF"/>
</g>
<g style="mix-blend-mode:overlay">
<path d="M104.842 40.7247L91.3433 32.8818V34.1988L104.842 42.0416V40.7247Z" fill="#F4F7FF"/>
</g>
<g style="mix-blend-mode:overlay">
<path d="M104.842 42.9369L91.3433 35.1025V36.4195L104.842 44.2539V42.9369Z" fill="#F4F7FF"/>
</g>
<g style="mix-blend-mode:overlay">
<path d="M104.842 45.1568L91.3433 37.314V38.631L104.842 46.4738V45.1568Z" fill="#F4F7FF"/>
</g>
<g style="mix-blend-mode:overlay">
<path d="M104.842 47.378L91.3433 39.5352V40.8521L104.842 48.695V47.378Z" fill="#F4F7FF"/>
</g>
<g style="mix-blend-mode:overlay">
<path d="M104.842 49.5893L91.3433 41.7549V43.0719L104.842 50.9062V49.5893Z" fill="#F4F7FF"/>
</g>
<g style="mix-blend-mode:overlay">
<path d="M104.842 51.8096L91.3433 43.9668V45.2838L104.842 53.1266V51.8096Z" fill="#F4F7FF"/>
</g>
<g style="mix-blend-mode:overlay">
<path d="M104.842 54.0293L91.3433 46.1865V47.5035L104.842 55.3463V54.0293Z" fill="#F4F7FF"/>
</g>
<g style="mix-blend-mode:overlay">
<path d="M104.842 56.2421L91.3433 48.4077V49.7247L104.842 57.5591V56.2421Z" fill="#F4F7FF"/>
</g>
<g style="mix-blend-mode:overlay">
<path d="M104.842 58.462L91.3433 50.6191V51.9361L104.842 59.7789V58.462Z" fill="#F4F7FF"/>
</g>
<g style="mix-blend-mode:overlay">
<path d="M104.842 60.6832L91.3433 52.8403V54.1573L104.842 62.0001V60.6832Z" fill="#F4F7FF"/>
</g>
<g style="mix-blend-mode:overlay">
<path d="M104.842 62.8944L91.3433 55.0601V56.377L104.842 64.2114V62.8944Z" fill="#F4F7FF"/>
</g>
<g style="mix-blend-mode:overlay">
<path d="M104.842 65.1148L91.3433 57.272V58.589L104.842 66.4318V65.1148Z" fill="#F4F7FF"/>
</g>
<g style="mix-blend-mode:overlay">
<path d="M104.842 67.3261L91.3433 59.4917V60.8087L104.842 68.6431V67.3261Z" fill="#F4F7FF"/>
</g>
<g style="mix-blend-mode:overlay">
<path d="M104.842 69.5473L91.3433 61.7129V63.0299L104.842 70.8642V69.5473Z" fill="#F4F7FF"/>
</g>
<g style="mix-blend-mode:overlay">
<path d="M104.842 71.7671L91.3433 63.9243V65.2413L104.842 73.0841V71.7671Z" fill="#F4F7FF"/>
</g>
<path d="M107.343 37.7363L171.284 74.9158V122.082L107.343 84.7594V37.7363Z" fill="#F4F7FF"/>
<path d="M108.926 82.1514V82.6748L169.238 117.887V117.355L108.926 82.1514Z" fill="#BBCEE1"/>
<path d="M108.926 76.6304V77.1622L169.238 112.366V111.843L108.926 76.6304Z" fill="#BBCEE1"/>
<path d="M108.926 71.1172V71.6406L169.238 106.853V106.321L108.926 71.1172Z" fill="#BBCEE1"/>
<path d="M108.926 65.5957V66.1276L169.238 101.332V100.808L108.926 65.5957Z" fill="#BBCEE1"/>
<path d="M108.926 60.083V60.6064L169.238 95.8189V95.2955L108.926 60.083Z" fill="#BBCEE1"/>
<path d="M108.926 54.5615V55.0934L169.238 90.2974V89.774L108.926 54.5615Z" fill="#BBCEE1"/>
<path d="M108.926 49.0493V49.5727L169.238 84.7852V84.2618L108.926 49.0493Z" fill="#BBCEE1"/>
<path d="M108.926 43.8408V82.1516L109.406 82.4302V44.111L108.926 43.8408Z" fill="#BBCEE1"/>
<path d="M114.729 47.2334V85.5526L115.209 85.8228V47.512L114.729 47.2334Z" fill="#BBCEE1"/>
<path d="M120.53 50.6362V88.947L121.01 89.2256V50.9064L120.53 50.6362Z" fill="#BBCEE1"/>
<path d="M126.333 54.0303V92.3495L126.813 92.6196V54.3089L126.333 54.0303Z" fill="#BBCEE1"/>
<path d="M132.135 57.4326V95.7434L132.615 96.022V57.7028L132.135 57.4326Z" fill="#BBCEE1"/>
<path d="M137.937 60.8257V99.1449L138.417 99.415V61.1043L137.937 60.8257Z" fill="#BBCEE1"/>
<path d="M143.739 64.228V102.539L144.219 102.817V64.4982L143.739 64.228Z" fill="#BBCEE1"/>
<path d="M149.541 67.6221V105.941L150.021 106.211V67.9007L149.541 67.6221Z" fill="#BBCEE1"/>
<path d="M155.343 71.0239V109.335L155.823 109.613V71.2941L155.343 71.0239Z" fill="#BBCEE1"/>
<path d="M161.154 74.418V112.737L161.625 113.016V74.6966L161.154 74.418Z" fill="#BBCEE1"/>
<path d="M166.956 77.8203V116.131L167.427 116.41V78.0905L166.956 77.8203Z" fill="#BBCEE1"/>
<path d="M120.775 76.8829C121.117 77.1071 121.402 77.4087 121.607 77.7636C121.812 78.1185 121.93 78.5166 121.953 78.9259C121.953 79.6773 121.415 79.9812 120.766 79.6013C120.422 79.3821 120.135 79.0826 119.931 78.7283C119.728 78.3739 119.612 77.9754 119.596 77.5667C119.579 76.8238 120.126 76.5115 120.775 76.8829Z" fill="#C51341"/>
<path d="M120.775 71.2779C121.117 71.5021 121.402 71.8038 121.607 72.1586C121.812 72.5135 121.93 72.9116 121.953 73.321C121.953 74.0723 121.415 74.3678 120.766 73.9963C120.424 73.7727 120.139 73.471 119.936 73.1159C119.732 72.7607 119.616 72.3623 119.596 71.9533C119.579 71.202 120.126 70.9149 120.775 71.2779Z" fill="#F9AE40"/>
<path d="M132.379 83.8991C132.722 84.1204 133.008 84.4203 133.213 84.774C133.418 85.1277 133.536 85.5252 133.558 85.9337C133.558 86.685 133.027 86.989 132.37 86.6175C132.028 86.3939 131.743 86.0922 131.54 85.737C131.337 85.3819 131.22 84.9835 131.2 84.5745C131.2 83.8231 131.73 83.5192 132.379 83.8991Z" fill="#F9AE40"/>
<path d="M138.181 76.0308C138.524 76.2522 138.81 76.552 139.015 76.9057C139.22 77.2595 139.338 77.6569 139.36 78.0654C139.36 78.8168 138.829 79.1207 138.172 78.7408C137.828 78.5216 137.542 78.2221 137.338 77.8677C137.134 77.5134 137.019 77.1149 137.002 76.7062C137.002 75.9802 137.532 75.6509 138.181 76.0308Z" fill="#F9AE40"/>
<path d="M143.941 73.8435C144.283 74.0671 144.568 74.3688 144.771 74.7239C144.974 75.0791 145.091 75.4775 145.111 75.8865C145.111 76.6378 144.581 76.9418 143.932 76.5619C143.59 76.3377 143.305 76.036 143.1 75.6812C142.895 75.3263 142.777 74.9282 142.753 74.5189C142.762 73.7759 143.292 73.4467 143.941 73.8435Z" fill="#F9AE40"/>
<path d="M155.587 86.2624C155.93 86.4837 156.216 86.7836 156.421 87.1373C156.626 87.491 156.744 87.8885 156.766 88.297C156.766 89.0483 156.236 89.3522 155.579 88.9723C155.237 88.7501 154.953 88.4498 154.749 88.0961C154.546 87.7425 154.429 87.3455 154.408 86.9378C154.408 86.1864 154.947 85.8825 155.587 86.2624Z" fill="#F9AE40"/>
<path d="M149.785 93.9279C150.13 94.1501 150.416 94.4513 150.621 94.8066C150.826 95.1619 150.944 95.561 150.964 95.9709C150.964 96.7139 150.434 97.0178 149.777 96.6463C149.436 96.4217 149.152 96.1198 148.949 95.7648C148.745 95.4099 148.628 95.012 148.606 94.6033C148.606 93.8519 149.137 93.548 149.785 93.9279Z" fill="#F9AE40"/>
<path d="M161.389 83.6871C161.735 83.9053 162.023 84.2045 162.229 84.5588C162.434 84.9132 162.551 85.3122 162.568 85.7217C162.568 86.473 162.038 86.777 161.381 86.3971C161.04 86.1738 160.757 85.8733 160.554 85.5198C160.35 85.1664 160.233 84.7699 160.21 84.3625C160.21 83.5774 160.741 83.3072 161.389 83.6871Z" fill="#F9AE40"/>
<path d="M126.577 83.4255C126.919 83.6496 127.204 83.9513 127.409 84.3062C127.614 84.6611 127.733 85.0592 127.756 85.4685C127.756 86.2199 127.225 86.5153 126.568 86.1439C126.226 85.9203 125.942 85.6185 125.738 85.2634C125.535 84.9083 125.418 84.5099 125.398 84.1008C125.398 83.3495 125.928 83.0456 126.577 83.4255Z" fill="#C51341"/>
<path d="M132.379 78.4113C132.725 78.6295 133.013 78.9286 133.218 79.283C133.423 79.6374 133.54 80.0364 133.558 80.4459C133.558 81.1972 133.027 81.5012 132.37 81.1213C132.026 80.9021 131.739 80.6026 131.535 80.2482C131.332 79.8939 131.216 79.4954 131.2 79.0867C131.2 78.3353 131.73 78.0314 132.379 78.4113Z" fill="#C51341"/>
<path d="M143.941 87.8663C144.283 88.0899 144.568 88.3917 144.771 88.7468C144.974 89.1019 145.091 89.5003 145.111 89.9094C145.111 90.6607 144.581 90.9562 143.932 90.5847C143.59 90.3606 143.305 90.0589 143.1 89.704C142.895 89.3492 142.777 88.951 142.753 88.5417C142.762 87.7988 143.292 87.4864 143.941 87.8663Z" fill="#C51341"/>
<path d="M149.785 81.0451C150.129 81.2683 150.415 81.5697 150.619 81.9248C150.824 82.2799 150.943 82.6785 150.964 83.0882C150.964 83.8395 150.434 84.135 149.777 83.7635C149.436 83.5389 149.152 83.237 148.949 82.8821C148.745 82.5271 148.628 82.1292 148.606 81.7205C148.606 80.9945 149.137 80.6906 149.785 81.0451Z" fill="#C51341"/>
<path d="M161.389 78.7663C161.733 78.9895 162.019 79.2909 162.223 79.646C162.428 80.001 162.546 80.3997 162.568 80.8093C162.568 81.5522 162.038 81.8561 161.381 81.4847C161.04 81.2601 160.756 80.9581 160.553 80.6032C160.349 80.2483 160.232 79.8504 160.21 79.4417C160.21 78.6903 160.741 78.3864 161.389 78.7663Z" fill="#ED5561"/>
<path d="M161.347 79.897L149.659 82.2186L143.907 88.9048L132.37 79.4664L126.593 84.4642L120.833 77.9722L114.888 80.2769L115.048 80.7074L120.707 78.5209L126.551 85.1058L132.379 80.0658L143.966 89.5464L149.903 82.6407L161.431 80.3529L161.347 79.897Z" fill="#C51341"/>
<path d="M161.297 84.9788L155.444 87.4271L149.878 94.7802L144.16 75.1436L144.084 74.8988L138.03 77.1951L132.354 84.8944L120.758 72.2817L114.594 80.4369L114.964 80.7155L120.792 72.9909L132.211 85.4094L132.396 85.612L138.324 77.575L143.79 75.5067L149.693 95.7849L155.731 87.807L161.474 85.4009L161.297 84.9788Z" fill="#F9AE40"/>
<path d="M114.972 79.1369C115.315 79.3611 115.6 79.6627 115.805 80.0176C116.009 80.3725 116.128 80.7706 116.151 81.1799C116.151 81.9313 115.612 82.2268 114.964 81.8553C114.622 81.6317 114.337 81.3299 114.134 80.9748C113.93 80.6197 113.814 80.2213 113.793 79.8123C113.793 79.0609 114.324 78.757 114.972 79.1369Z" fill="#C51341"/>
<path d="M54.1474 92.3071C54.1474 92.3071 52.9011 92.4422 52.4632 92.552C51.5872 92.6785 50.7354 92.9375 49.9369 93.3202C49.4064 93.7507 50.72 93.7508 51.0821 93.8689C51.4442 93.9871 50.619 94.367 50.08 94.7976C49.4797 95.2371 49.0747 95.8946 48.9516 96.6295C48.7579 97.3978 51.2506 99.2719 51.899 98.1407C52.059 97.7534 52.2972 97.4034 52.5986 97.1128C52.9001 96.8223 53.2582 96.5974 53.6506 96.4523C54.5565 95.9231 55.3842 95.2696 56.1095 94.5105L54.1474 92.3071Z" fill="#F4C5A2"/>
<path d="M54.1808 91.6235L53.1787 92.2651C53.8223 93.3694 54.5339 94.4323 55.3092 95.4479L56.4124 94.7978L54.1808 91.6235Z" fill="#E6E7E8"/>
<path d="M63.124 86.0088L53.8945 91.6735L56.084 95.1095L66.6861 89.2506L69.4566 85.2321L69.7514 73.9702L63.124 86.0088Z" fill="#0F4463"/>
<path d="M74.2653 134.433L70.1305 134.188C69.6904 134.794 69.0316 135.203 68.2948 135.328C66.8548 135.708 64.0169 137.388 64.6148 138.798C65.2126 140.208 67.5958 140.182 68.9011 139.583C69.8713 139.174 70.8818 138.868 71.9158 138.671L72.2442 139.245L74.8969 138.553L74.9895 134.746L74.2653 134.433Z" fill="#9D4D36"/>
<path d="M76.8166 136.215C76.5124 136.944 76.0723 137.609 75.5198 138.173C74.8545 138.671 72.9934 141.609 73.5408 142.589C73.8078 143.015 74.1956 143.352 74.6546 143.557C75.1136 143.761 75.6229 143.824 76.1177 143.737C77.4394 143.354 78.5807 142.51 79.3345 141.356L79.8735 140.301C79.8735 140.301 80.1177 140.765 80.185 140.748C80.8887 140.384 81.5718 139.981 82.2313 139.541C82.2313 139.541 82.0798 136.603 81.9535 135.32L76.8166 136.215Z" fill="#9D4D36"/>
<path d="M74.5768 97.6338H69.0526C68.9347 97.8026 68.8252 111.276 68.8841 113.463C68.9431 115.649 69.642 134.273 69.642 134.273C70.4576 134.808 71.3824 135.154 72.3486 135.284C73.3147 135.414 74.2977 135.325 75.2252 135.024L75.8315 111.631L74.5768 97.6338Z" fill="#072944"/>
<path d="M81.541 96.1064C81.541 96.1064 81.6589 103.063 81.541 105.393C81.4231 107.723 82.2315 117.524 82.3073 117.761C82.3831 117.997 82.602 135.785 82.602 135.785C82.602 135.785 80.3031 137.786 76.0168 136.865C76.0168 136.865 74.7199 112.687 74.2652 108.93C73.8104 105.173 73.2715 97.4066 73.2715 97.4066L81.541 96.1064Z" fill="#07304B"/>
<path d="M79.326 72.603L72.4123 72.8225L69.7512 73.9538C68.9099 75.996 68.3626 78.1478 68.126 80.3445C67.5533 84.5656 68.6818 97.3556 68.6818 97.3556C71.2839 98.6641 80.0165 98.318 80.0165 98.318C81.6249 94.1729 83.1997 75.2792 83.1997 75.2792L79.326 72.603Z" fill="#0B3B56"/>
<path d="M74.181 72.7801L71.7725 74.8484C70.7283 80.9606 70.821 92.9063 70.9304 97.9801C71.8147 98.1236 72.8168 98.2165 73.8273 98.2756C74.0715 85.6123 78.2652 73.5061 78.5683 72.645L74.181 72.7801Z" fill="#D4D6D8"/>
<path d="M72.0338 75.7857L72.4801 77.6852C72.4801 77.6852 71.5538 89.4283 71.2422 94.4177L72.2443 96.4776L73.5074 94.7132L73.7348 78.4028L74.9727 76.0728C74.5444 75.7857 74.052 75.6093 73.5392 75.5592C73.0264 75.5091 72.5093 75.5869 72.0338 75.7857Z" fill="#0B3B56"/>
<path d="M73.4485 75.6173L71.2422 76.5122L72.1096 72.8398L73.2548 72.0547L73.4485 75.6173Z" fill="#E6E7E8"/>
<path d="M78.2401 71.0327L72.918 71.8685L73.4485 75.6168L78.5769 72.5861L78.2401 71.0327Z" fill="#F4C5A2"/>
<path d="M79.5201 67.5798C79.5201 70.4839 77.4064 72.8393 74.8043 72.8393C72.2022 72.8393 70.5938 70.4839 70.5938 67.5798C70.5938 64.6757 72.1601 62.3203 74.8043 62.3203C77.4485 62.3203 79.5201 64.6757 79.5201 67.5798Z" fill="#FED4BD"/>
<path d="M75.2084 67.2165C75.2084 67.2165 74.5179 70.1882 76.0505 70.1544C77.5832 70.1207 77.0021 70.6863 77.3979 71.3026C77.7937 71.9188 78.939 71.4967 79.6463 70.0362C80.3537 68.5757 81.1116 65.3002 79.9663 63.7046C79.3317 62.9394 78.5234 62.3377 77.6092 61.9499C76.6949 61.5622 75.7014 61.3996 74.7116 61.4758C72.7748 61.6447 70.3158 63.1643 70.0969 64.5488C69.6927 67.0646 75.2084 67.2165 75.2084 67.2165Z" fill="#07304B"/>
<path d="M80.564 97.2376L73.8524 97.1025L73.7261 100.961L80.9597 101.965L80.564 97.2376Z" fill="#0B3B56"/>
<path d="M79.5114 101.128C79.5114 101.128 78.5935 101.973 78.324 102.31C77.6803 102.935 77.1402 103.659 76.724 104.455C76.5472 105.113 77.5661 104.336 77.9703 104.21C78.3746 104.083 78.8124 104.421 78.6693 105.054C78.2497 105.941 77.786 106.806 77.2798 107.646C76.9514 108.372 79.9661 108.422 80.8588 107.469C81.7186 106.605 82.2389 105.46 82.324 104.244C82.4251 103.011 81.9282 101.99 82.0377 101.458L79.5114 101.128Z" fill="#F4C5A2"/>
<path d="M78.7621 100.361L78.3916 101.762L82.619 103.054L83.04 101.517L78.7621 100.361Z" fill="#E6E7E8"/>
<path d="M83.2 75.2964C83.2 75.2964 80.2442 75.5412 80.6736 80.5559C81.1031 85.5705 81.0189 88.9981 81.0189 88.9981L78.6021 100.767L83.0905 101.974C83.0905 101.974 86.1894 89.9605 86.1894 89.5553C86.1894 89.15 85.4231 78.9434 85.4231 78.9434C85.4231 78.9434 85.1284 76.1997 83.2 75.2964Z" fill="#0F4463"/>
<path d="M68.4714 94.7134L68.4209 99.3144C68.4224 99.4839 68.4792 99.6483 68.5826 99.7824C68.686 99.9166 68.8303 100.013 68.9935 100.057L70.863 100.522L70.9135 97.5078L68.4714 94.7134Z" fill="#0B3B56"/>
<path d="M78.6946 71.8091L73.4482 75.6165L75.7472 77.8706L79.3261 72.6195L78.6946 71.8091Z" fill="#E6E7E8"/>
<path d="M50.9136 102.995C50.9136 102.995 51.7557 102.151 52.1094 101.88C52.737 101.276 53.4561 100.774 54.2399 100.395C54.8883 100.243 54.0967 101.239 53.962 101.602C53.8273 101.965 54.1388 102.446 54.8041 102.311C55.6822 101.935 56.5396 101.513 57.3725 101.045C58.0883 100.758 58.0294 103.695 57.0778 104.54C56.2077 105.346 55.0785 105.813 53.8946 105.857C52.6904 105.907 51.7136 105.384 51.1999 105.477L50.9136 102.995Z" fill="#F4C5A2"/>
<path d="M25.3643 152.467C25.3643 152.467 25.1959 152.965 27.3264 153.074C29.4569 153.184 31.7222 153.193 32.0085 154.586C32.2948 155.979 30.3243 157.625 28.0169 157.962C25.5463 158.186 23.057 158.078 20.6148 157.642C20.2864 157.574 20.0085 157.422 19.958 157.093C19.8115 156.008 19.9064 154.904 20.2359 153.86C20.859 151.96 25.3643 152.467 25.3643 152.467Z" fill="#933E31"/>
<path d="M31.1579 154.053C31.1579 154.053 30.9895 154.543 33.1201 154.661C35.2506 154.78 37.5158 154.78 37.8022 156.172C38.0885 157.565 36.4379 158.705 34.1222 159.001C32.1179 159.271 28.1179 159.465 26.5432 159.524C26.3863 159.536 26.231 159.486 26.11 159.385C25.989 159.285 25.9118 159.141 25.8948 158.984C25.7499 157.918 25.7104 156.841 25.7769 155.767C25.9285 153.792 31.1579 154.053 31.1579 154.053Z" fill="#9D4D36"/>
<path d="M20.6481 119.466C20.6481 119.466 20.4207 136.62 20.2692 138.706C20.1176 140.791 19.646 153.446 19.646 153.446C19.646 153.446 23.2249 155.252 26.0039 154.02L27.587 121.399L20.6481 119.466Z" fill="#072944"/>
<path d="M25.6674 120.546V137.734C25.5074 142.757 25.2295 155.936 25.2295 155.936C27.5991 156.232 29.9915 155.6 31.9074 154.171C31.68 151.925 31.9074 139.254 31.9074 139.254C32.7495 132.669 33.2463 122.108 33.3305 120.166C33.3305 119.955 33.3305 119.854 33.3305 119.854L25.6674 120.546Z" fill="#07304B"/>
<path d="M18.1807 95.2363C18.1807 95.2363 15.5618 103.408 16.126 107.739C17.5143 108.891 19.032 109.877 20.6481 110.677L18.1807 95.2363Z" fill="#0F4463"/>
<path d="M33.4061 88.4491C33.1029 91.5812 30.7955 93.9196 28.2608 93.6664C25.7261 93.4131 23.924 90.6694 24.2271 87.5373C24.5303 84.4053 26.8376 82.0668 29.3808 82.32C31.924 82.5733 33.684 85.317 33.4061 88.4491Z" fill="#FED4BD"/>
<path d="M24.8586 91.1258C26.044 91.3452 27.2686 91.1326 28.3113 90.5264C29.106 89.9339 29.7423 89.1538 30.1639 88.2554C30.1639 88.2554 31.5618 88.8379 31.9913 87.6813C32.4208 86.5248 34.1471 86.5416 34.2313 85.4948C34.2313 85.4948 33.7513 80.3282 28.2355 81.2315C28.2355 81.2315 20.3871 82.8186 24.8586 91.1258Z" fill="#F99840"/>
<path d="M24.5135 92.0791C26.6117 91.9973 28.685 92.5567 30.4588 93.6831C30.6063 94.0327 30.8484 94.3339 31.1577 94.5527C31.6799 94.8988 35.5451 96.3678 35.5451 96.3678C35.5451 96.3678 33.1283 112.703 34.4335 120.124C34.4335 120.124 28.8083 124.531 20.0167 120.124C20.0167 120.124 18.7367 99.8628 18.1641 95.2027C18.1809 95.2365 19.6462 93.413 24.5135 92.0791Z" fill="#0B3B56"/>
<path d="M35.562 96.4019L42.1388 103.569L51.4946 101.813C51.4946 101.813 52.5725 104.287 52.2609 106.094L40.8504 108.905L33.4399 102.303C33.4399 102.303 30.9809 97.1279 35.562 96.4019Z" fill="#0F4463"/>
<path d="M209.516 94.5526C209.516 94.5526 209.642 93.337 209.751 92.9317C209.863 92.0535 210.113 91.1987 210.492 90.3991C210.905 89.8841 210.914 91.1673 211.023 91.5219C211.132 91.8765 211.697 92.0875 212.118 91.5219C212.539 90.9562 212.96 89.6055 213.33 88.9301C213.701 88.2547 215.495 90.6186 215.276 91.8427C215.095 93.0203 214.497 94.0933 213.591 94.865C212.69 95.6586 211.596 95.8612 211.25 96.258L209.516 94.5526Z" fill="#F4C5A2"/>
<path d="M185.676 155.286C185.676 155.286 185.507 155.784 187.638 155.902C189.768 156.021 192.025 156.021 192.32 157.414C192.615 158.807 190.636 160.453 188.328 160.79C185.855 161.018 183.362 160.91 180.918 160.47C180.598 160.411 180.312 160.259 180.269 159.929C180.118 158.844 180.213 157.739 180.547 156.696C181.17 154.788 185.676 155.286 185.676 155.286Z" fill="#933E31"/>
<path d="M191.495 156.873C191.495 156.873 191.326 157.371 193.457 157.49C195.587 157.608 197.853 157.599 198.139 159.001C198.425 160.402 196.775 161.533 194.45 161.82C192.455 162.099 188.446 162.285 186.872 162.352C186.714 162.36 186.56 162.307 186.44 162.206C186.319 162.104 186.242 161.96 186.223 161.803C186.077 160.741 186.041 159.666 186.114 158.595C186.24 156.612 191.495 156.873 191.495 156.873Z" fill="#9D4D36"/>
<path d="M180.96 122.286C180.96 122.286 180.733 139.449 180.573 141.534C180.413 143.619 179.958 156.274 179.958 156.274C179.958 156.274 183.537 158.081 186.307 156.84L187.899 124.219L180.96 122.286Z" fill="#072944"/>
<path d="M185.971 123.375V140.554C185.819 145.578 185.533 158.756 185.533 158.756C187.905 159.055 190.301 158.423 192.219 156.991C191.983 154.754 192.219 142.074 192.219 142.074C193.061 135.498 193.558 124.928 193.642 122.986V122.674L185.971 123.375Z" fill="#07304B"/>
<path d="M178.526 98.0562C178.526 98.0562 175.908 106.237 176.472 110.568C177.861 111.719 179.378 112.705 180.994 113.505L178.526 98.0562Z" fill="#0F4463"/>
<path d="M192.75 90.5006C192.75 93.6411 190.67 96.1906 188.118 96.1822C185.566 96.1737 183.512 93.6495 183.52 90.4752C183.528 87.301 185.6 84.7767 188.152 84.7852C190.703 84.7936 192.758 87.3516 192.75 90.5006Z" fill="#FED4BD"/>
<path d="M184.825 94.9073C186.907 94.8337 188.962 95.3929 190.72 96.5113C190.866 96.8738 191.115 97.1851 191.436 97.4062C191.958 97.7608 195.823 99.2297 195.823 99.2297C195.823 99.2297 193.406 115.565 194.72 122.986C194.72 122.986 189.095 127.393 180.303 122.986C180.303 122.986 179.015 102.725 178.451 98.0563C178.526 98.0563 179.958 96.2412 184.825 94.9073Z" fill="#0B3B56"/>
<path d="M195.865 99.2295L202.434 100.741L209.448 93.5732C209.448 93.5732 211.907 94.3415 212.404 96.452L204.042 105.992L193.752 105.088C193.752 105.088 191.293 99.9556 195.865 99.2295Z" fill="#0F4463"/>
<path d="M189.811 84.5316C189.811 84.5316 193.406 85.2154 193.449 88.2546L190.08 89.3605C190.08 89.3605 190.602 91.8932 188.716 92.577C188.716 92.577 188.169 94.8986 184.75 94.6791C184.75 94.6791 179.613 87.9253 185.895 84.7848C187.161 84.3867 188.504 84.2998 189.811 84.5316Z" fill="#0B3B56"/>
<defs>
<linearGradient id="paint0_linear" x1="87.082" y1="79.0779" x2="175.613" y2="79.0779" gradientUnits="userSpaceOnUse">
<stop stop-color="#1C75BC"/>
<stop offset="0.28" stop-color="#2077BC"/>
<stop offset="0.54" stop-color="#2B7EBC"/>
<stop offset="0.8" stop-color="#3E88BC"/>
<stop offset="1" stop-color="#5394BC"/>
</linearGradient>
</defs>
</svg>
