<svg width="100" height="100" fill="none" xmlns="http://www.w3.org/2000/svg"><g clip-path="url(#clip0)"><path d="M10.407 31.43v40L59.897 100l34.645-20V40L59.898 60l-49.49-28.57z" fill="#E0E0E2"/><path d="M94.542 39.999v40l-34.644 20v-40l34.644-20z" fill="#C6C5CB"/><path d="M7.933 21.428L45.052 0l51.964 29.999v8.572L59.898 60 7.936 30.001l-.003-8.573z" fill="#C51341"/><path d="M7.933 21.428L7.936 30l51.962 29.998v-8.573L7.933 21.428z" fill="#A50020"/><path d="M59.898 60l37.119-21.43v-8.572l-37.12 21.429v8.572zM12.881 21.428l32.17-18.571 47.017 27.141-32.17 18.572L12.88 21.428z" fill="#941A3A"/><path d="M15.356 22.857L45.052 5.714V2.857l-32.17 18.571 2.474 1.429z" fill="#820018"/><path d="M45.052 5.714l44.542 25.713 2.474-1.429L45.052 2.857v2.857z" fill="#A50020"/><path d="M49.733 27.432l13.362-7.714 13.362 7.714v5.865L63.095 41.01l-13.362-7.714v-5.865z" fill="#E0E0E2"/><path d="M59.593 25.411c-1.927 1.112-1.929 2.932-.004 4.043 1.925 1.111 5.078 1.111 7.007 0 1.929-1.111 1.93-2.93.004-4.043-1.927-1.113-5.08-1.113-7.007 0zm-9.86 2.022v5.864l13.362 7.715v-5.865l-13.362-7.714z" fill="#C6C5CB"/><path d="M63.095 41.011l13.362-7.714v-5.865l-13.362 7.715v5.864z" fill="#ACABB1"/><path d="M41.014 24.112v-2.217c0-.733-.48-1.466-1.445-2.023-1.926-1.112-5.08-1.112-7.007 0-.963.557-1.445 1.29-1.446 2.023v2.217c-.001.733.48 1.466 1.442 2.022 1.925 1.111 5.078 1.111 7.007 0 .966-.556 1.448-1.289 1.449-2.022z" fill="#C6C5CB"/><path d="M32.563 19.872c-1.927 1.113-1.93 2.932-.005 4.044 1.925 1.111 5.078 1.111 7.008 0 1.929-1.112 1.93-2.931.004-4.044-1.928-1.112-5.08-1.112-7.007 0z" fill="#E0E0E2"/><path d="M51.954 17.795V15.58c.001-.733-.48-1.467-1.444-2.023-1.926-1.112-5.08-1.112-7.007 0-.963.556-1.446 1.29-1.446 2.023v2.216c-.001.733.48 1.466 1.442 2.022 1.925 1.112 5.078 1.112 7.007 0 .965-.555 1.448-1.288 1.448-2.022z" fill="#C6C5CB"/><path d="M43.503 13.557c-1.927 1.112-1.929 2.932-.004 4.043 1.925 1.111 5.078 1.111 7.007 0 1.93-1.111 1.931-2.93.004-4.043-1.927-1.112-5.08-1.113-7.007 0z" fill="#E0E0E2"/><path d="M15.36 45.71l-.005 14.287 12.376 7.143V52.854L15.36 45.71zm26.928 15.716l-.004 14.287 12.376 7.143V68.57l-12.372-7.144z" fill="#59A4FF"/><path d="M30.202 82.857V54.286L40.103 60v28.572l-9.9-5.715z" fill="#A50020"/><path d="M32.056 56.968v12.68l5.955 3.445.004-12.683-5.959-3.442z" fill="#59A4FF"/><path d="M38.448 74.476v2.917l.853.492v-2.917l-.853-.492z" fill="#EEBF00"/><path d="M38.54 76.522a.478.478 0 100-.956.478.478 0 000 .956z" fill="#FED322"/><path d="M64.846 65.714L89.59 51.428v17.143L64.846 82.856V65.714z" fill="#2487FF"/><path d="M12.882 32.859L2.988 38.57l44.538 25.714 9.9-5.715-44.544-25.711z" fill="#fff"/><path d="M7.937 41.429l-4.95-2.857v2.856c0 1.573 1.114 3.501 2.475 4.287 1.362.785 2.475.141 2.475-1.43l-.003-.073c.002-.665.003-2.783.003-2.783z" fill="#941A3A"/><path d="M12.886 44.286l-4.95-2.857v2.856c0 1.573 1.114 3.501 2.475 4.287 1.361.785 2.475.141 2.475-1.43l-.003-.073c.002-.665.003-2.783.003-2.783z" fill="#E0E0E2"/><path d="M17.834 47.143l-4.949-2.857v2.857c0 1.572 1.114 3.5 2.475 4.286 1.361.785 2.474.142 2.474-1.43l-.003-.073c.003-.665.003-2.783.003-2.783z" fill="#941A3A"/><path d="M22.783 50l-4.949-2.857V50c0 1.572 1.114 3.5 2.475 4.286 1.36.785 2.474.142 2.474-1.43l-.003-.073c.003-.665.003-2.783.003-2.783z" fill="#E0E0E2"/><path d="M27.731 52.858L22.782 50v2.856c0 1.572 1.114 3.5 2.475 4.286 1.361.785 2.474.142 2.474-1.43l-.003-.072c.003-.666.003-2.783.003-2.783z" fill="#941A3A"/><path d="M32.68 55.714l-4.949-2.858v2.857c0 1.572 1.113 3.5 2.475 4.286 1.36.785 2.474.142 2.474-1.43l-.003-.073c.003-.665.003-2.782.003-2.782z" fill="#E0E0E2"/><path d="M37.629 58.57l-4.95-2.856v2.856c0 1.573 1.114 3.501 2.475 4.286 1.361.786 2.475.142 2.475-1.43l-.003-.072c.002-.665.003-2.783.003-2.783z" fill="#941A3A"/><path d="M42.578 61.428l-4.95-2.857v2.856c0 1.573 1.114 3.501 2.475 4.286 1.362.786 2.475.142 2.475-1.43l-.003-.072c.002-.665.003-2.783.003-2.783z" fill="#E0E0E2"/><path d="M47.526 64.286l-4.949-2.857v2.856c0 1.573 1.114 3.501 2.475 4.286 1.36.786 2.474.142 2.474-1.43l-.003-.072c.003-.665.003-2.783.003-2.783z" fill="#941A3A"/><path d="M7.936 41.428l9.898-5.714-4.953-2.855s-10.13 5.576-9.894 5.712l4.95 2.857zm9.897 5.714l9.898-5.714-4.953-2.855s-10.13 5.575-9.894 5.712l4.95 2.857zm9.897 5.716l9.898-5.715-4.952-2.855S22.546 49.864 22.782 50l4.949 2.858zm9.898 5.714l9.897-5.715-4.952-2.855s-10.13 5.576-9.894 5.713l4.949 2.857zm9.897 5.715l9.897-5.715-4.952-2.855s-10.13 5.576-9.894 5.713l4.949 2.857z" fill="#C51341"/><path d="M18.527 23.055V38.28L48.26 55.446l1.843-1.05V39.138L20.429 22.006l-1.902 1.05z" fill="#E0E0E2"/><path d="M48.26 55.445l1.842-1.05V39.137l-1.843 1.05v15.258z" fill="#C6C5CB"/><path d="M18.527 23.055l1.901-1.05 29.674 17.133-1.843 1.05-29.732-17.133z" fill="#fff"/><path d="M22.313 30.256a.828.828 0 00-.473.41c-.115.207-.171.487-.172.837 0 .268.034.517.104.749.07.233.176.464.317.692.14.227.317.455.528.684.212.231.461.473.75.73l.643.588c.193.177.357.343.492.498.136.158.24.308.313.455.073.146.11.294.11.443-.002.475-.324.526-.97.154a4.283 4.283 0 01-.677-.49 7.072 7.072 0 01-.603-.587c-.18-.198-.336-.383-.47-.553-.132-.17-.224-.3-.274-.387l-.52.86a8.92 8.92 0 001.185 1.348 7.4 7.4 0 001.34 1.008c.292.17.574.294.842.375.27.08.508.099.715.056a.752.752 0 00.492-.356c.123-.193.185-.474.186-.843 0-.32-.044-.614-.134-.883-.09-.27-.218-.53-.383-.783-.168-.252-.37-.5-.61-.743s-.508-.494-.8-.755a26.117 26.117 0 01-.598-.53 4.512 4.512 0 01-.428-.442 1.833 1.833 0 01-.258-.397.947.947 0 01-.088-.408c.001-.246.08-.393.238-.44.16-.044.4.027.723.214.18.104.358.232.534.385a6.597 6.597 0 01.868.922c.104.139.175.242.215.31l.521-.793a9.796 9.796 0 00-.931-1.08 5.59 5.59 0 00-1.17-.905 3.052 3.052 0 00-.857-.351c-.266-.06-.499-.059-.7.008zm8.648 7.288l-2.732-1.577.008-2.797-1.17-.675-.019 6.918 1.17.675.008-2.953 2.732 1.577-.008 2.953 1.16.67.02-6.918-1.16-.67-.009 2.797zm7.129 2.376a7.038 7.038 0 00-.918-1.334 4.654 4.654 0 00-1.19-.996c-.424-.244-.818-.375-1.18-.392-.363-.018-.675.06-.94.233-.263.174-.47.428-.622.763-.15.337-.227.735-.228 1.197-.001.442.068.914.209 1.418a7 7 0 00.595 1.471c.255.477.563.917.92 1.322.36.406.759.737 1.2.992.425.245.817.374 1.181.392.36.017.673-.06.933-.232.263-.171.466-.423.615-.758.148-.335.223-.73.225-1.193a5.245 5.245 0 00-.21-1.408 7.341 7.341 0 00-.59-1.474zm-.496 2.96a1.256 1.256 0 01-.342.55.839.839 0 01-.553.213c-.218.007-.468-.07-.75-.233a2.835 2.835 0 01-.742-.623 4.067 4.067 0 01-.55-.836 4.368 4.368 0 01-.458-1.874c.001-.287.04-.544.117-.778.077-.23.189-.415.337-.547a.837.837 0 01.553-.208c.221-.005.472.073.755.236.272.157.516.362.734.614.217.253.4.528.55.83.148.3.264.614.344.94.081.328.122.641.122.94-.001.286-.04.545-.117.777zm6.524.928a4.856 4.856 0 00-1-1.85 3.025 3.025 0 00-.768-.64l-2.553-1.474-.02 6.918 1.172.676.006-2.32 1.426.824c.276.16.531.243.763.245a.952.952 0 00.596-.172c.163-.122.29-.293.382-.518a2.06 2.06 0 00.138-.774c0-.28-.045-.584-.142-.915zm-1.262.925c-.147.116-.326.114-.54-.01l-1.358-.783.007-2.242 1.306.754c.1.058.201.141.3.246.099.105.186.229.259.37.073.14.132.292.177.458.044.167.067.336.067.511 0 .345-.073.577-.218.696z" fill="#A50020"/></g><defs><clipPath id="clip0"><path fill="#fff" d="M0 0h100v100H0z"/></clipPath></defs></svg>