<svg width="224" height="168" fill="none" xmlns="http://www.w3.org/2000/svg"><path d="M55.301 74.975v25.605c0 2.449-3.638 4.424-8.118 4.424s-8.118-1.975-8.118-4.424V74.975h16.236z" fill="#F9B028"/><path d="M39.065 74.975c0 2.44 3.638 4.424 8.118 4.424s8.118-1.984 8.118-4.424c0-2.44-3.638-4.424-8.118-4.424s-8.118 1.976-8.118 4.424z" fill="#F9DC32"/><path d="M47.158 79.399c-4.48 0-8.118-1.984-8.118-4.424v25.605c0 2.449 3.638 4.424 8.118 4.424a14.04 14.04 0 002.728-.262V79.137a14.11 14.11 0 01-2.728.262z" fill="#F9C32A"/><path d="M55.301 43.967v31.008c0 2.44-3.638 4.424-8.118 4.424s-8.118-1.984-8.118-4.424V43.967h16.236z" fill="#941A3A"/><path d="M39.065 43.967c0 2.448 3.638 4.424 8.118 4.424s8.118-1.976 8.118-4.424c0-2.448-3.638-4.423-8.118-4.423s-8.118 1.983-8.118 4.423z" fill="#C51341"/><path d="M47.158 48.39c-4.48 0-8.118-1.975-8.118-4.423v31.008c0 2.44 3.638 4.424 8.118 4.424.916.001 1.83-.086 2.728-.262V48.12c-.898.179-1.812.27-2.728.27z" fill="#C51341"/><path d="M42.34 87.841v20.261c0 2.44-3.637 4.424-8.117 4.424s-8.118-2.009-8.118-4.466V87.799l16.236.042z" fill="#F9B028"/><path d="M26.105 87.841c0 2.449 3.638 4.424 8.118 4.424s8.118-1.975 8.118-4.424c0-2.448-3.638-4.423-8.118-4.423s-8.118 1.983-8.118 4.423z" fill="#F9DC32"/><path d="M34.223 92.264c-4.48 0-8.118-1.975-8.118-4.423v20.261c0 2.44 3.638 4.424 8.118 4.424.913.001 1.824-.086 2.72-.262V92.02a14.03 14.03 0 01-2.72.245z" fill="#F9C32A"/><path d="M42.34 67.613v20.262c0 2.448-3.637 4.423-8.117 4.423s-8.118-1.967-8.118-4.457V67.58l16.236.033z" fill="#941A3A"/><path d="M26.105 67.614c0 2.44 3.638 4.424 8.118 4.424s8.118-1.984 8.118-4.424c0-2.44-3.638-4.424-8.118-4.424s-8.118 1.976-8.118 4.424z" fill="#C51341"/><path d="M34.223 72.037c-4.48 0-8.118-1.983-8.118-4.423v20.261c0 2.448 3.638 4.424 8.118 4.424.913.001 1.824-.086 2.72-.262V71.76c-.896.177-1.807.27-2.72.278z" fill="#C51341"/><path d="M29.372 98.191v17.374c0 2.449-3.63 4.424-8.11 4.424-4.48 0-8.117-1.975-8.117-4.424V98.191h16.227z" fill="#F9B028"/><path d="M13.145 98.191c0 2.449 3.63 4.432 8.118 4.432s8.11-1.983 8.11-4.432c0-2.448-3.63-4.423-8.11-4.423-4.48 0-8.118 1.983-8.118 4.423z" fill="#F9DC32"/><path d="M21.263 102.624c-4.489 0-8.118-1.984-8.118-4.433v17.374c0 2.449 3.63 4.424 8.118 4.424a14.03 14.03 0 002.72-.261v-17.366a14.78 14.78 0 01-2.72.262z" fill="#F9C32A"/><path d="M29.372 91.725v6.466c0 2.449-3.63 4.432-8.11 4.432-4.48 0-8.117-1.983-8.117-4.432v-6.466h16.227z" fill="#C64453"/><path d="M13.145 91.725c0 2.44 3.63 4.423 8.118 4.423s8.11-1.984 8.11-4.423c0-2.44-3.63-4.424-8.11-4.424-4.48 0-8.118 1.975-8.118 4.424z" fill="#C51341"/><path d="M21.263 96.148c-4.489 0-8.118-1.984-8.118-4.423v6.466c0 2.449 3.63 4.432 8.118 4.432.913-.002 1.823-.09 2.72-.261v-6.475c-.897.171-1.807.259-2.72.261z" fill="#C51341"/><path d="M16.413 112.501v10.561c0 2.44-3.638 4.424-8.118 4.424s-8.118-1.984-8.118-4.424v-10.561h16.236z" fill="#F9B028"/><path d="M.177 112.501c0 2.44 3.638 4.424 8.118 4.424s8.118-1.984 8.118-4.424c0-2.44-3.638-4.44-8.118-4.44s-8.118 1.992-8.118 4.44z" fill="#F9DC32"/><path d="M8.295 116.925c-4.48 0-8.118-1.984-8.118-4.424v10.561c0 2.44 3.638 4.424 8.118 4.424.915.001 1.83-.086 2.728-.262v-10.561a14.12 14.12 0 01-2.728.262z" fill="#F9C32A"/><path d="M16.413 101.94v10.561c0 2.44-3.638 4.424-8.118 4.424s-8.118-1.984-8.118-4.424V101.94h16.236z" fill="#941A3A"/><path d="M.177 101.94c0 2.44 3.638 4.424 8.118 4.424s8.118-1.984 8.118-4.424c0-2.44-3.638-4.424-8.118-4.424S.177 99.492.177 101.94z" fill="#C51341"/><path d="M8.295 106.372c-4.48 0-8.118-1.984-8.118-4.424v10.561c0 2.44 3.638 4.424 8.118 4.424a14.04 14.04 0 002.728-.262v-10.569a14.12 14.12 0 01-2.728.27z" fill="#C51341"/><path d="M5.954 77.035c1.22-.312 2.787-.844 2.795 1.208a5.615 5.615 0 01-2.787 4.381v1.064l-.733.43v-1.08c-1.55.743-2.686.456-2.753-1.208l2.088-1.207c0 .524.27.718.665.633v-2.085c-1.23.338-2.762.844-2.762-1.232 0-1.647 1.196-3.318 2.746-4.34v-1.072l.732-.422v1.064c1.566-.752 2.577-.414 2.686 1.199l-2.096 1.215c-.05-.464-.261-.641-.581-.59v2.042zm0 3.841a1.797 1.797 0 00.732-1.367c0-.481-.295-.574-.74-.507v1.874h.008zm-.758-3.697v-1.824a1.594 1.594 0 00-.69 1.275c0 .464.277.583.69.549zm37.49-49.319c1.221-.313 2.788-.845 2.796 1.207a5.572 5.572 0 01-2.779 4.373v1.072l-.733.422v-1.08c-1.557.742-2.694.456-2.753-1.208l2.08-1.198c0 .515.278.709.665.624v-2.077c-1.23.338-2.762.845-2.77-1.24 0-1.689 1.195-3.318 2.753-4.34V23.31l.733-.422v1.072c1.566-.76 2.526-.422 2.686 1.19l-2.097 1.216c-.05-.455-.27-.641-.59-.59l.01 2.085zm0 3.832a1.805 1.805 0 00.741-1.367c0-.473-.294-.566-.74-.507v1.874zm-.74-3.697V26.17a1.586 1.586 0 00-.683 1.275c0 .464.278.582.69.549M21.532 50.02c.944-.245 2.165-.65 2.173.937a4.38 4.38 0 01-2.164 3.377v.844l-.564.33v-.845c-1.213.574-2.097.355-2.148-.937l1.625-.937c0 .397.211.557.514.49v-1.621c-.951.261-2.139.65-2.147-.963a4.407 4.407 0 012.139-3.377v-.844l.564-.329v.844c1.213-.59 1.996-.329 2.08.929l-1.625.945c0-.363-.21-.498-.455-.464l.008 1.621zm0 2.972a1.4 1.4 0 00.573-1.056c0-.371-.236-.447-.581-.396v1.452h.008zm-.59-2.862v-1.42a1.232 1.232 0 00-.538.988c0 .355.219.448.539.43zM9.019 25.326c.952-.245 2.164-.65 2.173.937a4.38 4.38 0 01-2.165 3.377v.845l-.572.329v-.845c-1.213.583-2.097.363-2.148-.928l1.626-.937c0 .397.21.557.513.49v-1.63c-.96.262-2.147.65-2.155-.962a4.406 4.406 0 012.138-3.377v-.844l.573-.338v.844c1.213-.59 1.996-.33 2.08.929l-1.625.937c0-.355-.202-.49-.455-.456l.017 1.63zm0 2.972a1.4 1.4 0 00.573-1.055c0-.372-.228-.448-.581-.397v1.452h.008zm-.598-2.879v-1.418a1.232 1.232 0 00-.539.988c0 .354.22.447.539.43z" fill="#F9DC32"/><path d="M105.339 104.929l15.798-9.186a2.132 2.132 0 012.164 0l37.474 21.688a.951.951 0 01.508.845.954.954 0 01-.508.844l-15.453 8.982a2.513 2.513 0 01-2.568 0l-37.407-21.688a.844.844 0 01-.008-1.485z" fill="#fff"/><path d="M105.347 106.414l37.415 21.654a2.513 2.513 0 002.568 0l15.453-8.982a.955.955 0 00.471-.844v1.925a.93.93 0 01-.463.844l-15.461 8.999a2.522 2.522 0 01-2.568 0l-37.415-21.663a.846.846 0 01-.429-.751v-1.916a.847.847 0 00.429.734z" fill="#A7BCCE"/><path d="M105.347 106.414l37.415 21.654c.359.208.764.324 1.179.338v1.925a2.521 2.521 0 01-1.179-.338l-37.415-21.646a.846.846 0 01-.429-.751v-1.916a.847.847 0 00.429.734z" fill="#BBCEE1"/><path d="M87.082 20.683l88.531 51.48v65.31L87.082 85.789V20.683z" fill="url(#paint0_linear)"/><path d="M175.613 72.164l2.947-1.798v65.318l-2.947 1.789V72.164z" fill="#A7BCCE"/><path d="M87.082 20.683l3.015-1.756 88.463 51.439-2.947 1.798-88.531-51.48z" fill="#fff"/><path d="M87.082 20.683V85.79l88.531 51.692V72.164l-88.531-51.48zm86.434 113.126L89.179 84.582V24.33l84.337 49.04v60.439zm13.852-96.132l33.348 19.215v39.957l-33.348-19.341v-39.83z" fill="#BBCEE1"/><path d="M220.716 56.892l2.509-1.502v39.957l-2.509 1.502V56.892z" fill="#A7BCCE"/><path d="M187.368 37.677l2.552-1.477 33.305 19.189-2.509 1.503-33.348-19.215z" fill="#fff"/><path d="M190.181 42.675l27.714 15.973V91.85l-27.714-16.074V42.675z" fill="#F4F7FF"/><path d="M192.202 65.216v8.991l5.019 2.913v-9.008l-5.019-2.896z" fill="#F9AE40"/><path d="M189.667 71.936v.877l1.575.912v-.878l-1.575-.911zm0-3.334v.87l1.575.91v-.877l-1.575-.903zm0-3.344v.87l1.575.911v-.878l-1.575-.903zm0-3.342v.878l1.575.911v-.878l-1.575-.911zm0-3.336v.87l1.575.911v-.878l-1.575-.903zm0-3.343v.87l1.575.912v-.878l-1.575-.904zm0-3.343v.87l1.575.92v-.878l-1.575-.912zm0-3.334v.87l1.575.911v-.878l-1.575-.903z" fill="#BBCEE1"/><path d="M198.425 61.307v16.521l5.019 2.904v-16.53l-5.019-2.895zm6.215 5.859v14.276l5.019 2.904V70.062l-5.019-2.896zm6.214-5.04v22.929l5.019 2.913V65.013l-5.019-2.887z" fill="#F9AE40"/><path d="M146.594 1.891l33.347 19.215v39.957L146.594 41.72V1.892z" fill="#BBCEE1"/><path d="M179.941 21.105l2.509-1.503V59.56l-2.509 1.503V21.105z" fill="#A7BCCE"/><path d="M146.594 1.891l2.551-1.477 33.306 19.189-2.51 1.502-33.347-19.214z" fill="#fff"/><path d="M149.415 6.889l27.713 15.964-.008 33.212-27.705-16.074V6.889z" fill="#F4F7FF"/><path d="M148.893 36.15v.869l1.574.912v-.878l-1.574-.904zm0-3.343v.87l1.574.92v-.878l-1.574-.912zm0-3.335v.87l1.574.911v-.878l-1.574-.903zm0-3.344v.87l1.574.911v-.878l-1.574-.903zm0-3.342v.87l1.574.92v-.879l-1.574-.911zm0-3.343v.878l1.574.912v-.878l-1.574-.912zm0-3.335v.87l1.574.911v-.878l-1.574-.903zm0-3.344v.87l1.574.912v-.87l-1.574-.912z" fill="#BBCEE1"/><path d="M119.486 141.466v1.748c0 2.355-3.503 4.272-7.832 4.272-4.328 0-7.84-1.917-7.84-4.272v-1.748h15.672z" fill="#EF9D26"/><path d="M114.863 147.105c.648-.157 1.28-.374 1.887-.65v-3.74h-1.887v4.39zm2.821-1.165a4.632 4.632 0 001.373-1.334v-2.938h-1.373v4.272z" fill="#F9C32A"/><path d="M103.814 141.466c0 2.355 3.512 4.272 7.84 4.272 4.329 0 7.832-1.917 7.832-4.272 0-2.355-3.503-4.272-7.832-4.272-4.328 0-7.84 1.917-7.84 4.272z" fill="#F9DC32"/><path d="M105.625 141.415c0 1.773 2.695 3.208 6.029 3.208 3.335 0 6.03-1.435 6.03-3.208 0-1.773-2.695-3.217-6.03-3.217-3.334 0-6.029 1.444-6.029 3.217z" fill="#F9C32A"/><path d="M114.324 140.14l.548-.321-.43-.253-.556.321a3.36 3.36 0 00-3.073-.135c-1.07.625-.354 1.275.185 1.815l-1.07.625c-.16-.178-.126-.363.127-.541l-1.247-.717c-.842.532-.656 1.207.194 1.798l-.556.321.438.253.548-.321a3.358 3.358 0 003.107.135c1.061-.616.32-1.274-.211-1.823l1.053-.608c.126.144.101.312-.126.481l1.263.726c.8-.565.674-1.199-.194-1.756zm-3.048 2.297a1.096 1.096 0 01-.935 0l.969-.558c.168.203.21.389-.034.532v.026zm.724-1.453c-.143-.211-.16-.388.076-.523a.946.946 0 01.842 0l-.918.523z" fill="#EF9D26"/><path d="M119.486 139.221v1.764c0 2.356-3.503 4.272-7.832 4.272-4.328 0-7.84-1.916-7.84-4.272v-1.747l15.672-.017z" fill="#EF9D26"/><path d="M114.863 144.86c.648-.157 1.28-.374 1.887-.65v-3.74h-1.887v4.39zm2.821-1.165a4.632 4.632 0 001.373-1.334v-2.938h-1.373v4.272z" fill="#F9C32A"/><path d="M103.814 139.221c0 2.355 3.512 4.272 7.84 4.272 4.329 0 7.832-1.917 7.832-4.272 0-2.355-3.503-4.272-7.832-4.272-4.328 0-7.84 1.917-7.84 4.272z" fill="#F9DC32"/><path d="M105.625 139.169c0 1.773 2.695 3.208 6.029 3.208 3.335 0 6.03-1.435 6.03-3.208 0-1.773-2.695-3.216-6.03-3.216-3.334 0-6.029 1.443-6.029 3.216z" fill="#F9C32A"/><path d="M114.324 137.87l.548-.329-.43-.245-.556.321a3.36 3.36 0 00-3.073-.135c-1.07.625-.354 1.275.185 1.815l-1.07.625c-.16-.178-.126-.363.127-.541l-1.247-.717c-.842.532-.656 1.207.194 1.798l-.556.321.438.253.548-.321a3.362 3.362 0 003.107.135c1.061-.616.32-1.274-.211-1.823l1.053-.608c.126.143.101.312-.126.473l1.263.734c.8-.54.674-1.173-.194-1.756zm-3.048 2.271a1.096 1.096 0 01-.935 0l.969-.557c.168.253.21.439-.034.557zm.758-1.469c-.143-.211-.16-.388.076-.523a.944.944 0 01.842 0l-.918.523z" fill="#EF9D26"/><path d="M119.486 136.975v1.747c0 2.356-3.503 4.272-7.832 4.272-4.328 0-7.84-1.916-7.84-4.272v-1.747h15.672z" fill="#EF9D26"/><path d="M114.863 142.614c.648-.156 1.28-.374 1.887-.65v-3.74h-1.887v4.39zm2.821-1.165a4.632 4.632 0 001.373-1.334v-2.938h-1.373v4.272z" fill="#F9C32A"/><path d="M103.814 136.975c0 2.355 3.512 4.272 7.84 4.272 4.329 0 7.832-1.917 7.832-4.272 0-2.355-3.503-4.272-7.832-4.272-4.328 0-7.84 1.917-7.84 4.272z" fill="#F9DC32"/><path d="M105.625 136.924c0 1.773 2.695 3.208 6.029 3.208 3.335 0 6.03-1.435 6.03-3.208 0-1.773-2.695-3.216-6.03-3.216-3.334 0-6.029 1.443-6.029 3.216z" fill="#F9C32A"/><path d="M114.324 135.624l.548-.33-.43-.253-.556.329a3.363 3.363 0 00-3.073-.135c-1.07.625-.354 1.275.185 1.815l-1.07.625c-.16-.177-.126-.363.127-.54l-1.247-.718c-.842.532-.656 1.207.194 1.798l-.556.321.438.253.59-.337a3.357 3.357 0 003.107.135c1.061-.616.32-1.275-.21-1.824l1.052-.616c.127.152.101.321-.126.481l1.263.735c.758-.524.632-1.157-.236-1.739zm-3.048 2.287a1.054 1.054 0 01-.935 0l.969-.557c.168.254.21.422-.034.557zm.758-1.46c-.143-.211-.16-.388.076-.523a.944.944 0 01.842 0l-.918.523z" fill="#EF9D26"/><path d="M119.486 134.729v1.748c0 2.355-3.503 4.272-7.832 4.272-4.328 0-7.84-1.917-7.84-4.272v-1.748h15.672z" fill="#EF9D26"/><path d="M114.863 140.369c.648-.157 1.28-.374 1.887-.65v-3.749h-1.887v4.399zm2.821-1.174a4.497 4.497 0 001.373-1.325v-2.938h-1.373v4.263z" fill="#F9C32A"/><path d="M103.814 134.73c0 2.355 3.512 4.272 7.84 4.272 4.329 0 7.832-1.917 7.832-4.272 0-2.356-3.503-4.272-7.832-4.272-4.328 0-7.84 1.908-7.84 4.272z" fill="#F9DC32"/><path d="M105.625 134.669c0 1.782 2.695 3.217 6.029 3.217 3.335 0 6.03-1.435 6.03-3.217 0-1.781-2.695-3.208-6.03-3.208-3.334 0-6.029 1.444-6.029 3.208z" fill="#F9C32A"/><path d="M114.324 133.387l.548-.321-.43-.253-.556.329a3.348 3.348 0 00-3.073-.135c-1.07.625-.354 1.275.185 1.815l-1.07.625c-.16-.186-.126-.363.127-.541l-1.247-.717c-.842.532-.656 1.199.194 1.789l-.556.33.438.253.548-.321a3.362 3.362 0 003.107.135c1.061-.616.32-1.275-.211-1.823l1.053-.617c.126.152.101.321-.126.482l1.263.726c.8-.549.674-1.182-.194-1.756zm-3.048 2.296a1.054 1.054 0 01-.935 0l.969-.566c.168.228.21.414-.034.549v.017zm.724-1.452c-.143-.203-.16-.38.076-.523a.972.972 0 01.842 0l-.918.523zm-4.135 13.819v1.748c0 2.355-3.512 4.272-7.84 4.272-4.329 0-7.832-1.917-7.832-4.272v-1.748h15.672z" fill="#EF9D26"/><path d="M103.233 153.691c.649-.155 1.28-.373 1.887-.65v-3.74h-1.887v4.39zm2.872-1.165a4.686 4.686 0 001.364-1.334v-2.938h-1.364v4.272z" fill="#F9C32A"/><path d="M92.193 148.051c0 2.355 3.504 4.272 7.832 4.272 4.328 0 7.84-1.917 7.84-4.272 0-2.355-3.512-4.272-7.84-4.272-4.329 0-7.832 1.917-7.832 4.272z" fill="#F9DC32"/><path d="M100.025 151.209c3.33 0 6.03-1.437 6.03-3.208 0-1.772-2.7-3.209-6.03-3.209s-6.03 1.437-6.03 3.209c0 1.771 2.7 3.208 6.03 3.208z" fill="#F9C32A"/><path d="M102.737 146.701l.555-.321-.437-.253-.556.32a3.361 3.361 0 00-3.066-.135c-1.069.625-.362 1.275.186 1.815l-1.078.625c-.16-.177-.126-.363.126-.54l-1.246-.718c-.842.532-.657 1.207.202 1.798l-.564.321.438.253.555-.32a3.358 3.358 0 003.108.135c1.052-.617.311-1.275-.219-1.815l1.061-.617c.126.144.093.313-.126.473l1.254.735c.758-.541.649-1.174-.193-1.756zm-3.049 2.296a1.076 1.076 0 01-.926 0l.96-.557c.126.228.168.413-.076.557h.042zm.758-1.469c-.143-.211-.16-.388.084-.523a.947.947 0 01.842 0l-.926.523z" fill="#EF9D26"/><path d="M107.865 145.805v1.748c0 2.355-3.512 4.271-7.84 4.271-4.329 0-7.832-1.916-7.832-4.271v-1.748h15.672z" fill="#EF9D26"/><path d="M103.233 151.445c.649-.155 1.28-.373 1.887-.65v-3.74h-1.887v4.39zm2.872-1.174a4.695 4.695 0 001.364-1.333v-2.888h-1.364v4.221z" fill="#F9C32A"/><path d="M92.193 145.805c0 2.355 3.504 4.272 7.832 4.272 4.328 0 7.84-1.917 7.84-4.272 0-2.355-3.512-4.272-7.84-4.272-4.329 0-7.832 1.917-7.832 4.272z" fill="#F9DC32"/><path d="M100.025 148.963c3.33 0 6.03-1.436 6.03-3.208 0-1.772-2.7-3.208-6.03-3.208s-6.03 1.436-6.03 3.208c0 1.772 2.7 3.208 6.03 3.208z" fill="#F9C32A"/><path d="M102.737 144.455l.555-.329-.437-.245-.556.321a3.362 3.362 0 00-3.066-.135c-1.069.624-.362 1.274.186 1.815l-1.078.624c-.16-.177-.126-.363.126-.54l-1.246-.717c-.842.531-.657 1.207.202 1.798l-.564.321.438.253.555-.321a3.364 3.364 0 003.108.135c1.052-.616.311-1.275-.219-1.823l1.061-.608c.126.143.093.312-.126.473l1.254.734c.758-.54.649-1.173-.193-1.756zm-3.049 2.296a1.076 1.076 0 01-.926 0l.96-.557c.126.228.168.414-.076.557h.042zm.758-1.469c-.143-.211-.16-.388.084-.523a.947.947 0 01.842 0l-.926.523z" fill="#EF9D26"/><path d="M107.865 143.56v1.747c0 2.355-3.512 4.272-7.84 4.272-4.329 0-7.832-1.917-7.832-4.272v-1.747h15.672z" fill="#EF9D26"/><path d="M103.233 149.2c.649-.155 1.28-.373 1.887-.65v-3.749h-1.887v4.399zm2.872-1.166a4.711 4.711 0 001.364-1.334v-2.938h-1.364v4.272z" fill="#F9C32A"/><path d="M92.193 143.56c0 2.355 3.504 4.272 7.832 4.272 4.328 0 7.84-1.917 7.84-4.272 0-2.356-3.512-4.272-7.84-4.272-4.329 0-7.832 1.916-7.832 4.272z" fill="#F9DC32"/><path d="M100.025 146.717c3.33 0 6.03-1.436 6.03-3.208 0-1.771-2.7-3.208-6.03-3.208s-6.03 1.437-6.03 3.208c0 1.772 2.7 3.208 6.03 3.208z" fill="#F9C32A"/><path d="M102.737 142.201l.555-.321-.437-.253-.556.329a3.375 3.375 0 00-1.517-.438 3.371 3.371 0 00-1.548.303c-1.07.625-.363 1.275.185 1.815l-1.078.625c-.16-.177-.126-.363.126-.54l-1.246-.718c-.842.532-.657 1.199.202 1.798l-.564.321.438.253.555-.321a3.363 3.363 0 003.108.136c1.052-.617.311-1.275-.219-1.824l1.061-.616c.126.152.093.321-.126.481l1.254.734c.758-.54.649-1.173-.193-1.764zm-3.049 2.305a1.076 1.076 0 01-.926 0l.96-.557c.126.227.168.413-.076.557h.042zm.758-1.469c-.143-.211-.16-.389.084-.524a.96.96 0 01.842 0l-.926.524zm-4.21 11.599v1.747c0 2.356-3.504 4.272-7.832 4.272-4.328 0-7.84-1.916-7.84-4.272v-1.747h15.672z" fill="#EF9D26"/><path d="M91.604 160.275a10.6 10.6 0 001.895-.65v-3.74h-1.895v4.39zm2.83-1.165a4.48 4.48 0 001.364-1.334v-2.938h-1.364v4.272z" fill="#F9C32A"/><path d="M80.564 154.636c0 2.355 3.512 4.272 7.84 4.272 4.328 0 7.832-1.917 7.832-4.272 0-2.355-3.504-4.272-7.832-4.272-4.328 0-7.84 1.917-7.84 4.272z" fill="#F9DC32"/><path d="M82.366 154.585c0 1.773 2.703 3.208 6.038 3.208 3.335 0 6.03-1.435 6.03-3.208 0-1.773-2.704-3.216-6.03-3.216s-6.038 1.435-6.038 3.216z" fill="#F9C32A"/><path d="M91.073 153.285l.548-.321-.438-.253-.548.321a3.364 3.364 0 00-3.074-.136c-1.069.625-.353 1.275.186 1.815l-1.078.625c-.16-.177-.126-.363.135-.54l-1.255-.718c-.842.532-.648 1.208.202 1.799l-.556.32.43.254.556-.321a3.358 3.358 0 003.107.135c1.061-.616.312-1.275-.219-1.824l1.061-.607c.127.143.101.312-.126.481l1.263.726c.8-.549.674-1.174-.194-1.756zm-3.056 2.296a1.076 1.076 0 01-.927 0l.969-.557c.16.228.202.414-.043.557zm.766-1.469c-.143-.211-.16-.388.076-.523a.947.947 0 01.842 0l-.918.523z" fill="#EF9D26"/><path d="M96.236 152.391v1.747c0 2.356-3.504 4.272-7.832 4.272-4.328 0-7.84-1.916-7.84-4.272v-1.747h15.672z" fill="#EF9D26"/><path d="M91.604 158.03a10.68 10.68 0 001.895-.65v-3.732h-1.895v4.382zm2.83-1.165a4.583 4.583 0 001.364-1.334v-2.938h-1.364v4.272z" fill="#F9C32A"/><path d="M80.564 152.39c0 2.355 3.512 4.272 7.84 4.272 4.328 0 7.832-1.917 7.832-4.272 0-2.355-3.504-4.272-7.832-4.272-4.328 0-7.84 1.917-7.84 4.272z" fill="#F9DC32"/><path d="M82.366 152.339c0 1.773 2.703 3.208 6.038 3.208 3.335 0 6.03-1.435 6.03-3.208 0-1.773-2.704-3.216-6.03-3.216s-6.038 1.443-6.038 3.216z" fill="#F9C32A"/><path d="M91.073 151.039l.548-.329-.438-.245-.548.321a3.364 3.364 0 00-3.073-.135c-1.07.625-.354 1.275.185 1.815l-1.078.625c-.16-.178-.126-.363.135-.541l-1.255-.717c-.842.532-.648 1.207.202 1.798l-.556.321.43.253.556-.321a3.362 3.362 0 003.107.135c1.061-.616.312-1.275-.219-1.823l1.061-.608c.127.143.101.312-.126.473l1.263.734c.8-.54.674-1.173-.194-1.756zm-3.056 2.296a1.076 1.076 0 01-.927 0l.969-.557c.16.228.202.414-.043.557zm.766-1.468c-.143-.212-.16-.389.076-.524a.946.946 0 01.842 0l-.918.524zm-4.168 9.379v1.689c0 2.355-3.512 4.271-7.84 4.271-4.329 0-7.832-1.916-7.832-4.271v-1.689h15.672z" fill="#EF9D26"/><path d="M80 166.86a10.38 10.38 0 001.886-.65v-3.74H80v4.39zm2.813-1.165a4.583 4.583 0 001.364-1.334v-2.938h-1.365v4.272z" fill="#F9C32A"/><path d="M68.943 161.246c0 2.356 3.503 4.272 7.832 4.272 4.328 0 7.84-1.916 7.84-4.272 0-2.355-3.512-4.271-7.84-4.271-4.329 0-7.832 1.891-7.832 4.271z" fill="#F9DC32"/><path d="M70.737 161.17c0 1.773 2.703 3.208 6.03 3.208 3.326 0 6.037-1.435 6.037-3.208 0-1.773-2.703-3.216-6.038-3.216-3.334 0-6.03 1.443-6.03 3.216z" fill="#F9C32A"/><path d="M79.444 159.87l.556-.312-.438-.245-.555.321a3.36 3.36 0 00-3.065-.135c-1.079.624-.363 1.275.184 1.815l-1.077.625c-.16-.178-.127-.363.126-.541l-1.246-.717c-.843.532-.657 1.207.193 1.798l-.555.321.437.253.548-.321a3.363 3.363 0 003.115.135c1.053-.616.312-1.275-.218-1.823l1.052-.608c.126.143.101.312-.118.481l1.255.726c.8-.557.674-1.19-.194-1.773zm-3.048 2.297a1.095 1.095 0 01-.935 0l.969-.558c.202.228.202.414-.034.558zm.758-1.469c-.143-.211-.16-.389.076-.524a.974.974 0 01.842 0l-.918.524z" fill="#EF9D26"/><path d="M197.322 128.744l-10.063-5.851v11.76l10.063 5.842v-11.751z" fill="#BBCEE1"/><path d="M197.659 116.899l-10.4 5.994 10.063 5.85 10.417-5.994-10.08-5.85z" fill="#fff"/><path d="M207.739 122.75l-10.417 5.993v11.752l10.417-6.045v-11.7z" fill="#A7BCCE"/><path d="M172.286 27.986c-1.061-.608-1.92-.118-1.92 1.098.022.626.195 1.237.505 1.781l-7.713 7.345a3.693 3.693 0 00-.994-.904 1.312 1.312 0 00-1.398-.1l-4.21-5.522c.045-.168.068-.341.067-.515a4.22 4.22 0 00-1.903-3.31c-1.053-.616-1.912-.118-1.92 1.09a4.22 4.22 0 001.903 3.309 1.461 1.461 0 001.221.194l4.32 5.69a2.855 2.855 0 000 .262 4.215 4.215 0 001.912 3.31c1.052.607 1.911.117 1.911-1.098a3.69 3.69 0 00-.396-1.562l7.756-7.395c.237.289.522.534.842.726 1.061.616 1.92.126 1.92-1.09a4.22 4.22 0 00-1.903-3.309z" fill="#C51341"/><path d="M72.648 43.688L47.402 58.234v30.24l25.246-14.638V43.688z" fill="#BBCEE1"/><path d="M47.402 58.234l-1.895-1.14v30.249l1.895 1.13v-30.24z" fill="#A7BCCE"/><path d="M72.648 43.689l-1.936-1.123-25.205 14.529 1.895 1.14 25.246-14.546z" fill="#fff"/><path d="M70.518 47.47L49.54 59.56v25.132l20.977-12.165V47.47z" fill="#F4F7FF"/><path d="M50.358 81.324v.658l-1.188.692v-.667l1.188-.683zm0-2.524v.658l-1.188.693v-.667l1.188-.684zm0-2.533v.659l-1.188.692v-.667l1.188-.684zm0-2.524v.659l-1.188.683v-.658l1.188-.684zm0-2.533v.659l-1.188.692v-.667l1.188-.684zm0-2.524v.658l-1.188.693v-.667l1.188-.684zm0-2.533v.659l-1.188.692v-.667l1.188-.684zm0-2.525v.659l-1.188.692v-.667l1.188-.684z" fill="#BBCEE1"/><path d="M51.512 81.383l17.49-10.148V56.512l-17.49 24.871zm2.778-22.448v4.98l-2.778 1.613V60.53l2.779-1.595z" fill="#F9AE40"/><path d="M51.512 81.382l17.49-24.87v-6.113l-17.49 30.983z" fill="#C51341"/><path d="M104.842 36.284L91.343 28.45v1.317l13.499 7.834v-1.317zm0 2.221l-13.499-7.834v1.308l13.499 7.843v-1.317zm66.442 86.929l-13.499-7.843v1.317l13.499 7.835v-1.309zm0 2.212l-13.499-7.834v1.317l13.499 7.834v-1.317zm-15.537-11.228l-13.507-7.842v1.317l13.507 7.842v-1.317zm0 2.22l-13.507-7.843v1.317l13.507 7.843v-1.317zm-15.545-11.236l-13.499-7.835v1.317l13.499 7.835v-1.317zm0 2.22l-13.499-7.843v1.317l13.499 7.843v-1.317zm-15.537-11.228l-13.507-7.843v1.317l13.507 7.835v-1.309zm0 2.212l-13.507-7.834v1.316l13.507 7.835v-1.317zm-19.823-59.881l-13.499-7.843v1.317l13.499 7.843v-1.317zm0 2.212l-13.499-7.834v1.316l13.499 7.835v-1.317zm0 2.22l-13.499-7.843v1.317l13.499 7.843v-1.317zm0 2.221l-13.499-7.843v1.317l13.499 7.843v-1.317zm0 2.212l-13.499-7.835v1.317l13.499 7.834V49.59zm0 2.22l-13.499-7.843v1.317l13.499 7.843V51.81zm0 2.22l-13.499-7.843v1.317l13.499 7.842V54.03zm0 2.212l-13.499-7.834v1.317l13.499 7.834v-1.317zm0 2.22l-13.499-7.843v1.317l13.499 7.843v-1.317zm0 2.221L91.343 52.84v1.317L104.842 62v-1.317zm0 2.211L91.343 55.06v1.317l13.499 7.834v-1.317zm0 2.221l-13.499-7.843v1.317l13.499 7.843v-1.317zm0 2.211l-13.499-7.834v1.317l13.499 7.834v-1.317zm0 2.221l-13.499-7.834v1.317l13.499 7.834v-1.317zm0 2.22l-13.499-7.843v1.317l13.499 7.843v-1.317zm2.501-34.031l63.941 37.18v47.166l-63.941-37.323V37.736z" fill="#F4F7FF"/><path d="M108.926 82.151v.524l60.312 35.212v-.532l-60.312-35.204zm0-5.521v.532l60.312 35.204v-.523L108.926 76.63zm0-5.513v.524l60.312 35.212v-.532l-60.312-35.204zm0-5.521v.532l60.312 35.204v-.524l-60.312-35.212zm0-5.513v.523l60.312 35.213v-.523l-60.312-35.213zm0-5.521v.531l60.312 35.204v-.523l-60.312-35.212zm0-5.512v.523l60.312 35.212v-.523l-60.312-35.213z" fill="#BBCEE1"/><path d="M108.926 43.84v38.312l.48.278V44.111l-.48-.27zm5.803 3.393v38.32l.48.27V47.512l-.48-.279zm5.801 3.403v38.311l.48.279v-38.32l-.48-.27zm5.803 3.394v38.32l.48.27V54.309l-.48-.279zm5.802 3.403v38.31l.48.279v-38.32l-.48-.27zm5.802 3.393v38.319l.48.27v-38.31l-.48-.28zm5.802 3.402v38.311l.48.278V64.498l-.48-.27zm5.802 3.394v38.319l.48.27v-38.31l-.48-.279zm5.802 3.402v38.311l.48.278V71.294l-.48-.27zm5.811 3.394v38.319l.471.279v-38.32l-.471-.278zm5.802 3.402v38.311l.471.279V78.09l-.471-.27z" fill="#BBCEE1"/><path d="M120.775 76.883a2.62 2.62 0 011.178 2.043c0 .751-.538 1.055-1.187.675a2.537 2.537 0 01-1.17-2.034c-.017-.743.53-1.055 1.179-.684z" fill="#C51341"/><path d="M120.775 71.278a2.62 2.62 0 011.178 2.043c0 .751-.538 1.047-1.187.675a2.586 2.586 0 01-1.17-2.043c-.017-.751.53-1.038 1.179-.675zM132.379 83.9a2.582 2.582 0 011.179 2.034c0 .751-.531 1.055-1.188.684a2.586 2.586 0 01-1.17-2.043c0-.752.53-1.056 1.179-.676zm5.802-7.87a2.583 2.583 0 011.179 2.035c0 .752-.531 1.056-1.188.676a2.533 2.533 0 01-1.17-2.035c0-.726.53-1.055 1.179-.675zm5.76-2.186a2.586 2.586 0 011.17 2.043c0 .75-.53 1.055-1.179.675a2.62 2.62 0 01-1.179-2.043c.009-.743.539-1.072 1.188-.675zm11.646 12.418a2.582 2.582 0 011.179 2.035c0 .751-.53 1.055-1.187.675a2.583 2.583 0 01-1.171-2.034c0-.752.539-1.056 1.179-.676zm-5.802 7.666a2.575 2.575 0 011.179 2.043c0 .743-.53 1.047-1.187.675a2.612 2.612 0 01-1.171-2.043c0-.751.531-1.055 1.179-.675zm11.604-10.241a2.538 2.538 0 011.179 2.035c0 .751-.53 1.055-1.187.675a2.608 2.608 0 01-1.171-2.035c0-.785.531-1.055 1.179-.675z" fill="#F9AE40"/><path d="M126.577 83.425a2.619 2.619 0 011.179 2.044c0 .75-.531 1.046-1.188.675a2.596 2.596 0 01-1.17-2.043c0-.751.53-1.055 1.179-.675zm5.802-5.014a2.547 2.547 0 011.179 2.035c0 .751-.531 1.055-1.188.675a2.536 2.536 0 01-1.17-2.034c0-.752.53-1.056 1.179-.676zm11.562 9.455a2.587 2.587 0 011.17 2.043c0 .752-.53 1.047-1.179.676a2.619 2.619 0 01-1.179-2.043c.009-.743.539-1.056 1.188-.676zm5.844-6.821a2.593 2.593 0 011.179 2.043c0 .752-.53 1.047-1.187.675a2.604 2.604 0 01-1.171-2.043c0-.725.531-1.03 1.179-.675z" fill="#C51341"/><path d="M161.389 78.766a2.606 2.606 0 011.179 2.043c0 .743-.53 1.047-1.187.676a2.604 2.604 0 01-1.171-2.043c0-.752.531-1.056 1.179-.676z" fill="#ED5561"/><path d="M161.347 79.897l-11.688 2.322-5.752 6.686-11.537-9.439-5.777 4.998-5.76-6.492-5.945 2.305.16.43 5.659-2.186 5.844 6.585 5.828-5.04 11.587 9.48 5.937-6.905 11.528-2.288-.084-.456z" fill="#C51341"/><path d="M161.297 84.979l-5.853 2.448-5.566 7.353-5.718-19.636-.076-.245-6.054 2.296-5.676 7.7-11.596-12.613-6.164 8.155.37.279 5.828-7.725 11.419 12.418.185.203 5.928-8.037 5.466-2.068 5.903 20.278 6.038-7.978 5.743-2.406-.177-.422z" fill="#F9AE40"/><path d="M114.972 79.137a2.613 2.613 0 011.179 2.043c0 .751-.539 1.047-1.187.675a2.587 2.587 0 01-1.171-2.043c0-.751.531-1.055 1.179-.675z" fill="#C51341"/><path d="M54.147 92.307s-1.246.135-1.684.245a8.733 8.733 0 00-2.526.768c-.53.43.783.43 1.145.549.362.118-.463.498-1.002.929a2.855 2.855 0 00-1.128 1.831c-.194.769 2.299 2.643 2.947 1.512a3.04 3.04 0 011.752-1.689 11.248 11.248 0 002.458-1.942l-1.962-2.203z" fill="#F4C5A2"/><path d="M54.18 91.624l-1.001.641a30.825 30.825 0 002.13 3.183l1.103-.65-2.231-3.174z" fill="#E6E7E8"/><path d="M63.124 86.009l-9.23 5.665 2.19 3.435 10.602-5.858 2.77-4.019.295-11.262-6.627 12.039z" fill="#0F4463"/><path d="M74.265 134.433l-4.135-.245a2.86 2.86 0 01-1.835 1.14c-1.44.38-4.278 2.06-3.68 3.47.598 1.41 2.98 1.384 4.286.785.97-.409 1.98-.715 3.015-.912l.328.574 2.653-.692.093-3.807-.725-.313zm2.552 1.782a6.223 6.223 0 01-1.297 1.958c-.665.498-2.527 3.436-1.98 4.416a2.526 2.526 0 002.577 1.148 5.755 5.755 0 003.218-2.381l.539-1.055s.244.464.311.447a21.416 21.416 0 002.046-1.207s-.151-2.938-.277-4.221l-5.137.895z" fill="#9D4D36"/><path d="M74.577 97.634h-5.524c-.118.169-.228 13.642-.169 15.829.06 2.186.758 20.81.758 20.81a6.507 6.507 0 005.583.751l.606-23.393-1.254-13.997z" fill="#072944"/><path d="M81.541 96.106s.118 6.957 0 9.287c-.118 2.33.69 12.131.766 12.368.076.236.295 18.024.295 18.024s-2.299 2.001-6.585 1.08c0 0-1.297-24.178-1.752-27.935-.455-3.757-.993-11.523-.993-11.523l8.269-1.3z" fill="#07304B"/><path d="M79.326 72.603l-6.914.22-2.66 1.13a23.34 23.34 0 00-1.626 6.391c-.573 4.222.556 17.012.556 17.012 2.602 1.308 11.334.962 11.334.962 1.609-4.145 3.184-23.039 3.184-23.039l-3.874-2.676z" fill="#0B3B56"/><path d="M74.181 72.78l-2.409 2.068c-1.044 6.113-.951 18.058-.842 23.132a29.2 29.2 0 002.897.296c.245-12.664 4.438-24.77 4.741-25.631l-4.387.135z" fill="#D4D6D8"/><path d="M72.034 75.786l.446 1.9s-.926 11.742-1.238 16.732l1.002 2.06 1.263-1.765.228-16.31 1.238-2.33a3.119 3.119 0 00-2.94-.287z" fill="#0B3B56"/><path d="M73.448 75.617l-2.206.895.868-3.672 1.145-.785.194 3.562z" fill="#E6E7E8"/><path d="M78.24 71.033l-5.322.835.53 3.749 5.129-3.03-.337-1.554z" fill="#F4C5A2"/><path d="M79.52 67.58c0 2.904-2.114 5.26-4.716 5.26-2.602 0-4.21-2.356-4.21-5.26s1.566-5.26 4.21-5.26 4.716 2.356 4.716 5.26z" fill="#FED4BD"/><path d="M75.208 67.216s-.69 2.972.843 2.938c1.532-.033.951.532 1.347 1.149.396.616 1.541.194 2.248-1.267.708-1.46 1.466-4.736.32-6.331a6.216 6.216 0 00-5.254-2.23c-1.937.17-4.396 1.69-4.615 3.074-.404 2.516 5.111 2.667 5.111 2.667z" fill="#07304B"/><path d="M80.564 97.238l-6.712-.135-.126 3.858 7.234 1.004-.396-4.727z" fill="#0B3B56"/><path d="M79.511 101.128s-.917.845-1.187 1.182a8.44 8.44 0 00-1.6 2.145c-.177.658.842-.119 1.246-.245.405-.127.842.211.7.844-.42.887-.884 1.752-1.39 2.592-.329.726 2.686.776 3.579-.177a5.075 5.075 0 001.465-3.225c.101-1.233-.396-2.254-.286-2.786l-2.527-.33z" fill="#F4C5A2"/><path d="M78.762 100.361l-.37 1.401 4.227 1.292.421-1.537-4.278-1.156z" fill="#E6E7E8"/><path d="M83.2 75.296s-2.956.245-2.526 5.26c.43 5.014.345 8.442.345 8.442l-2.417 11.769 4.489 1.207s3.098-12.014 3.098-12.419c0-.405-.766-10.612-.766-10.612s-.295-2.743-2.223-3.647z" fill="#0F4463"/><path d="M68.471 94.713l-.05 4.601a.778.778 0 00.572.743l1.87.465.05-3.014-2.442-2.795z" fill="#0B3B56"/><path d="M78.695 71.81l-5.247 3.806 2.3 2.255 3.578-5.251-.631-.81z" fill="#E6E7E8"/><path d="M50.914 102.995s.842-.844 1.195-1.115a8.259 8.259 0 012.13-1.485c.65-.152-.142.844-.277 1.207-.135.363.177.844.842.709a26.683 26.683 0 002.569-1.266c.715-.287.656 2.65-.295 3.495-.87.806-2 1.273-3.183 1.317-1.205.05-2.181-.473-2.695-.38l-.286-2.482z" fill="#F4C5A2"/><path d="M25.364 152.467s-.168.498 1.962.607c2.13.11 4.396.119 4.682 1.512.287 1.393-1.684 3.039-3.991 3.376-2.47.224-4.96.116-7.402-.32-.329-.068-.606-.22-.657-.549a7.436 7.436 0 01.278-3.233c.623-1.9 5.128-1.393 5.128-1.393z" fill="#933E31"/><path d="M31.158 154.053s-.169.49 1.962.608c2.13.119 4.396.119 4.682 1.511.287 1.393-1.364 2.533-3.68 2.829-2.004.27-6.004.464-7.579.523a.604.604 0 01-.648-.54 16.368 16.368 0 01-.118-3.217c.151-1.975 5.38-1.714 5.38-1.714z" fill="#9D4D36"/><path d="M20.648 119.466s-.227 17.154-.379 19.24c-.151 2.085-.623 14.74-.623 14.74s3.579 1.806 6.358.574l1.583-32.621-6.939-1.933z" fill="#072944"/><path d="M25.667 120.546v17.188c-.16 5.023-.438 18.202-.438 18.202a9.25 9.25 0 006.678-1.765c-.227-2.246 0-14.917 0-14.917.842-6.585 1.34-17.146 1.424-19.088v-.312l-7.664.692z" fill="#07304B"/><path d="M18.18 95.236s-2.618 8.172-2.054 12.503a23.199 23.199 0 004.522 2.938l-2.467-15.44z" fill="#0F4463"/><path d="M33.406 88.45c-.303 3.131-2.61 5.47-5.145 5.216-2.535-.253-4.337-2.997-4.034-6.129.303-3.132 2.61-5.47 5.154-5.217 2.543.253 4.303 2.997 4.025 6.13z" fill="#FED4BD"/><path d="M24.859 91.126c1.185.22 2.41.007 3.452-.6a6.025 6.025 0 001.853-2.27s1.398.582 1.827-.575c.43-1.156 2.156-1.14 2.24-2.186 0 0-.48-5.167-5.996-4.264 0 0-7.848 1.588-3.376 9.895z" fill="#F99840"/><path d="M24.514 92.08a10.338 10.338 0 015.945 1.603c.147.35.39.65.699.87.522.346 4.387 1.815 4.387 1.815s-2.417 16.335-1.111 23.756c0 0-5.626 4.407-14.417 0 0 0-1.28-20.261-1.853-24.921.017.034 1.482-1.79 6.35-3.124z" fill="#0B3B56"/><path d="M35.562 96.402l6.577 7.167 9.356-1.756s1.078 2.474.766 4.281l-11.41 2.811-7.411-6.602s-2.46-5.175 2.122-5.901z" fill="#0F4463"/><path d="M209.516 94.553s.126-1.216.235-1.621a8.391 8.391 0 01.741-2.533c.413-.515.422.768.531 1.123.109.354.674.566 1.095 0 .421-.566.842-1.916 1.212-2.592.371-.675 2.165 1.689 1.946 2.913a4.96 4.96 0 01-1.685 3.022c-.901.794-1.995.996-2.341 1.393l-1.734-1.705z" fill="#F4C5A2"/><path d="M185.676 155.286s-.169.498 1.962.616c2.13.119 4.387.119 4.682 1.512.295 1.393-1.684 3.039-3.992 3.376a27.55 27.55 0 01-7.41-.32c-.32-.059-.606-.211-.649-.541a7.301 7.301 0 01.278-3.233c.623-1.908 5.129-1.41 5.129-1.41z" fill="#933E31"/><path d="M191.495 156.873s-.169.498 1.962.617c2.13.118 4.396.109 4.682 1.511.286 1.401-1.364 2.532-3.689 2.819-1.995.279-6.004.465-7.578.532a.622.622 0 01-.649-.549 15.71 15.71 0 01-.109-3.208c.126-1.983 5.381-1.722 5.381-1.722z" fill="#9D4D36"/><path d="M180.96 122.286s-.227 17.163-.387 19.248c-.16 2.085-.615 14.74-.615 14.74s3.579 1.807 6.349.566l1.592-32.621-6.939-1.933z" fill="#072944"/><path d="M185.971 123.375v17.179c-.152 5.024-.438 18.202-.438 18.202a9.242 9.242 0 006.686-1.765c-.236-2.237 0-14.917 0-14.917.842-6.576 1.339-17.146 1.423-19.088v-.312l-7.671.701z" fill="#07304B"/><path d="M178.526 98.056s-2.618 8.181-2.054 12.512a23.263 23.263 0 004.522 2.937l-2.468-15.449z" fill="#0F4463"/><path d="M192.75 90.5c0 3.141-2.08 5.69-4.632 5.682-2.552-.008-4.606-2.532-4.598-5.707.008-3.174 2.08-5.698 4.632-5.69 2.551.009 4.606 2.567 4.598 5.716z" fill="#FED4BD"/><path d="M184.825 94.907a10.303 10.303 0 015.895 1.604c.146.363.395.674.716.895.522.355 4.387 1.824 4.387 1.824s-2.417 16.335-1.103 23.756c0 0-5.625 4.407-14.417 0 0 0-1.288-20.261-1.852-24.93.075 0 1.507-1.815 6.374-3.149z" fill="#0B3B56"/><path d="M195.865 99.23l6.569 1.511 7.014-7.168s2.459.769 2.956 2.879l-8.362 9.54-10.29-.904s-2.459-5.132 2.113-5.858z" fill="#0F4463"/><path d="M189.811 84.532s3.595.683 3.638 3.723l-3.369 1.106s.522 2.532-1.364 3.216c0 0-.547 2.322-3.966 2.102 0 0-5.137-6.754 1.145-9.894a8.25 8.25 0 013.916-.253z" fill="#0B3B56"/><defs><linearGradient id="paint0_linear" x1="87.082" y1="79.078" x2="175.613" y2="79.078" gradientUnits="userSpaceOnUse"><stop stop-color="#1C75BC"/><stop offset=".28" stop-color="#2077BC"/><stop offset=".54" stop-color="#2B7EBC"/><stop offset=".8" stop-color="#3E88BC"/><stop offset="1" stop-color="#5394BC"/></linearGradient></defs></svg>