<svg width="30" height="420" viewBox="0 0 30 420" fill="none" xmlns="http://www.w3.org/2000/svg">
<path opacity="0.25" d="M22 141L22 3L8.00001 3L8 141L22 141Z" fill="url(#paint0_linear)"/>
<path opacity="0.25" d="M22 400L22 151L8.00001 151L8 400L22 400Z" fill="url(#paint1_linear)"/>
<path d="M14.556 29.092C22.5951 29.092 29.1121 22.5796 29.1121 14.546C29.1121 6.51248 22.5951 0 14.556 0C6.51696 0 0 6.51248 0 14.546C0 22.5796 6.51696 29.092 14.556 29.092Z" fill="url(#paint2_linear)"/>
<path d="M16.1843 21.092H14.6195V10.7187L11.4814 11.8713V10.4579L15.9403 8.7837H16.1843V21.092Z" fill="white"/>
<path d="M14.556 159.092C22.5951 159.092 29.1121 152.58 29.1121 144.546C29.1121 136.512 22.5951 130 14.556 130C6.51696 130 0 136.512 0 144.546C0 152.58 6.51696 159.092 14.556 159.092Z" fill="url(#paint3_linear)"/>
<path d="M19.0663 150.092H11.0403V148.973L15.2805 144.262C15.9086 143.549 16.3405 142.972 16.5761 142.529C16.8172 142.08 16.9378 141.617 16.9378 141.141C16.9378 140.501 16.7443 139.977 16.3573 139.567C15.9703 139.158 15.4543 138.953 14.8093 138.953C14.0353 138.953 13.4324 139.175 13.0005 139.618C12.5742 140.055 12.3611 140.667 12.3611 141.452H10.8047C10.8047 140.324 11.1665 139.413 11.89 138.718C12.6191 138.022 13.5922 137.674 14.8093 137.674C15.9479 137.674 16.8481 137.974 17.5099 138.575C18.1718 139.169 18.5027 139.963 18.5027 140.955C18.5027 142.161 17.7343 143.597 16.1975 145.263L12.9164 148.822H19.0663V150.092Z" fill="white"/>
<path d="M14.556 289.092C22.5951 289.092 29.1121 282.58 29.1121 274.546C29.1121 266.512 22.5951 260 14.556 260C6.51695 260 0 266.512 0 274.546C0 282.58 6.51695 289.092 14.556 289.092Z" fill="url(#paint4_linear)"/>
<path d="M13.2745 274.21H14.4439C15.1787 274.199 15.7564 274.005 16.177 273.63C16.5977 273.254 16.808 272.746 16.808 272.107C16.808 270.671 16.0929 269.953 14.6627 269.953C13.9896 269.953 13.4512 270.147 13.0474 270.534C12.6491 270.915 12.45 271.423 12.45 272.056H10.8936C10.8936 271.086 11.247 270.281 11.9537 269.642C12.666 268.997 13.569 268.674 14.6627 268.674C15.8181 268.674 16.7239 268.98 17.3801 269.591C18.0363 270.203 18.3644 271.052 18.3644 272.141C18.3644 272.673 18.1906 273.189 17.8428 273.689C17.5007 274.188 17.0324 274.561 16.4378 274.807C17.1109 275.021 17.6297 275.374 17.9943 275.868C18.3644 276.361 18.5495 276.964 18.5495 277.676C18.5495 278.776 18.1906 279.648 17.4726 280.293C16.7547 280.938 15.8209 281.26 14.6711 281.26C13.5213 281.26 12.5846 280.949 11.8611 280.326C11.1432 279.704 10.7842 278.882 10.7842 277.861H12.3491C12.3491 278.506 12.5594 279.022 12.9801 279.409C13.4007 279.796 13.9644 279.99 14.6711 279.99C15.4227 279.99 15.9975 279.794 16.3958 279.401C16.794 279.008 16.9931 278.445 16.9931 277.71C16.9931 276.998 16.7744 276.451 16.3369 276.069C15.8994 275.688 15.2684 275.492 14.4439 275.481H13.2745V274.21Z" fill="white"/>
<path d="M14.5561 419.092C22.5951 419.092 29.1121 412.58 29.1121 404.546C29.1121 396.512 22.5951 390 14.5561 390C6.51698 390 0 396.512 0 404.546C0 412.58 6.51698 419.092 14.5561 419.092Z" fill="url(#paint5_linear)"/>
<path d="M16.5532 405.978H18.2526V407.248H16.5532V410.092H14.9884V407.248H9.41049V406.331L14.8958 397.843H16.5532V405.978ZM11.1772 405.978H14.9884V399.971L14.8033 400.308L11.1772 405.978Z" fill="white"/>
<defs>
<linearGradient id="paint0_linear" x1="22" y1="72" x2="8" y2="72" gradientUnits="userSpaceOnUse">
<stop stop-color="#028EA4"/>
<stop offset="1" stop-color="#3DBBCE"/>
</linearGradient>
<linearGradient id="paint1_linear" x1="22" y1="275.5" x2="8.00001" y2="275.5" gradientUnits="userSpaceOnUse">
<stop stop-color="#028EA4"/>
<stop offset="1" stop-color="#3DBBCE"/>
</linearGradient>
<linearGradient id="paint2_linear" x1="14.556" y1="0" x2="14.556" y2="29.092" gradientUnits="userSpaceOnUse">
<stop stop-color="#494949"/>
<stop offset="1" stop-color="#262626"/>
</linearGradient>
<linearGradient id="paint3_linear" x1="14.556" y1="130" x2="14.556" y2="159.092" gradientUnits="userSpaceOnUse">
<stop stop-color="#494949"/>
<stop offset="1" stop-color="#262626"/>
</linearGradient>
<linearGradient id="paint4_linear" x1="14.556" y1="260" x2="14.556" y2="289.092" gradientUnits="userSpaceOnUse">
<stop stop-color="#494949"/>
<stop offset="1" stop-color="#262626"/>
</linearGradient>
<linearGradient id="paint5_linear" x1="14.5561" y1="390" x2="14.5561" y2="419.092" gradientUnits="userSpaceOnUse">
<stop stop-color="#494949"/>
<stop offset="1" stop-color="#262626"/>
</linearGradient>
</defs>
</svg>
