<svg width="100" height="79" viewBox="0 0 100 79" fill="none" xmlns="http://www.w3.org/2000/svg">
<path fill-rule="evenodd" clip-rule="evenodd" d="M28.3178 35.5418H28.2133C26.7691 35.4278 25.3977 34.8591 24.2948 33.9167C23.8919 33.5937 23.6033 33.1491 23.4715 32.6488C23.3398 32.1485 23.372 31.6189 23.5633 31.1383C23.865 30.5713 24.2808 30.0734 24.7845 29.6764C25.2882 29.2793 25.8687 28.9916 26.4892 28.8318C27.8868 28.3762 29.3632 28.2156 30.8256 28.36H30.9301C32.3704 28.4902 33.737 29.057 34.8486 29.9851C35.2506 30.3207 35.5374 30.7744 35.6686 31.2823C35.7998 31.7902 35.7689 32.3266 35.5801 32.8159C35.2848 33.3723 34.8765 33.8604 34.3815 34.2487C33.8865 34.6369 33.3159 34.9167 32.7065 35.07C31.2994 35.5648 29.7974 35.7263 28.3178 35.5418Z" fill="#980000"/>
<path fill-rule="evenodd" clip-rule="evenodd" d="M24.1377 36.4331C24.6811 36.6125 25.2413 36.7355 25.8096 36.8001C26.534 36.7396 27.2631 36.8288 27.9517 37.0622C28.8323 37.4844 29.7972 37.6996 30.7731 37.6912L25.8096 45.6594L23.6675 43.0907L19.2266 44.2964L24.1377 36.4331Z" fill="url(#paint0_linear)"/>
<path fill-rule="evenodd" clip-rule="evenodd" d="M86.4682 26.6829L85.162 27.4168L72.6228 19.6059L73.9812 18.872L86.4682 26.6829ZM89.7074 24.7957L88.4535 25.5296L75.8621 17.8235L77.116 17.0896L89.7074 24.7957ZM83.1244 28.57L81.8705 29.304L69.3313 21.5455L70.5852 20.8116L83.1244 28.57ZM45.5068 30.8766L44.2007 31.5581L31.975 23.9045L33.2289 23.1706L45.5068 30.8766ZM49.2163 33.1308L50.4703 32.3969L63.0094 40.2077L61.7555 40.9416L49.2163 33.1308ZM48.9029 28.937L47.5967 29.6709L35.2665 22.0173L36.5204 21.2834L48.9029 28.937ZM52.8214 31.0339L54.0753 30.3L66.6145 38.0584L65.3605 38.7923L52.8214 31.0339ZM56.1651 29.0943L57.4713 28.4128L70.0105 36.1712L68.7566 36.9576L56.1651 29.0943ZM38.4535 20.1301L39.7075 19.3962L52.0377 27.1022L50.7837 27.8361L38.4535 20.1301ZM43.3647 17.2993L44.6186 16.6178L56.7398 24.1666L55.4337 24.8481L43.3647 17.2993ZM70.5329 16.513L69.2268 17.2469L56.8966 9.54085L58.1505 8.80694L70.5329 16.513ZM67.1892 18.4002L65.883 19.1341L53.5006 11.5329L54.8067 10.799L67.1892 18.4002ZM59.4044 27.3119L60.6583 26.578L73.1975 34.3365L71.9436 35.0704L59.4044 27.3119ZM60.2926 22.3318L58.9865 23.1182L46.7607 15.3597L48.0669 14.6782L60.2926 22.3318ZM65.7785 23.59L67.0324 22.9085L79.5716 30.6669L78.3177 31.4008L65.7785 23.59ZM62.6437 25.4771L63.8976 24.7432L76.4368 32.5017L75.1306 33.288L62.6437 25.4771ZM63.6364 20.4971L62.3302 21.231L49.8955 13.5249L51.1495 12.8434L63.6364 20.4971ZM60.0836 7.70608L61.3375 6.97217L73.6677 14.6782L72.4138 15.3597L60.0836 7.70608ZM48.3281 48.6477L47.022 49.3816L34.4828 41.5707L35.789 40.8368L48.3281 48.6477ZM44.7231 50.7446L43.417 51.4785L30.8778 43.72L32.1839 42.9861L44.7231 50.7446ZM41.0659 37.8487L42.3198 37.1673L54.859 44.9257L53.605 45.6596L41.0659 37.8487ZM45.977 35.018L47.231 34.284L59.7701 42.0949L58.5162 42.7764L45.977 35.018ZM37.8788 39.6311L39.1327 38.8972L51.6719 46.7081L50.3658 47.442L37.8788 39.6311Z" fill="#928B7C"/>
<path fill-rule="evenodd" clip-rule="evenodd" d="M97.4401 29.4612L41.484 61.6483L41.3272 61.5644L97.4087 29.3563V29.4926V29.3878L97.4401 29.4612ZM57.2415 2.77837L62.0691 0L100 23.6948L40.4913 57.9263L11.7034 39.977L22.8842 35.9091H22.9364C23.3155 36.1166 23.7193 36.2751 24.1381 36.3809L19.2269 44.2442L23.6679 43.0385L25.81 45.6072L30.7734 37.7439H30.9824C31.9434 37.8611 32.9163 37.6585 33.7515 37.1672H33.8037C34.1775 36.8354 34.5796 36.5372 35.0054 36.276C35.4117 36.1033 35.831 35.963 36.2593 35.8567C36.6239 35.7618 36.975 35.6209 37.3042 35.4373C37.5889 35.2543 37.8226 35.0018 37.9834 34.7034C38.1588 34.3242 38.1776 33.8907 38.0357 33.4977C37.9312 33.2565 37.9103 33.0993 37.9834 33.0259H38.0357C38.3539 32.8746 38.6249 32.6389 38.8194 32.3444C39.0351 32.0307 39.1779 31.6724 39.2374 31.296C39.3045 30.9429 39.2475 30.5775 39.076 30.262C38.9044 29.9465 38.6291 29.7005 38.2969 29.566C37.7723 29.3332 37.2308 29.1405 36.6773 28.9894C36.1709 28.8727 35.6799 28.6968 35.2144 28.4652L34.4829 27.6788C34.0551 27.2522 33.561 26.8981 33.02 26.6304C32.2166 26.1529 31.2868 25.9334 30.3554 26.0013C29.2762 25.9099 28.1961 26.167 27.2729 26.7352L26.228 27.4167C25.8578 27.6324 25.4499 27.7748 25.0263 27.8361L23.0409 28.0982V28.1506C22.6277 28.2206 22.2351 28.3818 21.8915 28.6224C20.6376 29.3249 20.1151 29.9854 20.3241 30.6145V30.6669C20.6158 31.011 20.878 31.3793 21.1078 31.7677L7.31468 36.8003L12.1214 37.3769L11.2645 39.7149L2.56024 34.284L3.55292 33.7074L38.8716 13.3676L57.2415 2.77837ZM0.104645 37.7439V37.6914L0.261385 37.5866L2.50799 36.2236V38.9496L5.12032 40.5956L0.104645 37.7439ZM89.7076 24.848L77.1684 17.0896L75.9145 17.8235L88.5059 25.5819L89.7076 24.848ZM86.4683 26.7352L73.9814 18.8719L72.6752 19.6058L85.2144 27.4167L86.4683 26.7352ZM83.1245 28.6224L70.5853 20.864L69.3314 21.5979L81.8706 29.3563L83.1245 28.6224ZM60.136 7.75846L72.4662 15.4121L73.6679 14.6782L61.3377 6.97213L60.136 7.75846ZM63.5843 20.5494L51.2018 12.8434L49.9479 13.5249L62.2781 21.2309L63.5843 20.5494ZM62.5916 25.5295L75.0263 33.288L76.3325 32.5017L63.7933 24.7432L62.5916 25.5295ZM65.7264 23.6423L78.2656 31.4532L79.5195 30.7193L66.9803 22.9608L65.7264 23.6423ZM60.2405 22.3842L48.067 14.6782L46.7609 15.3597L58.9866 23.1181L60.2405 22.3842ZM59.3523 27.3643L71.8915 35.1228L73.1454 34.3889L60.6062 26.6304L59.3523 27.3643ZM67.137 18.4526L54.8069 10.7989L53.5007 11.5328L65.8309 19.134L67.137 18.4526ZM70.4808 16.5654L58.1506 8.8069L56.8967 9.54081L69.1747 17.2468L70.4808 16.5654ZM43.3648 17.2993L55.4338 24.848L56.74 24.1666L44.6188 16.6178L43.3648 17.2993ZM38.4537 20.1301L50.7839 27.8361L52.0378 27.1022L39.7076 19.3962L38.4537 20.1301ZM56.113 29.1466L68.6522 36.9575L69.9061 36.1712L57.4714 28.4127L56.113 29.1466ZM52.7692 31.0863L65.3084 38.8447L66.5623 38.1108L54.0232 30.4048L52.7692 31.0863ZM48.8507 28.9894L36.5728 21.2309L35.3189 21.9648L47.5446 29.6709L48.8507 28.9894ZM49.1642 33.1831L61.7034 40.994L62.9573 40.2601L50.4181 32.4492L49.1642 33.1831ZM45.4547 30.8766L33.1768 23.1705L31.9228 23.9044L44.1485 31.5581L45.4547 30.8766ZM37.8789 39.6311L50.4181 47.4419L51.7243 46.708L39.1851 38.8971L37.8789 39.6311ZM45.9772 34.9655L58.5164 42.7764L59.8225 42.0425L47.2833 34.2316L45.9772 34.9655ZM41.066 37.7963L53.6052 45.6072L54.8591 44.8733L42.3199 37.1148L41.066 37.7963ZM44.7233 50.6921L32.1841 42.9861L30.8779 43.72L43.4171 51.4784L44.7233 50.6921ZM48.3283 48.5952L35.7891 40.8892L34.4829 41.6231L47.0221 49.3815L48.3283 48.5952Z" fill="#FFFBF0"/>
<path fill-rule="evenodd" clip-rule="evenodd" d="M41.484 61.6486L97.4401 29.4614V33.5503L41.5362 65.7375L41.484 61.6486ZM96.1343 38.2687L97.4401 37.6707V46.6065C96.6568 45.6078 94.5669 40.8898 94.0441 39.5998L96.1343 38.2687ZM2.56024 34.2843L11.2645 39.7152L11.0764 40.2079L11.7034 39.9773L40.4913 57.9266L40.1778 62.2252L5.12033 40.5959L2.45575 38.9498V36.2239L2.56024 34.5988V34.2843ZM48.1817 70.1992C46.0501 70.2831 43.7933 70.3995 41.6407 70.4555L41.5362 69.8099L94.0441 39.5998C94.0441 39.5998 94.3151 40.247 94.7618 41.272C95.2084 42.2969 95.3428 42.5613 95.3428 42.5613L48.1817 70.1992ZM55.9044 69.722L81.9019 54.8861C81.8366 55.1849 94.7236 47.1069 97.1793 46.132C97.2772 46.3453 97.417 46.5645 97.4401 46.6065L57.7327 69.774L55.9044 69.722ZM55.9044 69.722L57.7327 69.774L41.693 79.0002V77.9518L55.9044 69.722ZM41.6407 70.4555L48.1477 70.1992L41.6407 73.9153V70.4555Z" fill="#DCD5C1"/>
<path fill-rule="evenodd" clip-rule="evenodd" d="M11.7032 39.977L11.0763 40.2077L11.2644 39.7149L12.1212 37.3769L7.31451 36.8003L21.1599 31.7153C21.2242 31.8272 21.2601 31.9532 21.2644 32.0823C21.4545 32.8056 21.5942 33.5412 21.6823 34.284C21.7637 34.6219 21.912 34.94 22.1184 35.2192C22.3249 35.4984 22.5852 35.733 22.884 35.9091L11.7032 39.977Z" fill="url(#paint1_linear)"/>
<path fill-rule="evenodd" clip-rule="evenodd" d="M97.4399 29.272L41.3271 61.564L41.4838 61.6479V65.7368L0.104493 41.7799V37.7434L5.12017 40.6476L40.1776 62.2245L40.4911 57.9259L100.052 23.6943L99.7388 27.259V28.0454L97.4399 29.272ZM41.5883 70.4548C39.6029 70.4548 37.6071 70.5387 35.6113 70.5596L0 50.0102L0.0522466 45.8164H0.104493L41.4838 69.8257H41.5883L41.4838 65.7368L97.4399 33.5497V37.6386L94.0439 39.5992C91.954 40.8892 90.9485 41.6558 88.2968 42.986C87.2518 43.5103 86.2069 44.0345 84.7753 44.9253L41.5883 69.7733V70.4548ZM97.4399 45.6969C97.4399 45.9102 97.4348 46.3149 97.4399 46.3672L55.6949 69.8781C53.1348 70.0249 50.5643 70.1403 47.9833 70.2451L97.4399 40.8892C97.4399 41.1408 97.4608 43.0029 97.4399 43.2755V43.6828V44.3549C97.4258 44.5469 97.4258 44.7333 97.4399 44.9253V45.6969ZM41.5883 70.4548L41.6196 73.9146H41.4629L35.6113 70.5596L41.5883 70.4548ZM41.6196 73.9146L47.9833 70.2451C50.5434 70.1612 53.1766 69.9935 55.6949 69.8781L41.6719 77.9511V78.9996L26.9906 70.612L28.8372 70.5596L41.4629 78.056L41.6719 77.9511L41.6196 73.9146ZM0 54.0991L28.8372 70.5596L26.9906 70.612L0 55.2V54.0991Z" fill="#C5B995"/>
<path fill-rule="evenodd" clip-rule="evenodd" d="M30.7732 37.7442C29.7974 37.7525 28.8324 37.5374 27.9519 37.1151C27.2632 36.8818 26.5342 36.7926 25.8098 36.853C25.2415 36.7884 24.6812 36.6654 24.1379 36.4861C23.7347 36.3596 23.3486 36.1835 22.9885 35.9618H22.9363C22.6375 35.7858 22.3771 35.5511 22.1707 35.2719C21.9642 34.9927 21.8159 34.6747 21.7346 34.3368C21.6464 33.594 21.5068 32.8583 21.3166 32.135C21.3123 32.006 21.2765 31.8799 21.2121 31.7681C20.9823 31.3796 20.7201 31.0113 20.4284 30.6672V30.6148C20.2194 29.9857 20.7419 29.3252 21.9958 28.6227C22.3394 28.3821 22.732 28.2209 23.1452 28.151V28.0985L25.0784 27.784C25.502 27.7227 25.9099 27.5803 26.28 27.3646L27.325 26.6831C28.2482 26.1149 29.3283 25.8578 30.4075 25.9492C30.1772 25.9505 29.9483 25.9858 29.7283 26.0541C29.082 26.1347 28.4594 26.3489 27.8997 26.6831C27.5692 26.8857 27.2548 27.1135 26.9592 27.3646C26.5859 27.5843 26.1804 27.7435 25.7576 27.8364H25.6008L23.9812 28.0985H23.8767L23.6155 28.151C23.2333 28.2664 22.8652 28.4247 22.5183 28.6227C21.3689 29.2833 20.8777 29.9123 21.0554 30.5099C21.4461 30.9348 21.7481 31.4339 21.9436 31.9778L22.3615 34.1795C22.4429 34.5174 22.5912 34.8355 22.7976 35.1147C23.0041 35.3939 23.2645 35.6285 23.5632 35.8046L23.72 35.9094H23.8767C23.9933 35.9793 24.1156 36.0389 24.2424 36.0876C25.0252 36.4759 25.8784 36.7007 26.7503 36.7482C27.4395 36.7163 28.129 36.8049 28.7879 37.0103C29.501 37.332 30.2584 37.544 31.0345 37.6393L30.7732 37.7442ZM27.4295 27.4695C27.1286 27.5972 26.8125 27.6853 26.489 27.7316C26.5674 27.6778 26.6566 27.6421 26.7503 27.6267L27.0115 27.5743L27.8997 27.1025C28.1678 26.9114 28.4469 26.7364 28.7356 26.5783C28.9431 26.4435 29.1811 26.3632 29.4276 26.3449C29.6741 26.3266 29.9213 26.3708 30.1463 26.4734C30.3553 26.5783 30.3866 26.6622 30.2508 26.7356C30.061 26.7731 29.8658 26.7731 29.6761 26.7356C29.1649 26.8065 28.6699 26.9662 28.2132 27.2074L27.4295 27.4695ZM25.0784 28.0985H25.1306C25.1306 28.0985 24.7649 28.2034 24.1379 28.4131C23.761 28.5213 23.3939 28.6616 23.0407 28.8324C22.5954 29.0687 22.2313 29.434 21.9958 29.8809C21.9626 30.212 21.9626 30.5457 21.9958 30.8769C22.0588 31.0982 22.0766 31.33 22.0481 31.5584H21.9958L21.4211 30.4051C21.3351 30.1194 21.3568 29.812 21.4821 29.5414C21.6073 29.2707 21.8273 29.0557 22.1003 28.9373C22.4794 28.7298 22.8832 28.5713 23.302 28.4655L25.0784 28.0985ZM28.2132 35.857C28.0577 35.8295 27.9006 35.812 27.7429 35.8046C26.1897 35.6353 24.7192 35.016 23.511 34.0222C23.0678 33.6825 22.7501 33.2043 22.6082 32.6631C22.4663 32.1219 22.5082 31.5488 22.7273 31.0342C23.0535 30.4297 23.5001 29.8991 24.0394 29.4752C24.5787 29.0514 25.1991 28.7434 25.8621 28.5703C27.5166 27.9674 29.2987 27.8048 31.0345 28.0985C29.4135 27.8854 27.7653 28.0652 26.2278 28.6227C25.5703 28.792 24.9537 29.0929 24.415 29.5072C23.8763 29.9216 23.4266 30.441 23.093 31.0342C22.8885 31.5555 22.8594 32.1297 23.0104 32.6692C23.1613 33.2086 23.4839 33.6838 23.9289 34.0222C25.1087 35.0955 26.6226 35.7254 28.2132 35.8046V35.857ZM28.3177 35.5425C29.7972 35.7269 31.2993 35.5654 32.7064 35.0707C33.3158 34.9174 33.8864 34.6376 34.3814 34.2493C34.8763 33.861 35.2846 33.3729 35.5799 32.8165C35.7687 32.3272 35.7997 31.7908 35.6685 31.283C35.5372 30.7751 35.2504 30.3213 34.8485 29.9857C33.7369 29.0577 32.3702 28.4909 30.93 28.3606H31.348C32.8115 28.5357 34.192 29.1371 35.3187 30.0906C35.7146 30.4071 35.9991 30.8425 36.1307 31.333C36.2623 31.8234 36.2341 32.3433 36.0502 32.8165C35.7739 33.3923 35.3723 33.8986 34.8749 34.2978C34.3775 34.697 33.7971 34.9791 33.1766 35.1231C31.6153 35.6584 29.9472 35.8024 28.3177 35.5425ZM22.466 33.4456C22.6829 33.6765 22.8595 33.9423 22.9885 34.2319C23.1526 34.7026 23.4642 35.1072 23.8767 35.3852L24.6081 35.6473C24.7823 35.7521 24.7823 35.857 24.6081 35.9618C24.5042 36.0197 24.3874 36.05 24.2685 36.05C24.1497 36.05 24.0329 36.0197 23.9289 35.9618C23.3819 35.6144 22.9607 35.0999 22.7273 34.494C22.6198 34.15 22.5326 33.7999 22.466 33.4456Z" fill="#820000"/>
<path fill-rule="evenodd" clip-rule="evenodd" d="M37.7221 29.7233C37.8723 29.7853 38.0059 29.8815 38.1126 30.0043C38.2192 30.1272 38.2958 30.2732 38.3364 30.4309C38.3769 30.5887 38.3803 30.7537 38.3462 30.9129C38.3122 31.0722 38.2416 31.2213 38.1401 31.3484C37.9166 31.7418 37.5918 32.0677 37.1997 32.292L37.1474 32.3444L37.8789 31.4008C38.1192 30.6984 37.8057 30.1112 36.9384 29.6185L35.6323 29.0418C35.5591 29.0418 35.5591 28.9894 35.6323 28.9894C35.9918 29.0232 36.3441 29.1115 36.6772 29.2515C37.0367 29.3825 37.386 29.5402 37.7221 29.7233ZM30.9823 37.7439C30.2062 37.6486 29.4489 37.4365 28.7357 37.1148C28.0768 36.9095 27.3873 36.8208 26.6981 36.8527C25.8262 36.8052 24.973 36.5805 24.1903 36.1922C24.8708 36.4726 25.5969 36.6254 26.3324 36.643C27.0577 36.6454 27.7789 36.7514 28.4745 36.9576C29.198 37.3449 30.0055 37.5475 30.8256 37.5475C31.6457 37.5475 32.4531 37.3449 33.1767 36.9576C33.5579 36.6263 33.9792 36.3445 34.4306 36.1188C34.841 35.8991 35.281 35.7402 35.7368 35.647C36.0783 35.5559 36.4106 35.4331 36.7295 35.2801C36.9996 35.1184 37.2173 34.8817 37.3564 34.5986C37.5138 34.2122 37.5138 33.7793 37.3564 33.3929C37.2519 33.0783 37.2833 32.8896 37.4609 32.8162C37.7463 32.6607 37.9956 32.4463 38.1924 32.1872C38.3831 31.8793 38.5242 31.5432 38.6103 31.1911C38.6457 30.8483 38.5742 30.5029 38.4058 30.2025C38.2373 29.902 37.9803 29.6614 37.6699 29.5136C37.1787 29.2866 36.6724 29.0939 36.1547 28.937C35.6179 28.8325 35.0928 28.6744 34.5873 28.4652L33.8036 27.7313C33.3779 27.3252 32.9042 26.9731 32.393 26.6828C31.5648 26.1736 30.5857 25.9697 29.6239 26.1062C29.8439 26.0379 30.0728 26.0026 30.3031 26.0014C31.2345 25.9334 32.1643 26.1529 32.9677 26.6304C33.5087 26.8981 34.0028 27.2522 34.4306 27.6789L35.2143 28.3603C35.6798 28.592 36.1708 28.7679 36.6772 28.8846C37.2308 29.0357 37.7722 29.2284 38.2969 29.4612C38.629 29.5957 38.9044 29.8417 39.0759 30.1572C39.2474 30.4727 39.3044 30.8381 39.2373 31.1911C39.1779 31.5676 39.035 31.9259 38.8193 32.2396C38.6248 32.5341 38.3538 32.7698 38.0356 32.9211C37.9625 32.9945 38.0356 33.1517 38.0879 33.3929C38.2298 33.7859 38.211 34.2194 38.0356 34.5986C37.8748 34.897 37.6411 35.1495 37.3564 35.3325C37.0272 35.5161 36.6761 35.657 36.3115 35.7519C35.8831 35.8582 35.4638 35.9985 35.0576 36.1712C34.6318 36.4324 34.2296 36.7306 33.8559 37.0624H33.7514C32.9287 37.5902 31.955 37.8299 30.9823 37.7439ZM36.9907 33.5501C37.1997 33.655 37.2728 33.8647 37.1997 34.1792C37.1856 34.364 37.1256 34.5424 37.0252 34.6981C36.9248 34.8537 36.7872 34.9817 36.625 35.0704C36.4156 35.1969 36.1857 35.2856 35.9458 35.3325L34.8277 35.5631L35.1098 35.3849C35.2444 35.3332 35.3848 35.298 35.5278 35.2801C35.6973 35.2181 35.856 35.1296 35.998 35.018C36.2769 34.8738 36.5117 34.6564 36.6772 34.3889C36.8565 34.1435 36.9649 33.8533 36.9907 33.5501ZM28.2133 35.8567V35.8043C26.641 35.7132 25.1473 35.0841 23.9813 34.0219C23.5362 33.6835 23.2136 33.2084 23.0627 32.6689C22.9118 32.1294 22.9408 31.5553 23.1453 31.0339C23.4789 30.4407 23.9286 29.9213 24.4673 29.507C25.006 29.0926 25.6226 28.7917 26.2801 28.6225C27.8176 28.0649 29.4659 27.8851 31.0868 28.0982H31.5048C33.066 28.213 34.5409 28.8605 35.6845 29.933C36.1267 30.2616 36.4484 30.7275 36.5995 31.2583C36.7507 31.7892 36.7229 32.3553 36.5205 32.8686C36.2019 33.4844 35.7584 34.0264 35.2185 34.4597C34.6786 34.8931 34.0543 35.2083 33.3857 35.3849C31.7177 35.9251 29.9509 36.0862 28.2133 35.8567ZM30.9301 28.3603H30.8256C29.3631 28.216 27.8867 28.3766 26.4891 28.8321C25.8687 28.992 25.2882 29.2796 24.7845 29.6767C24.2808 30.0738 23.8649 30.5717 23.5633 31.1387C23.372 31.6193 23.3398 32.1488 23.4715 32.6492C23.6032 33.1495 23.8919 33.594 24.2948 33.9171C25.3977 34.8594 26.7691 35.4282 28.2133 35.5422H28.3178C29.9302 35.7935 31.5794 35.6496 33.1244 35.1228C33.745 34.9788 34.3254 34.6967 34.8227 34.2975C35.3201 33.8983 35.7217 33.3921 35.998 32.8162C36.182 32.343 36.2102 31.8232 36.0786 31.3327C35.947 30.8422 35.6624 30.4069 35.2665 30.0903C34.1543 29.1461 32.7933 28.5453 31.3481 28.3603H30.9301ZM31.1391 37.1148C31.1391 37.0414 31.1391 37.01 31.1391 37.01C31.3566 36.9313 31.5872 36.8957 31.8183 36.9051C32.1259 36.8997 32.4287 36.8282 32.7065 36.6955C32.9241 36.6089 33.1339 36.5037 33.3334 36.3809C33.4803 36.2619 33.6679 36.2054 33.8559 36.2237L33.7514 36.3285C33.4066 36.5382 33.0722 36.7479 32.7587 36.9576C32.5586 37.0518 32.3482 37.1222 32.1318 37.1673C31.8352 37.2935 31.5083 37.33 31.1913 37.2721C31.1182 37.2406 31.1077 37.1882 31.1391 37.1148Z" fill="#DB0000"/>
<path fill-rule="evenodd" clip-rule="evenodd" d="M37.7221 29.7231C37.3691 29.5375 37.0023 29.3798 36.625 29.2513C36.2919 29.1113 35.9396 29.0229 35.58 28.9892C35.5069 28.9892 35.5069 28.9892 35.58 29.0416L36.8862 29.6182C37.7535 30.111 38.067 30.6667 37.8266 31.4006L37.0952 32.3442L37.1474 32.2917C37.5395 32.0675 37.8643 31.7416 38.0879 31.3482C38.1908 31.2245 38.264 31.0787 38.3018 30.922C38.3395 30.7654 38.3407 30.6021 38.3053 30.4449C38.2699 30.2877 38.1989 30.1408 38.0978 30.0156C37.9966 29.8904 37.8681 29.7903 37.7221 29.7231ZM24.138 36.1395C24.0112 36.0908 23.8889 36.0311 23.7723 35.9613H23.6155L23.4588 35.8564C23.16 35.6804 22.8997 35.4457 22.6932 35.1665C22.4868 34.8873 22.3385 34.5693 22.2571 34.2314L21.9437 31.9772C21.7482 31.4334 21.4462 30.9343 21.0555 30.5094C20.8778 29.9118 21.3689 29.2827 22.5184 28.6222C22.8653 28.4241 23.2333 28.2659 23.6155 28.1504L23.8768 28.098H23.9813L25.6009 27.8359H25.7577C26.1804 27.743 26.586 27.5837 26.9593 27.3641C27.2549 27.113 27.5693 26.8852 27.8998 26.6826C28.4594 26.3484 29.0821 26.1342 29.7284 26.0535C30.6902 25.9171 31.6693 26.121 32.4975 26.6302C33.0087 26.9204 33.4824 27.2725 33.9081 27.6786L34.6918 28.4125C35.1973 28.6217 35.7224 28.7798 36.2592 28.8843C36.7769 29.0412 37.2832 29.2339 37.7744 29.461C38.0847 29.6087 38.3418 29.8494 38.5103 30.1498C38.6787 30.4502 38.7501 30.7956 38.7148 31.1385C38.6287 31.4905 38.4876 31.8267 38.2968 32.1345C38.1 32.3937 37.8508 32.608 37.5654 32.7635C37.3878 32.8369 37.3564 33.0257 37.4609 33.3402C37.6183 33.7266 37.6183 34.1595 37.4609 34.5459C37.3218 34.829 37.1041 35.0657 36.8339 35.2274C36.5151 35.3804 36.1828 35.5032 35.8413 35.5943C35.3826 35.704 34.9426 35.8806 34.5351 36.1186C34.0837 36.3442 33.6624 36.626 33.2812 36.9573C32.5576 37.3446 31.7502 37.5472 30.9301 37.5472C30.11 37.5472 29.3025 37.3446 28.579 36.9573C27.8834 36.7511 27.1622 36.6452 26.4369 36.6428C25.6627 36.6216 24.8999 36.4507 24.1903 36.1395H24.138ZM36.9907 33.5499C36.9649 33.853 36.8565 34.1432 36.6772 34.3886C36.5117 34.6561 36.2769 34.8735 35.998 35.0177C35.856 35.1294 35.6973 35.2178 35.5278 35.2798C35.3847 35.2977 35.2444 35.3329 35.1098 35.3846L34.8277 35.5629L35.9457 35.3322C36.1857 35.2854 36.4156 35.1967 36.625 35.0701C36.7872 34.9815 36.9248 34.8535 37.0252 34.6978C37.1256 34.5422 37.1856 34.3638 37.1997 34.1789C37.2728 33.8644 37.1997 33.6547 36.9907 33.5499ZM25.0785 28.098L23.3021 28.4649C22.8833 28.5707 22.4795 28.7293 22.1004 28.9367C21.8274 29.0552 21.6074 29.2702 21.4822 29.5408C21.3569 29.8115 21.3352 30.1189 21.4212 30.4046L21.9959 31.5578C21.9959 31.5578 21.9959 31.5578 22.0481 31.5578C22.0766 31.3295 22.0589 31.0977 21.9959 30.8764C21.9627 30.5452 21.9627 30.2115 21.9959 29.8803C22.2314 29.4335 22.5955 29.0681 23.0408 28.8319C23.394 28.661 23.7611 28.5207 24.138 28.4125C24.765 28.2028 25.0993 28.098 25.1307 28.098H25.0785ZM27.4295 27.4165L28.2132 27.102C28.6699 26.8608 29.1649 26.7012 29.6762 26.6302C29.8659 26.6677 30.0611 26.6677 30.2509 26.6302C30.3867 26.5568 30.3554 26.4729 30.1464 26.3681C29.9214 26.2654 29.6742 26.2212 29.4277 26.2395C29.1812 26.2578 28.9432 26.3381 28.7357 26.4729C28.447 26.631 28.1679 26.806 27.8998 26.9971L27.0116 27.4689L26.7503 27.5213C26.6567 27.5367 26.5675 27.5725 26.4891 27.6262C26.8102 27.5968 27.1263 27.5263 27.4295 27.4165ZM31.0346 28.098C29.2988 27.8043 27.5167 27.9668 25.8622 28.5698C25.1992 28.7428 24.5787 29.0508 24.0395 29.4747C23.5002 29.8986 23.0535 30.4292 22.7274 31.0336C22.5082 31.5482 22.4663 32.1214 22.6083 32.6626C22.7502 33.2037 23.0679 33.682 23.5111 34.0217C24.7193 35.0154 26.1898 35.6348 27.743 35.804C27.9007 35.8114 28.0578 35.8289 28.2132 35.8564C29.9338 36.0781 31.6819 35.917 33.3334 35.3846C34.002 35.208 34.6264 34.8928 35.1663 34.4595C35.7062 34.0261 36.1497 33.4841 36.4682 32.8684C36.6707 32.355 36.6985 31.7889 36.5473 31.2581C36.3961 30.7272 36.0745 30.2613 35.6323 29.9328C34.4887 28.8603 33.0137 28.2128 31.4525 28.098H31.0346ZM31.1391 37.1146C31.1391 37.188 31.1391 37.2404 31.1913 37.2718C31.5083 37.3297 31.8352 37.2933 32.1317 37.167C32.3482 37.1219 32.5586 37.0515 32.7587 36.9573C33.0722 36.7476 33.4066 36.5379 33.7514 36.3282L33.8559 36.2234C33.6679 36.2051 33.4803 36.2616 33.3334 36.3807C33.1338 36.5034 32.9241 36.6087 32.7065 36.6952C32.4287 36.828 32.1259 36.8995 31.8183 36.9049C31.5872 36.8954 31.3566 36.931 31.1391 37.0097C31.1391 37.0097 31.1077 37.0412 31.1391 37.1146ZM22.4661 33.445C22.5327 33.7993 22.6199 34.1494 22.7274 34.4935C22.9608 35.0993 23.382 35.6139 23.929 35.9613C24.0329 36.0191 24.1498 36.0495 24.2686 36.0495C24.3875 36.0495 24.5043 36.0191 24.6082 35.9613C24.7824 35.8564 24.7824 35.7516 24.6082 35.6468L23.8768 35.3846C23.4643 35.1066 23.1526 34.702 22.9886 34.2314C22.8596 33.9417 22.683 33.6759 22.4661 33.445Z" fill="#AE0000"/>
<path fill-rule="evenodd" clip-rule="evenodd" d="M0.0522466 45.8692H0.104493V45.7119V41.7803L41.4838 65.7371V69.7736H41.3793L0.104493 45.9216L0.0522466 45.8692ZM28.6102 70.56C30.93 70.56 33.5153 70.56 35.6113 70.56L41.4838 73.9674H41.6405V78.0039L41.4316 78.1087L28.6102 70.56ZM0 50.0105L35.6113 70.56C33.2811 70.56 30.9404 70.56 28.6102 70.56L0 54.0995V50.0105Z" fill="#A09575"/>
<defs>
<linearGradient id="paint0_linear" x1="33.2092" y1="37.1183" x2="30.8337" y2="48.4179" gradientUnits="userSpaceOnUse">
<stop offset="0.19" stop-color="#4F0000"/>
<stop offset="0.67" stop-color="#DB0000"/>
</linearGradient>
<linearGradient id="paint1_linear" x1="14278.4" y1="2580.73" x2="14124.1" y2="2748.67" gradientUnits="userSpaceOnUse">
<stop offset="0.19" stop-color="#4F0000"/>
<stop offset="0.67" stop-color="#DB0000"/>
</linearGradient>
</defs>
</svg>
