<svg width="100" height="119" viewBox="0 0 100 119" fill="none" xmlns="http://www.w3.org/2000/svg">
<path fill-rule="evenodd" clip-rule="evenodd" d="M69.7607 70.0632C69.8375 69.6452 69.8972 69.2101 69.9483 68.8433L91.9137 56.2612L92.5961 56.6451C92.6265 56.6806 92.6418 56.7265 92.6388 56.7731V56.901L92.5961 56.6877L92.6388 56.9437L69.7607 70.0632ZM52.7002 79.8474L42.9928 85.392L42.0545 84.8375L52.6746 78.7384C52.6661 79.1052 52.6661 79.4806 52.6746 79.8474H52.7002ZM6.31274 64.1517L6.44069 64.0664L8.41971 62.9148V64.4076L35.2303 80.871L6.31274 64.1944V64.1517Z" fill="#EEF6FF"/>
<path fill-rule="evenodd" clip-rule="evenodd" d="M69.2401 77.5613C69.2401 76.93 69.2401 76.1964 69.2401 75.369C69.2401 74.8686 69.2401 74.3909 69.2401 73.9359L92.6386 60.5264V64.1517L69.2401 77.5613ZM68.9672 85.0252C69.0098 84.4366 69.0354 83.9419 69.0525 83.558C69.1037 82.705 69.1378 81.9458 69.1378 81.2719L92.6386 67.7771L92.6813 71.4024H92.6386L68.9672 85.0252ZM62.143 81.6131L60.6246 82.4661C60.6246 80.9819 60.582 80.1459 60.582 79.9071V78.9517L61.435 78.4655C61.5032 78.6787 61.58 78.892 61.6482 79.1052C61.7797 79.9494 61.9534 80.7864 62.1686 81.6131H62.143ZM63.6955 88.0364L61.5032 89.2903C61.3412 88.4373 61.162 87.2943 60.9487 85.9636L62.996 84.7949C62.996 84.8802 62.996 84.9655 63.0557 85.0508C63.3543 86.1342 63.5675 87.1237 63.7211 88.0364H63.6955ZM43.0097 89.0174L53.1265 83.2168C53.2033 83.5666 53.2971 83.9163 53.3995 84.266C53.7066 84.9229 53.9881 85.5541 54.2525 86.1427L43.0779 92.6001V96.2681L55.4638 89.1453C55.5832 89.4268 55.6941 89.6998 55.788 89.9984C56.0865 90.7405 56.351 91.4656 56.5984 92.1736L43.1206 99.8934V100.832L6.14197 79.7621V78.6958L42.9926 99.8934L43.1632 99.8081L43.1206 96.2254L42.9926 96.2681L6.18462 75.1131L6.22726 71.4451V71.4877L42.9926 92.6427L43.0779 92.5574L43.0352 89.0174H42.9926L6.31257 67.8624V66.1563V64.2626L35.213 80.9392L41.8837 85.0338L42.0969 84.9058L43.0352 85.4603L43.0097 89.0174Z" fill="#C5DFFE"/>
<path fill-rule="evenodd" clip-rule="evenodd" d="M6.31274 64.1525C6.3147 64.0933 6.32924 64.0351 6.3554 63.9819C6.3554 63.9819 6.4151 63.9819 6.44069 64.0672L6.31274 64.1525Z" fill="#837C6E"/>
<path fill-rule="evenodd" clip-rule="evenodd" d="M6.22693 71.3174L6.26958 71.4453H6.22693V71.3174Z" fill="#D7E5EA"/>
<path fill-rule="evenodd" clip-rule="evenodd" d="M31.4769 20.8622C30.8273 20.6257 30.1558 20.4543 29.4723 20.3504C29.148 20.2893 28.8205 20.2466 28.4913 20.2224C28.7814 19.8897 29.114 19.4974 29.4894 19.0282L29.9415 18.4737C30.1121 18.2775 30.2656 18.1069 30.4106 17.9619L30.5386 18.4311C30.5422 18.4737 30.5422 18.5165 30.5386 18.559C30.7704 19.3573 31.0848 20.1292 31.4769 20.8622ZM51.1391 26.0656C51.6574 26.7406 52.1007 27.47 52.4613 28.2409L52.5893 28.5821C52.8339 29.2633 52.8033 30.013 52.504 30.672L51.9495 31.653C51.6936 31.9657 51.395 32.3069 51.0538 32.6766C49.0927 33.2032 47.1916 33.9322 45.3812 34.8518C42.4184 36.2166 40.2858 36.899 38.9835 36.899C38.7899 36.8987 38.5973 36.87 38.412 36.8138C37.9269 36.6457 37.4718 36.4009 37.0642 36.0887C36.3221 35.5171 35.9553 35.048 35.9553 34.6812C36.0796 33.6429 36.3376 32.6251 36.723 31.653C37.0912 30.6928 37.3348 29.6894 37.4481 28.6674C37.4611 27.4129 37.1433 26.1772 36.5268 25.0847C36.1333 24.4148 35.6481 23.8032 35.0852 23.2677C35.6353 23.4573 36.2099 23.5665 36.7913 23.5919C37.5709 23.6772 38.3575 23.6772 39.1371 23.5919C39.7134 23.5201 40.2836 23.4061 40.8431 23.2507C42.2933 24.1037 44.5964 24.5302 47.7526 24.5302C48.3794 24.5264 49.0004 24.4108 49.5866 24.189C49.6551 24.3145 49.7412 24.4294 49.8425 24.5302L50.2264 25.0847C50.397 25.2553 50.5676 25.4429 50.7382 25.6391L50.8662 25.7671L50.9941 25.9377L51.1391 26.0656Z" fill="#D1E7F4"/>
<path fill-rule="evenodd" clip-rule="evenodd" d="M51.0539 32.6762C50.8833 32.8213 50.7127 32.9748 50.5421 33.1454C50.0047 33.5975 49.6037 33.9558 49.3478 34.2117C48.9623 34.5666 48.6058 34.9516 48.2816 35.3633C48.2133 35.9177 48.1706 36.6172 48.1536 37.4702V40.6094C47.7819 41.5868 47.2051 42.4732 46.462 43.2089C45.719 43.9446 44.8269 44.5126 43.8458 44.8745C41.8901 45.6883 39.7767 46.0527 37.6614 45.9408C36.4921 45.9974 35.322 45.8443 34.2066 45.4887L34.036 45.4289C33.4572 45.2549 32.9349 44.9302 32.5228 44.488C32.1106 44.0459 31.8233 43.5022 31.6902 42.9125C31.7499 42.0595 31.7926 41.3771 31.8182 40.9506V40.635C31.8067 40.0877 31.7058 39.546 31.5196 39.0313C31.9177 36.1082 32.3016 33.7198 32.6712 31.8659C33.5104 31.8801 34.3322 31.6261 35.017 31.1408C35.3645 30.9435 35.6316 30.6305 35.7719 30.2563C35.9122 29.8822 35.9168 29.4707 35.7847 29.0935V28.9656C35.725 28.795 35.6739 28.6414 35.6141 28.4964V28.3685L35.3582 27.7714C35.1157 27.2429 34.8304 26.7351 34.5052 26.253C34.1797 25.7386 33.8177 25.2482 33.4219 24.7858C33.3856 24.7489 33.3567 24.7055 33.3366 24.6578C33.2768 24.6578 33.2513 24.5981 33.2513 24.5725L33.1233 24.4446C31.8745 23.1064 30.4378 21.9571 28.8582 21.0325C28.662 21.314 28.3464 21.7405 27.9199 22.312C27.4933 22.8835 27.2972 23.2247 27.0668 23.5915C27.0666 23.083 27.1531 22.5782 27.3227 22.0987C27.4559 21.6283 27.6886 21.1919 28.0052 20.8192C28.1804 20.6357 28.3375 20.4358 28.4743 20.2221C28.8035 20.2463 29.131 20.289 29.4553 20.35C30.1388 20.4539 30.8103 20.6254 31.4599 20.8619C32.0832 21.8204 32.9725 22.5764 34.019 23.0371C34.3414 23.1279 34.669 23.1991 35 23.2503C35.5628 23.7858 36.0481 24.3974 36.4416 25.0673C37.0581 26.1598 37.3758 27.3955 37.3628 28.65C37.2496 29.672 37.0059 30.6754 36.6378 31.6355C36.2524 32.6076 35.9943 33.6255 35.87 34.6638C35.87 35.0306 36.2368 35.5168 36.979 36.0713C37.3866 36.3835 37.8416 36.6283 38.3267 36.7963C38.5121 36.8526 38.7046 36.8813 38.8983 36.8816C40.2062 36.8816 42.3388 36.1992 45.296 34.8344C47.1343 33.9151 49.0642 33.1917 51.0539 32.6762ZM49.6037 24.1887C49.0175 24.4105 48.3965 24.5261 47.7697 24.5299C44.6135 24.5299 42.3104 24.1033 40.8602 23.2503C42.0898 22.865 43.1942 22.1582 44.0591 21.2031L44.4003 21.3737C44.7453 21.5378 45.1308 21.5971 45.5092 21.5443C46.047 21.3492 46.5298 21.0274 46.9167 20.606C47.3261 20.2113 47.823 19.919 48.3668 19.7529C48.2727 21.3281 48.7081 22.8895 49.6037 24.1887Z" fill="#A7C4E4"/>
<path fill-rule="evenodd" clip-rule="evenodd" d="M38.4287 1.20005C38.5054 1.15033 38.5935 1.12096 38.6846 1.11475H38.7273C38.9164 1.13125 39.1005 1.18496 39.2688 1.27279C39.4372 1.36062 39.5865 1.48085 39.7082 1.62657C39.7775 1.694 39.843 1.76519 39.9045 1.83982C40.0495 2.01043 40.2201 2.2322 40.4333 2.52223C40.3145 2.54973 40.1997 2.59276 40.0921 2.65019C40.0526 2.64862 40.0131 2.65541 39.9764 2.67011C39.9396 2.68481 39.9064 2.70708 39.8789 2.73549L39.623 2.83786L39.4097 2.9914L39.367 3.03405L38.9405 3.37525L38.3434 3.97238L37.7889 4.7401C37.7126 4.86018 37.6128 4.96363 37.4956 5.04425C37.3783 5.12486 37.246 5.18098 37.1065 5.20926H36.9359C36.8161 5.21683 36.6969 5.18702 36.5947 5.12396C36.567 5.11484 36.5371 5.11484 36.5094 5.12396C36.4335 5.06115 36.3715 4.98319 36.3274 4.89506C36.2834 4.80692 36.2582 4.71057 36.2535 4.61215C36.1933 3.84638 36.4215 3.08577 36.8933 2.47959L36.9359 2.43694V2.35163C37.2702 1.89145 37.7289 1.53631 38.2581 1.328L38.4287 1.20005ZM38.5567 22.3124C38.8126 22.3124 39.0685 22.3124 39.3244 22.3124C40.5444 22.2371 41.7289 21.8715 42.7791 21.2461C42.9845 21.1507 43.172 21.0209 43.3336 20.8622L43.6748 21.0329L44.0587 21.2461C43.1938 22.2013 42.0894 22.908 40.8598 23.2934C40.3003 23.4488 39.7301 23.5628 39.1538 23.6346C38.3742 23.7199 37.5876 23.7199 36.808 23.6346C36.2267 23.6092 35.6521 23.5 35.1019 23.3104C34.7709 23.2592 34.4433 23.188 34.1209 23.0972C33.0745 22.6365 32.1852 21.8805 31.5619 20.922C31.1845 20.1873 30.8843 19.4154 30.6662 18.6188C30.6698 18.5762 30.6698 18.5334 30.6662 18.4908L30.5382 18.0217L32.2869 16.4862C32.1655 16.6735 32.0653 16.8738 31.9884 17.0834C31.8865 17.328 31.8231 17.587 31.8007 17.8511C31.7653 18.5178 31.9512 19.1776 32.3296 19.7277C32.615 20.2454 33.0076 20.6961 33.4812 21.0499C33.9568 21.3986 34.4914 21.6587 35.0593 21.8176C36.2024 22.1154 37.3758 22.2814 38.5567 22.3124ZM39.35 60.3146C39.268 60.5078 39.2024 60.7076 39.1538 60.9117V60.8264C38.9232 60.6275 38.6811 60.4424 38.4287 60.272C36.3505 58.9059 34.562 57.1435 33.1656 55.0856C32.8828 54.6582 32.6319 54.2106 32.4149 53.7463L33.6944 54.642L34.266 55.0259C35.5199 55.8789 36.3815 56.4078 36.825 56.7319L37.8913 57.5849C37.9799 57.6702 38.0805 57.742 38.1899 57.7982C38.2558 57.8612 38.3272 57.9183 38.4031 57.9688L38.8296 58.3953L39.6827 59.2483C39.6617 59.2885 39.6474 59.3317 39.64 59.3763C39.5799 59.4353 39.5359 59.5087 39.5121 59.5896C39.4273 59.8091 39.37 60.0383 39.3415 60.272C39.3431 60.2864 39.3459 60.3007 39.35 60.3146ZM48.2385 55.8362L46.6604 56.7746C46.1759 56.6061 45.6758 56.486 45.1676 56.4163C44.9117 56.4163 44.6558 56.3566 44.3999 56.3481C44.1491 56.2789 43.8918 56.236 43.6322 56.2201H42.7365C42.2008 56.2232 41.6833 56.0254 41.2863 55.6656C41.1664 55.5735 41.0524 55.4738 40.9451 55.3671L40.7745 55.1965L40.6039 55.0429C40.4978 54.9442 40.3981 54.8388 40.3054 54.7273L40.2371 54.6591L40.0068 54.4714C39.2561 53.6184 38.4031 52.7056 37.4477 51.5882L37.3027 51.4005L35.0849 48.6708C34.5133 47.9287 34.0868 47.4084 33.8053 47.0927C35.1281 47.5155 36.5115 47.7172 37.8998 47.6899C38.8724 47.6928 39.8431 47.6071 40.8001 47.434L41.6531 47.2634C42.9757 46.9345 44.247 46.4265 45.432 45.7535C45.7732 45.5488 46.1145 45.327 46.4557 45.0881L46.9845 44.7043C47.3684 44.4057 47.7267 44.1157 48.0508 43.8513C48.375 43.5868 48.6565 43.2883 48.9038 42.9982C49.0869 42.8103 49.2579 42.6108 49.4157 42.4011C49.4754 42.5973 49.5266 42.8106 49.5863 43.0409C49.646 43.2712 49.663 43.3224 49.6972 43.4845C49.7995 43.911 49.9019 44.4313 50.0128 45.0626C50.0554 45.327 50.0981 45.6085 50.1407 45.9156C49.6024 46.0149 49.0801 46.1871 48.5882 46.4274C48.223 46.6077 47.8843 46.8373 47.5817 47.1098C46.7497 47.8757 46.1948 48.8955 46.0036 50.0101C45.927 50.41 45.8786 50.8147 45.8585 51.2214C45.8585 51.4517 45.8585 51.6906 45.8585 51.9294C46.1797 52.6592 46.5802 53.3515 47.0528 53.9937C47.1893 54.2326 47.3513 54.4799 47.522 54.7444C47.7693 55.1538 48.0082 55.5206 48.2385 55.8362ZM29.344 58.31C29.0804 57.7273 28.8525 57.1291 28.6616 56.5187C28.6616 56.5187 28.6616 56.4334 28.6189 56.3907C28.4483 55.7936 28.2948 55.1965 28.1498 54.5994C28.3289 55.2732 28.5166 55.9215 28.7298 56.5613C28.9431 57.2011 29.0796 57.7385 29.344 58.31Z" fill="#C51341"/>
<path fill-rule="evenodd" clip-rule="evenodd" d="M75.4069 45.4889L74.8525 46.5125L73.9995 48.0053L73.445 49.0545L72.592 50.7605L72.0546 51.7671L71.048 53.6182L70.775 54.13C70.6925 54.2886 70.5923 54.4374 70.4765 54.5736C70.1007 55.0527 69.655 55.4726 69.1543 55.819C68.8387 56.0493 68.4889 56.2796 68.088 56.5184H68.0027L66.4075 57.4568L65.2901 58.0965L65.1451 58.1818L55.6338 63.6839C55.5873 63.6809 55.5414 63.6962 55.5059 63.7265C55.1775 63.9216 54.8354 64.0926 54.4823 64.2383C53.996 64.3833 53.9022 64.1957 54.1837 63.6839L60.4108 52.0827C60.4348 52.0603 60.4499 52.0301 60.4534 51.9974C60.5408 51.8234 60.656 51.665 60.7946 51.5283C61.0781 51.1338 61.4238 50.7881 61.8183 50.5046C62.227 50.1614 62.6701 49.8613 63.1405 49.609L64.0361 49.0971L75.552 42.4435C76.9765 41.5905 77.4542 41.6332 77.0021 42.4862L75.4069 45.4889Z" fill="#595959"/>
<path fill-rule="evenodd" clip-rule="evenodd" d="M70.2893 98.8876L71.1423 100.193C71.5716 100.883 72.072 101.526 72.6351 102.112C73.3832 102.905 73.9507 103.851 74.2985 104.884C74.6334 105.917 74.7067 107.016 74.5117 108.083C74.3645 108.387 74.1423 108.648 73.8662 108.842C73.5901 109.036 73.2692 109.157 72.9336 109.192C72.2807 109.336 71.6005 109.291 70.9717 109.064C70.1405 108.83 69.3391 108.501 68.5832 108.083C68.3417 107.965 68.113 107.822 67.9008 107.657C68.1169 107.844 68.3728 108.058 68.6685 108.297C69.1187 108.654 69.4828 109.107 69.7338 109.624C69.9848 110.141 70.1164 110.708 70.1187 111.282C70.1502 111.541 70.1067 111.803 69.9933 112.037C69.8798 112.272 69.7012 112.469 69.4789 112.604C69.0374 112.915 68.5232 113.106 67.9861 113.159C66.8265 113.329 65.6483 113.329 64.4887 113.159C63.3188 113.006 62.1893 112.63 61.1619 112.05C60.4813 111.549 59.9743 110.848 59.7118 110.045C59.4828 109.231 59.2977 108.405 59.1573 107.571V108.808C58.7963 109.07 58.3658 109.218 57.9204 109.235C57.6959 109.254 57.4698 109.226 57.2568 109.153C57.0437 109.079 56.8484 108.962 56.6835 108.808C56.7669 107.38 56.6666 105.946 56.385 104.543C56.1443 103.227 55.764 101.94 55.2505 100.705L55.1481 100.449C54.9347 99.7906 54.9712 99.077 55.2505 98.4441C55.3511 98.2056 55.4739 97.9771 55.6172 97.7616C56.1908 96.964 56.8978 96.2714 57.7072 95.7144C57.539 96.1892 57.4246 96.6813 57.366 97.1816C57.3575 97.3322 57.3575 97.4831 57.366 97.6337C57.3604 98.3113 57.5061 98.9815 57.7925 99.5957C57.7909 99.6241 57.7909 99.6525 57.7925 99.681C58.1252 100.363 58.6455 101.506 59.2426 103.093C59.8397 104.68 60.3259 105.84 60.6927 106.633C60.9344 107.297 61.383 107.865 61.9723 108.254C62.2344 108.458 62.5402 108.599 62.8657 108.665C63.1912 108.732 63.5277 108.722 63.8489 108.638C64.5011 108.394 65.1178 108.064 65.6829 107.657C65.8263 107.576 65.9516 107.467 66.0514 107.336C66.1511 107.205 66.2232 107.055 66.2631 106.895C66.303 106.736 66.3099 106.57 66.2835 106.407C66.2571 106.245 66.1979 106.089 66.1095 105.951C66.4466 106.405 66.849 106.808 67.3037 107.145C67.371 107.235 67.4587 107.308 67.5596 107.358C67.2332 107.093 66.9708 106.758 66.7919 106.377C66.5074 105.546 66.3074 104.689 66.1948 103.818C66.0649 102.922 65.8652 102.038 65.5976 101.174C65.6009 101.504 65.5124 101.829 65.3417 102.112C65.188 102.329 64.9828 102.505 64.7446 102.624C64.686 102.458 64.6431 102.286 64.6167 102.112C64.4717 101.199 64.3778 100.517 64.3181 100.065C64.2381 99.5741 64.1241 99.0896 63.9769 98.6147C63.9087 98.4014 63.8404 98.2052 63.7636 98.0176C63.2918 96.7808 62.8874 95.5193 62.5523 94.2387C62.3391 93.4965 62.1514 92.7203 61.9723 91.9185C62.0871 91.8031 62.2161 91.7027 62.3562 91.6199C62.8169 91.3162 63.3431 91.1262 63.8916 91.0654C63.7305 91.2982 63.5446 91.5127 63.3371 91.7052C63.1551 91.918 63.0632 92.1934 63.0812 92.4729C63.112 92.9237 63.1776 93.3715 63.2774 93.8122C63.5281 94.9869 63.9057 96.131 64.4034 97.2243L65.1711 98.572L65.572 99.3824C65.973 100.295 66.2801 101.088 66.5104 101.686C66.826 102.479 67.0222 102.965 67.1075 103.136C67.2088 103.38 67.3596 103.601 67.5504 103.785C67.7413 103.968 67.968 104.11 68.2164 104.202C68.5842 104.258 68.9595 104.237 69.319 104.142C69.6785 104.047 70.0146 103.878 70.3063 103.648C70.6251 103.466 70.9031 103.221 71.1232 102.927C71.3433 102.634 71.5008 102.298 71.5859 101.941C71.4119 101.339 71.1534 100.765 70.8181 100.235C70.7649 100.187 70.7214 100.129 70.6902 100.065C70.4379 99.698 70.2235 99.3064 70.0504 98.8962C69.9678 98.6818 69.9105 98.4585 69.8798 98.2308L70.2893 98.8876Z" fill="#62598E"/>
<path fill-rule="evenodd" clip-rule="evenodd" d="M46.788 61.0383L45.807 60.4412C45.7557 60.3386 45.6988 60.2389 45.6365 60.1426C46.0325 60.2957 46.3843 60.5448 46.6601 60.8677C46.6601 60.8677 46.7027 60.9104 46.788 61.0383ZM48.2382 55.9202L52.8018 53.3185L56.9817 50.93L57.5788 50.5461L58.1332 50.2476C58.5855 50.0196 59.0639 49.8477 59.5578 49.7358C59.9119 49.6565 60.2824 49.7017 60.607 49.8637L61.8439 50.5888C61.4494 50.8722 61.1037 51.2179 60.8203 51.6124C60.6817 51.7491 60.5664 51.9076 60.4791 52.0816C60.4756 52.1142 60.4604 52.1445 60.4364 52.1669L54.2093 63.768C53.9278 64.2798 54.0217 64.4675 54.5079 64.3225C54.2259 64.4865 53.91 64.5833 53.5845 64.6055C53.2591 64.6277 52.9329 64.5746 52.6312 64.4504L49.0912 62.4458C48.9254 61.9805 48.6801 61.5476 48.3661 61.1663C47.8911 60.5804 47.4496 59.9681 47.0439 59.3323C47.6026 59.7199 48.0807 60.2124 48.4514 60.7824C48.8152 61.3237 49.3362 61.7405 49.9442 61.9767C50.0263 61.5749 49.9816 61.1576 49.8163 60.7824C49.8163 60.7824 49.6115 60.4156 49.2874 59.7588V59.7161L50.0551 59.2043C49.3432 58.4021 48.4903 57.7371 47.5387 57.2424L46.6857 56.8585L48.2382 55.9202ZM32.4146 45.7265L32.2013 45.5133V45.4706L32.0734 45.3427C31.5247 44.8264 31.089 44.2019 30.7938 43.5087C31.1198 43.3311 31.4333 43.1316 31.7322 42.9116C31.8652 43.5012 32.1525 44.0449 32.5647 44.487C32.9769 44.9292 33.4991 45.2539 34.078 45.428L34.2486 45.4877C35.364 45.8433 36.534 45.9965 37.7033 45.9398C39.8186 46.0517 41.932 45.6873 43.8877 44.8735C44.8688 44.5116 45.7609 43.9436 46.504 43.2079C47.2471 42.4722 47.8238 41.5858 48.1955 40.6084C48.7805 41.0747 49.2236 41.6951 49.4751 42.3997C49.3173 42.6094 49.1463 42.8089 48.9632 42.9969C48.7159 43.2698 48.4258 43.5428 48.1102 43.8499C47.7946 44.157 47.4278 44.4214 47.0439 44.7029L46.5151 45.0868C46.1739 45.3256 45.8326 45.5474 45.4914 45.7521C44.3064 46.4252 43.035 46.9331 41.7125 47.262L40.8595 47.4326C39.9025 47.6058 38.9318 47.6914 37.9592 47.6885C36.5709 47.7158 35.1875 47.5141 33.8647 47.0914C33.8142 47.0154 33.7571 46.9441 33.6941 46.8781L33.3955 46.5796L32.8411 46.1104L32.4146 45.7265Z" fill="#333333"/>
<path fill-rule="evenodd" clip-rule="evenodd" d="M92.6388 66.4556V67.7777L69.1379 81.2726C69.1379 80.8887 69.1379 80.5219 69.1379 80.1892C69.1976 79.7115 69.2317 78.8415 69.2403 77.5619L92.6388 64.1524V66.4556ZM69.2915 73.9366C69.3213 72.8142 69.4412 71.696 69.6497 70.5927C69.6924 70.4136 69.7265 70.2345 69.7606 70.0639L92.6388 56.9443V60.527L69.2915 73.9366ZM92.6814 71.3775V72.1879L68.9076 85.8363C68.9076 85.5207 68.9503 85.2306 68.9673 84.9832L92.6388 71.4457L92.6814 71.3775ZM61.4607 78.415L60.6077 78.9012C60.6077 77.724 60.693 76.6748 60.7783 75.7706C60.8326 75.7009 60.8758 75.6232 60.9062 75.5403L61.2901 77.8008C61.2901 77.9373 61.3583 78.0823 61.401 78.2273C61.4436 78.3723 61.4436 78.3552 61.4607 78.4405V78.415ZM63.0218 84.77L60.9745 85.9386C60.8892 85.3671 60.7954 84.7444 60.693 84.0876C60.5906 83.4307 60.693 82.936 60.6503 82.4668L62.1687 81.6138C62.1687 81.7673 62.237 81.9123 62.2711 82.0659C62.4332 82.6801 62.6805 83.5843 63.0218 84.7956V84.77ZM63.8236 88.8048L61.6569 90.0587C61.6114 89.8199 61.5688 89.5554 61.529 89.2654L63.7212 88.0115C63.7667 88.2958 63.8008 88.5688 63.8236 88.8304V88.8048ZM53.1267 83.2175L43.0354 89.001L42.9927 85.3756L52.6746 79.831C52.666 79.9446 52.666 80.0586 52.6746 80.1722C52.7332 81.1988 52.8845 82.2181 53.1267 83.2175ZM56.6411 92.0889L56.897 92.8311L43.1634 100.747V99.8088L56.6411 92.0889ZM55.5066 89.1033L43.1207 96.2261V92.5581L54.2953 86.1604C54.7474 87.2694 55.1739 88.2503 55.5066 89.1033Z" fill="#F4F9FF"/>
<path fill-rule="evenodd" clip-rule="evenodd" d="M93.8752 55.1362L91.9132 56.2622L69.9479 68.8443C70.0749 67.7961 70.0749 66.7364 69.9479 65.6881C69.9479 65.5261 69.9478 65.3725 69.8881 65.219L94.8561 50.8882L94.6856 54.215L94.6429 54.7268L93.8752 55.1362ZM52.6741 78.7394L42.054 84.8385L41.8407 84.9665L42.0966 81.1705L51.5225 75.7538C52.0429 75.8306 52.5461 75.8818 53.0324 75.9244C53.0291 75.9528 53.0291 75.9814 53.0324 76.0097C52.8407 76.9087 52.7209 77.8215 52.6741 78.7394Z" fill="#D8EAFF"/>
<path fill-rule="evenodd" clip-rule="evenodd" d="M39.8793 2.73476C39.9068 2.70635 39.94 2.68408 39.9768 2.66938C40.0135 2.65468 40.053 2.64789 40.0925 2.64946C40.2001 2.59203 40.3149 2.549 40.4337 2.5215C41.1898 2.21252 42.003 2.06794 42.8192 2.09736C43.6355 2.12677 44.4361 2.32952 45.168 2.69212C46.6591 3.38109 47.9507 4.4378 48.9213 5.763C49.3191 6.23013 49.6894 6.72002 50.0302 7.2302C50.1838 7.47758 50.3117 7.69083 50.4141 7.89556C50.8854 8.66126 51.0949 9.55942 51.0112 10.4546V10.5399V10.5826C49.3825 11.6534 47.4983 12.2716 45.5519 12.3739C44.554 12.3156 43.5839 12.0234 42.7198 11.5209C42.2262 11.2643 41.7477 10.9795 41.2867 10.6679L39.9645 9.72957C39.3427 8.7612 39.003 7.63873 38.9836 6.48807C39.0876 5.90627 39.2447 5.33521 39.4527 4.78202C39.794 3.8437 39.9645 3.34894 39.9645 3.28923C39.9538 3.10211 39.9253 2.91644 39.8793 2.73476ZM37.3202 5.16588C37.269 5.27677 37.2178 5.37913 37.1752 5.4815C36.8491 6.15613 36.6662 6.8909 36.6378 7.63965C36.6378 7.63965 36.996 9.2348 37.704 12.3313C37.8491 12.7322 38.0026 13.1161 38.1732 13.4829C38.0443 13.4862 37.9159 13.5005 37.7893 13.5255V14.1226C37.1292 14.12 36.4926 13.8774 35.998 13.4402C35.5338 12.9874 35.1578 12.4523 34.8891 11.8621C34.7577 11.6587 34.6436 11.4447 34.5479 11.2224C34.6663 11.0125 34.739 10.7799 34.7611 10.5399C34.6819 9.72773 34.725 8.90822 34.8891 8.10881C35.2381 7.0774 35.7571 6.11157 36.4245 5.25119C36.4474 5.20239 36.4866 5.16315 36.5354 5.14029C36.5631 5.13118 36.593 5.13118 36.6207 5.14029C36.7229 5.20335 36.8421 5.23316 36.9619 5.2256H37.1325C37.1842 5.21502 37.2334 5.19476 37.2775 5.16588H37.3202ZM38.4718 1.19932C38.3822 0.986142 38.2253 0.808162 38.0251 0.69262C37.8248 0.577078 37.5922 0.530339 37.3628 0.559556C36.3646 0.712367 35.4396 1.17485 34.7185 1.88173C34.2383 2.2812 33.7957 2.72378 33.3963 3.20392C31.6723 5.30014 30.777 7.95579 30.8798 10.6679V11.5209C30.696 11.4943 30.5092 11.4943 30.3254 11.5209C30.3046 10.9133 30.2042 10.3111 30.0268 9.72957C29.7709 8.87654 29.5832 8.29648 29.4723 7.89556C29.3112 7.31301 29.2534 6.70671 29.3017 6.10421C29.3866 5.50663 29.6378 4.94496 30.0268 4.48346C30.0865 4.37257 30.223 3.94605 30.4533 3.20392C30.576 2.7763 30.7948 2.38241 31.0931 2.05235L31.2211 1.88173C31.9883 1.07391 32.9863 0.522776 34.0787 0.303647C35.2299 0.0755662 36.4028 -0.0245665 37.5761 0.00508292C37.7266 -0.00449294 37.8769 0.025993 38.0117 0.0934233C38.1466 0.160854 38.2612 0.262816 38.3438 0.388941C38.5321 0.602584 38.7032 0.830769 38.8556 1.07136L38.7277 1.11402C38.6219 1.11245 38.5181 1.14213 38.4291 1.19932H38.4718Z" fill="#713D22"/>
<path fill-rule="evenodd" clip-rule="evenodd" d="M34.5048 11.1799V11.0519L34.1636 10.2842C34.1601 10.2516 34.145 10.2213 34.121 10.1989V10.071C33.4059 10.4064 32.7782 10.9027 32.287 11.5211C31.9681 11.6134 31.6317 11.628 31.306 11.5638L30.9221 11.5211H30.8368V10.6681C30.734 7.95598 31.6293 5.30034 33.3532 3.20412C33.7527 2.72397 34.1953 2.2814 34.6754 1.88193C35.3966 1.17505 36.3216 0.712561 37.3198 0.55975C37.5492 0.530532 37.7818 0.577272 37.9821 0.692814C38.1823 0.808356 38.3392 0.986336 38.4287 1.19952H38.3434L38.2581 1.28481C37.7289 1.49312 37.2702 1.84826 36.9359 2.30844V2.39375L36.8933 2.4364C36.4215 3.04258 36.1934 3.80319 36.2535 4.56896C36.2582 4.66738 36.2834 4.76373 36.3275 4.85187C36.3715 4.94 36.4335 5.01796 36.5094 5.08077C36.4606 5.10362 36.4214 5.14287 36.3985 5.19167C35.7312 6.05205 35.2122 7.01789 34.8631 8.0493C34.699 8.84871 34.6559 9.6682 34.7352 10.4804C34.7102 10.7276 34.6316 10.9663 34.5048 11.1799ZM37.2772 5.16608C37.3895 5.13917 37.4942 5.08669 37.583 5.01271C37.6718 4.93873 37.7422 4.84525 37.789 4.73956L38.3434 3.97185L38.9406 3.37472L39.3671 3.03352L39.4097 2.99086L39.623 2.83732L39.8789 2.73495C39.908 2.90399 39.9223 3.07525 39.9215 3.24677C39.9215 3.30648 39.7509 3.80124 39.4097 4.73956C39.2016 5.29275 39.0446 5.86381 38.9406 6.44561C38.96 7.59627 39.2997 8.71874 39.9215 9.68711L41.2437 10.6254C41.7047 10.937 42.1831 11.2218 42.6768 11.4784C43.5408 11.981 44.511 12.2732 45.5089 12.3315C47.4553 12.2292 49.3395 11.6109 50.9682 10.5401C50.946 10.9724 50.8295 11.3945 50.627 11.777L49.0915 13.2272C47.9889 13.7557 46.8077 14.1014 45.5941 14.2508L45.5515 14.3787C45.1188 14.9424 44.5232 15.3593 43.8454 15.573C43.1989 15.7259 42.5437 15.8398 41.8835 15.9142C41.8009 15.9414 41.7146 15.9557 41.6276 15.9568L41.4143 15.8715C41.1356 15.741 40.8883 15.5518 40.6892 15.3171C40.4333 15.0356 40.2372 14.8053 40.0921 14.6346L39.8789 14.4214C39.639 14.12 39.3507 13.8606 39.0259 13.6537H38.9661C38.7206 13.5317 38.4457 13.4815 38.1728 13.5087C38.0022 13.1418 37.8487 12.758 37.7037 12.3571C36.9957 9.26058 36.6374 7.69102 36.6374 7.66543C36.6658 6.91669 36.8488 6.18192 37.1748 5.50728C37.1748 5.37933 37.226 5.27697 37.2772 5.16608Z" fill="#452312"/>
<path fill-rule="evenodd" clip-rule="evenodd" d="M48.3663 19.753C47.8225 19.9191 47.3256 20.2114 46.9162 20.6061C46.5293 21.0275 46.0465 21.3493 45.5087 21.5444C45.1303 21.5972 44.7448 21.5379 44.3998 21.3738L43.6747 20.9899L43.3335 20.8193C41.9984 20.1502 40.832 19.1879 39.9214 18.0043C38.9886 16.9023 38.271 15.6349 37.8059 14.2681L37.7462 14.0804V13.526C37.8727 13.5009 38.0011 13.4867 38.13 13.4833C38.4029 13.4561 38.6778 13.5064 38.9233 13.6283H38.9831C39.3079 13.8353 39.5962 14.0947 39.8361 14.396L40.0493 14.6093C40.1944 14.7799 40.3906 15.0102 40.6465 15.2917C40.8455 15.5265 41.0928 15.7156 41.3715 15.8462L41.5848 15.9315C41.6718 15.9304 41.7581 15.916 41.8407 15.8888C42.1119 15.9986 42.4012 16.0565 42.6937 16.0594C45.2947 16.1248 47.8537 15.3958 50.0297 13.9695C50.3709 13.7392 50.6866 13.5174 50.9681 13.2871C50.9597 13.3722 50.9597 13.4579 50.9681 13.543C50.7658 14.5858 50.2441 15.5397 49.4753 16.2727C49.3478 16.3765 49.2438 16.5063 49.1703 16.6534C49.0968 16.8004 49.0553 16.9614 49.0488 17.1257C49.0282 17.367 49.0282 17.6095 49.0488 17.8508C49.0488 17.9446 49.0488 18.0385 49.0488 18.1493C49.0915 18.4645 49.0623 18.7853 48.9634 19.0877C48.9526 19.2494 48.8879 19.4027 48.7796 19.5233C48.6714 19.6439 48.5259 19.7248 48.3663 19.753ZM35.3151 27.7715C34.5932 28.1556 33.9321 28.6442 33.3531 29.2216C30.3675 32.2072 28.8747 36.2164 28.8747 41.2492C28.8747 41.2492 28.9771 41.5904 29.1733 42.162C29.2927 42.5288 29.4463 43.015 29.6425 43.5524C29.89 44.115 30.2725 44.6079 30.7561 44.9874C31.2397 45.3668 31.8094 45.6211 32.4148 45.7276L32.7986 46.1115L33.3531 46.5806L33.6517 46.8792C33.7147 46.9451 33.7718 47.0165 33.8223 47.0924C34.1038 47.4081 34.5303 47.9455 35.1018 48.6705L37.3197 51.4002L37.4647 51.5879C38.403 52.7053 39.256 53.6607 40.0238 54.4711L40.2541 54.6588L40.3223 54.727C40.4012 54.8319 40.4867 54.9316 40.5782 55.0256H40.6209L40.7915 55.1791L40.9621 55.3497C41.0693 55.4564 41.1833 55.5561 41.3033 55.6483C41.7003 56.008 42.2177 56.2059 42.7534 56.2028H43.6491C43.9087 56.2187 44.1661 56.2616 44.4168 56.3307C44.6727 56.3307 44.9286 56.3307 45.1846 56.3989C45.6928 56.4687 46.1928 56.5887 46.6773 56.7572L47.5304 57.1411C48.482 57.6358 49.3349 58.3008 50.0468 59.103L49.2791 59.6148V59.6575C49.6032 60.3143 49.7823 60.6555 49.8079 60.6811C49.9733 61.0563 50.018 61.4736 49.9359 61.8754C49.3279 61.6392 48.8069 61.2224 48.4431 60.6811C48.0724 60.1111 47.5943 59.6186 47.0356 59.231C47.4413 59.8668 47.8828 60.4791 48.3578 61.065C48.6718 61.4463 48.9171 61.8792 49.0829 62.3445C49.179 62.3947 49.2594 62.4704 49.3153 62.5634C49.3711 62.6564 49.4002 62.763 49.3992 62.8714C49.3983 62.9799 49.3674 63.0859 49.31 63.178C49.2526 63.27 49.1709 63.3443 49.0739 63.3928C48.9769 63.4413 48.8684 63.4621 48.7603 63.4528C48.6523 63.4435 48.5489 63.4046 48.4615 63.3403C48.3742 63.2759 48.3064 63.1887 48.2655 63.0883C48.2246 62.9878 48.2123 62.8781 48.2299 62.771C47.921 62.5056 47.6612 62.188 47.4621 61.8327C47.1806 61.4318 46.9674 61.1503 46.8223 60.9797C46.6773 60.8091 46.6944 60.8347 46.6944 60.8091C46.4186 60.4862 46.0669 60.237 45.6708 60.084C45.7331 60.1803 45.7901 60.28 45.8414 60.3826C45.9221 60.5241 46.0226 60.6534 46.1399 60.7664L46.3106 60.9797C46.5106 61.2057 46.7243 61.4194 46.9503 61.6194C47.0081 61.6437 47.0541 61.6896 47.0783 61.7474C47.4563 62.1035 47.748 62.5411 47.9313 63.0269C47.9622 63.1086 47.9766 63.1956 47.9739 63.2829L48.0166 63.6241C47.1764 63.3161 46.4178 62.8201 45.7987 62.1739C45.2314 61.4785 44.4764 60.9604 43.6235 60.6811C43.8065 60.987 44.0209 61.2729 44.2633 61.5342C44.3486 61.5939 44.6301 61.8157 45.1163 62.2166C45.6876 62.6419 46.1064 63.2403 46.3106 63.9226C45.6854 63.8751 45.0899 63.6369 44.6045 63.2402C43.9818 62.7028 43.5126 62.3019 43.197 62.046C42.8814 61.7901 42.344 61.3465 41.4057 60.6385C40.9322 60.2923 40.4766 59.9222 40.0408 59.5295C39.8715 59.5025 39.7004 59.4882 39.529 59.4869C39.5528 59.4061 39.5968 59.3327 39.657 59.2736C39.6643 59.229 39.6787 59.1858 39.6996 59.1457L38.8466 58.2927L38.4201 57.8661C38.3441 57.8157 38.2727 57.7586 38.2068 57.6955C38.0974 57.6394 37.9969 57.5675 37.9082 57.4823L36.842 56.6293C36.3728 56.3051 35.5113 55.7762 34.2829 54.9232L33.7114 54.5394L32.4318 53.6437C31.6897 53.1575 31.0841 52.7309 30.5978 52.3641C29.6094 51.5805 28.7212 50.678 27.9535 49.6771C27.8937 49.5918 27.7573 49.4383 27.5525 49.208C27.3478 48.9776 26.8701 48.4573 26.3327 47.8858C25.7796 47.3253 25.2666 46.7267 24.7973 46.0944C24.7096 45.6306 24.6725 45.1587 24.6864 44.6869C24.7025 43.8412 24.7968 42.9989 24.9679 42.1705C25.1129 41.3175 25.2409 40.6607 25.3517 40.2085C25.4626 39.4408 25.5394 38.8011 25.565 38.2892C25.7699 37.1762 25.8981 36.0504 25.9489 34.9198C26.0598 33.3246 26.1792 32.2072 26.2901 31.5503C26.3438 31.3032 26.378 31.0522 26.3924 30.7997C26.4431 30.3837 26.4659 29.9648 26.4607 29.5457C26.4607 28.633 26.4607 27.9506 26.5033 27.4985C26.4465 26.1363 26.6491 24.7758 27.1004 23.4893C27.3308 23.1225 27.6122 22.696 27.9535 22.2097C28.2947 21.7235 28.6956 21.2117 28.8918 20.9302C30.4714 21.8548 31.9081 23.0042 33.1569 24.3423L33.2849 24.4703C33.2849 24.4703 33.2849 24.53 33.3702 24.5556C33.3903 24.6032 33.4192 24.6466 33.4555 24.6835C33.8513 25.146 34.2133 25.6363 34.5388 26.1507C34.8426 26.6682 35.1023 27.2104 35.3151 27.7715ZM58.2188 42.9297C58.6112 43.8851 59.0718 44.994 59.6092 46.2565C59.6092 46.3844 59.703 46.5039 59.7542 46.6233C60.5443 47.2217 61.4035 47.7229 62.3133 48.1161L62.4242 48.1587C63.0105 48.4382 63.5802 48.7515 64.1302 49.0971L63.2346 49.6089C62.7642 49.8612 62.3211 50.1613 61.9123 50.5045L60.6755 49.7795C60.3508 49.6175 59.9803 49.5723 59.6263 49.6515C59.1323 49.7635 58.6539 49.9354 58.2017 50.1633L57.6472 50.4619L57.0501 50.8458C56.7685 50.3624 56.594 49.8243 56.5383 49.2677C56.5106 49.2049 56.4905 49.139 56.4786 49.0715C56.4322 48.9406 56.3951 48.8066 56.3677 48.6705C56.3415 48.6173 56.327 48.5592 56.3251 48.4999L56.2824 48.4573C56.203 48.1779 56.1459 47.8927 56.1118 47.6043C56.088 47.5401 56.068 47.4746 56.0521 47.4081C55.658 46.3786 55.1697 45.3878 54.5934 44.4481C54.5715 44.4211 54.5516 44.3926 54.5337 44.3628C54.1242 43.723 53.5783 42.9638 52.8874 42.0767C52.8162 41.9675 52.7393 41.8621 52.657 41.761C52.3602 40.6409 52.1464 39.5005 52.0173 38.3489C52.0443 37.1946 52.2163 36.0483 52.5291 34.9369C52.6826 34.3653 52.8703 33.7597 53.0835 33.1284C53.2286 32.7872 53.3565 32.4631 53.4674 32.1475C53.7574 32.7105 54.0475 33.2905 54.3204 33.8962C55.0029 35.3122 55.7109 36.8476 56.4274 38.5025C56.5042 38.6816 56.8625 39.5261 57.4937 41.0616L58.2188 42.9297ZM59.1997 66.9253C59.7812 67.5525 60.2958 68.2386 60.7352 68.9725C60.9526 69.2951 61.1383 69.6379 61.2897 69.9962C61.5236 70.7551 61.6246 71.5487 61.5882 72.342C61.5882 72.632 61.5456 72.922 61.5029 73.195C61.4603 73.468 61.4347 73.5533 61.4005 73.7324C61.3067 74.1504 61.1958 74.5854 61.0508 75.029C61.0082 75.174 60.957 75.3275 60.9058 75.4811C60.8827 75.5879 60.8392 75.6892 60.7778 75.7797C60.6925 76.6839 60.6328 77.7331 60.6072 78.9102V79.9595C60.6072 80.1557 60.6072 80.9916 60.6499 82.5185C60.6499 82.9877 60.6499 83.5251 60.6925 84.1393C60.7352 84.7535 60.8887 85.4188 60.974 85.9903C61.1873 87.3211 61.3664 88.43 61.5285 89.3171C61.5683 89.6072 61.611 89.8716 61.6565 90.1105C61.7247 90.537 61.7844 90.8952 61.8441 91.1767C61.9038 91.4582 61.955 91.6459 62.0147 91.9018C62.1938 92.7036 62.3815 93.4799 62.5948 94.222C62.9299 95.5027 63.3342 96.7641 63.8061 98.0009C63.8828 98.1886 63.9511 98.3848 64.0193 98.598C64.1665 99.0729 64.2805 99.5575 64.3605 100.048C64.4202 100.5 64.5141 101.183 64.6591 102.095C64.6856 102.27 64.7284 102.441 64.787 102.607C64.9352 103.599 65.268 104.553 65.768 105.422H65.7254C64.7273 106.275 64.1046 106.744 63.8487 106.744C62.3389 106.744 61.1788 105.763 60.3513 103.801C59.7542 101.584 59.3874 100.279 59.2424 99.8776C59.1827 99.6984 59.1315 99.5193 59.0718 99.3402C58.7476 98.3336 58.4491 97.4721 58.1761 96.7811C58.0311 96.3972 57.8861 96.056 57.7496 95.7575C57.5193 94.8533 57.2292 93.9064 56.8966 92.9169L56.6407 92.1748C56.3933 91.4668 56.1288 90.7417 55.8303 89.9996C55.7365 89.7437 55.6256 89.4707 55.5062 89.1466C55.1735 88.2935 54.747 87.3125 54.2522 86.2036C53.9878 85.615 53.7063 84.9838 53.3992 84.3269C53.2968 83.9772 53.203 83.6275 53.1262 83.2777C52.884 82.2783 52.7327 81.2591 52.6741 80.2324C52.6656 80.1189 52.6656 80.0048 52.6741 79.8912C52.6741 79.5244 52.6741 79.1491 52.6741 78.7823C52.7152 77.8648 52.8293 76.952 53.0153 76.0526C53.0121 76.0243 53.0121 75.9957 53.0153 75.9673C53.143 75.5064 53.354 75.0727 53.638 74.6878C53.9492 74.2955 54.181 73.8464 54.3204 73.3656C53.0047 72.453 51.6051 71.6675 50.1406 71.0198C49.7425 70.8492 49.1454 70.5506 48.3493 70.1241C48.3898 69.2883 48.5185 68.4591 48.7331 67.6503C49.2749 67.2675 49.9069 67.0324 50.5671 66.9679C52.5291 66.6011 53.6124 66.3964 53.8086 66.3708C54.1754 66.2599 54.5337 66.1575 54.8749 66.0722L55.7279 65.731C56.1967 65.5267 56.6403 65.2691 57.0501 64.9633L57.1354 65.0486C57.8696 65.6215 58.5597 66.2488 59.1997 66.9253Z" fill="#FFAA83"/>
<path fill-rule="evenodd" clip-rule="evenodd" d="M43.3335 20.8182C43.1718 20.9768 42.9843 21.1066 42.779 21.202C41.7287 21.8274 40.5443 22.193 39.3242 22.2683C39.0683 22.2683 38.8124 22.2683 38.5565 22.2683C38.5501 22.2259 38.5501 22.1827 38.5565 22.1403C38.6343 21.877 38.6774 21.6045 38.6845 21.33C38.6784 20.4245 38.4593 19.5332 38.0447 18.7282C37.7546 18.0272 37.2543 17.4334 36.6127 17.0285C35.971 16.6237 35.2196 16.4277 34.462 16.4677C34.2402 16.4677 34.0184 16.4677 33.7966 16.4677C33.1608 16.5213 32.5367 16.6709 31.9456 16.9113C31.899 16.9083 31.8531 16.9236 31.8176 16.954C31.8946 16.7444 31.9947 16.5441 32.1162 16.3568C33.5407 15.3076 34.8032 14.2925 35.9121 13.3286C36.4067 13.7658 37.0434 14.0084 37.7035 14.011L37.7632 14.1987C38.2283 15.5655 38.9459 16.8329 39.8787 17.9349C40.7938 19.1484 41.9759 20.1349 43.3335 20.8182ZM57.0671 64.9195L55.5317 63.7253C55.5672 63.6949 55.6131 63.6796 55.6597 63.6826L65.1709 58.1806C65.3096 58.3428 65.4379 58.5138 65.5547 58.6924C65.916 59.205 66.3151 59.6898 66.749 60.1426C66.5584 60.3325 66.3432 60.496 66.1092 60.6288C66.0557 60.6707 65.9986 60.7077 65.9386 60.7397C65.6291 60.9238 65.3427 61.1443 65.0856 61.3965C64.6555 61.8397 64.3292 62.3729 64.1302 62.9576C63.9924 63.3347 63.9008 63.7271 63.8572 64.1262C63.8081 64.4451 63.7853 64.7675 63.789 65.0901C63.7932 65.2683 63.8161 65.4455 63.8572 65.619C63.8572 65.8408 63.9681 66.1052 64.0449 66.4123C64.1968 66.8249 64.2971 67.2546 64.3434 67.6918C64.3434 67.6918 64.2837 68.1781 64.1728 69.0311C64.0619 69.8841 63.9255 70.9419 63.7293 72.4432C63.6781 72.81 63.6354 73.2109 63.5757 73.6289C63.2726 75.3478 62.539 76.9619 61.4432 78.3205C61.4198 78.2796 61.3998 78.2368 61.3834 78.1926C61.3408 78.0475 61.3067 77.9025 61.2725 77.7661L60.9058 75.5397C60.9569 75.3861 61.0081 75.2326 61.0508 75.0876C61.1958 74.644 61.3067 74.2345 61.4005 73.791C61.4005 73.6118 61.4773 73.4327 61.5029 73.2536C61.5285 73.0744 61.5711 72.6735 61.5882 72.4005C61.6245 71.6072 61.5235 70.8136 61.2896 70.0547C61.5157 69.4374 61.8165 68.8502 62.1853 68.306C62.1853 67.8539 61.8612 67.5212 61.2896 67.325C60.827 67.1427 60.3364 67.0417 59.8395 67.0265C59.6264 67.0126 59.4127 67.0126 59.1997 67.0265C58.5667 66.3359 57.8823 65.6943 57.1525 65.1072L57.0671 64.9195ZM56.9818 50.8446L52.802 53.2331C52.8349 53.1638 52.8634 53.0926 52.8873 53.0198C53.2555 52.3698 53.6839 51.7558 54.1669 51.1858C54.4103 50.8853 54.6724 50.6004 54.9516 50.3328C55.4086 49.9074 55.9191 49.5432 56.47 49.2494C56.5233 49.8119 56.6979 50.3562 56.9818 50.8446ZM63.934 91.022C63.9581 90.3242 63.9296 89.6256 63.8487 88.9321C64.0937 89.3055 64.2941 89.7063 64.4458 90.1264C64.4458 90.1889 64.4884 90.8713 64.5737 92.1736C64.5737 92.4807 64.6249 92.7537 64.6591 93.0266C64.6914 93.394 64.7484 93.7588 64.8297 94.1185C65.2695 95.4652 65.8409 96.7652 66.5357 97.9998C66.6381 98.1704 66.749 98.3666 66.8769 98.5713C67.3717 99.4243 68.0541 100.562 68.9242 101.983C69.6472 101.513 70.2704 100.904 70.7582 100.192C71.0935 100.722 71.352 101.296 71.5259 101.898C71.4408 102.255 71.2833 102.59 71.0632 102.884C70.8431 103.177 70.5651 103.423 70.2464 103.604C69.9547 103.835 69.6186 104.003 69.2591 104.099C68.8995 104.194 68.5242 104.214 68.1565 104.159C67.9081 104.067 67.6813 103.925 67.4905 103.741C67.2996 103.558 67.1488 103.337 67.0475 103.092C66.9622 102.922 66.766 102.436 66.4504 101.642C66.2201 101.019 65.913 100.252 65.5121 99.339L65.1709 98.5713L64.4629 97.2065C63.9651 96.1132 63.5876 94.9691 63.3369 93.7944C63.237 93.3537 63.1714 92.9059 63.1407 92.4551C63.1227 92.1756 63.2145 91.9002 63.3966 91.6874C63.5996 91.486 63.7798 91.2629 63.934 91.022Z" fill="#CE7C56"/>
<path fill-rule="evenodd" clip-rule="evenodd" d="M68.9071 85.9054C68.9071 86.221 68.8644 86.5622 68.8389 86.929C68.7706 88.2768 68.7536 89.4881 68.7962 90.6141C68.837 91.6389 68.951 92.6594 69.1374 93.6679C69.1971 94.2053 69.3251 94.9474 69.5213 95.8858C69.6919 96.9691 69.8028 97.7368 69.8625 98.1889C69.8932 98.4166 69.9505 98.6399 70.0331 98.8543C70.2062 99.2645 70.4206 99.6561 70.6729 100.023C70.7041 100.088 70.7475 100.145 70.8008 100.194C70.3131 100.905 69.6899 101.514 68.9668 101.985C68.0967 100.546 67.4143 99.4088 66.9196 98.5728C66.7916 98.3681 66.6807 98.1719 66.5783 98.0013C65.8836 96.7667 65.3121 95.4667 64.8723 94.12C64.7911 93.7603 64.7341 93.3955 64.7017 93.0281C64.7017 92.7808 64.6335 92.5078 64.6164 92.1751C64.5311 90.8728 64.4885 90.1904 64.4885 90.1279C64.3368 89.7078 64.1363 89.307 63.8913 88.9336C63.899 88.8999 63.899 88.8649 63.8913 88.8312C63.8913 88.5696 63.8572 88.3052 63.789 88.0379C63.6354 87.1252 63.4222 86.1357 63.1492 85.0524C63.1492 84.967 63.1065 84.8818 63.0895 84.7965C62.7483 83.5852 62.5009 82.6809 62.3388 82.0668C62.3388 81.9132 62.262 81.7682 62.2365 81.6147C62.0282 80.7706 61.8631 79.9165 61.7417 79.0556C61.6735 78.8423 61.5967 78.6291 61.5285 78.4158C61.5285 78.3305 61.5285 78.2452 61.4687 78.1599C61.4851 78.2042 61.5051 78.2469 61.5285 78.2879C62.6243 76.9293 63.3579 75.3152 63.661 73.5962C63.7207 73.1783 63.7634 72.7432 63.8146 72.4105C64.0108 70.9433 64.1558 69.8515 64.2581 68.9984C64.3605 68.1454 64.4287 67.7018 64.4287 67.6592C64.3824 67.222 64.2821 66.7922 64.1302 66.3797C64.0534 66.0726 63.9852 65.8081 63.9425 65.5863C63.9014 65.4129 63.8785 65.2357 63.8743 65.0575C63.8706 64.7348 63.8934 64.4124 63.9425 64.0936C63.9861 63.6944 64.0777 63.302 64.2155 62.9249C64.4145 62.3403 64.7408 61.8071 65.1709 61.3639C65.428 61.1117 65.7144 60.8912 66.0239 60.707C66.0839 60.6751 66.141 60.638 66.1945 60.5961C66.4285 60.4634 66.6437 60.2999 66.8343 60.1099C67.2346 60.5087 67.6622 60.8793 68.1138 61.2189C69.1505 62.3072 69.8164 63.6956 70.016 65.1854C70.016 65.339 70.0587 65.4925 70.0757 65.6546C70.2028 66.7028 70.2028 67.7625 70.0757 68.8108C70.0246 69.2117 69.9649 69.6126 69.8881 70.0306C69.8881 70.2012 69.8198 70.3803 69.7772 70.5595C69.5686 71.6627 69.4488 72.7809 69.4189 73.9033C69.4189 74.3583 69.4189 74.836 69.4189 75.3364C69.4189 76.1894 69.4189 76.8974 69.4189 77.5287C69.4189 78.8082 69.4189 79.6783 69.3165 80.156C69.3165 80.4887 69.3165 80.8555 69.3165 81.2393C69.3165 81.9132 69.3166 82.6809 69.2313 83.5254C69.2313 83.9093 69.1886 84.3785 69.146 84.9926C68.9498 85.2997 68.9327 85.5898 68.9071 85.9054ZM50.9936 13.313C50.7121 13.5433 50.3965 13.7651 50.0553 13.9955C47.8793 15.4217 45.3202 16.1508 42.7193 16.0854C42.4268 16.0824 42.1374 16.0245 41.8662 15.9148C42.5265 15.8404 43.1816 15.7264 43.8282 15.5735C44.5059 15.3599 45.1016 14.943 45.5343 14.3793L45.5769 14.2513C46.7905 14.102 47.9717 13.7563 49.0743 13.2277L50.6097 11.7776C50.837 11.3874 50.9685 10.9489 50.9936 10.498C51.0203 10.6099 51.0346 10.7243 51.0362 10.8393C51.1283 11.6618 51.1197 12.4925 51.0107 13.313H50.9936ZM49.5861 17.5781C49.7994 19.5913 49.9444 20.8026 50.0126 21.2035C50.1821 22.5723 50.4529 23.9267 50.823 25.2554C50.8635 25.3054 50.8926 25.3636 50.9083 25.426C50.968 25.6222 51.0363 25.8354 51.1216 26.0657L50.9936 25.9378L50.8657 25.7672L50.7377 25.6392C50.5671 25.443 50.3965 25.2554 50.2259 25.0848L49.842 24.5303C49.7407 24.4295 49.6546 24.3146 49.5861 24.1891C48.6905 22.8899 48.2551 21.3285 48.3492 19.7534C48.4986 19.7287 48.6366 19.6578 48.7437 19.5507C48.8508 19.4436 48.9217 19.3057 48.9464 19.1562C49.0453 18.8539 49.0744 18.5331 49.0316 18.2179C49.0316 18.107 49.0316 18.0132 49.0316 17.9194C49.0111 17.6781 49.0111 17.4355 49.0316 17.1943C49.0382 17.03 49.0796 16.869 49.1532 16.7219C49.2267 16.5749 49.3307 16.4451 49.4581 16.3413C49.5207 16.7735 49.5691 17.1858 49.6032 17.5781H49.5861ZM38.5565 22.3124C37.3304 22.2718 36.1134 22.0857 34.9312 21.758C34.3633 21.599 33.8287 21.3389 33.3531 20.9902C32.8795 20.6365 32.4869 20.1857 32.2015 19.6681C31.8231 19.1179 31.6372 18.4582 31.6726 17.7914C31.695 17.5273 31.7583 17.2683 31.8603 17.0237C31.8957 16.9933 31.9417 16.978 31.9882 16.981C32.5793 16.7406 33.2034 16.591 33.8393 16.5375C34.0611 16.5375 34.2829 16.5375 34.5046 16.5375C35.2623 16.4975 36.0137 16.6934 36.6553 17.0982C37.297 17.5031 37.7973 18.0969 38.0873 18.798C38.5019 19.603 38.7211 20.4943 38.7271 21.3997C38.72 21.6742 38.677 21.9467 38.5992 22.2101C38.5806 22.2422 38.5662 22.2766 38.5565 22.3124ZM48.3663 70.0818C47.9654 69.8515 47.5133 69.5956 46.9162 69.3141C46.8884 69.3232 46.8585 69.3232 46.8308 69.3141C46.7641 69.2645 46.6927 69.2216 46.6176 69.1861C45.2783 68.5037 44.2121 68.0089 43.4187 67.6933L41.798 66.9256C41.2656 66.672 40.7646 66.3571 40.3052 65.9873C39.5867 65.0534 39.1701 63.9226 39.111 62.7458V62.3193C39.111 62.2596 39.111 62.234 39.111 62.234C39.0826 61.9775 39.097 61.718 39.1536 61.4662V61.398C39.157 61.0422 39.2235 60.6899 39.3498 60.3573C39.345 60.3291 39.345 60.3002 39.3498 60.272C39.3784 60.0384 39.4357 59.8092 39.5204 59.5896C39.6919 59.5909 39.863 59.6052 40.0322 59.6322C40.468 60.0249 40.9236 60.395 41.3971 60.7412C42.3354 61.452 42.9325 61.9212 43.1884 62.1487C43.5041 62.4046 43.9732 62.8055 44.5959 63.3429C45.0813 63.7396 45.6768 63.9778 46.302 64.0253C46.0978 63.3429 45.679 62.7446 45.1077 62.3193C44.6215 61.9183 44.34 61.6966 44.2547 61.6368C44.0123 61.3755 43.7979 61.0897 43.615 60.7838C44.4679 61.0631 45.2228 61.5812 45.7902 62.2766C46.4092 62.9228 47.1678 63.4188 48.008 63.7267L47.9654 63.3855C47.9681 63.2983 47.9536 63.2113 47.9227 63.1296C47.7394 62.6438 47.4477 62.2061 47.0697 61.8501C47.0455 61.7923 46.9995 61.7464 46.9417 61.7221C46.7157 61.5221 46.502 61.3084 46.302 61.0824L46.1314 60.8691C46.014 60.7561 45.9135 60.6268 45.8328 60.4853L46.8138 61.0824C46.9588 61.253 47.1721 61.5345 47.4536 61.9354C47.6526 62.2907 47.9124 62.6083 48.2213 62.8737C48.2037 62.9807 48.2161 63.0905 48.2569 63.191C48.2978 63.2914 48.3657 63.3786 48.453 63.443C48.5403 63.5073 48.6437 63.5462 48.7517 63.5555C48.8598 63.5648 48.9683 63.544 49.0653 63.4955C49.1623 63.447 49.244 63.3727 49.3014 63.2807C49.3588 63.1887 49.3897 63.0826 49.3906 62.9741C49.3916 62.8657 49.3625 62.7591 49.3067 62.6661C49.2509 62.5731 49.1705 62.4974 49.0743 62.4472L52.6143 64.4518C52.916 64.576 53.2422 64.6291 53.5676 64.6069C53.8931 64.5847 54.209 64.4879 54.491 64.3239C54.8441 64.1782 55.1862 64.0071 55.5146 63.8121L57.0501 65.0063C56.6403 65.3121 56.1966 65.5697 55.7279 65.774L54.8749 66.1152C54.5336 66.2005 54.1754 66.3029 53.8086 66.4138C53.6124 66.4138 52.529 66.6441 50.5671 67.0109C49.9069 67.0753 49.2748 67.3105 48.7331 67.6933C48.53 68.475 48.4071 69.2752 48.3663 70.0818ZM30.7513 43.5101C31.0465 44.2033 31.4822 44.8278 32.0309 45.3441L32.1588 45.472V45.5147L32.3721 45.7279C31.7667 45.6214 31.197 45.3671 30.7134 44.9877C30.2298 44.6083 29.8473 44.1154 29.5998 43.5527C29.4036 42.9897 29.25 42.5291 29.1306 42.1623C28.9344 41.5908 28.832 41.3093 28.832 41.2496C28.832 36.2167 30.3248 32.2075 33.3104 29.2219C33.9024 28.6411 34.5781 28.1523 35.315 27.7718L35.5709 28.3689V28.4969C35.6306 28.6419 35.6818 28.7954 35.7415 28.966V29.094C35.8736 29.4711 35.869 29.8826 35.7287 30.2568C35.5884 30.6309 35.3213 30.9439 34.9738 31.1412C34.289 31.6265 33.4672 31.8806 32.628 31.8663C32.2584 33.7145 31.8745 36.103 31.4764 39.0317C31.4764 39.2705 31.3058 39.953 31.0499 41.0619C31.0499 41.1216 31.0499 41.1899 31.0072 41.2496C30.8189 41.9878 30.7328 42.7484 30.7513 43.5101ZM49.0914 36.9418C48.7929 36.4308 48.5224 35.904 48.281 35.3637C48.6052 34.9521 48.9618 34.567 49.3473 34.2121C49.6032 33.9562 50.0041 33.5979 50.5415 33.1458C50.7121 32.9752 50.8827 32.8217 51.0533 32.6767C51.3945 32.307 51.6931 31.9658 51.949 31.653L52.5034 30.6721L53.1859 31.8663C53.2477 31.9856 53.319 32.0997 53.3991 32.2075C53.2882 32.5231 53.1603 32.8473 53.0153 33.1885C52.802 33.8197 52.6144 34.4254 52.4608 34.9969C52.148 36.1083 51.976 37.2547 51.949 38.409C52.0781 39.5605 52.2919 40.701 52.5888 41.8211L52.5034 41.7358L52.2902 41.4799C51.1813 40.007 50.4562 39.026 50.115 38.5369C49.7738 38.0479 49.4326 37.5162 49.0914 36.9418ZM65.768 105.397C65.8789 105.568 66.0068 105.755 66.1518 105.951C66.2403 106.09 66.2995 106.246 66.3259 106.408C66.3523 106.57 66.3454 106.737 66.3055 106.896C66.2655 107.056 66.1935 107.206 66.0938 107.337C65.994 107.467 65.8687 107.577 65.7253 107.657C65.1602 108.064 64.5435 108.394 63.8913 108.638C63.5701 108.723 63.2336 108.733 62.9081 108.666C62.5826 108.6 62.2768 108.459 62.0147 108.255C61.4254 107.866 60.9768 107.297 60.7351 106.634C60.3683 105.841 59.8821 104.655 59.285 103.094C58.6879 101.533 58.1675 100.364 57.8349 99.6817C57.8333 99.6533 57.8333 99.6248 57.8349 99.5964C57.5485 98.9823 57.4028 98.312 57.4083 97.6345C57.3999 97.4839 57.3999 97.3329 57.4083 97.1824C57.467 96.6821 57.5814 96.1899 57.7495 95.7151C57.886 96.0137 58.031 96.3549 58.1761 96.7388C58.449 97.4468 58.7476 98.3084 59.0717 99.2979C59.1315 99.477 59.1826 99.6561 59.2423 99.8353C59.3873 100.236 59.7542 101.541 60.3513 103.759C61.2043 105.721 62.3388 106.702 63.8487 106.702C64.1046 106.702 64.7017 106.259 65.7253 105.38L65.768 105.397Z" fill="#ED9870"/>
<path fill-rule="evenodd" clip-rule="evenodd" d="M68.7964 90.6126C68.7537 89.5036 68.7964 88.2753 68.839 86.9275C68.839 86.5607 68.8902 86.2195 68.9073 85.9039L92.6811 72.2555V71.4451L92.6384 67.8197V66.4976L100 70.7627C99.5527 71.5777 99.187 72.4349 98.9081 73.3218L68.7964 90.6126ZM55.293 100.661C55.8065 101.897 56.1869 103.184 56.4275 104.5C56.7092 105.903 56.8095 107.336 56.7261 108.765C56.891 108.919 57.0863 109.036 57.2993 109.109C57.5124 109.183 57.7384 109.211 57.963 109.191C58.404 109.187 58.8341 109.054 59.1999 108.808V107.613C59.3403 108.447 59.5253 109.273 59.7543 110.087C60.0169 110.89 60.5239 111.591 61.2045 112.092C62.2318 112.672 63.3614 113.048 64.5313 113.201C65.6908 113.371 66.8691 113.371 68.0287 113.201C68.5657 113.148 69.08 112.957 69.5215 112.646C69.7438 112.51 69.9224 112.314 70.0358 112.079C70.1493 111.845 70.1928 111.583 70.1612 111.324C70.1589 110.749 70.0274 110.183 69.7764 109.666C69.5254 109.149 69.1613 108.695 68.7111 108.338C68.4154 108.1 68.1595 107.886 67.9434 107.699C68.1556 107.864 68.3843 108.007 68.6258 108.125C69.3816 108.543 70.1831 108.872 71.0143 109.106C71.643 109.333 72.3233 109.378 72.9762 109.234C73.3118 109.198 73.6327 109.078 73.9088 108.884C74.1849 108.69 74.407 108.429 74.5543 108.125C74.7492 107.058 74.676 105.958 74.341 104.926C73.9933 103.893 73.4258 102.947 72.6776 102.154C72.1145 101.568 71.6142 100.925 71.1848 100.235L70.3318 98.9296C72.6438 99.285 74.879 100.029 76.9428 101.13C80.2468 102.979 81.896 105.253 81.8903 107.955C81.8846 110.656 80.2923 113.016 77.1134 115.035C73.537 117.15 69.4539 118.255 65.299 118.233C61.169 118.473 57.0526 117.573 53.3993 115.632C50.0953 113.84 48.4319 111.566 48.4091 108.808C48.3864 106.049 49.9929 103.704 53.2287 101.77C53.8935 101.359 54.5829 100.988 55.293 100.661ZM6.18442 78.6958V79.6768L43.163 100.746L56.8967 92.8304C57.2294 93.8199 57.5194 94.7668 57.7497 95.671C56.9404 96.228 56.2334 96.9206 55.6598 97.7182C55.5164 97.9337 55.3936 98.1622 55.293 98.4007L43.9734 104.926L14.1175 87.7123L0 79.5488L6.18442 75.9832V78.6958ZM63.8745 88.9321C63.9554 89.6256 63.9839 90.3242 63.9597 91.022C63.4113 91.0828 62.8851 91.2728 62.4243 91.5765C62.2842 91.6593 62.1552 91.7596 62.0404 91.875C61.9807 91.6191 61.9296 91.3803 61.8698 91.15C61.8101 90.9196 61.7504 90.5102 61.6822 90.0837L63.8489 88.8297C63.8565 88.8634 63.8565 88.8984 63.8489 88.9321H63.8745ZM66.1776 105.95C66.0326 105.754 65.9046 105.566 65.7938 105.395C65.2937 104.527 64.9609 103.572 64.8128 102.58C65.051 102.462 65.2561 102.286 65.4099 102.069C65.5805 101.786 65.6691 101.461 65.6658 101.13C65.9333 101.995 66.133 102.879 66.2629 103.775C66.3755 104.646 66.5756 105.503 66.86 106.334C67.039 106.714 67.3014 107.05 67.6278 107.315C67.5269 107.265 67.4392 107.192 67.3718 107.102C66.9111 106.779 66.5001 106.391 66.152 105.95H66.1776Z" fill="#CBDFFF"/>
<path d="M70.4171 43.5517L71.526 42.9119L60.6073 36.1304L59.4984 36.7701L70.4171 43.5517Z" fill="#A9CBF3"/>
<path d="M69.1802 55.7755C68.8646 56.0058 68.5149 56.2361 68.1139 56.475L72.7629 59.3753L73.9145 58.6929L69.1802 55.7755Z" fill="#A9CBF3"/>
<path d="M71.0313 60.3136L66.4079 57.456L65.2904 58.0957L69.9223 60.9534L71.0313 60.3136Z" fill="#A9CBF3"/>
<path d="M74.0168 48.0045L73.4624 49.0537L81.7367 54.2145L82.8883 53.5321L74.0168 48.0045Z" fill="#A9CBF3"/>
<path d="M79.9198 55.2381L72.6094 50.7597L72.0719 51.7663L78.8108 55.9205L79.9198 55.2381Z" fill="#A9CBF3"/>
<path d="M85.763 51.9113L75.3987 45.5307L74.8443 46.5799L84.6541 52.5511L85.763 51.9113Z" fill="#A9CBF3"/>
<path d="M76.7209 57.1148L71.0654 53.6174L70.7924 54.1292C70.7099 54.2878 70.6097 54.4366 70.4938 54.5727L75.612 57.7545L76.7209 57.1148Z" fill="#A9CBF3"/>
<path d="M57.4426 41.1376L58.2103 42.9716L64.5653 46.8955L65.7169 46.2558L57.4426 41.1376Z" fill="#A9CBF3"/>
<path d="M67.5509 45.2577L68.7025 44.5753L57.7838 37.7938L56.6322 38.4335L67.5509 45.2577Z" fill="#A9CBF3"/>
<path d="M50.4478 41.9309L54.5167 44.49L54.5252 44.4474C54.5004 44.4207 54.4776 44.3921 54.457 44.362C54.0476 43.7223 53.5016 42.929 52.8107 42.076L51.5567 41.2912L50.4478 41.9309Z" fill="#A9CBF3"/>
<path d="M50.0213 45.1298L51.4117 45.9828L51.4202 45.9401C52.0112 46.0704 52.5862 46.2649 53.1348 46.5202L54.5423 47.2026C55.0245 47.4044 55.5242 47.5615 56.0351 47.6718C56.0113 47.6076 55.9913 47.5421 55.9754 47.4756L49.7057 43.5517C49.808 43.9782 49.9104 44.4985 50.0213 45.1298Z" fill="#A9CBF3"/>
<path d="M59.6293 46.3162L59.6007 46.2984L59.6093 46.2558C59.6158 46.2754 59.6225 46.2956 59.6293 46.3162L62.5181 48.1154L62.3731 48.2007L62.2622 48.158C61.3524 47.7648 60.4932 47.2636 59.7031 46.6652C59.7031 46.5569 59.6664 46.4302 59.6293 46.3162Z" fill="#A9CBF3"/>
<path d="M60.7523 69.0145C60.9697 69.337 61.1554 69.6798 61.3068 70.0381L61.2897 69.9954C61.5212 69.3773 61.8277 68.79 62.2025 68.2467C62.1598 67.7946 61.8783 67.4619 61.3068 67.2658C60.8442 67.0835 60.3536 66.9824 59.8566 66.9672C59.6436 66.9533 59.4299 66.9533 59.2169 66.9672C59.7984 67.5944 60.313 68.2806 60.7523 69.0145Z" fill="#A9CBF3"/>
<path fill-rule="evenodd" clip-rule="evenodd" d="M42.1397 81.1704L8.44525 60.2713L19.2531 54.0698L27.5359 49.3099C27.7407 49.5402 27.8771 49.6938 27.9369 49.7791V49.8644C27.7667 51.3557 27.8097 52.8636 28.0648 54.3427C28.0889 54.4115 28.1032 54.4833 28.1075 54.556C28.2525 55.1531 28.406 55.7502 28.5766 56.3474C28.5766 56.3474 28.5766 56.4327 28.6193 56.4753L26.9132 55.409L25.8043 56.0488L28.7216 57.8828C28.4153 58.4609 28.1886 59.0779 28.0477 59.7168L23.885 57.1151L22.8187 57.7548L27.8089 60.8855C27.7325 61.56 27.7325 62.2411 27.8089 62.9156L18.7498 57.2857L17.6409 57.9681L28.1586 64.4767C28.7308 66.0795 29.7416 67.4893 31.076 68.5456C33.3962 70.5076 36.9931 72.1909 41.8667 73.5955L44.7244 75.3698L45.876 74.73L45.62 74.5765C46.6181 74.8068 47.6588 75.0286 48.7336 75.2418C49.8084 75.4551 50.6699 75.6001 51.5486 75.711L42.1397 81.1704ZM40.3483 54.7266C40.4411 54.8381 40.5408 54.9435 40.6469 55.0422H40.6043C40.4975 54.9441 40.3977 54.8387 40.3057 54.7266H40.3483ZM55.9843 47.3906L49.7146 43.4667C49.7146 43.3046 49.6378 43.1596 49.6037 43.0231C49.5695 42.8866 49.4928 42.5796 49.4331 42.3834C49.1816 41.6788 48.7385 41.0583 48.1535 40.592V37.4529L49.0918 36.924C49.3932 37.4187 49.7345 37.9306 50.1155 38.4594C50.4965 38.9883 51.2216 39.975 52.2907 41.4194L52.5039 41.6753L52.5892 41.7606C52.6715 41.8617 52.7484 41.9671 52.8196 42.0763L51.5656 41.2915L50.4567 41.9313L54.5256 44.4903C55.0986 45.4109 55.5869 46.3817 55.9843 47.3906ZM59.6096 46.239C59.0722 44.9765 58.6116 43.8676 58.2192 42.9122L64.5742 46.8617L65.7258 46.222L57.4515 41.1038C56.8203 39.594 56.462 38.7495 56.3852 38.5447C55.6687 36.8899 54.9607 35.3544 54.2782 33.9384L61.2474 29.9292L76.7554 39.5684L82.428 43.1084L83.7673 43.9614L84.7483 44.5842L87.8618 46.5376L88.8001 47.1176L93.9609 50.3335L94.8993 50.9136L69.9312 65.2444C69.7315 63.7546 69.0657 62.3662 68.029 61.2778C67.5773 60.9382 67.1498 60.5677 66.7495 60.1689C66.3156 59.7161 65.9164 59.2314 65.5552 58.7188C65.4383 58.5401 65.3101 58.3692 65.1714 58.2069L65.3164 58.1216L69.9483 60.9793L71.0572 60.3395L66.4338 57.4819L68.029 56.5435H68.1143L72.7633 59.4438L73.9149 58.7614L69.1806 55.8441C69.6813 55.4977 70.127 55.0778 70.5028 54.5987L75.6209 57.7804L76.7298 57.1407L71.0743 53.6433L72.0809 51.7922L78.8197 55.9208L79.9287 55.2384L72.6183 50.76L73.4713 49.054L81.7456 54.2148L82.8972 53.5324L74.0257 48.0048L74.8788 46.512L84.6886 52.4832L85.7975 51.8434L75.4076 45.4884L77.0284 42.4857C77.4805 41.6327 77.0284 41.6327 75.5783 42.4431L64.0624 49.0967C63.5124 48.7511 62.9428 48.4378 62.3564 48.1583L62.5014 48.073L59.6096 46.239ZM71.552 42.8952L60.6333 36.1136L59.5243 36.7534L70.443 43.5349L71.552 42.8952ZM68.737 44.5159L57.8183 37.6917L56.6667 38.3315L67.5854 45.1557L68.737 44.5159ZM51.4462 45.9234C51.0303 45.8424 50.6041 45.828 50.1837 45.8807C50.1837 45.5907 50.0984 45.3092 50.0558 45.0277L51.4462 45.9234Z" fill="white"/>
<g clip-path="url(#clip0)">
<path fill-rule="evenodd" clip-rule="evenodd" d="M38.9413 60.7858V61.2976C38.8988 61.5517 38.8988 61.8111 38.9413 62.0653C38.9413 62.0653 38.9413 62.0653 38.9413 62.1506V62.5771C39.002 63.7536 39.4184 64.8839 40.1355 65.8186C40.597 66.1855 41.0976 66.5002 41.6283 66.7569L43.249 67.5246C42.8044 67.8885 42.2771 68.1375 41.7136 68.2497C41.4213 68.3091 41.1202 68.3103 40.8274 68.2532C40.5347 68.1961 40.2561 68.0819 40.0075 67.917C38.3569 67.3974 36.8116 66.5887 35.4439 65.5286C34.067 64.4585 32.7698 63.2896 31.5626 62.0312C31.3795 61.8432 31.2085 61.6437 31.0508 61.4341V61.3914C31.0499 61.375 31.0457 61.359 31.0383 61.3443C31.031 61.3296 31.0207 61.3166 31.0081 61.3061C31.0005 61.2782 31.0005 61.2487 31.0081 61.2208C30.9878 61.1819 30.9571 61.1494 30.9195 61.1269C30.8818 61.1043 30.8387 61.0925 30.7949 61.0928H30.7522C30.7458 61.0504 30.7458 61.0073 30.7522 60.9649C30.1327 60.0895 29.5904 59.1619 29.1315 58.1926C28.9097 57.621 28.705 57.041 28.5173 56.4439C28.3296 55.8467 28.0737 55.1217 27.8946 54.4734V54.4307C27.9043 54.36 27.9043 54.2882 27.8946 54.2175C27.6253 52.7404 27.5679 51.2324 27.724 49.7391V49.6538C28.4959 50.651 29.3836 51.553 30.3684 52.3408C30.8546 52.7076 31.4602 53.1341 32.2024 53.6204C32.4213 54.0836 32.6722 54.5311 32.953 54.9596C34.3519 57.0155 36.1399 58.7775 38.2162 60.146C38.4705 60.3136 38.7128 60.4989 38.9413 60.7005V60.7858ZM52.8025 53.3623L48.1109 55.9213C47.8806 55.6057 47.5568 54.9852 47.3009 54.5587C47.1303 54.2942 46.9682 54.0383 46.8317 53.808C46.3612 53.1645 45.9608 52.4724 45.6375 51.7437C45.6375 51.4963 45.6375 51.266 45.6375 51.0357C45.6639 50.6292 45.7152 50.2246 45.791 49.8244C45.9822 48.7098 46.5371 47.69 47.3691 46.9241C47.6696 46.6488 48.0087 46.4189 48.3757 46.2417C48.8734 46.0029 49.4015 45.8335 49.9453 45.7384C50.3602 45.6673 50.7843 45.6673 51.1992 45.7384C51.7848 45.8467 52.3568 46.0183 52.9053 46.2502L54.3127 46.9326C54.8034 47.1462 55.3113 47.3175 55.8311 47.4445C55.8661 47.7327 55.9231 48.0179 56.0017 48.2975C55.9909 48.3538 55.9909 48.4117 56.0017 48.4681C56.0292 48.6042 56.0662 48.7382 56.1126 48.869C56.1126 49.073 56.1885 49.4603 56.2146 49.5237C55.6618 49.8145 55.3899 49.9486 54.9351 50.3767C54.6538 50.6422 54.3233 50.9273 54.0821 51.2297C53.5972 51.7982 53.1687 52.2845 52.8025 52.9358C52.8093 53.0266 52.8093 53.2714 52.8025 53.3623Z" fill="#941A3A"/>
</g>
<g clip-path="url(#clip1)">
<path fill-rule="evenodd" clip-rule="evenodd" d="M8.5732 60.1865L42.225 81.0856L41.9691 84.9242L35.3155 80.7871L8.48789 64.3237V62.8309L8.5732 60.1865ZM6.31268 75.0291L43.1207 96.1841L43.2486 96.1415L43.2913 99.7242L43.1207 99.8095L6.31268 78.6118V75.0291ZM6.35533 71.2758V67.7358H6.39799L43.1207 88.9334H43.1633V92.4735L43.078 92.5588L6.39799 71.4038V71.3611L6.35533 71.2758Z" fill="#A9CBF3"/>
</g>
<defs>
<clipPath id="clip0">
<rect x="27.6383" y="45.6851" width="28.636" height="22.554" fill="white"/>
</clipPath>
<clipPath id="clip1">
<rect x="6.31268" y="60.1865" width="36.9786" height="39.623" fill="white"/>
</clipPath>
</defs>
</svg>
