<svg id="Слой_1" data-name="Слой 1" xmlns="http://www.w3.org/2000/svg" viewBox="0 0 26 26"><defs><style>.cls-1{fill:#2d2d2d;}</style></defs><path class="cls-1" d="M15.86,13l9.73-9.72a1.46,1.46,0,0,0,.41-1,1.43,1.43,0,0,0-.41-1L24.73.42a1.38,1.38,0,0,0-1-.42,1.42,1.42,0,0,0-1,.42L13,10.14,3.28.42a1.42,1.42,0,0,0-1-.42,1.4,1.4,0,0,0-1,.42l-.85.85a1.41,1.41,0,0,0,0,2L10.14,13,.42,22.72a1.42,1.42,0,0,0-.42,1,1.38,1.38,0,0,0,.42,1l.85.86a1.43,1.43,0,0,0,1,.41,1.46,1.46,0,0,0,1-.41L13,15.86l9.72,9.73a1.46,1.46,0,0,0,1,.41,1.41,1.41,0,0,0,1-.41l.86-.86a1.41,1.41,0,0,0,.41-1,1.46,1.46,0,0,0-.41-1Z"/></svg>