<svg id="Слой_1" xmlns="http://www.w3.org/2000/svg" viewBox="0 0 31 31">
    <title>facebook</title>
    <path class="cls-1"
          d="M26.82,0H4.18A4.18,4.18,0,0,0,0,4.18V26.82A4.18,4.18,0,0,0,4.18,31H15.35V19.92H12.49a.67.67,0,0,1-.68-.67l0-3.58a.69.69,0,0,1,.68-.68h2.88V11.54c0-4,2.44-6.18,6-6.18h2.93A.67.67,0,0,1,25,6v3a.68.68,0,0,1-.68.68H22.5c-1.95,0-2.32.92-2.32,2.28v3h4.27a.68.68,0,0,1,.67.76l-.42,3.57a.68.68,0,0,1-.68.6H20.2l0,11.08h6.64A4.18,4.18,0,0,0,31,26.82V4.18A4.18,4.18,0,0,0,26.82,0Z"/>
</svg>