<svg width="31" height="31" viewBox="0 0 31 31" fill="none" xmlns="http://www.w3.org/2000/svg">
<path d="M21.7649 0H9.23507C4.14283 0 0 4.14283 0 9.23507V21.7649C0 26.8572 4.14283 31 9.23507 31H21.7649C26.8572 31 31 26.8572 31 21.7649V9.23507C30.9999 4.14283 26.8571 0 21.7649 0ZM27.8814 21.7649C27.8814 25.1429 25.1429 27.8814 21.7649 27.8814H9.23507C5.85706 27.8814 3.1186 25.1429 3.1186 21.7649V9.23507C3.1186 5.85701 5.85706 3.1186 9.23507 3.1186H21.7649C25.1429 3.1186 27.8814 5.85701 27.8814 9.23507V21.7649Z" fill="#EEEEEE"/>
<path d="M15.5 7.48242C11.079 7.48242 7.4823 11.0792 7.4823 15.5001C7.4823 19.921 11.079 23.5178 15.5 23.5178C19.921 23.5178 23.5177 19.921 23.5177 15.5001C23.5177 11.0791 19.921 7.48242 15.5 7.48242ZM15.5 20.3992C12.7943 20.3992 10.6009 18.2058 10.6009 15.5001C10.6009 12.7944 12.7943 10.601 15.5 10.601C18.2057 10.601 20.3991 12.7944 20.3991 15.5001C20.3991 18.2058 18.2057 20.3992 15.5 20.3992Z" fill="#EEEEEE"/>
<path d="M23.5332 9.46351C24.5943 9.46351 25.4544 8.60335 25.4544 7.5423C25.4544 6.48125 24.5943 5.62109 23.5332 5.62109C22.4722 5.62109 21.612 6.48125 21.612 7.5423C21.612 8.60335 22.4722 9.46351 23.5332 9.46351Z" fill="#EEEEEE"/>
</svg>
