<svg id="Слой_1" xmlns="http://www.w3.org/2000/svg" viewBox="0 0 16.28 16.28"><defs><style>.cls-1{fill:#2d2d2d;}</style></defs><title>phone</title><path class="cls-1" d="M12.3,10.72a1.12,1.12,0,0,0-1.69,0L9.42,11.91A.23.23,0,0,1,9.1,12c-.26-.14-.53-.26-.78-.41a12.08,12.08,0,0,1-3-2.7A6.93,6.93,0,0,1,4.3,7.16a.23.23,0,0,1,.06-.31L5.53,5.68A1.13,1.13,0,0,0,5.53,4L4.6,3l-1-1a1.14,1.14,0,0,0-1.7,0c-.4.39-.78.79-1.19,1.18a2,2,0,0,0-.6,1.3A5.7,5.7,0,0,0,.57,6.92a14.38,14.38,0,0,0,2.57,4.26,15.9,15.9,0,0,0,5.24,4.11,7.57,7.57,0,0,0,2.91.84,2.15,2.15,0,0,0,1.83-.69c.34-.38.72-.73,1.08-1.09a1.14,1.14,0,0,0,0-1.73Z"/><path class="cls-1" d="M11.67,8.07l1.22-.21A5.5,5.5,0,0,0,8.23,3.33L8.06,4.57a4.28,4.28,0,0,1,3.61,3.5Z"/><path class="cls-1" d="M13.59,2.73A9,9,0,0,0,8.39.14L8.22,1.37a7.91,7.91,0,0,1,6.69,6.48l1.23-.2A9.19,9.19,0,0,0,13.59,2.73Z"/></svg>