<svg width="169" height="49" viewBox="0 0 169 49" fill="none" xmlns="http://www.w3.org/2000/svg">
<path d="M72.1264 18.036H64.9275L63.0486 22.1247H60.2921L68.6441 4.23096L76.6836 22.1247H73.9272L72.1264 18.036ZM71.0927 15.6471L68.6027 9.92297L65.9841 15.6471H71.0927Z" fill="#1D1D1B"/>
<path d="M83.5655 5.2876V19.7404H88.5133V22.1247H81.0204V5.2876H83.5655Z" fill="#1D1D1B"/>
<path d="M95.6984 5.2876H93.1579V22.1247H95.6984V5.2876Z" fill="#1D1D1B"/>
<path d="M111.874 18.036H104.661L102.787 22.1247H100.031L108.383 4.23096L116.422 22.1247H113.638L111.874 18.036ZM110.836 15.6471L108.337 9.92297L105.723 15.6471H110.836Z" fill="#1D1D1B"/>
<path d="M120.759 22.1251V4.14404L133.039 16.989V5.28796H135.579V23.1542L123.299 10.3368V22.1251H120.759Z" fill="#1D1D1B"/>
<path d="M146.495 7.6765V22.1247H143.954V7.6765H140.081V5.2876H150.358V7.6765H146.495Z" fill="#1D1D1B"/>
<path d="M163.837 18.036H156.624L154.75 22.1247H151.994L160.332 4.23096L168.367 22.1247H165.61L163.837 18.036ZM162.799 15.6471L160.3 9.92297L157.686 15.6471H162.799Z" fill="#1D1D1B"/>
<path d="M21.6012 13.8329L19.9335 10.0658H29.0619L27.3988 13.8329H29.1997L31.5886 8.4165H17.4068L19.8003 13.8329H21.6012Z" fill="url(#paint0_linear)"/>
<path d="M27.3988 35.167L29.0619 38.9341H19.9335L21.6012 35.167H19.8003L17.4068 40.5788H31.5886L29.1997 35.167H27.3988Z" fill="url(#paint1_linear)"/>
<path d="M8.41628 31.5885L13.8326 29.1996V27.3988L10.0655 29.0618V19.9335L13.8326 21.6011V19.8002L8.41628 17.4067V31.5885Z" fill="url(#paint2_linear)"/>
<path d="M35.1673 21.6011L38.9345 19.9335V29.0618L35.1673 27.3988V29.1996L40.5791 31.5885V17.4067L35.1673 19.8002V21.6011Z" fill="url(#paint3_linear)"/>
<path d="M30.486 17.3469L31.6529 18.5092L34.6436 15.5185C35.3787 14.788 34.5839 13.249 34.5839 13.249L30.486 17.3469Z" fill="url(#paint4_linear)"/>
<path d="M17.3471 18.5092L18.5094 17.3469L14.4161 13.249C14.4161 13.249 13.6213 14.788 14.3518 15.5185L17.3471 18.5092Z" fill="url(#paint5_linear)"/>
<path d="M31.6529 30.4907L30.486 31.653L34.5839 35.7509C34.5839 35.7509 35.3787 34.2119 34.6436 33.4814L31.6529 30.4907Z" fill="url(#paint6_linear)"/>
<path d="M17.3471 30.4907L14.3518 33.4814C13.6213 34.2119 14.4161 35.7509 14.4161 35.7509L18.5094 31.653L17.3471 30.4907Z" fill="url(#paint7_linear)"/>
<path d="M24.5 0C19.6543 0 14.9175 1.4369 10.8885 4.12899C6.85951 6.82109 3.71929 10.6475 1.86494 15.1243C0.0105926 19.601 -0.474589 24.5272 0.470749 29.2797C1.41609 34.0322 3.74948 38.3977 7.17587 41.8241C10.6023 45.2505 14.9677 47.5839 19.7203 48.5292C24.4728 49.4746 29.3989 48.9894 33.8757 47.135C38.3525 45.2807 42.1789 42.1405 44.871 38.1115C47.5631 34.0825 49 29.3456 49 24.5C48.9927 18.0044 46.4091 11.777 41.816 7.18394C37.223 2.59088 30.9955 0.00729566 24.5 0V0ZM24.5 47.3691C19.9769 47.3691 15.5554 46.0279 11.7946 43.515C8.03378 41.0021 5.10259 37.4304 3.37168 33.2516C1.64077 29.0728 1.18788 24.4746 2.07029 20.0385C2.9527 15.6023 5.13078 11.5274 8.32908 8.32909C11.5274 5.13079 15.6023 2.95272 20.0384 2.07031C24.4746 1.1879 29.0728 1.64078 33.2516 3.37169C37.4304 5.1026 41.0021 8.03379 43.515 11.7946C46.0278 15.5554 47.3691 19.9769 47.3691 24.5C47.363 30.5634 44.9516 36.3767 40.6642 40.6642C36.3767 44.9517 30.5634 47.363 24.5 47.3691Z" fill="url(#paint8_linear)"/>
<path d="M28.7265 20.5448L29.9164 19.4285C28.7356 18.1671 27.1517 17.3575 25.4378 17.1391C23.7239 16.9207 21.9875 17.3073 20.5282 18.2323C19.0689 19.1572 17.9781 20.5624 17.444 22.2055C16.9099 23.8486 16.9661 25.6266 17.6027 27.2328C18.2393 28.839 19.4165 30.1726 20.9313 31.0037C22.446 31.8347 24.2033 32.1111 25.9 31.7851C27.5967 31.459 29.1265 30.5511 30.2253 29.2178C31.3242 27.8846 31.9233 26.2096 31.9194 24.4819V23.6871H27.6102L25.2672 18.7669C26.5925 18.9376 27.8163 19.5666 28.7265 20.5448ZM23.7282 18.7669L19.566 27.4956C19.0676 26.6756 18.7812 25.7444 18.7327 24.7861C18.6842 23.8278 18.875 22.8725 19.288 22.0063C19.701 21.1402 20.3232 20.3905 21.0984 19.825C21.8735 19.2595 22.7773 18.8958 23.7282 18.7669ZM20.7237 28.8738L22.4189 25.3134H26.5811L28.2763 28.883C27.2276 29.7907 25.887 30.2903 24.5 30.2903C23.113 30.2903 21.7724 29.7907 20.7237 28.883V28.8738ZM30.2333 25.3088C30.1202 26.0914 29.8465 26.8422 29.4294 27.514L28.382 25.3088H30.2333ZM23.1953 23.6871L24.5 20.9307L25.8047 23.6871H23.1953Z" fill="url(#paint9_linear)"/>
<path d="M61.8311 44.7138V32.5166H62.9383V43.6755H67.1189V44.7138H61.8311Z" fill="#1D1D1B"/>
<path d="M81.9438 38.6405C81.9473 39.4831 81.7801 40.3176 81.4523 41.0937C81.124 41.8786 80.6413 42.5895 80.0327 43.184C79.4211 43.7765 78.7003 44.2445 77.9103 44.5622C76.305 45.1992 74.5172 45.1992 72.912 44.5622C72.1242 44.2455 71.4062 43.7772 70.7987 43.184C70.1906 42.5917 69.7064 41.8843 69.3746 41.1029C69.0554 40.3218 68.8976 39.4842 68.9106 38.6405C68.8982 37.7958 69.0543 36.9571 69.37 36.1735C69.7016 35.3894 70.1857 34.6789 70.7941 34.0832C71.3914 33.4883 72.1022 33.0196 72.8844 32.705C74.5113 32.082 76.311 32.082 77.9378 32.705C78.7213 33.0197 79.4336 33.4884 80.0327 34.0832C80.6411 34.6789 81.1252 35.3894 81.4569 36.1735C81.7819 36.9552 81.9475 37.794 81.9438 38.6405ZM75.4065 44.0477C76.1107 44.051 76.8085 43.9152 77.4601 43.648C78.278 43.2993 78.9982 42.7559 79.558 42.0651C80.1178 41.3743 80.5002 40.5571 80.6719 39.6847C80.8435 38.8123 80.7993 37.9111 80.543 37.0597C80.2866 36.2083 79.826 35.4325 79.2012 34.7999C78.7084 34.2982 78.1193 33.9013 77.4692 33.633C76.8148 33.3649 76.1137 33.2291 75.4065 33.2333C74.7067 33.2291 74.0132 33.365 73.3668 33.633C72.7178 33.9057 72.128 34.3021 71.6302 34.7999C71.1327 35.3084 70.7366 35.9071 70.4633 36.564C70.1944 37.223 70.0586 37.9288 70.0637 38.6405C70.0576 39.3525 70.193 40.0586 70.4619 40.7179C70.7308 41.3772 71.1279 41.9765 71.6302 42.4811C72.1183 42.981 72.7028 43.3764 73.3484 43.6434C74.0009 43.9131 74.7005 44.0505 75.4065 44.0477Z" fill="#1D1D1B"/>
<path d="M95.5835 35.5851C95.1286 34.8582 94.4963 34.2591 93.7459 33.844C92.9965 33.4419 92.1568 33.238 91.3065 33.2514C90.6198 33.2298 89.9366 33.3556 89.3026 33.6203C88.6687 33.885 88.0988 34.2824 87.6313 34.7858C86.9397 35.6093 86.4789 36.6014 86.2957 37.661C86.1125 38.7206 86.2135 39.8099 86.5884 40.8177C86.8387 41.4564 87.2135 42.0389 87.691 42.5313C88.1541 43.0102 88.7108 43.3886 89.3265 43.6431C89.9602 43.8966 90.6377 44.0231 91.3203 44.0152C92.5411 44.0602 93.7313 43.6267 94.6372 42.8069C95.0647 42.4018 95.4029 41.9117 95.6299 41.3682C95.857 40.8247 95.9679 40.2397 95.9556 39.6508H91.7475V38.6907H97.1731V38.8239C97.1731 40.7657 96.6432 42.2878 95.5835 43.3904C94.5238 44.493 93.0691 45.0366 91.2192 45.0213C90.3888 45.0561 89.5602 44.9171 88.7866 44.6134C88.0129 44.3096 87.3112 43.8477 86.7262 43.2572C86.1465 42.6374 85.6964 41.9082 85.4021 41.1122C85.1079 40.3163 84.9755 39.4696 85.0127 38.6218C85.0105 37.7801 85.1583 36.9447 85.4491 36.1548C85.7234 35.3987 86.1486 34.7063 86.6987 34.1196C87.2557 33.5134 87.9353 33.0326 88.6925 32.7093C89.4803 32.3917 90.3239 32.2355 91.1733 32.2499C92.2726 32.2188 93.3636 32.4486 94.3569 32.9206C95.2226 33.3511 95.9347 34.0376 96.3967 34.8868L95.5835 35.5851Z" fill="#1D1D1B"/>
<path d="M100.72 44.7138V32.5166H101.827V44.7138H100.72Z" fill="#1D1D1B"/>
<path d="M105.13 42.6648L106.076 42.1549C106.226 42.7012 106.549 43.1845 106.995 43.5331C107.447 43.8694 107.999 44.0441 108.562 44.0292C108.895 44.0492 109.228 43.9985 109.54 43.8805C109.852 43.7625 110.135 43.58 110.372 43.3447C110.827 42.8248 111.06 42.1466 111.019 41.4566C111.041 40.9331 110.888 40.4173 110.583 39.9911C110.052 39.4209 109.414 38.9618 108.704 38.6404C107.792 38.2186 106.962 37.6367 106.255 36.9223C105.857 36.4222 105.647 35.7976 105.663 35.1582C105.649 34.7636 105.721 34.3708 105.872 34.0062C106.023 33.6416 106.251 33.3138 106.54 33.0449C107.169 32.4814 107.994 32.1877 108.837 32.2272C109.393 32.2135 109.943 32.3466 110.431 32.6131C110.902 32.8891 111.286 33.2919 111.539 33.7753L110.68 34.2945C110.516 33.9574 110.253 33.6785 109.926 33.4951C109.572 33.3039 109.175 33.2089 108.773 33.2195C108.511 33.2056 108.248 33.2453 108.002 33.3361C107.756 33.427 107.53 33.567 107.34 33.7478C107.158 33.9366 107.016 34.1609 106.925 34.4067C106.833 34.6525 106.793 34.9146 106.807 35.1765C106.807 36.031 107.511 36.8273 108.92 37.5654L109.503 37.8732C110.297 38.2651 110.997 38.8229 111.557 39.5087C111.933 40.0936 112.121 40.78 112.094 41.475C112.084 42.1243 111.899 42.7588 111.559 43.3123C111.22 43.8657 110.737 44.3177 110.163 44.621C109.589 44.9243 108.944 45.0678 108.295 45.0364C107.647 45.005 107.018 44.8 106.476 44.4427C105.862 43.9956 105.394 43.3771 105.13 42.6648Z" fill="#1D1D1B"/>
<path d="M117.92 44.7138V33.5594H114.561V32.5166H122.394V33.5594H119.027V44.7138H117.92Z" fill="#1D1D1B"/>
<path d="M125.417 44.7138V32.5166H126.524V44.7138H125.417Z" fill="#1D1D1B"/>
<path d="M140.578 34.7493C140.032 34.2665 139.411 33.8755 138.74 33.5916C138.102 33.3427 137.422 33.2164 136.737 33.2195C136.028 33.1922 135.32 33.3111 134.659 33.5687C133.997 33.8263 133.396 34.2173 132.892 34.7172C132.391 35.2339 131.999 35.8466 131.741 36.5185C131.483 37.1903 131.363 37.9074 131.389 38.6267C131.378 39.3666 131.5 40.1025 131.748 40.7997C131.99 41.4435 132.367 42.0279 132.855 42.5132C133.33 43.002 133.901 43.3868 134.532 43.6434C135.177 43.9034 135.867 44.0345 136.562 44.0293C137.261 44.0294 137.954 43.9081 138.611 43.6709C139.293 43.4224 139.931 43.0656 140.499 42.6143V43.9098C139.906 44.2764 139.266 44.5622 138.597 44.7597C137.953 44.9504 137.285 45.0493 136.613 45.0537C135.746 45.0598 134.886 44.904 134.077 44.5943C133.301 44.2967 132.596 43.8415 132.005 43.2575C131.413 42.6792 130.953 41.9804 130.654 41.2085C130.342 40.3934 130.187 39.527 130.195 38.6543C130.182 37.7827 130.338 36.9168 130.654 36.1046C130.954 35.3347 131.414 34.6377 132.005 34.0602C132.6 33.4869 133.305 33.0399 134.077 32.7463C134.881 32.4358 135.737 32.28 136.599 32.2869C137.331 32.2802 138.059 32.3871 138.758 32.6039C139.415 32.8055 140.031 33.1212 140.578 33.5365V34.7493Z" fill="#1D1D1B"/>
<path d="M143.228 42.6645L144.179 42.1545C144.327 42.7018 144.65 43.1858 145.098 43.5327C145.552 43.869 146.105 44.0437 146.669 44.0289C147.001 44.0487 147.334 43.998 147.645 43.88C147.956 43.762 148.239 43.5795 148.475 43.3444C148.933 42.8262 149.168 42.1472 149.127 41.4562C149.146 40.9331 148.993 40.4181 148.691 39.9907C148.159 39.4216 147.52 38.9627 146.812 38.6401C145.899 38.2183 145.07 37.6363 144.363 36.9219C143.952 36.4204 143.735 35.7877 143.752 35.1394C143.739 34.7446 143.811 34.3515 143.963 33.9869C144.115 33.6223 144.344 33.2946 144.634 33.0262C145.167 32.5835 145.817 32.3066 146.506 32.2298C147.194 32.1531 147.89 32.2798 148.507 32.5943C148.975 32.8719 149.357 33.2743 149.609 33.7566L148.75 34.2758C148.589 33.937 148.325 33.6574 147.997 33.4764C147.643 33.2852 147.246 33.1902 146.844 33.2008C146.581 33.1817 146.318 33.2193 146.072 33.3108C145.825 33.4023 145.601 33.5456 145.415 33.7311C145.228 33.9167 145.084 34.14 144.991 34.3862C144.898 34.6323 144.86 34.8954 144.877 35.1578C144.877 36.0123 145.583 36.8086 146.995 37.5467L147.579 37.8545C148.384 38.2484 149.094 38.8127 149.66 39.5084C150.032 40.0996 150.215 40.7904 150.184 41.4884C150.173 42.1377 149.988 42.7723 149.648 43.3257C149.309 43.8791 148.827 44.3311 148.252 44.6344C147.678 44.9378 147.033 45.0812 146.384 45.0499C145.736 45.0185 145.107 44.8134 144.565 44.4561C143.952 44.0041 143.487 43.3806 143.228 42.6645Z" fill="#1D1D1B"/>
<defs>
<linearGradient id="paint0_linear" x1="0.785577" y1="11.127" x2="48.343" y2="11.127" gradientUnits="userSpaceOnUse">
<stop stop-color="#009DC5"/>
<stop offset="1" stop-color="#006881"/>
</linearGradient>
<linearGradient id="paint1_linear" x1="41.6577" y1="481.314" x2="1509.76" y2="481.314" gradientUnits="userSpaceOnUse">
<stop stop-color="#009DC5"/>
<stop offset="1" stop-color="#006881"/>
</linearGradient>
<linearGradient id="paint2_linear" x1="17.6783" y1="773.722" x2="578.381" y2="773.722" gradientUnits="userSpaceOnUse">
<stop stop-color="#009DC5"/>
<stop offset="1" stop-color="#006881"/>
</linearGradient>
<linearGradient id="paint3_linear" x1="44.4215" y1="773.722" x2="604.648" y2="773.722" gradientUnits="userSpaceOnUse">
<stop stop-color="#009DC5"/>
<stop offset="1" stop-color="#006881"/>
</linearGradient>
<linearGradient id="paint4_linear" x1="38.1289" y1="195.093" x2="500.811" y2="195.093" gradientUnits="userSpaceOnUse">
<stop stop-color="#009DC5"/>
<stop offset="1" stop-color="#006881"/>
</linearGradient>
<linearGradient id="paint5_linear" x1="21.6805" y1="195.093" x2="484.039" y2="195.093" gradientUnits="userSpaceOnUse">
<stop stop-color="#009DC5"/>
<stop offset="1" stop-color="#006881"/>
</linearGradient>
<linearGradient id="paint6_linear" x1="38.1289" y1="409.696" x2="500.811" y2="409.696" gradientUnits="userSpaceOnUse">
<stop stop-color="#009DC5"/>
<stop offset="1" stop-color="#006881"/>
</linearGradient>
<linearGradient id="paint7_linear" x1="21.6805" y1="409.696" x2="484.039" y2="409.696" gradientUnits="userSpaceOnUse">
<stop stop-color="#009DC5"/>
<stop offset="1" stop-color="#006881"/>
</linearGradient>
<linearGradient id="paint8_linear" x1="83.79" y1="2613.17" x2="5156.27" y2="2613.17" gradientUnits="userSpaceOnUse">
<stop stop-color="#009DC5"/>
<stop offset="1" stop-color="#006881"/>
</linearGradient>
<linearGradient id="paint9_linear" x1="42.4549" y1="808.431" x2="1578.56" y2="808.431" gradientUnits="userSpaceOnUse">
<stop stop-color="#009DC5"/>
<stop offset="1" stop-color="#006881"/>
</linearGradient>
</defs>
</svg>
