<svg id="Слой_1" data-name="Слой 1" xmlns="http://www.w3.org/2000/svg" xmlns:xlink="http://www.w3.org/1999/xlink" viewBox="0 0 170 49"><defs><style>.cls-1{fill:none;}.cls-2{clip-path:url(#clip-path);}.cls-3{fill:#202124;}.cls-4{fill:url(#Безымянный_градиент);}.cls-5{fill:url(#Безымянный_градиент_2);}.cls-6{fill:url(#Безымянный_градиент_3);}.cls-7{fill:url(#Безымянный_градиент_4);}.cls-8{fill:url(#Безымянный_градиент_5);}.cls-9{fill:url(#Безымянный_градиент_6);}.cls-10{fill:url(#Безымянный_градиент_7);}.cls-11{fill:url(#Безымянный_градиент_8);}.cls-12{fill:url(#Безымянный_градиент_9);}.cls-13{fill:url(#Безымянный_градиент_10);}</style><clipPath id="clip-path"><rect class="cls-1" width="170" height="49"/></clipPath><linearGradient id="Безымянный_градиент" x1="7.62" y1="48.6" x2="53.27" y2="24.37" gradientTransform="matrix(1, 0, 0, -1, 0, 50)" gradientUnits="userSpaceOnUse"><stop offset="0" stop-color="#982735"/><stop offset="1" stop-color="#5c1c2d"/></linearGradient><linearGradient id="Безымянный_градиент_2" x1="108.23" y1="-105.69" x2="723.65" y2="-961.66" xlink:href="#Безымянный_градиент"/><linearGradient id="Безымянный_градиент_3" x1="101.86" y1="6.58" x2="764.33" y2="-127.68" xlink:href="#Безымянный_градиент"/><linearGradient id="Безымянный_градиент_4" x1="129.02" y1="7.67" x2="791.02" y2="-126.41" xlink:href="#Безымянный_градиент"/><linearGradient id="Безымянный_градиент_5" x1="97.87" y1="5.06" x2="570.83" y2="-208.23" xlink:href="#Безымянный_градиент"/><linearGradient id="Безымянный_градиент_6" x1="81.12" y1="4.79" x2="553.86" y2="-208.21" xlink:href="#Безымянный_градиент"/><linearGradient id="Безымянный_градиент_7" x1="97.89" y1="-12.19" x2="570.86" y2="-225.48" xlink:href="#Безымянный_градиент"/><linearGradient id="Безымянный_градиент_8" x1="81.08" y1="-12.43" x2="553.87" y2="-225.48" xlink:href="#Безымянный_градиент"/><linearGradient id="Безымянный_градиент_9" x1="691.39" y1="-328.31" x2="5560.27" y2="-2912.25" xlink:href="#Безымянный_градиент"/><linearGradient id="Безымянный_градиент_10" x1="226.62" y1="-81.64" x2="1701.07" y2="-864.14" xlink:href="#Безымянный_градиент"/></defs><g class="cls-2"><path class="cls-3" d="M68.1,38.7h5.3a6.72,6.72,0,0,1-1.28,4.13,5.82,5.82,0,0,1-4.76,2.1,6.37,6.37,0,0,1-2.52-.43,6.48,6.48,0,0,1-2.14-1.39A6.14,6.14,0,0,1,61.28,41a6.54,6.54,0,0,1,1.45-7.12A6.45,6.45,0,0,1,67.42,32a6.12,6.12,0,0,1,4,1.35,7.07,7.07,0,0,1,1.51,1.53l-.66.53A5.92,5.92,0,0,0,71,34.06a5.75,5.75,0,0,0-6.12-.76,5.7,5.7,0,0,0-2.38,2.13,5.58,5.58,0,0,0-.83,3.08,5.39,5.39,0,0,0,.39,2.17,5.49,5.49,0,0,0,3.07,3.08,5.64,5.64,0,0,0,2.19.41,5.38,5.38,0,0,0,2.46-.53A5.08,5.08,0,0,0,71.73,42a5.55,5.55,0,0,0,.84-2.59H68.09Z"/><path class="cls-3" d="M83.49,44.71l-4.1-5.92H79v5.92h-.83V32.16H80a4.39,4.39,0,0,1,2.67.64,3.09,3.09,0,0,1,1,1.18A3,3,0,0,1,84,35.49a2.94,2.94,0,0,1-.54,1.88,3,3,0,0,1-1.58,1.16,4.9,4.9,0,0,1-1.56.25l4.13,5.92ZM79,38h1.23c1.8,0,2.88-.91,2.88-2.55a2.27,2.27,0,0,0-.25-1.25A2.23,2.23,0,0,0,82,33.3a4.41,4.41,0,0,0-1.93-.38H79Z"/><path class="cls-3" d="M101.33,38.47a6.39,6.39,0,0,1-1.09,3.62A6.6,6.6,0,0,1,97.3,44.5a6.76,6.76,0,0,1-3.8.38,6.59,6.59,0,0,1-3.36-1.78,6.46,6.46,0,0,1,1-10A6.65,6.65,0,0,1,94.77,32a6.37,6.37,0,0,1,2.52.46,6.51,6.51,0,0,1,2.14,1.4,6.41,6.41,0,0,1,1.9,4.61Zm-.87,0a5.63,5.63,0,0,0-1-3.12A5.7,5.7,0,0,0,93.62,33a5.69,5.69,0,0,0-2.9,1.56,5.63,5.63,0,0,0-1.54,2.89,5.62,5.62,0,0,0,2.44,5.76,5.69,5.69,0,0,0,3.15,1A5.57,5.57,0,0,0,97,43.75a5.64,5.64,0,0,0,1.86-1.23,5.75,5.75,0,0,0,1.23-1.86A5.66,5.66,0,0,0,100.46,38.47Z"/><path class="cls-3" d="M106.94,32.16V40a4.74,4.74,0,0,0,.53,2.71,3.71,3.71,0,0,0,5.88,0,4.82,4.82,0,0,0,.53-2.71V32.16h.83V40a5.05,5.05,0,0,1-.72,3.22,4.65,4.65,0,0,1-7.16,0,5.05,5.05,0,0,1-.72-3.22V32.16Z"/><path class="cls-3" d="M121,38.75v6h-.84V32.16h2.45c2.06,0,3.71,1.13,3.71,3.27s-1.49,3.31-3.67,3.31Zm0-.75h1.67a2.5,2.5,0,0,0,2.78-2.54c0-1.58-1.06-2.54-2.9-2.54H121Z"/><path class="cls-3" d="M72.82,18H65.55l-1.9,4.08H60.87L69.3,4.23l8.12,17.89H74.64Zm-1-2.39L69.26,9.92l-2.64,5.73Z"/><path class="cls-3" d="M84.37,5.29V19.74h5v2.38H81.8V5.29Z"/><path class="cls-3" d="M96.62,5.29H94.05V22.13h2.57Z"/><path class="cls-3" d="M113,18h-7.28l-1.89,4.08H101l8.44-17.89,8.11,17.89h-2.81Zm-1-2.39-2.52-5.73-2.64,5.73Z"/><path class="cls-3" d="M121.92,22.13v-18L134.32,17V5.29h2.56V23.15L124.49,10.34V22.13Z"/><path class="cls-3" d="M147.9,7.68V22.12h-2.56V7.68h-3.91V5.29H151.8V7.68Z"/><path class="cls-3" d="M165.41,18h-7.28l-1.89,4.08h-2.78l8.41-17.89L170,22.12H167.2Zm-1-2.39-2.53-5.73-2.64,5.73Z"/><path class="cls-4" d="M21.81,13.83l-1.68-3.76h9.21l-1.68,3.76h1.82l2.41-5.41H17.57L20,13.83Z"/><path class="cls-5" d="M27.66,35.17l1.68,3.76H20.13l1.68-3.76H20l-2.42,5.41H31.89l-2.41-5.41Z"/><path class="cls-6" d="M8.5,31.59,14,29.2V27.4l-3.81,1.66V19.93L14,21.6V19.8L8.5,17.41Z"/><path class="cls-7" d="M35.51,21.6l3.8-1.67v9.13l-3.8-1.66v1.8L41,31.59V17.41L35.51,19.8Z"/><path class="cls-8" d="M30.78,17.35,32,18.51l3-3c.74-.73-.06-2.27-.06-2.27Z"/><path class="cls-9" d="M17.51,18.51l1.18-1.16-4.14-4.1s-.8,1.54-.06,2.27Z"/><path class="cls-10" d="M32,30.49l-1.18,1.16,4.14,4.1s.8-1.54.06-2.27Z"/><path class="cls-11" d="M17.51,30.49l-3,3c-.74.73.06,2.27.06,2.27l4.14-4.1Z"/><path class="cls-12" d="M24.74,0A24.93,24.93,0,0,0,11,4.13a24.66,24.66,0,0,0-9.11,11,24.37,24.37,0,0,0,5.36,26.7A24.87,24.87,0,0,0,45.3,38.11,24.31,24.31,0,0,0,42.22,7.18,24.92,24.92,0,0,0,24.74,0Zm0,47.37a23.18,23.18,0,0,1-12.83-3.86A22.73,22.73,0,0,1,8.41,8.33a23.21,23.21,0,0,1,35.52,3.46,22.7,22.7,0,0,1-2.87,28.87A23.24,23.24,0,0,1,24.74,47.37Z"/><path class="cls-13" d="M29,20.54l1.2-1.11a7.54,7.54,0,0,0-9.47-1.2A7.38,7.38,0,0,0,21.13,31a7.56,7.56,0,0,0,9.39-1.78,7.41,7.41,0,0,0,1.71-4.74v-.79H27.88l-2.37-4.92A5.82,5.82,0,0,1,29,20.54Zm-5-1.77L19.75,27.5A5.74,5.74,0,0,1,19.47,22,5.79,5.79,0,0,1,24,18.77Zm-3,10.1,1.71-3.56h4.21l1.71,3.57a5.87,5.87,0,0,1-7.63,0Zm9.6-3.56a5.63,5.63,0,0,1-.81,2.2l-1.06-2.2Zm-7.1-1.62,1.32-2.76,1.31,2.76Z"/></g></svg>