<svg width="170" height="215" fill="none" xmlns="http://www.w3.org/2000/svg"><path fill-rule="evenodd" clip-rule="evenodd" d="M7.555 188.13v4.395l30.642 17.42 10.128-5.876c4.897 2 9.758 3.932 14.742 5.844l-7.922 4.584-9.518-5.506-7.43 4.31-37.064-21.448c-.116-.471-.22-.933-.326-1.394l6.748-3.881v1.552zm49.898 15.333h.346-.503.157zm30.327-16.119c.64-.126 1.218-.262 1.763-.42-.69.21-1.39.385-2.099.525l.336-.105zm-24.688 22.569c-2.96-.992-14.562-5.807-17.465-6.912 1.522.086 4.857-2.337 6.373-2.5.547-.237 10.18 4.142 10.474 3.623a2.73 2.73 0 00.331-1.709 12.18 12.18 0 00-.21-1.941c-.147-.839-.241-1.394-.283-1.657v-.126a4.877 4.877 0 00-.714-1.52c-.87-1.94-1.637-3.545-2.308-4.793a44.51 44.51 0 00-3.568-6.031c-.808-1.143-1.5-2.097-2.1-2.968a5.22 5.22 0 00.284-.597 38.24 38.24 0 01-.682-2.622l4.565-2.654a15.722 15.722 0 001.312 4.646c1.084 1.217 2.92 2.052 5.509 2.507a1.338 1.338 0 001.154-.21c.179-.136.493-.409.945-.839.766-.766 1.448-.933 2.099-.524a26.963 26.963 0 015.141 3.366 32.857 32.857 0 004.964 3.377 27.45 27.45 0 007.03-.262 31.078 31.078 0 006.717-1.93 6.68 6.68 0 00-.63-2.003 6.734 6.734 0 01-.577-1.699v-.231a5.355 5.355 0 00-3.358-2.412c-.451-.147-1.175-.356-2.099-.64a7.888 7.888 0 01-1.888-.933 52.426 52.426 0 01-9.235-7.95 1.03 1.03 0 00.157-.209l23.087 13.34 17.839-10.278-1.91 1.269a6.049 6.049 0 00-1.416 4.09 3.326 3.326 0 001.28 2.905c0 .126 0 .284-.073.441 0 .43.314.828 1.049 1.216a7.464 7.464 0 003.988.158 19.215 19.215 0 004.092-.944 18.346 18.346 0 002.938-1.416c4.436-2.377 7.514-3.566 9.235-3.566.034.293.034.588 0 .881.136.357.63.525 1.469.525.894.001 1.788-.048 2.676-.147a55.063 55.063 0 01-.944 2.454 3.29 3.29 0 00.524 1.531c-.979 1.573-2.308 3.479-3.987 5.716a41.894 41.894 0 00-5.195 7.918 4.673 4.673 0 00-.577 2.57c.026.289.097.572.21.839a7.16 7.16 0 01-.105.744c-.035.363.038.728.21 1.049.525.986 1.868 1.479 4.04 1.479 3.172.11 6.312-.655 9.077-2.213 3.078-1.888 5.352-4.978 6.821-9.271.561.177 1.144.28 1.732.304a2.223 2.223 0 002.466-1.783c.314-1.552.42-3.139.314-4.719a2.897 2.897 0 00-.398-1.574l.136-.524v-.524a.144.144 0 01-.052-.095v-.398c0-.168-.074-.346-.105-.525-.032-.178-.074-.325-.105-.493-.032-.167.189-.335.294-.503l15.814 9.124-1.05.577v.325l-29.382 16.98-37.232-21.5-38.698 22.391z" fill="#D0DEFF"/><path fill-rule="evenodd" clip-rule="evenodd" d="M57.506 37.315a.89.89 0 00-.262.262c-.446.824-.831 1.68-1.155 2.559a13.18 13.18 0 00-.944 2.475.692.692 0 00.157.315l-.105.178c-.094.2-.2.398-.315.608a8.467 8.467 0 01-3.095-2.412 151.215 151.215 0 00-4.04-4.09 23.9 23.9 0 01-3.148-3.461 4.581 4.581 0 01-.525-5.087l.157-.189c.252-.356.745-1.048 1.47-2.17l.734-.997c.318.535.669 1.05 1.05 1.542a3.146 3.146 0 00.786 2.097 429.31 429.31 0 004.513 4.458 39.117 39.117 0 004.722 3.912zm59.531-20.976a13.23 13.23 0 011.543 7.394v.262a12.59 12.59 0 01-3.379 2.224 13.36 13.36 0 000-5.003 12.98 12.98 0 00-1.732-4.562 4.276 4.276 0 00-.262-.367c2.172-.116 3.379-.2 3.621-.263.052.063.125.179.209.315zM59.5 46.596c.913-1.227 1.574-2.15 1.994-2.79 1.259 1.406 2.098 2.297 2.36 2.686.768.96 1.404 2.017 1.89 3.146a10.713 10.713 0 00-.315-4.825 5.957 5.957 0 002.099-2.464c.123-.254.264-.499.42-.734a3.06 3.06 0 000 .524c.657 2.895 1.042 4.747 1.154 5.559.734 4.432.402 8.086-.997 10.96a3.95 3.95 0 01-.924-.294 5.078 5.078 0 01-2.015-1.972 35.278 35.278 0 01-1.783-3.45c-1.963-3.252-3.149-5.16-3.516-5.727a5.336 5.336 0 01-.367-.619zm7.66-9.648a6.463 6.463 0 00-2.938 2.307 5.236 5.236 0 010-1.049 214.28 214.28 0 00-1.574-5.506c.21.016.42.016.63 0 .325-.17.64-.36.944-.566a4.774 4.774 0 011.731-.682 46.12 46.12 0 001.837-.325l.472-.095c.493.944.892 1.689 1.207 2.255a26.604 26.604 0 002.623 4.09 9.25 9.25 0 01-3.882-.388l-.294-.094h-.231a5.35 5.35 0 01-.63-.262c.022.109.057.215.105.315zm-2.392 44.048a11.433 11.433 0 01-1.333 1.668l-3.253.45c.252-.43.462-.765.63-1.048a.776.776 0 00.104-.168.147.147 0 000-.094 17.11 17.11 0 001.89-4.1c.073-.242.136-.462.21-.672a6.7 6.7 0 00.157-1.783 6.05 6.05 0 00-1.155-2.884h1.71c.353.416.669.862.945 1.332a8.618 8.618 0 011.05 3.43 5.912 5.912 0 01-.924 3.65 1.705 1.705 0 01-.084.167l.053.052zm21.491-12.46a10.86 10.86 0 011.154 4.804c-.2.294-.409.588-.63.86-.395.492-.835.949-1.311 1.364a.646.646 0 000-.126c.48-1.417.693-2.91.63-4.405-.305 0-1.05 0-2.1.094a25.23 25.23 0 00-1.468-3.24l-.21-.43a.41.41 0 00.21.063c.573.125 1.15.23 1.731.314.326 0 .661.074 1.05.095.21-.016.42-.016.63 0 .104.24.199.42.314.608zm44.756-34.053c.033-.173.05-.348.053-.524v-.21c.22-2.685 1.154-4.3 2.812-4.825.03.03.055.066.073.105 0 .095.084.241.158.42.122.318.21.649.262.986-.294.43-.661.944-1.102 1.53l-2.046 2.57a.518.518 0 01-.21-.052zm18.732-6.974l.105.104a.131.131 0 000 .074c.147.482-.126.839-.819 1.049a10.498 10.498 0 00-3.358 1.887c-4.197 1.878-7.136 4.3-8.92 7.237l-1.28-1.154a.718.718 0 01-.157-.22 51.005 51.005 0 015.96-4.195 95.77 95.77 0 015.719-3.367c1.176-.681 2.089-1.143 2.75-1.415zm-18.417 72.575c.283.525.63 1.143 1.049 1.888l.315.472a24.223 24.223 0 00-2.991 1.311l-.808-1.426a2.269 2.269 0 01-.136-.2 12.446 12.446 0 01-1.784-6.69v-.578l.315.126c.527.21 1.071.375 1.626.493.323-.068.638-.163.945-.283 0 .262 0 .535.052.807.053.273.074.43.105.64.035.214.088.424.158.63.105.377.231.765.367 1.143.107.39.265.764.472 1.111.158.179.21.378.315.556z" fill="#fff"/><path fill-rule="evenodd" clip-rule="evenodd" d="M67.843 6.167a.963.963 0 00-.053.263 2.611 2.611 0 01-1.521 2.013 4.714 4.714 0 01-2.099.399c-.42-.252-.87-.493-1.364-.734a5.868 5.868 0 00-2.519-.766 7.495 7.495 0 00-3.358 1.154 7.412 7.412 0 01-3.41 1.132h-.157a15.748 15.748 0 01-6.402-1.625l-.283-.158a61.919 61.919 0 01-1.92-1.048h.052c.358-.574.761-1.117 1.207-1.626a12.594 12.594 0 019.864-3.576A21.469 21.469 0 0166.216 4.74c.64.35 1.196.838 1.627 1.426z" fill="url(#paint0_linear)"/><path fill-rule="evenodd" clip-rule="evenodd" d="M61.913 13.718l-1.731-.188a90.096 90.096 0 01-3.358-.441 71.554 71.554 0 01-4.198-.892 69.005 69.005 0 01-4.985-1.52 6.705 6.705 0 01-1.836-1.5l-.367-.388-1.05-1.259c.137-.251.284-.471.42-.692a32.58 32.58 0 011.92 1.049l.284.157a15.748 15.748 0 006.401 1.626h.105a7.411 7.411 0 003.41-1.154 7.496 7.496 0 013.358-1.153c.907.06 1.787.329 2.571.786.494.241.945.483 1.365.734a4.7 4.7 0 002.098-.398 2.613 2.613 0 001.522-2.014.966.966 0 01.052-.262c.284.386.514.81.682 1.259.256.623.339 1.304.242 1.971a3.47 3.47 0 01-.609 1.447c-.716.418-1.48.745-2.277.976a92.038 92.038 0 00-2.623.986 5.15 5.15 0 00-1.396.87zM51.136 25.486a1.404 1.404 0 01-.294 1.919c-.165.18-.352.338-.556.472a1.69 1.69 0 01-2.099-.367 6.496 6.496 0 01-.63-.661 15.455 15.455 0 01-1.049-1.542c-.063-.126-.136-.24-.21-.377a18.347 18.347 0 01-3.515-9.964V13.3c.06-.882.182-1.758.367-2.622.462.503.944 1.049 1.47 1.52.524.473 1.122 1.05 1.73 1.626a27.286 27.286 0 005.699 3.902l.094.052a20.48 20.48 0 007.566 2.15 7.022 7.022 0 01-2.256 1.479c.178 1.29 0 1.992-.525 2.097a4.357 4.357 0 01-2.098-.734 10.776 10.776 0 00-2.571-1.049 1.869 1.869 0 00-2.1 1.05 1.332 1.332 0 000 1.258c.217.369.463.72.735 1.049.09.13.17.267.242.409z" fill="#36200B"/><path fill-rule="evenodd" clip-rule="evenodd" d="M68.892 12.722c-1.05.63-2.445 1.532-4.302 2.727h-.105l-3.778 2.38a4.19 4.19 0 000-.89.22.22 0 000-.158v-.105l1.05-2.737c.08-.074.169-.14.262-.2a5.153 5.153 0 011.311-.849 93.03 93.03 0 012.624-.986c.796-.23 1.56-.558 2.277-.975.288.57.51 1.172.661 1.793zM53.1 24.731c.24.467.56.89.944 1.248a5.657 5.657 0 01-1.574-.808 7.098 7.098 0 01-1.416-1.049.85.85 0 01.314-.367c.137-.115.21-.178.21-.21a3.273 3.273 0 011.522 1.186zm29.225 42.727l.21.43a25.224 25.224 0 011.47 3.24l-4.46.326c-.557 0-1.05.052-1.575.052a37.75 37.75 0 00-3.148 1.406c-.767.433-1.6.738-2.466.902a.505.505 0 01-.42-.158 3.86 3.86 0 010-.744c-.008-.42.101-.834.315-1.196a.578.578 0 01.157-.21 6.505 6.505 0 011.785-1.887c.61-.293 1.24-.539 1.888-.735a4.722 4.722 0 001.522-.839c.058-.057.111-.12.157-.188a75.53 75.53 0 012.886-.808 17.07 17.07 0 001.68.41zm-1.05 6.618c-.136 0-1.153.168-3.042.409v-.357a13.965 13.965 0 003.043-.314c1.483-.287 2.47-.444 2.96-.472-.974.357-1.984.603-3.013.734h.053zm-.157 2.486a26.239 26.239 0 012.571-.735 3.8 3.8 0 01-1.259.472c-.283.095-.713.19-1.312.262zm53.676-64.333a3.44 3.44 0 011.102 1.406v.063a.384.384 0 01.053.157v.168H136v.105a.264.264 0 000 .157v1.091a3.98 3.98 0 000 1.111 221.247 221.247 0 01-2.938-1.971l-1.312-.913-4.145-2.832a10.77 10.77 0 01.598-1.971c.098.192.214.375.347.545a9.228 9.228 0 002.308 1.049c1.333.482 2.204.818 2.624 1.049a6.49 6.49 0 011.311.807v-.02zm10.494 9.072c-1.186 1.185-1.857 1.836-1.994 1.94l-.577-.167c.192-.398.459-.754.787-1.05a3.037 3.037 0 011.469-.89l.315.167z" fill="#E7BCA9"/><path fill-rule="evenodd" clip-rule="evenodd" d="M59.71 19.928a20.483 20.483 0 01-7.587-2.098l-.095-.052a27.279 27.279 0 01-5.698-3.902c-.609-.545-1.186-1.049-1.731-1.625-.546-.577-1.05-1.05-1.47-1.521a13.6 13.6 0 011.207-3.147l1.05 1.259.367.388a6.705 6.705 0 001.836 1.5c1.68.577 3.337 1.049 4.985 1.52 1.416.347 2.812.64 4.197.892.955.147 2.1.294 3.358.44l1.732.19a1.808 1.808 0 00-.262.199l-1.05 2.737v.073a.22.22 0 010 .158 4.19 4.19 0 010 .891 3.628 3.628 0 01-.787 1.856c-.02.08-.038.16-.052.242zm6.453 78.218c-.073-1.217-.136-2.203-.178-2.968 1.35-.56 2.598-1.34 3.694-2.308.86-.723 1.62-1.559 2.256-2.485 0 1.122-.074 2.181-.105 3.146a13.207 13.207 0 01-2.099 2.36 13.645 13.645 0 01-3.568 2.276v-.021z" fill="#6D411A"/><path fill-rule="evenodd" clip-rule="evenodd" d="M70.885 21.636c.256.407.384.882.368 1.363a1.28 1.28 0 00-.21.095 4.405 4.405 0 00-1.858 2.653c-.35 1.007-.56 1.584-.63 1.73a5.136 5.136 0 01-.629 1.05 4.6 4.6 0 01-.367.398 4.335 4.335 0 01-.367.23 6.3 6.3 0 01-2.676.661c-1.396.063-2.33.116-2.813.126h-2.277a12.786 12.786 0 01-1.521-.084 3.677 3.677 0 01-.525-.084 3.15 3.15 0 01-2.812-2.055c-.86 0-1.973-.777-3.327-2.234a3.898 3.898 0 00-.241-.388 7.966 7.966 0 01-.735-1.05 1.331 1.331 0 010-1.258 1.867 1.867 0 012.099-1.048c.899.237 1.763.59 2.57 1.048a4.357 4.357 0 002.1.734c.524-.104.703-.807.524-2.097a7.019 7.019 0 002.152-1.5c.064-.091.134-.179.21-.262a3.627 3.627 0 00.786-1.835l3.778-2.34h.105a293.058 293.058 0 014.303-2.726 9.328 9.328 0 01.105 4.604c-.389.881-.126 1.857.787 2.947a13.227 13.227 0 011.101 1.322zM53.046 24.73a3.273 3.273 0 00-1.522-1.207s-.073.095-.21.21A.85.85 0 0051 24.1a7.06 7.06 0 001.469 1.07 5.65 5.65 0 001.574.787 4.53 4.53 0 01-.944-1.227h-.053zm16.056 44.887a10.937 10.937 0 012.623-1.814c.273-.147.556-.273.84-.398a13 13 0 012.728-.787 10.762 10.762 0 012.099-.147h.315a1.467 1.467 0 010 1.385 1.247 1.247 0 01-.158.188c-.45.372-.967.656-1.522.84-.647.195-1.279.44-1.888.733a6.504 6.504 0 00-1.784 1.888.576.576 0 00-.158.21 2.263 2.263 0 00-.315 1.196 3.843 3.843 0 000 .744.502.502 0 00.42.157 8.072 8.072 0 002.466-.901c1.05-.525 2.099-1.05 3.148-1.406.494 0 1.05 0 1.575-.052l4.46-.325a56.8 56.8 0 012.098-.095 12.129 12.129 0 01-.63 4.405.645.645 0 010 .126 3.848 3.848 0 01-2.938 2.81c.105.21.263.536.472 1.05a7.334 7.334 0 01-.86.755l-.504.346-.105.073a8.946 8.946 0 01-4.407 1.049c-.385.02-.77.02-1.154 0a31.041 31.041 0 01-3.778-.493c-.07.01-.14.01-.21 0a64.1 64.1 0 00-2.099-.304h-.451a20.384 20.384 0 00-1.28-.115h-.42a.397.397 0 01-.157 0 2.01 2.01 0 01-.347 0l-1.196.083-1.165.105a5.913 5.913 0 00.924-3.65 8.617 8.617 0 00-1.05-3.429 4.67 4.67 0 001.68-1.122l.807-.955c.371-.421.767-.82 1.186-1.195.182-.213.374-.416.577-.609l.158-.346zM136 16.602c.119.616.389 1.192.787 1.678a6.16 6.16 0 002.308 1.646l.21.105c-.178 1.29 0 1.993.525 2.098a4.357 4.357 0 002.099-.735 10.752 10.752 0 012.571-1.1 1.858 1.858 0 012.098 1.048 1.309 1.309 0 010 1.248c-.21.392-.456.765-.734 1.112l-.084.126-.231.136c-.407.218-.828.41-1.259.577a3.527 3.527 0 01-2.099 0l-.336-.105-.052-.063v.399a4.2 4.2 0 01-2.603 3.073c-.521.26-1.065.47-1.626.629l-1.679.283h-1.417l-.609-.074a26.398 26.398 0 00-3.011-.314l-.735-.052a4.202 4.202 0 01-2.865-1.437 1.995 1.995 0 01-.178-.231 5.984 5.984 0 01-.21-.692 13.71 13.71 0 01-.315-2.035 17.56 17.56 0 00-.398-2.444 1.846 1.846 0 00-.074-.283 2.922 2.922 0 01-.808-.629 1.22 1.22 0 01-.346-1.049 4.263 4.263 0 011.154-1.783 14.857 14.857 0 001.469-2.003 1.987 1.987 0 000-2.192c-.071-.892-.035-1.79.105-2.674l4.145 2.832 1.312.912c1.207.807 2.141 1.468 2.938 1.993H136zM81.222 74.075a13.775 13.775 0 002.907-.734c-.49 0-1.476.157-2.96.472-1 .216-2.02.321-3.043.314v.357c1.942-.241 2.96-.378 3.096-.41zm-1.994 5.086a34.12 34.12 0 00-1.941.305 8.83 8.83 0 003.882-.472l-1.94.167zm1.889-2.6a12.96 12.96 0 001.312-.263 3.802 3.802 0 001.259-.472c-.869.201-1.727.446-2.571.734zm48.586 27.173l-.209.095-.473.241-.577.314-.189.105a26.056 26.056 0 00-2.644 1.699c-.388.273-.766.546-1.123.818l-.451.378a7.043 7.043 0 01-3.883.461 8.73 8.73 0 01-2.309-.671.498.498 0 00-.262-.115 23.411 23.411 0 01-3.463-2.245 31.17 31.17 0 01-1.994-1.478 2.103 2.103 0 01-.892-1.878c0-.881.42-1.23 1.26-1.048.191.019.385.019.577 0 .467.093.949.093 1.416 0a8.011 8.011 0 001.679-.525c.245-.133.508-.269.787-.409 1.732-1.248 3.023-2.097 3.862-2.653h-.052a.53.53 0 00-.158 0h.137l-1.113-3.167c.688-.198 1.39-.345 2.099-.441a8.526 8.526 0 013.673.933l.294.137c.472.22.892.398 1.28.556v.597a12.447 12.447 0 001.784 6.713c.042.068.087.135.136.199l.808 1.384zM145.287 21.3l-.315-.262a3.029 3.029 0 00-1.469.891 3.382 3.382 0 00-.787 1.05l.577.209c.136-.031.808-.682 1.994-1.867v-.02z" fill="#FFD6C4"/><path fill-rule="evenodd" clip-rule="evenodd" d="M57.874 29.995zm-7.587-2.097c.094.22.2.45.294.681a7.206 7.206 0 007.03 4.72 15.74 15.74 0 003.516-.367c.113-.957.166-1.92.157-2.884h.336l.924 2.758a214.28 214.28 0 011.574 5.506c-.035.349-.035.7 0 1.049a7.34 7.34 0 00.262 1.888c.191.957.436 1.902.735 2.831h.052c.029.232.082.46.157.682a.199.199 0 000 .105c.472 1.563.58 3.213.315 4.824a13.726 13.726 0 00-1.889-3.146 50.57 50.57 0 00-2.36-2.685l-.106-.094c-2.099-2.381-3.379-4.478-3.725-6.293l-.157-.105a39.107 39.107 0 01-4.67-3.88c-.661-.64-2.172-2.098-4.513-4.458a3.145 3.145 0 01-.787-2.097c.194.235.405.455.63.66a1.69 1.69 0 002.225.284v.02zm17.923 9.124a8.966 8.966 0 01-1.05-.388c0 .64.137 1.374.263 2.192 0-.136-.073-.273-.105-.409a2.093 2.093 0 000-.472 1.046 1.046 0 010-.262 1.04 1.04 0 000-.315v-.42a1.29 1.29 0 010-.366c.204.1.415.188.63.262a.53.53 0 00.21 0l.294.094-.242.084zm-.294 4.594c0 .168.063.346.105.524.63 2.937 1.015 4.804 1.155 5.6a19.39 19.39 0 01-.42 9.555c-.178.483-.367.954-.577 1.416a4.201 4.201 0 01-.976-.346c.294.135.605.234.923.293 1.4-2.873 1.732-6.526.997-10.96-.105-.81-.49-2.663-1.154-5.558a3.061 3.061 0 01-.074-.524h.021zm-11.91.21c-.189.314-.43.765-.735 1.331l-.052-.052.105-.178v-.105c.241-.42.44-.776.577-1.049l.105.052zm69.259-21.238c-.766.346-1.805.828-3.148 1.457l-2.991 1.427-.524.262a13.248 13.248 0 00-1.543-7.394c1.476-.23 2.41-.388 2.802-.472.262 0 1.049-.168 2.256-.42l2.833-.576c.969-.214 1.95-.365 2.939-.451.035.466-.075.93-.315 1.332-.45.71-.959 1.38-1.522 2.003a4.264 4.264 0 00-1.154 1.783 1.22 1.22 0 00.325 1.049h.042zm20.348 5.002c.091.15.209.28.346.389a1.69 1.69 0 002.676.115l.315-.294c.233.582.514 1.143.839 1.678-.661.273-1.574.734-2.728 1.353a95.454 95.454 0 00-5.719 3.367 50.933 50.933 0 00-5.961 4.195 5.985 5.985 0 01-.703-2.696c0-1.195-.084-2.097-.157-2.622a6.741 6.741 0 00-.105-.692 4.741 4.741 0 00-.263-.985l.871.073h1.837a13.752 13.752 0 006.422-1.647 5.153 5.153 0 002.288-2.234h.042zm0-1.489a.581.581 0 00-.053-.157l.231-.136-.178.293zm-3.442.472a3.012 3.012 0 00-.41.23v-.398l.053.063.357.105zM62.313 198.797v-.126c-.021.021-.021.073 0 .126z" fill="#D4A48D"/><path fill-rule="evenodd" clip-rule="evenodd" d="M86.605 20.976a55.295 55.295 0 0010.778-1.626l3.882-.954.924-.2c.304-.083.629-.146.965-.21l.504-.114a207.45 207.45 0 018.783-1.773l.577-.105.158.262c.094.116.178.242.262.367a13 13 0 011.732 4.563c-2.624 1.111-4.723 1.968-6.297 2.57a66.478 66.478 0 01-22.037 3.775 33.75 33.75 0 01-9.077-1.05 26.02 26.02 0 01-1.522-1.572 18.064 18.064 0 00-1.783-3.052l-.231-.357a1.048 1.048 0 01-.137-.168 51.682 51.682 0 016.507-.356c2.002.105 4.01.105 6.012 0zm-6.17 73.719l-.052.262c-.074-.063-.105-.115-.105-.147a.503.503 0 01.157-.136v.02z" fill="url(#paint1_linear)"/><path fill-rule="evenodd" clip-rule="evenodd" d="M101.108 30.73c-1.458.24-2.93.391-4.407.45a40.18 40.18 0 00-12.225 2.308 11.082 11.082 0 00-7.66 8.705c0-.252-.064-.482-.106-.713a23.315 23.315 0 00-.21-1.437 61.4 61.4 0 00-.787-4.562 41.152 41.152 0 00-1.679-6.555.557.557 0 010-.21 7.717 7.717 0 00-.367-.902 6.684 6.684 0 00-.262-.723.2.2 0 01-.053-.105l-1.994-3.514a3.15 3.15 0 01-.294-.346c.067-.038.138-.07.21-.094a2.412 2.412 0 00-.367-1.364 71.654 71.654 0 013.148-.377c.04.06.085.117.137.168l.23.356c.694.957 1.291 1.98 1.785 3.052.42.483.923 1.049 1.521 1.573a33.78 33.78 0 009.077 1.05 66.478 66.478 0 0022.037-3.776c1.609-.595 3.708-1.451 6.297-2.57.314 1.653.314 3.35 0 5.003 0 .115-.063.23-.084.335-.903.22-1.795.451-2.676.713a41.239 41.239 0 00-3.411 1.238 35.448 35.448 0 01-7.86 2.297zM34.63 38.49c.328-.561.704-1.095 1.123-1.593.283-.357.65-.84 1.102-1.48l.241.064c.132.025.262.06.388.105 2.35.734 5.097 3.426 8.238 8.075a205.926 205.926 0 002.099 5.916c.66 1.856 1.049 3.146 1.311 3.995a29.52 29.52 0 01.945 7.415v1.175a86.534 86.534 0 01-.756 10.781c-1.595.21-3.2.357-4.827.451a4.854 4.854 0 01.21-2.36 41.769 41.769 0 001.364-6.512 46.174 46.174 0 00-2.308-21.763 7.718 7.718 0 00-5.247-5.128 3.685 3.685 0 00-2.047-.053 5.133 5.133 0 00-1.836.913zm-2.235 5.486l.136.073a4.104 4.104 0 012.655 1.385 5.936 5.936 0 011.627 1.95c.217.688.392 1.389.524 2.098.598 2.37.924 3.755.997 4.195.17 1.164.257 2.338.263 3.514 0 .24-.074 2.097-.21 5.506-.137 3.408-.158 5.244-.158 5.506 0 .063 0 .66-.105 1.783.02 1.185.25 2.357.682 3.46 1.288 3.238 4.348 4.86 9.183 4.867 3.37.08 6.74-.127 10.074-.619l2.36-.43a20.38 20.38 0 012.572-.146c-.074.21-.137.43-.21.67a17.114 17.114 0 01-1.889 4.101c.01.031.01.064 0 .095a.776.776 0 01-.105.168c-.168.251-.378.587-.63 1.048l-.21.336c-1.154.178-2.308.336-3.462.482a168.97 168.97 0 01-7.818.703l-1.364.084a36.87 36.87 0 00-4.534.283c-.041.373-.041.75 0 1.122a29.444 29.444 0 004.407 2.528c0 .619-.083 1.237-.104 1.856v3.021a69.965 69.965 0 001.784 15.092 21.93 21.93 0 007.03 1.688 106.734 106.734 0 01-1.154 14.096 79.837 79.837 0 01-2.739 10.802 93.629 93.629 0 00-2.676 10.887 116.706 116.706 0 00-1.206 18.144v.262c.1 5.627.644 11.238 1.626 16.78 0 .158.063.378.105.651l.787 4.373-.21.115c.157.399.336.829.525 1.311.389.924.844 1.818 1.364 2.675.42.657 1.487 2.262 3.2 4.814 1.498 2.412 2.25 4.16 2.257 5.243v.242a15.077 15.077 0 01-.315 2.643h-.157c-.84 0-1.595-.084-2.257-.147h-.293c-.305 0-.599 0-.86-.084a10.179 10.179 0 01-1.365-.262 6.117 6.117 0 01-.735-.147 7.345 7.345 0 01-3.62-2.339v-19.14c.018-.245.018-.49 0-.734a2.684 2.684 0 00-2.151-2.832l-7.64-4.436c0-1.28 0-2.57-.126-3.86a426.092 426.092 0 01-.84-9.638 71.283 71.283 0 01-.052-9.817 11.53 11.53 0 011.05-4.027 23.975 23.975 0 011.395-3.723c.603-2.135.927-4.338.966-6.555.105-3.741.105-7.499 0-11.275a897.17 897.17 0 00-.472-9.911c-.112-2.74-.34-5.46-.682-8.159-.064-.556-.137-1.101-.21-1.657a.553.553 0 000-.126 62.765 62.765 0 01-.336-3.671 17.565 17.565 0 01-2.571-4.53 8.783 8.783 0 01-.262-.85 6.023 6.023 0 01-.242-1.049c-.378-2.6.49-5.859 2.603-9.774a14.705 14.705 0 01-1.837-.546 3.567 3.567 0 01-1.889-1.657c0-.084-.073-.157-.105-.23a14.309 14.309 0 01-1.133-3.493l-.073-.44a39.021 39.021 0 01-.578-4.615v-.692a28.785 28.785 0 01-.146-3.084 173.735 173.735 0 01-.158-3.094c-.042-.996-.094-1.93-.136-2.884-.07-.96-.088-1.922-.053-2.884 0-.283 0-.566.053-.839 0-1.049 0-2.024.073-2.968 0-2.423 0-4.856-.178-7.279v-.734c-.07-.96-.088-1.922-.053-2.884-.189-.86-.115-1.625-.01-2.391h.02zm54.39 30.226c.22-.273.43-.567.629-.86a10.862 10.862 0 00-1.154-4.804l3.462-1.919c2.799-1.573 5.247-3.09 7.346-4.551l4.439-3.147c2.365-1.67 4.086-2.93 5.163-3.776l1.501-1.206a32.451 32.451 0 005.635-5.852 47.865 47.865 0 003.988-7.341c1.815-3.996 3.011-6.492 3.567-7.499.221-.41.452-.808.683-1.185a28.734 28.734 0 014.564-5.894l.158-.168c.056.235.126.466.21.692.053.081.113.159.178.23a47.804 47.804 0 00-4.691 8.632c-2.12 4.965-2.879 11.362-2.277 19.193l-.136.073a51.428 51.428 0 01-4.198 3.577 53.855 53.855 0 01-6.663 4.405l-3.484 1.94c-3.831 2.097-7.66 4.195-11.544 6.188a1206.9 1206.9 0 01-7.345 3.723c.042-.189 0-.304-.032-.451zM72.617 173.52c.42.483.913 1.049 1.469 1.647a37.779 37.779 0 006.034 5.621 29.794 29.794 0 005.299 2.559c.189.084.367.158.525.242.318.123.618.289.892.493.357.245.602.622.682 1.048.105.64.189 1.353.262 2.161l-.315.105h-.314c-.4.084-.892.168-1.47.262l-2.885.482a5.811 5.811 0 01-3.516-.262 11.606 11.606 0 01-2.886-1.94c-1.185-1.049-2.098-1.898-2.728-2.423a9.88 9.88 0 00-3.148-1.772 44.292 44.292 0 00-5.772-1.951l-.944-.304-1.396-.503a22.375 22.375 0 01-1.228-.504 11.228 11.228 0 01-1.941-1.196 3.563 3.563 0 01-.504-.471 4.132 4.132 0 01-.808-2.832v-.629l-.294-.21a35.127 35.127 0 01-1.049-.902c-.367-.325-.577-.797-.892-1.248a3.607 3.607 0 010-1.951 20.055 20.055 0 001.26-3.293c.427-1.376.684-2.799.765-4.237v-.262a50.1 50.1 0 00-1.416-13.372 11.866 11.866 0 01-.053-4.363v-.2c.13-.714.217-1.435.263-2.16l.21-2.769a.558.558 0 000-.21 683.59 683.59 0 011.385-4.457c.51-1.559 1.098-3.363 1.763-5.412 1.783-5.411 3.078-9.869 3.882-13.372a70.42 70.42 0 001.05-5.39c.7-.147 1.399-.304 2.098-.472a31.728 31.728 0 01-.157-2.098c-.23-3.681-.43-6.607-.577-8.788a13.645 13.645 0 003.515-2.224c.792-.7 1.496-1.492 2.1-2.36a205.948 205.948 0 00-.106 6.503c0 1.181.053 3.524.157 7.027v.146a13.127 13.127 0 002.677-1.636c-.085.42-.168.839-.263 1.259-.556 2.622-1.154 6.177-1.784 10.697-.63 4.521-1.05 8.443-1.416 11.799-.368 3.356-.976 8.034-1.89 14.264a59.85 59.85 0 00-.681 9.533 44.65 44.65 0 00.682 7.341c.65 3.594 1.315 6.692 1.993 9.293a69.04 69.04 0 00.84 2.884v.178c.084.315.178.629.262.923l.368-.294zm66.95-111.768a3.92 3.92 0 00.21-.378c.178-.304.346-.618.525-.933l.315-.66a.26.26 0 01.052-.169c.42-.765.819-1.51 1.207-2.244a2.87 2.87 0 01.21-.367l.997-1.73a.92.92 0 01.105-.105 30.49 30.49 0 014.197 2.674c1.333 1.049 1.994 1.426 1.994 1.248a9.293 9.293 0 01-1.154 2.947c-.766 1.605-1.344 2.412-1.732 2.412a37.718 37.718 0 01-5.352-2.003l-1.574-.692zm-12.592 33.089a26.715 26.715 0 01-1.281-.556 4.444 4.444 0 00.966-2.59h.052c.105-.567.242-1.311.42-2.255a.582.582 0 010-.22 5.67 5.67 0 01.157-.934l.473.787v3.46a.407.407 0 01-.053.147 4.54 4.54 0 00-.157.85v.052c-.074.346-.137.713-.21 1.05v.335l-.367-.126zm32.583-56.949a25.43 25.43 0 012.204 2.245c.241.262.451.513.629.744l.105.126a8.711 8.711 0 00-6.611 4.75 33.446 33.446 0 00-3.148 22.55 109.082 109.082 0 011.941 15.406A126.887 126.887 0 01141.3 90.48a20.25 20.25 0 011.521-7.625c.242-.566.892-1.909 1.942-4.037a179.796 179.796 0 002.885-6.146c2.099-4.895 3.201-11.013 3.306-18.354a42.259 42.259 0 01.21-4.72 15.627 15.627 0 011.469-5.128 13.925 13.925 0 016.926-6.576zm-23.37 64.626h1.595c1.58.01 3.158-.092 4.722-.304a6.191 6.191 0 01-.545-1.573 271.697 271.697 0 0016.968-4.751c.137 1.71.21 3.356.21 4.96a67.775 67.775 0 01-1.154 11.369c-.63 3.786-1.05 7.079-1.364 9.922a65.474 65.474 0 00.629 19.822c.147.524.273 1.048.389 1.625a46.468 46.468 0 01.136 16.309c-.283 1.95-.808 4.929-1.574 8.914-.766 3.986-1.291 6.901-1.574 8.863a10.062 10.062 0 01-1.05 4.342c-.104.167-.199.335-.293.503a10.386 10.386 0 01-1.207 1.657 6.748 6.748 0 01-5.247 2.559l-1.049-.094-1.837-.315h-.209c0-.178-.073-.357-.105-.524v-1.112c0-.074 0-.598.105-1.573.105-.976.168-2.612.315-4.72 0-.545.074-1.132.105-1.751 0-.462.073-.944.105-1.448.094-1.468.168-2.8.231-4.006.147-2.286.241-4.122.294-5.506v-5.034a95.819 95.819 0 00-.966-11.222c-.115-.745-.241-1.489-.367-2.234-.525-3.209-1.504-7.579-2.938-13.11-1.435-5.53-2.431-9.83-2.991-12.9a89.495 89.495 0 01-1.364-15.731c0-1.06.01-2.035.031-2.937zm-7.167 1.573l.892 8.034a42.57 42.57 0 00.944 5.338c.42 1.748 1.015 4.195 1.784 7.342.525 2.027 1.382 4.789 2.571 8.285 1.294 3.803 2.151 6.425 2.571 7.866.354 1.223.634 2.466.84 3.723a53.207 53.207 0 012.959 25.349 12.12 12.12 0 01-2.099 1.605c-.847.358-1.735.612-2.644.755-1.224.204-2.469.25-3.705.136-.556-.073-1.133-.168-1.731-.262.063-.923.126-1.815.189-2.654a1.472 1.472 0 010-.23c0-.546.073-1.049.105-1.573.052-.808.105-1.574.157-2.287v-.157c.336-4.894.493-7.925.472-9.093 0-4.447-1.871-14.585-5.614-30.415a1118.877 1118.877 0 01-3.064-12.847l2.907-.137-2.099-5.736c.357-.273.735-.546 1.123-.818a25.893 25.893 0 012.644-1.7l.189-.104.609-.42z" fill="#010F1A"/><path fill-rule="evenodd" clip-rule="evenodd" d="M55.25 43.158a28.1 28.1 0 014.407 8.998 90.564 90.564 0 012.309 8.81c.241 1.185.472 2.36.682 3.513v.158c.083.29.135.59.157.891 0 .21.074.43.105.682a45.256 45.256 0 01-1.994-2.307 69.367 69.367 0 00-4.67-5.874 25.044 25.044 0 01-2.675-3.492c-.41-.598-.85-1.259-1.333-2.003a35.299 35.299 0 01-2.78-4.605c.215-.867.55-1.7.996-2.475l.126-.356c.42-.745.819-1.468 1.207-2.203l.157-.21c-.073 0-.818.084-2.256.263l-.65.094c-1.05.147-1.69.22-1.92.22-.158 0-.652-1.3-1.47-3.89-.252-.777-.525-1.69-.84-2.717-1.189-3.936-1.843-6.163-1.962-6.68a1.71 1.71 0 01.052-.472 5.383 5.383 0 011.26-1.05.315.315 0 01.157 0l-.157.19a4.58 4.58 0 00.524 5.086 23.9 23.9 0 003.149 3.461 83.144 83.144 0 014.04 4.09 8.47 8.47 0 003.095 2.413c.116-.21.22-.41.315-.609-.073.042-.052.053-.031.074zM71.673 66v-.115a266.051 266.051 0 00-.525-7.342v-.2a2.866 2.866 0 000-.524v-.136a132.46 132.46 0 00-2.099-17.4 38.78 38.78 0 00-.63-2.569c-.073-.251-.157-.492-.23-.713a9.25 9.25 0 003.85.483 26.604 26.604 0 01-2.623-4.09c-.314-.567-.713-1.311-1.206-2.255l-1.05-1.92c.126-.073.252-.146.368-.23.13-.126.253-.259.367-.399a45.09 45.09 0 012.36 1.972c.515.461.977.88 1.386 1.28 1.7 1.625 2.55 2.716 2.55 3.282a2.233 2.233 0 01-.86 1.646c-.242.204-.498.39-.766.556-1.239.609-2.1 1.05-2.498 1.311.89.398 1.743.871 2.55 1.416 1.5.976 2.256 1.741 2.256 2.308a155.838 155.838 0 01-.84 12.952c-.258 2.244-.555 4.192-.891 5.842A21.704 21.704 0 0171.672 66zm82.093-34.347l1.7 1.887-.126.158a4.008 4.008 0 00-.399.629 17.906 17.906 0 00-2.413 4.3 3.64 3.64 0 000 1.888 4.222 4.222 0 010 1.72c-.392 1.125-2.806 1.6-7.241 1.426a1.42 1.42 0 00-.315.147c-.21.147-.336.262-.367.377-.032.116.503 1.05 1.311 2.465.485.79.822 1.66.997 2.57-.976 1.394-2.172 3.261-3.568 5.6a1.038 1.038 0 01-.157.325.929.929 0 00-.105.105l-.997 1.73c-.079.117-.149.24-.21.368a174.52 174.52 0 01-1.206 2.244.257.257 0 00-.053.189l-.367.681c-.179.315-.347.63-.525.934a3.92 3.92 0 01-.21.377 131.418 131.418 0 00-4.46 9.806 121.622 121.622 0 00-4.827 15.365 283.726 283.726 0 01-.734 2.853 37.57 37.57 0 01-.578 1.972c-.388 1.185-.766 1.782-1.154 1.782h-.21V93.5c.026-.287.078-.572.158-.85a.424.424 0 00.052-.146v-3.409a.861.861 0 00.126.147l.451.692a3.686 3.686 0 001.784-3.146l-.157-4.048c0-.472 0-.934-.053-1.385.284-1.772.557-3.67.84-5.695.073-.66.157-1.342.262-2.097.945-7.37 1.644-12.369 2.099-14.998.525-3.03 1.049-5.516 1.522-7.436a40.873 40.873 0 012.098-6.292c.179-.462.368-.892.578-1.311a34.084 34.084 0 018.709-10.278c.49-.42 1.802-1.469 3.936-3.147 1.049-.88 1.626-1.426 1.626-1.625 0-1.951-.923-2.8-2.781-2.57.257-.282.495-.58.714-.891.315.22.619.44.913.681.513.422.987.889 1.416 1.395a6.576 6.576 0 011.522 3.356c0 .105 0 .231.053.357.052.126.094.503.157.787v.063h.189zm-23.171 11.431a72.767 72.767 0 00-.577 3.346c-.178 1.185-.419 2.475-.545 3.471a50.337 50.337 0 00-2.918 11.117c0 .21-.063.43-.105.65a163.357 163.357 0 00-1.311-16.958l2.99-4.09a6.306 6.306 0 01-1.679-.787 3.97 3.97 0 01-1.364-1.468 22.602 22.602 0 015.698-9.964c1.009.047 2.015.152 3.012.315l.609.073-.661-.073a.146.146 0 01.052.105c.034.03.062.065.084.105-1.658.524-2.592 2.097-2.812 4.824v.21c-.003.176-.02.351-.053.524 0 .87 0 1.95.105 3.251.081.96.081 1.925 0 2.885-.178.797-.346 1.615-.525 2.464zm-2.749.336a5.13 5.13 0 00-.661.87c.174-.261.367-.51.577-.744a.639.639 0 01.084-.126z" fill="#074E72"/><path fill-rule="evenodd" clip-rule="evenodd" d="M62.962 66.209c.21 1.461.483 3.507.819 6.135l-1.763.021-.105-.283a58.359 58.359 0 00-11.7.734l-.892.126a86.58 86.58 0 00.734-10.781v-1.175a29.52 29.52 0 00-.944-7.415c-.21-.807-.651-2.097-1.312-3.996L45.7 43.66c-3.134-4.635-5.88-7.327-8.238-8.075a2.672 2.672 0 00-.388-.105l-.241-.063c.178-.2.367-.451.577-.724a15.52 15.52 0 012.309-2.422c.84-.693 1.857-1.605 3.043-2.717.034.011.07.011.105 0a1.71 1.71 0 00-.053.472c.098.51.752 2.73 1.963 6.66.315 1.049.587 1.94.84 2.716.818 2.59 1.31 3.891 1.468 3.891.158 0 .871-.073 1.92-.22l.651-.095c1.438-.178 2.183-.262 2.257-.262l-.158.21a92.91 92.91 0 01-1.207 2.203l-.157.304a9.654 9.654 0 00-.997 2.475 35.316 35.316 0 002.812 4.53c.483.745.924 1.406 1.333 2.004a25.048 25.048 0 002.676 3.545 69.387 69.387 0 014.67 5.873c.766.944 1.427 1.71 2.078 2.349zm13.852-24.017c-.066.402-.084.81-.052 1.216 0 .273 0 .64.052 1.05.053.408-.073 1.919-.314 4.404-.242 2.486-.504 6.691-.683 12.732 0 .147-.083 1.05-.262 2.79a404.31 404.31 0 00-.157 2.098c-.936.162-1.85.425-2.729.786-.283.126-.566.252-.84.399 0-.598-.073-1.196-.104-1.804a21.702 21.702 0 001.469-4.856c.336-1.643.633-3.59.892-5.842.455-4.237.734-8.554.84-12.952 0-.566-.756-1.332-2.257-2.307a16.79 16.79 0 00-2.55-1.416c.43-.262 1.26-.703 2.498-1.311.268-.167.524-.353.766-.556a2.235 2.235 0 00.86-1.647c0-.566-.85-1.657-2.55-3.282a46.07 46.07 0 00-1.385-1.28 45.19 45.19 0 00-2.36-1.972c.25-.323.461-.675.629-1.048.077-.147.287-.724.63-1.73a4.405 4.405 0 011.857-2.654c.09.122.187.238.294.346l1.94 3.46a.2.2 0 00.053.106c.102.236.19.477.263.723.141.293.264.594.367.902a.557.557 0 000 .21 41.152 41.152 0 011.68 6.555 61.4 61.4 0 01.786 4.562c.073.43.147.913.21 1.437a7.6 7.6 0 01.157.881zm-11.963 67.332c-.42.094-.86.178-1.311.262a31.15 31.15 0 01-7.766.472 21.932 21.932 0 01-7.03-1.689 69.966 69.966 0 01-1.785-15.092v-3.02c0-.619.053-1.238.105-1.856a35.138 35.138 0 0010.757 2.978l1.259-5.034c-4.52.16-8.017-.493-10.494-1.961 2.623-.175 5.23-.41 7.818-.703 1.154-.147 2.308-.304 3.463-.483l.21-.335 3.253-.451a11.44 11.44 0 001.332-1.668c.305 2.906.588 5.884.85 8.915l.284 3.555c0 .116 0 .703.136 1.783 0 .766.105 1.752.179 2.968.147 2.182.346 5.108.577 8.789 0 .734.084 1.427.157 2.098a32.34 32.34 0 01-1.994.472zm9.602-3.881a13.125 13.125 0 01-2.57 1.615v-.147c-.106-3.495-.158-5.838-.158-7.026 0-1.657.035-3.825.105-6.503 0-1.049.063-2.097.105-3.146v-1.647c0-1.3.073-2.412.105-3.356.073-2.36.105-3.629.105-3.838v-.493c1.248.241 2.51.406 3.777.493.385.02.77.02 1.155 0 .094.493.2 1.048.314 1.5.116.45.231 1.048.368 1.573a96.072 96.072 0 002.099 7.498c.23.682.472 1.364.713 2.035l-.21.472a.505.505 0 00-.157.115s0 .084.105.147l-1.133 3.335-.126.388-1.207.43a13.774 13.774 0 01-1.312 3.881 7.753 7.753 0 01-2.025 2.674h-.053zm52.784-17.546l-.577 3.618a4.443 4.443 0 01-.965 2.59l-.294-.136a8.528 8.528 0 00-3.673-.933c-.709.096-1.411.243-2.099.44l-2.686-7.467c.027-3.12.662-6.204 1.868-9.082a23.874 23.874 0 001.165-3.713 47.8 47.8 0 00.703-12.27 76.133 76.133 0 00-.315-4.196 52.423 52.423 0 01-.179-2.17c-.601-7.81.175-14.215 2.33-19.214a47.804 47.804 0 014.691-8.632 4.186 4.186 0 002.917 1.385l.714.063a22.594 22.594 0 00-5.699 9.963 3.972 3.972 0 001.365 1.468 6.277 6.277 0 001.679.787l-2.991 4.09a163.171 163.171 0 011.259 16.98 143.706 143.706 0 00-.944 18.584 9.493 9.493 0 00.524 5.15c.314.935.718 1.838 1.207 2.695zm31.219-51.338c.431.44.798.818 1.134 1.133a13.919 13.919 0 00-6.926 6.555 15.627 15.627 0 00-1.469 5.128 42.259 42.259 0 00-.21 4.72c-.105 7.341-1.207 13.46-3.306 18.353a152.518 152.518 0 01-2.886 6.146c-1.049 2.098-1.7 3.472-1.941 4.038a20.258 20.258 0 00-1.522 7.646 129.053 129.053 0 01-11.438 4.415v.283a6.07 6.07 0 01-.944.284c-.555-.119-1.1-.283-1.627-.493v-.336c.074-.388.137-.755.21-1.049h.21c.388 0 .766-.598 1.154-1.783.137-.409.326-1.049.577-1.971.252-.923.452-1.73.735-2.853a121.616 121.616 0 014.827-15.365 159.059 159.059 0 014.46-9.806l1.627.671a37.66 37.66 0 005.351 2.003c.389 0 .966-.807 1.732-2.412a9.27 9.27 0 001.154-2.947c0 .179-.661-.24-1.994-1.248a30.38 30.38 0 00-4.197-2.674c.071-.099.124-.209.157-.325 1.396-2.34 2.592-4.195 3.568-5.6a7.681 7.681 0 00-.997-2.57c-.808-1.469-1.238-2.297-1.311-2.465-.074-.168.157-.23.367-.378a1.4 1.4 0 01.315-.146c4.442.167 6.856-.308 7.24-1.427a4.188 4.188 0 000-1.72 3.662 3.662 0 010-1.888 17.944 17.944 0 012.414-4.3c.113-.221.246-.432.399-.629l.126-.157c.703.797 1.416 1.605 2.098 2.402l.63.64c.136.01.189.073.283.125zm-16.496 63.923c.11.547.294 1.076.546 1.574a33.593 33.593 0 01-4.722.304h-1.596c-.545 0-1.238-.084-1.815-.158a671.318 671.318 0 007.587-1.72z" fill="#01253D"/><path fill-rule="evenodd" clip-rule="evenodd" d="M54.463 27.72a3.147 3.147 0 002.833 2.192c.19.04.383.068.577.084.506.058 1.014.086 1.522.084h1.889c.008.963-.044 1.927-.157 2.884a15.75 15.75 0 01-3.516.367 7.212 7.212 0 01-7.03-4.72c-.095-.23-.2-.461-.295-.681.205-.134.392-.292.557-.472a1.405 1.405 0 00.293-1.92c1.333 1.406 2.466 2.15 3.327 2.182zm91.139-3.598a1.437 1.437 0 000 1.49 5.152 5.152 0 01-2.33 2.286 13.751 13.751 0 01-6.422 1.647h-1.836l-.871-.074a6.716 6.716 0 01-.158-.42.376.376 0 00-.073-.104.422.422 0 00-.084-.105.147.147 0 00-.016-.058.138.138 0 00-.037-.047l.661.074h1.417l1.679-.284a9.333 9.333 0 001.627-.629 4.204 4.204 0 002.602-3.073 3 3 0 01.409-.23 3.529 3.529 0 002.099 0c.431-.167.852-.36 1.259-.577a.561.561 0 01.074.104z" fill="#C59178"/><path fill-rule="evenodd" clip-rule="evenodd" d="M32.373 43.975c.105-.734.21-1.479.315-2.202a5.484 5.484 0 011.941-3.283 5.134 5.134 0 011.805-.913 3.685 3.685 0 012.047.053 7.724 7.724 0 015.246 5.128 46.174 46.174 0 012.309 21.763 41.757 41.757 0 01-1.364 6.513 4.854 4.854 0 00-.21 2.36 66.516 66.516 0 004.827-.452l.892-.125a58.353 58.353 0 0111.732-.735l.158.231a6.05 6.05 0 011.154 2.916 6.7 6.7 0 01-.157 1.783 20.38 20.38 0 00-2.572.146l-2.413.451a59.484 59.484 0 01-10.074.62c-4.827 0-7.888-1.623-9.182-4.867a9.954 9.954 0 01-.682-3.461c.073-1.122.105-1.72.105-1.783 0-.287.052-2.122.157-5.506.136-3.43.21-5.244.21-5.506a25.236 25.236 0 00-.262-3.514c-.074-.388-.4-1.772-.997-4.195a17.564 17.564 0 00-.525-2.097 5.936 5.936 0 00-1.627-1.951 4.104 4.104 0 00-2.675-1.3l-.158-.074z" fill="url(#paint2_linear)"/><path fill-rule="evenodd" clip-rule="evenodd" d="M32.268 49.9c.158 2.424.21 4.857.179 7.28a53.84 53.84 0 00-.074 2.968 2.883 2.883 0 01-.42-1.752c.21-1.72.336-2.979.368-3.776.031-.797.02-2.454-.053-4.72zM67.16 29.21l1.05 1.919-.473.094c-.514.105-1.122.21-1.836.325a4.774 4.774 0 00-1.731.682c-.305.206-.62.395-.945.566a4.14 4.14 0 01-.63 0l-.923-2.758c.483 0 1.417-.063 2.812-.126a6.3 6.3 0 002.676-.703zm-5.666 14.598c-.42.64-1.05 1.563-1.994 2.79a46.9 46.9 0 00-2.393-3.387 26.726 26.726 0 00-1.123-1.385v-.052c-.136.273-.336.63-.577 1.049v.104a.692.692 0 01-.157-.314c.23-.855.547-1.684.944-2.475.324-.88.71-1.735 1.154-2.56a.892.892 0 01.263-.261l.157.104c.346 1.815 1.595 3.912 3.725 6.293v.094zm2.675-4.551a6.464 6.464 0 012.939-2.307v.419c.016.104.016.21 0 .315a1.044 1.044 0 000 .262 2.19 2.19 0 010 .472c0 .136.073.273.105.409.136.839.315 1.762.524 2.79-.155.235-.295.48-.42.734a5.958 5.958 0 01-2.098 2.464.2.2 0 010-.105 3.415 3.415 0 01-.158-.681h-.052a25.853 25.853 0 01-.735-2.832 7.339 7.339 0 01-.105-1.94zm7.766 51.149a12.486 12.486 0 01-2.256 2.486 13.244 13.244 0 01-3.694 2.307c-.084-1.049-.126-1.668-.136-1.783l-.284-3.556a.806.806 0 01.074-.167c.63-1.143 1.049-1.836 1.049-2.098A6.04 6.04 0 0168.262 86a2.497 2.497 0 011.889-1.049 5.39 5.39 0 01.682 0l.262.063c.252.063.588.168 1.05.315 0 .944-.063 2.097-.105 3.356-.074.63-.095 1.185-.105 1.72z" fill="#E6EBF6"/><path fill-rule="evenodd" clip-rule="evenodd" d="M71.778 67.803a10.93 10.93 0 00-2.624 1.814c-.23-3.93-.37-8.037-.42-12.323.936-3.1 1.08-6.385.42-9.555-.14-.797-.524-2.663-1.154-5.6 0-.178-.073-.357-.105-.525a80.24 80.24 0 01-.524-2.79c-.137-.838-.21-1.551-.21-2.191.367.147.724.283 1.049.388.073.22.157.461.23.713.21.734.42 1.584.63 2.57a132.462 132.462 0 012.1 17.399v.063c.015.174.015.35 0 .524v.2c.21 2.586.384 5.033.524 7.34v.116c.01.661.052 1.259.084 1.857zM70.15 84.95a734.124 734.124 0 00-.262-4.195 64.1 64.1 0 012.099.304c.07.01.14.01.21 0v.493c0 .21 0 1.479-.105 3.839a7.919 7.919 0 00-1.05-.315l-.262-.063a5.402 5.402 0 00-.63-.063z" fill="#4E001A"/><path fill-rule="evenodd" clip-rule="evenodd" d="M67.895 36.895a.515.515 0 01-.21 0h.21z" fill="#D3D9E7"/><path fill-rule="evenodd" clip-rule="evenodd" d="M67.161 71.601l-.808.954a4.67 4.67 0 01-1.68 1.123 9.59 9.59 0 00-.944-1.332 397.617 397.617 0 00-.818-6.136c0-.251-.074-.472-.105-.681a4.416 4.416 0 00-.157-.892v-.157c-.21-1.154-.441-2.329-.682-3.514a94.727 94.727 0 00-2.31-8.81 28.101 28.101 0 00-4.406-8.998c.304-.566.545-1.049.734-1.332.378.43.745.892 1.123 1.385.787 1.048 1.585 2.097 2.393 3.387.108.214.23.421.367.619.388.566 1.553 2.475 3.515 5.726a35.278 35.278 0 001.784 3.45 5.077 5.077 0 001.994 1.972c.332.169.685.292 1.05.367.21-.461.398-.933.576-1.415.05 4.293.19 8.4.42 12.323l-.21.178a1.165 1.165 0 00-1.154-.703 1.05 1.05 0 00-.84.263.966.966 0 00-.42.839l.21.839c.088.203.213.388.368.545zm-.23-9.586a1.417 1.417 0 00-.788.2.88.88 0 00-.367.734c.03.232.121.452.262.64a1.301 1.301 0 001.05.629c.239.012.476-.047.682-.168l.335-.074v-.692a1.112 1.112 0 00-1.154-1.269h-.02zm2.958 18.742c.116 1.804.2 3.22.263 4.195a2.5 2.5 0 00-1.89 1.049 6.044 6.044 0 00-1.52 1.625c-.106.21-.473.902-1.05 2.098a.808.808 0 00-.074.168c-.262-3.031-.545-6.01-.85-8.915.04-.06.074-.124.105-.189l1.165-.105 1.196-.083c.116.01.232.01.347 0 .052.01.105.01.157 0a.943.943 0 00-.472.901c-.017.23.02.459.105.672.004.087.004.175 0 .262l.944.21c.36-.13.683-.341.945-.62.184-.185.295-.43.315-.691 0-.304 0-.504-.105-.567l.42-.01z" fill="#8F0030"/><path fill-rule="evenodd" clip-rule="evenodd" d="M122.095 28.422a56.537 56.537 0 002.204-4.321 8.014 8.014 0 011.805-2.601c.19.804.324 1.62.399 2.444.054.685.159 1.365.315 2.034l-.158.168a28.77 28.77 0 00-4.565 5.894c-.23.378-.461.776-.682 1.185-.556 1.05-1.752 3.503-3.568 7.5a47.773 47.773 0 01-3.987 7.34 32.451 32.451 0 01-5.635 5.853l-1.501 1.206c-1.084.853-2.805 2.111-5.163 3.776l-4.439 3.146c-2.099 1.454-4.547 2.971-7.346 4.552l-3.463 1.919a10.208 10.208 0 00-.367-.556 4.189 4.189 0 00-.63 0c-.335 0-.671 0-1.049-.094l-.315-.672a42.59 42.59 0 005.247-3.408c2.232-1.741 4.4-3.573 6.507-5.496a123.35 123.35 0 015.456-4.72 78.037 78.037 0 012.099-1.677l.609-.483a41.648 41.648 0 003.694-3.345 82.827 82.827 0 004.984-5.538c.535-.65 1.049-1.3 1.574-1.961a120.16 120.16 0 005.457-7.772 106.304 106.304 0 002.518-4.373z" fill="url(#paint3_linear)"/><path fill-rule="evenodd" clip-rule="evenodd" d="M74.821 171.79a2.878 2.878 0 01-.525.451.531.531 0 01-.157.094c-.479.43-.987.826-1.521 1.185l-.368.241c-.084-.293-.178-.608-.262-.923v-.178a72.946 72.946 0 01-.84-2.884c-.7-2.601-1.364-5.698-1.993-9.292a44.662 44.662 0 01-.683-7.342 59.85 59.85 0 01.683-9.533c.916-6.23 1.546-10.984 1.888-14.264a613.68 613.68 0 011.365-11.746c.63-4.52 1.227-8.076 1.784-10.698.094-.419.178-.839.262-1.258a7.753 7.753 0 002.099-2.674 13.776 13.776 0 001.311-3.88l1.207-.43.126-.389v.105a74.326 74.326 0 01-.913 12.292 272.98 272.98 0 01-2.204 12.9 423.579 423.579 0 00-2.308 12.847 73.545 73.545 0 00-.892 7.342c-.315 4.265-.542 8.53-.682 12.795a27.046 27.046 0 001.679 10.488c.383 1.07.82 2.12 1.312 3.146a1.52 1.52 0 01-.21 1.395 1.083 1.083 0 01-.158.21z" fill="url(#paint4_linear)"/><path fill-rule="evenodd" clip-rule="evenodd" d="M123.649 112.901l-4.072.21-12.12.608-9.602-26.67 19.099-.955v.116l2.676 7.446 1.102 3.02h-.137a.53.53 0 01.158 0c-.84.515-2.099 1.406-3.862 2.654-.28.14-.542.276-.787.41a8.06 8.06 0 01-1.679.524 3.633 3.633 0 01-1.417 0 2.928 2.928 0 01-.577 0c-.84-.21-1.259.139-1.259 1.048a2.101 2.101 0 00.892 1.878 31.17 31.17 0 001.994 1.478 23.35 23.35 0 003.462 2.245.505.505 0 01.263.115 8.733 8.733 0 002.308.671 7.043 7.043 0 003.883-.461l.451-.378 2.099 5.737-2.875.304zm13.191-68.17v-.053a4.918 4.918 0 00-.389-2.097c.068-.111.128-.227.179-.347a2.907 2.907 0 000-2.097 4.453 4.453 0 00-1.312-1.93 4.872 4.872 0 00-2.204-1.049 20.461 20.461 0 00-.346 4.321 7.674 7.674 0 00-2.099 1.657c.179-.85.347-1.667.525-2.464a17.31 17.31 0 00-.021-2.916 58.1 58.1 0 01-.105-3.251.516.516 0 00.21 0l1.994-2.538c.44-.587.808-1.049 1.102-1.531.046.229.081.46.105.692.073.556.125 1.426.157 2.622.019.941.26 1.864.703 2.695a.735.735 0 00.157.22l1.312 1.165c1.784-2.937 4.754-5.36 8.92-7.237a10.498 10.498 0 013.358-1.888c.693-.241.965-.598.818-1.048a.152.152 0 010-.074l-.104-.105a11.324 11.324 0 01-.84-1.678c1.857-.23 2.781.619 2.781 2.57 0 .199-.546.744-1.627 1.625l-3.935 3.147a34.088 34.088 0 00-8.71 10.278 9.113 9.113 0 00-.629 1.342v-.031zm-9.025 44.31v-.052l.126.2a.84.84 0 01-.126-.116v-.031z" fill="#EEFCFF"/><path fill-rule="evenodd" clip-rule="evenodd" d="M66.95 62.014a1.113 1.113 0 011.26 1.249v.692l-.262.094a1.22 1.22 0 01-.682.168 1.303 1.303 0 01-1.05-.63 1.363 1.363 0 01-.42-.66.88.88 0 01.368-.734c.24-.135.513-.197.787-.178zm1.995 7.782a7.99 7.99 0 00-.578.609c-.425.374-.828.773-1.206 1.195a1.772 1.772 0 01-.441-.566l-.21-.839a.964.964 0 01.42-.839 1.05 1.05 0 01.84-.262 1.164 1.164 0 011.175.703zm.493 10.887c.073.063.105.262.105.566-.02.26-.131.506-.315.692-.262.278-.585.49-.945.62l-.944-.21a2.548 2.548 0 000-.263 1.51 1.51 0 01-.105-.671.943.943 0 01.472-.902h.504c.294.073.714.105 1.228.168z" fill="#C5245A"/><path fill-rule="evenodd" clip-rule="evenodd" d="M34.734 82.436a3.808 3.808 0 01-.63-.913 26.203 26.203 0 01-.608-2.81 14.313 14.313 0 001.133 3.492c0 .073.074.147.105.23z" fill="#FCD8C9"/><path fill-rule="evenodd" clip-rule="evenodd" d="M48.638 84.584c2.477 1.461 5.975 2.115 10.494 1.961l-1.26 5.034a35.138 35.138 0 01-10.755-2.978 29.443 29.443 0 01-4.408-2.528 5.085 5.085 0 010-1.122 52.56 52.56 0 014.534-.283l1.395-.084z" fill="#005172"/><path fill-rule="evenodd" clip-rule="evenodd" d="M53.655 183.326a7.096 7.096 0 01-2.603 2.852 4.83 4.83 0 00-.42.263l-.787-4.374c0-.273-.084-.493-.105-.65a107.18 107.18 0 01-1.626-16.781v-.262a116.7 116.7 0 011.207-18.196 93.612 93.612 0 012.676-10.886 79.89 79.89 0 002.623-10.918 106.735 106.735 0 001.155-14.096 31.15 31.15 0 007.765-.472c.451-.084.892-.168 1.312-.262a70.44 70.44 0 01-1.05 5.391c-.804 3.496-2.099 7.953-3.883 13.372a582.163 582.163 0 01-1.762 5.411c-.567 1.804-1.05 3.294-1.386 4.458a.552.552 0 010 .209 2.8 2.8 0 000-.734 25.642 25.642 0 00-1.626 5.716 29.81 29.81 0 01-.787 3.031 30.781 30.781 0 00-3.043 12.229v2.59c0 3.342.21 6.68.63 9.995.286 2.056.583 4.118.891 6.188.158.933.325 1.846.525 2.727.2.881.43 1.772.682 2.622a5.253 5.253 0 01-.388.577z" fill="url(#paint5_linear)"/><path fill-rule="evenodd" clip-rule="evenodd" d="M152.391 6.083c.258.464.479.948.661 1.447-.178.095-.346.21-.525.315l-.283.157a13.046 13.046 0 01-4.806 1.259c-.409 0-.829.052-1.259.052a3.95 3.95 0 01-3.044-1.049 24.383 24.383 0 00-.629-.839 2.042 2.042 0 00-.787-.587h-2.781l-1.732.745a6.518 6.518 0 01-2.361.304c-2.098 0-3.463-.504-4.092-1.51a2.535 2.535 0 01-.315-.766 4.739 4.739 0 01-.105-1.049 3.07 3.07 0 01.525-1.416 21.233 21.233 0 015.666-2.339 18.433 18.433 0 013.306-.545h1.049a12.604 12.604 0 019.864 3.566c.242.273.473.556.683.839.209.283.398.556.577.839a.146.146 0 01.052.094v.116h.105c.085.117.162.24.231.367z" fill="url(#paint6_linear)"/><path fill-rule="evenodd" clip-rule="evenodd" d="M134.793 12.25a6.496 6.496 0 00-1.259-.786c-.42-.178-1.291-.514-2.624-1.049a9.228 9.228 0 01-2.308-1.049 3.27 3.27 0 01-.367-3.45 5.47 5.47 0 012.308-2.727c.109-.044.214-.097.315-.157a3.08 3.08 0 00-.525 1.416 4.73 4.73 0 00.105 1.048c.063.271.169.53.315.766.63 1.007 1.994 1.51 4.093 1.51a6.52 6.52 0 002.361-.304l1.731-.745h2.781c.306.13.577.33.787.588.137.168.346.45.63.839a3.946 3.946 0 003.043 1.049c.43 0 .85 0 1.259-.053 1.668-.108 3.3-.535 4.806-1.258l.284-.158c.178-.105.346-.22.524-.314.21.555.399 1.132.578 1.73l-.21.178-.63.504a34.301 34.301 0 01-2.728 1.835 9.831 9.831 0 01-3.096 1.122c-.589.118-1.185.195-1.784.231a15.75 15.75 0 01-6.454-1.143c-.818 0-1.605.094-2.392.157-.525.137-1.039.168-1.543.22zm17.84 7.552a21.602 21.602 0 01-1.05 2.097 20.472 20.472 0 01-1.049 1.573c-.388.525-.588.976-.861 1.364-.219.312-.457.61-.713.891l-.315.294a1.684 1.684 0 01-1.366.6 1.695 1.695 0 01-1.31-.715 1.438 1.438 0 01-.346-1.877l.178-.294.084-.126c.279-.347.525-.72.735-1.112a1.308 1.308 0 000-1.248 1.86 1.86 0 00-2.099-1.049c-.901.254-1.766.624-2.571 1.102a4.353 4.353 0 01-2.099.734c-.524-.105-.703-.808-.524-2.098l-.21-.105a65.22 65.22 0 003.568-1.573 77.594 77.594 0 003.62-1.814 66.74 66.74 0 002.571-1.385 41.54 41.54 0 014.093-2.097l1.049-.451v.954a18.078 18.078 0 01-1.438 6.335h.053z" fill="#040E1A"/><path fill-rule="evenodd" clip-rule="evenodd" d="M139.096 19.927a6.162 6.162 0 01-2.257-1.625 3.785 3.785 0 01-.787-1.678 3.98 3.98 0 010-1.112v-1.091a.264.264 0 010-.157v-.105H136v-.168a.384.384 0 00-.053-.157v-.2a3.447 3.447 0 00-1.101-1.405c.503 0 1.049-.084 1.542-.105.787-.063 1.574-.126 2.393-.157a15.75 15.75 0 006.454 1.143 13.117 13.117 0 001.783-.23 9.828 9.828 0 003.044-1.102 34.304 34.304 0 002.728-1.835l.63-.503.21-.179v.105c.006.077.006.154 0 .23.074.322.127.648.157.976v.053c.007.04.025.076.052.104v.263a.57.57 0 000 .21l.053 1.405-1.049.45a41.54 41.54 0 00-4.093 2.098c-.85.483-1.711.944-2.571 1.385a83.388 83.388 0 01-3.62 1.814 88.83 88.83 0 01-3.463 1.573z" fill="#1F2A38"/><path fill-rule="evenodd" clip-rule="evenodd" d="M150.534 25.59a14.73 14.73 0 00-.913-.681c.316.21.621.438.913.681zm1.417 1.395a6.154 6.154 0 011.574 3.713c0-.126 0-.252-.053-.357a6.583 6.583 0 00-1.521-3.356zm1.815 4.667l-.084-.105v-.083l.084.188zm4.691 5.108a41.14 41.14 0 013.935 4.143 11.1 11.1 0 00-.63-.745 25.28 25.28 0 00-2.203-2.244 31.448 31.448 0 01-1.102-1.154z" fill="#F5F4F4"/><path fill-rule="evenodd" clip-rule="evenodd" d="M132.83 43.368a20.987 20.987 0 01-.115-1.94 20.461 20.461 0 01.346-4.322c.812.157 1.57.518 2.204 1.05a4.453 4.453 0 011.312 1.929 2.907 2.907 0 010 2.097c-.051.12-.111.236-.179.347a3.353 3.353 0 01-1.71 1.227.9.9 0 000-.147c-.42-.042-1.049-.147-1.889-.315l.031.074z" fill="#D61A4E"/><path fill-rule="evenodd" clip-rule="evenodd" d="M127.846 43.42a.69.69 0 00-.084.126 6.783 6.783 0 00-.577.745 5.19 5.19 0 01.661-.87zm4.534 58.554c-.42-.745-.766-1.364-1.05-1.888.305-.115.609-.22.924-.315a23.23 23.23 0 017.261-1.111l.053.063-7.188 3.251z" fill="#242424"/><path fill-rule="evenodd" clip-rule="evenodd" d="M132.715 41.427c0 .63 0 1.28.116 1.94a34.445 34.445 0 00-3.358 6.534c.126-1.048.315-2.097.546-3.471.23-1.374.367-2.297.577-3.346a7.673 7.673 0 012.119-1.657zm4.125 3.335a40.877 40.877 0 00-2.099 6.293 77.994 77.994 0 00-1.522 7.436c-.448 2.622-1.147 7.621-2.099 14.998a45.081 45.081 0 00-.262 2.097 300.649 300.649 0 01-.839 5.695c-.168-5.328-.221-9.373-.158-12.135a52.68 52.68 0 011.679-13.371 33.807 33.807 0 011.679-6.03 28.32 28.32 0 001.553-5.937 3.362 3.362 0 001.648-1.227c.281.662.414 1.378.388 2.097l.032.084z" fill="#C2EDF6"/><path fill-rule="evenodd" clip-rule="evenodd" d="M129.966 81.282c0 .45 0 .912.053 1.384l.157 4.049a3.686 3.686 0 01-1.784 3.146l-.451-.692-.126-.2-.472-.786-.105-.189a15.18 15.18 0 01-1.207-2.643 9.503 9.503 0 01-.525-5.15c-.087-6.208.229-12.416.945-18.584 0-.22.073-.44.105-.65a50.278 50.278 0 012.917-11.117 34.445 34.445 0 013.358-6.534c.84.168 1.469.273 1.889.314a.9.9 0 010 .147 28.32 28.32 0 01-1.553 5.937 33.807 33.807 0 00-1.679 6.03 52.635 52.635 0 00-1.679 13.372c-.063 2.783-.011 6.838.157 12.166z" fill="#FF336B"/><path fill-rule="evenodd" clip-rule="evenodd" d="M131.015 99.507a4.532 4.532 0 01-.472-1.111 16.268 16.268 0 01-.367-1.144 4.004 4.004 0 01-.158-.629c0-.21-.073-.42-.104-.64-.032-.22 0-.545-.053-.807v-.283a133.41 133.41 0 0011.438-4.416 126.936 126.936 0 0013.38-6.764 109.082 109.082 0 00-1.941-15.407 33.446 33.446 0 013.148-22.549 8.711 8.711 0 016.611-4.751h.21a7.19 7.19 0 011.962 2.171 9.804 9.804 0 011.238 3.65h-.23a7.95 7.95 0 00-6.433 3.409c-1.644 2.202-2.694 5.383-3.148 9.544-.455 4.16-.735 7.306-.84 9.439-.039 1.33.014 2.662.158 3.985.146 1.605.398 3.566.734 5.863.137.985.262 1.887.367 2.705.315 2.04.508 4.095.578 6.157.01.104.01.21 0 .314-.357 1.05-2.194 2.392-5.51 3.88-2.154.994-5.54 2.28-10.158 3.86l-1.752.598-7.745 2.675-.913.251z" fill="url(#paint7_linear)"/><path fill-rule="evenodd" clip-rule="evenodd" d="M166.936 55.324c0 .954.094 1.909.147 2.863.154 2.608.322 5.23.504 7.866.314 4.468.664 8.932 1.049 13.393.052.43.094.86.136 1.29a16.755 16.755 0 01-.808 7.551c-1.399 3.629-4.383 6.163-8.951 7.604h-.105a249.143 249.143 0 01-16.968 4.751 366.49 366.49 0 01-7.587 1.699l-.84.178-.682.115-.157-.209-.315-.472 7.188-3.252-.052-.063a23.234 23.234 0 00-7.262 1.112c-.315.095-.619.2-.924.315a15.78 15.78 0 01-.314-.577l.86-.325 7.745-2.674 1.752-.598c4.624-1.574 8.01-2.86 10.158-3.86 3.316-1.49 5.153-2.79 5.509-3.88.01-.105.01-.21 0-.315a51.84 51.84 0 00-.577-6.156c-.105-.818-.231-1.72-.367-2.706-.336-2.297-.588-4.258-.735-5.863a29.147 29.147 0 01-.157-3.985c.105-2.098.385-5.244.839-9.44.455-4.194 1.505-7.376 3.149-9.543a7.935 7.935 0 016.432-3.409h.231c.398 1.314.645 2.669.735 4.038.073 1.259.136 2.308.21 3.147.073.513.126.954.157 1.405z" fill="#062239"/><path fill-rule="evenodd" clip-rule="evenodd" d="M127.343 88.234a5.569 5.569 0 00-.158.933.582.582 0 000 .22c-.178.944-.314 1.689-.419 2.255h-.053l.577-3.618.053.21zm11.858 91.82c-.889.1-1.782.149-2.676.147-.84 0-1.333-.168-1.469-.524a3.817 3.817 0 000-.881c-1.707 0-4.785 1.189-9.235 3.566a18.387 18.387 0 01-2.938 1.416 19.284 19.284 0 01-4.093.944 7.46 7.46 0 01-3.987-.158c-.735-.388-1.05-.786-1.05-1.216 0-.158 0-.315.074-.441.251.184.527.332.818.441h.84a14.921 14.921 0 004.932-.881 35.178 35.178 0 004.827-2.203c.14-.115.3-.204.472-.262 3.044-1.748 4.758-2.709 5.142-2.884a20.425 20.425 0 015.457-1.993 47.976 47.976 0 003.547-.975c.409-.147.777-.283 1.102-.42-.074.304-.137.609-.21.913a46.651 46.651 0 01-1.553 5.411zm-9.969 20.976a2.024 2.024 0 001.311 1.049c.66.253 1.347.429 2.047.524.711.115 1.431.171 2.151.168h.944c.347 0 .704-.094 1.05-.168l.629-.094h.158l.367-.116a11.604 11.604 0 006.296-3.607c.14-.21.35-.493.63-.85.7-1.007 1.749-2.597 3.148-4.772a29.824 29.824 0 014.198-5.338c.332-.401.614-.842.839-1.311l.336-1.426c.28.475.419 1.021.399 1.573a17.834 17.834 0 01-.315 4.719 2.22 2.22 0 01-2.466 1.783 6.63 6.63 0 01-1.732-.304c-1.469 4.293-3.742 7.383-6.821 9.271a17.266 17.266 0 01-9.077 2.213c-2.172 0-3.515-.493-4.04-1.479a1.844 1.844 0 01-.21-1.048c.048-.247.083-.495.105-.745l.053-.042z" fill="#3C3B3B"/><path fill-rule="evenodd" clip-rule="evenodd" d="M131.383 172.242a22.893 22.893 0 01-3.935-1.133l-.682-.283c.178-.85.314-1.741.419-2.706 0-.157 0-.325.053-.503.159-1.968.194-3.944.105-5.916-.315-4.104-.49-7.18-.525-9.229a95.753 95.753 0 00-1.259-14.483c-.735-4.363-1.802-9.1-3.201-14.211-.084-.231-.178-.462-.262-.703a48.964 48.964 0 01-2.519-9.964l4.072-.209c.699 3.125 1.721 7.408 3.064 12.847 3.778 15.865 5.649 26.003 5.614 30.415 0 1.188-.157 4.219-.472 9.093v.157a271.48 271.48 0 00-.157 2.286c0 .504-.074 1.049-.105 1.574a1.472 1.472 0 000 .23 120.05 120.05 0 00-.21 2.738zM120.784 96.73h.053-.053z" fill="url(#paint8_linear)"/><path fill-rule="evenodd" clip-rule="evenodd" d="M143.765 186.316a21.373 21.373 0 01-2.361-.493l-.294-.115a4.725 4.725 0 01-2.361-1.668 3.286 3.286 0 01-.524-1.531 46.61 46.61 0 002.497-7.866c.074-.304.137-.608.21-.912.252-1.227.462-2.475.619-3.723a53.193 53.193 0 00-2.959-25.349 32.066 32.066 0 00-.84-3.724c-.419-1.44-1.276-4.062-2.571-7.865-1.182-3.496-2.039-6.258-2.571-8.286a839.881 839.881 0 01-1.784-7.341 42.554 42.554 0 01-.944-5.339c-.21-1.824-.507-4.502-.892-8.033l.472-.241.21-.095a24.46 24.46 0 012.991-1.311l.157.21.682-.115.84-.179c.577.074 1.175.126 1.815.158v2.905a89.678 89.678 0 001.364 15.731c.525 3.007 1.522 7.307 2.991 12.9 1.469 5.594 2.449 9.964 2.938 13.11.126.745.252 1.49.368 2.234.542 3.719.864 7.466.965 11.222v5.034c0 1.385-.147 3.22-.294 5.506a318.657 318.657 0 01-.231 4.007c0 .503-.073.986-.104 1.447 0 .619-.074 1.206-.105 1.751a519.401 519.401 0 00-.315 4.72c-.074.975-.105 1.5-.105 1.573v1.112c0 .168.073.346.105.524l.031.042z" fill="url(#paint9_linear)"/><path fill-rule="evenodd" clip-rule="evenodd" d="M166.064 195l-.157.094a.565.565 0 01.052-.21s.074.042.105.116z" fill="#837C6E"/><path fill-rule="evenodd" clip-rule="evenodd" d="M127.448 171.108c1.275.494 2.592.874 3.935 1.133.598.094 1.175.189 1.732.262 1.235.114 2.48.068 3.704-.136a11.26 11.26 0 002.644-.756c.756-.456 1.46-.994 2.099-1.604a48.887 48.887 0 01-.619 3.723c-.325.136-.693.273-1.102.42a46.63 46.63 0 01-3.547.975 20.438 20.438 0 00-5.457 1.993c-.384.167-2.098 1.129-5.142 2.884a1.46 1.46 0 00-.472.262 35 35 0 01-4.827 2.202c-1.582.57-3.25.868-4.932.881v-1.783a4.84 4.84 0 011.522-2.485l.367-.399a40.714 40.714 0 014.407-3.817 39.523 39.523 0 015.09-3.356l.598-.399zm13.988 14.683c.777.208 1.566.373 2.361.493h.126l1.837.315 1.049.094a6.753 6.753 0 005.247-2.559c.456-.511.86-1.066 1.207-1.657 0 .168.073.325.105.493.031.168.073.356.105.524v.483c.004.037.023.07.052.094v.524l-.136.525-.336 1.426c-.226.47-.508.91-.84 1.311a29.819 29.819 0 00-4.197 5.338c-1.399 2.168-2.449 3.758-3.148 4.772-.287.357-.497.64-.63.85a11.613 11.613 0 01-6.296 3.608l-.368.115h-.157l-.63.094c-.346.074-.703.126-1.049.168h-.944c-.721.003-1.44-.053-2.152-.168a1.353 1.353 0 01-.105-.262 5.865 5.865 0 01-.104-1.049 11.429 11.429 0 012.025-5.6c.189-.346.409-.692.65-1.049a73.251 73.251 0 012.466-3.366c1.228-1.637 1.994-2.654 2.309-3.031.514-.693 1.039-1.542 1.553-2.455v-.031z" fill="#0D161E"/><path fill-rule="evenodd" clip-rule="evenodd" d="M113.826 182.907a3.33 3.33 0 01-1.28-2.905 6.05 6.05 0 011.417-4.09l1.91-1.269 6.296-4.195a36.987 36.987 0 015.037-2.885c0 .179 0 .347-.052.504a27.838 27.838 0 01-.42 2.706l.682.283-.63.346a39.512 39.512 0 00-5.089 3.356 40.639 40.639 0 00-4.408 3.818l-.367.398a4.848 4.848 0 00-1.521 2.486v1.783h-.84a3.389 3.389 0 01-.735-.336zm18.763 19.791a9.21 9.21 0 01-2.046-.525 2.033 2.033 0 01-1.312-1.049 2.856 2.856 0 01-.21-.839 4.66 4.66 0 01.578-2.569 41.857 41.857 0 015.194-7.918c1.679-2.231 3.008-4.136 3.988-5.716a4.717 4.717 0 002.361 1.667l.294.116a33.844 33.844 0 01-1.606 2.569c-.315.378-1.049 1.395-2.309 3.031a73.748 73.748 0 00-2.466 3.367c-.241.356-.461.702-.65 1.049a11.425 11.425 0 00-2.025 5.6c.003.352.038.703.104 1.049.031.058.066.114.105.168z" fill="#243746"/><path fill-rule="evenodd" clip-rule="evenodd" d="M57.8 203.516h-.346c.182-.87.288-1.754.314-2.643v-.241c0-1.077-.752-2.825-2.256-5.244-1.714-2.552-2.78-4.156-3.2-4.814-.52-.857-.976-1.75-1.365-2.674-.189-.483-.367-.913-.524-1.311l.21-.115a4.61 4.61 0 01.42-.263 7.096 7.096 0 002.602-2.852c.566.839 1.26 1.825 2.099 2.968a44.437 44.437 0 013.568 6.03c.671 1.248 1.437 2.853 2.308 4.793.316.474.547.999.682 1.552v.735a6.687 6.687 0 01-.346 2.464 2.267 2.267 0 01-2.414 1.668l-1.752-.053zm14.817-29.995a13.784 13.784 0 001.522-1.185.531.531 0 00.157-.094c.193-.129.369-.28.525-.451a52.455 52.455 0 009.234 7.949c.586.394 1.22.708 1.89.934.975.283 1.7.493 2.098.64a5.348 5.348 0 013.358 2.412v.23c.023.35.023.7 0 1.049 0 .336 0 .734-.052 1.196a2.908 2.908 0 01-.4.189c-.473.216-.96.402-1.458.556-.545.157-1.123.293-1.763.419a30.466 30.466 0 00-.262-2.16 1.633 1.633 0 00-.682-1.049 3.763 3.763 0 00-.892-.493c-.157-.084-.336-.157-.525-.241a29.93 29.93 0 01-5.3-2.559 37.81 37.81 0 01-5.98-5.716 51.65 51.65 0 01-1.47-1.626zM51.21 161.198v-1.542 1.049c.042.115.02.304 0 .493z" fill="#1B2B38"/><path fill-rule="evenodd" clip-rule="evenodd" d="M56.667 205.435a336.028 336.028 0 01-8.448-3.304v-1.657a7.345 7.345 0 003.62 2.339c.242.064.488.113.735.147.449.118.904.206 1.364.262.263 0 .557.063.861.084h.294c.66.063 1.416.115 2.256.147h2.256a2.271 2.271 0 002.414-1.668 6.69 6.69 0 00.346-2.465v-.608c0 .262.136.818.283 1.657.122.64.192 1.289.21 1.94a2.738 2.738 0 01-1.626 2.927 28.08 28.08 0 01-4.565.199zm34.84-21.479c.115.589.31 1.161.577 1.699.314.63.526 1.306.63 2.003a31.135 31.135 0 01-6.717 1.93 27.503 27.503 0 01-7.03.262 32.807 32.807 0 01-4.985-3.451 27.008 27.008 0 00-5.142-3.366c-.598-.409-1.28-.241-2.099.524-.451.43-.766.703-.945.839a1.324 1.324 0 01-1.154.21c-2.588-.454-4.425-1.29-5.51-2.506a15.74 15.74 0 01-1.31-4.647c0-.388-.085-.776-.106-1.185a24.522 24.522 0 010-3.031l.294.21v.629a4.132 4.132 0 00.808 2.832c.153.173.321.331.504.472a11.29 11.29 0 001.941 1.196c.392.174.801.342 1.228.503l1.396.503.944.305a44.437 44.437 0 015.772 1.95 9.9 9.9 0 013.148 1.773c.63.524 1.542 1.332 2.728 2.422a11.64 11.64 0 002.886 1.941 5.819 5.819 0 003.516.262l2.885-.483a41.47 41.47 0 001.47-.262h.314a21.33 21.33 0 002.099-.524c.498-.154.985-.34 1.459-.556a2.73 2.73 0 00.398-.189c0-.461 0-.86.053-1.195a8.196 8.196 0 00-.105-1.07h.052z" fill="#3D3D3D"/><path fill-rule="evenodd" clip-rule="evenodd" d="M31.901 173.238l-.157-3.356v-1.94l-.21-.944a3.487 3.487 0 00-1.732-2.098l-4.25-2.716a7.108 7.108 0 00-1.889-.839c-.598-.21-1.049.084-1.311.892a9.275 9.275 0 00-.42 1.877v1.594a.576.576 0 01-.052.262v2.098a3.187 3.187 0 01-.42-.357 1.513 1.513 0 01-.525-1.153v-.735a.717.717 0 00-.262.147c-.598.283-.892.65-.892 1.112v.105a1.43 1.43 0 00.84 1.049c.647.334 1.369.5 2.098.482a4.11 4.11 0 002.099-.482 1.243 1.243 0 00.84-1.049v-.105a1.265 1.265 0 00-.84-1.112l-.105-.094a.394.394 0 00-.21 0v.734a1.577 1.577 0 01-.472 1.154c-.27.235-.595.397-.945.472v-3.986c.242-1.049.714-1.3 1.417-.734v2.307c.259.069.506.175.735.315a1.67 1.67 0 01.892.996.705.705 0 01.104.409 1.752 1.752 0 01-1.049 1.311 5.24 5.24 0 01-4.827 0 1.753 1.753 0 01-1.05-1.363.963.963 0 01.21-.629c.196-.34.488-.613.84-.787.238-.122.484-.23.734-.325v-2.674a3.416 3.416 0 011.207-2.717c.766-.839 1.89-.912 3.358-.209a.417.417 0 01.158 0l5.456 3.314c.879.35 1.604 1 2.047 1.835l.577 3.293v2.528c.216.089.426.19.63.304.457.204.816.581.996 1.049v.503a1.788 1.788 0 01-.976 1.185 4.751 4.751 0 01-1.364.472c-.346.065-.697.1-1.05.105a4.812 4.812 0 01-2.413-.577l-.294-.189a1.583 1.583 0 01-.755-1.174v-.063a1.634 1.634 0 011.05-1.405c.259-.153.543-.26.839-.315a1.05 1.05 0 00-.367.157 1.359 1.359 0 00-.84 1.154 1.372 1.372 0 00.84 1.164 4.41 4.41 0 001.993.409 3.863 3.863 0 002.1-.409 1.511 1.511 0 00.839-1.164 1.354 1.354 0 00-.84-1.154h-.388l-.21-.115v.314a1.583 1.583 0 01-.472 1.165 1.562 1.562 0 01-1.207.524l-.105.178zm-7.818 17.83a268.516 268.516 0 01-6.453-3.43v-5.621l6.506 3.618v5.422l-.053.011zm-2.676-1.595v-3.733l-1.364-.787v3.734l1.364.786z" fill="#E99F40"/><path fill-rule="evenodd" clip-rule="evenodd" d="M30.275 171.193v.356a1.52 1.52 0 00.524 1.165c.233.267.546.451.893.524h.104a.588.588 0 01.105.147v-.147h.105a1.566 1.566 0 001.207-.524 1.582 1.582 0 00.472-1.165v-.314l.21.115h.053a1.359 1.359 0 01.84 1.154 1.511 1.511 0 01-.84 1.164 3.862 3.862 0 01-2.1.409 4.41 4.41 0 01-1.993-.409 1.372 1.372 0 01-.84-1.164 1.353 1.353 0 01.84-1.154 1.04 1.04 0 01.42-.157zm-8.448-3.052c.23.11.48.167.735.168.104.016.21.016.315 0 .35-.075.675-.237.944-.472a1.576 1.576 0 00.472-1.154v-.734a.394.394 0 01.21 0l.105.094a1.272 1.272 0 01.84 1.112v.105a1.235 1.235 0 01-.84 1.049 4.11 4.11 0 01-2.099.482 4.346 4.346 0 01-2.098-.482 1.445 1.445 0 01-.84-1.049v-.105c0-.461.294-.828.892-1.112a.717.717 0 01.262-.147v.735a1.509 1.509 0 00.525 1.153c.18.14.373.259.577.357z" fill="#944B1A"/><path fill-rule="evenodd" clip-rule="evenodd" d="M39.51 184.721l5.824-3.21.577.325-6.664 3.724c.072-.285.16-.565.263-.839zm6.453-6.975a2.99 2.99 0 00-1.626.157l-9.025-5.306a1.896 1.896 0 00-.997-1.049 5.882 5.882 0 00-.63-.304v-.577l4.639 2.695 7.64 4.384zm-38.355-8.39l-.052-.094v-.116a10.253 10.253 0 011.469-4.814 9.99 9.99 0 013.568-3.681c.447-.25.922-.444 1.417-.577a2.867 2.867 0 012.15.199l4.776 2.832v1.049l-4.775-2.821a2.815 2.815 0 00-2.151-.21 5.72 5.72 0 00-1.417.577 9.583 9.583 0 00-3.515 3.671 11.223 11.223 0 00-1.47 4.027v-.042zm16.686-4.29l5.981 3.461v1.049l-4.355-2.506a1.67 1.67 0 00-.892-.997 2.736 2.736 0 00-.734-.314v-.693zm13.904 23.808v-1.311l.892-.588v1.311l-.892.588zm6.139.147a2.284 2.284 0 00-.472.22l-2.1 1.206c-.511.27-.945.667-1.258 1.154v-2.989l3.83-2.213v2.622zm-.42 3.146l-2.204 1.258v-.933a.188.188 0 010-.115l2.1-1.196h.052l.052.986zm-4.827 14.274l6.013-3.461 1.7.703-7.713 4.478v-1.72z" fill="#CF0A51"/><path fill-rule="evenodd" clip-rule="evenodd" d="M45.963 177.747a2.685 2.685 0 012.151 2.832c.019.244.019.49 0 .734v22.818l-.944-.398v-22.63a2.738 2.738 0 00-1.05-2.265l-.21-.095a.185.185 0 00-.157-.052h-.105a.19.19 0 00-.157-.063h-.21a3.38 3.38 0 00-1.731.587 6.466 6.466 0 00-1.333.965 9.842 9.842 0 00-1.92 2.381 8.645 8.645 0 00-.892 2.161 7.625 7.625 0 00-.263.839 6.877 6.877 0 00-.157 1.457l-.892.588v-.588c.002-.294.02-.588.052-.881a2.595 2.595 0 01.105-.744c0-.147.063-.294.105-.441.25-1 .638-1.96 1.154-2.852a11.44 11.44 0 011.858-2.423 8.37 8.37 0 011.71-1.248c.25-.164.513-.304.787-.42l.368-.105a2.981 2.981 0 011.731-.157zm-15.373-2.936a4.58 4.58 0 01-1.155-.472 2.388 2.388 0 01-.314-.221 1.433 1.433 0 01-.735-1.195 1.59 1.59 0 00.756 1.174l.293.189c.74.4 1.573.599 2.414.577.352-.005.703-.04 1.05-.105a4.751 4.751 0 001.364-.472 1.792 1.792 0 00.975-1.185 1.74 1.74 0 01-.975 1.238 5.079 5.079 0 01-1.28.472 7.357 7.357 0 01-1.186.094 7.992 7.992 0 01-1.207-.094zm-4.565-7.195c0 .524-.346.986-1.05 1.374a5.34 5.34 0 01-4.827 0 1.662 1.662 0 01-1.05-1.427 1.765 1.765 0 001.05 1.364 5.252 5.252 0 004.828 0 1.753 1.753 0 001.049-1.311zm13.065 32.603l-.892-.388v-10.935l.87-.556.022 11.879zm0 .266v7.75l7.713-4.478 1.259.493-9.864 5.674v-9.817l.892.378z" fill="#F51969"/><path fill-rule="evenodd" clip-rule="evenodd" d="M17.63 183.934L7.607 169.398a11.235 11.235 0 011.417-3.975 9.596 9.596 0 013.515-3.671c.444-.254.92-.448 1.417-.576a2.824 2.824 0 012.15.209l4.776 2.822v1.573a7.073 7.073 0 00-.735.325 1.98 1.98 0 00-.84.786 3.368 3.368 0 00-1.626 2.675c0 .93 1.749 2.311 5.247 4.143a63.394 63.394 0 003.725 1.803 53.46 53.46 0 001.68.703 6.762 6.762 0 001.626-1.049c.18-.153.373-.29.577-.409a7.925 7.925 0 002.445 0 5.003 5.003 0 001.28-.472 1.741 1.741 0 00.976-1.237v-.504l9.025 5.307-.367.105a4.883 4.883 0 00-.788.42 8.37 8.37 0 00-1.71 1.248 11.46 11.46 0 00-1.857 2.422 11.027 11.027 0 00-1.155 2.853c0 .147-.073.294-.105.441a2.59 2.59 0 00-.105.744c-.032.293-.05.587-.052.881v.587H24.975v-2.422l-6.506-3.671-.84.472v2.003zm28.333-2.097v21.371c-2.309-.965-4.6-1.955-6.874-2.968v-13.222c0-.491.054-.979.158-1.458l6.663-3.723h.053zm-1.627 7.226v-2.622l-3.83 2.213v2.989a.856.856 0 00-.126.209 3.565 3.565 0 00-.399 1.72v2.423c0 1.364.599 1.71 1.784 1.049l2.1-1.259.23-.136a3.38 3.38 0 001.05-1.101c.314-.552.47-1.18.45-1.815v-2.401c0-1.196-.42-1.615-1.259-1.269zm-2.623 4.457l2.203-1.259v1.479h-.052l-2.099 1.217-.052-1.437zm-2.624 6.985c1.994.881 3.988 1.73 6.013 2.569l-6.013 3.461v-6.03z" fill="#9A0038"/><path fill-rule="evenodd" clip-rule="evenodd" d="M45.386 178.628c.424.578.629 1.288.577 2.003v1.206l-.577-.325-5.824 3.209a8.638 8.638 0 01.892-2.16 9.842 9.842 0 011.92-2.381 6.395 6.395 0 011.333-.965 3.367 3.367 0 011.68-.587zm-7.188 10.288H25.5v2.853l-.944-.493.42-.419v-3.252h13.222v1.311zm-30.59-19.518l10.022 14.537v3.67l-.525-.293v-2.444l-9.55-13.729v-1.185c.003-.186.02-.372.053-.556z" fill="#26000E"/><path fill-rule="evenodd" clip-rule="evenodd" d="M28.386 172.923a1.435 1.435 0 00.734 1.195c.099.082.204.156.315.221.361.21.75.368 1.154.472a4.005 4.005 0 00-.577.409 6.726 6.726 0 01-1.627 1.048 56.982 56.982 0 01-1.679-.702 64.052 64.052 0 01-3.725-1.804c-3.533-1.825-5.282-3.206-5.247-4.143a3.36 3.36 0 011.627-2.674.963.963 0 00-.21.629A1.667 1.667 0 0020.2 169a5.328 5.328 0 004.826 0c.704-.388 1.05-.849 1.05-1.373a.702.702 0 00-.105-.409l4.355 2.506v1.479c-.296.055-.58.161-.84.315a1.63 1.63 0 00-1.049 1.405h-.052zm18.888 30.81l-1.259-.525v-22.577a3.019 3.019 0 00-.577-2.003h.21a.195.195 0 01.157.063h.105a.176.176 0 01.157.053l.21.094a2.733 2.733 0 011.05 2.265v20.63l-.053 2zm-9.024-3.881a310.402 310.402 0 01-12.698-6.083v-4.852h12.645l.053 10.935zm0 8.142L10.02 192c-.944-.765-1.5-1.237-1.679-1.405a3.817 3.817 0 01-.787-2.465v-3.912l2.026 1.175 1.7 1.049a294.517 294.517 0 0026.916 13.665v7.887h.053zM7.608 181.775V171.14l9.55 13.728v4.444c-1.606-.891-3.149-1.793-4.776-2.706l-.682-.388a135.065 135.065 0 01-4.145-2.443l.053-2z" fill="#660025"/><path fill-rule="evenodd" clip-rule="evenodd" d="M31.9 173.238v.147a.583.583 0 00-.104-.147h-.105a1.623 1.623 0 01-.892-.525 1.516 1.516 0 01-.525-1.164v-2.978l-.105-1.049a1.748 1.748 0 00-.524-.933.264.264 0 01-.21-.063l-5.142-3.031c-.703-.567-1.176-.315-1.417.734v3.985a1.04 1.04 0 01-.315 0c-.254 0-.505-.057-.734-.168v-2.097a.576.576 0 00.052-.262v-1.574a9.298 9.298 0 01.42-1.877c.283-.807.713-1.049 1.312-.891a7.077 7.077 0 011.889.839l4.25 2.716a3.493 3.493 0 011.731 2.098l.21.944v1.961l.21 3.335zm8.606 18.406a3.37 3.37 0 011.259-1.154l2.099-1.206c.148-.091.307-.165.472-.22.84-.346 1.26.073 1.26 1.269v2.402a3.45 3.45 0 01-.473 1.814c-.261.442-.62.819-1.05 1.101l-.23.137-2.099 1.258c-1.186.661-1.784.315-1.784-1.049v-2.422a3.564 3.564 0 01.399-1.72.853.853 0 01.147-.21zm1.206 1.877V195l2.1-1.217h.052v-2.464h-.053l-2.099 1.195a.191.191 0 000 .116v.891zm-16.79-5.915h-.787v-1.972l-6.453-3.628.84-.472 6.505 3.67-.105 2.402z" fill="#FFD299"/><path fill-rule="evenodd" clip-rule="evenodd" d="M38.197 209.945l-30.642-17.42v-4.394c-.032.888.246 1.76.787 2.464.179.168.735.64 1.68 1.406l28.175 15.994v1.95z" fill="#000508"/><path fill-rule="evenodd" clip-rule="evenodd" d="M30.17 167.564a1.449 1.449 0 00-.525-.829.724.724 0 01-.21-.105l-5.141-3.041 5.142 3.031a.263.263 0 00.21.063c.258.235.441.541.524.881z" fill="#723A1A"/><path fill-rule="evenodd" clip-rule="evenodd" d="M7.608 169.399c-.032.184-.05.37-.052.556v-.65l.052.094z" fill="url(#paint10_linear)"/><path fill-rule="evenodd" clip-rule="evenodd" d="M24.136 191.036v-3.43h.892v3.272l-.42.42-.472-.262zm-2.676-1.594l-1.364-.787v-3.734l1.364.787v3.734z" fill="#C17643"/><defs><linearGradient id="paint0_linear" x1="56.174" y1="13.561" x2="56.383" y2="1.584" gradientUnits="userSpaceOnUse"><stop stop-color="#723F18"/><stop offset="1" stop-color="#AC6630"/></linearGradient><linearGradient id="paint1_linear" x1="68.682" y1="55.46" x2="111.287" y2="55.46" gradientUnits="userSpaceOnUse"><stop stop-color="#01253D"/><stop offset="1" stop-color="#185076"/></linearGradient><linearGradient id="paint2_linear" x1="1205.94" y1="2909.28" x2="2575.44" y2="3495.34" gradientUnits="userSpaceOnUse"><stop stop-color="#01253D"/><stop offset="1" stop-color="#185076"/></linearGradient><linearGradient id="paint3_linear" x1="4790.35" y1="2389.74" x2="5245.17" y2="3935.27" gradientUnits="userSpaceOnUse"><stop stop-color="#01253D"/><stop offset="1" stop-color="#185076"/></linearGradient><linearGradient id="paint4_linear" x1="54111.9" y1="12958.5" x2="53863.6" y2="13885" gradientUnits="userSpaceOnUse"><stop stop-color="#01253D"/><stop offset="1" stop-color="#185076"/></linearGradient><linearGradient id="paint5_linear" x1="54103.7" y1="12139.6" x2="53703.3" y2="13633" gradientUnits="userSpaceOnUse"><stop stop-color="#01253D"/><stop offset="1" stop-color="#185076"/></linearGradient><linearGradient id="paint6_linear" x1="141.793" y1="9.396" x2="141.634" y2=".168" gradientUnits="userSpaceOnUse"><stop stop-color="#1F2A38"/><stop offset="1" stop-color="#535E7E"/></linearGradient><linearGradient id="paint7_linear" x1="5527.07" y1="3965.25" x2="6407.84" y2="6564.29" gradientUnits="userSpaceOnUse"><stop stop-color="#01253D"/><stop offset="1" stop-color="#185076"/></linearGradient><linearGradient id="paint8_linear" x1="1542.4" y1="7919.79" x2="4037.83" y2="8911.6" gradientUnits="userSpaceOnUse"><stop stop-color="#01253D"/><stop offset="1" stop-color="#185076"/></linearGradient><linearGradient id="paint9_linear" x1="2188.11" y1="9031.49" x2="6173.61" y2="11827.2" gradientUnits="userSpaceOnUse"><stop stop-color="#01253D"/><stop offset="1" stop-color="#185076"/></linearGradient><linearGradient id="paint10_linear" x1="-532.204" y1="112.334" x2="-532.996" y2="113.69" gradientUnits="userSpaceOnUse"><stop stop-color="#723F18"/><stop offset="1" stop-color="#AC6630"/></linearGradient></defs></svg>