<svg width="100" height="79" fill="none" xmlns="http://www.w3.org/2000/svg"><path fill-rule="evenodd" clip-rule="evenodd" d="M28.318 35.542h-.105a6.863 6.863 0 01-3.918-1.625 2.412 2.412 0 01-.732-2.779 4.63 4.63 0 012.926-2.306 10.623 10.623 0 014.337-.472h.104c1.44.13 2.807.697 3.919 1.625a2.506 2.506 0 01.731 2.83 4.505 4.505 0 01-2.873 2.255 9.635 9.635 0 01-4.39.472z" fill="#980000"/><path fill-rule="evenodd" clip-rule="evenodd" d="M24.138 36.433c.543.18 1.103.303 1.672.367a5.299 5.299 0 012.142.262c.88.422 1.845.638 2.821.63l-4.963 7.967-2.142-2.568-4.441 1.205 4.91-7.863z" fill="url(#paint0_linear)"/><path fill-rule="evenodd" clip-rule="evenodd" d="M86.468 26.683l-1.306.734-12.54-7.811 1.36-.734 12.486 7.81zm3.24-1.887l-1.254.734-12.592-7.707 1.254-.733 12.591 7.706zm-6.584 3.774l-1.253.734-12.54-7.758 1.254-.734 12.54 7.758zm-37.617 2.307l-1.306.681-12.226-7.654 1.254-.733 12.278 7.706zm3.71 2.254l1.253-.734 12.54 7.81-1.255.735-12.539-7.811zm-.314-4.194l-1.306.734-12.33-7.654 1.253-.734 12.383 7.654zm3.918 2.097l1.254-.734 12.54 7.758-1.254.734-12.54-7.758zm3.344-1.94l1.306-.681 12.54 7.758-1.254.787-12.592-7.864zM38.453 20.13l1.255-.734 12.33 7.706-1.254.734-12.33-7.706zm4.912-2.83l1.254-.682 12.12 7.549-1.305.681-12.07-7.549zm27.168-.787l-1.306.734-12.33-7.706 1.254-.734 12.382 7.706zM67.189 18.4l-1.306.734-12.382-7.601 1.306-.734L67.189 18.4zm-7.785 8.912l1.254-.734 12.54 7.759-1.254.733-12.54-7.758zm.889-4.98l-1.306.786L46.76 15.36l1.306-.682 12.226 7.654zm5.485 1.258l1.254-.681 12.54 7.758-1.254.734-12.54-7.811zm-3.134 1.887l1.254-.734 12.539 7.759-1.306.786-12.487-7.81zm.992-4.98l-1.306.734-12.434-7.706 1.254-.682 12.486 7.654zm-3.552-12.79l1.253-.735 12.33 7.706-1.253.682-12.33-7.654zm-11.756 40.94l-1.306.735-12.54-7.811 1.307-.734 12.54 7.81zm-3.605 2.098l-1.306.733-12.54-7.758 1.307-.734 12.54 7.759zm-3.657-12.896l1.254-.682 12.539 7.759-1.254.734-12.54-7.811zm4.911-2.831l1.254-.734 12.54 7.81-1.255.682-12.539-7.758zm-8.098 4.613l1.254-.734 12.539 7.811-1.306.734-12.487-7.81z" fill="#928B7C"/><path fill-rule="evenodd" clip-rule="evenodd" d="M97.44 29.461L41.484 61.648l-.157-.084L97.41 29.356v.137-.105l.031.073zM57.242 2.778L62.069 0 100 23.695 40.491 57.926 11.703 39.977l11.181-4.068h.052c.38.208.783.366 1.202.472l-4.911 7.863 4.44-1.206 2.143 2.57 4.963-7.864h.21a4.408 4.408 0 002.768-.577h.053c.373-.332.776-.63 1.201-.891a8.343 8.343 0 011.254-.42 4.443 4.443 0 001.045-.419 2 2 0 00.68-.734c.175-.379.194-.812.052-1.205-.105-.241-.126-.399-.053-.472h.053c.318-.151.589-.387.783-.682a2.54 2.54 0 00.418-1.048 1.557 1.557 0 00-.94-1.73 11.385 11.385 0 00-1.62-.577 6.623 6.623 0 01-1.463-.524l-.731-.786a5.57 5.57 0 00-1.463-1.049 4.565 4.565 0 00-2.665-.629 5.065 5.065 0 00-3.082.734l-1.045.682c-.37.215-.778.358-1.202.42l-1.985.261v.053c-.413.07-.806.23-1.15.471-1.253.703-1.776 1.363-1.567 1.992v.053c.292.344.554.712.784 1.1L7.315 36.8l4.806.577-.857 2.338-8.704-5.431.993-.577 35.319-20.34 18.37-10.589zM.105 37.744v-.053l.156-.104 2.247-1.363v2.726l2.612 1.646-5.015-2.852zm89.603-12.896l-12.54-7.758-1.254.733 12.592 7.759 1.202-.734zm-3.24 1.887l-12.487-7.863-1.306.734 12.54 7.81 1.253-.68zm-3.344 1.887l-12.539-7.758-1.254.734 12.54 7.758 1.254-.734zM60.136 7.758l12.33 7.654 1.202-.734-12.33-7.706-1.202.786zm3.448 12.791l-12.382-7.706-1.254.682 12.33 7.706 1.306-.682zm-.992 4.98l12.434 7.759 1.306-.786-12.539-7.759-1.201.787zm3.134-1.887l12.54 7.811 1.253-.734-12.539-7.758-1.254.681zm-5.486-1.258l-12.173-7.706-1.306.682 12.226 7.758 1.253-.734zm-.888 4.98l12.54 7.759 1.253-.734-12.539-7.759-1.254.734zm7.785-8.911l-12.33-7.654-1.306.734 12.33 7.601 1.306-.681zm3.344-1.888L58.15 8.807l-1.254.734 12.278 7.706 1.306-.682zm-27.116.734l12.069 7.549 1.306-.681-12.121-7.55-1.254.682zm-4.911 2.831l12.33 7.706 1.254-.734-12.33-7.706-1.254.734zm17.659 9.017l12.54 7.81 1.253-.786-12.435-7.758-1.358.734zm-3.344 1.94l12.54 7.758 1.253-.734-12.539-7.706-1.254.681zm-3.918-2.098l-12.278-7.758-1.254.734 12.226 7.706 1.306-.682zm.313 4.194l12.54 7.811 1.253-.734-12.539-7.81-1.254.733zm-3.71-2.306L33.178 23.17l-1.254.733 12.226 7.654 1.306-.681zM37.88 39.63l12.54 7.81 1.305-.733-12.539-7.81-1.306.733zm8.098-4.666l12.54 7.811 1.305-.734-12.539-7.81-1.306.733zm-4.911 2.831l12.54 7.811 1.253-.734-12.54-7.758-1.253.681zm3.657 12.896l-12.539-7.706-1.306.734 12.54 7.758 1.305-.786zm3.605-2.097L35.79 40.89l-1.306.734 12.54 7.759 1.305-.787z" fill="#FFFBF0"/><path fill-rule="evenodd" clip-rule="evenodd" d="M41.484 61.649L97.44 29.46v4.09L41.536 65.736l-.052-4.088zm54.65-23.38l1.306-.598v8.935c-.783-.998-2.873-5.716-3.396-7.006l2.09-1.331zM2.56 34.284l8.704 5.431-.188.493.627-.23 28.788 17.949-.313 4.298L5.12 40.595 2.456 38.95v-2.726l.104-1.625v-.315zM48.182 70.2c-2.132.084-4.389.2-6.541.257l-.105-.646L94.044 39.6s.271.647.718 1.672c.446 1.025.58 1.29.58 1.29l-47.16 27.637zm7.722-.477l25.998-14.836c-.065.299 12.822-7.78 15.277-8.754.098.213.238.433.261.474L57.733 69.774l-1.829-.052zm0 0l1.829.052L41.693 79v-1.048l14.211-8.23zm-14.263.734l6.507-.257-6.507 3.716v-3.46z" fill="#DCD5C1"/><path fill-rule="evenodd" clip-rule="evenodd" d="M11.703 39.977l-.627.23.188-.492.857-2.338-4.806-.577 13.845-5.085a.79.79 0 01.104.367c.19.724.33 1.46.418 2.202a2.596 2.596 0 001.202 1.625l-11.18 4.068z" fill="url(#paint1_linear)"/><path fill-rule="evenodd" clip-rule="evenodd" d="M97.44 29.272L41.327 61.564l.157.084v4.089L.104 41.78v-4.037l5.016 2.905 35.058 21.576.313-4.298 59.561-34.232-.313 3.565v.786l-2.3 1.227zM41.588 70.455c-1.985 0-3.98.084-5.977.105L0 50.01l.052-4.194h.052l41.38 24.01h.104l-.104-4.09L97.44 33.55v4.089l-3.396 1.96c-2.09 1.29-3.096 2.057-5.747 3.387-1.045.524-2.09 1.049-3.522 1.94L41.588 69.772v.682zM97.44 45.697c0 .213-.005.618 0 .67L55.695 69.878c-2.56.147-5.13.262-7.712.367L97.44 40.89c0 .252.02 2.114 0 2.386v1.08a3.851 3.851 0 000 .57v.772zM41.588 70.455l.032 3.46h-.157L35.61 70.56l5.977-.105zm.032 3.46l6.363-3.67c2.56-.084 5.194-.252 7.712-.367l-14.023 8.073V79L26.99 70.612l1.846-.052 12.626 7.496.209-.105-.052-4.036zM0 54.099l28.837 16.46-1.846.053L0 55.2v-1.1z" fill="#C5B995"/><path fill-rule="evenodd" clip-rule="evenodd" d="M30.773 37.744a6.398 6.398 0 01-2.821-.629 5.303 5.303 0 00-2.142-.262 8.341 8.341 0 01-1.672-.367 5.11 5.11 0 01-1.15-.524h-.052a2.582 2.582 0 01-1.201-1.625 16.141 16.141 0 00-.418-2.202.788.788 0 00-.105-.367 8.005 8.005 0 00-.784-1.1v-.053c-.209-.63.314-1.29 1.568-1.992a2.83 2.83 0 011.15-.472v-.052l1.932-.315a3.335 3.335 0 001.202-.42l1.045-.68a5.065 5.065 0 013.082-.735 2.37 2.37 0 00-.679.105 4.702 4.702 0 00-1.828.63c-.33.202-.645.43-.94.68-.374.22-.78.38-1.202.472H25.6l-1.62.263h-.104l-.261.052a5.31 5.31 0 00-1.098.472c-1.15.66-1.64 1.29-1.463 1.887.391.425.693.924.889 1.468l.418 2.201a2.596 2.596 0 001.201 1.626l.157.104h.157c.116.07.239.13.365.179a6.43 6.43 0 002.508.66 5.926 5.926 0 012.038.262c.713.322 1.47.534 2.247.63l-.262.104zM27.43 27.47a3.836 3.836 0 01-.941.262.647.647 0 01.261-.105l.262-.053.888-.472c.268-.19.547-.366.836-.524a1.47 1.47 0 011.41-.105c.21.105.24.19.105.263-.19.037-.385.037-.575 0-.511.07-1.006.23-1.463.471l-.784.262zm-2.352.629h.053s-.366.104-.993.314a6.883 6.883 0 00-1.097.42c-.446.236-.81.601-1.045 1.048a4.992 4.992 0 000 .996c.063.221.08.453.052.681h-.052l-.575-1.153a1.22 1.22 0 01.68-1.468 5.11 5.11 0 011.201-.472l1.776-.366zm3.135 7.758a3.695 3.695 0 00-.47-.052 8.032 8.032 0 01-4.232-1.783 2.516 2.516 0 01-.784-2.988 5.007 5.007 0 013.135-2.464 10.157 10.157 0 015.173-.471 10.2 10.2 0 00-4.807.524 5.032 5.032 0 00-3.135 2.411 2.576 2.576 0 00.836 2.988 6.874 6.874 0 004.284 1.783v.052zm.105-.315a9.637 9.637 0 004.388-.471 4.488 4.488 0 002.874-2.255 2.514 2.514 0 00-.731-2.83 7.115 7.115 0 00-3.919-1.625h.418a7.532 7.532 0 013.97 1.73 2.38 2.38 0 01.732 2.725 4.265 4.265 0 01-2.873 2.307 10.09 10.09 0 01-4.86.42zm-5.852-2.096c.217.23.393.496.522.786.165.47.476.875.889 1.153l.731.262c.174.105.174.21 0 .315a.697.697 0 01-.68 0 3.028 3.028 0 01-1.2-1.468 9.234 9.234 0 01-.262-1.048z" fill="#820000"/><path fill-rule="evenodd" clip-rule="evenodd" d="M37.722 29.723a1.046 1.046 0 01.624 1.19c-.034.16-.104.308-.206.435-.223.394-.548.72-.94.944l-.053.052.732-.943c.24-.703-.073-1.29-.94-1.782l-1.307-.577c-.073 0-.073-.053 0-.053.36.034.712.122 1.045.262.36.131.709.29 1.045.472zm-6.74 8.02a7.765 7.765 0 01-2.246-.628 5.928 5.928 0 00-2.038-.262 6.43 6.43 0 01-2.508-.66 6 6 0 002.142.45 7.625 7.625 0 012.142.315 4.981 4.981 0 004.703 0 6.006 6.006 0 011.254-.84c.41-.219.85-.378 1.306-.471.341-.091.674-.214.992-.367.27-.162.488-.398.627-.681.158-.387.158-.82 0-1.206-.104-.315-.073-.503.105-.577a2.29 2.29 0 00.731-.629c.191-.308.332-.644.418-.996a1.671 1.671 0 00-.94-1.677c-.491-.227-.998-.42-1.515-.577a8.193 8.193 0 01-1.568-.472l-.783-.734a7.18 7.18 0 00-1.411-1.048 4.168 4.168 0 00-2.77-.577c.22-.068.45-.103.68-.105a4.564 4.564 0 012.665.63 5.569 5.569 0 011.463 1.048l.783.681c.466.232.957.408 1.463.525.554.15 1.095.343 1.62.576a1.549 1.549 0 01.94 1.73c-.06.377-.202.735-.418 1.049-.194.294-.465.53-.783.681-.074.074 0 .23.052.472a1.59 1.59 0 01-.052 1.206 2 2 0 01-.68.734c-.329.183-.68.324-1.044.419a8.336 8.336 0 00-1.254.42 8.52 8.52 0 00-1.202.89h-.105a4.409 4.409 0 01-2.769.682zm6.009-4.193c.209.105.282.315.209.63a1.114 1.114 0 01-.575.89 2.09 2.09 0 01-.68.263l-1.117.23.282-.178c.134-.052.275-.087.418-.105.17-.062.328-.15.47-.262.279-.144.514-.362.68-.63a1.66 1.66 0 00.313-.838zm-8.778 2.307v-.053a6.875 6.875 0 01-4.232-1.782 2.568 2.568 0 01-.836-2.988 5.047 5.047 0 013.135-2.412 10.198 10.198 0 014.807-.524h.418a6.844 6.844 0 014.18 1.835 2.506 2.506 0 01.835 2.936 4.966 4.966 0 01-3.134 2.516 11.78 11.78 0 01-5.173.472zm2.717-7.497h-.104a10.626 10.626 0 00-4.337.472 4.613 4.613 0 00-2.926 2.307 2.42 2.42 0 00.732 2.778 6.864 6.864 0 003.918 1.625h.105c1.612.252 3.261.108 4.806-.42a4.246 4.246 0 002.874-2.306 2.387 2.387 0 00-.731-2.726 7.532 7.532 0 00-3.919-1.73h-.418zm.21 8.755v-.105c.217-.079.447-.114.678-.105.308-.005.61-.077.888-.21a4.06 4.06 0 00.627-.314.72.72 0 01.523-.157l-.105.105a27.7 27.7 0 00-.992.629c-.2.094-.41.164-.627.21a1.646 1.646 0 01-.94.104c-.074-.031-.084-.084-.053-.157z" fill="#DB0000"/><path fill-rule="evenodd" clip-rule="evenodd" d="M37.722 29.723a7.673 7.673 0 00-1.097-.472 3.552 3.552 0 00-1.045-.262c-.073 0-.073 0 0 .053l1.306.576c.867.493 1.181 1.049.94 1.783l-.73.943.051-.052c.392-.224.717-.55.94-.944a1.052 1.052 0 00-.365-1.625zM24.138 36.14a2.358 2.358 0 01-.366-.178h-.156l-.157-.105a2.583 2.583 0 01-1.202-1.625l-.313-2.254a4.335 4.335 0 00-.889-1.468c-.177-.597.314-1.226 1.463-1.887a5.31 5.31 0 011.098-.472l.26-.052h.105l1.62-.262h.157a4.11 4.11 0 001.201-.472c.296-.251.61-.479.94-.681a4.703 4.703 0 011.83-.63 4.169 4.169 0 012.769.577c.51.29.984.643 1.41 1.049l.784.734a8.15 8.15 0 001.567.471c.518.157 1.024.35 1.515.577a1.664 1.664 0 01.94 1.678 3.443 3.443 0 01-.417.996 2.3 2.3 0 01-.732.629c-.177.073-.209.262-.104.576.157.387.157.82 0 1.206-.14.283-.357.52-.627.681a5.674 5.674 0 01-.993.367c-.458.11-.898.287-1.306.525a6.002 6.002 0 00-1.254.838 4.982 4.982 0 01-4.702 0 7.625 7.625 0 00-2.142-.314 6.003 6.003 0 01-2.247-.504h-.052zm12.853-2.59a1.66 1.66 0 01-.314.84c-.165.267-.4.484-.679.629-.142.111-.3.2-.47.262a1.783 1.783 0 00-.418.105l-.282.178 1.118-.23c.24-.048.47-.136.679-.263a1.109 1.109 0 00.575-.891c.073-.315 0-.524-.21-.63zm-11.913-5.451l-1.776.367a5.114 5.114 0 00-1.202.472 1.214 1.214 0 00-.679 1.468l.575 1.153h.052c.029-.229.01-.46-.052-.682a4.993 4.993 0 010-.996c.235-.447.6-.812 1.045-1.048a6.93 6.93 0 011.097-.42c.627-.21.961-.314.993-.314h-.053zm2.352-.681l.783-.315a4.44 4.44 0 011.463-.472c.19.038.385.038.575 0 .136-.073.104-.157-.105-.262a1.469 1.469 0 00-1.41.105 8.349 8.349 0 00-.836.524l-.888.472-.262.052a.649.649 0 00-.26.105c.32-.03.636-.1.94-.21zm3.605.681a10.156 10.156 0 00-5.173.472 4.986 4.986 0 00-3.135 2.464 2.523 2.523 0 00.784 2.988 8.032 8.032 0 004.232 1.782c.158.007.315.025.47.052a11.78 11.78 0 005.12-.471 4.947 4.947 0 003.135-2.517 2.513 2.513 0 00-.836-2.935 6.844 6.844 0 00-4.18-1.835h-.417zm.104 9.017c0 .073 0 .125.052.157.317.058.644.021.94-.105.217-.045.428-.116.628-.21.313-.21.648-.42.992-.629l.105-.105a.719.719 0 00-.523.158 4.08 4.08 0 01-.627.314c-.277.133-.58.205-.888.21a1.78 1.78 0 00-.679.105s-.031.031 0 .105zm-8.673-3.67c.067.354.154.704.261 1.048.234.606.655 1.12 1.202 1.468a.699.699 0 00.68 0c.173-.105.173-.21 0-.314l-.732-.262a2.305 2.305 0 01-.888-1.154 2.83 2.83 0 00-.523-.786z" fill="#AE0000"/><path fill-rule="evenodd" clip-rule="evenodd" d="M.052 45.87h.052v-4.09l41.38 23.957v4.037h-.105L.104 45.922l-.052-.053zM28.61 70.56h7.001l5.873 3.407h.157v4.037l-.21.105-12.82-7.549zM0 50.01l35.611 20.55h-7L0 54.1v-4.09z" fill="#A09575"/><defs><linearGradient id="paint0_linear" x1="33.209" y1="37.118" x2="30.834" y2="48.418" gradientUnits="userSpaceOnUse"><stop offset=".19" stop-color="#4F0000"/><stop offset=".67" stop-color="#DB0000"/></linearGradient><linearGradient id="paint1_linear" x1="14278.4" y1="2580.73" x2="14124.1" y2="2748.67" gradientUnits="userSpaceOnUse"><stop offset=".19" stop-color="#4F0000"/><stop offset=".67" stop-color="#DB0000"/></linearGradient></defs></svg>