<svg width="459" height="332" viewBox="0 0 459 332" fill="none" xmlns="http://www.w3.org/2000/svg">
<g filter="url(#filter0_d)">
<path d="M241 332H292.5H370H441C441 332 441 332 416.78 279.363C392.56 226.725 386.253 169.844 403.79 103.08C413.791 65.0025 447 11.9998 447 11.9998L389.5 11.9997L326.5 11.9996L318.5 11.9995H306.5L294 11.9998H283H266L255.763 32.3378C255.763 32.3378 224.576 106.822 110.542 132.989C110.542 132.989 47.3438 139.575 17.9362 201.153L6.67572e-06 239L0 323V332H97H241Z" fill="#FBFBFB"/>
</g>
<defs>
<filter id="filter0_d" x="-2" y="-0.000488281" width="461" height="334" filterUnits="userSpaceOnUse" color-interpolation-filters="sRGB">
<feFlood flood-opacity="0" result="BackgroundImageFix"/>
<feColorMatrix in="SourceAlpha" type="matrix" values="0 0 0 0 0 0 0 0 0 0 0 0 0 0 0 0 0 0 127 0"/>
<feOffset dx="5" dy="-5"/>
<feGaussianBlur stdDeviation="3.5"/>
<feColorMatrix type="matrix" values="0 0 0 0 0.270588 0 0 0 0 0.290196 0 0 0 0 0.443137 0 0 0 0.3 0"/>
<feBlend mode="normal" in2="BackgroundImageFix" result="effect1_dropShadow"/>
<feBlend mode="normal" in="SourceGraphic" in2="effect1_dropShadow" result="shape"/>
</filter>
</defs>
</svg>
