<svg width="120" height="69" viewBox="0 0 120 69" fill="none" xmlns="http://www.w3.org/2000/svg">
<path fill-rule="evenodd" clip-rule="evenodd" d="M52.2568 63.4168L53.7648 62.5486C54.1244 63.3172 54.7184 63.9516 55.4612 64.3605C57.181 65.2708 59.1481 65.6017 61.0706 65.3042C62.5138 65.2211 63.8962 64.6937 65.0289 63.7943C65.4981 63.4676 65.838 62.9865 65.9895 62.4347C66.1411 61.883 66.0946 61.2955 65.8582 60.7745L66.0844 59.9062C66.6245 60.2119 67.0453 60.6918 67.2781 61.2676C67.5108 61.8435 67.5419 62.4813 67.3662 63.0771C67.2063 63.8782 66.8127 64.6139 66.2352 65.191C65.4114 66.045 64.3206 66.5912 63.144 66.7386C61.1696 66.9643 59.1719 66.8751 57.2254 66.4744C55.2363 66.138 53.4551 65.0419 52.2568 63.4168Z" fill="#CBDFFF"/>
<path fill-rule="evenodd" clip-rule="evenodd" d="M2.42014 62.3976C2.25093 62.7514 2.16087 63.1378 2.15625 63.53C2.15625 64.5115 2.79712 65.3571 4.00345 66.0592C5.33602 66.7691 6.82987 67.1203 8.33871 67.0784C9.8722 67.1261 11.3919 66.775 12.7494 66.0592C13.9783 65.3571 14.5966 64.5492 14.5966 63.53C14.6054 63.2944 14.5534 63.0604 14.4458 62.8506C14.7474 63.0771 15.1093 63.3262 15.539 63.6055C16.8716 64.3154 18.3654 64.6666 19.8743 64.6247C21.4197 64.6712 22.9512 64.3203 24.3226 63.6055C25.529 62.9034 26.1321 62.0956 26.1321 61.0764C26.1317 60.7484 26.0542 60.4252 25.9059 60.1327C26.052 59.826 26.1292 59.491 26.1321 59.1513C26.1314 58.9201 26.0932 58.6907 26.019 58.4718C26.0954 58.2275 26.1335 57.9728 26.1321 57.7168C26.1317 57.3889 26.0542 57.0656 25.9059 56.7731C26.0514 56.4931 26.1289 56.1828 26.1321 55.8672L45.735 67.1916V67.4558H38.7986L27.6777 60.5102C27.6858 60.5347 27.6858 60.5612 27.6777 60.5857C27.8009 61.0276 27.8518 61.4865 27.8285 61.9446C27.8524 62.247 27.8397 62.5512 27.7908 62.8506C27.4753 63.2102 27.2779 63.6582 27.2254 64.134C26.8066 64.7408 26.2677 65.2547 25.642 65.6439C25.4918 65.7859 25.3276 65.9124 25.152 66.0214C23.5326 66.8937 21.7123 67.3234 19.8743 67.2671C18.2499 67.2979 16.6394 66.9624 15.162 66.2857C14.8904 66.5864 14.5722 66.8413 14.2196 67.0406C14.0688 67.1388 13.9029 67.252 13.7295 67.3803C12.115 68.2692 10.2936 68.7121 8.4518 68.6638C6.63342 68.7175 4.83482 68.2738 3.24949 67.3803C2.62243 67.0846 2.06187 66.6645 1.60179 66.1454C1.1417 65.6263 0.791683 65.0191 0.572941 64.3605C0.482153 63.4741 0.630061 62.5795 1.0013 61.7696C1.37254 60.9598 1.95357 60.2642 2.68402 59.7552L2.94791 59.6797C2.56968 60.0176 2.31576 60.473 2.22689 60.9727C2.13802 61.4724 2.21935 61.9875 2.45784 62.4353L2.42014 62.3976Z" fill="#CBDFFF"/>
<path fill-rule="evenodd" clip-rule="evenodd" d="M1.85475 50.5069C1.77688 50.7248 1.73858 50.955 1.74165 51.1864C1.74626 51.5593 1.85038 51.9242 2.04324 52.2433C1.84385 52.5595 1.73918 52.9263 1.74165 53.3003C1.74165 54.2817 2.38252 55.1273 3.58885 55.8294C4.94094 56.5632 6.46213 56.9278 7.99951 56.8863C9.5335 56.9394 11.0545 56.5879 12.4102 55.8671C12.9046 55.5894 13.34 55.2175 13.6919 54.7725C13.7153 54.9267 13.7532 55.0783 13.805 55.2254C13.7308 55.4443 13.6926 55.6738 13.6919 55.9049C13.6909 56.1086 13.7163 56.3116 13.7673 56.5089C13.6067 56.6443 13.4293 56.7585 13.2395 56.8486C12.3962 57.3024 11.4923 57.6329 10.5554 57.83C10.4574 57.83 10.3292 57.8829 10.1784 57.9055C9.58055 57.8047 8.97527 57.7542 8.36895 57.7545C7.65909 57.7524 6.95115 57.8283 6.25786 57.981L5.84319 57.9055C4.7635 57.699 3.72127 57.3299 2.75196 56.8108C0.87209 55.6784 -0.0452259 54.3321 1.15554e-05 52.7718V52.7341C-0.0231528 52.0481 0.131308 51.3677 0.448381 50.7592C0.765455 50.1507 1.23436 49.6346 1.80951 49.2612C1.76062 49.446 1.73528 49.6363 1.73412 49.8275C1.73729 50.059 1.77803 50.2885 1.85475 50.5069Z" fill="#CBDFFF"/>
<path fill-rule="evenodd" clip-rule="evenodd" d="M79.6632 48.6196V44.7919L86.4865 48.6951L116.079 30.5005L116.057 29.519L120 31.7839L87.3159 50.7184L81.9251 47.5626L79.9422 48.7932L79.6632 48.6196Z" fill="#CBDFFF"/>
<path fill-rule="evenodd" clip-rule="evenodd" d="M16.4814 24.0225V27.1782L23.8325 31.3682L25.8682 30.3868V31.708L23.0409 33.3538L11.6938 26.8007L16.4814 24.0225Z" fill="#C5E3FF"/>
<path fill-rule="evenodd" clip-rule="evenodd" d="M82.0759 64.6623L89.5401 60.3212V59.9664L94.667 62.9258L84.4433 68.8523L66.0845 58.2828C66.0527 57.9838 65.9764 57.6911 65.8583 57.4146C66.0099 57.1099 66.0874 56.7736 66.0845 56.4332C66.0836 56.2267 66.0453 56.022 65.9714 55.8292L66.0241 55.6782L72.1538 59.302L74.5665 57.9431V60.3967L82.0759 64.6623Z" fill="#C5E3FF"/>
<path fill-rule="evenodd" clip-rule="evenodd" d="M67.3888 22.7092L65.9185 21.8184L68.9344 19.931L67.9542 19.3648L64.9384 21.2371L63.4305 20.3311L66.4463 18.4588L65.4662 17.9303L60.1885 21.1993V18.9873L63.619 16.8734L62.6388 16.3072L60.1885 17.8171V15.8542L60.9424 15.3635L60.1885 14.8954V10.7582L55.9286 8.34232L69.3641 0L116.034 26.8389L86.2905 45.3354L79.6933 41.5606V38.0501L72.0105 33.6335L70.201 34.766V31.7084L79.437 25.948L78.4569 25.3818L70.1633 30.5155V28.2959L76.572 24.3475L75.5918 23.7435L70.1633 27.1031V25.1629L73.9331 22.7998L72.9153 22.2336L69.8617 24.1588L68.3538 23.2679L71.445 21.3428L70.4649 20.7765L67.3888 22.7092ZM73.5184 18.9344L74.5363 19.4629L83.9985 13.5893L83.0183 13.0608L73.5184 18.9344ZM81.4275 12.0794L80.3719 11.5132L70.7966 17.5529L71.8145 18.1568L81.4275 12.0794ZM78.9017 10.645L77.9215 10.0787L68.2332 16.1184L69.251 16.6846L78.9017 10.645ZM70.872 6.03969L69.8919 5.47347L60.2412 11.5132L61.2214 12.0794L70.872 6.03969ZM103.292 24.6495L102.35 24.0833L92.6991 30.123L93.6793 30.6892L103.292 24.6495ZM100.653 23.1396L99.6732 22.5733L90.0226 28.613L91.0027 29.1793L100.653 23.1396ZM107.891 24.8382L106.911 24.2343L95.157 31.5574L96.1749 32.0859L107.891 24.8382ZM73.4053 7.47412L72.38 6.9079L62.7293 12.9476L63.7471 13.5516L73.4053 7.47412ZM98.1729 21.7051L97.2606 21.1389L87.5722 27.1786L88.5524 27.7448L98.1729 21.7051ZM76.0442 8.98404L75.0264 8.41782L65.3757 14.4575L66.3935 15.0237L76.0442 8.98404ZM77.2128 21.2144L78.193 21.7806L87.8436 15.7409L86.8635 15.1747L77.2128 21.2144ZM82.3774 24.1588L83.3953 24.6872L92.9706 18.723L91.9829 18.1191L82.3774 24.1588ZM79.7009 22.6488L80.7187 23.2151L90.3694 17.1754L89.3516 16.6091L79.7009 22.6488ZM81.9628 27.3673L80.9826 26.8011L71.1812 32.9163L72.199 33.4825L81.9628 27.3673ZM88.296 31.0289L87.3159 30.4627L77.5144 36.5024L78.5323 37.1063L88.296 31.0289ZM90.9726 32.5388L89.9547 31.9726L80.1533 38.0878L81.1711 38.654L90.9726 32.5388ZM85.8079 29.5945L84.8278 29.066L74.9887 35.1057L75.9688 35.7097L85.8079 29.5945ZM93.7999 34.1243L92.7821 33.558L82.9806 39.5977L83.9985 40.1639L93.7999 34.1243Z" fill="#F4F9FF"/>
<path fill-rule="evenodd" clip-rule="evenodd" d="M70.8722 6.03921L61.2216 12.0789L60.2414 11.5127L69.8921 5.51074L70.8722 6.03921ZM78.8642 10.6067L69.2135 16.6464L68.1957 16.0802L77.884 10.0783L78.8642 10.6067ZM81.4276 12.0789L71.7845 18.1186L70.7667 17.5146L80.3419 11.5127L81.4276 12.0789ZM73.5488 18.949L83.0486 13.0604L84.0288 13.5888L74.5666 19.4775L73.5488 18.949ZM67.4191 22.7239L70.4952 20.8138L71.4754 21.38L68.3842 23.3052L67.4191 22.7239ZM70.2314 24.3999L69.8619 24.1583L72.9908 22.2105L74.0087 22.7767L70.2389 25.1397L70.2314 24.3999ZM70.2314 30.5151L78.5249 25.3813L79.505 25.9475L70.2012 31.7079L70.2314 30.5151ZM70.2314 28.3106V27.1026L75.6599 23.7431L76.64 24.347L70.2314 28.3106ZM86.5169 48.6945L86.2907 45.3349L116.034 26.8384L116.087 29.5185V30.5L86.5169 48.6945ZM60.2112 21.1988L65.489 17.9299L66.4691 18.4583L63.4533 20.3306L62.7596 19.8928L60.1962 21.4027L60.2112 21.1988ZM60.2112 18.9868V17.8166L62.6616 16.3067L63.6418 16.8729L60.2112 18.9868ZM60.2112 15.8537V14.8949L60.9652 15.363L60.2112 15.8537ZM65.9187 21.8179L64.9612 21.2366L67.977 19.3643L68.9572 19.9305L65.9187 21.8179ZM79.7011 22.6484L89.3517 16.6087L90.3696 17.1749L80.7189 23.2146L79.7011 22.6484ZM82.3776 24.1583L91.983 18.1186L92.9632 18.7226L83.3879 24.6868L82.3776 24.1583ZM77.213 21.2139L86.8637 15.1742L87.8438 15.7405L78.1932 21.7802L77.213 21.2139ZM76.0444 8.98356L66.3937 15.0233L65.3759 14.457L75.0265 8.41734L76.0444 8.98356ZM98.173 21.7047L88.5224 27.7443L87.5422 27.1781L97.2608 21.1384L98.173 21.7047ZM73.4055 7.47364L63.7549 13.5133L62.737 12.9094L72.3877 6.86967L73.4055 7.47364ZM107.899 24.8377L96.1751 32.0854L95.1572 31.5569L106.896 24.2564L107.899 24.8377ZM100.661 23.1391L91.0104 29.1788L90.0303 28.6126L99.681 22.5729L100.661 23.1391ZM103.3 24.649L93.687 30.6887L92.737 30.1225L102.388 24.0828L103.3 24.649ZM93.8001 34.1615L83.9986 40.2012L82.9356 39.6727L92.737 33.633L93.8001 34.1615ZM85.8081 29.6318L76.0067 35.7469L75.0265 35.143L84.8657 29.1033L85.8081 29.6318ZM90.9727 32.5761L81.1713 38.6913L80.1534 38.1251L89.9549 32.0099L90.9727 32.5761ZM88.2962 31.0662L78.4947 37.1814L77.4769 36.5774L87.2784 30.5377L88.2962 31.0662ZM81.9629 27.4046L72.1615 33.5198L71.1436 32.9536L80.9451 26.8384L81.9629 27.4046Z" fill="#A9CBF3"/>
<path fill-rule="evenodd" clip-rule="evenodd" d="M86.2604 45.3349L86.4865 48.6944L79.6632 44.7913V41.5601L86.2604 45.3349Z" fill="#D8EAFF"/>
<path fill-rule="evenodd" clip-rule="evenodd" d="M35.5943 12.7593V18.7613L33.3325 20.2334L25.8683 15.9679L26.0191 15.7037L33.2194 11.4004L35.5943 12.7593Z" fill="#EF487C"/>
<path fill-rule="evenodd" clip-rule="evenodd" d="M43.1715 15.8542V35.0302L35.632 30.6741V11.5132L43.1715 15.8542ZM64.5463 50.7183V38.0878L72.1612 42.4288V59.2645L66.0316 55.6407C66.0716 55.4802 66.0918 55.3154 66.0919 55.1499C66.0868 54.7819 65.9964 54.4201 65.828 54.093C66.0023 53.7681 66.093 53.4048 66.0919 53.036C66.0664 52.5462 65.9093 52.0723 65.6373 51.6644C65.3653 51.2565 64.9883 50.9296 64.5463 50.7183Z" fill="#8BBDF9"/>
<path fill-rule="evenodd" clip-rule="evenodd" d="M23.9835 23.215L16.4816 18.9118L23.6819 14.3442L26.0192 15.7032L25.8684 15.9674V22.1203L23.9835 23.215Z" fill="#FFCC00"/>
<path fill-rule="evenodd" clip-rule="evenodd" d="M44.6795 35.8607C44.6834 35.6667 44.7217 35.475 44.7926 35.2944C44.9015 35.6422 45.0812 35.9635 45.3204 36.2381L44.6795 35.8607Z" fill="#FFCC00"/>
<path fill-rule="evenodd" clip-rule="evenodd" d="M65.9789 55.7921C66.0528 55.985 66.0911 56.1896 66.092 56.3961C66.0949 56.7365 66.0174 57.0728 65.8658 57.3776C65.7642 57.5661 65.6429 57.7432 65.5039 57.906C65.1456 58.3053 64.7193 58.6376 64.2448 58.8875C64.0048 59.0455 63.7527 59.1844 63.4909 59.3027C62.7296 59.6021 61.9302 59.7927 61.1159 59.8689C60.7033 59.9211 60.2877 59.9463 59.8719 59.9444C59.4058 59.9465 58.9401 59.9212 58.477 59.8689C57.4168 59.7448 56.3917 59.4112 55.4612 58.8875C54.7931 58.5422 54.2324 58.0199 53.8402 57.3776C53.6664 57.0798 53.5752 56.741 53.5763 56.3961C53.5766 56.18 53.6019 55.9647 53.6517 55.7544C53.9993 56.5962 54.6431 57.2812 55.4612 57.6795C56.7986 58.4161 58.3085 58.781 59.8342 58.7365H60.3996C61.7199 58.6742 63.0088 58.3128 64.1694 57.6795C64.3125 57.5994 64.451 57.5111 64.5841 57.4153C65.2408 57.0748 65.7406 56.4932 65.9789 55.7921Z" fill="#FFCC00"/>
<path fill-rule="evenodd" clip-rule="evenodd" d="M65.8281 54.0932C65.6235 54.4663 65.3467 54.7948 65.0138 55.0595C64.8203 55.2202 64.6134 55.3642 64.3956 55.4899L64.2448 55.5654C63.7348 55.8585 63.1903 56.0868 62.6238 56.2448C61.7258 56.4808 60.8002 56.595 59.8718 56.5846C58.3506 56.6299 56.8437 56.2787 55.4989 55.5654C54.8472 55.2109 54.3009 54.6899 53.9156 54.0554C53.7831 53.8627 53.6931 53.644 53.6517 53.4137C53.643 53.288 53.643 53.1619 53.6517 53.0362C53.647 52.4339 53.8738 51.8527 54.285 51.4131C54.6291 51.047 55.0317 50.7408 55.4763 50.5071C55.7894 50.324 56.1172 50.1674 56.4564 50.039C57.553 49.6295 58.7167 49.4297 59.8869 49.4502C60.0878 49.4391 60.2892 49.4391 60.4901 49.4502C61.2237 49.4791 61.9508 49.6009 62.6539 49.8125C63.2147 49.963 63.7543 50.1836 64.2599 50.4694C64.3158 50.499 64.3666 50.5372 64.4107 50.5826L64.5615 50.6807C64.9965 50.8972 65.3657 51.2263 65.6309 51.6338C65.8961 52.0414 66.0474 52.5126 66.0694 52.9985C66.0838 53.378 66.0007 53.755 65.8281 54.0932Z" fill="#FFCC00"/>
<path fill-rule="evenodd" clip-rule="evenodd" d="M53.8778 60.7366C53.7009 60.4264 53.6098 60.0746 53.614 59.7174V59.4909C53.6346 59.3484 53.6726 59.209 53.7271 59.0757C54.0764 59.8855 54.7054 60.5421 55.4989 60.9253L56.0643 61.2651C57.2583 61.7611 58.5416 62.0053 59.8341 61.9823C60.3127 61.9849 60.791 61.9597 61.2666 61.9068C62.3044 61.7886 63.306 61.4543 64.2071 60.9253C64.8033 60.6389 65.3208 60.2113 65.715 59.6797C65.822 59.4872 65.9103 59.285 65.9789 59.0757C66.051 59.2821 66.0891 59.4988 66.092 59.7174V59.9061L65.8658 60.7744C65.4802 61.4221 64.9178 61.946 64.2448 62.2843C63.7685 62.5654 63.2629 62.7933 62.7369 62.9637C61.8178 63.2269 60.8653 63.3541 59.9095 63.3412C58.3838 63.3857 56.874 63.0208 55.5366 62.2843C55.4414 62.2334 55.34 62.1954 55.235 62.171C55.1567 62.0956 55.0678 62.032 54.9711 61.9823C54.5342 61.637 54.1637 61.2148 53.8778 60.7366Z" fill="#FFCC00"/>
<path fill-rule="evenodd" clip-rule="evenodd" d="M13.9181 34.9544C13.5618 35.5568 13.0378 36.0422 12.4102 36.351C11.0671 37.1115 9.54194 37.4901 7.99957 37.4457C6.45721 37.4901 4.93206 37.1115 3.58892 36.351C2.97155 36.0106 2.45221 35.5165 2.081 34.9166C1.88815 34.5975 1.78402 34.2326 1.77942 33.8597C1.77942 32.8782 2.38259 32.0327 3.58892 31.3306C4.95356 30.5939 6.4876 30.2294 8.03727 30.2736C9.57465 30.2322 11.0958 30.5967 12.4479 31.3306C13.6241 32.0327 14.2197 32.8405 14.2197 33.8597C14.2006 34.2423 14.0976 34.616 13.9181 34.9544Z" fill="#FFCC00"/>
<path fill-rule="evenodd" clip-rule="evenodd" d="M2.04315 38.239C1.89558 37.9918 1.79946 37.7172 1.76059 37.4317C1.72172 37.1463 1.7409 36.8559 1.81697 36.5781C2.15931 37.4109 2.78773 38.0937 3.58877 38.5033C4.94085 39.2371 6.46204 39.6017 7.99942 39.5602C9.5368 39.6017 11.058 39.2371 12.4101 38.5033C12.8032 38.3129 13.1532 38.0438 13.4385 37.7127C13.7238 37.3816 13.9383 36.9955 14.0688 36.5781C14.1474 36.7696 14.1859 36.9751 14.1819 37.1821C14.1745 37.5619 14.0844 37.9354 13.918 38.2768C13.7912 38.5376 13.6115 38.769 13.3902 38.9563L13.0886 39.1827C13.0654 39.2326 13.0254 39.2727 12.9755 39.296C12.7981 39.4488 12.609 39.5877 12.4101 39.7112C11.058 40.4451 9.5368 40.8096 7.99942 40.7682C6.46204 40.8096 4.94085 40.4451 3.58877 39.7112C2.95972 39.3563 2.4286 38.8504 2.04315 38.239Z" fill="#FFCC00"/>
<path fill-rule="evenodd" clip-rule="evenodd" d="M2.00539 41.5979C1.83452 41.299 1.74362 40.9609 1.7415 40.6165C1.73843 40.385 1.77673 40.1549 1.8546 39.937C2.18052 40.7587 2.79808 41.4308 3.5887 41.8244C4.94079 42.5583 6.46198 42.9228 7.99936 42.8814C9.53674 42.9228 11.0579 42.5583 12.41 41.8244C12.6136 41.6961 12.8021 41.5753 12.9755 41.4469C13.4941 41.1092 13.8803 40.6025 14.0687 40.0125C14.1494 40.2166 14.1878 40.4349 14.1818 40.6542C14.1789 40.994 14.1017 41.329 13.9556 41.6357C13.7153 42.0802 13.3808 42.4667 12.9755 42.7681C12.798 42.921 12.6089 43.0598 12.41 43.1833C11.0506 43.894 9.5323 44.2449 7.99936 44.2025C6.46641 44.2449 4.94812 43.894 3.5887 43.1833C2.93436 42.799 2.38926 42.2531 2.00539 41.5979Z" fill="#FFCC00"/>
<path fill-rule="evenodd" clip-rule="evenodd" d="M13.9558 45.562C13.7075 45.9904 13.3739 46.363 12.9756 46.6567C12.8022 46.7851 12.6137 46.9059 12.4101 47.0342C11.8763 47.3259 11.3219 47.5782 10.7514 47.7892C9.85325 48.0242 8.9278 48.1385 7.99949 48.1289C7.05882 48.1374 6.12106 48.0232 5.20985 47.7892C4.64855 47.5853 4.10614 47.3327 3.58884 47.0342C2.92601 46.6953 2.37591 46.1707 2.00552 45.5243C1.83682 45.2244 1.74608 44.8869 1.74164 44.5428C1.74209 44.2148 1.81957 43.8916 1.96783 43.5991C2.32646 44.2864 2.89418 44.8417 3.58884 45.1845C4.94092 45.9184 6.46211 46.2829 7.99949 46.2415C9.53687 46.2829 11.0581 45.9184 12.4101 45.1845C12.6137 45.0562 12.8022 44.9354 12.9756 44.8071C13.4031 44.4881 13.7514 44.0747 13.9935 43.5991C14.1153 43.8989 14.1793 44.2192 14.1819 44.5428C14.1744 44.8942 14.0975 45.2405 13.9558 45.562Z" fill="#FFCC00"/>
<path fill-rule="evenodd" clip-rule="evenodd" d="M13.9556 48.8837C13.6017 49.5296 13.0636 50.0553 12.41 50.3936C11.0669 51.1542 9.54173 51.5327 7.99936 51.4883C6.45345 51.5212 4.92807 51.1296 3.5887 50.3559C3.00564 50.0634 2.51112 49.6203 2.15618 49.0725L2.00539 48.846C1.83452 48.547 1.74362 48.209 1.7415 47.8645C1.73843 47.6331 1.77673 47.403 1.8546 47.1851C2.05422 47.7485 2.4229 48.2363 2.91014 48.5817C3.12561 48.7482 3.35234 48.8996 3.5887 49.0347C4.94079 49.7686 6.46198 50.1331 7.99936 50.0917C9.53335 50.1447 11.0543 49.7932 12.41 49.0725C12.7074 48.9016 12.9854 48.6991 13.2394 48.4685C13.641 48.152 13.9315 47.7157 14.0687 47.2228C14.1466 47.4407 14.1849 47.6708 14.1818 47.9023C14.1709 48.241 14.0941 48.5744 13.9556 48.8837Z" fill="#FFCC00"/>
<path fill-rule="evenodd" clip-rule="evenodd" d="M26.019 55.1872C26.0932 55.406 26.1314 55.6355 26.1321 55.8666C26.1289 56.1822 26.0514 56.4926 25.9059 56.7726C25.5571 57.4541 25.0033 58.0087 24.3226 58.358C22.958 59.0946 21.4239 59.4591 19.8743 59.4149C18.3609 59.456 16.8641 59.0911 15.539 58.358C15.2073 58.1542 14.9509 57.9805 14.7473 57.8295C14.3785 57.5513 14.0812 57.1889 13.8803 56.7726C13.8516 56.6565 13.8138 56.5429 13.7672 56.4328C13.7162 56.2356 13.6908 56.0326 13.6918 55.8289C13.6925 55.5978 13.7307 55.3683 13.8049 55.1494C13.9069 55.5098 14.0842 55.8443 14.3251 56.1309C14.7113 56.4814 15.1276 56.7972 15.5692 57.0746C15.6893 57.1479 15.8154 57.2111 15.9461 57.2633C17.1727 57.8474 18.5161 58.1443 19.8743 58.1315C21.4197 58.1779 22.9511 57.8271 24.3226 57.1123C24.9121 56.7947 25.4066 56.3257 25.7551 55.7534C25.8766 55.5822 25.966 55.3903 26.019 55.1872Z" fill="#FFCC00"/>
<path fill-rule="evenodd" clip-rule="evenodd" d="M1.85472 50.5068C2.20748 51.3018 2.81871 51.9538 3.58883 52.3564C4.94091 53.0903 6.4621 53.4548 7.99948 53.4134C9.53686 53.4548 11.058 53.0903 12.4101 52.3564C13.1837 51.9814 13.7793 51.3172 14.0688 50.5068C14.1232 50.6514 14.1488 50.8053 14.1442 50.9598C14.5367 50.5261 14.9947 50.1568 15.5014 49.8651C15.5388 49.8584 15.5771 49.8584 15.6145 49.8651C16.925 49.1725 18.3933 48.8343 19.8743 48.8836C21.4197 48.8372 22.9512 49.1881 24.3227 49.9028C25.529 50.6049 26.1322 51.4127 26.1322 52.4319C26.1261 52.8166 26.0223 53.1933 25.8306 53.5266C25.4814 54.1213 24.9718 54.6054 24.3604 54.9233H24.3227C23.102 55.5826 21.7434 55.9447 20.3569 55.9803H19.8668C18.3534 56.0213 16.8566 55.6564 15.5315 54.9233C15.4894 54.9055 15.451 54.8799 15.4184 54.8478C14.9243 54.5695 14.4786 54.2125 14.099 53.7909C14.0738 53.6681 14.0224 53.5522 13.9482 53.4511C13.8189 53.1893 13.7299 52.9093 13.6843 52.6207C13.3184 53.0519 12.8856 53.4216 12.4026 53.7154C11.0432 54.426 9.52489 54.7769 7.99194 54.7346C6.45899 54.7769 4.9407 54.426 3.58129 53.7154C2.96152 53.3449 2.44337 52.826 2.07337 52.2055C1.88051 51.8864 1.77639 51.5215 1.77179 51.1485C1.76336 50.9315 1.7914 50.7145 1.85472 50.5068Z" fill="#FFCC00"/>
<path fill-rule="evenodd" clip-rule="evenodd" d="M2.42009 62.3975C2.18161 61.9496 2.10028 61.4345 2.18915 60.9348C2.27802 60.4351 2.53194 59.9797 2.91017 59.6418C3.2174 59.3125 3.57341 59.0324 3.96571 58.8114C4.66458 58.4026 5.43045 58.1214 6.22758 57.9809C6.92087 57.8282 7.62881 57.7523 8.33867 57.7544C8.94499 57.7541 9.55027 57.8046 10.1482 57.9054C10.6216 57.9802 11.0881 58.0939 11.543 58.2452C11.9633 58.3923 12.3675 58.582 12.7493 58.8114C13.0945 58.9913 13.4119 59.2201 13.6918 59.4909V59.1511C13.6887 58.9197 13.727 58.6896 13.8049 58.4717C14.1227 59.2803 14.7456 59.9312 15.539 60.2836C16.8715 60.9935 18.3654 61.3447 19.8742 61.3028C21.4196 61.3492 22.9511 60.9983 24.3226 60.2836C25.076 59.8885 25.6738 59.2499 26.019 58.4717C26.0931 58.6905 26.1313 58.92 26.1321 59.1511C26.1292 59.4909 26.052 59.8259 25.9059 60.1326C25.5387 60.7815 24.9877 61.3069 24.3226 61.6425C22.9579 62.3791 21.4239 62.7436 19.8742 62.6994C18.3609 62.7405 16.8641 62.3756 15.539 61.6425C15.1876 61.4247 14.8592 61.1718 14.5588 60.8875C14.5809 60.9995 14.5935 61.1132 14.5965 61.2273C14.6063 61.6259 14.5016 62.0189 14.2949 62.3597C14.2744 62.4003 14.2491 62.4383 14.2195 62.473C13.8424 63.0154 13.3374 63.4562 12.7493 63.7564C11.4104 64.5351 9.88704 64.9393 8.33867 64.9266C6.82531 64.9676 5.32853 64.6027 4.00341 63.8696C3.35307 63.5303 2.80611 63.0218 2.42009 62.3975Z" fill="#FFCC00"/>
<path fill-rule="evenodd" clip-rule="evenodd" d="M25.8684 22.1201V30.3869L23.8327 31.3684L23.9835 23.2148L25.8684 22.1201Z" fill="#BC8E00"/>
<path fill-rule="evenodd" clip-rule="evenodd" d="M33.3325 29.3302V20.2329L35.5944 18.7607V30.6363L33.3325 29.3302Z" fill="#B01D46"/>
<path fill-rule="evenodd" clip-rule="evenodd" d="M33.3325 20.2328V29.3301L31.6361 28.3486L25.8683 31.7082V30.387V22.1202V15.9673L33.3325 20.2328Z" fill="#D12B5F"/>
<path fill-rule="evenodd" clip-rule="evenodd" d="M23.8327 31.3685L16.4816 27.1784V24.0227V18.9116L23.9835 23.2149L23.8327 31.3685Z" fill="#EBB200"/>
<path fill-rule="evenodd" clip-rule="evenodd" d="M45.4335 10.7964L47.5823 9.55076L52.7092 6.49316L55.9512 8.34282L60.2111 10.7587L52.86 15.0997L45.4335 10.7964ZM89.54 52.0173L82.0758 56.3961L74.5363 52.0928L79.6255 48.9597L79.9044 48.7936L81.9251 47.5631L87.3159 50.7188L89.54 52.0173Z" fill="#D71044"/>
<path fill-rule="evenodd" clip-rule="evenodd" d="M45.4335 36.2985V10.7959L52.86 15.0992V40.564L45.4335 36.2985ZM82.0759 56.3955V64.7001L74.5363 60.3968V52.0923L82.0759 56.3955Z" fill="#C51341"/>
<path fill-rule="evenodd" clip-rule="evenodd" d="M64.5464 38.0876L70.2011 34.7657L72.0106 33.6333L79.6633 38.0498L72.1614 42.4286L64.5464 38.0876Z" fill="#C6DFFF"/>
<path fill-rule="evenodd" clip-rule="evenodd" d="M43.1717 15.8164L35.5944 11.5131L42.9455 6.87012L47.5824 9.55023L45.4336 10.7959V14.4952L43.1717 15.8164Z" fill="#C6DFFF"/>
<path fill-rule="evenodd" clip-rule="evenodd" d="M79.6632 44.7921V48.9594L74.5739 52.0925V57.9057L72.1613 59.2647V42.429L79.7009 38.0502V44.7921H79.6632ZM43.1716 34.9776V15.8544L45.4334 14.5332V36.2987L45.3204 36.2383C45.0811 35.9637 44.9014 35.6424 44.7926 35.2946C44.7217 35.4752 44.6834 35.6669 44.6795 35.8609L43.1716 34.9776Z" fill="#4293F5"/>
<path fill-rule="evenodd" clip-rule="evenodd" d="M67.3887 22.702L68.3537 23.2909L69.8616 24.1742L70.2009 24.3856L62.7744 28.6134L55.4233 24.2723L60.211 21.4412L62.7744 19.8936L63.4681 20.3314L64.9609 21.2374L65.9184 21.8187L67.3887 22.702Z" fill="#FFE99A"/>
<path fill-rule="evenodd" clip-rule="evenodd" d="M55.4235 24.272V42.0362L52.86 40.5263V15.0992L60.2111 10.7959V21.4408L55.4235 24.272ZM82.0759 64.6624V56.3578L89.5401 51.979V60.2836L82.0759 64.6624Z" fill="#941A3A"/>
<path fill-rule="evenodd" clip-rule="evenodd" d="M55.4233 24.272L62.7744 28.613L62.6764 46.2262L55.4233 42.0362V24.272Z" fill="#FFD22E"/>
<path fill-rule="evenodd" clip-rule="evenodd" d="M62.7747 28.6126L70.2012 24.3848V34.7655L64.5465 38.0873V50.7178L64.3957 50.6197V47.2224L62.6766 46.2258L62.7747 28.6126Z" fill="#E09400"/>
<path fill-rule="evenodd" clip-rule="evenodd" d="M53.727 59.0751C53.6725 59.2084 53.6346 59.3479 53.6139 59.4904V59.7169C53.6098 60.074 53.7009 60.4259 53.8778 60.7361C53.7063 61.0484 53.6156 61.3988 53.6139 61.7553C53.6208 62.0137 53.6718 62.269 53.7647 62.5102L52.2568 63.3784L45.735 67.1532V57.9804L53.6893 53.4507C53.7307 53.6809 53.8207 53.8997 53.9532 54.0924C53.7615 54.4257 53.6577 54.8025 53.6516 55.1871C53.6473 55.391 53.6727 55.5945 53.727 55.7911C53.6772 56.0013 53.6519 56.2167 53.6516 56.4328C53.6505 56.7776 53.7417 57.1165 53.9155 57.4142C53.7412 57.7391 53.6505 58.1024 53.6516 58.4712C53.6462 58.6751 53.6716 58.8788 53.727 59.0751Z" fill="#C9C29D"/>
<path fill-rule="evenodd" clip-rule="evenodd" d="M64.3956 47.2227V50.62C64.3516 50.5745 64.3007 50.5363 64.2448 50.5067C63.7404 50.2132 63.2008 49.9848 62.6389 49.8273C61.9358 49.6156 61.2087 49.4939 60.475 49.4649L64.3956 47.2227Z" fill="#C9C29D"/>
<path fill-rule="evenodd" clip-rule="evenodd" d="M13.9934 43.5613C14.1244 43.2643 14.1887 42.9422 14.1819 42.6176C14.1759 42.266 14.099 41.9193 13.9557 41.5984C14.1018 41.2917 14.179 40.9567 14.1819 40.6169C14.1879 40.3976 14.1494 40.1793 14.0688 39.9752C14.0919 39.9281 14.1047 39.8767 14.1065 39.8242L45.6973 57.9433V67.1916L26.1321 55.8671C26.1314 55.636 26.0932 55.4066 26.019 55.1877C26.095 54.9823 26.1333 54.7649 26.1321 54.546C26.1372 54.1717 26.0323 53.8041 25.8305 53.489C26.0223 53.1557 26.1261 52.7789 26.1321 52.3943C26.1321 51.4129 25.5289 50.5673 24.3226 49.8652C22.9512 49.1505 21.4197 48.7996 19.8743 48.846C18.3932 48.7966 16.9249 49.1349 15.6144 49.8275L13.9557 48.8838C14.099 48.5628 14.1759 48.2161 14.1819 47.8646C14.185 47.6331 14.1467 47.403 14.0688 47.1851C14.1596 46.9208 14.1964 46.6409 14.177 46.362C14.1576 46.0831 14.0823 45.811 13.9557 45.5619C14.1024 45.2288 14.1794 44.8691 14.1819 44.505C14.1792 44.1813 14.1152 43.8611 13.9934 43.5613Z" fill="#908A6D"/>
<path fill-rule="evenodd" clip-rule="evenodd" d="M14.1065 39.8242C14.1048 39.8767 14.0919 39.9281 14.0688 39.9752C13.8881 40.5792 13.5011 41.1003 12.9756 41.4474C12.8021 41.5758 12.6137 41.6965 12.4101 41.8249C11.058 42.5587 9.53682 42.9233 7.99944 42.8818C6.46205 42.9233 4.94087 42.5587 3.58878 41.8249C2.79816 41.4313 2.1806 40.7592 1.85468 39.9375C1.77872 39.7321 1.74041 39.5147 1.74158 39.2958C1.73911 38.9218 1.84377 38.555 2.04316 38.2388C2.42371 38.864 2.95523 39.3832 3.58878 39.7487C4.94445 40.4695 6.46544 40.821 7.99944 40.7679C9.53682 40.8094 11.058 40.4448 12.4101 39.711C12.609 39.5874 12.7981 39.4486 12.9756 39.2958C13.0254 39.2725 13.0654 39.2324 13.0887 39.1825L13.3902 38.956C13.6115 38.7688 13.7912 38.5374 13.918 38.2766C13.9757 38.3733 14.0261 38.4743 14.0688 38.5786C14.1448 38.81 14.183 39.0522 14.1819 39.2958C14.179 39.4744 14.1537 39.6519 14.1065 39.8242ZM53.9155 54.0553C54.3009 54.6897 54.8472 55.2107 55.4988 55.5652C56.8401 56.2916 58.3472 56.6559 59.8718 56.6221C60.8001 56.6326 61.7257 56.5183 62.6237 56.2824C63.1902 56.1243 63.7347 55.8961 64.2447 55.6029L64.3955 55.5274C64.6134 55.4017 64.8202 55.2578 65.0138 55.0971C65.3467 54.8324 65.6235 54.5039 65.828 54.1308C65.9965 54.4579 66.0868 54.8197 66.0919 55.1877C66.0919 55.3531 66.0716 55.5179 66.0316 55.6784L65.9788 55.8294C65.7588 56.5175 65.2877 57.0972 64.6594 57.4526C64.5263 57.5484 64.3878 57.6366 64.2447 57.7168C63.0841 58.3501 61.7952 58.7115 60.4749 58.7738H59.9095C58.3838 58.8183 56.8739 58.4533 55.5365 57.7168C54.7184 57.3185 54.0746 56.6335 53.727 55.7917C53.6727 55.5951 53.6473 55.3916 53.6516 55.1877C53.6397 54.7937 53.7306 54.4033 53.9155 54.0553ZM53.727 59.0758C53.6549 58.8694 53.6167 58.6527 53.6139 58.434C53.6128 58.0652 53.7035 57.702 53.8778 57.3771C54.27 58.0194 54.8307 58.5417 55.4988 58.887C56.4293 59.4107 57.4544 59.7443 58.5146 59.8685C58.9777 59.9208 59.4435 59.946 59.9095 59.944C60.3253 59.9458 60.7409 59.9206 61.1535 59.8685C61.9678 59.7922 62.7673 59.6016 63.5285 59.3022C63.7903 59.1839 64.0424 59.0451 64.2824 58.887C64.7569 58.6371 65.1832 58.3048 65.5415 57.9056C65.6805 57.7428 65.8019 57.5656 65.9034 57.3771C66.0216 57.6536 66.0978 57.9462 66.1296 58.2453V58.434C66.1308 58.653 66.0925 58.8704 66.0165 59.0758C65.948 59.285 65.8596 59.4873 65.7526 59.6797C65.3585 60.2114 64.8409 60.639 64.2447 60.9254C63.3437 61.4544 62.3421 61.7887 61.3043 61.9069C60.8286 61.9598 60.3503 61.985 59.8718 61.9824C58.5793 62.0053 57.296 61.7612 56.102 61.2651L55.5365 60.9254C54.7289 60.5495 54.0857 59.892 53.727 59.0758ZM53.8778 60.7367C54.1561 61.1983 54.5134 61.6072 54.9333 61.9446C55.03 61.9943 55.1189 62.0579 55.1972 62.1333C55.3023 62.1577 55.4037 62.1958 55.4988 62.2466C56.8362 62.9831 58.3461 63.348 59.8718 63.3035C60.8276 63.3164 61.7801 63.1893 62.6991 62.9261C63.2251 62.7556 63.7308 62.5278 64.207 62.2466C64.88 61.9083 65.4425 61.3844 65.828 60.7367C66.0644 61.2577 66.1109 61.8452 65.9593 62.3969C65.8078 62.9487 65.4679 63.4298 64.9987 63.7565C63.866 64.6559 62.4836 65.1833 61.0404 65.2664C59.1154 65.5656 57.1455 65.2346 55.4234 64.3227C54.6807 63.9138 54.0867 63.2794 53.727 62.5108C53.6341 62.2696 53.5831 62.0143 53.5762 61.7559C53.5894 61.3961 53.6931 61.0455 53.8778 60.7367ZM1.85468 36.5779C1.80365 36.3807 1.7783 36.1777 1.77928 35.9739C1.77681 35.6 1.88147 35.2332 2.08086 34.917C2.46251 35.5218 2.9953 36.0162 3.62648 36.3514C4.96962 37.1119 6.49477 37.4905 8.03713 37.4461C9.5795 37.4905 11.1047 37.1119 12.4478 36.3514C13.0753 36.0426 13.5994 35.5572 13.9557 34.9547C14.1326 35.2649 14.2237 35.6168 14.2196 35.9739C14.2236 36.1809 14.1851 36.3865 14.1065 36.5779C13.9717 36.9987 13.7515 37.3869 13.4595 37.7182C13.1675 38.0496 12.8102 38.3168 12.4101 38.5031C11.058 39.2369 9.53682 39.6014 7.99944 39.56C6.46205 39.6014 4.94087 39.2369 3.58878 38.5031C2.78774 38.0935 2.15932 37.4107 1.81698 36.5779H1.85468ZM1.85468 47.1474C1.78628 46.94 1.74819 46.7239 1.74158 46.5056C1.73405 46.1481 1.82537 45.7953 2.00547 45.4865C2.37586 46.1328 2.92596 46.6574 3.58878 46.9964C4.10608 47.2949 4.64849 47.5475 5.20979 47.7513C6.121 47.9854 7.05877 48.0996 7.99944 48.0911C8.92774 48.1006 9.85319 47.9864 10.7514 47.7513C11.3219 47.5404 11.8763 47.2881 12.4101 46.9964C12.6137 46.868 12.8021 46.7472 12.9756 46.6189C13.3738 46.3252 13.7075 45.9526 13.9557 45.5242C14.0823 45.7733 14.1576 46.0454 14.177 46.3243C14.1964 46.6031 14.1596 46.883 14.0688 47.1474C13.9315 47.6403 13.641 48.0766 13.2394 48.393C12.9855 48.6237 12.7074 48.8262 12.4101 48.997C11.058 49.7309 9.53682 50.0954 7.99944 50.054C6.46881 50.1186 4.94801 49.7802 3.58878 49.0725C3.35242 48.9374 3.12569 48.786 2.91022 48.6195C2.41672 48.2642 2.04742 47.7624 1.85468 47.1851V47.1474ZM1.85468 50.4692C1.78052 50.2503 1.74233 50.0208 1.74158 49.7897C1.74275 49.5986 1.76808 49.4083 1.81698 49.2235C1.86975 49.0952 1.93007 48.9593 2.00547 48.8083L2.15626 49.0348C2.5112 49.5826 3.00572 50.0257 3.58878 50.3182C4.93192 51.0787 6.45707 51.4572 7.99944 51.4129C9.5418 51.4572 11.067 51.0787 12.4101 50.3182C13.0637 49.9799 13.6018 49.4542 13.9557 48.8083C14.0823 49.0574 14.1576 49.3295 14.177 49.6084C14.1964 49.8872 14.1596 50.1671 14.0688 50.4314C13.7793 51.2418 13.1837 51.906 12.4101 52.2811C11.058 53.015 9.53682 53.3795 7.99944 53.338C6.46205 53.3795 4.94087 53.015 3.58878 52.2811C2.83098 51.8976 2.22124 51.2738 1.85468 50.5069V50.4692ZM26.019 55.15C25.9619 55.3399 25.8726 55.5187 25.7552 55.6784C25.4066 56.2507 24.9122 56.7198 24.3226 57.0374C22.9582 57.7783 21.4263 58.1553 19.8743 58.1321C18.5089 58.1613 17.1549 57.8772 15.916 57.3016C15.7853 57.2494 15.6592 57.1862 15.539 57.1129C15.1064 56.8221 14.7002 56.4936 14.3251 56.1314C14.0996 55.8533 13.9329 55.5323 13.8351 55.1877C13.7833 55.0406 13.7454 54.8889 13.722 54.7347C13.3649 55.1964 12.9188 55.5816 12.4101 55.8672C11.058 56.601 9.53682 56.9656 7.99944 56.9241C6.46205 56.9656 4.94087 56.601 3.58878 55.8672C2.38245 55.1651 1.7642 54.3572 1.74158 53.338C1.73911 52.9641 1.84377 52.5973 2.04316 52.2811C2.42371 52.9063 2.95523 53.4255 3.58878 53.791C4.94819 54.5017 6.46649 54.8525 7.99944 54.8102C9.53238 54.8525 11.0507 54.5017 12.4101 53.791C12.8931 53.4972 13.3259 53.1276 13.6918 52.6963C13.7374 52.9849 13.8264 53.2649 13.9557 53.5268C14.0299 53.6278 14.0813 53.7437 14.1065 53.8665C14.4861 54.2882 14.9318 54.6452 15.4259 54.9235C15.4585 54.9556 15.4969 54.9812 15.539 54.999C16.8641 55.732 18.3609 56.097 19.8743 56.0559H20.3568C21.7407 56.0192 23.0967 55.6572 24.3151 54.999H24.3528C24.9642 54.6811 25.4738 54.197 25.823 53.6023C26.0248 53.9174 26.1297 54.2849 26.1246 54.6592C26.1158 54.8397 26.0802 55.0178 26.019 55.1877V55.15ZM1.96777 43.5613C1.81375 43.271 1.73592 42.9463 1.74158 42.6176C1.73959 42.2607 1.83054 41.9094 2.00547 41.5984C2.39932 42.226 2.94358 42.745 3.58878 43.1083C4.94819 43.819 6.46649 44.1698 7.99944 44.1275C9.53238 44.1698 11.0507 43.819 12.4101 43.1083C12.609 42.9848 12.7981 42.8459 12.9756 42.6931C13.3809 42.3917 13.7154 42.0052 13.9557 41.5607C14.099 41.8816 14.176 42.2283 14.1819 42.5799C14.1887 42.9044 14.1244 43.2266 13.9934 43.5236C13.7513 43.9992 13.403 44.4125 12.9756 44.7315C12.8021 44.8598 12.6137 44.9806 12.4101 45.109C11.058 45.8428 9.53682 46.2074 7.99944 46.1659C6.46205 46.2074 4.94087 45.8428 3.58878 45.109C2.89978 44.776 2.33273 44.2346 1.96777 43.5613ZM25.9059 56.8109C26.0542 57.1033 26.1317 57.4266 26.1321 57.7546C26.1335 58.0106 26.0954 58.2652 26.019 58.5095C25.6739 59.2878 25.076 59.9264 24.3226 60.3214C22.9512 61.0362 21.4197 61.3871 19.8743 61.3406C18.3654 61.3825 16.8716 61.0313 15.539 60.3214C14.7457 59.9691 14.1227 59.3182 13.8049 58.5095C13.7286 58.2652 13.6904 58.0106 13.6918 57.7546C13.685 57.43 13.7493 57.1078 13.8803 56.8109C14.0812 57.2272 14.3785 57.5896 14.7474 57.8678C14.9509 58.0188 15.2073 58.1924 15.539 58.3963C16.8641 59.1294 18.3609 59.4943 19.8743 59.4532C21.424 59.4974 22.958 59.1329 24.3226 58.3963C25.0033 58.047 25.5571 57.4924 25.9059 56.8109ZM25.9059 60.1327C26.0542 60.4252 26.1317 60.7484 26.1321 61.0764C26.1321 62.0578 25.529 62.9034 24.3226 63.6055C22.9512 64.3203 21.4197 64.6712 19.8743 64.6247C18.3654 64.6666 16.8716 64.3154 15.539 63.6055C15.1093 63.3262 14.7474 63.077 14.4458 62.8506C14.5534 63.0603 14.6054 63.2943 14.5966 63.53C14.5966 64.5115 13.9783 65.357 12.7494 66.0591C11.3919 66.7749 9.8722 67.1261 8.33872 67.0783C6.82987 67.1202 5.33603 66.769 4.00346 66.0591C2.79712 65.357 2.17888 64.5492 2.15626 63.53C2.16088 63.1378 2.25094 62.7513 2.42014 62.3976C2.81136 63.008 3.35785 63.5031 4.00346 63.832C5.3249 64.5782 6.82191 64.9562 8.33872 64.9267C9.8767 64.9739 11.3994 64.609 12.7494 63.8698C13.3374 63.5696 13.8424 63.1287 14.2196 62.5863C14.2491 62.5517 14.2744 62.5137 14.295 62.4731C14.5016 62.1323 14.6063 61.7392 14.5966 61.3406C14.5936 61.2265 14.581 61.1129 14.5589 61.0009C14.8592 61.2852 15.1876 61.5381 15.539 61.7559C16.8641 62.4889 18.3609 62.8539 19.8743 62.8128C21.424 62.857 22.958 62.4925 24.3226 61.7559C25.0042 61.3902 25.5569 60.8235 25.9059 60.1327Z" fill="#D68D00"/>
<path fill-rule="evenodd" clip-rule="evenodd" d="M14.0688 50.507C14.1597 50.2426 14.1965 49.9627 14.1771 49.6839C14.1576 49.405 14.0824 49.1329 13.9558 48.8838L15.6145 49.8275C15.5771 49.8209 15.5388 49.8209 15.5014 49.8275C14.9947 50.1192 14.5367 50.4885 14.1442 50.9222C14.1441 50.7804 14.1186 50.6397 14.0688 50.507ZM13.805 58.4718C13.7271 58.6897 13.6888 58.9198 13.6919 59.1513V59.491C13.412 59.2203 13.0946 58.9914 12.7494 58.8115C12.3676 58.5822 11.9634 58.3925 11.5431 58.2453L12.4855 58.3963C12.7854 58.4955 13.0756 58.6219 13.3526 58.7738C13.4907 58.6553 13.6426 58.5539 13.805 58.4718Z" fill="#65B4F9"/>
<path fill-rule="evenodd" clip-rule="evenodd" d="M44.8302 54.9237L58.8538 46.7701L32.4653 31.6709L18.2909 39.7112L44.8302 54.9237Z" fill="#EEE6BC"/>
<path fill-rule="evenodd" clip-rule="evenodd" d="M45.3205 36.238L45.4336 36.2984L52.8601 40.5639L55.4235 42.0738L62.6766 46.2639L64.3957 47.2604L60.4751 49.5253C60.2742 49.5143 60.0728 49.5143 59.8719 49.5253C58.7017 49.5048 57.538 49.7046 56.4414 50.1142C56.1022 50.2425 55.7743 50.3991 55.4612 50.5822C55.0274 50.7944 54.6304 51.0748 54.2851 51.4127C53.8656 51.8488 53.6306 52.4304 53.6291 53.0359C53.6205 53.1615 53.6205 53.2877 53.6291 53.4133L45.6749 57.9431L14.084 39.824C14.1312 39.6518 14.1565 39.4742 14.1594 39.2956C14.1605 39.052 14.1223 38.8098 14.0463 38.5784L23.0184 33.354L25.8684 31.7082L31.6663 28.3486L33.3627 29.3301L35.6246 30.6362L43.1642 34.9923L44.6721 35.8605L45.3205 36.238Z" fill="#EEE6BC"/>
<path fill-rule="evenodd" clip-rule="evenodd" d="M38.5347 38.2766C37.7574 38.2753 36.9811 38.3333 36.2126 38.4502C35.1763 38.586 34.1623 38.8576 33.1967 39.258C32.8801 39.3939 32.5785 39.5449 32.2769 39.711C31.6038 40.0933 30.9935 40.5772 30.4674 41.1454C29.9463 41.7454 29.641 42.503 29.6003 43.2971C29.6556 44.807 30.5478 46.0275 32.2769 46.9587C34.1743 48.0196 36.325 48.5417 38.497 48.4686C39.612 48.4779 40.7245 48.3639 41.8145 48.1288C42.8815 47.9024 43.9017 47.4938 44.8303 46.9209C45.1175 46.7623 45.3945 46.5858 45.6597 46.3924C46.2914 45.9718 46.8094 45.4012 47.1676 44.7315C47.3805 44.3099 47.494 43.845 47.4993 43.3726C47.4993 42.1093 46.8207 41.0146 45.4636 40.0885C45.2751 39.9602 45.0716 39.8318 44.8605 39.711C44.3305 39.4116 43.7755 39.159 43.2017 38.9561C41.6949 38.4703 40.1174 38.2407 38.5347 38.2766Z" fill="#7DBF5C"/>
<path fill-rule="evenodd" clip-rule="evenodd" d="M50.7113 47.638C50.035 47.3407 49.3007 47.1988 48.5625 47.2228C48.1415 47.2185 47.7222 47.277 47.3185 47.3965C47.0507 47.4761 46.7965 47.5957 46.5645 47.7513C45.9086 48.0306 45.5844 48.393 45.5844 48.846C45.6327 49.1093 45.7484 49.3555 45.9202 49.5606C46.092 49.7657 46.314 49.9227 46.5645 50.0162C47.1792 50.4181 47.9045 50.6162 48.6379 50.5824C49.3538 50.5851 50.0616 50.4305 50.7113 50.1294C50.9062 49.9956 51.077 49.8297 51.2164 49.6387C51.3739 49.4181 51.4607 49.1548 51.4652 48.8837C51.4547 48.6293 51.38 48.3816 51.2482 48.1638C51.1164 47.946 50.9317 47.7652 50.7113 47.638Z" fill="#7DBF5C"/>
<path fill-rule="evenodd" clip-rule="evenodd" d="M26.5846 38.6918C27.198 39.0903 27.9199 39.2881 28.6505 39.258C29.3502 39.2595 30.0428 39.1182 30.6862 38.8428C30.9429 38.6778 31.1552 38.4523 31.3044 38.186C31.3925 38.0155 31.439 37.8267 31.4401 37.6348C31.4359 37.3739 31.3643 37.1185 31.2321 36.8936C31.1 36.6686 30.9119 36.4818 30.6862 36.3514C30.0167 36.0297 29.2796 35.8744 28.5374 35.8984C28.2072 35.8948 27.8779 35.9329 27.5573 36.0117C27.2026 36.0926 26.8687 36.2469 26.5771 36.4646C25.8985 36.744 25.5593 37.129 25.5593 37.6348C25.6296 37.8822 25.7601 38.1082 25.939 38.2926C26.118 38.4771 26.3398 38.6142 26.5846 38.6918Z" fill="#7DBF5C"/>
<path fill-rule="evenodd" clip-rule="evenodd" d="M44.8302 54.9237L18.2909 39.7112L32.4653 31.6709L58.8538 46.7701L44.8302 54.9237Z" fill="#7DBF5C"/>
<path fill-rule="evenodd" clip-rule="evenodd" d="M50.7113 47.6377C50.9265 47.7614 51.1079 47.9364 51.2394 48.1471C51.371 48.3578 51.4485 48.5977 51.4652 48.8457C51.4607 49.1168 51.3739 49.3801 51.2164 49.6006C51.077 49.7916 50.9062 49.9576 50.7113 50.0913C50.0616 50.3924 49.3538 50.547 48.6379 50.5443C47.9045 50.5781 47.1792 50.38 46.5645 49.9781C46.314 49.8846 46.092 49.7276 45.9202 49.5225C45.7484 49.3174 45.6327 49.0712 45.5844 48.8079C45.5844 48.3549 45.9086 47.9926 46.5645 47.7132C46.7965 47.5576 47.0507 47.438 47.3185 47.3584C47.7222 47.2389 48.1415 47.1804 48.5625 47.1847C49.3036 47.1726 50.038 47.3274 50.7113 47.6377Z" fill="#EEE6BC"/>
<path fill-rule="evenodd" clip-rule="evenodd" d="M38.5348 38.2761C40.1095 38.2557 41.6766 38.4981 43.1717 38.9933C43.7454 39.1963 44.3004 39.4489 44.8304 39.7483C45.0415 39.8691 45.2451 39.9974 45.4336 40.1257C46.8108 41.0267 47.4994 42.1088 47.4994 43.3721C47.5023 43.8567 47.3912 44.3351 47.1752 44.7688C46.8171 45.4385 46.299 46.009 45.6673 46.4297C45.4021 46.623 45.1251 46.7995 44.8379 46.9581C43.9093 47.531 42.8891 47.9396 41.8221 48.1661C40.7321 48.4012 39.6196 48.5151 38.5047 48.5058C36.3327 48.5789 34.182 48.0569 32.2845 46.9959C30.5504 46.0899 29.6582 44.8694 29.608 43.3343C29.6486 42.5402 29.9539 41.7827 30.475 41.1827C31.0011 40.6144 31.6114 40.1306 32.2845 39.7483C32.5861 39.5822 32.8877 39.4312 33.2044 39.2953C34.1699 38.8949 35.1839 38.6233 36.2202 38.4875C36.9853 38.3583 37.759 38.2876 38.5348 38.2761Z" fill="#EEE6BC"/>
<path fill-rule="evenodd" clip-rule="evenodd" d="M26.5845 38.6919C26.3366 38.6098 26.1134 38.4665 25.9355 38.2751C25.7576 38.0838 25.6308 37.8507 25.5667 37.5972C25.5667 37.0914 25.9059 36.7064 26.5845 36.427C26.8761 36.2093 27.21 36.055 27.5646 35.9741C27.8853 35.8953 28.2146 35.8572 28.5448 35.8608C29.287 35.8368 30.0241 35.9921 30.6936 36.3138C30.9193 36.4442 31.1074 36.631 31.2395 36.856C31.3717 37.0809 31.4433 37.3363 31.4475 37.5972C31.4464 37.7891 31.3999 37.9779 31.3118 38.1484C31.1626 38.4147 30.9503 38.6402 30.6936 38.8052C30.0506 39.0946 29.3552 39.2488 28.6503 39.2581C27.9198 39.2883 27.1979 39.0904 26.5845 38.6919Z" fill="#EEE6BC"/>
<path d="M25.8683 16.3452C25.8016 16.3465 25.7361 16.3281 25.6798 16.2923C25.5929 16.2432 25.529 16.1615 25.5022 16.0653C25.4753 15.969 25.4877 15.8661 25.5365 15.779L25.6873 15.5147C25.7391 15.4285 25.8225 15.366 25.9198 15.3406C26.017 15.3152 26.1203 15.3289 26.2075 15.3788C26.2507 15.4031 26.2885 15.4357 26.3188 15.4749C26.3491 15.514 26.3712 15.5589 26.3839 15.6068C26.3965 15.6546 26.3995 15.7046 26.3925 15.7536C26.3855 15.8026 26.3688 15.8498 26.3432 15.8922L26.1925 16.1564C26.1596 16.2135 26.1123 16.2609 26.0555 16.294C25.9986 16.3271 25.934 16.3448 25.8683 16.3452Z" fill="black"/>
</svg>
