<svg width="120" height="69" fill="none" xmlns="http://www.w3.org/2000/svg"><path fill-rule="evenodd" clip-rule="evenodd" d="M52.257 63.417l1.508-.868a4.01 4.01 0 001.696 1.812 9.036 9.036 0 005.61.943 7.014 7.014 0 003.958-1.51 2.445 2.445 0 00.83-3.02l.225-.868a2.748 2.748 0 011.282 3.171 4.132 4.132 0 01-1.13 2.114 5.192 5.192 0 01-3.092 1.548 18.777 18.777 0 01-5.919-.265 7.787 7.787 0 01-4.968-3.057zM2.42 62.398c-.17.353-.26.74-.264 1.132 0 .981.641 1.827 1.847 2.53a8.706 8.706 0 004.336 1.018 8.865 8.865 0 004.41-1.019c1.23-.702 1.848-1.51 1.848-2.529a1.376 1.376 0 00-.151-.68c.301.227.663.476 1.093.755a8.706 8.706 0 004.335 1.02 9.036 9.036 0 004.449-1.02c1.206-.702 1.81-1.51 1.81-2.529a2.104 2.104 0 00-.227-.943c.146-.307.223-.642.226-.982 0-.23-.039-.46-.113-.68.076-.243.115-.498.113-.754 0-.328-.078-.651-.226-.944.145-.28.223-.59.226-.906l19.603 11.325v.264h-6.936L27.678 60.51a.12.12 0 010 .076c.123.442.174.9.15 1.359.024.302.012.606-.037.906-.316.36-.513.807-.566 1.283a5.37 5.37 0 01-1.583 1.51 3.07 3.07 0 01-.49.377 10.454 10.454 0 01-5.278 1.246 10.823 10.823 0 01-4.712-.981c-.272.3-.59.555-.942.755a9.156 9.156 0 00-.49.34 10.378 10.378 0 01-5.278 1.283 9.994 9.994 0 01-5.203-1.284 5.12 5.12 0 01-2.676-3.02 4.996 4.996 0 012.111-4.605l.264-.075a2.266 2.266 0 00-.49 2.755l-.038-.037zm-.565-11.891a1.943 1.943 0 00-.113.68c.004.372.108.737.301 1.056-.2.316-.304.683-.301 1.057 0 .982.64 1.827 1.847 2.53a8.752 8.752 0 004.41 1.056 8.75 8.75 0 004.411-1.019 4.35 4.35 0 001.282-1.094c.023.154.061.305.113.452a2.137 2.137 0 00-.113.68c-.001.204.024.407.075.604a2.46 2.46 0 01-.527.34c-.844.453-1.748.784-2.685.981-.098 0-.226.053-.377.076a10.75 10.75 0 00-1.81-.151 9.681 9.681 0 00-2.11.226l-.415-.075a10.875 10.875 0 01-3.091-1.095C.872 55.678-.045 54.332 0 52.77v-.037a3.983 3.983 0 011.81-3.473 2.268 2.268 0 00-.076.566c.003.232.044.462.12.68zm77.808-1.887v-3.828l6.824 3.903L116.079 30.5l-.022-.981L120 31.784 87.316 50.718l-5.39-3.155-1.984 1.23-.279-.173z" fill="#CBDFFF"/><path fill-rule="evenodd" clip-rule="evenodd" d="M16.481 24.023v3.155l7.351 4.19 2.036-.981v1.321l-2.827 1.646L11.694 26.8l4.787-2.778zm65.595 40.639l7.464-4.34v-.356l5.127 2.96-10.224 5.926-18.358-10.57a3.025 3.025 0 00-.227-.867c.152-.305.23-.641.227-.982a1.712 1.712 0 00-.114-.604l.053-.15 6.13 3.623 2.413-1.359v2.454l7.509 4.265z" fill="#C5E3FF"/><path fill-rule="evenodd" clip-rule="evenodd" d="M67.389 22.71l-1.47-.892 3.015-1.887-.98-.566-3.016 1.872-1.508-.906 3.016-1.872-.98-.529-5.277 3.27v-2.213l3.43-2.114-.98-.566-2.45 1.51v-1.963l.753-.49-.754-.469v-4.137l-4.26-2.416L69.365 0l46.67 26.839L86.29 45.335l-6.597-3.774v-3.51l-7.683-4.418-1.809 1.133v-3.058l9.236-5.76-.98-.566-8.294 5.133v-2.22l6.409-3.948-.98-.604-5.429 3.36v-1.94l3.77-2.363-1.018-.566-3.053 1.925-1.508-.891 3.091-1.925-.98-.567-3.076 1.933zm6.13-3.776l1.017.529L84 13.589l-.98-.528-9.5 5.873zm7.908-6.855l-1.055-.566-9.575 6.04 1.017.604 9.614-6.078zm-2.525-1.434l-.98-.566-9.689 6.04 1.018.566 9.65-6.04zm-8.03-4.605l-.98-.567-9.65 6.04.98.566 9.65-6.04zm32.42 18.61l-.942-.567-9.65 6.04.98.566 9.612-6.04zm-2.639-1.51l-.98-.567-9.65 6.04.98.566 9.65-6.04zm7.238 1.698l-.98-.604-11.754 7.323 1.018.529 11.716-7.248zM73.405 7.474l-1.025-.566-9.65 6.04 1.017.604 9.658-6.078zm24.768 14.231l-.912-.566-9.689 6.04.98.566 9.62-6.04zM76.044 8.984l-1.018-.566-9.65 6.04 1.017.566 9.651-6.04zm1.169 12.23l.98.567 9.65-6.04-.98-.566-9.65 6.04zm5.164 2.945l1.018.528 9.576-5.964-.988-.604-9.606 6.04zm-2.676-1.51l1.018.566 9.65-6.04-1.017-.566-9.651 6.04zm2.262 4.718l-.98-.566-9.802 6.115 1.018.567 9.764-6.116zm6.333 3.662l-.98-.566-9.802 6.04 1.018.603 9.764-6.077zm2.677 1.51l-1.018-.566-9.802 6.115 1.018.566 9.802-6.115zm-5.165-2.945l-.98-.528-9.84 6.04.98.604 9.84-6.116zm7.992 4.53l-1.018-.566-9.801 6.04 1.018.566 9.8-6.04z" fill="#F4F9FF"/><path fill-rule="evenodd" clip-rule="evenodd" d="M70.872 6.04l-9.65 6.039-.98-.566 9.65-6.002.98.528zm7.992 4.567l-9.65 6.04-1.018-.567 9.688-6.002.98.529zm2.564 1.472l-9.644 6.04-1.017-.604 9.575-6.002 1.086.566zm-7.88 6.87l9.5-5.889.98.529-9.461 5.888-1.018-.528zm-6.129 3.775l3.076-1.91.98.566-3.09 1.925-.966-.581zm2.812 1.676l-.37-.242 3.13-1.948 1.018.567-3.77 2.363-.008-.74zm0 6.115l8.294-5.134.98.567-9.304 5.76.03-1.193zm0-2.204v-1.208l5.429-3.36.98.604-6.409 3.964zm16.286 20.383l-.226-3.36 29.743-18.496.053 2.68v.982l-29.57 18.194zM60.21 21.2l5.278-3.27.98.53-3.016 1.872-.693-.438-2.564 1.51.015-.204zm0-2.212v-1.17l2.45-1.51.98.566-3.43 2.114zm0-3.133v-.96l.754.469-.754.49zm5.708 5.964l-.958-.581 3.016-1.873.98.566-3.038 1.888zm13.782.83l9.65-6.04 1.019.567-9.651 6.04-1.018-.567zm2.677 1.51l9.605-6.04.98.605-9.575 5.964-1.01-.529zm-5.165-2.944l9.65-6.04.98.567-9.65 6.04-.98-.567zm-1.169-12.23l-9.65 6.04-1.018-.567 9.65-6.04 1.018.567zm22.129 12.72l-9.65 6.04-.98-.566 9.718-6.04.912.567zM73.406 7.475l-9.651 6.04-1.018-.605 9.65-6.04 1.019.605zm34.493 17.364l-11.724 7.247-1.018-.528 11.739-7.3 1.003.58zm-7.238-1.699l-9.65 6.04-.98-.566 9.65-6.04.98.566zm2.639 1.51l-9.613 6.04-.95-.567 9.651-6.04.912.567zm-9.5 9.512L84 40.201l-1.063-.528 9.801-6.04 1.063.528zm-7.992-4.53l-9.801 6.116-.98-.604 9.839-6.04.942.529zm5.165 2.945l-9.802 6.115-1.018-.566 9.802-6.115 1.018.566zm-2.677-1.51l-9.801 6.115-1.018-.604 9.801-6.04 1.018.53zm-6.333-3.661l-9.801 6.115-1.018-.566 9.801-6.116 1.018.567z" fill="#A9CBF3"/><path fill-rule="evenodd" clip-rule="evenodd" d="M86.26 45.335l.227 3.36-6.824-3.904v-3.23l6.597 3.774z" fill="#D8EAFF"/><path fill-rule="evenodd" clip-rule="evenodd" d="M35.594 12.76v6.001l-2.261 1.472-7.465-4.265.151-.264 7.2-4.304 2.375 1.36z" fill="#EF487C"/><path fill-rule="evenodd" clip-rule="evenodd" d="M43.172 15.854V35.03l-7.54-4.356v-19.16l7.54 4.34zm21.374 34.864v-12.63l7.615 4.34v16.837l-6.13-3.624c.04-.16.06-.326.06-.491a2.381 2.381 0 00-.263-1.057c.174-.325.265-.688.264-1.057a2.728 2.728 0 00-1.546-2.318z" fill="#8BBDF9"/><path fill-rule="evenodd" clip-rule="evenodd" d="M23.983 23.215l-7.501-4.303 7.2-4.568 2.337 1.36-.15.263v6.153l-1.886 1.095zM44.68 35.86a1.64 1.64 0 01.113-.566c.108.348.288.67.527.944l-.64-.377zm21.299 19.932c.074.193.112.398.113.604.003.34-.075.677-.226.982a3.021 3.021 0 01-.362.528c-.358.4-.785.732-1.26.982a5.46 5.46 0 01-.753.415c-.761.3-1.56.49-2.375.566a9.564 9.564 0 01-1.244.075 11.95 11.95 0 01-1.395-.075 8.06 8.06 0 01-3.016-.981 4.111 4.111 0 01-1.62-1.51 1.935 1.935 0 01-.265-.982c0-.216.026-.431.076-.642a3.72 3.72 0 001.81 1.925 8.548 8.548 0 004.372 1.057h.566a8.729 8.729 0 003.77-1.056c.142-.08.281-.169.414-.265a2.868 2.868 0 001.395-1.623z" fill="#FC0"/><path fill-rule="evenodd" clip-rule="evenodd" d="M65.828 54.093a3.2 3.2 0 01-.814.966c-.194.161-.4.305-.618.43l-.151.076a7.06 7.06 0 01-1.621.68 10.37 10.37 0 01-2.752.34 8.775 8.775 0 01-4.373-1.02 4.201 4.201 0 01-1.583-1.51 1.647 1.647 0 01-.264-.641 2.733 2.733 0 010-.378 2.35 2.35 0 01.633-1.623 4.523 4.523 0 011.191-.906 6.5 6.5 0 01.98-.468 9.339 9.339 0 013.43-.589c.202-.01.403-.01.604 0 .734.03 1.46.15 2.164.362.56.151 1.1.372 1.606.657.056.03.107.068.15.114l.151.098a2.724 2.724 0 011.508 2.318 2.22 2.22 0 01-.24 1.094zm-11.95 6.644a2.01 2.01 0 01-.264-1.02v-.226c.02-.143.059-.282.113-.415a3.67 3.67 0 001.772 1.85l.565.34a9.391 9.391 0 003.77.716c.479.003.957-.022 1.433-.075a7.48 7.48 0 002.94-.982 4.073 4.073 0 001.508-1.245 3.52 3.52 0 00.264-.604c.072.206.11.423.113.641v.19l-.226.867a3.953 3.953 0 01-1.621 1.51 7.537 7.537 0 01-1.508.68 9.79 9.79 0 01-2.828.377 8.548 8.548 0 01-4.372-1.057 1.23 1.23 0 00-.302-.113 1.116 1.116 0 00-.264-.189 4.59 4.59 0 01-1.093-1.245zm-39.96-25.783a3.597 3.597 0 01-1.508 1.397A8.457 8.457 0 018 37.446a8.458 8.458 0 01-4.411-1.095 4.104 4.104 0 01-1.508-1.434 2.093 2.093 0 01-.302-1.057c0-.982.604-1.827 1.81-2.53a8.834 8.834 0 014.448-1.056 8.752 8.752 0 014.41 1.057c1.177.702 1.773 1.51 1.773 2.529-.02.382-.122.756-.302 1.094z" fill="#FC0"/><path fill-rule="evenodd" clip-rule="evenodd" d="M2.043 38.239a2.138 2.138 0 01-.226-1.66c.342.832.97 1.515 1.772 1.924a8.751 8.751 0 004.41 1.057 8.752 8.752 0 004.411-1.057 3.198 3.198 0 001.659-1.925c.078.192.117.397.113.604-.008.38-.098.753-.264 1.095-.127.26-.306.492-.528.68l-.301.226a.234.234 0 01-.114.113 4.52 4.52 0 01-.565.415A8.752 8.752 0 018 40.768a8.752 8.752 0 01-4.411-1.057 4.36 4.36 0 01-1.546-1.472z" fill="#FC0"/><path fill-rule="evenodd" clip-rule="evenodd" d="M2.005 41.598a2.002 2.002 0 01-.15-1.661 3.584 3.584 0 001.734 1.887 8.752 8.752 0 004.41 1.057 8.752 8.752 0 004.411-1.057c.204-.128.392-.249.566-.377a2.687 2.687 0 001.093-1.434c.08.204.119.422.113.641-.003.34-.08.675-.226.982-.24.444-.575.83-.98 1.132a4.519 4.519 0 01-.566.415A8.984 8.984 0 018 44.203a8.984 8.984 0 01-4.411-1.02 4.443 4.443 0 01-1.584-1.585z" fill="#FC0"/><path fill-rule="evenodd" clip-rule="evenodd" d="M13.956 45.562a3.608 3.608 0 01-.98 1.095 9.266 9.266 0 01-.566.377c-.534.292-1.088.544-1.659.755-.898.235-1.823.35-2.752.34-.94.008-1.878-.106-2.79-.34a10.236 10.236 0 01-1.62-.755 3.84 3.84 0 01-1.583-1.51c-.17-.3-.26-.637-.264-.981 0-.328.078-.651.226-.944a3.651 3.651 0 001.62 1.586A8.752 8.752 0 008 46.24a8.751 8.751 0 004.411-1.056 9.75 9.75 0 00.566-.378 3.473 3.473 0 001.017-1.208c.122.3.186.62.189.944a2.668 2.668 0 01-.226 1.019z" fill="#FC0"/><path fill-rule="evenodd" clip-rule="evenodd" d="M13.956 48.884a3.704 3.704 0 01-1.546 1.51A8.457 8.457 0 018 51.488a8.458 8.458 0 01-4.411-1.132 3.666 3.666 0 01-1.433-1.284l-.15-.226a2.003 2.003 0 01-.151-1.66c.2.563.568 1.05 1.055 1.396.216.166.442.318.679.453a8.752 8.752 0 004.41 1.057 8.752 8.752 0 004.411-1.02c.297-.17.575-.373.83-.604.401-.316.691-.752.829-1.245.078.218.116.448.113.68a2.613 2.613 0 01-.226.98zm12.063 6.303c.074.219.112.449.113.68a2.01 2.01 0 01-.226.906 3.652 3.652 0 01-1.583 1.585 8.834 8.834 0 01-4.449 1.057 8.48 8.48 0 01-4.335-1.057 10.979 10.979 0 01-.792-.528 2.906 2.906 0 01-.867-1.057 2.268 2.268 0 00-.113-.34 2.366 2.366 0 01-.075-.604c0-.231.039-.46.113-.68.102.36.28.695.52.982.386.35.803.666 1.244.944a2.5 2.5 0 00.377.188 8.94 8.94 0 003.928.869 9.037 9.037 0 004.449-1.02 3.772 3.772 0 001.432-1.359c.122-.17.211-.363.264-.566z" fill="#FC0"/><path fill-rule="evenodd" clip-rule="evenodd" d="M1.855 50.507a3.848 3.848 0 001.734 1.85 8.752 8.752 0 004.41 1.056 8.751 8.751 0 004.411-1.057 3.282 3.282 0 001.659-1.85c.054.145.08.3.075.454a5.6 5.6 0 011.357-1.095.32.32 0 01.114 0 8.51 8.51 0 014.26-.981 9.039 9.039 0 014.448 1.019c1.206.702 1.81 1.51 1.81 2.529-.007.385-.11.761-.302 1.095a3.667 3.667 0 01-1.47 1.396h-.038a8.821 8.821 0 01-3.966 1.057h-.49a8.48 8.48 0 01-4.336-1.057.362.362 0 01-.113-.075A5.228 5.228 0 0114.1 53.79a.87.87 0 00-.15-.34 2.896 2.896 0 01-.265-.83 5.28 5.28 0 01-1.281 1.094 8.986 8.986 0 01-4.411 1.02 8.986 8.986 0 01-4.41-1.02 4.361 4.361 0 01-1.509-1.51 2.093 2.093 0 01-.301-1.056c-.009-.218.02-.434.083-.642zm.565 11.891a2.268 2.268 0 01.49-2.756c.307-.33.663-.61 1.056-.83a6.827 6.827 0 012.262-.831 9.681 9.681 0 012.11-.227c.607 0 1.212.05 1.81.151.474.075.94.189 1.395.34.42.147.825.337 1.206.566.345.18.663.41.943.68v-.34a1.941 1.941 0 01.113-.68c.318.81.94 1.46 1.734 1.813a8.706 8.706 0 004.335 1.019 9.039 9.039 0 004.449-1.02 3.773 3.773 0 001.696-1.811c.074.218.112.448.113.68-.003.339-.08.674-.226.98a3.772 3.772 0 01-1.583 1.51 8.835 8.835 0 01-4.449 1.057 8.48 8.48 0 01-4.335-1.056 6.105 6.105 0 01-.98-.755 2.085 2.085 0 01-.34 1.585 4.012 4.012 0 01-1.47 1.283 8.632 8.632 0 01-4.41 1.17 8.48 8.48 0 01-4.336-1.056 4.081 4.081 0 01-1.583-1.472z" fill="#FC0"/><path fill-rule="evenodd" clip-rule="evenodd" d="M25.868 22.12v8.267l-2.035.981.15-8.153 1.885-1.095z" fill="#BC8E00"/><path fill-rule="evenodd" clip-rule="evenodd" d="M33.333 29.33v-9.097l2.261-1.472v11.875l-2.261-1.306z" fill="#B01D46"/><path fill-rule="evenodd" clip-rule="evenodd" d="M33.333 20.233v9.097l-1.697-.981-5.768 3.36V15.966l7.465 4.266z" fill="#D12B5F"/><path fill-rule="evenodd" clip-rule="evenodd" d="M23.833 31.369l-7.351-4.19v-8.267l7.502 4.303-.151 8.154z" fill="#EBB200"/><path fill-rule="evenodd" clip-rule="evenodd" d="M45.434 10.796l2.148-1.245 5.127-3.058 3.242 1.85 4.26 2.416-7.351 4.34-7.426-4.303zM89.54 52.017l-7.464 4.38-7.54-4.304 5.09-3.133.278-.166 2.021-1.23 5.39 3.155 2.225 1.298z" fill="#D71044"/><path fill-rule="evenodd" clip-rule="evenodd" d="M45.434 36.298V10.796l7.426 4.303v25.465l-7.426-4.266zm36.642 20.097V64.7l-7.54-4.303v-8.305l7.54 4.303z" fill="#C51341"/><path fill-rule="evenodd" clip-rule="evenodd" d="M64.546 38.088l5.655-3.322 1.81-1.133 7.652 4.417-7.502 4.379-7.615-4.341zM43.172 15.816l-7.578-4.303 7.352-4.643 4.636 2.68-2.148 1.246v3.7l-2.262 1.32z" fill="#C6DFFF"/><path fill-rule="evenodd" clip-rule="evenodd" d="M79.663 44.792v4.167l-5.09 3.133v5.814l-2.412 1.359V42.429l7.54-4.379v6.742h-.038zm-36.491-9.814V15.854l2.261-1.32v21.765l-.113-.06a2.633 2.633 0 01-.527-.944c-.071.18-.11.372-.114.566l-1.507-.883z" fill="#4293F5"/><path fill-rule="evenodd" clip-rule="evenodd" d="M67.389 22.702l.965.589 1.508.883.339.212-7.427 4.227-7.35-4.34 4.787-2.832 2.563-1.547.694.437 1.493.906.957.582 1.47.883z" fill="#FFE99A"/><path fill-rule="evenodd" clip-rule="evenodd" d="M55.423 24.272v17.764l-2.563-1.51V15.1l7.351-4.303V21.44l-4.788 2.831zm26.653 40.39v-8.304l7.464-4.379v8.305l-7.464 4.378z" fill="#941A3A"/><path fill-rule="evenodd" clip-rule="evenodd" d="M55.423 24.272l7.351 4.341-.098 17.613-7.253-4.19V24.272z" fill="#FFD22E"/><path fill-rule="evenodd" clip-rule="evenodd" d="M62.775 28.613l7.426-4.228v10.38l-5.654 3.322v12.63l-.151-.097v-3.398l-1.72-.996.099-17.613z" fill="#E09400"/><path fill-rule="evenodd" clip-rule="evenodd" d="M53.727 59.075a1.77 1.77 0 00-.113.415v.227c-.004.357.087.709.264 1.02a2.139 2.139 0 00-.264 1.018c.007.259.058.514.15.755l-1.507.868-6.522 3.775V57.98l7.954-4.53c.042.23.132.45.264.642a2.265 2.265 0 00-.226 1.699 2.8 2.8 0 00-.075.642c-.002.345.09.684.264.981a2.222 2.222 0 00-.264 1.057c-.006.204.02.408.075.604zm10.669-11.852v3.397a.6.6 0 00-.151-.113 6.892 6.892 0 00-1.606-.68 8.697 8.697 0 00-2.164-.362l3.92-2.242z" fill="#C9C29D"/><path fill-rule="evenodd" clip-rule="evenodd" d="M13.993 43.561c.131-.297.196-.619.189-.943a2.609 2.609 0 00-.226-1.02c.146-.306.223-.641.226-.981a1.626 1.626 0 00-.113-.642.372.372 0 00.037-.15l31.591 18.118v9.249L26.132 55.867c0-.231-.039-.46-.113-.68a1.82 1.82 0 00.113-.641c.005-.374-.1-.742-.302-1.057.192-.333.296-.71.302-1.095 0-.981-.603-1.827-1.81-2.529a9.038 9.038 0 00-4.448-1.019 8.51 8.51 0 00-4.26.982l-1.658-.944a2.61 2.61 0 00.226-1.02 1.941 1.941 0 00-.113-.679 2.087 2.087 0 00-.113-1.623c.146-.333.223-.693.226-1.057a2.564 2.564 0 00-.189-.944z" fill="#908A6D"/><path fill-rule="evenodd" clip-rule="evenodd" d="M14.107 39.824a.37.37 0 01-.038.151 2.687 2.687 0 01-1.093 1.472c-.174.129-.362.25-.566.378A8.752 8.752 0 018 42.882a8.751 8.751 0 01-4.411-1.057 3.584 3.584 0 01-1.734-1.888 1.957 1.957 0 01.188-1.699 4.36 4.36 0 001.546 1.51 8.75 8.75 0 004.41 1.02 8.752 8.752 0 004.411-1.057c.199-.124.388-.262.566-.415a.235.235 0 00.113-.114l.301-.226c.221-.187.401-.419.528-.68.058.097.108.198.15.303a2.13 2.13 0 01.038 1.246zm39.808 14.231a4.203 4.203 0 001.584 1.51 8.774 8.774 0 004.373 1.057 10.37 10.37 0 002.752-.34 7.06 7.06 0 001.62-.68l.151-.075a4.47 4.47 0 00.619-.43c.333-.265.61-.593.814-.966.168.327.259.689.264 1.057 0 .165-.02.33-.06.49l-.053.151a2.868 2.868 0 01-1.32 1.624 4.353 4.353 0 01-.414.264 8.729 8.729 0 01-3.77 1.057h-.566a8.549 8.549 0 01-4.373-1.057 3.72 3.72 0 01-1.809-1.925 2.09 2.09 0 01-.075-.604 2.268 2.268 0 01.264-1.133zm-.188 5.02a2.025 2.025 0 01-.113-.641c-.001-.369.09-.732.264-1.057a4.111 4.111 0 001.62 1.51 8.055 8.055 0 003.017.981c.463.053.928.078 1.395.076.415.002.83-.023 1.244-.076a8.708 8.708 0 002.374-.566 5.45 5.45 0 00.754-.415c.475-.25.901-.582 1.26-.981.138-.163.26-.34.361-.529.119.277.195.57.227.868v.189a1.82 1.82 0 01-.114.642 3.44 3.44 0 01-.263.604 4.074 4.074 0 01-1.508 1.245 7.479 7.479 0 01-2.94.982c-.476.053-.955.078-1.433.075a9.391 9.391 0 01-3.77-.717l-.566-.34a3.667 3.667 0 01-1.809-1.85zm.15 1.662c.28.461.636.87 1.056 1.208.097.05.186.113.264.188.105.025.207.063.302.114a8.549 8.549 0 004.373 1.056 9.789 9.789 0 002.827-.377 7.535 7.535 0 001.508-.68 3.952 3.952 0 001.621-1.51 2.448 2.448 0 01-.83 3.02 7.014 7.014 0 01-3.958 1.51 9.036 9.036 0 01-5.617-.943 4.007 4.007 0 01-1.696-1.812 2.269 2.269 0 01-.15-.755c.012-.36.116-.71.3-1.02zM1.856 36.577a2.365 2.365 0 01-.076-.603c-.002-.374.102-.74.302-1.057.382.605.914 1.1 1.545 1.434a8.458 8.458 0 004.411 1.095 8.458 8.458 0 004.41-1.095 3.598 3.598 0 001.509-1.396c.177.31.268.662.264 1.019.004.207-.035.413-.114.604a3.201 3.201 0 01-1.696 1.925A8.753 8.753 0 018 39.56a8.753 8.753 0 01-4.411-1.057 3.773 3.773 0 01-1.772-1.925h.038zm0 10.57a2.268 2.268 0 01-.113-.641c-.008-.358.083-.71.263-1.02.37.647.921 1.171 1.584 1.51.517.299 1.06.551 1.62.755.912.234 1.85.349 2.79.34.929.01 1.854-.105 2.752-.34.57-.21 1.125-.463 1.66-.755a9.55 9.55 0 00.565-.377c.398-.294.731-.666.98-1.095a2.085 2.085 0 01.113 1.623 2.41 2.41 0 01-.83 1.246c-.254.23-.532.433-.829.604A8.752 8.752 0 018 50.054a8.751 8.751 0 01-4.411-.982 5.89 5.89 0 01-.679-.453 2.898 2.898 0 01-1.055-1.434v-.038zm0 3.322a2.14 2.14 0 01-.038-1.245 6.31 6.31 0 01.188-.416l.151.227c.355.548.85.99 1.433 1.283A8.459 8.459 0 008 51.413a8.459 8.459 0 004.411-1.095 3.704 3.704 0 001.546-1.51 2.085 2.085 0 01.113 1.623 3.283 3.283 0 01-1.659 1.85A8.75 8.75 0 018 53.338a8.75 8.75 0 01-4.411-1.057 3.848 3.848 0 01-1.734-1.774v-.038zM26.02 55.15a1.71 1.71 0 01-.264.528 3.772 3.772 0 01-1.432 1.36 9.038 9.038 0 01-4.449 1.094 8.94 8.94 0 01-3.958-.83 2.518 2.518 0 01-.377-.19 8.878 8.878 0 01-1.214-.98 2.645 2.645 0 01-.49-.944 2.488 2.488 0 01-.113-.453 4.352 4.352 0 01-1.312 1.132A8.752 8.752 0 018 56.924a8.751 8.751 0 01-4.411-1.057c-1.207-.702-1.825-1.51-1.847-2.529-.003-.374.102-.74.301-1.057a4.36 4.36 0 001.546 1.51 8.985 8.985 0 004.41 1.02 8.985 8.985 0 004.411-1.02 5.278 5.278 0 001.282-1.095c.045.289.134.569.264.83a.869.869 0 01.15.34c.38.422.826.78 1.32 1.057a.362.362 0 00.113.076 8.48 8.48 0 004.335 1.057h.483a8.82 8.82 0 003.958-1.057h.038a3.667 3.667 0 001.47-1.397c.202.315.307.683.302 1.057-.01.18-.045.359-.106.529v-.038zM1.968 43.561a1.942 1.942 0 01-.226-.943 2.056 2.056 0 01.263-1.02 4.443 4.443 0 001.584 1.51 8.985 8.985 0 004.41 1.02 8.985 8.985 0 004.411-1.02c.199-.123.388-.262.566-.415.405-.301.74-.688.98-1.132.143.32.22.667.226 1.019.007.324-.058.647-.189.944-.242.475-.59.889-1.017 1.207-.174.129-.362.25-.566.378A8.752 8.752 0 018 46.166a8.751 8.751 0 01-4.411-1.057 3.651 3.651 0 01-1.621-1.548zm23.938 13.25c.148.292.226.616.226.944.002.256-.037.51-.113.755a3.772 3.772 0 01-1.696 1.811 9.036 9.036 0 01-4.449 1.02 8.706 8.706 0 01-4.335-1.02 3.305 3.305 0 01-1.734-1.811 2.487 2.487 0 01-.113-.755 2.223 2.223 0 01.188-.944c.201.416.498.779.867 1.057.204.15.46.324.792.528a8.48 8.48 0 004.335 1.057 8.834 8.834 0 004.449-1.057 3.652 3.652 0 001.583-1.585zm0 3.322c.148.292.226.615.226.943 0 .982-.603 1.827-1.81 2.53a9.036 9.036 0 01-4.448 1.019 8.706 8.706 0 01-4.335-1.02c-.43-.279-.792-.528-1.093-.754.107.21.16.443.15.679 0 .981-.618 1.827-1.847 2.53a8.864 8.864 0 01-4.41 1.018 8.706 8.706 0 01-4.336-1.019c-1.206-.702-1.824-1.51-1.847-2.529.005-.392.095-.779.264-1.132.391.61.938 1.105 1.583 1.434a8.481 8.481 0 004.336 1.095 8.632 8.632 0 004.41-1.057 4.014 4.014 0 001.47-1.284 2.087 2.087 0 00.34-1.585c.3.284.629.537.98.755a8.48 8.48 0 004.335 1.057 8.834 8.834 0 004.449-1.057 3.772 3.772 0 001.583-1.623z" fill="#D68D00"/><path fill-rule="evenodd" clip-rule="evenodd" d="M14.069 50.507a2.086 2.086 0 00-.113-1.623l1.659.944a.325.325 0 00-.114 0 5.596 5.596 0 00-1.357 1.094c0-.142-.025-.282-.075-.415zm-.264 7.965a1.941 1.941 0 00-.113.68v.339c-.28-.27-.597-.5-.943-.68a6.545 6.545 0 00-1.206-.566l.943.151c.3.1.59.226.867.378.138-.119.29-.22.452-.302z" fill="#65B4F9"/><path fill-rule="evenodd" clip-rule="evenodd" d="M44.83 54.924l14.024-8.154-26.389-15.1-14.174 8.041 26.54 15.213z" fill="#EEE6BC"/><path fill-rule="evenodd" clip-rule="evenodd" d="M45.32 36.238l.114.06 7.426 4.266 2.563 1.51 7.254 4.19 1.719.996-3.92 2.265a5.517 5.517 0 00-.604 0 9.337 9.337 0 00-3.43.59 6.49 6.49 0 00-.98.467 4.518 4.518 0 00-1.177.83 2.35 2.35 0 00-.656 1.624 2.764 2.764 0 000 .377l-7.954 4.53-31.591-18.119a2.13 2.13 0 00-.038-1.246l8.972-5.224 2.85-1.646 5.798-3.36 1.697.982 2.262 1.306 7.54 4.356 1.507.869.649.377z" fill="#EEE6BC"/><path fill-rule="evenodd" clip-rule="evenodd" d="M38.535 38.277a15.271 15.271 0 00-2.322.173c-1.037.136-2.05.408-3.016.808-.317.136-.619.287-.92.453a7.544 7.544 0 00-1.81 1.434 3.56 3.56 0 00-.867 2.152c.056 1.51.948 2.73 2.677 3.662a11.923 11.923 0 006.22 1.51 15.17 15.17 0 003.318-.34 9.499 9.499 0 003.015-1.208c.288-.159.565-.335.83-.529a4.604 4.604 0 001.508-1.66c.212-.422.326-.887.331-1.36 0-1.263-.678-2.357-2.035-3.283a9.198 9.198 0 00-.603-.378c-.53-.3-1.085-.552-1.66-.755a14.162 14.162 0 00-4.666-.68zm12.176 9.361a4.94 4.94 0 00-2.148-.415 4.23 4.23 0 00-1.245.174c-.267.08-.521.199-.753.354-.656.28-.98.642-.98 1.095a1.548 1.548 0 00.98 1.17c.614.402 1.34.6 2.073.566a4.887 4.887 0 002.073-.453c.195-.133.366-.3.505-.49.158-.22.245-.484.25-.755a1.511 1.511 0 00-.755-1.246zm-24.126-8.946a3.526 3.526 0 002.066.566c.7.002 1.392-.14 2.035-.415.257-.165.47-.39.618-.657.088-.17.135-.36.136-.551a1.51 1.51 0 00-.754-1.284 4.617 4.617 0 00-2.149-.453c-.33-.003-.66.035-.98.114-.354.08-.688.235-.98.453-.679.279-1.018.664-1.018 1.17a1.555 1.555 0 001.026 1.057z" fill="#7DBF5C"/><path fill-rule="evenodd" clip-rule="evenodd" d="M44.83 54.924L18.29 39.71l14.175-8.04 26.389 15.1-14.024 8.153z" fill="#7DBF5C"/><path fill-rule="evenodd" clip-rule="evenodd" d="M50.711 47.638a1.51 1.51 0 01.754 1.208 1.337 1.337 0 01-.249.755 2.08 2.08 0 01-.505.49 4.887 4.887 0 01-2.073.453 3.495 3.495 0 01-2.073-.566 1.546 1.546 0 01-.98-1.17c0-.453.324-.815.98-1.095.232-.155.486-.275.754-.355a4.23 4.23 0 011.243-.173 4.941 4.941 0 012.15.453zm-12.176-9.362c1.575-.02 3.142.222 4.637.717a10.48 10.48 0 011.658.755c.212.121.415.25.604.378 1.377.9 2.065 1.983 2.065 3.246a3.09 3.09 0 01-.324 1.397 4.604 4.604 0 01-1.508 1.66c-.265.194-.542.37-.83.53a9.501 9.501 0 01-3.015 1.207c-1.09.235-2.202.35-3.317.34a11.923 11.923 0 01-6.22-1.51c-1.735-.906-2.627-2.127-2.677-3.662.04-.794.346-1.551.867-2.151a7.541 7.541 0 011.81-1.435c.301-.166.603-.317.92-.453.965-.4 1.979-.672 3.015-.808.765-.129 1.539-.2 2.315-.21zm-11.951.416a1.552 1.552 0 01-1.017-1.095c0-.506.339-.89 1.017-1.17.292-.218.626-.372.98-.453.321-.079.65-.117.98-.113a4.617 4.617 0 012.15.453 1.508 1.508 0 01.754 1.283 1.23 1.23 0 01-.136.551c-.15.267-.362.492-.618.657a5.144 5.144 0 01-2.044.453 3.525 3.525 0 01-2.066-.566z" fill="#EEE6BC"/><path d="M25.868 16.345a.339.339 0 01-.188-.053.377.377 0 01-.143-.513l.15-.264a.385.385 0 01.632-.04.37.37 0 01.024.417l-.15.264a.377.377 0 01-.325.19z" fill="#000"/></svg>