<svg width="100" height="119" fill="none" xmlns="http://www.w3.org/2000/svg"><path fill-rule="evenodd" clip-rule="evenodd" d="M69.76 70.063c.078-.418.137-.853.188-1.22l21.966-12.582.682.384c.03.036.046.081.043.128v.128l-.043-.213.043.256-22.878 13.12zM52.7 79.847l-9.707 5.545-.939-.554 10.62-6.1c-.008.367-.008.743 0 1.11h.026zM6.313 64.152l.128-.086 1.979-1.151v1.493L35.23 80.87 6.313 64.194v-.042z" fill="#EEF6FF"/><path fill-rule="evenodd" clip-rule="evenodd" d="M69.24 77.561v-3.624l23.399-13.41v3.626L69.24 77.562zm-.273 7.464a52.45 52.45 0 00.085-1.467c.052-.853.086-1.612.086-2.286l23.5-13.495.043 3.625h-.042L68.967 85.025zm-6.824-3.412l-1.518.853c0-1.484-.043-2.32-.043-2.559v-.955l.853-.486c.068.213.145.426.213.64.132.843.305 1.68.52 2.507h-.025zm1.553 6.423l-2.193 1.254c-.162-.853-.341-1.996-.554-3.326l2.047-1.17c0 .086 0 .172.06.257.298 1.083.512 2.073.665 2.985h-.025zm-20.686.981l10.117-5.8c.076.35.17.7.273 1.049.307.657.588 1.288.852 1.877L43.078 92.6v3.668l12.386-7.123c.12.282.23.555.324.853.299.742.563 1.468.81 2.176l-13.477 7.72v.938L6.142 79.762v-1.066l36.85 21.197.171-.085-.042-3.583-.128.043L6.185 75.113l.042-3.668v.043l36.766 21.155.085-.086-.043-3.54h-.042L6.313 67.862v-3.599l28.9 16.676 6.67 4.095.214-.128.938.554-.025 3.557z" fill="#C5DFFE"/><path fill-rule="evenodd" clip-rule="evenodd" d="M6.313 64.153a.418.418 0 01.042-.171s.06 0 .086.085l-.128.086z" fill="#837C6E"/><path fill-rule="evenodd" clip-rule="evenodd" d="M6.227 71.317l.043.128h-.043v-.128z" fill="#D7E5EA"/><path fill-rule="evenodd" clip-rule="evenodd" d="M31.477 20.862a10.45 10.45 0 00-2.005-.512 8.771 8.771 0 00-.98-.128c.29-.332.622-.725.997-1.194l.453-.554c.17-.197.324-.367.469-.512l.128.47a.759.759 0 010 .127c.231.798.546 1.57.938 2.303zm19.662 5.204c.518.675.962 1.404 1.322 2.175l.128.341a2.78 2.78 0 01-.085 2.09l-.554.981a23.07 23.07 0 01-.896 1.024 29.31 29.31 0 00-5.673 2.175c-2.963 1.365-5.095 2.047-6.398 2.047a1.98 1.98 0 01-.571-.085 4.803 4.803 0 01-1.348-.725c-.742-.572-1.109-1.041-1.109-1.408.125-1.038.383-2.056.768-3.028.368-.96.612-1.964.725-2.986a7.14 7.14 0 00-.921-3.582 8.333 8.333 0 00-1.442-1.817c.55.19 1.125.299 1.706.324.78.085 1.567.085 2.346 0a11.848 11.848 0 001.706-.341c1.45.853 3.753 1.28 6.91 1.28a5.273 5.273 0 001.834-.342c.068.125.154.24.255.341l.384.555c.171.17.342.358.512.554l.128.128.128.17.145.129z" fill="#D1E7F4"/><path fill-rule="evenodd" clip-rule="evenodd" d="M51.054 32.676a8.55 8.55 0 00-.512.47c-.537.451-.938.81-1.194 1.066a9.84 9.84 0 00-1.066 1.151 21.205 21.205 0 00-.128 2.107v3.14a7.319 7.319 0 01-4.308 4.264 14.152 14.152 0 01-6.185 1.067 9.812 9.812 0 01-3.454-.452l-.171-.06a3.41 3.41 0 01-2.346-2.517c.06-.852.103-1.535.128-1.961v-.316a5.024 5.024 0 00-.298-1.604c.398-2.923.782-5.311 1.151-7.165.84.014 1.661-.24 2.346-.725a1.706 1.706 0 00.768-2.047v-.128c-.06-.171-.111-.325-.17-.47v-.127l-.257-.598a10.68 10.68 0 00-.853-1.518 12.696 12.696 0 00-1.083-1.467.409.409 0 01-.085-.128c-.06 0-.086-.06-.086-.085l-.128-.128a18.876 18.876 0 00-4.265-3.413c-.196.282-.512.709-.938 1.28-.427.572-.623.913-.853 1.28 0-.509.086-1.014.256-1.493.133-.47.366-.907.682-1.28.175-.183.332-.383.47-.597.328.024.656.067.98.128a10.45 10.45 0 012.005.512 5.877 5.877 0 002.559 2.175c.322.09.65.162.981.213a8.336 8.336 0 011.442 1.817 7.14 7.14 0 01.92 3.583 12.044 12.044 0 01-.724 2.986 12.09 12.09 0 00-.768 3.028c0 .367.367.853 1.109 1.407a4.8 4.8 0 001.348.725c.185.057.378.085.571.086 1.308 0 3.44-.683 6.398-2.048a29.307 29.307 0 015.758-2.158zm-1.45-8.487a5.273 5.273 0 01-1.834.34c-3.157 0-5.46-.426-6.91-1.279a7.234 7.234 0 003.2-2.047l.34.17c.345.165.73.224 1.11.171a3.558 3.558 0 001.407-.938c.41-.395.906-.687 1.45-.853a7.072 7.072 0 001.237 4.436z" fill="#A7C4E4"/><path fill-rule="evenodd" clip-rule="evenodd" d="M38.429 1.2a.538.538 0 01.256-.085h.042a1.441 1.441 0 01.981.512c.07.067.135.138.197.213.145.17.315.392.528.682-.118.028-.233.07-.34.128a.281.281 0 00-.214.085l-.256.103-.213.153-.043.043-.426.341-.598.597-.554.768a1.058 1.058 0 01-.683.47h-.17a.58.58 0 01-.341-.086.136.136 0 00-.086 0 .709.709 0 01-.255-.512 3.08 3.08 0 01.64-2.132l.042-.043v-.085c.334-.46.793-.816 1.322-1.024l.17-.128zm.128 21.112h.767a7.677 7.677 0 003.455-1.066c.205-.095.393-.225.555-.384l.34.17.385.214a7.234 7.234 0 01-3.2 2.047c-.559.156-1.129.27-1.705.342-.78.085-1.566.085-2.346 0a6.047 6.047 0 01-1.706-.325 8.298 8.298 0 01-.981-.213 5.878 5.878 0 01-2.56-2.175 11.943 11.943 0 01-.895-2.303.76.76 0 000-.128l-.128-.47 1.749-1.535a2.994 2.994 0 00-.299.597 2.559 2.559 0 00-.187.768 3.02 3.02 0 00.529 1.877c.285.517.678.968 1.151 1.322.476.349 1.01.609 1.578.768 1.143.297 2.317.463 3.498.494zm.793 38.003a3.754 3.754 0 00-.196.597v-.086a7.746 7.746 0 00-.725-.554 18.92 18.92 0 01-5.263-5.186 10.43 10.43 0 01-.751-1.34l1.28.896.571.384c1.254.853 2.116 1.382 2.559 1.706l1.066.853c.089.085.19.157.299.213.066.063.137.12.213.17l.427.427.853.853a.427.427 0 00-.043.128.494.494 0 00-.128.214c-.085.22-.142.448-.17.682a.247.247 0 00.008.043zm8.889-4.479l-1.579.939a7.751 7.751 0 00-1.492-.359c-.256 0-.512-.06-.768-.068a3.748 3.748 0 00-.768-.128h-.895a2.141 2.141 0 01-1.45-.554 3.556 3.556 0 01-.342-.299l-.17-.17-.171-.154a3.398 3.398 0 01-.299-.316l-.068-.068-.23-.188c-.75-.853-1.604-1.765-2.56-2.883l-.144-.188-2.218-2.73a30.697 30.697 0 00-1.28-1.577c1.323.422 2.706.624 4.095.597.972.003 1.943-.083 2.9-.256l.853-.17a14.964 14.964 0 003.779-1.51c.341-.205.682-.427 1.024-.666l.528-.384a53.14 53.14 0 001.067-.853c.324-.264.605-.563.853-.853a6.18 6.18 0 00.512-.597c.06.196.11.41.17.64.06.23.077.281.111.444.102.426.205.946.316 1.578.042.264.085.545.128.853a6.035 6.035 0 00-1.553.511c-.365.18-.704.41-1.006.683a5.118 5.118 0 00-1.578 2.9c-.077.4-.125.805-.145 1.211v.708c.32.73.721 1.422 1.194 2.065.136.239.298.486.469.75.247.41.486.777.717 1.092zM29.344 58.31a15.758 15.758 0 01-.682-1.791s0-.086-.043-.128a46.156 46.156 0 01-.47-1.792c.18.674.368 1.323.58 1.962.214.64.35 1.178.615 1.749z" fill="#009CB4"/><path fill-rule="evenodd" clip-rule="evenodd" d="M75.407 45.489l-.554 1.024L74 48.005l-.555 1.05-.853 1.706-.537 1.006-1.007 1.851-.273.512a2.382 2.382 0 01-.299.444 6.034 6.034 0 01-1.322 1.245c-.315.23-.665.46-1.066.7h-.085l-1.596.938-1.117.64-.145.085-9.511 5.502a.18.18 0 00-.128.043c-.328.195-.67.366-1.024.511-.486.145-.58-.042-.298-.554l6.227-11.601a.136.136 0 00.042-.086c.088-.174.203-.332.342-.469a4.48 4.48 0 011.023-1.023 7.759 7.759 0 011.323-.896l.895-.512 11.516-6.654c1.424-.852 1.902-.81 1.45.043l-1.595 3.003z" fill="#595959"/><path fill-rule="evenodd" clip-rule="evenodd" d="M70.29 98.888l.852 1.305c.43.69.93 1.333 1.493 1.919a7.551 7.551 0 011.663 2.772 6.552 6.552 0 01.214 3.199 1.985 1.985 0 01-1.578 1.109 3.535 3.535 0 01-1.962-.128 11.216 11.216 0 01-2.389-.981 3.905 3.905 0 01-.682-.426c.216.187.472.401.767.64a3.826 3.826 0 011.45 2.985 1.355 1.355 0 01-.64 1.322 3.125 3.125 0 01-1.492.555c-1.16.17-2.338.17-3.497 0a9.19 9.19 0 01-3.327-1.109 4.054 4.054 0 01-1.45-2.005 23.608 23.608 0 01-.555-2.474v1.237c-.36.262-.791.41-1.237.427a1.615 1.615 0 01-1.237-.427 16.723 16.723 0 00-.298-4.265 18.815 18.815 0 00-1.134-3.838l-.103-.256a2.815 2.815 0 01.102-2.005c.101-.238.224-.467.367-.682a8.532 8.532 0 012.09-2.048 6.743 6.743 0 00-.341 1.468 4.01 4.01 0 000 .452c-.006.677.14 1.347.426 1.962a.759.759 0 000 .085c.333.682.853 1.825 1.45 3.412.598 1.587 1.084 2.747 1.45 3.54a3.29 3.29 0 001.28 1.621 2.163 2.163 0 001.877.384 7.837 7.837 0 001.834-.981 1.212 1.212 0 00.426-1.706c.338.454.74.857 1.195 1.194.067.09.155.163.256.213a2.792 2.792 0 01-.768-.981 13.074 13.074 0 01-.597-2.559c-.13-.896-.33-1.78-.597-2.644.003.33-.086.655-.256.938a1.618 1.618 0 01-.597.512 2.804 2.804 0 01-.128-.512 77.551 77.551 0 01-.299-2.047c-.08-.49-.194-.975-.341-1.45a8.001 8.001 0 00-.213-.597 36.594 36.594 0 01-1.212-3.78c-.213-.742-.4-1.518-.58-2.32.115-.115.244-.215.384-.298.46-.304.987-.494 1.536-.555a3.9 3.9 0 01-.555.64 1.075 1.075 0 00-.256.768c.031.45.097.898.196 1.34a16.655 16.655 0 001.126 3.411l.768 1.348.401.81c.401.913.708 1.706.938 2.304.316.793.512 1.279.597 1.45a1.93 1.93 0 001.11 1.066 2.716 2.716 0 002.09-.554 2.679 2.679 0 001.279-1.707 6.638 6.638 0 00-.768-1.706.56.56 0 01-.128-.17 6.577 6.577 0 01-.64-1.169 2.946 2.946 0 01-.17-.665l.41.657z" fill="#62598E"/><path fill-rule="evenodd" clip-rule="evenodd" d="M46.788 61.038l-.981-.597a3.111 3.111 0 00-.17-.298 2.56 2.56 0 011.023.725s.043.042.128.17zm1.45-5.118l4.564-2.602 4.18-2.388.597-.384.554-.298c.453-.228.93-.4 1.425-.512.354-.08.724-.034 1.049.128l1.237.725c-.395.283-.74.629-1.024 1.023a1.78 1.78 0 00-.34.47.137.137 0 01-.044.085L54.21 63.768c-.281.512-.187.7.299.555a2.124 2.124 0 01-1.877.127l-3.54-2.004a4.264 4.264 0 00-.725-1.28 19.97 19.97 0 01-1.322-1.834c.559.388 1.037.88 1.407 1.45a3.19 3.19 0 001.493 1.195 1.98 1.98 0 00-.128-1.195s-.205-.366-.529-1.023v-.043l.768-.512a8.778 8.778 0 00-2.516-1.962l-.853-.383 1.552-.939zM32.415 45.726l-.214-.213v-.042l-.128-.128a5.45 5.45 0 01-1.28-1.834c.327-.178.64-.377.94-.597a3.41 3.41 0 002.345 2.516l.17.06a9.81 9.81 0 003.455.452 14.152 14.152 0 006.185-1.066 7.319 7.319 0 004.308-4.266 4.018 4.018 0 011.28 1.792c-.159.21-.33.409-.513.597-.247.273-.537.546-.853.853-.315.307-.682.571-1.066.853l-.529.384c-.341.239-.682.46-1.024.665a14.962 14.962 0 01-3.779 1.51l-.853.17c-.956.174-1.927.26-2.9.256a12.636 12.636 0 01-4.094-.597 1.556 1.556 0 00-.17-.213l-.3-.298-.554-.47-.426-.383z" fill="#333"/><path fill-rule="evenodd" clip-rule="evenodd" d="M92.639 66.456v1.322L69.138 81.273v-1.084c.06-.477.094-1.347.102-2.627l23.399-13.41v2.304zm-23.347 7.48c.03-1.122.15-2.24.358-3.343.042-.18.076-.359.11-.53l22.88-13.118v3.583l-23.347 13.41zm23.39-2.559v.81l-23.774 13.65c0-.316.042-.606.06-.854l23.67-13.537.043-.069zM61.46 78.415l-.853.486c0-1.177.085-2.226.17-3.13a.852.852 0 00.128-.23l.384 2.26c0 .136.068.281.111.426.043.145.043.128.06.213v-.025zm1.56 6.355l-2.047 1.169a286 286 0 00-.281-1.851c-.102-.657 0-1.152-.043-1.621l1.519-.853c0 .153.068.298.102.452.162.614.41 1.518.75 2.73v-.026zm.803 4.035l-2.167 1.254a15.592 15.592 0 01-.128-.794l2.192-1.254c.046.285.08.558.103.82v-.026zm-10.697-5.588l-10.092 5.784-.042-3.625 9.682-5.545a2.26 2.26 0 000 .341c.058 1.027.21 2.046.452 3.046zm3.514 8.872l.256.742-13.734 7.916v-.938l13.478-7.72zm-1.134-2.986L43.12 96.226v-3.668l11.174-6.398c.452 1.11.879 2.09 1.212 2.943z" fill="#F4F9FF"/><path fill-rule="evenodd" clip-rule="evenodd" d="M93.875 55.136l-1.962 1.126-21.965 12.582a13.12 13.12 0 000-3.156c0-.162 0-.316-.06-.469l24.968-14.33-.17 3.326-.043.512-.768.41zm-41.2 23.603l-10.621 6.1-.213.127.256-3.795 9.425-5.417c.52.077 1.024.128 1.51.17a.369.369 0 000 .086 17.317 17.317 0 00-.358 2.73z" fill="#D8EAFF"/><path fill-rule="evenodd" clip-rule="evenodd" d="M39.88 2.735a.28.28 0 01.212-.086c.108-.057.223-.1.342-.127a5.758 5.758 0 014.734.17 9.69 9.69 0 013.753 3.071c.398.467.768.957 1.11 1.467.153.248.28.46.383.666a4.15 4.15 0 01.597 2.559v.128a10.987 10.987 0 01-5.46 1.79 6.373 6.373 0 01-2.831-.852 14.513 14.513 0 01-1.433-.853l-1.322-.938a6.193 6.193 0 01-.981-3.242 9.695 9.695 0 01.469-1.706c.341-.938.511-1.433.511-1.493a2.944 2.944 0 00-.085-.554zm-2.56 2.43c-.051.112-.102.214-.145.316a5.432 5.432 0 00-.537 2.159s.358 1.595 1.066 4.691c.145.401.299.785.47 1.152a2.283 2.283 0 00-.385.042v.598a2.72 2.72 0 01-1.791-.683 5.234 5.234 0 01-1.109-1.578 4.345 4.345 0 01-.341-.64 1.71 1.71 0 00.213-.682 8.154 8.154 0 01.128-2.431 9.773 9.773 0 011.535-2.858.23.23 0 01.111-.11.137.137 0 01.086 0 .58.58 0 00.34.085h.172a.437.437 0 00.145-.06h.042zM38.472 1.2a1.059 1.059 0 00-1.11-.64 4.82 4.82 0 00-2.644 1.323c-.48.4-.922.842-1.322 1.322a11.09 11.09 0 00-2.516 7.464v.853a1.936 1.936 0 00-.555 0 6.955 6.955 0 00-.298-1.791c-.256-.853-.444-1.434-.555-1.834a5.17 5.17 0 01-.17-1.792 3.215 3.215 0 01.725-1.62c.06-.111.196-.538.426-1.28.123-.428.342-.822.64-1.152l.128-.17A5.408 5.408 0 0134.08.304a15.925 15.925 0 013.497-.299.853.853 0 01.768.384c.188.214.36.442.512.682l-.128.043a.537.537 0 00-.299.085h.043z" fill="#713D22"/><path fill-rule="evenodd" clip-rule="evenodd" d="M34.505 11.18v-.128l-.341-.768a.137.137 0 00-.043-.085v-.128a5.117 5.117 0 00-1.834 1.45 2.081 2.081 0 01-.981.043l-.384-.043h-.085v-.853a11.09 11.09 0 012.516-7.464c.4-.48.842-.923 1.322-1.322A4.82 4.82 0 0137.32.56a1.058 1.058 0 011.109.64h-.086l-.085.085c-.53.208-.988.563-1.322 1.023v.086l-.043.042a3.08 3.08 0 00-.64 2.133.708.708 0 00.256.512.23.23 0 00-.11.11 9.778 9.778 0 00-1.536 2.858 8.15 8.15 0 00-.128 2.431 1.707 1.707 0 01-.23.7zm2.772-6.014a.751.751 0 00.512-.426l.554-.768.598-.597.426-.341.043-.043.213-.154.256-.102c.029.169.043.34.043.512 0 .06-.171.554-.512 1.493a9.686 9.686 0 00-.47 1.706c.02 1.15.36 2.273.982 3.241l1.322.938c.46.312.94.597 1.433.853a6.371 6.371 0 002.832.854 11.001 11.001 0 005.46-1.792 2.969 2.969 0 01-.342 1.237l-1.535 1.45a11.28 11.28 0 01-3.498 1.024l-.043.128a3.464 3.464 0 01-1.706 1.194c-.646.153-1.301.267-1.962.341a.853.853 0 01-.255.043l-.214-.086a2.142 2.142 0 01-.725-.554 25.832 25.832 0 01-.597-.682l-.213-.214a3.48 3.48 0 00-.853-.767h-.06a1.458 1.458 0 00-.793-.145 14.72 14.72 0 01-.47-1.152 597.117 597.117 0 01-1.066-4.692 5.434 5.434 0 01.538-2.158c0-.128.051-.23.102-.34z" fill="#452312"/><path fill-rule="evenodd" clip-rule="evenodd" d="M48.366 19.753a3.608 3.608 0 00-1.45.853c-.387.421-.87.743-1.407.938a1.953 1.953 0 01-1.11-.17l-.724-.384-.341-.17a9.903 9.903 0 01-3.413-2.816 11.534 11.534 0 01-2.115-3.736l-.06-.188v-.554a2.28 2.28 0 01.384-.043c.273-.027.548.023.793.145h.06c.325.207.613.467.853.768l.213.213c.145.17.342.401.598.683.199.235.446.424.724.554l.214.085a.853.853 0 00.256-.042c.27.11.56.168.853.17 2.6.066 5.16-.663 7.336-2.09.34-.23.657-.452.938-.682-.008.085-.008.17 0 .256a5.118 5.118 0 01-1.493 2.73 1.159 1.159 0 00-.426.853c-.02.241-.02.483 0 .725v.298c.043.316.013.636-.086.939a.724.724 0 01-.597.665zm-13.05 8.018a8.299 8.299 0 00-1.963 1.45c-2.986 2.986-4.478 6.995-4.478 12.028 0 0 .102.341.298.913.12.367.273.853.47 1.39a3.737 3.737 0 002.772 2.176l.384.383.554.47.299.298c.063.066.12.138.17.213.282.316.708.854 1.28 1.578l2.218 2.73.145.188a64.672 64.672 0 002.559 2.883l.23.188.068.068c.08.105.165.205.256.299h.043l.17.153.171.17c.107.107.221.207.341.3.397.359.915.557 1.45.554h.896c.26.016.517.059.768.128.256 0 .512 0 .768.068.508.07 1.008.19 1.492.358l.853.384a8.778 8.778 0 012.517 1.962l-.768.512v.042c.324.657.503.999.529 1.024.165.375.21.793.128 1.194a3.19 3.19 0 01-1.493-1.194 5.246 5.246 0 00-1.407-1.45 19.97 19.97 0 001.322 1.834c.314.381.56.814.725 1.28a.59.59 0 11-.853.426 3.48 3.48 0 01-.768-.938 12.26 12.26 0 00-.64-.853c-.145-.17-.128-.145-.128-.17a2.559 2.559 0 00-1.023-.726c.062.096.12.196.17.299.081.141.182.27.299.383l.17.214c.2.226.414.44.64.64a.24.24 0 01.128.127c.378.356.67.794.853 1.28a.66.66 0 01.043.256l.043.341a5.869 5.869 0 01-2.218-1.45 4.692 4.692 0 00-2.175-1.493c.182.306.397.592.64.853.085.06.366.282.852.683a3.31 3.31 0 011.195 1.706 3.063 3.063 0 01-1.706-.683 69.098 69.098 0 00-1.408-1.194c-.316-.256-.853-.7-1.791-1.407-.474-.347-.93-.717-1.365-1.11a3.414 3.414 0 00-.512-.042.495.495 0 01.128-.213.426.426 0 01.043-.128l-.853-.853-.427-.427a1.536 1.536 0 01-.213-.17 1.263 1.263 0 01-.299-.214l-1.066-.853c-.47-.324-1.33-.853-2.56-1.706l-.57-.384-1.28-.895a34.118 34.118 0 01-1.834-1.28 15.354 15.354 0 01-2.645-2.687 7.448 7.448 0 00-.4-.469c-.205-.23-.683-.75-1.22-1.322a16.835 16.835 0 01-1.536-1.792 6.539 6.539 0 01-.11-1.407c.015-.846.11-1.688.28-2.517.146-.852.274-1.51.385-1.962.11-.767.187-1.407.213-1.919.205-1.113.333-2.239.384-3.37.11-1.594.23-2.712.341-3.369a4.83 4.83 0 00.102-.75 9.4 9.4 0 00.069-1.254c0-.913 0-1.595.042-2.047a10.758 10.758 0 01.597-4.01c.23-.367.512-.793.853-1.28.342-.485.743-.997.939-1.279a18.879 18.879 0 014.265 3.412l.128.128s0 .06.085.086a.41.41 0 00.086.127c.395.463.757.953 1.083 1.468.304.517.563 1.06.776 1.62zM58.218 42.93c.392.955.853 2.064 1.39 3.327 0 .127.094.247.145.366.79.599 1.65 1.1 2.56 1.493l.11.043c.587.28 1.156.593 1.706.938l-.895.512c-.47.252-.914.552-1.323.895l-1.236-.724a1.578 1.578 0 00-1.05-.129 6.222 6.222 0 00-1.424.512l-.555.299-.597.384a3.908 3.908 0 01-.512-1.578.854.854 0 01-.06-.197 2.933 2.933 0 01-.11-.4.416.416 0 01-.043-.171l-.043-.043a5.47 5.47 0 01-.17-.853 1.706 1.706 0 01-.06-.196 17.908 17.908 0 00-1.459-2.96.741.741 0 01-.06-.085c-.409-.64-.955-1.4-1.646-2.286a3.708 3.708 0 00-.23-.316c-.297-1.12-.51-2.26-.64-3.412.027-1.154.2-2.3.512-3.412.154-.572.341-1.177.554-1.809.146-.34.273-.665.384-.98.29.563.58 1.142.853 1.748.683 1.416 1.39 2.952 2.107 4.606.077.18.435 1.024 1.067 2.56l.725 1.868zm.98 23.995a12.318 12.318 0 011.536 2.047c.218.323.403.666.555 1.024a6.88 6.88 0 01.298 2.346c0 .29-.042.58-.085.853-.043.273-.068.358-.102.537-.094.418-.205.853-.35 1.297-.043.145-.094.299-.145.452a.853.853 0 01-.128.299 43.833 43.833 0 00-.17 3.13v1.05c0 .196 0 1.032.042 2.559 0 .469 0 1.006.043 1.62.042.615.196 1.28.281 1.851.213 1.331.392 2.44.555 3.327.04.29.082.555.127.794.069.426.128.784.188 1.066.06.281.111.469.17.725.18.802.367 1.578.58 2.32.336 1.28.74 2.542 1.212 3.779.077.188.145.384.213.597.147.475.261.96.341 1.45.06.452.154 1.135.3 2.047.026.175.068.346.127.512.148.992.481 1.946.981 2.815h-.043c-.998.853-1.62 1.322-1.876 1.322-1.51 0-2.67-.981-3.498-2.943-.597-2.217-.964-3.522-1.109-3.923-.06-.18-.11-.359-.17-.538a43.487 43.487 0 00-.896-2.559 16.35 16.35 0 00-.426-1.024 39.64 39.64 0 00-.853-2.84l-.256-.742A49.913 49.913 0 0055.83 90c-.095-.256-.205-.53-.325-.853a69.491 69.491 0 00-1.254-2.943c-.264-.589-.546-1.22-.853-1.877-.102-.35-.196-.7-.273-1.05a17.097 17.097 0 01-.452-3.045 2.286 2.286 0 010-.34v-1.11c.041-.917.155-1.83.341-2.73a.38.38 0 010-.085c.128-.46.339-.894.623-1.28.311-.391.543-.84.682-1.321a25.261 25.261 0 00-4.18-2.346c-.398-.17-.995-.47-1.79-.896.04-.836.169-1.665.383-2.474a3.822 3.822 0 011.834-.682c1.962-.367 3.045-.572 3.242-.597.366-.111.725-.213 1.066-.299l.853-.341a6.659 6.659 0 001.322-.768l.085.086c.735.572 1.425 1.2 2.065 1.876z" fill="#FFAA83"/><path fill-rule="evenodd" clip-rule="evenodd" d="M43.334 20.818c-.162.159-.35.289-.555.384a7.677 7.677 0 01-3.455 1.066h-.767a.43.43 0 010-.128c.077-.263.12-.535.127-.81a5.767 5.767 0 00-.64-2.602 3.669 3.669 0 00-3.582-2.26h-.665a6.323 6.323 0 00-1.851.443.179.179 0 00-.128.043c.077-.21.177-.41.298-.597a60.29 60.29 0 003.796-3.028c.495.437 1.131.68 1.791.682l.06.188a11.534 11.534 0 002.116 3.736 9.903 9.903 0 003.455 2.883zM57.067 64.92l-1.535-1.194a.179.179 0 01.128-.042l9.51-5.502c.14.162.268.333.385.511.361.513.76.998 1.194 1.45-.19.19-.406.354-.64.487a1.05 1.05 0 01-.17.11c-.31.185-.596.405-.853.658-.43.443-.757.976-.956 1.56a4.98 4.98 0 00-.273 1.17 5.89 5.89 0 00-.068.963c.004.178.027.355.068.529 0 .222.111.486.188.793.152.413.252.843.298 1.28 0 0-.06.486-.17 1.34l-.444 3.411c-.05.367-.094.768-.153 1.186a10.33 10.33 0 01-2.133 4.691.86.86 0 01-.06-.127c-.042-.145-.076-.29-.11-.427l-.367-2.226c.05-.154.102-.307.145-.452.145-.444.256-.853.35-1.297 0-.18.076-.358.102-.537.026-.18.068-.58.085-.854a6.894 6.894 0 00-.298-2.345 8.055 8.055 0 01.895-1.749c0-.452-.324-.785-.895-.981a4.315 4.315 0 00-1.45-.299 4.913 4.913 0 00-.64 0 18.55 18.55 0 00-2.047-1.919l-.086-.188zm-.085-14.074l-4.18 2.388c.033-.07.061-.14.085-.213a11.94 11.94 0 011.28-1.834c.243-.3.505-.586.785-.853.457-.426.967-.79 1.518-1.084.053.563.228 1.107.512 1.596zm6.952 40.177a13.897 13.897 0 00-.085-2.09c.245.373.445.774.597 1.194 0 .063.042.745.128 2.048 0 .307.05.58.085.853.032.367.09.732.17 1.091A21.562 21.562 0 0066.537 98c.102.17.213.367.34.571.496.853 1.178 1.991 2.048 3.412a6.554 6.554 0 001.834-1.791c.336.53.594 1.104.768 1.706a2.682 2.682 0 01-1.28 1.706 2.72 2.72 0 01-2.09.555 1.92 1.92 0 01-1.109-1.067c-.085-.17-.281-.656-.597-1.45a41.67 41.67 0 00-.938-2.303l-.341-.768-.708-1.364a16.59 16.59 0 01-1.126-3.413c-.1-.44-.166-.888-.196-1.339-.018-.28.074-.555.256-.768.203-.201.383-.424.537-.665z" fill="#CE7C56"/><path fill-rule="evenodd" clip-rule="evenodd" d="M68.907 85.905c0 .316-.043.657-.068 1.024a41.728 41.728 0 00-.043 3.685 21.51 21.51 0 00.341 3.054c.06.537.188 1.28.384 2.218.17 1.083.282 1.85.341 2.303.031.228.089.45.171.665a6.6 6.6 0 00.64 1.169.562.562 0 00.128.171 6.579 6.579 0 01-1.834 1.791 443.782 443.782 0 01-2.047-3.412c-.128-.205-.24-.401-.342-.572a21.57 21.57 0 01-1.706-3.881 8.25 8.25 0 01-.17-1.092c0-.247-.069-.52-.086-.853a142.18 142.18 0 01-.127-2.047 5.716 5.716 0 00-.598-1.194.23.23 0 000-.103 3.2 3.2 0 00-.102-.793 38.294 38.294 0 00-.64-2.986c0-.085-.043-.17-.06-.256a181.343 181.343 0 01-.75-2.73c0-.153-.077-.298-.102-.451a25.603 25.603 0 01-.495-2.56c-.069-.213-.145-.426-.213-.64 0-.085 0-.17-.06-.255a.861.861 0 00.06.128 10.33 10.33 0 002.132-4.692c.06-.418.102-.853.154-1.186a291.3 291.3 0 00.443-3.412c.103-.853.17-1.296.17-1.339a5.326 5.326 0 00-.298-1.28c-.077-.306-.145-.57-.187-.793a2.554 2.554 0 01-.069-.528c-.003-.323.02-.646.069-.964.043-.4.135-.792.273-1.17a4.172 4.172 0 01.955-1.56c.257-.252.543-.473.853-.657a1.16 1.16 0 00.17-.11 3.04 3.04 0 00.64-.487c.4.399.828.77 1.28 1.109a7.122 7.122 0 011.902 3.966c0 .154.043.308.06.47a13.11 13.11 0 010 3.156c-.051.4-.111.802-.188 1.22 0 .17-.068.35-.11.528a21.009 21.009 0 00-.36 3.344v3.627c0 1.28 0 2.15-.102 2.627v1.083c0 .674 0 1.442-.085 2.286 0 .384-.042.853-.085 1.468-.196.307-.213.597-.239.912zM50.994 13.313c-.282.23-.597.452-.939.682a12.796 12.796 0 01-7.336 2.09 2.34 2.34 0 01-.853-.17c.66-.075 1.316-.189 1.962-.341a3.463 3.463 0 001.706-1.195l.043-.128a11.275 11.275 0 003.497-1.023l1.536-1.45c.227-.39.358-.83.384-1.28.026.112.04.226.042.341.092.823.084 1.653-.025 2.474h-.017zm-1.408 4.265c.213 2.013.358 3.225.427 3.625.17 1.37.44 2.724.81 4.052.04.05.07.109.085.171.06.196.128.41.214.64l-.128-.128-.128-.17-.128-.129a10.32 10.32 0 00-.512-.554l-.384-.555a1.484 1.484 0 01-.256-.34 7.072 7.072 0 01-1.237-4.437.725.725 0 00.597-.597 2.1 2.1 0 00.086-.938v-.299a4.282 4.282 0 010-.725 1.16 1.16 0 01.426-.853c.063.432.111.845.145 1.237h-.017zm-11.03 4.734a15.491 15.491 0 01-3.625-.554 4.906 4.906 0 01-1.578-.768 4.153 4.153 0 01-1.151-1.322 3.028 3.028 0 01-.53-1.877c.023-.264.086-.523.188-.767a.179.179 0 01.128-.043 6.32 6.32 0 011.851-.444h.666a3.668 3.668 0 013.582 2.261 5.76 5.76 0 01.64 2.602c-.007.274-.05.547-.128.81a.427.427 0 00-.042.102zm9.81 47.77c-.4-.23-.853-.486-1.45-.768a.137.137 0 01-.085 0 1.259 1.259 0 00-.213-.128c-1.34-.682-2.406-1.177-3.2-1.493l-1.62-.767a7.577 7.577 0 01-1.493-.939 5.792 5.792 0 01-1.194-3.241v-.512a2.331 2.331 0 01.043-.768v-.068c.003-.356.07-.708.196-1.04a.254.254 0 010-.086c.028-.234.086-.463.17-.682.172 0 .343.015.512.042.436.393.892.763 1.365 1.11.938.71 1.535 1.18 1.791 1.407.316.256.785.657 1.408 1.194.485.397 1.08.635 1.706.682a3.31 3.31 0 00-1.194-1.706 21.684 21.684 0 00-.853-.682 5.11 5.11 0 01-.64-.853 4.69 4.69 0 012.175 1.493 5.866 5.866 0 002.218 1.45l-.043-.341a.665.665 0 00-.042-.256 3.412 3.412 0 00-.853-1.28.24.24 0 00-.128-.128c-.226-.2-.44-.414-.64-.64l-.17-.213a1.705 1.705 0 01-.3-.384l.982.597c.145.171.358.453.64.853.199.356.458.673.767.939a.59.59 0 10.853-.427l3.54 2.005a2.124 2.124 0 001.877-.128 7.928 7.928 0 001.024-.512l1.535 1.194c-.41.306-.853.564-1.322.768l-.853.341c-.341.086-.7.188-1.066.299-.197 0-1.28.23-3.242.597a3.82 3.82 0 00-1.834.682 11.885 11.885 0 00-.367 2.389zM30.751 43.51a5.45 5.45 0 001.28 1.834l.128.128v.043l.213.213a3.736 3.736 0 01-2.772-2.175 70.703 70.703 0 01-.47-1.39c-.196-.572-.298-.854-.298-.913 0-5.033 1.493-9.042 4.478-12.028a8.3 8.3 0 012.005-1.45l.256.597v.128c.06.145.11.298.17.469v.128a1.706 1.706 0 01-.767 2.047 3.941 3.941 0 01-2.346.725c-.37 1.849-.753 4.237-1.152 7.166 0 .239-.17.921-.426 2.03 0 .06 0 .128-.043.188a8.328 8.328 0 00-.256 2.26zm18.34-6.568a16.358 16.358 0 01-.81-1.578c.324-.412.68-.797 1.066-1.152a20.34 20.34 0 011.194-1.066 9.47 9.47 0 01.512-.47c.342-.369.64-.71.896-1.023l.554-.98.683 1.193a2.5 2.5 0 00.213.342c-.11.315-.239.64-.384.98-.213.632-.4 1.237-.554 1.809a13.785 13.785 0 00-.512 3.412c.13 1.151.343 2.292.64 3.412l-.086-.085-.213-.256c-1.109-1.473-1.834-2.454-2.175-2.943a25.948 25.948 0 01-1.024-1.595zm16.677 68.455c.11.171.239.358.384.554a1.216 1.216 0 01-.058 1.386c-.1.13-.225.24-.369.32a7.837 7.837 0 01-1.834.981 2.15 2.15 0 01-1.876-.383 3.295 3.295 0 01-1.28-1.621c-.367-.793-.853-1.979-1.45-3.54a44.177 44.177 0 00-1.45-3.412.759.759 0 010-.086 4.554 4.554 0 01-.427-1.962 4.059 4.059 0 010-.452c.059-.5.173-.992.341-1.467.137.299.282.64.427 1.024.273.708.572 1.57.896 2.559.06.179.11.358.17.537.145.401.512 1.706 1.11 3.924.852 1.962 1.987 2.943 3.497 2.943.256 0 .853-.443 1.876-1.322l.043.017z" fill="#ED9870"/><path fill-rule="evenodd" clip-rule="evenodd" d="M68.796 90.613c-.042-1.11 0-2.338.043-3.686 0-.366.051-.708.068-1.023l23.774-13.648v-.81l-.043-3.626v-1.322L100 70.763a14.127 14.127 0 00-1.092 2.559l-30.112 17.29zM55.293 100.66a18.837 18.837 0 011.135 3.839 16.72 16.72 0 01.298 4.265 1.599 1.599 0 001.237.426 2.253 2.253 0 001.237-.383v-1.195c.14.834.325 1.66.554 2.474a4.06 4.06 0 001.45 2.005 9.19 9.19 0 003.327 1.109c1.16.17 2.338.17 3.498 0a3.125 3.125 0 001.493-.555 1.355 1.355 0 00.64-1.322 3.83 3.83 0 00-1.45-2.986 28.224 28.224 0 01-.769-.639c.213.165.441.308.683.426.756.418 1.557.747 2.388.981a3.535 3.535 0 001.962.128 1.99 1.99 0 001.578-1.109 6.552 6.552 0 00-.213-3.199 7.549 7.549 0 00-1.663-2.772 11.664 11.664 0 01-1.493-1.919l-.853-1.305a20.74 20.74 0 016.61 2.2c3.305 1.849 4.954 4.123 4.948 6.825-.005 2.701-1.598 5.061-4.777 7.08a22.97 22.97 0 01-11.814 3.198c-4.13.24-8.246-.66-11.9-2.601-3.304-1.792-4.967-4.066-4.99-6.824-.023-2.759 1.584-5.104 4.82-7.038a19.197 19.197 0 012.064-1.109zM6.184 78.696v.98l36.979 21.07 13.734-7.916c.332.99.622 1.937.853 2.841a8.533 8.533 0 00-2.09 2.047 4.128 4.128 0 00-.367.683l-11.32 6.525-29.855-17.214L0 79.55l6.184-3.566v2.713zm57.69 10.236a13.9 13.9 0 01.086 2.09c-.549.06-1.075.25-1.536.554-.14.083-.269.184-.384.299-.06-.256-.11-.495-.17-.725-.06-.23-.12-.64-.188-1.066l2.167-1.254a.233.233 0 010 .102h.026zm2.304 17.018a10.893 10.893 0 01-.384-.555 8.007 8.007 0 01-.981-2.815 1.61 1.61 0 00.597-.511c.17-.283.26-.608.256-.939.267.865.467 1.749.597 2.645.112.871.313 1.728.597 2.559.179.38.441.716.768.981a.718.718 0 01-.256-.213 5.784 5.784 0 01-1.22-1.152h.026z" fill="#CBDFFF"/><path d="M70.417 43.552l1.109-.64-10.919-6.782-1.109.64 10.92 6.782zM69.18 55.776c-.315.23-.665.46-1.066.699l4.649 2.9 1.151-.682-4.734-2.917zm1.851 4.538l-4.623-2.858-1.118.64 4.632 2.857 1.11-.64zm2.986-12.309l-.555 1.049 8.275 5.16 1.151-.682-8.871-5.527zm5.903 7.233l-7.31-4.478-.538 1.006 6.739 4.154 1.109-.682zm5.843-3.327l-10.364-6.38-.555 1.049 9.81 5.971 1.109-.64zm-9.043 5.204l-5.655-3.498-.273.512a2.374 2.374 0 01-.298.444l5.118 3.181 1.109-.64zM57.443 41.138l.767 1.834 6.355 3.923 1.152-.64-8.274-5.117zm10.107 4.12l1.153-.683-10.92-6.781-1.15.64 10.918 6.824zM50.448 41.93l4.069 2.56.008-.043a.738.738 0 01-.068-.085c-.41-.64-.955-1.433-1.646-2.286l-1.254-.785-1.11.64zm-.427 3.2l1.39.853.01-.043c.59.13 1.165.325 1.714.58l1.407.683a8.53 8.53 0 001.493.469 1.706 1.706 0 01-.06-.196l-6.27-3.924c.103.426.205.947.316 1.578zm9.609 1.186l-.03-.018.01-.042.02.06 2.888 1.8-.145.085-.11-.043a12.36 12.36 0 01-2.56-1.493 1.22 1.22 0 00-.074-.349zm1.122 22.698c.218.323.403.666.555 1.024l-.017-.043a8.054 8.054 0 01.913-1.748c-.043-.452-.325-.785-.896-.981a4.315 4.315 0 00-1.45-.299 4.912 4.912 0 00-.64 0 12.312 12.312 0 011.535 2.047z" fill="#A9CBF3"/><path fill-rule="evenodd" clip-rule="evenodd" d="M42.14 81.17L8.445 60.271l10.808-6.201 8.283-4.76c.205.23.341.384.4.47v.084c-.17 1.492-.126 3 .129 4.479.024.068.038.14.043.213.145.597.298 1.194.469 1.791 0 0 0 .086.042.128l-1.706-1.066-1.109.64 2.918 1.834a7.254 7.254 0 00-.674 1.834l-4.163-2.602-1.066.64 4.99 3.13a9.02 9.02 0 000 2.03l-9.06-5.63-1.108.683 10.518 6.509a9.085 9.085 0 002.917 4.069c2.32 1.962 5.917 3.645 10.79 5.05l2.858 1.774 1.152-.64-.256-.154c.998.23 2.039.453 3.114.666 1.074.213 1.936.358 2.815.469l-9.41 5.46zm-1.792-26.443c.093.111.193.217.299.315h-.043a3.092 3.092 0 01-.298-.315h.042zm15.636-7.336l-6.27-3.924c0-.162-.076-.307-.11-.444-.035-.136-.111-.443-.17-.64a4.018 4.018 0 00-1.28-1.791v-3.14l.938-.528a23.98 23.98 0 001.023 1.535c.381.53 1.107 1.516 2.176 2.96l.213.256.085.086c.083.1.16.206.23.315l-1.253-.785-1.11.64 4.07 2.56c.573.92 1.06 1.89 1.458 2.9zm3.626-1.152a280.677 280.677 0 01-1.39-3.327l6.354 3.95 1.152-.64-8.274-5.118c-.632-1.51-.99-2.355-1.067-2.56a124.877 124.877 0 00-2.107-4.606l6.97-4.009 15.507 9.64 5.673 3.54 1.34.852.98.623 3.114 1.954.938.58 5.16 3.215.94.58-24.97 14.332a7.123 7.123 0 00-1.902-3.966c-.452-.34-.88-.71-1.28-1.11a12.514 12.514 0 01-1.194-1.45 5.007 5.007 0 00-.384-.511l.145-.085 4.632 2.857 1.11-.64-4.624-2.857 1.595-.938h.085l4.65 2.9 1.15-.683-4.733-2.917a6.08 6.08 0 001.322-1.245l5.118 3.181 1.109-.64-5.656-3.497 1.007-1.85 6.739 4.128 1.109-.683-7.31-4.478.852-1.706 8.275 5.16 1.151-.682-8.871-5.527.853-1.493 9.81 5.971 1.109-.64-10.39-6.355 1.62-3.002c.453-.853 0-.853-1.45-.043l-11.516 6.654a16.76 16.76 0 00-1.706-.939l.145-.085-2.891-1.834zm11.942-3.344l-10.919-6.781-1.109.64 10.919 6.78 1.109-.639zm-2.815 1.62l-10.919-6.823-1.151.64 10.918 6.824 1.152-.64zm-17.29 1.408a4.001 4.001 0 00-1.263-.042c0-.29-.086-.572-.128-.853l1.39.895z" fill="#fff"/><g clip-path="url(#clip0)"><path fill-rule="evenodd" clip-rule="evenodd" d="M38.941 60.786v.512a2.327 2.327 0 000 .767v.512a5.818 5.818 0 001.194 3.242c.462.367.963.681 1.493.938l1.621.768a3.505 3.505 0 01-1.535.725 2.269 2.269 0 01-1.706-.333 14.61 14.61 0 01-4.564-2.388 35.942 35.942 0 01-3.881-3.498 6.19 6.19 0 01-.512-.597v-.043a.12.12 0 00-.043-.085.162.162 0 010-.085.238.238 0 00-.213-.128h-.043a.428.428 0 010-.128 18.512 18.512 0 01-1.62-2.772 28.194 28.194 0 01-.615-1.75c-.187-.596-.443-1.321-.622-1.97v-.042a.785.785 0 000-.213 15.807 15.807 0 01-.171-4.479v-.085c.772.997 1.66 1.899 2.644 2.687.487.367 1.092.793 1.834 1.28.22.463.47.91.751 1.339a19.04 19.04 0 005.263 5.186c.255.168.497.353.725.554v.086zm13.861-7.424l-4.691 2.56c-.23-.316-.554-.937-.81-1.363-.17-.265-.333-.52-.47-.751-.47-.644-.87-1.336-1.194-2.064v-.708c.027-.407.078-.811.154-1.212a5.118 5.118 0 011.578-2.9c.3-.275.64-.505 1.007-.682a6.03 6.03 0 011.57-.504 3.712 3.712 0 011.253 0 8.22 8.22 0 011.706.512l1.408.683c.49.213.998.385 1.518.511.035.289.092.574.17.853a.453.453 0 000 .171c.028.136.065.27.112.401 0 .204.075.591.102.655-.553.29-.825.425-1.28.853-.281.265-.612.55-.853.853-.485.568-.913 1.055-1.28 1.706.007.09.007.335 0 .426z" fill="#006774"/></g><g clip-path="url(#clip1)"><path fill-rule="evenodd" clip-rule="evenodd" d="M8.573 60.187l33.652 20.899-.256 3.838-6.654-4.137L8.488 64.324V62.83l.085-2.645zm-2.26 14.842L43.12 96.184l.128-.043.042 3.583-.17.085L6.313 78.612v-3.583zm.042-3.753v-3.54h.043l36.723 21.197h.042v3.54l-.085.086-36.68-21.155v-.043l-.043-.085z" fill="#A9CBF3"/></g><defs><clipPath id="clip0"><path fill="#fff" d="M27.638 45.685h28.636v22.554H27.638z"/></clipPath><clipPath id="clip1"><path fill="#fff" d="M6.313 60.187h36.979V99.81H6.313z"/></clipPath></defs></svg>