<?xml version="1.0" standalone="no"?>
<!DOCTYPE svg PUBLIC "-//W3C//DTD SVG 20010904//EN"
 "http://www.w3.org/TR/2001/REC-SVG-20010904/DTD/svg10.dtd">
<svg version="1.0" xmlns="http://www.w3.org/2000/svg"
 width="800.000000pt" height="800.000000pt" viewBox="0 0 800.000000 800.000000"
 preserveAspectRatio="xMidYMid meet">
<metadata>
Created by potrace 1.11, written by Peter Selinger 2001-2013
</metadata>
<g transform="translate(0.000000,800.000000) scale(0.100000,-0.100000)"
fill="#000000" stroke="none">
<path d="M3705 7949 c-515 -41 -989 -167 -1443 -385 -198 -95 -302 -154 -492
-280 -224 -148 -400 -293 -606 -498 -314 -315 -553 -645 -747 -1032 -552
-1103 -551 -2406 3 -3514 201 -401 418 -700 744 -1026 441 -439 927 -745 1511
-949 1598 -560 3390 -47 4451 1274 458 570 736 1226 840 1981 21 156 30 626
15 801 -93 1071 -591 2023 -1421 2715 -550 459 -1249 771 -1970 879 -271 41
-630 55 -885 34z m700 -273 c557 -65 1071 -240 1545 -527 487 -295 923 -727
1230 -1219 95 -152 256 -481 320 -653 241 -656 292 -1372 146 -2050 -128 -591
-394 -1129 -791 -1602 -112 -133 -355 -372 -485 -476 -525 -421 -1122 -689
-1765 -794 -290 -47 -568 -63 -820 -46 -546 37 -1006 162 -1480 401 -1162 586
-1913 1695 -2026 2990 -15 169 -6 604 15 753 26 186 45 287 81 430 267 1057
969 1930 1945 2418 439 219 910 349 1410 388 153 13 513 5 675 -13z"/>
<path d="M2863 6548 c130 -294 362 -806 369 -815 11 -13 275 -16 283 -3 3 4
-54 139 -126 299 -72 161 -129 294 -127 297 3 2 336 3 741 2 l736 -3 -134
-298 c-84 -189 -129 -300 -122 -303 7 -2 73 -3 147 -2 l134 3 92 205 c50 113
136 308 192 433 56 126 102 231 102 233 0 2 -520 4 -1155 4 l-1155 0 23 -52z"/>
<path d="M2331 5767 c-43 -101 -50 -212 -17 -275 8 -15 127 -139 265 -277
l251 -250 95 95 95 95 -317 318 c-175 175 -326 322 -336 328 -15 8 -20 3 -36
-34z"/>
<path d="M5306 5483 l-329 -326 97 -95 97 -96 259 259 c253 255 258 261 270
315 10 45 9 68 -3 126 -17 77 -42 144 -54 144 -4 -1 -156 -147 -337 -327z"/>
<path d="M3815 5184 c-481 -74 -870 -424 -992 -894 -34 -130 -43 -356 -19
-485 93 -507 455 -874 966 -981 114 -24 332 -24 453 -1 443 88 797 401 931
825 32 103 56 266 56 386 l0 96 -352 0 -353 0 -185 385 c-102 212 -187 391
-189 397 -5 16 82 2 165 -26 134 -45 249 -113 340 -198 l51 -48 94 89 94 89
-40 42 c-67 71 -193 159 -309 216 -222 108 -468 145 -711 108z m50 -281 c-31
-82 -672 -1380 -678 -1376 -17 10 -76 148 -98 228 -109 400 61 826 418 1044
92 56 267 119 337 120 23 1 27 -2 21 -16z m250 -544 c55 -116 102 -215 103
-220 2 -5 -84 -9 -208 -9 -122 0 -210 4 -208 9 13 36 204 430 208 431 3 0 51
-95 105 -211z m376 -779 l137 -285 -32 -27 c-49 -42 -174 -113 -252 -142 -199
-75 -435 -80 -629 -14 -122 42 -315 154 -315 183 0 7 39 93 86 191 48 98 108
225 135 282 l48 102 342 -2 343 -3 137 -285z m449 267 c0 -60 -91 -304 -121
-323 -7 -4 -169 318 -169 337 0 5 65 9 145 9 144 0 145 0 145 -23z"/>
<path d="M1380 4000 c0 -627 1 -1140 3 -1140 2 0 199 85 438 189 l434 189 3
141 c2 99 -1 141 -9 141 -6 0 -141 -57 -301 -126 -159 -69 -291 -124 -294
-122 -2 3 -3 333 -2 734 l3 730 290 -128 c160 -70 296 -127 303 -128 10 0 12
32 10 142 l-3 141 -434 189 c-239 103 -436 188 -438 188 -1 0 -3 -513 -3
-1140z"/>
<path d="M6175 4950 l-430 -188 -3 -146 -3 -146 23 10 c13 6 149 66 303 133
l280 123 3 -730 c1 -401 0 -731 -2 -734 -3 -2 -125 49 -273 113 -147 65 -283
124 -301 131 l-33 14 3 -145 3 -146 435 -190 c239 -104 436 -189 437 -189 2 0
3 513 3 1140 0 627 -3 1140 -7 1139 -5 0 -201 -85 -438 -189z"/>
<path d="M2578 2783 c-135 -137 -254 -263 -263 -281 -24 -50 -21 -155 7 -239
13 -37 29 -68 36 -68 6 0 158 146 337 325 l325 324 -92 93 c-51 51 -95 93 -98
93 -3 0 -116 -111 -252 -247z"/>
<path d="M5074 2939 l-96 -95 331 -325 c183 -178 336 -325 340 -327 12 -4 52
124 58 185 12 108 7 114 -277 398 l-259 259 -97 -95z"/>
<path d="M3211 2228 c-10 -24 -96 -215 -190 -426 -94 -210 -171 -387 -171
-392 0 -6 419 -10 1151 -10 971 0 1150 2 1146 14 -3 7 -90 203 -193 435 l-187
421 -144 0 c-78 0 -143 -4 -143 -8 0 -5 58 -139 130 -298 l129 -289 -736 -3
c-405 -1 -738 0 -741 2 -2 3 49 123 113 268 65 145 124 278 132 296 l13 32
-145 0 -146 0 -18 -42z"/>
</g>
</svg>
