<svg width="386" height="368" fill="none" xmlns="http://www.w3.org/2000/svg"><path opacity=".5" d="M369.402 237.04c5.065 5.092-2.551 13.485-7.185 17.932-8.694 8.285-19.652 2.188-35.387-5.451-11.065-5.38-12.071-12.804 3.592-19.798 15.664-6.994 27.951-3.766 38.98 7.317z" fill="#FFB0CA"/><path opacity=".5" d="M350.649 274.412l25.938-14.812-71.852-41.389 56.296-32.745-60.822-34.969-33.627 19.296L159.2 108.104.191 199.705l76.271 44.616c-14.586 14.777-16.813 27.581-20.334 30.773-12.466 11.19-28.13 19.439-30.465 26.935-2.946 9.576-2.874 16.498 11.712 13.198 12.394-2.797 67.792-35.65 82.989-45.334l18.394 10.76-20.406 11.692 130.375 75.317 132.459-75.676-30.537-17.574z" fill="#FFB0CA"/><path opacity=".5" d="M60.367 74.466c-20.73 0-37.578 10.078-37.578 22.523 0 12.446 16.92 22.488 37.578 22.488s37.579-10.078 37.579-22.488-16.814-22.523-37.579-22.523zm71.17-64.558c-20.766 0-37.579 10.078-37.579 22.523 0 12.446 16.813 22.488 37.579 22.488 20.765 0 37.506-10.078 37.506-22.488S152.302 9.908 131.537 9.908z" fill="#F44780"/><path d="M248.08 357.477s-21.986-9.253-29.351-13.485l-87.013-50.212 128.615-74.241 90.282 52.112c6.503 3.587 26.082 11.585 26.082 11.585L248.08 357.477z" fill="#B89AF2"/><path d="M244.883 322.473s-42.752-18.937-57.051-27.151l-59.206-34.143 128.795-74.206 70.343 40.528c11.496 6.635 46.057 20.73 46.057 20.73l-128.938 74.242z" fill="#19C8E3"/><path d="M262.451 220.041l2.982 1.471 1.832.932.934.574c.13.067.242.165.323.287a1.06 1.06 0 010 .287l-.467.574a3.62 3.62 0 01-.467.538l-.251.287a1.843 1.843 0 01-.827.251h-8.263a.465.465 0 00-.395.179l.934.394a5.43 5.43 0 011.006.538c.289.224.554.476.791.754.211.263.313.596.287.932a2.076 2.076 0 01-.575 1.112 7.182 7.182 0 01-1.76 1.291c-.66.39-1.344.737-2.048 1.04-.826.395-1.724.753-2.694 1.148-.97.394-1.976.681-3.054 1.004a27.333 27.333 0 01-3.126.682c-.943.105-1.895.105-2.838 0a4.788 4.788 0 01-2.263-.61 3.589 3.589 0 01-1.078-.933 2.892 2.892 0 01-.467-1.04 1.714 1.714 0 010-.968 1.072 1.072 0 01.611-.574c.282-.15.585-.259.898-.323h.898a1.683 1.683 0 00.575 1.542 3.085 3.085 0 001.724.538c.813.082 1.631.082 2.443 0 .898 0 1.797-.43 2.695-.681.898-.251 1.76-.61 2.551-.933a14.217 14.217 0 001.975-.968c.503-.287.791-.574.791-.825s0-.466-.503-.681a4.214 4.214 0 00-1.329-.538l-1.581-.395-1.329-.287c-.396 0-.611 0-.647-.215a.46.46 0 010-.43l.216-.502.323-.431a.599.599 0 01.215-.215 2.423 2.423 0 011.114-.359c.689-.13 1.385-.226 2.084-.287l2.586-.251 2.659-.179h3.772a.357.357 0 00.288 0l-1.078-.645-1.437-.718a8.418 8.418 0 01-1.186-.861c-.359-.286-.431-.538-.251-.753.179-.215 0 0 .359-.215l.898-.287.826-.251c.324-.072.324-.072.324 0zm14.622 7.1a1.792 1.792 0 011.077 1.793 5.362 5.362 0 01-1.257 2.403 20.142 20.142 0 01-2.946 2.69 43.941 43.941 0 01-4.167 2.654 51.92 51.92 0 01-4.707 2.296 32.644 32.644 0 01-4.742 1.649c-1.38.4-2.803.629-4.239.682a5.682 5.682 0 01-3.09-.574 1.979 1.979 0 01-1.221-1.901 4.377 4.377 0 011.221-2.403 16.692 16.692 0 013.054-2.654 42.788 42.788 0 014.239-2.582 49.995 49.995 0 014.85-2.26 50.73 50.73 0 014.814-1.614 22.18 22.18 0 014.204-.609 5.32 5.32 0 012.91.43zm-21.556 11.8a4.11 4.11 0 002.946 0 23.053 23.053 0 004.383-1.435 49.092 49.092 0 004.778-2.367 55.355 55.355 0 004.239-2.69 16.18 16.18 0 002.731-2.403c.575-.717.61-1.219 0-1.47a3.815 3.815 0 00-2.623 0c-1.443.391-2.85.907-4.203 1.542-1.581.681-3.162 1.47-4.814 2.331-1.653.861-3.09 1.793-4.347 2.654a16.521 16.521 0 00-2.874 2.295c-.467.861-.467 1.328-.252 1.543h.036zm21.592 5.345a16.611 16.611 0 01-3.269 1.362 28.446 28.446 0 01-3.845.897 18.28 18.28 0 01-3.592.359 5.074 5.074 0 01-2.299-.395 4.023 4.023 0 01-1.294-1.112 2.26 2.26 0 01-.395-1.291c.017-.502.208-.984.539-1.363a5.38 5.38 0 011.581-1.255.36.36 0 01.323 0l.323.287.252.323a.927.927 0 00.179.251 3.339 3.339 0 00-.862 1.901 1.038 1.038 0 00.755.932 4.338 4.338 0 001.904 0 13.962 13.962 0 002.515-.466 26.077 26.077 0 002.658-.933c.783-.324 1.54-.707 2.263-1.147.683-.431 1.042-.861 1.042-1.291a1.395 1.395 0 00-.574-1.148 4.419 4.419 0 00-1.653-.789 6.141 6.141 0 00-2.156-.251l-.179-.215a3.582 3.582 0 010-.359v-.43a3.58 3.58 0 01.898-.646l1.976-1.076 2.479-1.255 2.515-1.184c.79-.359 1.437-.681 2.011-.897a2.848 2.848 0 011.078-.286c.335-.03.671-.03 1.006 0l1.257.502 1.833.968 2.622 1.614c.011.107.011.215 0 .323-.108.195-.24.376-.395.538l-1.006.717a1.291 1.291 0 01-.754 0h-.647l-1.114-.466-1.077-.646-1.258-.609-1.006-.467h-.431a.947.947 0 00-.467 0h-.575l-1.904.969-1.832.932s-.18 0-.251.287c-.072.287 0 .215 0 .251a7.508 7.508 0 012.838 1.291 2.527 2.527 0 01.97 1.686 3.045 3.045 0 01-.755 1.865 8.243 8.243 0 01-2.227 1.722zm16.022 4.231a.388.388 0 010 .359c-.139.15-.295.283-.467.395l-.611.358-.574.287a1.547 1.547 0 01-.899 0l-1.149-.394-1.114-.502-.718-.431h-.791l-.898.574-.826.574-1.078.645a4.52 4.52 0 01-1.042.431h-1.006l-.431-.215a.361.361 0 01-.215-.251c.142-.181.311-.339.502-.467l1.042-.789 1.15-.861.647-.43a.33.33 0 000-.215v-.251c0-.036-.899-.466-1.33-.717a15.059 15.059 0 01-1.257-.789c-.395-.287-.252 0-.216-.287a1.8 1.8 0 01.36-.467 3 3 0 01.646-.466c.156-.128.341-.214.539-.251.259.021.514.081.755.179l1.149.431 1.114.502.611.287c.177.038.361.038.539 0 .176.049.362.049.539 0l.934-.574 1.077-.753 1.15-.61a3.627 3.627 0 011.042-.359c.178-.035.361-.035.539 0 .183.066.353.163.503.287a.75.75 0 01.287.395.503.503 0 010 .502 6.437 6.437 0 01-1.437 1.112l-1.724 1.112a.216.216 0 000 .215v.179l1.544.717c.408.094.788.277 1.114.538zm7.509 9.326a16.555 16.555 0 01-3.269 1.363 35.279 35.279 0 01-3.844.933 21.748 21.748 0 01-3.593.323 4.65 4.65 0 01-2.335-.395 4.01 4.01 0 01-1.293-1.112 2.01 2.01 0 01-.396-1.291 2.19 2.19 0 01.539-1.363c.443-.514.98-.94 1.581-1.255a.289.289 0 01.323 0c.124.061.234.146.324.251l.251.323v.287a3.148 3.148 0 00-.862 1.865 1 1 0 00.718.932 4.466 4.466 0 001.905 0 13.79 13.79 0 002.55-.466 22.707 22.707 0 002.623-.933 12.49 12.49 0 002.299-1.147c.683-.431 1.006-.861 1.042-1.291a1.396 1.396 0 00-.575-1.148 4.696 4.696 0 00-1.652-.789 6.141 6.141 0 00-2.156-.251.46.46 0 010-.215 3.582 3.582 0 010-.359l-.036-.287c.264-.26.567-.478.898-.646l1.976-1.076 2.443-1.255 2.515-1.183 2.048-.897a2.845 2.845 0 011.077-.287c.322-.048.649-.048.97 0 .446.114.879.27 1.294.466l1.796.969c.719.43 1.617.968 2.623 1.65a.917.917 0 010 .322l-.395.502-.575.467a1.486 1.486 0 01-.755 0 3.339 3.339 0 01-.682-.216l-1.114-.466-1.257-.609c-.43-.182-.849-.386-1.258-.61l-1.006-.431-.467-.215h-1.006l-1.904.969-1.832.932a.357.357 0 00-.252.287v.251a6.98 6.98 0 012.839 1.327 2.385 2.385 0 01.97 1.65 3.045 3.045 0 01-.755 1.865 8.069 8.069 0 01-2.335 2.259zm16.346-6.385l2.982 1.471 1.832.968.934.538.323.323-.179.251-.431.574-.503.573c0 .18-.252.252-.252.287-.26.12-.54.193-.826.216l-1.581.179h-6.538a.676.676 0 00-.431 0v.215l.898.359c.351.162.688.354 1.006.574.308.212.586.465.826.753a1.258 1.258 0 01.251.932 2.183 2.183 0 01-.574 1.112 7.18 7.18 0 01-1.976 1.793c-.651.385-1.322.732-2.012 1.04-.826.395-1.725.754-2.695 1.112-.97.359-2.011.718-3.089 1.005a20.497 20.497 0 01-3.126.681c-.944.087-1.894.087-2.838 0a5.606 5.606 0 01-2.227-.61 2.862 2.862 0 01-1.078-.968 2.654 2.654 0 01-.467-1.04 1.646 1.646 0 010-.933c.125-.269.341-.485.611-.609l.898-.287c.298-.029.599-.029.898 0a1.647 1.647 0 00.611 1.506 2.947 2.947 0 001.688.538c.81.118 1.633.118 2.443 0a25.323 25.323 0 002.73-.681 26.82 26.82 0 002.551-.933c.666-.269 1.314-.58 1.94-.932.539-.287.791-.574.791-.825a.825.825 0 00-.503-.682 4.412 4.412 0 00-1.294-.538l-1.401-.43-1.329-.323h-.647a.87.87 0 010-.43c.069-.175.154-.343.252-.502.078-.155.175-.299.287-.431l.216-.251a3.61 3.61 0 011.113-.359l2.084-.286 2.587-.216 2.694-.179h3.772c.081.03.171.03.252 0l-1.006-.466a10.91 10.91 0 01-1.437-.753 6.321 6.321 0 01-1.186-.825c-.323-.287-.395-.538-.251-.789h.359l.898-.323.863-.215c.251-1.256.323-1.256.287-1.184zm-7.041 13.484a11.908 11.908 0 012.479-.968 22.096 22.096 0 013.053-.646 20.586 20.586 0 012.875 0 4.42 4.42 0 011.975.395 1.128 1.128 0 010-.61 8.36 8.36 0 01.503-.932c.255-.34.531-.664.827-.969a4.392 4.392 0 011.006-.825 9.618 9.618 0 012.083-.86 15.127 15.127 0 012.587-.61 11.806 11.806 0 012.479 0 4.002 4.002 0 011.868.466c.402.229.756.534 1.042.897.249.368.42.783.503 1.219.054.458-.034.921-.252 1.327a3.59 3.59 0 01-1.329 1.22l-1.832.932c-.675.312-1.371.576-2.084.789-.747.255-1.517.435-2.299.538a8.273 8.273 0 01-2.299 0 3.589 3.589 0 01-.719 2.045 7.397 7.397 0 01-2.407 2.044 16.42 16.42 0 01-3.125 1.291 30.248 30.248 0 01-3.952.933 24.12 24.12 0 01-3.844.251 5.933 5.933 0 01-2.731-.682 2.265 2.265 0 01-.79-1.721 2.401 2.401 0 01.215-1.686 6.652 6.652 0 011.473-1.901 17.538 17.538 0 012.695-1.937zm0 5.918a3.604 3.604 0 002.012.323 11.168 11.168 0 002.586-.43c.84-.221 1.667-.484 2.479-.789l1.725-.79c.402-.23.776-.507 1.113-.824.308-.311.574-.661.791-1.04.203-.31.315-.67.323-1.041a1.076 1.076 0 00-.395-.824 1.908 1.908 0 00-1.114-.503 9.3 9.3 0 00-2.083 0c-.833.029-1.662.125-2.479.287a8.048 8.048 0 00-2.3.861c-.647.381-1.271.8-1.868 1.255a5.144 5.144 0 00-1.329 1.327 1.97 1.97 0 00-.395 1.256c-.144.215.144.574.754.932h.18zm20.154-8.285c.223-.125.39-.33.467-.574a1.304 1.304 0 000-.645 3.583 3.583 0 00-.287-.646 1.436 1.436 0 00-.431-.394 3.089 3.089 0 00-1.15-.359h-1.581a8.675 8.675 0 00-1.616.359 6.953 6.953 0 00-1.509.609 2.376 2.376 0 00-.647.682c-.2.325-.357.675-.467 1.04a2.84 2.84 0 00-.215 1.004v.61a2.95 2.95 0 001.724.251 11.35 11.35 0 002.12-.502 14.702 14.702 0 002.012-.789l1.58-.646zm-112.52 15.283a12.948 12.948 0 012.767-1.112c1.18-.317 2.38-.557 3.592-.717a20.986 20.986 0 013.269 0 4.279 4.279 0 012.192.43h.18a.924.924 0 010-.717c.157-.365.349-.713.574-1.04.278-.388.578-.759.899-1.112a6.916 6.916 0 011.149-.933 12.53 12.53 0 012.371-.968c.946-.32 1.921-.548 2.91-.682a15.197 15.197 0 012.802-.179c.735.01 1.459.181 2.12.502.442.291.83.655 1.15 1.076.319.394.529.863.61 1.363a2.256 2.256 0 01-.323 1.471 3.59 3.59 0 01-1.473 1.362l-2.048 1.076c-.773.342-1.565.642-2.371.897-.855.279-1.732.483-2.622.61-.86.087-1.727.087-2.587 0a4.081 4.081 0 01-.826 2.295 7.892 7.892 0 01-2.731 2.331 15.802 15.802 0 01-3.592 1.435 30.902 30.902 0 01-4.455 1.04 23.007 23.007 0 01-4.347.287 6.4 6.4 0 01-3.09-.753 2.582 2.582 0 01-1.257-1.542 2.936 2.936 0 01.251-1.937 7.189 7.189 0 011.689-2.116 15.595 15.595 0 013.197-2.367zm-.215 6.671a3.845 3.845 0 002.263.394 17.711 17.711 0 002.91-.502 23.12 23.12 0 002.802-.897c.664-.26 1.312-.559 1.94-.896a7.55 7.55 0 001.258-.933c.353-.346.667-.731.934-1.147.203-.363.314-.769.323-1.184a1.14 1.14 0 00-.467-.932c0-.251-.575-.431-1.257-.574a10.972 10.972 0 00-2.336-.215c-.931.035-1.857.155-2.766.358a7.91 7.91 0 00-2.622.969c-.739.415-1.447.883-2.12 1.398a8.44 8.44 0 00-1.509 1.471 2.363 2.363 0 00-.431 1.434 1.795 1.795 0 001.078 1.256zm22.992-9.469c.24-.156.428-.381.539-.645a1.77 1.77 0 000-.753 2.552 2.552 0 00-.323-.718 1.993 1.993 0 00-.503-.466 3.099 3.099 0 00-1.293-.359 6.44 6.44 0 00-1.653 0 8.288 8.288 0 00-1.832.359 9.131 9.131 0 00-1.581.861 2.604 2.604 0 00-.718.789 6.699 6.699 0 00-.539 1.147 3.575 3.575 0 00-.216 1.148c0 .359 0 .574.216.682.6.296 1.283.384 1.94.251a12.25 12.25 0 002.407-.538c.776-.24 1.533-.54 2.263-.897l1.293-.861zm-9.161 16.388a.785.785 0 01-.251.861 5.442 5.442 0 01-1.114.717 6.07 6.07 0 01-1.365.431 4.98 4.98 0 01-1.078 0 1.085 1.085 0 01-.611-.287.79.79 0 01-.215-.502c.036-.22.122-.429.251-.61.177-.212.398-.383.647-.502a7.44 7.44 0 011.077-.467 5.27 5.27 0 011.15-.358c.307-.072.627-.072.934 0a.827.827 0 01.575.717zm25.795-8.464a17.379 17.379 0 01-3.916 1.578 43.54 43.54 0 01-4.778 1.04 86.513 86.513 0 01-4.635.717l-3.592.467a7.338 7.338 0 00-2.407.825 26.755 26.755 0 00-2.659 1.721.965.965 0 01-.682 0 1.724 1.724 0 01-.647-.215 1.481 1.481 0 01-.503-.431.824.824 0 01-.216-.43c0-.215 0-.466.396-.753a7.156 7.156 0 011.257-.968 20.466 20.466 0 012.012-1.041c.826-.322 1.688-.681 2.658-.968.556-.151 1.12-.271 1.689-.359l2.658-.43 3.198-.502c1.113 0 2.191-.359 3.197-.538l2.766-.61a9.26 9.26 0 001.869-.717c.327-.191.639-.407.934-.646.333-.249.635-.538.898-.86.223-.237.395-.518.503-.825a.43.43 0 00-.216-.61 8.703 8.703 0 00-2.299-.825 21.662 21.662 0 00-2.551-.323 12.262 12.262 0 00-2.299 0h-1.545c-.347.1-.683.232-1.006.395l-1.078.502h-.502c.103-.259.263-.491.467-.682.288-.289.6-.553.934-.789.272-.23.574-.423.898-.573.709-.168 1.43-.288 2.155-.359a23.076 23.076 0 013.27-.215 22.436 22.436 0 013.592 0c.996.059 1.966.34 2.838.825a1.934 1.934 0 011.186 1.578 3.26 3.26 0 01-.611 1.793 6.65 6.65 0 01-1.509 1.686 14.581 14.581 0 01-1.724 1.542z" fill="#2C1D1B"/><path d="M266.043 263.366c-.862-.753-2.155.538-1.257 1.291 14.37 12.23.323 29.374-12.79 34.467-10.777 4.16-24.465 6.169-35.279 1.327-10.814-4.842-16.095-16.785-5.784-25.716a36.69 36.69 0 0117.568-7.173c13.113-2.438 24.932.897 36.968 5.775.251 0 .359-.251.179-.395a51.882 51.882 0 00-51.302-2.475c-13.4 7.174-14.945 22.883-.934 30.594 14.011 7.711 36.429 4.088 49.039-5.524 9.987-7.854 14.119-23.061 3.592-32.171z" fill="#2C1D1B"/><path d="M318.064 179.009l-152.542 87.942L6.191 173.773l151.14-87.117 160.733 92.353z" fill="#493231"/><path d="M318.064 179.013l34.381-60.003-160.732-92.353-34.381 60.002 160.732 92.354z" fill="#472F2E"/><path d="M316.088 172.916l30.25-52.794-152.829-87.798-30.25 52.794 152.829 87.798z" fill="#2C1D1B"/><path d="M312.927 164.484l18.932-31.454-142.086-82.24-18.898 31.419 142.052 82.275z" fill="#4688E8"/><path d="M6.19 173.775v23.241l160.734 92.389v-23.276L6.191 173.775z" fill="#382624"/><path d="M318.064 179.013L166.923 266.13v23.277l163.068-94.9 32.98-57.492-10.526-18.005-34.381 60.003z" fill="#352322"/><path d="M176.013 108h-3.054l-11.388-6.814a10.293 10.293 0 00-9.233.394l-8.227 4.734h-2.299v3.085a2.826 2.826 0 001.58 2.367l12.862 7.352a10.282 10.282 0 009.197-.322l8.263-4.77a3.583 3.583 0 002.227-3.049l.072-2.977z" fill="#006774"/><path d="M156.253 116.211l-12.861-7.388c-2.371-1.363-2.048-3.766.647-5.344l8.299-4.77a10.353 10.353 0 019.232-.359l12.862 7.388c2.335 1.363 2.048 3.766-.683 5.344l-8.299 4.77a10.365 10.365 0 01-9.197.359z" fill="#009CB4"/><path d="M203.352 124.784h-3.053l-11.425-6.743a10.32 10.32 0 00-9.197.395l-8.227 4.734h-2.299v3.12a2.62 2.62 0 001.581 2.367l12.861 7.424a10.362 10.362 0 009.233-.358l8.263-4.77a3.587 3.587 0 002.227-3.085l.036-3.084z" fill="#4688E8"/><path d="M183.593 132.997l-12.861-7.424c-2.371-1.363-2.084-3.586.646-5.308l8.443-4.734a10.178 10.178 0 019.197-.395l12.754 7.568c2.335 1.363 2.047 3.586-.683 5.308l-8.263 4.77a10.29 10.29 0 01-9.233.215z" fill="#73ACFF"/><path d="M231.842 141.534h-3.054l-11.389-6.564a10.29 10.29 0 00-9.233.395l-8.227 4.591h-2.299v3.084a2.698 2.698 0 001.545 2.367l12.969 7.317a10.252 10.252 0 009.233-.395l8.299-4.77a3.586 3.586 0 002.192-3.048l-.036-2.977z" fill="#4688E8"/><path d="M212.155 149.743l-12.934-7.424c-2.335-1.327-2.048-3.586.683-5.308l8.263-4.77a10.249 10.249 0 019.233-.359l12.717 7.389c2.372 1.362 2.048 3.765-.646 5.344l-8.299 4.77a10.356 10.356 0 01-9.017.358z" fill="#73ACFF"/><path d="M260.762 158.317h-3.054l-11.424-6.743a10.333 10.333 0 00-9.197.395l-8.227 4.734h-2.299v3.085a2.622 2.622 0 001.58 2.367l12.754 7.173c1.462.658 3.056.969 4.659.907a10.371 10.371 0 004.574-1.266l8.263-4.77a3.579 3.579 0 002.227-3.084l.144-2.798z" fill="#4688E8"/><path d="M240.895 166.531l-12.861-7.424c-2.372-1.363-2.048-3.586.646-5.308l8.299-4.77a10.19 10.19 0 019.197-.395l12.898 7.425c2.335 1.362 2.047 3.586-.683 5.308l-8.263 4.77a10.293 10.293 0 01-9.233.394z" fill="#73ACFF"/><path d="M289.683 175.068h-3.09l-11.388-6.564a10.362 10.362 0 00-9.233.359l-8.227 4.77h-2.3v2.869a2.732 2.732 0 001.545 2.403l12.898 7.424a10.317 10.317 0 009.197-.394l8.514-4.842a3.761 3.761 0 002.227-3.048l-.143-2.977z" fill="#006774"/><path d="M269.923 183.279l-12.897-7.424c-2.335-1.327-2.048-3.587.682-5.308l8.335-4.806a10.393 10.393 0 019.233-.395l12.79 7.568c2.371 1.363 2.084 3.766-.647 5.344l-8.299 4.77a10.287 10.287 0 01-9.197.251z" fill="#009CB4"/><path d="M149.535 123.314l-3.053-.179-11.389-6.563a10.294 10.294 0 00-9.161.394l-8.227 4.734h-2.299v3.085a2.611 2.611 0 001.545 2.367l12.897 7.424a10.19 10.19 0 009.197-.394l8.443-4.878a3.59 3.59 0 002.227-3.049l-.18-2.941z" fill="#4688E8"/><path d="M129.812 131.524l-12.897-7.424c-2.336-1.363-2.048-3.586.682-5.308l8.335-4.77a10.293 10.293 0 019.233-.394l12.861 7.424c2.371 1.363 2.048 3.586-.646 5.308l-8.299 4.77a10.174 10.174 0 01-9.269.394z" fill="#73ACFF"/><path d="M176.875 140.059h-3.054l-11.388-6.599a10.362 10.362 0 00-9.233.359l-8.227 4.662h-2.3v3.085a2.832 2.832 0 001.581 2.403l12.862 7.424a10.394 10.394 0 009.233-.395l8.262-4.77a3.587 3.587 0 002.228-3.049l.036-3.12z" fill="#4688E8"/><path d="M157.116 148.277l-12.862-7.424c-2.371-1.363-2.048-3.587.647-5.308l8.299-4.771a10.264 10.264 0 019.233-.394l12.861 7.424c2.335 1.363 2.048 3.587-.682 5.308l-8.263 4.699a10.297 10.297 0 01-9.233.466z" fill="#73ACFF"/><path d="M205.4 156.845l-3.09-.179-11.388-6.563a10.293 10.293 0 00-9.233.394l-8.227 4.734h-2.299v3.085a2.622 2.622 0 001.544 2.367l12.898 7.424a10.292 10.292 0 009.233-.394l8.263-4.77a3.583 3.583 0 002.227-3.049l.072-3.049z" fill="#4688E8"/><path d="M185.641 165.058l-13.005-7.424c-2.335-1.363-2.048-3.766.682-5.344l8.263-4.77a10.37 10.37 0 019.233-.359l12.862 7.424c2.371 1.363 2.083 3.587-.647 5.308l-8.263 4.77a10.388 10.388 0 01-9.125.395z" fill="#73ACFF"/><path d="M234.285 173.597h-3.054l-11.388-6.564a10.376 10.376 0 00-4.659-.907 10.371 10.371 0 00-4.574 1.266l-8.227 4.734h-2.3v3.085a2.723 2.723 0 001.545 2.402l12.862 7.389a10.249 10.249 0 009.233-.359l8.299-4.77a3.585 3.585 0 002.191-3.084l.072-3.192z" fill="#006774"/><path d="M214.525 181.807l-12.861-7.424c-2.371-1.363-2.048-3.587.647-5.309l8.298-4.77a10.289 10.289 0 019.233-.394l12.862 7.424c2.335 1.363 2.048 3.586-.647 5.308l-8.299 4.77a10.292 10.292 0 01-9.233.395z" fill="#009CB4"/><path d="M263.205 190.383h-3.089l-11.389-6.707a10.292 10.292 0 00-9.233.394l-8.191 4.735h-2.335v3.084a2.647 2.647 0 001.581 2.367l12.897 7.353a10.29 10.29 0 009.233-.395l8.263-4.77a3.59 3.59 0 002.227-3.049l.036-3.012z" fill="#006774"/><path d="M243.446 198.593l-12.862-7.424c-2.371-1.363-2.083-3.766.647-5.344l8.263-4.77a10.396 10.396 0 019.233-.358l12.897 7.424c2.335 1.327 2.048 3.586-.682 5.308l-8.263 4.77a10.393 10.393 0 01-9.233.394z" fill="#009CB4"/><path d="M123.058 138.628h-3.054l-11.388-6.564a10.362 10.362 0 00-9.233.359l-8.227 4.627h-2.3v3.084a2.723 2.723 0 001.545 2.403l12.862 7.424a10.393 10.393 0 009.233-.394l8.299-4.77a3.59 3.59 0 002.191-3.049l.072-3.12z" fill="#4688E8"/><path d="M103.299 146.839l-12.862-7.424c-2.335-1.327-2.047-3.587.683-5.308l8.263-4.77a10.402 10.402 0 019.233-.395l12.861 7.424c2.372 1.363 2.048 3.587-.646 5.344l-8.299 4.77a10.36 10.36 0 01-9.233.359z" fill="#73ACFF"/><path d="M150.398 155.41h-3.054l-11.424-6.564a10.178 10.178 0 00-9.197.395l-8.227 4.734h-2.3v3.084a2.656 2.656 0 001.581 2.368l12.862 7.424a10.288 10.288 0 009.232-.395l8.263-4.77a3.587 3.587 0 002.228-3.048l.036-3.228z" fill="#4688E8"/><path d="M130.638 163.625l-12.861-7.424c-2.371-1.363-2.048-3.766.646-5.308l8.299-4.77a10.174 10.174 0 019.197-.395l12.898 7.424c2.335 1.363 2.048 3.587-.683 5.308l-8.263 4.77a10.28 10.28 0 01-4.569 1.292 10.28 10.28 0 01-4.664-.897z" fill="#73ACFF"/><path d="M178.887 172.161h-3.054l-11.388-6.563a10.362 10.362 0 00-9.233.358l-8.227 4.77h-2.299v3.085c.009.504.159.995.432 1.419.272.425.657.765 1.112.984l12.898 7.424a10.32 10.32 0 009.197-.395l8.299-4.77a3.764 3.764 0 002.227-3.048l.036-3.264z" fill="#4688E8"/><path d="M159.164 180.372l-12.898-7.46c-2.335-1.363-2.048-3.586.683-5.308l8.263-4.77a10.389 10.389 0 019.233-.394l12.861 7.424c2.371 1.363 2.048 3.766-.647 5.344l-8.298 4.877a10.284 10.284 0 01-9.197.287z" fill="#73ACFF"/><path d="M207.807 188.948h-3.053l-11.425-6.564a10.176 10.176 0 00-9.197.395l-8.227 4.483h-2.299v3.085a2.65 2.65 0 001.581 2.367l12.861 7.424a10.292 10.292 0 009.233-.395l8.263-4.77a3.58 3.58 0 002.227-3.048l.036-2.977z" fill="#006774"/><path d="M188.048 197.158l-12.862-7.424c-2.371-1.363-2.047-3.586.647-5.308l8.299-4.77a10.178 10.178 0 019.197-.395l12.897 7.424c2.336 1.363 2.048 3.587-.682 5.309l-8.263 4.77a10.293 10.293 0 01-9.233.394z" fill="#009CB4"/><path d="M236.728 205.696h-3.09l-11.388-6.563a10.402 10.402 0 00-9.233.359l-8.048 4.626h-2.299v3.085a2.72 2.72 0 001.545 2.403l12.897 7.424a10.403 10.403 0 009.233-.395l8.263-4.77a3.59 3.59 0 002.227-3.048l-.107-3.121z" fill="#006774"/><path d="M216.968 213.909l-12.897-7.424c-2.335-1.363-2.048-3.586.682-5.308l8.263-4.77a10.288 10.288 0 019.233-.395l12.862 7.424c2.371 1.363 2.083 3.766-.647 5.309l-8.263 4.77a10.293 10.293 0 01-9.233.394z" fill="#009CB4"/><path d="M96.616 153.939l-3.017-.18-11.389-6.563a10.292 10.292 0 00-9.233.394l-8.12 4.735H62.56v3.084a2.651 2.651 0 001.544 2.367l12.898 7.424a10.292 10.292 0 009.233-.394l8.263-4.77a3.586 3.586 0 002.227-3.049l-.108-3.048z" fill="#4688E8"/><path d="M76.857 162.157l-12.897-7.425c-2.335-1.362-2.048-3.586.683-5.343l8.263-4.771a10.356 10.356 0 019.232-.358L95 151.684c2.371 1.327 2.084 3.586-.647 5.308l-8.263 4.77a10.395 10.395 0 01-9.233.395z" fill="#73ACFF"/><path d="M123.92 170.69h-3.053l-11.389-6.563a10.36 10.36 0 00-9.233.359l-8.227 4.734h-2.3v3.084a2.723 2.723 0 001.546 2.403l12.861 7.389a10.362 10.362 0 009.233-.359l8.299-4.77a3.595 3.595 0 002.191-3.085l.072-3.192z" fill="#4688E8"/><path d="M104.161 178.905l-12.862-7.424c-2.335-1.363-2.048-3.586.683-5.308l8.263-4.77a10.292 10.292 0 019.233-.395l12.861 7.425c2.371 1.362 2.048 3.586-.646 5.308l-8.299 4.77a10.246 10.246 0 01-9.233.394z" fill="#73ACFF"/><path d="M152.445 187.477l-3.089-.215-11.389-6.563a10.292 10.292 0 00-9.233.394l-8.227 4.735h-2.299v3.084a2.647 2.647 0 001.581 2.367l12.861 7.424a10.293 10.293 0 009.233-.394l8.263-4.77a3.595 3.595 0 002.228-3.049l.071-3.013z" fill="#4688E8"/><path d="M132.686 195.651l-12.862-7.388c-2.371-1.363-2.083-3.766.647-5.344l8.263-4.77a10.4 10.4 0 019.233-.359l12.862 7.424c2.371 1.327 2.083 3.587-.647 5.308l-8.263 4.771a10.262 10.262 0 01-9.233.358z" fill="#73ACFF"/><path d="M210.25 220.975h-3.053l-11.425-6.564a10.178 10.178 0 00-9.197.395l-8.227 4.734h-2.299v3.084a2.689 2.689 0 001.581 2.368l12.969 7.173a10.29 10.29 0 009.233-.395l8.263-4.77a3.59 3.59 0 002.227-3.049l-.072-2.976z" fill="#006774"/><path d="M190.599 229.187l-12.862-7.389c-2.371-1.362-2.084-3.765.647-5.344l8.299-4.77a10.286 10.286 0 019.197-.358l12.682 7.388c2.335 1.363 2.047 3.586-.683 5.344l-8.263 4.77a10.37 10.37 0 01-9.017.359z" fill="#009CB4"/><path d="M70.355 169.325H67.3l-11.424-6.85a10.319 10.319 0 00-9.197.394l-8.227 4.735h-2.3v3.084a2.65 2.65 0 001.581 2.367l12.754 7.317a10.36 10.36 0 009.34-.287l8.263-4.77a3.588 3.588 0 002.228-3.085l.036-2.905z" fill="#4688E8"/><path d="M50.488 177.432l-12.862-7.424c-2.37-1.363-2.047-3.587.647-5.308l8.299-4.77a10.177 10.177 0 019.197-.395l12.897 7.424c2.335 1.363 2.048 3.587-.682 5.308l-8.263 4.771a10.295 10.295 0 01-9.233.394z" fill="#73ACFF"/><path d="M97.694 185.968h-3.053l-11.425-6.564a10.291 10.291 0 00-9.233.395l-8.19 4.591h-2.336v2.869a2.686 2.686 0 001.58 2.403l12.862 7.424a10.293 10.293 0 009.233-.394l8.263-4.771a3.585 3.585 0 002.228-3.048l.071-2.905z" fill="#4688E8"/><path d="M77.935 194.184l-12.862-7.424c-2.37-1.327-2.083-3.586.647-5.308l8.263-4.77a10.395 10.395 0 019.233-.395l12.898 7.389c2.335 1.363 2.047 3.765-.683 5.344l-8.263 4.77a10.361 10.361 0 01-9.233.394z" fill="#73ACFF"/><path d="M126.183 202.753h-3.053l-11.389-6.6a10.29 10.29 0 00-9.233.395l-8.227 4.734h-2.3v3.085a2.614 2.614 0 001.546 2.367l12.861 7.424a10.28 10.28 0 004.664.897 10.28 10.28 0 004.569-1.292l8.335-4.985a3.594 3.594 0 002.192-3.048l.035-2.977z" fill="#4688E8"/><path d="M106.425 210.967l-12.826-7.424c-2.335-1.363-2.048-3.586.647-5.308l8.299-4.77a10.295 10.295 0 019.233-.395l12.861 7.425c2.371 1.362 2.048 3.586-.647 5.308l-8.334 4.77a10.292 10.292 0 01-9.233.394z" fill="#73ACFF"/><path d="M183.989 236.29h-3.054l-11.389-6.563a10.292 10.292 0 00-9.233.394l-8.227 4.734h-2.299v3.085a2.611 2.611 0 001.545 2.367l12.897 7.424a10.187 10.187 0 009.197-.394l8.299-4.77a3.589 3.589 0 002.228-3.049l.036-3.228z" fill="#006774"/><path d="M164.265 244.646l-12.897-7.424c-2.336-1.363-2.048-3.587.682-5.308l8.263-4.77a10.291 10.291 0 019.233-.431l12.862 7.173c2.371 1.363 2.047 3.587-.647 5.308l-8.299 4.77a10.175 10.175 0 01-9.197.682z" fill="#009CB4"/><path d="M178.276 204.081l-11.388-6.563a10.246 10.246 0 00-9.233.359s-23.532 13.736-26.262 15.278l-8.191 4.77h-2.335v3.085c.048.448.209.876.466 1.245.257.37.603.67 1.007.871l12.861 7.424a10.39 10.39 0 009.377-.251l5.82-3.371 2.443-1.399 23.028-13.414 3.09-1.757a3.588 3.588 0 002.191-3.085v-2.94l-2.874-.252z" fill="#4688E8"/><path d="M179.821 201.967l-12.933-7.531a10.293 10.293 0 00-9.233.394l-4.204 2.403-30.321 17.61c-2.731 1.578-3.018 3.981-.647 5.308l12.862 7.424a10.355 10.355 0 009.233-.358l34.524-20.085c2.695-1.399 3.018-3.802.719-5.165z" fill="#73ACFF"/><path d="M73.516 153.19l1.94 1.112 6-3.587-1.689-.968 1.473-.861c1.028.391 2.103.645 3.198.753l1.508.861-8.406 4.842 1.688.968-1.94 1.112-5.712-3.264 1.94-.968zm27.843 17.681a26.55 26.55 0 009.628-1.076c1.006-.574 1.042-1.183.287-1.614a5.147 5.147 0 00-2.658-.323l.179-1.363a7.778 7.778 0 014.635.754c1.76 1.04 1.653 2.474-.323 3.586a21.889 21.889 0 01-8.227 1.435 16.75 16.75 0 011.616.789l1.797 1.04-2.012 1.148-6.287-3.587 1.365-.789zm27.735 16.39l2.478-.323a1.689 1.689 0 00.935 1.722 2.73 2.73 0 002.658 0c.934-.538 1.006-1.148-.934-2.26l1.688-.968a3.383 3.383 0 003.593.43c.719-.43.754-.897 0-1.291a4.922 4.922 0 00-2.587-.466l.432-1.435a8.198 8.198 0 014.131.861c1.832 1.076 2.048 2.367.251 3.586a5.434 5.434 0 01-3.808.467c.683.789.575 1.721-.754 2.474a6.653 6.653 0 01-6.359 0c-1.509-1.076-1.94-2.008-1.724-2.797zm23.352 22.345l-2.515-1.434 1.724-.969 2.479 1.399 2.982-1.722 1.545.897-3.018 1.722 2.479 1.434-1.689.969-2.478-1.435-2.875 1.901-1.544-.861 2.91-1.901zm34.165-23.815l1.689-.969 6.502 3.587-1.688 1.004-6.503-3.622zm-108.604-2.727a8.993 8.993 0 018.407-1.219c1.904 1.111 1.365 2.905-2.156 4.913a9.094 9.094 0 01-8.586 1.291c-1.76-1.112-1.186-2.941 2.335-4.985zm4.455 2.582c2.838-1.65 2.946-2.331 2.227-2.725-.718-.395-1.868-.359-4.706 1.291-2.838 1.649-3.018 2.367-2.3 2.761.72.395 1.94.287 4.779-1.327zm-33.16-18.866l6.503 3.586-1.725 1.005-6.466-3.587 1.688-1.004zm3.773-2.152l6.502 3.586-1.688.969-6.503-3.587 1.688-.968zm55.289 36.224a2.953 2.953 0 012.767 0c.718.43.61 1.111-.252 1.614a3.025 3.025 0 01-2.766 0c-.719-.431-.575-1.112.251-1.614zm-4.885-62.119l-3.88-2.224 1.652-.968 9.485-1.686 2.514 1.435-6.035 3.586 1.042.574-1.832 1.04-1.042-.574-2.443 1.435-1.94-1.112 2.479-1.506zm1.832-1.04l1.652-.969 2.407-1.291-2.442.574-3.593.61 1.976 1.076zm21.986 17.291l2.443-.359a1.72 1.72 0 00.899 1.721 3.045 3.045 0 003.125 0c1.042-.573 1.006-1.255 0-1.721a4.023 4.023 0 00-1.832-.466l-.252-.933 5.461-2.869 5.066 2.941-1.904.968-3.27-1.901-2.083 1.04c.43.069.843.215 1.221.431 1.545.897 1.832 2.224-.359 3.586a7.198 7.198 0 01-6.898.216c-1.401-.969-1.724-1.901-1.617-2.654zm31.974 14.345a9.783 9.783 0 019.233-1.148 2.186 2.186 0 011.365 2.224l-2.515.215a1.248 1.248 0 00-.682-1.255c-.97-.538-2.551-.538-5.066.824a5.367 5.367 0 012.91.395c1.509.861 1.653 2.116-.539 3.371a6.868 6.868 0 01-6.43.287c-1.761-1.076-1.904-2.905 1.724-4.913zm2.802 3.586c1.114-.645 1.006-1.147.324-1.542a3.592 3.592 0 00-2.371-.215c-1.437 1.076-1.366 1.686-.755 2.044a2.915 2.915 0 002.802-.287zm-26.225-52.617l-3.988-2.295 2.012-1.184 6.215 3.587-1.473.861a25.387 25.387 0 00-11.388 3.586l-2.084-1.219a29.562 29.562 0 0110.706-3.336zm19.148 18.579a6.37 6.37 0 014.06-.574 2.004 2.004 0 011.221-2.116 5.936 5.936 0 015.749 0c1.616.932 1.58 2.188 0 3.192a5.94 5.94 0 01-3.593.61c.323.825.216 1.685-1.15 2.474a6.434 6.434 0 01-6.035-.179c-1.761-1.004-1.94-2.439-.252-3.407zm4.455 2.439c.934-.502.503-1.148 0-2.116a5.456 5.456 0 00-2.335.538c-.898.538-.826 1.219 0 1.649a2.438 2.438 0 002.335-.071zm4.671-2.834c.79-.43.934-1.004.251-1.363a2.194 2.194 0 00-2.191 0c-.863.467-.647 1.076 0 1.83a4.766 4.766 0 001.94-.467zm17.352 17.682h2.514a1.223 1.223 0 00.647 1.22c1.006.574 2.623.574 5.102-.789a5.358 5.358 0 01-2.91-.395c-1.509-.896-1.653-2.116.538-3.371a6.837 6.837 0 016.467-.287c1.725 1.004 1.868 2.797-1.76 4.913a9.783 9.783 0 01-9.233 1.148 2.257 2.257 0 01-1.365-2.439zm9.843-.717c1.437-1.04 1.365-1.686.755-2.044a2.836 2.836 0 00-2.802.322c-1.114.646-1.006 1.148-.324 1.543a3.6 3.6 0 002.371.179zm21.951 17.073l2.515-.502-.719-1.363 1.509-.466 1.222 1.148 2.119-1.005 1.078.646-1.652 1.219 2.047.682-.862.896-2.299-.43-.862 1.471h-1.581l.323-1.471h-2.586l-.252-.825zm29.495 18.041a2.527 2.527 0 012.371 0c.683.359.647.933 0 1.363a2.515 2.515 0 01-2.371 0c-.754-.358-.754-1.076 0-1.363zm1.725-3.299l6.502 3.586-1.688.969-6.503-3.587 1.689-.968zm4.203 0a2.586 2.586 0 012.407 0c.647.394.611.968 0 1.399a2.598 2.598 0 01-2.407 0c-.826-.467-.611-1.04-.072-1.399h.072zm-93.012-82.78a10.798 10.798 0 019.915-.717 2.402 2.402 0 011.402 2.403l-2.659.251a1.428 1.428 0 00-.155-.834 1.446 1.446 0 00-.599-.601 6.225 6.225 0 00-5.677.682c-2.191 1.255-2.586 2.51-1.221 3.263.858.418 1.818.58 2.766.467l-.395 1.506a7.514 7.514 0 01-4.383-.825c-2.479-1.327-2.551-3.515 1.006-5.595zm109.034 64.847a8.6 8.6 0 018.515-.538c2.155 1.255 1.904 3.084-1.078 4.806a8.737 8.737 0 01-8.407.681c-2.335-1.363-2.011-3.12.97-4.949zm5.389 3.084c1.833-1.04 2.264-2.08 1.15-2.69a5.039 5.039 0 00-4.67.646c-1.833 1.076-2.336 2.152-1.258 2.761a5.073 5.073 0 004.778-.609v-.108zm7.868-.577l1.868 1.076-2.479 3.802-1.257 1.614c.898-.61 2.048-1.435 3.126-2.045l3.233-1.865 1.724.969-9.161 5.272-1.796-1.004 2.479-3.838 1.221-1.614c-.934.61-2.012 1.399-3.089 2.044l-3.234 1.865-1.724-1.004 9.089-5.272zm-64.81 28.443a9.002 9.002 0 018.551-.609 1.974 1.974 0 011.221 1.936l-2.263.216a1.182 1.182 0 00-.683-1.22 5.294 5.294 0 00-4.886.574c-1.868 1.076-2.227 2.152-1.042 2.833a4.676 4.676 0 002.407.395l-.359 1.291a6.48 6.48 0 01-3.952-.502c-2.012-1.255-2.083-3.156 1.006-4.914zm12.107 1.615l4.958 2.869-1.725 1.004-3.197-1.829-1.832 1.04 2.694 1.578-1.724 1.004-2.695-1.578-2.119 1.22 3.305 1.9-1.725 1.005-5.101-2.941 9.161-5.272zm-33.59 11.263l1.976 1.112-2.803 3.084-1.221 1.255 2.12-.717 5.353-1.614 1.94 1.112-9.162 5.272-1.652-.932 3.377-1.937c.898-.538 2.371-1.22 3.341-1.686l-2.838.861-4.635 1.363-.97-.574 2.372-2.654 1.508-1.614c-.79.574-1.976 1.399-2.874 1.937l-3.377 2.116-1.616-.933 9.161-5.451zm5.676 9.288l-2.156-1.22 1.473-.861 2.12 1.256 2.587-1.507 1.329.789-2.587 1.471 2.156 1.255-1.473.825-2.156-1.219-2.587 1.47-1.293-.753 2.587-1.506zm-31.902 6.816l1.94 1.112-2.767 3.084-1.221 1.255 2.119-.717 5.353-1.65 1.94 1.148-9.161 5.272-1.616-.932 3.341-1.937c.898-.538 2.371-1.22 3.341-1.686l-2.838.861-4.635 1.363-.97-.574 2.371-2.654 1.545-1.614c-.79.574-1.976 1.399-2.874 1.937l-3.377 1.936-1.581-.932 9.09-5.272zm4.131 7.924l2.982 1.721-1.437.825-3.018-1.722 1.473-.824zm24.286-115.451l1.222.682-15.987 3.586-1.186-.681 15.951-3.587zm-10.778-2.403a6.014 6.014 0 015.641-.645c1.329.789 1.042 2.044-1.078 3.263a6.07 6.07 0 01-5.676.646c-1.437-.789-1.15-2.044 1.006-3.264h.107zm3.126 1.793c1.509-.896 1.652-1.398 1.15-1.649-.503-.251-1.33-.216-2.839.681s-1.688 1.399-1.221 1.65c.467.251 1.293.179 2.802-.682h.108zm-.611 4.555a5.969 5.969 0 015.641-.609c1.293.753 1.041 2.044-1.078 3.263a6.046 6.046 0 01-5.677.61c-1.437-.753-1.077-2.044 1.006-3.264h.108zm3.126 1.794c1.509-.861 1.616-1.363 1.149-1.65-.467-.287-1.329 0-2.838.681-1.509.682-1.688 1.399-1.221 1.686.467.287 1.185.179 2.802-.717h.108zm19.831 13.414h2.515a1.256 1.256 0 00.646 1.219c1.006.574 2.587.538 5.066-.789a5.421 5.421 0 01-2.874-.43c-1.509-.861-1.653-2.116.539-3.371a6.868 6.868 0 016.251-.467c1.724 1.005 1.904 2.834-1.725 4.914a9.78 9.78 0 01-9.233 1.148 2.192 2.192 0 01-1.185-2.224zm9.844-.717c1.437-1.04 1.365-1.686.754-2.045a2.923 2.923 0 00-2.838.323c-1.078.61-.97 1.148-.288 1.542.694.287 1.461.35 2.192.18h.18zm18.43 19.476l4.778-5.954 1.293 1.04-2.011 2.475 12.286-2.439.324 1.614-16.67 3.264z" fill="#232221"/><path d="M74.45 255.045s-8.514 2.583-10.778 5.488a16.373 16.373 0 00-3.592 8.715c-.395 3.586 1.078 5.81 4.886 5.631a5.506 5.506 0 003.458-.936 5.488 5.488 0 002.146-2.866 38.084 38.084 0 0014.37-4.304c4.707-3.371-2.586-12.624-10.49-11.728z" fill="#2C1D1B"/><path d="M99.635 210.715c-7.545-1.65-16.886 1.147-24.825 4.841a1.733 1.733 0 00-.575 0c-9.52 4.555-31.794 15.172-31.687 15.494-3.592 7.496 1.797 19.045 11.676 17.933a17.99 17.99 0 0015.951 1.47c-.251.359-3.772 5.344-6.43 10.079a36.78 36.78 0 018.011 6.24 93.427 93.427 0 0015.448-10.759c3.88-3.049 17.173-17.539 17.173-29.733a8.994 8.994 0 00-.178-13.479 9.022 9.022 0 00-4.564-2.086z" fill="#2C1D1B"/><path d="M101.179 263.618a41.975 41.975 0 00-5.963-16.211c-5.964-8.931-8.3-14.705-14.694-18.83-7.724-4.913-12.61 3.946-20.73 5.093 0 0-8.478-3.371-9.089-3.586 0 .251.252 12.66 3.593 19.008 1.868 3.587 6.97 6.922 14.37 7.173a29.025 29.025 0 009.162 9.612 85.745 85.745 0 00-8.946 6.922 161.554 161.554 0 01-19.652 15.996 15.118 15.118 0 014.132 3.587 9.963 9.963 0 012.12 4.985c12.897-2.941 23.136-9.683 33.734-17.143a41.404 41.404 0 008.586-8.787 4.642 4.642 0 004.278-2.795 4.62 4.62 0 00-.901-5.024z" fill="#3F2A28"/><path d="M72.977 166.675a11.676 11.676 0 00-9.73-4.033 11.683 11.683 0 00-9.023 5.432 25.771 25.771 0 00-4.096 8.428 181.645 181.645 0 00-11.245 20.049 9.74 9.74 0 00.36 6.958c1.437 1.937 17.029 7.89 21.986 2.475 10.024-10.832 11.748-39.309 11.748-39.309z" fill="#C23A90"/><path d="M88.57 171.514l-7.581 6.205a17.949 17.949 0 01-8.946-10.76c1.51-1.219 6.79-4.232 7.186-5.846-1.581-4.375.79-8.07 4.886-12.051a13.343 13.343 0 0116.669-.538 7.166 7.166 0 013.593 6.958c-.503 4.663-3.198 15.924-7.185 17.933-2.695 1.435-5.928-.897-8.623-1.901z" fill="#FFC9B6"/><path d="M77.683 148.919a10.28 10.28 0 011.914-5.117 10.307 10.307 0 014.266-3.419c4.31-1.973 12.035-2.26 15.52 1.614a.862.862 0 01.18-.359 2.802 2.802 0 012-.997 2.817 2.817 0 012.095.782 6.92 6.92 0 012.227 3.084 3.39 3.39 0 012.3 0c2.514 1.04 2.407 4.591 1.544 6.671-1.868 4.304-8.658 9.002-13.687 7.819.251 2.51-.97 3.873-2.982 5.523a10.497 10.497 0 01-11.21.933 12.889 12.889 0 01-5.292-4.588 12.862 12.862 0 01-2.108-6.674 6.596 6.596 0 013.233-5.272z" fill="#FFDB5A"/><path d="M97.838 160.181a2.218 2.218 0 00-1.49-1.541 2.232 2.232 0 00-2.103.43c-2.766 1.865.54 7.173.54 7.173l3.053-6.062z" fill="#FFC9B6"/><path d="M70.103 164.954c4.635 2.008 4.311 2.833 13.975 10.257 9.664 7.424 10.167 11.764 9.27 16.391a66.082 66.082 0 01-5.282 15.888 60.452 60.452 0 01-10.778 17.61 27.892 27.892 0 014.778 1.937 6.66 6.66 0 01.18 7.567c-4.742 4.448-24.465 15.709-40.704-.502a272.148 272.148 0 018.622-48.597c3.557-11.405 15.843-22.309 19.94-20.551z" fill="#CF479D"/><path d="M75.995 227.825a60.526 60.526 0 01-11.568 4.77 97.774 97.774 0 01-10.347 2.009c1.545 0 10.167.861 13.724-1.256 3.556-2.116 8.19-5.523 8.19-5.523zm-18.861-2.619a11.874 11.874 0 007.975 2.188c4.779-.466 7.76-1.04 7.76-1.04a27.339 27.339 0 00-7.76-1.148 61.7 61.7 0 01-7.975 0z" fill="#C23A90"/><path d="M55.913 283.775a61.953 61.953 0 00-9.88 0c-2.874.467-3.27 5.631-5.784 8.07-2.515 2.439-9.808 3.587-11.748 8.715-1.94 5.129 1.617 12.768 6.143 10.76 7.473-3.156 22.562-15.673 22.562-15.673a10.746 10.746 0 00-1.294-11.872z" fill="#2C1D1B"/><path d="M140.302 204.941l-4.203 1.614c.18-1.506 1.832-2.654 1.15-4.196-.683-1.542-1.581 0-2.982 1.793a18.995 18.995 0 01-4.311 5.021s-1.976 5.631 0 6.671 9.556-.538 11.64-1.399a12.677 12.677 0 007.724-6.025c2.335-4.949-4.563-5.38-9.018-3.479z" fill="#FFC9B6"/><path d="M130.495 208.781c-6.682 0-17.388-.825-23.065-.43a39.67 39.67 0 00-7.185-12.984c-2.12-10.042-8.047-15.601-12.035-16.462a8.488 8.488 0 00-9.706 5.053 8.456 8.456 0 00-.605 3.878c0 11.871 5.281 18.112 8.407 18.614-.251 6.312 8.155 13.593 12.143 14.023a7.822 7.822 0 003.022 4.111 7.849 7.849 0 004.918 1.377c7.58-.718 21.304-7.174 26.261-9.505a6.947 6.947 0 00-2.155-7.675z" fill="#C23A90"/><path d="M329.776 232.485a37.02 37.02 0 001.437-12.051c-1.042-8.393 1.581-22.559 1.581-31.203a245.002 245.002 0 00-1.904-24.891c-.899-6.706-2.156-12.624-2.803-19.367a84.004 84.004 0 01-1.58-27.831 70.765 70.765 0 0023.998 3.586 65.136 65.136 0 01-.503 20.623 76.47 76.47 0 01-3.592 11.871 29.508 29.508 0 00-2.3 8.715c0 3.587 3.09 9.039 3.593 12.302 1.976 9.971-2.192 16.068-5.102 29.051a69.878 69.878 0 00-1.508 10.975c.79.841 1.466 1.781 2.011 2.798 1.761 3.335-1.041 6.24-2.478 8.894-1.437 2.654-.611 10.473-2.336 11.728-1.724 1.255-7.544 4.95-11.46 3.192-2.659-1.363.575-6.24 2.946-8.392z" fill="#FFB9A4"/><path d="M288.389 55.887a10.158 10.158 0 006.754 4.627c1.186 0-.395-2.188-1.185-4.627-.791-2.439 1.401-1.721 3.377 1.04 1.975 2.762.97 5.739 2.371 6.743a64.731 64.731 0 0013.436 4.268c1.689.323 5.209 1.22 7.185 1.83 2.623-4.233 9.449-15.459 13.149-23.421 4.239-9.146 14.873-3.587 14.873-3.587l-7.688 20.874s-11.891 11.585-16.31 16.893c-2.407 2.833-5.317 1.9-10.778.717-5.461-1.183-13.831-9.146-18.789-12.625-2.982-2.116-11.712-4.949-12.215-10.76-.503-5.81 3.269-5.307 5.82-1.972z" fill="#FFC9B6"/><path d="M343.894 221.904a125.764 125.764 0 00-4.095 16.139c-.216 2.403-4.239 5.631-11.137 5.344-6.898-.287-4.347-3.586-2.767-6.133.719-1.148 1.437-2.08 2.12-3.048a5.21 5.21 0 003.952 2.367 4.524 4.524 0 005.568-2.69c1.473-2.726 3.593-10.76 4.599-13.163a11.207 11.207 0 00-.862-6.42c1.868 2.116 3.808 3.551 2.622 7.604z" fill="#2C1D1B"/><path d="M344.146 220.939v12.051c0 .215-.395.395-.862.395-.467 0-.898 0-.898-.395v-9.253l1.76-2.798z" fill="#2C1D1B"/><path d="M352.265 241.273a37.186 37.186 0 000-12.158c-1.94-8.213-.826-22.595-1.724-31.203a241.846 241.846 0 00-4.527-24.532c-1.581-6.599-3.593-12.338-4.814-19.009a84.267 84.267 0 01-4.527-27.473 71.316 71.316 0 0024.25.969 65.924 65.924 0 011.689 20.551 78.337 78.337 0 01-2.3 12.194 28.683 28.683 0 00-1.365 8.895 82.808 82.808 0 004.168 12.768c3.269 11.369.359 15.278-1.15 28.692a67.377 67.377 0 00-.359 11.046 13.886 13.886 0 012.263 2.583c2.12 3.156-.359 6.312-1.509 9.145-1.149 2.834.503 10.437-1.113 11.872-1.617 1.434-6.97 5.738-11.03 4.375-2.658-1.183.072-6.348 2.048-8.715z" fill="#FFC9B6"/><path d="M365.343 229.26a124.416 124.416 0 00-2.3 16.462c0 2.439-3.592 6.062-10.49 6.492-6.898.43-4.742-3.12-3.593-5.81.611-1.22 1.222-2.224 1.761-3.264a5.312 5.312 0 004.203 1.937 4.46 4.46 0 003.29-.631 4.447 4.447 0 001.919-2.741c1.186-2.833 2.551-11.19 3.198-13.557.124-2.206-.401-4.4-1.509-6.312 2.191 2.044 4.419 3.264 3.521 7.424z" fill="#2C1D1B"/><path d="M365.487 228.289l1.293 11.943c0 .215-.359.431-.862.502-.503.072-.898 0-.934-.322l-.97-9.182 1.473-2.941z" fill="#2C1D1B"/><path d="M327.872 100.791c2.658-5.165 6.107-8.608 6.035-12.374-.35-5.73.048-11.48 1.186-17.108-1.509-2.044-6.467-4.483-3.988-11.261a33.76 33.76 0 015.461-8.536 37.358 37.358 0 017.544-8.07c2.91-2.008 4.024-.789 6.934.466a82.724 82.724 0 0117.676 8.285 37.672 37.672 0 014.778 3.587 9.432 9.432 0 011.652 7.532s-8.047 14.704-11.999 23.742c-1.401 3.264-3.197 5.13-1.006 9.146a49.668 49.668 0 017.904 17.646c5.892 23.994-7.688 56.882-7.688 56.882a21.58 21.58 0 01-15.161 4.591c-12.646-.789-17.963-6.456-17.963-6.456a245.507 245.507 0 01-4.706-38.985c-.144-11.083-.036-22.596 3.341-29.087z" fill="#73ACFF"/><path d="M341.164 41.935a7.448 7.448 0 011.473-5.846 6.621 6.621 0 017.868-2.475 4.815 4.815 0 012.594 1.719c.65.844 1.002 1.88.999 2.944a7.167 7.167 0 01-1.698 6.447 7.197 7.197 0 01-6.278 2.269 6.45 6.45 0 01-.359 4.196 3.592 3.592 0 01-4.045 1.986 3.597 3.597 0 01-1.452-.695 7.529 7.529 0 01-2.371-7.424 4.704 4.704 0 013.269-3.12z" fill="#382624"/><path d="M357.942 53.159a7.627 7.627 0 01-6.826-1.865 5.835 5.835 0 01-2.084-4.268 5.848 5.848 0 002.299-4.484c0-1.542-.359-3.084-.395-4.662a30.091 30.091 0 017.185-2.905c1.402-.215 3.593-3.945 4.994-4.555a25.259 25.259 0 000 10.078c.226 3.244.978 6.43 2.228 9.433a18.412 18.412 0 01-7.401 3.228z" fill="#FFB9A4"/><path d="M342.278 23.964a15.555 15.555 0 014.491-10.257 10.785 10.785 0 019.089-1.865c5.425.789 9.557 9.038 8.048 15.924-1.509 6.886-5.389 14.346-12.682 14.956-7.976.86-9.736-13.27-8.946-18.758z" fill="#FFC9B6"/><path d="M356.541 26.618s2.946-3.3 4.203-.717c1.257 2.582-1.293 7.137-3.197 6.491-1.904-.645-1.006-5.774-1.006-5.774z" fill="#FFC9B6"/><path d="M339.081 8.792a13.382 13.382 0 0115.663-1.327 7.193 7.193 0 018.622-.681 8.108 8.108 0 014.455 8.034c5.748.287 8.623 8.93 4.778 13.019a6.916 6.916 0 012.659 5.954 8.725 8.725 0 01-6.395 7.173 6.455 6.455 0 012.731 7.495c-1.545 4.125-6.072 5.093-9.988 5.452a6.086 6.086 0 01-2.084 6.635 5.607 5.607 0 01-7.4.358 4.696 4.696 0 01-1.437-6.742 5.926 5.926 0 013.844-2.331 5.077 5.077 0 01.444-4.966 5.107 5.107 0 014.478-2.208 6.095 6.095 0 01.215-5.738 11.79 11.79 0 01-4.383-9.002 5.844 5.844 0 011.078-3.587 15.211 15.211 0 01-8.515-9.648 11.208 11.208 0 00-4.454 3.587 13.324 13.324 0 00-1.258 6.743c-7.832-3.085-8.083-13.378-3.053-18.22z" fill="#493231"/><path d="M362.36 88.738l-.215 7.46a39.903 39.903 0 01-17.963 3.587c-9.664-1.363-11.999-5.452-11.999-5.452l1.868-9.002s.826 3.335 9.161 4.125a100.01 100.01 0 0019.148-.718zm-6.825 37.299s-1.725 9.253-9.521 11.226a19.438 19.438 0 01-12.071 0 45.259 45.259 0 0012.359-3.587 83.931 83.931 0 009.233-7.639zm-9.629 0a15.528 15.528 0 01-8.909-4.663 25.947 25.947 0 01-4.994-7.532s-.575 7.927 4.814 11.047a9.574 9.574 0 009.089 1.148zm7.258 15.923a39.084 39.084 0 01-10.778 13.306 13.023 13.023 0 01-7.616 2.044 50.562 50.562 0 017.544-5.917 89.498 89.498 0 0010.85-9.433zm3.844-66.168c-3.232.7-6.576.7-9.808 0a81.665 81.665 0 01-7.796-4.268 9.544 9.544 0 007.796 6.958 11.336 11.336 0 009.808-2.69z" fill="#4688E8"/><path d="M339.296 78.586l-1.652.897 12.61 29.553 1.652-.897-12.61-29.553z" fill="#F2C9E3"/><path d="M315.908 66.966l1.653-.933 21.735 12.553-1.653.897-21.735-12.517z" fill="#FAFAFA"/><path d="M328.303 102.402l25.939 14.92-15.017-35.22-25.939-14.956 15.017 35.256z" fill="#2C1D1B"/><path d="M341.165 80.989l-1.94 1.112 15.017 35.219 1.976-1.076-15.053-35.255z" fill="#3F2A28"/><path d="M313.286 67.145l1.94-1.112 25.939 14.956-1.94 1.112-25.939-14.956z" fill="#3F3E3D"/><path d="M336.853 99.174c1.616-.359 4.131 1.47 5.856 2.044a6.727 6.727 0 004.993-.538c.719-1.004-.862-3.587-.287-4.95.575-1.362 1.078-.286 2.443 2.045s1.473 3.586 2.587 4.698a39.55 39.55 0 0011.891-4.519 22.61 22.61 0 0110.778-5.702 74.977 74.977 0 01-6.179-15.1c-2.982-.932-8.335-.287-6.683-10.006a20.315 20.315 0 012.694-7.686 20.354 20.354 0 015.498-6.015 10.781 10.781 0 015.955 3.955 10.752 10.752 0 012.164 6.805c2.766 9.612 4.347 13.844 5.497 18.47 1.149 4.627.682 7.174 1.365 9.828.682 2.654 0 3.586-3.198 7.173a31.016 31.016 0 01-14.37 7.675 55.893 55.893 0 01-16.993.968c-3.162-.968-9.377-.681-12.646-4.124-2.012-1.829-3.916-4.447-1.365-5.021z" fill="#FFC9B6"/><path d="M63.816 86.334v28.297c1.437 0 2.803-.215 4.168-.394V86.334h-4.168zm-5.712 0v28.333h3.593V86.333h-3.593zm-31.579 0v8.033c.004 2.743.844 5.42 2.407 7.676v-15.71h-2.407zm43.615 0v27.58a50.229 50.229 0 004.167-.933V86.334h-4.168zm6.286.002v26.038a38.09 38.09 0 003.054-1.076V86.192l-3.054.144zm-40.057-.002v22.379c.97.574 2.011 1.112 3.053 1.614V86.334H36.37zm15.987 0v27.795a58.29 58.29 0 003.593.431V86.333h-3.593zm-10.778 0v25.105c.97.395 2.012.753 3.054 1.076V86.334h-3.054zm5.317 0v26.647c1.15.323 2.3.574 3.593.825V86.334h-3.593zm-15.735 0v18.434a28.706 28.706 0 003.09 2.69V86.334h-3.09zm63.373 0h-2.515v15.709a13.51 13.51 0 002.515-7.676v-8.034zm-7.724 0v20.981a28.698 28.698 0 003.197-2.547V86.477l-3.197-.144zm-5.174 0v23.993a34.904 34.904 0 003.054-1.614v-22.38h-3.054z" fill="#FFB83B"/><path d="M28.932 86.334v15.709a20.254 20.254 0 002.12 2.582V86.334h-2.12zm5.317 0v20.981a36.14 36.14 0 002.12 1.398v-22.38h-2.12zm5.173.002v23.994c.702.359 1.421.682 2.156.968V86.192l-2.156.144zm5.21-.002v26.038l2.12.609V86.334h-2.12zm5.604 0v27.472l2.12.323V86.333h-2.12zm5.712.001v28.226h2.156V86.227l-2.156.108zm5.749-.001v28.369a20.82 20.82 0 002.12 0v-28.37h-2.12zm6.286 0v27.903l2.156-.323v-27.58h-2.156zm22.023 0v18.434a20.177 20.177 0 002.12-2.582V86.333h-2.12zm-5.316 0v22.379a36.227 36.227 0 002.12-1.398V86.334h-2.12zm-5.21 0v25.105a23.246 23.246 0 002.155-.968V86.333H79.48zm-5.173 0v26.647l2.12-.609V86.334h-2.12z" fill="#FF9D27"/><path d="M60.547 65.963c-18.789 0-34.022 9.11-34.022 20.371 0 11.262 15.233 20.372 34.022 20.372 18.79 0 33.986-9.146 33.986-20.372 0-11.225-15.304-20.371-33.986-20.371z" fill="#FFE375"/><path d="M60.547 70.015c15.772 0 28.74 7.424 29.567 16.75.018-.347.018-.694 0-1.04 0-9.792-13.257-17.933-29.639-17.933-16.382 0-29.675 7.962-29.675 17.932a10.61 10.61 0 000 1.04c1.042-9.325 13.94-16.749 29.747-16.749z" fill="#FF9D27"/><path opacity=".5" d="M60.547 103.516c15.771 0 28.74-7.424 29.567-16.75-.898-9.324-13.796-16.748-29.567-16.748-15.772 0-28.74 7.424-29.603 16.749.898 9.325 13.795 16.749 29.603 16.749z" fill="#FF9D27"/><path d="M79.623 96.411a30.267 30.267 0 00-3.413-3.37 6.628 6.628 0 00.611-6.206c-1.545-4.016-6.538-4.447-10.203-4.052a24.14 24.14 0 00-5.065 1.147c-3.593-1.972-6.934-4.447-10.563-6.24a19.07 19.07 0 017.186-1.148.467.467 0 100-.933 12.917 12.917 0 00-9.7 1.04 20.148 20.148 0 00-4.85-1.29c-.216 0-.288.322 0 .43l3.305 1.937a5.384 5.384 0 00-2.643 4.732 5.374 5.374 0 002.822 4.628c4.168 2.906 9.305.969 13.509-.358l1.15-.359c3.592 2.044 6.933 4.663 10.418 7.173a15.642 15.642 0 01-5.964 2.367 19.18 19.18 0 01-8.083 0 .576.576 0 00-.707.64c.018.126.077.24.168.329 3.161 3.048 11.029 2.26 15.735-.825a6.862 6.862 0 001.15-.861c1.398.879 2.85 1.67 4.347 2.367a.698.698 0 001.081-.7.697.697 0 00-.29-.448zm-28.74-10.544c-4.024-.681-4.958-3.981-2.407-6.563a3.37 3.37 0 01.538-.467c3.306 1.937 6.647 3.91 10.024 5.81l-1.58.539c-2.14.519-4.34.748-6.54.681h-.035zm16.597-.753c2.946 0 8.766 0 6.503 6.204a79.352 79.352 0 00-9.377-5.774c.954-.236 1.929-.38 2.91-.43h-.036zm-30.896 6.132a19.46 19.46 0 01-1.437-2.87c-.287-.968 0-2.08-.395-2.976a.43.43 0 00-.718-.18c-.827.862-.575 2.44-.324 3.587a4.516 4.516 0 002.264 3.12.467.467 0 00.61-.68zM85.408 80.85a.215.215 0 00-.396 0 18.685 18.685 0 010 3.586c0 1.005-.862 1.83-.898 2.834a.501.501 0 00.611.466c2.335-.897 2.407-5.523.683-6.886zm-6.18-1.651a.215.215 0 000 .359 29.062 29.062 0 002.192 2.008c.61.61 1.006 1.255 1.868 1.542a.36.36 0 00.431-.359c.072-1.829-2.73-3.658-4.49-3.55z" fill="#FF9D27"/><path d="M73.444 69.443v28.334c1.401 0 2.803-.215 4.132-.395V69.444h-4.132zm-5.748 0v28.37h3.593v-28.37h-3.593zm-31.579 0v8.07a13.507 13.507 0 002.515 7.675V69.443h-2.515zm43.614 0v27.58a50.312 50.312 0 004.168-.896V69.443H79.73zm6.288-.003v26.075l3.09-1.112V69.297l-3.09.144zm-40.059.003v22.38a28.118 28.118 0 003.09 1.65v-24.03h-3.09zm15.988 0v27.832l3.593.394V69.443h-3.593zm-10.778 0V94.55c.97.395 2.012.753 3.054 1.112V69.443H51.17zm5.21 0v26.684c1.113.287 2.263.574 3.592.79V69.442h-3.593zm-15.628 0v18.328a24.91 24.91 0 003.09 2.654V69.443h-3.09zm63.373 0h-2.515v15.745a13.5 13.5 0 002.515-7.675v-8.07zm-7.688 0v20.982a27.434 27.434 0 003.054-2.654V69.443h-3.054zm-5.209 0v24.03a27.54 27.54 0 003.053-1.65v-22.38h-3.053z" fill="#FFB83B"/><path d="M38.632 69.443v15.745a20.21 20.21 0 002.12 2.583V69.443h-2.12zm5.209 0v20.982c.679.507 1.386.974 2.12 1.398v-22.38h-2.12zm5.209-.003v24.03c.683.323 1.366.646 2.12.933V69.297l-2.12.144zm5.03.003v26.075l2.156.61V69.442H54.08zm5.749 0v27.473l2.12.359V69.443h-2.12zm5.748 0v28.155h2.12V69.443h-2.12zm5.712 0V97.85h2.155V69.515l-2.155-.072zm6.287 0v27.94l2.155-.36v-27.58h-2.155zm21.914 0v18.328a20.24 20.24 0 002.12-2.583V69.443h-2.12zm-5.209 0v22.38a22.173 22.173 0 002.156-1.398V69.443H94.28zm-5.173 0V94.55l2.12-.932v-24.03l-2.12-.144zm-5.209 0v26.684l2.12-.61V69.444h-2.12z" fill="#FF9D27"/><path d="M70.139 49.073c-18.79 0-34.022 9.074-34.022 20.371 0 11.298 15.233 20.372 34.022 20.372 18.79 0 33.986-9.11 33.986-20.372 0-11.261-15.197-20.371-33.986-20.371z" fill="#FFE375"/><path d="M70.14 53.124c15.807 0 28.74 7.424 29.566 16.75a9.45 9.45 0 000-1.005c0-9.827-13.256-17.932-29.639-17.932-16.382 0-29.674 7.962-29.674 17.932v1.005c1.041-9.325 13.939-16.75 29.746-16.75z" fill="#FF9D27"/><path opacity=".5" d="M70.14 86.62c15.806 0 28.74-7.423 29.566-16.748-.898-9.325-13.76-16.75-29.567-16.75s-28.74 7.425-29.603 16.75c.898 9.325 13.796 16.749 29.603 16.749z" fill="#FF9D27"/><path d="M89.216 79.665a29.979 29.979 0 00-3.593-3.336 6.664 6.664 0 00.79-6.42c-1.544-4.052-6.502-4.447-10.202-4.088-1.722.216-3.419.6-5.066 1.148-3.593-1.973-6.934-4.412-10.562-6.241a20.653 20.653 0 017.185-1.148.467.467 0 100-.932 12.952 12.952 0 00-9.7 1.076 20.327 20.327 0 00-4.814-1.291c-.252 0-.323.322 0 .394l3.305 1.937a5.384 5.384 0 00-2.764 4.698 5.372 5.372 0 002.764 4.698c4.168 2.87 9.305.969 13.544-.394l1.114-.359c3.593 2.045 6.97 4.699 10.418 7.173a15.427 15.427 0 01-5.963 2.368 19.035 19.035 0 01-8.048 0 .575.575 0 00-.575.968c3.198 3.084 11.03 2.26 15.736-.79l1.186-.86a42.22 42.22 0 004.31 2.367.673.673 0 00.935-.968zm-28.67-10.76c-4.059-.717-4.993-3.98-2.442-6.599.162-.174.343-.33.539-.466l10.023 5.846-1.58.502a24.328 24.328 0 01-6.54.717zm16.563-.789c2.946 0 8.766.18 6.502 6.205a90.152 90.152 0 00-9.376-5.775c.948-.18 1.909-.287 2.874-.322v-.108zm-30.897 6.276a18.38 18.38 0 01-1.473-2.905c-.287-.969 0-2.045-.395-2.977a.394.394 0 00-.683-.18 3.977 3.977 0 00-.359 3.587 4.658 4.658 0 002.264 3.156.47.47 0 00.646-.681zM95 63.956a.252.252 0 00-.395.179 18.306 18.306 0 010 3.587c0 1.004-.862 1.829-.898 2.869a.502.502 0 00.61.43c2.336-1.04 2.407-5.703.683-7.065zm-6.107-1.652a.251.251 0 000 .394 28.743 28.743 0 002.191 1.973 4.561 4.561 0 001.868 1.542.397.397 0 00.467-.358c-.035-1.83-2.838-3.659-4.526-3.551z" fill="#FF9D27"/><path d="M134.842 21.13v28.335c1.401 0 2.802-.252 4.167-.43V21.13h-4.167zm-5.748 0v28.335h3.592V21.13h-3.592zm-31.579 0v8.07a13.689 13.689 0 002.514 7.676V21.13h-2.514zm43.614 0v27.581a50.303 50.303 0 004.167-.896V21.13h-4.167zm6.359.003v26.039a39.037 39.037 0 003.089-1.076V20.99l-3.089.143zm-40.13-.003v22.38c.97.575 2.012 1.113 3.09 1.65V21.13h-3.09zm16.023 0v27.796c1.15.18 2.371.323 3.593.43V21.132h-3.593zm-10.813 0v25.107c.97.394 2.012.753 3.054 1.076V21.13h-3.054zm5.209 0v26.685c1.114.287 2.263.574 3.592.789V21.13h-3.592zm-15.592 0v18.292a25.108 25.108 0 003.054 2.69V21.131h-3.054zm63.266 0H162.9v15.746a13.728 13.728 0 002.551-7.675v-8.07zm-7.617 0v20.982a25.033 25.033 0 003.054-2.69V21.131h-3.054zm-5.209 0v24.03c1.078-.537 2.12-1.075 3.054-1.65V21.13h-3.054z" fill="#FFB83B"/><path d="M100.029 21.13v15.746c.646.908 1.367 1.76 2.156 2.546V21.131h-2.156zm5.21 0v20.982c.682.466 1.401.968 2.119 1.399V21.13h-2.119zm5.209.003v24.03l2.12.933V20.99l-2.12.143zm5.174-.003v26.04c.718.25 1.437.43 2.155.645V21.13h-2.155zm5.604 0v27.474l2.156.322V21.131h-2.156zm5.748 0v28.227h2.12V21.13h-2.12zm5.712 0V49.5h2.156V21.13h-2.156zm6.323 0v27.904c.719 0 1.401-.18 2.12-.323v-27.58h-2.12zm21.879 0v18.292a19.446 19.446 0 002.12-2.546V21.13h-2.12zm-5.209 0v22.38c.754-.43 1.473-.932 2.155-1.398V21.131h-2.155zm-5.174 0v25.107l2.12-.933V21.131h-2.12zm-5.209 0v26.685c.719-.215 1.437-.395 2.12-.646V21.131h-2.12z" fill="#FF9D27"/><path d="M131.536.76c-18.789 0-34.021 9.11-34.021 20.372s15.232 20.371 34.021 20.371c18.79 0 33.915-9.11 33.915-20.371C165.451 9.87 150.326.76 131.536.76z" fill="#FFE375"/><path d="M131.537 4.814c15.807 0 28.74 7.425 29.567 16.75a9.497 9.497 0 000-1.04c0-9.792-13.293-17.754-29.675-17.754s-29.567 7.962-29.567 17.753a9.02 9.02 0 000 1.04c.97-9.324 13.867-16.749 29.675-16.749z" fill="#FF9D27"/><path opacity=".5" d="M131.537 38.314c15.807 0 28.741-7.424 29.567-16.75-.898-9.324-13.616-16.749-29.567-16.749s-28.741 7.425-29.567 16.75c.862 9.325 13.759 16.749 29.567 16.749z" fill="#FF9D27"/><path d="M150.613 31.21a30.25 30.25 0 00-3.413-3.371 6.547 6.547 0 00.611-6.24c-1.545-4.054-6.503-4.448-10.203-4.09a24.132 24.132 0 00-5.065 1.184c-3.593-1.973-6.898-4.411-10.563-6.24a19.866 19.866 0 017.186-1.148.47.47 0 00.467-.466.468.468 0 00-.467-.467 13.096 13.096 0 00-9.7 1.04 22.193 22.193 0 00-4.815-1.29c-.251 0-.323.322 0 .43l3.306 1.936c-2.803 2.619-4.132 6.205.251 9.325 4.383 3.12 9.305.969 13.544-.358l1.114-.359c3.592 2.044 6.97 4.698 10.418 7.173a15.425 15.425 0 01-5.963 2.367 19.041 19.041 0 01-8.048 0 .575.575 0 00-.575.969c3.198 3.084 11.03 2.26 15.736-.79.416-.27.813-.569 1.186-.896a34.16 34.16 0 004.347 2.403.643.643 0 00.646-1.112zm-28.74-10.508c-4.06-.718-4.958-4.017-2.443-6.6l.538-.466 10.024 5.81-1.581.538a24.001 24.001 0 01-6.467.718h-.071zm16.597-.79c2.91 0 8.73 0 6.503 6.205a76.566 76.566 0 00-9.341-5.774 15.851 15.851 0 012.91-.43h-.072zm-30.86 6.168a18.388 18.388 0 01-1.473-2.905c-.288-.969 0-2.045-.359-2.977 0-.287-.503-.43-.719 0-.862.86-.611 2.439-.323 3.586a4.518 4.518 0 002.227 3.156.542.542 0 00.755-.107.533.533 0 00.102-.399.539.539 0 00-.21-.354zm48.787-10.437a.217.217 0 00-.197-.13.215.215 0 00-.198.13 18.848 18.848 0 010 3.586c0 1.005-.862 1.83-.862 2.834a.463.463 0 00.363.467.469.469 0 00.212-.001c2.335-.86 2.55-5.523.682-6.886zm-6.107-1.647c-.18 0-.252.215 0 .395.61.753 1.509 1.255 2.191 1.972a4.564 4.564 0 001.868 1.543.397.397 0 00.467-.36c-.143-1.828-2.838-3.657-4.526-3.55z" fill="#FF9D27"/></svg>