<svg width="30" height="480" viewBox="0 0 30 480" fill="none" xmlns="http://www.w3.org/2000/svg">
<path opacity="0.25" d="M22 162L22 3L8.00001 3L8 162L22 162Z" fill="url(#paint0_linear)"/>
<path opacity="0.25" d="M22 460L22 173L8.00001 173L8 460L22 460Z" fill="url(#paint1_linear)"/>
<path opacity="0.51" d="M22 470L22 466L8 466L8 470L22 470Z" fill="url(#paint2_linear)"/>
<path d="M14.556 29.092C22.5951 29.092 29.1121 22.5796 29.1121 14.546C29.1121 6.51248 22.5951 0 14.556 0C6.51696 0 0 6.51248 0 14.546C0 22.5796 6.51696 29.092 14.556 29.092Z" fill="url(#paint3_linear)"/>
<path d="M16.1843 21.092H14.6195V10.7187L11.4814 11.8713V10.4579L15.9403 8.7837H16.1843V21.092Z" fill="white"/>
<path d="M14.556 179.092C22.5951 179.092 29.1121 172.58 29.1121 164.546C29.1121 156.512 22.5951 150 14.556 150C6.51696 150 0 156.512 0 164.546C0 172.58 6.51696 179.092 14.556 179.092Z" fill="url(#paint4_linear)"/>
<path d="M19.0663 170.092H11.0402V168.973L15.2804 164.262C15.9086 163.549 16.3404 162.972 16.576 162.529C16.8172 162.08 16.9378 161.617 16.9378 161.141C16.9378 160.501 16.7443 159.977 16.3573 159.567C15.9703 159.158 15.4543 158.953 14.8093 158.953C14.0353 158.953 13.4323 159.175 13.0004 159.618C12.5742 160.055 12.3611 160.667 12.3611 161.452H10.8046C10.8046 160.324 11.1664 159.413 11.8899 158.718C12.6191 158.022 13.5922 157.674 14.8093 157.674C15.9478 157.674 16.848 157.974 17.5099 158.575C18.1717 159.169 18.5026 159.963 18.5026 160.955C18.5026 162.161 17.7342 163.597 16.1974 165.263L12.9163 168.822H19.0663V170.092Z" fill="white"/>
<path d="M14.556 329.092C22.5951 329.092 29.1121 322.58 29.1121 314.546C29.1121 306.512 22.5951 300 14.556 300C6.51695 300 0 306.512 0 314.546C0 322.58 6.51695 329.092 14.556 329.092Z" fill="url(#paint5_linear)"/>
<path d="M13.2745 314.21H14.4439C15.1787 314.199 15.7564 314.005 16.177 313.63C16.5977 313.254 16.808 312.746 16.808 312.107C16.808 310.671 16.0929 309.953 14.6627 309.953C13.9896 309.953 13.4512 310.147 13.0474 310.534C12.6491 310.915 12.45 311.423 12.45 312.056H10.8936C10.8936 311.086 11.247 310.281 11.9537 309.642C12.666 308.997 13.569 308.674 14.6627 308.674C15.8181 308.674 16.7239 308.98 17.3801 309.591C18.0363 310.203 18.3644 311.052 18.3644 312.141C18.3644 312.673 18.1906 313.189 17.8428 313.689C17.5007 314.188 17.0324 314.561 16.4378 314.807C17.1109 315.021 17.6297 315.374 17.9943 315.868C18.3644 316.361 18.5495 316.964 18.5495 317.676C18.5495 318.776 18.1906 319.648 17.4726 320.293C16.7547 320.938 15.8209 321.26 14.6711 321.26C13.5213 321.26 12.5846 320.949 11.8611 320.326C11.1432 319.704 10.7842 318.882 10.7842 317.861H12.3491C12.3491 318.506 12.5594 319.022 12.9801 319.409C13.4007 319.796 13.9644 319.99 14.6711 319.99C15.4227 319.99 15.9975 319.794 16.3958 319.401C16.794 319.008 16.9931 318.445 16.9931 317.71C16.9931 316.998 16.7744 316.451 16.3369 316.069C15.8994 315.688 15.2684 315.492 14.4439 315.481H13.2745V314.21Z" fill="white"/>
<path d="M14.5561 479.092C22.5951 479.092 29.1121 472.58 29.1121 464.546C29.1121 456.512 22.5951 450 14.5561 450C6.51698 450 0 456.512 0 464.546C0 472.58 6.51698 479.092 14.5561 479.092Z" fill="url(#paint6_linear)"/>
<path d="M16.5532 465.978H18.2526V467.248H16.5532V470.092H14.9884V467.248H9.41049V466.331L14.8958 457.843H16.5532V465.978ZM11.1772 465.978H14.9884V459.971L14.8033 460.308L11.1772 465.978Z" fill="white"/>
<defs>
<linearGradient id="paint0_linear" x1="22" y1="82.5" x2="8" y2="82.5" gradientUnits="userSpaceOnUse">
<stop stop-color="#028EA4"/>
<stop offset="1" stop-color="#3DBBCE"/>
</linearGradient>
<linearGradient id="paint1_linear" x1="22" y1="316.5" x2="8.00001" y2="316.5" gradientUnits="userSpaceOnUse">
<stop stop-color="#028EA4"/>
<stop offset="1" stop-color="#3DBBCE"/>
</linearGradient>
<linearGradient id="paint2_linear" x1="-2738.94" y1="2522.6" x2="-2737.07" y2="3414.08" gradientUnits="userSpaceOnUse">
<stop stop-color="#FAE9DA"/>
<stop offset="1" stop-color="#FFD0D9"/>
</linearGradient>
<linearGradient id="paint3_linear" x1="14.556" y1="0" x2="14.556" y2="29.092" gradientUnits="userSpaceOnUse">
<stop stop-color="#494949"/>
<stop offset="1" stop-color="#262626"/>
</linearGradient>
<linearGradient id="paint4_linear" x1="14.556" y1="150" x2="14.556" y2="179.092" gradientUnits="userSpaceOnUse">
<stop stop-color="#494949"/>
<stop offset="1" stop-color="#262626"/>
</linearGradient>
<linearGradient id="paint5_linear" x1="14.556" y1="300" x2="14.556" y2="329.092" gradientUnits="userSpaceOnUse">
<stop stop-color="#494949"/>
<stop offset="1" stop-color="#262626"/>
</linearGradient>
<linearGradient id="paint6_linear" x1="14.5561" y1="450" x2="14.5561" y2="479.092" gradientUnits="userSpaceOnUse">
<stop stop-color="#494949"/>
<stop offset="1" stop-color="#262626"/>
</linearGradient>
</defs>
</svg>
