<svg width="138" height="212" viewBox="0 0 138 212" fill="none" xmlns="http://www.w3.org/2000/svg">
<path d="M108.785 159.593C124.731 155.735 135.921 145.429 133.779 136.575C131.637 127.72 116.975 123.67 101.03 127.528C85.0844 131.387 73.8944 141.693 76.036 150.547C78.1777 159.401 92.84 163.451 108.785 159.593Z" fill="#D0DFFF"/>
<path d="M94.4955 48.7061C91.9795 49.2856 90.0505 51.1463 89.1128 56.332C88.175 61.5176 87.4659 68.8308 87.2524 71.233C87.0389 73.6351 90.3936 80.1476 91.5068 82.1075C92.6199 84.0674 94.648 87.3084 94.648 87.3084L97.3775 80.3612C97.3775 80.3612 95.9594 74.8248 94.0228 71.5914C94.0228 71.5914 94.587 67.7784 95.7306 65.9253L94.4955 48.7061Z" fill="#C3CFDD"/>
<path d="M98.1324 148.705C98.2697 150.04 97.6445 151.443 98.1324 152.686C98.3712 153.235 98.7662 153.702 99.2684 154.028C99.7689 154.347 100.307 154.603 100.87 154.791C101.647 154.99 102.353 155.405 102.905 155.988C103.245 156.498 103.423 157.098 103.416 157.711C103.446 157.973 103.401 158.237 103.286 158.474C103.164 158.63 103.011 158.76 102.836 158.856C102.662 158.952 102.47 159.011 102.272 159.031C101.411 159.227 100.533 159.337 99.6496 159.358C98.7912 159.422 97.9302 159.276 97.1413 158.931C96.1093 158.306 95.2743 157.402 94.732 156.323C94.1943 155.244 93.4108 154.307 92.4447 153.586C92.1375 153.692 91.8492 153.846 91.5908 154.043C90.3161 153.321 89.2213 152.32 88.3885 151.115C87.9219 150.568 87.5154 149.972 87.1763 149.338C88.3675 147.807 89.8794 146.555 91.606 145.67C93.2048 146.309 94.7609 147.05 96.2645 147.889C96.8321 148.273 97.4652 148.549 98.1324 148.705Z" fill="#0F0F0F"/>
<path d="M104.857 140.263C105.796 140.287 106.726 140.073 107.561 139.641C108.395 139.209 109.107 138.573 109.63 137.792C109.574 137.484 109.634 137.167 109.798 136.9C110.275 136.17 110.98 135.617 111.803 135.329C112.603 135.024 113.457 134.879 114.273 134.612C115.11 134.384 115.852 133.895 116.393 133.217C116.835 132.584 117.384 132.088 117.826 131.447C118.043 131.163 118.204 130.839 118.299 130.494C118.345 130.231 118.332 129.962 118.26 129.704C118.189 129.447 118.062 129.209 117.887 129.007C117.534 128.602 117.066 128.315 116.545 128.184C116.025 128.053 115.487 128.001 114.952 128.031C112.611 128.107 110.911 130.456 109.317 132.172C107.757 133.919 106.323 135.774 105.025 137.724C104.757 138.068 104.544 138.451 104.392 138.86C104.371 139.113 104.402 139.368 104.482 139.609C104.562 139.85 104.689 140.072 104.857 140.263Z" fill="#0F0F0F"/>
<path d="M94.732 86.981C94.4499 89.7492 93.9238 94.6069 96.4703 98.6944C99.0168 102.782 101.274 106.618 101.64 109.485C102.006 112.352 99.8784 117.439 100.435 119.841C100.992 122.243 102.333 129.289 102.25 131.684L113.808 119.033L112.428 100.349L99.1541 87.2555L94.732 86.981Z" fill="#0B2850"/>
<path d="M98.3917 87.2324C96.3331 87.2324 99.1541 97.4664 103.95 102.728C106.55 105.489 108.73 112.1 109.477 118.895C109.699 120.512 107.381 123.539 106.344 124.637C105.307 125.736 101.647 128.832 99.7259 132.782C97.8046 136.732 92.8641 143.161 91.5069 144.587C90.1498 146.013 92.0711 146.92 92.3609 147.172C92.6506 147.424 96.0358 149.879 97.1794 149.872C98.3231 149.864 98.8186 149.239 99.543 148.293C100.267 147.347 106.146 139.142 108.776 136.092C111.406 133.041 117.613 126.224 118.802 124.203C119.991 122.182 120.822 119.383 121.089 114.03C121.356 108.676 121.432 100.242 118.802 91.3809C112.282 88.8523 105.381 87.4495 98.3917 87.2324Z" fill="#16365C"/>
<path d="M118.977 91.2895C117.859 92.4963 116.375 93.3004 114.753 93.5772C111.23 94.4359 107.543 94.3509 104.063 93.3308C100.583 92.3107 97.4328 90.3914 94.9302 87.7663C94.5109 85.4785 96.0739 83.4043 96.8058 81.2233C97.9266 77.9136 97.1337 74.2532 95.7994 71.0274C94.4651 67.8017 92.5972 64.7971 91.4764 61.4875C90.3556 58.1778 90.0507 54.3572 91.789 51.3297C92.4812 50.0279 93.6256 49.0243 95.0065 48.5082C96.4627 48.0277 98.1477 48.2565 99.4362 47.4253C102.364 48.7217 106.085 48.2794 108.898 49.8122C110.491 50.6816 111.605 52.2067 112.985 53.3811C114.165 54.3441 115.273 55.3916 116.301 56.5154C117.254 57.5572 118.013 58.7606 118.543 60.069C119.214 62.0651 119.448 64.1821 119.229 66.2765C119.176 67.2069 119.084 68.1296 118.985 69.0523C118.254 76.4466 118.252 83.8947 118.977 91.2895Z" fill="#181818"/>
<path d="M100.854 45.0308C100.449 45.8702 99.9773 46.6761 99.4438 47.4405C99.4438 47.4405 99.8632 48.8895 102.356 50.0791C104.849 51.2687 107.343 50.8951 108.928 51.4365C110.1 51.7676 111.236 52.212 112.321 52.7634C111.545 51.3263 110.977 49.7855 110.636 48.1879C110.636 48.1879 106.58 47.6007 105.238 47.2194C103.896 46.8381 101.632 46.1289 100.854 45.0308Z" fill="#DCE8F6"/>
<path d="M116.294 34.6899C116.252 35.4388 116.168 36.1848 116.042 36.9243C115.928 37.6869 115.806 38.4495 115.668 39.2502C115.451 39.998 115.3 40.7636 115.218 41.538C115.207 42.1923 115.022 42.8318 114.682 43.3907C114.341 43.9496 113.858 44.4078 113.282 44.7179C112.824 44.9544 112.321 45.0916 111.894 45.3662C111.436 45.7086 111.074 46.1639 110.844 46.6879C110.615 47.2118 110.525 47.7864 110.583 48.3555C110.58 48.4308 110.552 48.5029 110.504 48.5608C110.455 48.6187 110.39 48.6591 110.316 48.6758C110.175 48.7063 110.03 48.7063 109.889 48.6758L107.045 48.2716C105.841 48.1444 104.656 47.8757 103.515 47.4709C102.371 47.0417 101.42 46.2128 100.839 45.1374C100.885 45.023 100.923 44.9086 100.961 44.7866C101.289 43.9746 101.289 43.0668 100.961 42.2548C99.8022 39.967 98.6738 37.6792 98.4603 35.1093C98.2468 32.5394 98.9711 29.8246 100.969 28.246C102.087 27.4542 103.356 26.9013 104.697 26.6217C106.55 26.0556 108.504 25.902 110.423 26.1718C111.367 26.3643 112.259 26.7547 113.041 27.3173C113.823 27.8799 114.477 28.6019 114.959 29.4357C115.886 31.0281 116.348 32.8482 116.294 34.6899Z" fill="#F3B489"/>
<path d="M115.081 31.9523C114.903 32.7185 114.648 33.4646 114.319 34.1791C113.923 35.1898 113.64 36.2408 113.473 37.3133C113.404 38.3488 113.167 39.3663 112.771 40.3256C112.694 39.8522 112.571 39.3874 112.405 38.9376C112.365 38.7698 112.291 38.6121 112.188 38.4743C112.084 38.3365 111.953 38.2216 111.803 38.1369C111.551 38.0561 111.277 38.078 111.04 38.1979C110.713 38.3741 110.434 38.6272 110.227 38.9355C110.02 39.2437 109.891 39.5978 109.851 39.9671C109.785 40.7079 109.889 41.454 110.156 42.1481C109.972 43.0005 109.65 43.8171 109.203 44.5655C108.721 45.3246 108.016 45.9156 107.184 46.257C106.353 46.5985 105.436 46.6736 104.56 46.472C103.264 46.1746 102.181 45.3053 100.961 44.7715C101.289 43.9594 101.289 43.0517 100.961 42.2396C99.8022 39.9519 98.6738 37.6641 98.4603 35.0942C98.2468 32.5243 98.9711 29.8094 100.969 28.2309C102.087 27.4391 103.356 26.8861 104.697 26.6066C106.55 26.0404 108.504 25.8869 110.423 26.1566C111.367 26.3492 112.259 26.7396 113.041 27.3022C113.823 27.8648 114.477 28.5868 114.959 29.4205C115.152 30.2502 115.193 31.1079 115.081 31.9523Z" fill="#844B22"/>
<path d="M116.278 27.6893C116.39 27.3389 116.411 26.9656 116.337 26.6051C116.264 26.2446 116.099 25.909 115.859 25.6303C115.27 25.0639 114.507 24.712 113.694 24.6313C112.168 24.3975 110.624 24.3006 109.081 24.3415C107.55 24.2937 106.018 24.3958 104.506 24.6466C102.993 24.9084 101.584 25.5931 100.443 26.6217C98.7348 28.2765 98.1553 30.7702 97.9723 33.1418C97.8924 33.7518 97.8924 34.3697 97.9723 34.9797C98.1172 35.6355 98.2697 36.2913 98.445 36.9395C98.7618 38.219 99.2491 39.4502 99.8936 40.6C100.221 41.1719 100.61 41.7057 100.9 42.2929C101.217 42.8779 101.35 43.5451 101.281 44.207C101.37 44.1808 101.452 44.1368 101.522 44.0778C101.593 44.0188 101.651 43.946 101.693 43.8638C102.287 42.7448 102.637 41.5131 102.722 40.2492C102.808 39.5478 102.958 38.8559 103.172 38.1826C103.352 37.5707 103.656 37.0022 104.064 36.5125C104.552 36.0244 105.078 35.5821 105.589 35.0864C106.1 34.5907 106.527 34.0722 107.007 33.5612C108.554 31.8609 110.664 30.7774 112.946 30.5109C113.504 30.4878 114.053 30.3692 114.57 30.1601C114.853 29.9446 115.08 29.6649 115.234 29.3441C115.645 28.8346 115.995 28.2793 116.278 27.6893Z" fill="#844B22"/>
<path d="M119.221 66.2762C118.216 67.4779 116.896 68.3757 115.409 68.869C113.538 69.4568 111.566 69.6566 109.615 69.4562C108.868 69.4517 108.134 69.2603 107.48 68.8995C106.775 68.3833 106.28 67.6308 106.085 66.7795C105.699 65.4159 105.761 63.9648 106.26 62.6386C106.806 61.3622 107.581 60.1965 108.547 59.1994C109.563 57.9168 110.87 56.8946 112.359 56.2176C112.696 56.159 113.028 56.0723 113.351 55.9584C113.704 55.9051 114.062 55.8898 114.418 55.9126C115.074 55.9649 115.709 56.1713 116.271 56.515C117.223 57.5569 117.982 58.7603 118.512 60.0687C119.191 62.0631 119.433 64.1801 119.221 66.2762Z" fill="#C3CFDD"/>
<path d="M37.7444 205.808C55.0579 202.686 67.6979 192.414 65.9765 182.864C64.2552 173.314 48.8244 168.104 31.5108 171.226C14.1973 174.348 1.55729 184.62 3.27864 194.17C4.99999 203.72 20.4308 208.931 37.7444 205.808Z" fill="#D0DFFF"/>
<path d="M106.496 5.59721C106.438 4.46866 106.091 3.3739 105.49 2.41721L106.649 2.58498L104.262 1.28095L104.034 1.15131C100.275 -0.762794 95.4791 3.37807 90.8207 9.23476L90.47 13.6578C90.47 13.6578 91.6517 12.0258 93.0165 10.432L93.1461 10.5007L97.7207 7.17577L97.5758 6.90886C98.1598 6.68256 98.7857 6.58516 99.4108 6.62333C100.036 6.6615 100.645 6.83435 101.197 7.13002C102.606 6.17466 104.261 5.64518 105.963 5.60484L106.496 5.59721Z" fill="url(#paint0_linear)"/>
<path d="M106.496 5.59717H105.978C104.276 5.63751 102.622 6.16698 101.213 7.12235C102.288 7.83156 103.004 9.41012 102.776 12.3461C102.173 19.972 93.1461 30.938 88.1446 36.749L85.3922 39.9442L83.3794 44.9926C83.3794 44.9926 84.9043 43.353 87.0924 40.8746L87.6795 41.1949L89.6085 40.3331L95.7079 32.753L103.469 21.9624C103.469 21.9624 105.757 15.8616 105.757 15.5795C105.757 15.2973 105.574 14.2297 105.437 13.3756C106.262 10.8693 106.621 8.23295 106.496 5.59717Z" fill="url(#paint1_linear)"/>
<path d="M93.1462 10.5006L92.7954 14.9313C92.7954 14.9313 96.2874 10.1269 98.1858 8.94493C100.084 7.76291 105.696 6.02421 105.101 13.6272C104.506 21.2302 95.4716 32.2192 90.47 38.0301L87.6795 41.2177L85.7048 46.2813C85.7048 46.2813 97.4844 33.5995 102.844 25.2262C108.204 16.853 111.124 5.45227 106.756 2.64594C102.928 0.205651 97.98 4.4304 93.1462 10.5006Z" fill="#FD9A08"/>
<path d="M73.1705 119.681L32.4033 96.1396L73.1705 72.5908L113.945 96.1396L73.1705 119.681Z" fill="#8EC2FE"/>
<path d="M73.1705 125.697L32.4033 102.149L73.1705 78.6074L113.945 102.149L73.1705 125.697Z" fill="#8EC2FE"/>
<path d="M32.4033 96.1396V102.515L73.1705 126.064V119.681L32.4033 96.1396Z" fill="#60A2F0"/>
<path d="M113.945 96.1396V102.523L73.1704 126.064V119.681L113.945 96.1396Z" fill="#3A7CC9"/>
<path d="M73.1706 99.7465L42.1396 81.8256L73.1706 63.9048L104.209 81.8256L73.1706 99.7465Z" fill="#8EC2FE"/>
<path d="M42.1396 81.8257V93.806L73.1706 111.727V99.7465L42.1396 81.8257Z" fill="#60A2F0"/>
<path d="M104.209 81.8257V93.806L73.1704 111.727V99.7465L104.209 81.8257Z" fill="#3A7CC9"/>
<path d="M77.6229 57.499V68.8616H70.9059V66.8865C70.5021 66.769 70.1132 66.6053 69.747 66.3985C69.3723 66.2336 69.0487 65.9711 68.81 65.6384C68.5713 65.3057 68.4262 64.9151 68.3899 64.5072V57.499H77.6229Z" fill="#FFBB00"/>
<path d="M86.3988 75.4961V81.4672C86.3988 83.4499 85.095 85.425 82.4799 86.935C77.2496 89.9853 68.7561 89.9853 63.5335 86.935C62.9949 86.6245 62.4846 86.2672 62.0086 85.8674C61.4787 85.4223 61.0096 84.9095 60.6134 84.3422C59.9915 83.4971 59.6502 82.4783 59.6375 81.4291V75.4961H64.5094C67.1997 74.3342 70.0991 73.7349 73.0295 73.7349C75.96 73.7349 78.8594 74.3342 81.5497 75.4961H86.3988Z" fill="#FFBB00"/>
<path d="M86.3988 75.4962C86.3988 77.4789 85.095 79.4617 82.4799 80.9716C77.2496 84.0219 68.7561 84.0219 63.5335 80.9716C62.9965 80.6585 62.4865 80.3014 62.0086 79.904C61.3113 79.3928 60.7367 78.7327 60.3266 77.9716C59.9164 77.2104 59.681 76.3674 59.6375 75.5038C59.68 74.165 60.2243 72.891 61.1623 71.9349L68.4359 64.5454H77.6766L84.9578 71.9349C85.8633 72.902 86.377 74.1714 86.3988 75.4962Z" fill="#FFBB00"/>
<path d="M70.9061 66.8866C68.2086 69.4765 65.8144 72.3649 63.7698 75.4962C62.9379 76.7727 62.3342 78.1842 61.9857 79.6676V85.8674C61.4558 85.4223 60.9867 84.9096 60.5904 84.3422C59.9686 83.4972 59.6273 82.4784 59.6145 81.4291V75.4962C59.659 74.16 60.2031 72.8891 61.1394 71.9349L68.413 64.5454H70.1437L70.9061 66.8866Z" fill="#FF9418"/>
<path d="M59.8584 77.0669C60.4322 78.1618 61.2909 79.0813 62.344 79.7284C63.3784 80.3994 64.4959 80.9326 65.6682 81.3146C70.4249 82.7789 75.512 82.7789 80.2687 81.3146C81.442 80.9391 82.5619 80.4137 83.6005 79.7513C84.6563 79.1113 85.5243 78.2037 86.1166 77.1203C86.123 77.1058 86.1324 77.0928 86.1442 77.0822C86.156 77.0715 86.1698 77.0634 86.1849 77.0584C86.1999 77.0533 86.2159 77.0515 86.2317 77.053C86.2475 77.0545 86.2628 77.0592 86.2767 77.0669C86.3021 77.0801 86.3216 77.1022 86.3315 77.129C86.3414 77.1558 86.3408 77.1854 86.33 77.2118C85.8506 78.4298 85.0365 79.4873 83.9818 80.2622C82.93 81.0321 81.7816 81.6603 80.5661 82.1305C79.3544 82.5902 78.1005 82.9299 76.8225 83.1448C74.2691 83.5818 71.6601 83.5818 69.1067 83.1448C67.8316 82.921 66.5806 82.5763 65.3708 82.1153C64.1593 81.6368 63.016 81.001 61.9704 80.2241C60.9283 79.4314 60.1346 78.3571 59.6831 77.128C59.6758 77.1017 59.6788 77.0736 59.6916 77.0495C59.7044 77.0254 59.7259 77.0071 59.7517 76.9983C59.7747 76.9955 59.798 77.0008 59.8175 77.0133C59.837 77.0258 59.8515 77.0448 59.8584 77.0669Z" fill="#FFE200"/>
<path d="M77.6231 64.5076C77.5875 64.9146 77.4436 65.3047 77.2063 65.6373C76.9689 65.9699 76.6469 66.2328 76.2736 66.3988C74.6196 67.2283 72.7135 67.4026 70.9366 66.8868C70.5328 66.7694 70.1439 66.6056 69.7777 66.3988C69.382 66.2663 69.038 66.0128 68.7943 65.6741C68.5506 65.3354 68.4194 64.9287 68.4194 64.5114C68.4194 64.0941 68.5506 63.6873 68.7943 63.3486C69.038 63.0099 69.382 62.7564 69.7777 62.624C70.1423 62.414 70.5316 62.2501 70.9366 62.1359C72.7131 61.6163 74.6207 61.7908 76.2736 62.624C76.6458 62.7893 76.9672 63.0511 77.2044 63.3822C77.4417 63.7134 77.5862 64.1018 77.6231 64.5076Z" fill="#FFBB00"/>
<path d="M70.906 61.4186L77.6307 61.0068V62.6235C77.6307 62.6235 75.2595 63.9276 70.906 63.2031V61.4186Z" fill="#FF9418"/>
<path d="M70.9059 57.499V66.8865C70.5021 66.769 70.1132 66.6053 69.747 66.3985C69.3723 66.2336 69.0487 65.9711 68.81 65.6384C68.5713 65.3058 68.4262 64.9151 68.3899 64.5072V57.499H70.9059Z" fill="#FF9418"/>
<path d="M98.3002 17.1353C98.3002 18.5308 98.2621 20.117 98.1629 21.8328C98.1248 22.542 98.0791 23.2665 98.0257 24.0138C97.919 25.4017 97.7741 26.8506 97.5911 28.3453C96.0663 40.8975 91.4459 56.3781 79.491 60.4809C77.4007 61.1839 75.208 61.5344 73.0027 61.518C71.8744 61.5189 70.7477 61.4322 69.6328 61.2587C67.809 60.9639 66.0389 60.4011 64.3796 59.5886C64.0899 59.4437 63.8078 59.2912 63.5257 59.1387L63.4647 59.1006C50.1374 51.5586 47.7129 28.2767 47.7129 17.1581L98.3002 17.1353Z" fill="#FFBB00"/>
<path d="M69.6328 61.2588C67.809 60.964 66.0389 60.4012 64.3796 59.5887C64.0899 59.4438 63.8078 59.2913 63.5257 59.1388L63.4647 59.1006C50.1374 51.5586 47.7129 28.2768 47.7129 17.1582H53.8733C54.6205 27.0261 59.9499 46.7467 69.6328 61.2588Z" fill="#FF9418"/>
<path d="M73.0027 31.7311C86.9699 31.7311 98.2926 25.1929 98.2926 17.1275C98.2926 9.06219 86.9699 2.52393 73.0027 2.52393C59.0355 2.52393 47.7129 9.06219 47.7129 17.1275C47.7129 25.1929 59.0355 31.7311 73.0027 31.7311Z" fill="#FFE200"/>
<path d="M89.9058 26.8889C80.5737 32.2804 65.4394 32.2804 56.1073 26.8889C54.2909 25.8841 52.6754 24.5527 51.3421 22.9616C47.2173 17.8522 48.8108 11.5914 56.1073 7.37424C63.4037 3.15712 74.3217 2.23438 83.1812 4.64416C85.5309 5.26079 87.7912 6.17841 89.9058 7.37424C99.2304 12.7657 99.2304 21.4974 89.9058 26.8889Z" fill="#FFBB00"/>
<path d="M89.9058 26.8887C80.5737 32.2802 65.4394 32.2802 56.1072 26.8887C54.2908 25.8839 52.6754 24.5525 51.342 22.9613C60.6894 13.6349 73.666 7.83155 83.1812 4.65918C85.5309 5.27581 87.7911 6.19342 89.9058 7.38925C99.2303 12.7655 99.2303 21.4972 89.9058 26.8887Z" fill="#E68210"/>
<path d="M88.2131 28.8486V48.798L89.3492 47.7075L88.2131 28.8486Z" fill="#FF9418"/>
<path d="M88.2132 47.7456C84.7877 50.7448 82.5731 54.8904 81.9841 59.4056L83.2803 60.9308L88.7774 50.5291L88.2132 47.7456Z" fill="#FF9418"/>
<path d="M101.007 51.3374C101.007 57.2627 96.8516 64.4616 91.7281 67.4204C86.6045 70.3793 82.4417 67.9847 82.4417 62.0823C82.4417 56.1798 86.5969 48.9657 91.7281 45.9993C96.8592 43.0328 101.007 45.4197 101.007 51.3374Z" fill="#C79D24"/>
<path d="M98.8643 52.6184C98.8643 57.1939 95.6697 62.7074 91.728 64.9876C87.7862 67.2677 84.584 65.4146 84.584 60.862C84.584 56.3093 87.7786 50.7653 91.728 48.4928C95.6773 46.2202 98.8643 48.0428 98.8643 52.6184Z" fill="#C79D24"/>
<path d="M102.402 52.1382C102.402 58.0559 98.2469 65.2547 93.1157 68.2212C87.9845 71.1877 83.8369 68.7779 83.8369 62.8831C83.8369 56.9882 87.9922 49.7589 93.1157 46.8C98.2392 43.8412 102.402 46.2128 102.402 52.1382Z" fill="#FFFEC5"/>
<path d="M100.26 53.381C100.26 57.9565 97.065 63.4701 93.1156 65.7502C89.1662 68.0304 85.9792 66.1849 85.9792 61.6246C85.9792 57.0643 89.1738 51.5355 93.1156 49.2554C97.0574 46.9752 100.26 48.8055 100.26 53.381Z" fill="#FFBB00"/>
<path d="M93.6341 24.0977C92.5164 25.1843 91.2633 26.1224 89.9058 26.8887C89.0745 27.3668 88.2167 27.7971 87.3364 28.1775L88.2132 28.8486L89.4102 48.8056C90.7216 46.5712 94.7473 45.3358 94.7473 45.3358V24.5628L93.6036 24.0977H93.6341Z" fill="#941A3A"/>
<path d="M94.9684 62.059L92.9861 63.2029V55.394L91.4612 58.1164L90.3252 57.3538L93.2606 52.2597L94.9913 51.2607L94.9684 62.059Z" fill="#FFFEC5"/>
<path d="M91.9949 63.8133V61.495L95.9366 59.2148V61.5331L91.9949 63.8133Z" fill="#FFFEC5"/>
<path d="M104.209 81.8257V93.806L73.1704 111.727V99.7465L104.209 81.8257Z" fill="#3A7CC9"/>
<path d="M75.3052 108.905V100.982L102.829 85.082V93.013L75.3052 108.905Z" fill="#F8C700"/>
<path d="M81.5343 103.277L80.8176 103.712V100.913L80.2686 101.889L79.8569 101.63L80.9091 99.8076L81.5343 99.4492V103.277Z" fill="#B08100"/>
<path d="M84.1876 101.744L83.4785 102.149V98.2976L85.0034 97.3901C85.3541 97.1918 85.6286 97.1461 85.8344 97.2757C85.9424 97.357 86.0268 97.4655 86.079 97.5901C86.1313 97.7147 86.1495 97.8509 86.1318 97.9849C86.1236 98.3587 86.0185 98.724 85.8268 99.0449C85.6364 99.3943 85.3509 99.6825 85.0034 99.8761L84.1571 100.372L84.1876 101.744ZM84.95 99.2127C85.0954 99.1282 85.2163 99.0073 85.3007 98.8619C85.3894 98.7257 85.4371 98.5669 85.438 98.4043C85.4467 98.3468 85.4384 98.2879 85.414 98.235C85.3896 98.1822 85.3502 98.1376 85.3007 98.1069C85.2416 98.089 85.179 98.0853 85.1181 98.0958C85.0572 98.1064 84.9997 98.1311 84.95 98.1679L84.1876 98.6102V99.6474L84.95 99.2127Z" fill="#B08100"/>
<path d="M88.7241 99.1365L86.5969 100.364V96.5055L87.3136 96.0938V99.228L88.7241 98.412V99.1365Z" fill="#B08100"/>
<path d="M92.3304 97.0396L91.5222 97.5048L91.3164 96.971L89.883 97.7945L89.6771 98.5571L88.8613 99.0223L90.1575 94.4468L91.0495 93.9282L92.3304 97.0396ZM91.1257 96.3609L90.5997 95.0035L90.0812 96.9633L91.1257 96.3609Z" fill="#B08100"/>
<path d="M94.0916 96.0863C93.9134 96.2217 93.7034 96.309 93.4817 96.3397C93.2601 96.3705 93.0342 96.3436 92.826 96.2617C92.6415 96.1387 92.4957 95.966 92.4053 95.7636C92.3149 95.5612 92.2836 95.3373 92.3151 95.1178C92.321 94.5045 92.4979 93.905 92.826 93.3868C93.127 92.8512 93.5635 92.4042 94.0916 92.0904C94.7168 91.7294 95.1819 91.7752 95.4868 92.2276L94.8769 92.9292C94.8435 92.8714 94.7972 92.8221 94.7417 92.7851C94.6862 92.748 94.6229 92.7243 94.5567 92.7157C94.3937 92.6908 94.2274 92.729 94.0916 92.8224C93.7701 92.999 93.5057 93.2635 93.3292 93.585C93.1375 93.9112 93.035 94.282 93.0318 94.6603C93.0098 94.8023 93.0258 94.9477 93.078 95.0816C93.1302 95.2155 93.2168 95.3332 93.3292 95.4229C93.45 95.4855 93.5863 95.5116 93.7217 95.4981C93.8571 95.4845 93.9856 95.4319 94.0916 95.3466C94.2732 95.2362 94.4312 95.0911 94.5567 94.9196C94.694 94.7422 94.8021 94.5439 94.8769 94.3324H95.4868C95.2399 95.0615 94.7465 95.6818 94.0916 96.0863Z" fill="#B08100"/>
<path d="M98.2773 93.6001L95.9138 94.9651V91.1141L98.2773 89.749V90.4659L96.6229 91.4267V92.2732L98.2468 91.3428V92.1054L96.6229 93.0358V93.9128L98.2773 92.9595V93.6001Z" fill="#B08100"/>
<path d="M75.3054 108.905L74.8403 108.638V100.708L75.3054 100.982V108.905Z" fill="#DCA200"/>
<path d="M102.829 85.0819L102.364 84.8149L74.8403 100.707L75.3054 100.982L102.829 85.0819Z" fill="#FFD664"/>
<path d="M43.9769 48.8054C44.1522 48.508 44.3429 48.2258 44.5335 47.9436C43.5666 47.4089 42.7493 46.6399 42.1565 45.7073C41.5637 44.7747 41.2145 43.7082 41.1406 42.6055C40.5383 35.6964 46.1498 30.9684 48.0483 29.9465C49.9467 28.9247 53.4463 29.7025 53.4463 29.7025L53.2862 27.8646L55.3447 27.6206L53.0574 25.6836C48.2617 25.1651 43.2907 26.6903 39.4862 33.5536C35.8418 40.0966 37.2675 46.7616 40.95 50.0636H40.9958L41.1788 50.2238L43.3974 52.1303L43.123 51.4516L43.3974 51.5736C43.649 51.6727 43.9159 51.7718 44.1599 51.8557C43.8823 51.5241 43.6631 51.1476 43.5118 50.7423C43.4087 50.0607 43.5755 49.3658 43.9769 48.8054Z" fill="url(#paint2_linear)"/>
<path d="M60.8115 52.0311L58.5242 50.0941H55.7413C52.5544 50.0941 47.7358 49.8653 44.5031 47.9131C44.3125 48.1952 44.1219 48.4774 43.9465 48.7748C43.7455 49.0639 43.6042 49.3902 43.5309 49.7346C43.4576 50.079 43.4537 50.4345 43.5196 50.7804C43.6709 51.1856 43.89 51.5621 44.1676 51.8938C49.8096 53.7088 60.4989 52.8775 60.4989 52.8775L59.9652 52.115L60.8115 52.0311Z" fill="url(#paint3_linear)"/>
<path d="M55.3448 27.6281L55.6955 31.647C55.6955 31.647 52.2112 30.8844 50.3051 31.8986C48.399 32.9129 42.7951 37.6409 43.3975 44.5576C43.9998 51.4743 53.0193 52.031 58.0285 52.031H60.8114L62.7861 54.8145C62.7861 54.8145 51.0065 55.7372 45.6543 53.5486C40.302 51.3599 37.359 43.3375 41.7354 35.4904C45.5475 28.65 50.5186 27.1324 55.3448 27.6281Z" fill="#FD9A08"/>
<path d="M18.9692 192.058C18.8709 192.523 18.6437 192.951 18.3135 193.293L18.0924 193.499C17.9596 193.632 17.7965 193.731 17.6172 193.786C17.438 193.842 17.2478 193.854 17.0631 193.82C13.897 192.94 10.9616 191.378 8.46289 189.244C8.55936 188.844 8.69206 188.453 8.85935 188.077C9.3793 186.991 10.0213 185.968 10.7731 185.027C11.1924 184.455 11.6041 183.883 12.0234 183.319C12.427 183.185 12.8627 183.185 13.2662 183.319C14.6971 183.775 16.0022 184.558 17.0784 185.606C17.0027 186.639 17.1349 187.676 17.4672 188.657C18.0441 188.98 18.5004 189.482 18.7671 190.087C19.0339 190.693 19.0968 191.368 18.9463 192.012L18.9692 192.058Z" fill="#0F0F0F"/>
<path d="M18.5652 193.499C18.4336 193.631 18.2719 193.73 18.0939 193.785C17.9159 193.841 17.7271 193.853 17.5436 193.819C14.3775 192.94 11.4421 191.378 8.94336 189.244C9.03983 188.844 9.17253 188.453 9.33982 188.077C9.70579 188.169 10.148 188.382 10.4149 188.466C10.9181 188.634 11.4136 188.817 11.894 189.03C12.9138 189.454 13.8295 190.094 14.5777 190.906C14.9418 191.393 15.342 191.852 15.7747 192.279C16.5997 192.834 17.5198 193.232 18.489 193.453L18.5652 193.499Z" fill="black"/>
<path d="M62.2601 183.54C62.1816 184.105 61.9642 184.642 61.6273 185.103C60.2424 187.176 58.1499 188.672 55.7414 189.313C53.9954 189.778 52.1351 189.763 50.4043 190.388C50.4043 190.647 50.4043 190.929 50.4043 191.151C49.6745 191.56 48.9089 191.902 48.1171 192.172C47.3366 192.457 46.4944 192.528 45.6773 192.378C45.354 192.32 45.0547 192.169 44.8157 191.944C44.6822 191.799 44.5809 191.627 44.5184 191.44C44.4672 191.298 44.4239 191.153 44.3888 191.006C44.1512 190.007 44.0587 188.98 44.1143 187.955C44.6281 187.262 45.1939 186.61 45.8069 186.003C47.1447 184.582 48.8368 183.542 50.7093 182.991C53.3982 182.311 56.136 181.842 58.8978 181.588C59.3392 181.55 59.7831 181.55 60.2245 181.588C60.4019 181.601 60.5779 181.629 60.7505 181.672C61.0548 181.738 61.3392 181.875 61.5814 182.071C61.8236 182.267 62.0168 182.517 62.1458 182.8C62.2418 183.034 62.281 183.288 62.2601 183.54Z" fill="#0F0F0F"/>
<path d="M59.9346 184.15C58.6537 185.393 56.8238 185.85 55.0931 186.254L51.7384 187.017L48.7726 187.711L47.2477 188.069C46.897 188.153 46.4853 188.359 46.2947 187.986C45.9559 187.392 45.787 186.717 45.8067 186.033C47.1446 184.612 48.8366 183.572 50.7091 183.021C53.398 182.341 56.1358 181.872 58.8977 181.618C59.339 181.58 59.7829 181.58 60.2243 181.618C60.4008 181.763 60.5351 181.952 60.6131 182.167C60.6974 182.528 60.6784 182.905 60.5584 183.256C60.4384 183.606 60.2222 183.916 59.9346 184.15Z" fill="#1C1C1C"/>
<path d="M62.2601 183.54C62.1815 184.105 61.9641 184.643 61.6273 185.103C60.2423 187.176 58.1498 188.672 55.7413 189.313C53.9953 189.778 52.135 189.763 50.4043 190.388C50.4043 190.647 50.4043 190.93 50.4043 191.151C49.6744 191.56 48.9088 191.902 48.117 192.173C47.3365 192.457 46.4943 192.528 45.6772 192.378C45.3539 192.32 45.0546 192.169 44.8157 191.944C44.6821 191.799 44.5808 191.627 44.5183 191.44C45.2637 191.489 46.0121 191.422 46.737 191.242C48.0255 190.945 49.2378 190.403 50.4958 190.007C53.3701 189.099 56.5495 188.916 59.0731 187.269C60.4751 186.362 61.5825 185.066 62.2601 183.54Z" fill="black"/>
<path d="M51.99 184.6C48.8412 189.1 43.649 190.358 43.4737 188.802C43.0082 184.427 42.1352 180.104 40.8661 175.891C39.9436 173.016 40.1876 169.295 40.1876 167.335C40.3978 164.785 40.1103 162.218 39.3413 159.778C38.434 156.415 36.0323 152.64 34.9268 151.008C34.5685 150.482 34.3474 150.177 34.3474 150.177C34.5075 154.455 29.2238 162.493 28.5453 163.499C27.8667 164.506 24.4281 170.363 23.7114 172.65C22.4898 176.759 20.8815 180.742 18.9081 184.547C18.4431 185.409 18.0847 186.301 17.673 186.491C17.6093 186.523 17.538 186.536 17.4671 186.53C15.6907 186.308 11.4363 184.387 10.8264 184.005C10.2164 183.624 10.3155 183.433 10.3155 183.433C13.594 176.471 16.0338 166.588 17.0707 163.949C18.1076 161.311 22.8651 154.295 23.1701 152.671C23.4751 151.046 23.4675 145.952 21.8511 140.256C21.2429 138.069 20.9577 135.806 21.0048 133.537C21.0161 132.184 21.1591 130.836 21.4318 129.511L22.2857 129.549L43.8015 130.357L45.4255 135.093C49.4831 143.223 51.2065 152.32 50.4042 161.372C49.9772 167.19 50.2212 175.678 50.671 177.447C51.1208 179.216 52.5618 183.678 51.99 184.6Z" fill="#16365C"/>
<path d="M34.9269 150.993C34.5686 150.466 34.3475 150.161 34.3475 150.161C34.5076 154.439 29.2239 162.477 28.5454 163.484C27.8668 164.49 24.4282 170.347 23.7116 172.635C22.4908 176.748 20.8825 180.737 18.9082 184.546C18.4432 185.408 18.0848 186.3 17.6731 186.491C17.451 186.014 17.3998 185.476 17.5282 184.966C17.75 184.229 18.0871 183.531 18.527 182.899C20.7228 179.185 20.3492 174.305 22.5374 170.576L23.8183 168.402L27.5847 161.989L28.6216 160.22C28.9104 159.613 29.2577 159.036 29.6585 158.496C30.0347 158.186 30.3567 157.814 30.6116 157.398C30.8568 156.88 31.0091 156.322 31.0614 155.751C31.1377 154.809 31.076 153.861 30.8784 152.937C30.5677 151.259 30.1137 149.611 29.5213 148.011C28.472 145.246 27.1757 142.581 25.6481 140.049C24.8857 138.768 24.1233 137.502 23.3151 136.236C22.9838 135.59 22.5796 134.984 22.1105 134.429C21.897 134.223 20.9821 133.88 20.9821 133.522C20.9934 132.169 21.1364 130.82 21.409 129.495L22.2629 129.533C22.4307 129.533 23.0254 130.448 23.1702 130.601C23.5021 130.98 23.8559 131.339 24.23 131.676C25.4956 132.782 25.5109 135.146 26.098 136.625C26.8522 138.431 27.817 140.141 28.9723 141.719C29.994 143.191 31.069 144.617 32.0221 146.135C32.5072 146.901 32.9501 147.692 33.3487 148.506C33.6842 149.193 34.2026 149.811 34.6067 150.474C34.7221 150.641 34.829 150.814 34.9269 150.993Z" fill="#0B2850"/>
<path d="M21.6148 90.7479C20.1357 90.7479 17.0936 90.5648 15.0732 94.5608C13.0527 98.5568 16.2321 104.703 16.2321 104.703C16.2321 104.703 22.0342 96.3148 22.3315 94.5379C22.4213 93.234 22.1745 91.9289 21.6148 90.7479Z" fill="#C3CFDD"/>
<path d="M42.7419 137.594C42.4195 137.793 42.0831 137.969 41.7354 138.12C39.957 138.804 38.039 139.044 36.1468 138.822C31.0709 138.361 26.3439 136.042 22.8729 132.309C22.2909 131.767 21.8689 131.076 21.653 130.311C21.3175 128.786 22.4764 127.337 23.0254 125.85C23.5595 124.191 23.5434 122.404 22.9796 120.756C22.4871 119.118 21.8253 117.536 21.005 116.035C19.2157 112.992 17.7148 109.788 16.5219 106.465C15.3331 103.119 15.1138 99.5053 15.889 96.0402C16.3999 94.0422 17.4978 92.0442 19.3733 91.1978C20.5551 90.7131 21.8592 90.6118 23.1016 90.908C24.3366 91.205 25.5375 91.6292 26.6851 92.1739C30.1694 93.6991 34.4924 94.4617 37.5497 96.6884C38.8686 97.5911 40.0877 98.6315 41.1865 99.7921C41.4869 100.134 41.767 100.493 42.0252 100.867C43.1715 102.785 43.9087 104.919 44.1905 107.136C44.5391 109.207 44.7126 111.304 44.7089 113.404C44.7089 114.243 44.7089 115.074 44.7089 115.921C44.5869 121.259 44.1142 126.658 45.4714 131.79C45.9898 133.994 44.6784 136.381 42.7419 137.594Z" fill="#181818"/>
<path d="M25.6558 88.8491C25.2654 89.68 24.809 90.4782 24.291 91.236C24.291 91.236 24.7256 92.6621 27.1806 93.7983C29.6357 94.9346 32.0983 94.5609 33.6613 95.0642C34.8203 95.3723 35.9445 95.7991 37.016 96.3377C36.2355 94.935 35.6604 93.4275 35.3081 91.8614C35.3081 91.8614 31.313 91.3199 29.9711 90.9615C28.6292 90.6031 26.4334 89.9244 25.6558 88.8491Z" fill="#DCE8F6"/>
<path d="M40.7215 78.5463C40.6935 79.2848 40.6197 80.0208 40.5004 80.7502C40.3936 81.5128 40.2869 82.2753 40.1649 83.0379C39.9559 83.7684 39.8131 84.5162 39.7379 85.2723C39.736 85.9154 39.5625 86.5462 39.2355 87.0998C38.9085 87.6535 38.4397 88.1098 37.8776 88.4218C37.4112 88.6157 36.9557 88.8347 36.5129 89.0776C36.066 89.4184 35.7156 89.8698 35.4963 90.3874C35.277 90.9049 35.1964 91.4707 35.2625 92.0289C35.2586 92.1028 35.2314 92.1736 35.1848 92.2311C35.1383 92.2886 35.0747 92.33 35.0032 92.3492C34.8651 92.3796 34.722 92.3796 34.5839 92.3492L31.7782 91.9831C30.59 91.8719 29.4199 91.6158 28.2939 91.2205C27.1587 90.8095 26.2143 89.9952 25.6406 88.9328L25.755 88.5896C26.0792 87.79 26.0792 86.8955 25.755 86.0959C24.4813 83.9404 23.6203 81.5663 23.2161 79.0953C22.9492 76.6093 23.6659 73.8945 25.6101 72.3235C26.7033 71.5343 27.946 70.9764 29.2621 70.684C31.0794 70.112 32.999 69.9403 34.8889 70.1807C35.8202 70.359 36.7029 70.7334 37.4784 71.279C38.254 71.8247 38.9046 72.529 39.3872 73.3454C40.3159 74.9175 40.7786 76.7212 40.7215 78.5463Z" fill="#F3B489"/>
<path d="M39.5016 75.8317C39.3331 76.5874 39.0932 77.3253 38.7849 78.0355C38.4095 79.0207 38.1411 80.0434 37.9844 81.0859C37.9267 82.1035 37.7053 83.1052 37.3287 84.0524C37.2535 83.5877 37.1282 83.1326 36.9551 82.695C36.914 82.5326 36.8391 82.3807 36.7353 82.2493C36.6315 82.1179 36.5012 82.0099 36.3527 81.9324C36.228 81.8895 36.0956 81.8735 35.9642 81.8853C35.8328 81.8971 35.7054 81.9366 35.5903 82.001C35.2687 82.1757 34.9952 82.4273 34.7943 82.7333C34.5935 83.0393 34.4714 83.3903 34.439 83.755C34.3819 84.4818 34.4914 85.2121 34.7593 85.8902C34.5898 86.7302 34.2833 87.5367 33.852 88.2771C33.3922 89.0364 32.7073 89.6334 31.8925 89.9853C31.076 90.3282 30.1742 90.4133 29.3079 90.2293C28.0346 89.9472 26.9596 89.1083 25.755 88.5974C26.0792 87.7978 26.0792 86.9033 25.755 86.1037C24.4813 83.9482 23.6203 81.5742 23.2161 79.1032C22.9492 76.6171 23.6659 73.9023 25.6101 72.3314C26.7033 71.5421 27.946 70.9842 29.2621 70.6918C31.0794 70.1198 32.999 69.9481 34.8889 70.1885C35.8202 70.3668 36.7029 70.7412 37.4784 71.2869C38.254 71.8325 38.9046 72.5369 39.3872 73.3532C39.5756 74.1656 39.6143 75.0054 39.5016 75.8317Z" fill="#844B22"/>
<path d="M40.63 71.63C40.7378 71.2848 40.7551 70.9177 40.6804 70.5638C40.6056 70.21 40.4413 69.8813 40.2031 69.6092C39.6172 69.0547 38.8634 68.7113 38.0607 68.633C36.5458 68.4191 35.0149 68.34 33.4861 68.3966C31.9838 68.3643 30.482 68.4818 29.003 68.7474C27.5136 69.0173 26.1326 69.708 25.0231 70.7378C23.361 72.3774 22.8197 74.8405 22.6672 77.174C22.5833 77.7761 22.5833 78.3869 22.6672 78.989C22.812 79.6296 22.9721 80.2702 23.1475 80.9031C23.472 82.1583 23.9644 83.3639 24.6114 84.4873C24.9468 85.044 25.3738 85.5702 25.6254 86.1497C25.9451 86.7173 26.0809 87.3701 26.0142 88.0181C26.1028 87.9945 26.1851 87.9514 26.255 87.8921C26.3249 87.8327 26.3807 87.7585 26.4183 87.6749C27.0111 86.5802 27.3621 85.3709 27.4476 84.1289C27.5238 83.4392 27.6616 82.7578 27.8593 82.0927C28.0343 81.4881 28.33 80.9251 28.7285 80.4379C29.1936 79.9575 29.712 79.5152 30.1771 79.0195C30.6422 78.5238 31.0844 78.0129 31.5571 77.4943C33.0631 75.8148 35.1221 74.7322 37.3592 74.444C37.9106 74.4196 38.4531 74.2956 38.9603 74.0779C39.2357 73.867 39.4555 73.5922 39.6008 73.2772C40.0072 72.7704 40.3527 72.2175 40.63 71.63Z" fill="#844B22"/>
<path d="M42.7418 137.594C42.4194 137.793 42.0831 137.969 41.7354 138.12L41.8193 137.998C43.3441 135.786 43.001 132.728 41.865 130.288C40.729 127.848 38.8839 125.827 37.481 123.539C35.9029 120.982 34.8264 118.148 34.3093 115.189C34.1568 114.327 33.4935 111.948 34.0425 111.193C34.3093 110.811 35.2547 110.712 35.6817 110.506C36.2866 110.192 36.8745 109.846 37.4429 109.469C38.6094 108.752 39.9818 108.104 41.2932 108.486C42.1663 108.787 42.897 109.401 43.3441 110.209C43.7879 111.008 44.1531 111.848 44.4344 112.718C44.5208 112.947 44.6123 113.175 44.7089 113.404C44.7089 114.243 44.7089 115.074 44.7089 115.921C44.5869 121.259 44.1142 126.658 45.4713 131.79C45.9898 133.994 44.6784 136.381 42.7418 137.594Z" fill="#0F0F0F"/>
<path d="M44.6556 115.913C43.1307 116.043 41.6592 116.127 40.1572 116.15C38.5409 116.15 36.8407 116.104 35.4607 115.258C34.5905 114.643 33.9004 113.808 33.4621 112.837C33.0237 111.866 32.8529 110.796 32.9675 109.736C33.2206 107.619 34.0077 105.601 35.2548 103.872C36.0158 102.571 37.0577 101.456 38.3045 100.608C39.1541 100.086 40.1284 99.8015 41.1255 99.7847C41.426 100.126 41.706 100.485 41.9642 100.86C43.1137 102.776 43.8512 104.911 44.1295 107.128C44.5954 110.032 44.7717 112.975 44.6556 115.913Z" fill="#C3CFDD"/>
<path d="M75.2139 123.455C75.2749 123.349 75.8162 121.93 75.9153 121.762C75.9722 121.657 76.0662 121.577 76.179 121.538C76.2918 121.498 76.4152 121.502 76.5252 121.549C76.7997 121.656 76.8455 121.892 76.7768 122.235L76.51 123.76L75.2139 123.455Z" fill="#EBA778"/>
<path d="M41.1713 99.7926C43.7179 101.005 45.845 105.184 47.0802 112.543C48.3153 119.902 48.9176 122.182 48.9176 122.182C52.5782 122.302 56.2262 122.674 59.8357 123.296C65.9351 124.34 68.0775 122.937 68.0775 122.937C68.0775 122.937 68.9772 123.738 68.9772 125.896C68.9772 128.054 67.8183 128.222 67.8183 128.222C67.8183 128.222 61.3986 129.297 57.9982 129.495C54.5978 129.694 45.7993 130.06 44.526 129.259C43.2528 128.458 37.9615 120.581 35.8038 111.903C35.8038 111.903 34.9042 104.627 37.2143 102.08C39.5245 99.5333 41.1713 99.7926 41.1713 99.7926Z" fill="#DCE8F6"/>
<path d="M68.1994 127.657C70.0965 127.686 71.9916 127.525 73.8567 127.177C75.3077 126.521 76.6725 125.688 77.9204 124.699C78.5604 123.857 79.0599 122.917 79.3995 121.915C79.4758 121.153 79.6054 120.642 79.0565 120.52C78.5075 120.398 77.463 122.281 77.3562 122.51C76.7051 122.944 75.9346 123.162 75.1528 123.135C74.1449 123.174 73.1396 123.266 72.1412 123.41C72.5485 122.962 72.995 122.551 73.4755 122.182C74.1159 121.717 75.4654 120.916 75.6941 120.657C75.9229 120.398 76.2812 119.711 75.6941 119.292C75.3867 119.138 75.0364 119.093 74.7001 119.164C74.3639 119.234 74.0613 119.417 73.8414 119.681C73.1178 120.251 72.3233 120.725 71.4779 121.092C70.1725 121.318 68.9761 121.963 68.0698 122.929L68.1994 127.657Z" fill="#F3B489"/>
<path d="M111.574 103.331C111.481 103.224 111.367 103.139 111.239 103.079C111.172 103.051 111.1 103.04 111.028 103.046C110.956 103.053 110.887 103.077 110.827 103.117C110.774 103.161 110.733 103.216 110.705 103.278C110.677 103.34 110.664 103.408 110.667 103.476C110.673 103.612 110.701 103.746 110.751 103.872C110.869 104.268 111.06 104.638 111.315 104.963C111.58 105.286 111.96 105.494 112.375 105.542C112.318 104.745 112.041 103.979 111.574 103.331Z" fill="#EBA778"/>
<path d="M111.574 100.936L111.849 104.818C111.835 105.111 111.918 105.4 112.085 105.641C112.221 105.765 112.382 105.858 112.557 105.915C112.731 105.972 112.916 105.99 113.099 105.969C113.769 105.976 114.438 105.917 115.097 105.794C115.528 105.745 115.939 105.582 116.286 105.321C116.606 105.054 116.797 104.658 117.125 104.406C117.453 104.154 118.017 104.017 118.253 103.643C118.402 103.248 118.402 102.811 118.253 102.415C118.101 101.653 118.04 100.822 117.826 100.044C117.652 99.2505 117.187 98.5513 116.522 98.084C115.127 99.3423 113.053 99.7388 111.574 100.936Z" fill="#F3B489"/>
<path d="M118.733 65.3995C118.52 66.5768 118.237 67.7405 117.887 68.8846C117.201 71.1724 116.934 73.605 116.477 75.9538C116.222 77.2604 115.968 78.5619 115.714 79.8583C115.6 80.4073 115.485 80.9488 115.363 81.4826C115.201 81.8791 115.101 82.2984 115.066 82.7256C115.506 84.7097 115.776 86.7277 115.874 88.7577C115.958 91.6098 116.682 97.3673 117.071 98.3053C117.46 99.2433 115.92 100.936 114.403 101.562C112.886 102.187 111.277 101.318 111.033 100.471C110.789 99.6246 109.371 92.8985 108.997 91.8843C108.624 90.8701 106.832 87.0571 106.565 84.8685C106.426 83.1562 106.398 81.4368 106.481 79.721C106.519 77.2044 106.603 74.6879 106.756 72.1713C106.806 70.3579 106.972 68.5495 107.251 66.757C107.669 64.5655 108.328 62.4273 109.218 60.3817C109.711 58.9927 110.582 57.7696 111.734 56.8509C112.357 56.4272 113.074 56.1637 113.823 56.0839C114.572 56.0041 115.329 56.1104 116.027 56.3934C117.047 56.8694 117.899 57.6441 118.47 58.6151C119.04 59.586 119.302 60.7073 119.221 61.8306C119.124 63.0282 118.961 64.2196 118.733 65.3995Z" fill="#DCE8F6"/>
<defs>
<linearGradient id="paint0_linear" x1="100.877" y1="-3.77503" x2="96.7126" y2="17.234" gradientUnits="userSpaceOnUse">
<stop stop-color="#FFF61F"/>
<stop offset="0.12" stop-color="#FFEF1D"/>
<stop offset="0.3" stop-color="#FEDD19"/>
<stop offset="0.5" stop-color="#FCBF11"/>
<stop offset="0.72" stop-color="#F99507"/>
<stop offset="0.85" stop-color="#F87B00"/>
</linearGradient>
<linearGradient id="paint1_linear" x1="4155.04" y1="5164.03" x2="3691.57" y2="6945.13" gradientUnits="userSpaceOnUse">
<stop stop-color="#FFF61F"/>
<stop offset="0.12" stop-color="#FFEF1D"/>
<stop offset="0.3" stop-color="#FEDD19"/>
<stop offset="0.5" stop-color="#FCBF11"/>
<stop offset="0.72" stop-color="#F99507"/>
<stop offset="0.85" stop-color="#F87B00"/>
</linearGradient>
<linearGradient id="paint2_linear" x1="49.1995" y1="23.9449" x2="40.6342" y2="52.3962" gradientUnits="userSpaceOnUse">
<stop stop-color="#FFE200"/>
<stop offset="0.14" stop-color="#FFDB00"/>
<stop offset="0.33" stop-color="#FDC900"/>
<stop offset="0.56" stop-color="#FBAB00"/>
<stop offset="0.81" stop-color="#F88100"/>
<stop offset="0.85" stop-color="#F87B00"/>
</linearGradient>
<linearGradient id="paint3_linear" x1="53.4769" y1="44.634" x2="50.937" y2="56.9038" gradientUnits="userSpaceOnUse">
<stop stop-color="#FFF61F"/>
<stop offset="1" stop-color="#F87B00"/>
</linearGradient>
</defs>
</svg>
